<?xml version="1.0" encoding="UTF-8"?>
<svg xmlns="http://www.w3.org/2000/svg" xmlns:xlink="http://www.w3.org/1999/xlink" width="24pt" height="24pt" viewBox="0 0 24 24" version="1.1">
<g id="surface1">
<path style=" stroke:none;fill-rule:nonzero;fill:rgb(0%,0%,0%);fill-opacity:1;" d="M 1.65625 8.800781 C 2.132812 8.890625 2.621094 8.914062 3.105469 8.921875 C 3.617188 8.933594 4.128906 8.953125 4.644531 8.972656 C 6.519531 9.042969 8.390625 9.0625 10.265625 9.035156 C 12.132812 9.011719 13.996094 8.996094 15.863281 9.042969 C 17.6875 9.09375 19.507812 9.117188 21.332031 8.984375 C 21.839844 8.949219 22.347656 8.980469 22.851562 8.902344 C 23.347656 8.828125 23.867188 8.601562 23.945312 8.058594 C 23.945312 8.046875 23.945312 8.039062 23.945312 8.027344 C 24.015625 7.214844 23.550781 6.519531 23.09375 5.886719 C 22.789062 5.46875 22.445312 5.101562 22.046875 4.777344 C 21.1875 4.074219 20.175781 3.582031 19.140625 3.195312 C 17.070312 2.414062 14.839844 2.035156 12.636719 1.851562 C 10.394531 1.664062 8.089844 1.796875 5.972656 2.617188 C 4.242188 3.285156 2.714844 4.410156 1.640625 5.925781 C 1.292969 6.414062 1.003906 6.9375 0.773438 7.488281 C 0.664062 7.746094 0.550781 8.003906 0.671875 8.277344 C 0.828125 8.625 1.328125 8.738281 1.65625 8.800781 Z M 1.039062 8.003906 C 1.042969 7.996094 1.042969 7.988281 1.046875 7.972656 C 1.070312 7.875 1.117188 7.773438 1.152344 7.679688 C 1.164062 7.652344 1.171875 7.625 1.183594 7.605469 C 1.1875 7.597656 1.191406 7.59375 1.191406 7.589844 C 1.191406 7.589844 1.195312 7.578125 1.203125 7.566406 C 1.226562 7.503906 1.253906 7.445312 1.28125 7.390625 C 1.902344 6.054688 2.882812 4.929688 4.09375 4.082031 C 6.113281 2.675781 8.609375 2.179688 11.035156 2.195312 C 12.933594 2.203125 14.859375 2.472656 16.707031 2.910156 C 17.828125 3.175781 18.941406 3.515625 19.984375 4.003906 C 20.917969 4.441406 21.820312 5.003906 22.492188 5.792969 C 22.738281 6.082031 22.960938 6.40625 23.15625 6.726562 C 23.398438 7.121094 23.5625 7.554688 23.527344 8.023438 C 23.519531 8.074219 23.484375 8.160156 23.457031 8.195312 C 23.390625 8.273438 23.328125 8.3125 23.230469 8.359375 C 23.042969 8.453125 22.796875 8.488281 22.585938 8.511719 C 22.101562 8.5625 21.613281 8.535156 21.132812 8.574219 C 19.289062 8.722656 17.433594 8.660156 15.585938 8.613281 C 13.71875 8.566406 11.851562 8.589844 9.984375 8.613281 C 8.109375 8.636719 6.234375 8.613281 4.359375 8.53125 C 3.894531 8.511719 3.433594 8.503906 2.964844 8.492188 C 2.507812 8.476562 2.039062 8.453125 1.585938 8.347656 C 1.398438 8.300781 1.265625 8.265625 1.117188 8.15625 C 1.136719 8.171875 1.078125 8.117188 1.066406 8.105469 C 1.066406 8.105469 1.0625 8.101562 1.0625 8.097656 C 1.050781 8.085938 1.046875 8.074219 1.039062 8.058594 C 1.066406 8.113281 1.039062 8.007812 1.035156 8.03125 C 1.039062 8.023438 1.039062 8.015625 1.039062 8.003906 Z M 1.039062 8.003906 "/>
<path style=" stroke:none;fill-rule:nonzero;fill:rgb(0%,0%,0%);fill-opacity:1;" d="M 1.003906 10.8125 C 1.332031 10.902344 1.675781 10.980469 2.015625 11 C 2.648438 11.042969 3.277344 10.871094 3.910156 10.941406 C 4.207031 10.96875 4.476562 11.089844 4.6875 11.296875 C 4.921875 11.53125 5.15625 11.757812 5.421875 11.957031 C 5.972656 12.378906 6.632812 12.617188 7.292969 12.296875 C 7.839844 12.015625 8.3125 11.578125 8.894531 11.363281 C 9.527344 11.125 10.207031 11.304688 10.742188 11.683594 C 11.300781 12.074219 11.738281 12.617188 12.378906 12.882812 C 12.890625 13.097656 13.398438 13.058594 13.835938 12.714844 C 14.1875 12.4375 14.445312 12.050781 14.839844 11.828125 C 15.082031 11.6875 15.367188 11.652344 15.640625 11.675781 C 15.910156 11.703125 16.136719 11.863281 16.320312 12.050781 C 16.53125 12.265625 16.695312 12.519531 16.867188 12.765625 C 17.050781 13.039062 17.277344 13.253906 17.570312 13.410156 C 18.140625 13.714844 18.855469 13.738281 19.445312 13.476562 C 20.054688 13.203125 20.324219 12.613281 20.703125 12.105469 C 20.855469 11.898438 21.074219 11.695312 21.296875 11.625 C 21.503906 11.558594 21.722656 11.558594 21.945312 11.558594 C 22.429688 11.558594 22.949219 11.621094 23.417969 11.449219 C 23.890625 11.273438 24.179688 10.800781 24.105469 10.296875 C 24.042969 9.871094 23.582031 9.679688 23.214844 9.609375 C 22.769531 9.523438 22.3125 9.539062 21.863281 9.5625 C 21.257812 9.59375 20.644531 9.585938 20.035156 9.589844 C 19.097656 9.59375 18.15625 9.597656 17.214844 9.601562 C 13.453125 9.625 9.695312 9.65625 5.933594 9.625 C 5.066406 9.621094 4.199219 9.636719 3.332031 9.546875 C 2.546875 9.464844 1.75 9.359375 0.964844 9.507812 C 0.636719 9.570312 -0.195312 9.792969 0.0390625 10.296875 C 0.109375 10.4375 0.261719 10.53125 0.398438 10.597656 C 0.601562 10.695312 0.800781 10.757812 1.003906 10.8125 Z M 0.464844 10.144531 C 0.492188 10.125 0.515625 10.113281 0.546875 10.097656 C 0.828125 9.949219 1.167969 9.898438 1.484375 9.875 C 1.878906 9.84375 2.28125 9.871094 2.675781 9.910156 C 3.066406 9.945312 3.460938 9.992188 3.855469 10.023438 C 4.289062 10.054688 4.722656 10.046875 5.15625 10.054688 C 6.097656 10.0625 7.039062 10.066406 7.976562 10.070312 C 11.738281 10.082031 15.496094 10.042969 19.257812 10.027344 C 20.027344 10.023438 20.808594 10.054688 21.582031 10.011719 C 21.996094 9.992188 22.410156 9.964844 22.824219 9.992188 C 23.023438 10.007812 23.21875 10.039062 23.414062 10.113281 C 23.433594 10.121094 23.464844 10.132812 23.503906 10.15625 C 23.519531 10.164062 23.542969 10.175781 23.558594 10.183594 C 23.5625 10.183594 23.582031 10.203125 23.589844 10.207031 C 23.609375 10.226562 23.648438 10.269531 23.640625 10.261719 C 23.65625 10.277344 23.664062 10.289062 23.671875 10.304688 C 23.675781 10.3125 23.683594 10.324219 23.683594 10.332031 C 23.683594 10.335938 23.6875 10.339844 23.6875 10.339844 C 23.738281 10.480469 23.6875 10.6875 23.582031 10.851562 C 23.480469 11 23.292969 11.070312 23.109375 11.113281 C 22.644531 11.214844 22.144531 11.128906 21.664062 11.15625 C 21.433594 11.164062 21.207031 11.203125 20.992188 11.304688 C 20.707031 11.449219 20.488281 11.699219 20.304688 11.957031 C 20.125 12.203125 19.984375 12.476562 19.785156 12.707031 C 19.585938 12.941406 19.339844 13.097656 19.046875 13.179688 C 18.472656 13.339844 17.8125 13.179688 17.398438 12.75 C 17.179688 12.527344 17.027344 12.234375 16.835938 11.992188 C 16.660156 11.765625 16.449219 11.550781 16.191406 11.414062 C 15.660156 11.132812 14.976562 11.222656 14.492188 11.550781 C 14.117188 11.808594 13.851562 12.210938 13.480469 12.457031 C 13.035156 12.753906 12.511719 12.527344 12.09375 12.238281 C 11.691406 11.960938 11.359375 11.601562 10.964844 11.316406 C 10.539062 11.015625 10.03125 10.84375 9.515625 10.832031 C 8.566406 10.808594 7.871094 11.527344 7.082031 11.929688 C 6.429688 12.246094 5.789062 11.753906 5.328125 11.328125 C 5.085938 11.105469 4.867188 10.847656 4.570312 10.695312 C 4.269531 10.542969 3.929688 10.503906 3.597656 10.5 C 3.03125 10.492188 2.460938 10.636719 1.898438 10.566406 C 1.882812 10.5625 1.828125 10.554688 1.816406 10.554688 C 1.773438 10.550781 1.734375 10.542969 1.691406 10.535156 C 1.589844 10.519531 1.488281 10.496094 1.390625 10.472656 C 1.183594 10.429688 0.980469 10.371094 0.785156 10.304688 C 0.691406 10.273438 0.660156 10.257812 0.570312 10.214844 C 0.539062 10.199219 0.507812 10.175781 0.476562 10.15625 C 0.472656 10.15625 0.464844 10.152344 0.460938 10.148438 C 0.460938 10.144531 0.464844 10.144531 0.464844 10.144531 Z M 0.464844 10.144531 "/>
<path style=" stroke:none;fill-rule:nonzero;fill:rgb(0%,0%,0%);fill-opacity:1;" d="M 23.046875 12.503906 C 22.554688 12.34375 21.933594 12.265625 21.433594 12.4375 C 20.921875 12.613281 20.621094 13.082031 20.316406 13.5 C 20.148438 13.722656 19.964844 13.945312 19.707031 14.082031 C 19.402344 14.246094 18.988281 14.214844 18.65625 14.199219 C 17.796875 14.152344 16.921875 13.863281 16.230469 13.34375 C 15.765625 13 15.214844 12.835938 14.636719 12.910156 C 14.105469 12.976562 13.617188 13.191406 13.117188 13.367188 C 12.628906 13.539062 12.105469 13.675781 11.585938 13.570312 C 11.3125 13.511719 11.035156 13.398438 10.816406 13.226562 C 10.601562 13.058594 10.421875 12.851562 10.222656 12.664062 C 10.03125 12.484375 9.816406 12.320312 9.558594 12.25 C 9.253906 12.164062 8.945312 12.257812 8.667969 12.394531 C 7.9375 12.757812 7.148438 12.996094 6.328125 12.910156 C 5.96875 12.875 5.582031 12.761719 5.269531 12.578125 C 5.105469 12.484375 4.972656 12.347656 4.832031 12.207031 C 4.6875 12.0625 4.535156 11.917969 4.355469 11.8125 C 4.121094 11.675781 3.851562 11.621094 3.585938 11.601562 C 3.414062 11.585938 3.238281 11.59375 3.066406 11.613281 C 2.894531 11.625 2.699219 11.582031 2.527344 11.574219 C 2.253906 11.558594 1.976562 11.550781 1.703125 11.578125 C 1.296875 11.621094 0.882812 11.753906 0.621094 12.089844 C 0.320312 12.46875 0.210938 12.988281 0.160156 13.460938 C 0.113281 13.898438 0.191406 14.359375 0.433594 14.734375 C 0.914062 15.480469 1.871094 15.75 2.699219 15.878906 C 3.621094 16.023438 4.554688 16.015625 5.488281 16.015625 C 7.164062 16.015625 8.84375 16.042969 10.519531 16.039062 C 12.359375 16.035156 14.203125 16.023438 16.042969 16.046875 C 17.816406 16.070312 19.59375 16.085938 21.359375 15.859375 C 21.789062 15.804688 22.21875 15.734375 22.640625 15.648438 C 23.011719 15.570312 23.386719 15.488281 23.734375 15.339844 C 24.148438 15.160156 24.570312 14.855469 24.660156 14.386719 C 24.851562 13.445312 23.804688 12.753906 23.046875 12.503906 Z M 24.144531 14.535156 C 24.039062 14.691406 23.832031 14.824219 23.644531 14.914062 C 23.328125 15.070312 22.972656 15.140625 22.632812 15.214844 C 22.210938 15.304688 21.785156 15.375 21.359375 15.433594 C 19.597656 15.660156 17.816406 15.640625 16.042969 15.621094 C 14.203125 15.597656 12.359375 15.605469 10.519531 15.613281 C 8.84375 15.617188 7.164062 15.589844 5.488281 15.585938 C 4.578125 15.585938 3.65625 15.601562 2.753906 15.457031 C 2.324219 15.390625 1.878906 15.28125 1.496094 15.09375 C 1.152344 14.921875 0.878906 14.695312 0.707031 14.359375 C 0.523438 13.992188 0.550781 13.527344 0.644531 13.105469 C 0.691406 12.886719 0.753906 12.683594 0.855469 12.492188 C 0.933594 12.34375 1.039062 12.238281 1.167969 12.160156 C 1.3125 12.074219 1.496094 12.027344 1.671875 12.007812 C 1.941406 11.972656 2.214844 11.980469 2.484375 11.992188 C 2.648438 12 2.8125 12.011719 2.976562 12.027344 C 3.167969 12.039062 3.355469 12.011719 3.546875 12.019531 C 3.78125 12.03125 4.007812 12.09375 4.207031 12.21875 C 4.523438 12.421875 4.765625 12.792969 5.125 12.988281 C 5.835938 13.371094 6.699219 13.425781 7.480469 13.273438 C 7.882812 13.191406 8.273438 13.039062 8.648438 12.875 C 8.914062 12.753906 9.167969 12.582031 9.472656 12.667969 C 9.695312 12.730469 9.875 12.917969 10.035156 13.078125 C 10.238281 13.273438 10.433594 13.476562 10.664062 13.640625 C 11.152344 13.980469 11.785156 14.082031 12.367188 14.003906 C 12.894531 13.929688 13.390625 13.714844 13.890625 13.539062 C 14.226562 13.421875 14.574219 13.320312 14.9375 13.320312 C 15.335938 13.320312 15.695312 13.480469 16.015625 13.71875 C 16.601562 14.160156 17.316406 14.425781 18.035156 14.554688 C 18.390625 14.621094 18.75 14.648438 19.113281 14.628906 C 19.414062 14.621094 19.707031 14.578125 19.972656 14.425781 C 20.421875 14.167969 20.679688 13.683594 20.996094 13.292969 C 21.136719 13.121094 21.304688 12.949219 21.515625 12.859375 C 21.753906 12.761719 22.03125 12.765625 22.28125 12.785156 C 22.765625 12.8125 23.246094 12.992188 23.644531 13.269531 C 23.804688 13.378906 23.964844 13.53125 24.070312 13.675781 C 24.125 13.75 24.167969 13.832031 24.203125 13.914062 C 24.214844 13.933594 24.253906 14.097656 24.257812 14.109375 C 24.273438 14.28125 24.242188 14.386719 24.144531 14.535156 Z M 24.144531 14.535156 "/>
<path style=" stroke:none;fill-rule:nonzero;fill:rgb(0%,0%,0%);fill-opacity:1;" d="M 16.625 18.210938 C 16.71875 18.273438 16.8125 18.328125 16.910156 18.382812 C 17.199219 18.542969 17.519531 18.664062 17.851562 18.714844 C 18.375 18.800781 18.886719 18.703125 19.367188 18.488281 C 19.542969 18.410156 19.710938 18.3125 19.875 18.214844 C 19.941406 18.179688 20.003906 18.140625 20.066406 18.105469 C 20.097656 18.09375 20.125 18.078125 20.152344 18.0625 C 20.15625 18.0625 20.15625 18.0625 20.160156 18.0625 C 20.175781 18.054688 20.191406 18.050781 20.199219 18.046875 C 20.207031 18.046875 20.210938 18.042969 20.214844 18.042969 C 20.234375 18.058594 20.257812 18.074219 20.261719 18.078125 C 20.3125 18.121094 20.371094 18.160156 20.429688 18.199219 C 20.640625 18.339844 20.871094 18.449219 21.113281 18.53125 C 21.5625 18.691406 22.070312 18.734375 22.527344 18.589844 C 23.011719 18.4375 23.382812 18.066406 23.582031 17.605469 C 23.691406 17.339844 23.753906 17.0625 23.785156 16.78125 C 23.800781 16.664062 23.679688 16.566406 23.574219 16.566406 C 21.285156 16.566406 18.992188 16.574219 16.703125 16.585938 C 14.207031 16.597656 11.714844 16.617188 9.21875 16.628906 C 7.300781 16.640625 5.378906 16.65625 3.460938 16.664062 C 2.863281 16.667969 2.265625 16.6875 1.671875 16.667969 C 1.105469 16.65625 0.488281 17.027344 0.621094 17.667969 C 0.691406 17.996094 0.996094 18.183594 1.25 18.363281 C 1.574219 18.597656 1.90625 18.820312 2.246094 19.03125 C 2.691406 19.304688 3.171875 19.445312 3.671875 19.234375 C 4.089844 19.0625 4.4375 18.753906 4.839844 18.554688 C 5.261719 18.347656 5.867188 18.25 6.238281 18.59375 C 6.554688 18.875 6.691406 19.421875 7.164062 19.484375 C 7.441406 19.519531 7.738281 19.328125 7.957031 19.183594 C 8.234375 18.996094 8.480469 18.765625 8.765625 18.59375 C 8.894531 18.511719 9.027344 18.449219 9.171875 18.414062 C 9.21875 18.402344 9.25 18.394531 9.292969 18.398438 C 9.308594 18.398438 9.324219 18.40625 9.339844 18.410156 C 9.3125 18.402344 9.382812 18.4375 9.394531 18.445312 C 9.398438 18.449219 9.414062 18.457031 9.417969 18.460938 C 9.425781 18.46875 9.4375 18.480469 9.445312 18.484375 C 9.507812 18.539062 9.566406 18.601562 9.621094 18.667969 C 9.828125 18.921875 10.046875 19.273438 10.34375 19.5 C 10.699219 19.773438 11.128906 19.679688 11.460938 19.417969 C 11.734375 19.195312 11.941406 18.898438 12.175781 18.644531 C 12.335938 18.476562 12.5625 18.230469 12.796875 18.207031 C 13.0625 18.183594 13.285156 18.449219 13.441406 18.636719 C 13.632812 18.859375 13.796875 19.097656 14.074219 19.226562 C 14.964844 19.644531 15.539062 18.464844 16.234375 18.203125 C 16.328125 18.167969 16.398438 18.15625 16.476562 18.15625 C 16.5 18.15625 16.523438 18.15625 16.546875 18.15625 C 16.5 18.140625 16.628906 18.210938 16.625 18.210938 Z M 20.195312 18.023438 C 20.183594 18.019531 20.1875 18.019531 20.195312 18.023438 Z M 20.226562 18.035156 Z M 16.4375 17.722656 C 15.980469 17.742188 15.613281 18.070312 15.285156 18.363281 C 15.125 18.503906 14.980469 18.636719 14.8125 18.746094 C 14.734375 18.796875 14.671875 18.828125 14.601562 18.851562 C 14.582031 18.855469 14.5625 18.863281 14.539062 18.867188 C 14.535156 18.867188 14.503906 18.875 14.5 18.875 C 14.480469 18.875 14.464844 18.878906 14.449219 18.878906 C 14.445312 18.878906 14.390625 18.871094 14.390625 18.871094 C 14.1875 18.832031 14.015625 18.652344 13.878906 18.480469 C 13.660156 18.210938 13.441406 17.949219 13.105469 17.816406 C 12.492188 17.574219 11.941406 18.261719 11.601562 18.660156 C 11.421875 18.867188 11.25 19.089844 10.992188 19.210938 C 10.882812 19.261719 10.765625 19.246094 10.664062 19.1875 C 10.539062 19.121094 10.429688 19 10.316406 18.859375 C 10.214844 18.738281 10.097656 18.570312 9.984375 18.421875 C 9.878906 18.285156 9.765625 18.164062 9.621094 18.066406 C 9.449219 17.949219 9.265625 17.949219 9.070312 17.996094 C 8.40625 18.144531 8 18.765625 7.386719 19.011719 C 7.355469 19.027344 7.320312 19.039062 7.285156 19.046875 C 7.285156 19.046875 7.242188 19.054688 7.238281 19.054688 C 7.226562 19.054688 7.210938 19.054688 7.195312 19.054688 C 7.21875 19.054688 7.183594 19.050781 7.171875 19.046875 C 7.179688 19.046875 7.125 19.019531 7.125 19.019531 C 7.085938 18.984375 7.050781 18.945312 7.023438 18.90625 C 6.898438 18.757812 6.773438 18.53125 6.625 18.367188 C 6.222656 17.914062 5.59375 17.871094 5.035156 18.023438 C 4.609375 18.140625 4.253906 18.40625 3.882812 18.640625 C 3.546875 18.855469 3.242188 18.988281 2.859375 18.867188 C 2.566406 18.773438 2.300781 18.5625 2.046875 18.398438 C 1.757812 18.207031 1.4375 18.011719 1.179688 17.78125 C 1.039062 17.652344 0.988281 17.484375 1.066406 17.335938 C 1.179688 17.125 1.457031 17.078125 1.671875 17.085938 C 1.972656 17.09375 2.273438 17.085938 2.578125 17.085938 C 3.261719 17.085938 3.949219 17.082031 4.636719 17.074219 C 6.777344 17.0625 8.917969 17.050781 11.054688 17.035156 C 13.574219 17.023438 16.089844 17.003906 18.601562 16.996094 C 20.175781 16.992188 21.753906 16.984375 23.328125 16.984375 C 23.242188 17.410156 23.046875 17.820312 22.667969 18.054688 C 22.304688 18.28125 21.851562 18.285156 21.441406 18.183594 C 21.210938 18.128906 20.992188 18.039062 20.789062 17.921875 C 20.613281 17.820312 20.453125 17.640625 20.246094 17.613281 C 20.121094 17.59375 19.984375 17.664062 19.875 17.71875 C 19.730469 17.796875 19.589844 17.882812 19.445312 17.960938 C 19.058594 18.175781 18.648438 18.324219 18.199219 18.320312 C 17.90625 18.320312 17.617188 18.246094 17.351562 18.128906 C 17.183594 18.054688 17.027344 17.964844 16.875 17.871094 C 16.800781 17.820312 16.722656 17.746094 16.632812 17.730469 C 16.570312 17.726562 16.507812 17.71875 16.4375 17.722656 Z M 16.4375 17.722656 "/>
<path style=" stroke:none;fill-rule:nonzero;fill:rgb(0%,0%,0%);fill-opacity:1;" d="M 23.386719 18.828125 C 23.292969 18.847656 23.199219 18.902344 23.121094 18.957031 C 22.984375 19.058594 22.847656 19.140625 22.691406 19.199219 C 22.375 19.3125 22.03125 19.316406 21.699219 19.292969 C 21.363281 19.265625 21.035156 19.191406 20.707031 19.113281 C 20.390625 19.035156 20.097656 18.953125 19.765625 19 C 19.261719 19.070312 18.898438 19.5 18.371094 19.460938 C 18.09375 19.441406 17.839844 19.28125 17.597656 19.160156 C 17.332031 19.019531 17.050781 18.867188 16.746094 18.824219 C 16.480469 18.785156 16.257812 18.886719 16.035156 19.023438 C 15.785156 19.175781 15.554688 19.367188 15.316406 19.539062 C 15.132812 19.675781 14.925781 19.84375 14.707031 19.886719 C 14.4375 19.9375 14.160156 19.886719 13.902344 19.792969 C 13.554688 19.664062 13.242188 19.464844 12.863281 19.429688 C 12.308594 19.378906 11.871094 19.78125 11.386719 19.972656 C 11.035156 20.113281 10.628906 20.183594 10.285156 20.007812 C 9.976562 19.855469 9.753906 19.574219 9.546875 19.304688 C 9.199219 18.878906 8.726562 19.175781 8.394531 19.4375 C 8.09375 19.675781 7.652344 20.125 7.257812 20.011719 C 7.058594 19.957031 6.835938 19.765625 6.660156 19.628906 C 6.441406 19.460938 6.226562 19.285156 5.980469 19.152344 C 5.773438 19.035156 5.546875 18.976562 5.316406 19.050781 C 5.070312 19.125 4.835938 19.246094 4.605469 19.355469 C 4.113281 19.589844 3.59375 19.898438 3.046875 19.984375 C 2.996094 19.992188 2.902344 19.984375 2.84375 19.972656 C 2.730469 19.949219 2.625 19.910156 2.515625 19.867188 C 2.292969 19.777344 2.082031 19.664062 1.867188 19.554688 C 1.554688 19.398438 1.019531 19.089844 0.679688 19.34375 C 0.484375 19.488281 0.4375 19.726562 0.4375 19.957031 C 0.433594 20.273438 0.464844 20.589844 0.527344 20.898438 C 0.644531 21.484375 0.929688 22.0625 1.460938 22.371094 C 1.773438 22.554688 2.148438 22.601562 2.5 22.660156 C 2.914062 22.730469 3.332031 22.78125 3.75 22.820312 C 5.453125 22.96875 7.164062 22.882812 8.871094 22.882812 C 10.714844 22.878906 12.558594 22.910156 14.398438 22.902344 C 15.816406 22.894531 17.230469 22.882812 18.644531 22.871094 C 19.710938 22.859375 20.808594 22.8125 21.835938 22.5 C 22.753906 22.222656 23.65625 21.648438 23.910156 20.664062 C 24.027344 20.207031 24.238281 18.65625 23.386719 18.828125 Z M 23.503906 19.234375 C 23.503906 19.234375 23.507812 19.234375 23.507812 19.234375 C 23.507812 19.234375 23.507812 19.234375 23.503906 19.234375 Z M 23.492188 19.234375 C 23.476562 19.226562 23.480469 19.226562 23.492188 19.234375 Z M 23.558594 20.230469 C 23.558594 20.230469 23.550781 20.265625 23.550781 20.273438 C 23.550781 20.289062 23.546875 20.304688 23.546875 20.320312 C 23.542969 20.355469 23.535156 20.390625 23.527344 20.425781 C 23.519531 20.492188 23.503906 20.558594 23.484375 20.621094 C 23.359375 21.039062 23.074219 21.386719 22.714844 21.628906 C 21.878906 22.210938 20.769531 22.339844 19.78125 22.402344 C 18.667969 22.476562 17.542969 22.441406 16.425781 22.457031 C 14.558594 22.476562 12.683594 22.484375 10.816406 22.472656 C 9.933594 22.464844 9.058594 22.449219 8.175781 22.457031 C 7.316406 22.464844 6.460938 22.484375 5.605469 22.476562 C 4.753906 22.464844 3.902344 22.421875 3.054688 22.3125 C 2.671875 22.261719 2.265625 22.210938 1.894531 22.097656 C 1.636719 22.015625 1.417969 21.835938 1.265625 21.621094 C 0.933594 21.136719 0.859375 20.496094 0.863281 19.921875 C 0.863281 19.867188 0.863281 19.835938 0.875 19.789062 C 0.882812 19.730469 0.882812 19.742188 0.90625 19.703125 C 0.914062 19.6875 0.925781 19.675781 0.957031 19.671875 C 1.046875 19.664062 1.0625 19.675781 1.160156 19.703125 C 1.261719 19.734375 1.355469 19.773438 1.449219 19.8125 C 1.882812 20.011719 2.308594 20.296875 2.785156 20.386719 C 3.296875 20.484375 3.839844 20.183594 4.289062 19.972656 C 4.558594 19.847656 4.828125 19.714844 5.101562 19.589844 C 5.195312 19.546875 5.289062 19.507812 5.390625 19.46875 C 5.425781 19.457031 5.464844 19.445312 5.503906 19.4375 C 5.492188 19.4375 5.539062 19.433594 5.542969 19.433594 C 5.566406 19.433594 5.554688 19.433594 5.601562 19.445312 C 5.832031 19.5 6.042969 19.683594 6.230469 19.824219 C 6.449219 19.988281 6.65625 20.164062 6.890625 20.304688 C 7.40625 20.609375 7.914062 20.351562 8.347656 20.019531 C 8.53125 19.871094 8.710938 19.710938 8.914062 19.582031 C 8.933594 19.574219 8.957031 19.558594 8.976562 19.550781 C 8.976562 19.550781 9.015625 19.53125 9.015625 19.53125 C 9.03125 19.523438 9.046875 19.519531 9.0625 19.511719 C 9.070312 19.507812 9.082031 19.507812 9.09375 19.507812 C 9.097656 19.507812 9.097656 19.507812 9.101562 19.507812 C 9.148438 19.503906 9.132812 19.503906 9.160156 19.515625 C 9.195312 19.535156 9.210938 19.554688 9.25 19.601562 C 9.539062 19.96875 9.859375 20.324219 10.324219 20.472656 C 10.957031 20.671875 11.636719 20.363281 12.175781 20.046875 C 12.402344 19.914062 12.65625 19.8125 12.921875 19.855469 C 13.144531 19.894531 13.351562 20.003906 13.554688 20.09375 C 14.0625 20.324219 14.648438 20.4375 15.15625 20.15625 C 15.40625 20.019531 15.628906 19.835938 15.855469 19.664062 C 16.058594 19.515625 16.273438 19.339844 16.511719 19.253906 C 16.703125 19.1875 16.96875 19.316406 17.179688 19.417969 C 17.453125 19.550781 17.71875 19.710938 18.007812 19.8125 C 18.285156 19.914062 18.601562 19.914062 18.878906 19.828125 C 19.121094 19.757812 19.332031 19.613281 19.558594 19.507812 C 19.800781 19.390625 20.046875 19.382812 20.300781 19.449219 C 20.621094 19.53125 20.941406 19.609375 21.269531 19.664062 C 21.949219 19.773438 22.695312 19.78125 23.28125 19.367188 C 23.367188 19.304688 23.429688 19.253906 23.5 19.234375 C 23.5 19.234375 23.503906 19.238281 23.503906 19.238281 C 23.5 19.242188 23.539062 19.304688 23.527344 19.277344 C 23.542969 19.308594 23.550781 19.34375 23.558594 19.375 C 23.582031 19.472656 23.582031 19.519531 23.585938 19.628906 C 23.59375 19.832031 23.582031 20.035156 23.558594 20.230469 Z M 23.558594 20.230469 "/>
<path style=" stroke:none;fill-rule:nonzero;fill:rgb(0%,0%,0%);fill-opacity:1;" d="M 6.738281 5.992188 C 6.832031 6.046875 6.980469 6.019531 7.03125 5.917969 C 7.09375 5.78125 7.171875 5.648438 7.261719 5.527344 C 7.335938 5.4375 7.355469 5.320312 7.261719 5.230469 C 7.191406 5.15625 7.035156 5.140625 6.964844 5.230469 C 6.847656 5.378906 6.746094 5.53125 6.664062 5.703125 C 6.613281 5.808594 6.632812 5.933594 6.738281 5.992188 Z M 6.738281 5.992188 "/>
<path style=" stroke:none;fill-rule:nonzero;fill:rgb(0%,0%,0%);fill-opacity:1;" d="M 10.148438 5.304688 C 10.273438 5.273438 10.3125 5.160156 10.296875 5.046875 C 10.304688 5.082031 10.296875 5.011719 10.296875 5.011719 C 10.296875 4.988281 10.296875 4.964844 10.300781 4.941406 C 10.296875 4.976562 10.308594 4.90625 10.308594 4.90625 C 10.3125 4.886719 10.324219 4.863281 10.328125 4.84375 C 10.367188 4.734375 10.285156 4.613281 10.183594 4.582031 C 10.066406 4.550781 9.957031 4.621094 9.921875 4.730469 C 9.871094 4.871094 9.871094 5.015625 9.890625 5.160156 C 9.90625 5.273438 10.050781 5.335938 10.148438 5.304688 Z M 10.148438 5.304688 "/>
<path style=" stroke:none;fill-rule:nonzero;fill:rgb(0%,0%,0%);fill-opacity:1;" d="M 14.929688 5.714844 C 15 5.808594 15.113281 5.855469 15.222656 5.792969 C 15.3125 5.738281 15.367188 5.59375 15.296875 5.5 C 15.195312 5.359375 15.101562 5.210938 15.03125 5.046875 C 14.984375 4.941406 14.835938 4.917969 14.742188 4.96875 C 14.632812 5.03125 14.621094 5.152344 14.664062 5.261719 C 14.734375 5.421875 14.824219 5.574219 14.929688 5.714844 Z M 14.929688 5.714844 "/>
<path style=" stroke:none;fill-rule:nonzero;fill:rgb(0%,0%,0%);fill-opacity:1;" d="M 17.554688 6.363281 C 17.660156 6.40625 17.785156 6.3125 17.816406 6.214844 C 17.828125 6.160156 17.824219 6.101562 17.792969 6.050781 C 17.765625 6.007812 17.734375 5.988281 17.691406 5.96875 C 17.695312 5.96875 17.695312 5.96875 17.691406 5.964844 C 17.691406 5.957031 17.691406 5.953125 17.691406 5.964844 C 17.691406 5.964844 17.691406 5.960938 17.691406 5.960938 C 17.695312 5.917969 17.691406 5.875 17.667969 5.832031 C 17.640625 5.785156 17.59375 5.75 17.539062 5.734375 C 17.4375 5.707031 17.292969 5.769531 17.28125 5.882812 C 17.265625 5.988281 17.273438 6.078125 17.324219 6.171875 C 17.371094 6.265625 17.460938 6.324219 17.554688 6.363281 Z M 17.6875 5.964844 Z M 17.691406 5.96875 C 17.691406 5.976562 17.6875 5.984375 17.6875 5.996094 C 17.6875 5.988281 17.6875 5.976562 17.691406 5.96875 Z M 17.691406 5.96875 "/>
<path style=" stroke:none;fill-rule:nonzero;fill:rgb(0%,0%,0%);fill-opacity:1;" d="M 13.910156 4.039062 C 13.941406 4.136719 14.066406 4.191406 14.164062 4.164062 C 14.214844 4.152344 14.261719 4.113281 14.289062 4.070312 C 14.320312 4.019531 14.320312 3.964844 14.3125 3.90625 C 14.300781 3.839844 14.257812 3.777344 14.210938 3.726562 C 14.1875 3.703125 14.15625 3.679688 14.125 3.664062 C 14.066406 3.640625 14.035156 3.632812 13.972656 3.625 C 13.917969 3.621094 13.859375 3.652344 13.824219 3.6875 C 13.785156 3.726562 13.761719 3.78125 13.761719 3.835938 C 13.761719 3.894531 13.785156 3.949219 13.824219 3.988281 C 13.851562 4.011719 13.878906 4.027344 13.910156 4.039062 Z M 13.910156 4.039062 "/>
<path style=" stroke:none;fill-rule:nonzero;fill:rgb(0%,0%,0%);fill-opacity:1;" d="M 11.636719 3.398438 C 11.65625 3.410156 11.679688 3.417969 11.699219 3.421875 C 11.75 3.453125 11.8125 3.46875 11.871094 3.453125 C 11.984375 3.417969 12.046875 3.300781 12.015625 3.191406 C 12.003906 3.132812 11.964844 3.082031 11.921875 3.054688 C 11.890625 2.992188 11.839844 2.9375 11.785156 2.910156 C 11.683594 2.855469 11.558594 2.878906 11.496094 2.984375 C 11.445312 3.066406 11.460938 3.183594 11.53125 3.246094 C 11.539062 3.308594 11.585938 3.371094 11.636719 3.398438 Z M 11.636719 3.398438 "/>
<path style=" stroke:none;fill-rule:nonzero;fill:rgb(0%,0%,0%);fill-opacity:1;" d="M 9.308594 3.5625 C 9.417969 3.59375 9.546875 3.53125 9.566406 3.417969 C 9.582031 3.363281 9.589844 3.308594 9.601562 3.257812 C 9.625 3.144531 9.570312 3.03125 9.457031 3 C 9.347656 2.96875 9.21875 3.035156 9.195312 3.144531 C 9.183594 3.199219 9.171875 3.253906 9.160156 3.304688 C 9.140625 3.414062 9.191406 3.53125 9.308594 3.5625 Z M 9.308594 3.5625 "/>
<path style=" stroke:none;fill-rule:nonzero;fill:rgb(0%,0%,0%);fill-opacity:1;" d="M 7.261719 4.148438 C 7.3125 4.101562 7.363281 4.058594 7.414062 4.015625 C 7.5 3.941406 7.488281 3.792969 7.414062 3.714844 C 7.328125 3.632812 7.203125 3.640625 7.113281 3.714844 C 7.0625 3.761719 7.011719 3.804688 6.960938 3.847656 C 6.875 3.925781 6.886719 4.070312 6.960938 4.148438 C 7.050781 4.234375 7.171875 4.222656 7.261719 4.148438 Z M 7.261719 4.148438 "/>
<path style=" stroke:none;fill-rule:nonzero;fill:rgb(0%,0%,0%);fill-opacity:1;" d="M 5.171875 4.992188 C 5.183594 4.980469 5.195312 4.96875 5.207031 4.960938 C 5.234375 4.941406 5.265625 4.921875 5.296875 4.90625 C 5.398438 4.855469 5.425781 4.714844 5.371094 4.617188 C 5.308594 4.511719 5.1875 4.488281 5.082031 4.542969 C 5.003906 4.578125 4.929688 4.632812 4.871094 4.691406 C 4.789062 4.777344 4.789062 4.910156 4.871094 4.992188 C 4.953125 5.074219 5.089844 5.074219 5.171875 4.992188 Z M 5.171875 4.992188 "/>
<path style=" stroke:none;fill-rule:nonzero;fill:rgb(0%,0%,0%);fill-opacity:1;" d="M 12.386719 5.925781 C 12.503906 5.925781 12.597656 5.832031 12.597656 5.714844 C 12.597656 5.664062 12.597656 5.609375 12.597656 5.558594 C 12.597656 5.441406 12.503906 5.34375 12.386719 5.34375 C 12.269531 5.34375 12.175781 5.441406 12.175781 5.558594 C 12.175781 5.613281 12.175781 5.664062 12.175781 5.714844 C 12.175781 5.828125 12.269531 5.925781 12.386719 5.925781 Z M 12.386719 5.925781 "/>
<path style=" stroke:none;fill-rule:nonzero;fill:rgb(0%,0%,0%);fill-opacity:1;" d="M 16.367188 4.175781 C 16.484375 4.175781 16.582031 4.078125 16.582031 3.960938 C 16.582031 3.941406 16.582031 3.917969 16.582031 3.898438 C 16.582031 3.78125 16.484375 3.683594 16.367188 3.683594 C 16.253906 3.683594 16.15625 3.78125 16.15625 3.898438 C 16.15625 3.917969 16.15625 3.941406 16.15625 3.960938 C 16.15625 4.078125 16.253906 4.175781 16.367188 4.175781 Z M 16.367188 4.175781 "/>
<path style=" stroke:none;fill-rule:nonzero;fill:rgb(0%,0%,0%);fill-opacity:1;" d="M 19.425781 5.585938 C 19.460938 5.628906 19.492188 5.667969 19.550781 5.683594 C 19.605469 5.695312 19.664062 5.691406 19.714844 5.660156 C 19.761719 5.628906 19.796875 5.585938 19.808594 5.53125 C 19.824219 5.484375 19.820312 5.410156 19.789062 5.367188 C 19.738281 5.304688 19.6875 5.238281 19.636719 5.171875 C 19.597656 5.125 19.566406 5.089844 19.507812 5.074219 C 19.453125 5.058594 19.394531 5.066406 19.34375 5.097656 C 19.296875 5.125 19.261719 5.171875 19.25 5.222656 C 19.234375 5.273438 19.238281 5.34375 19.269531 5.386719 C 19.320312 5.457031 19.375 5.519531 19.425781 5.585938 Z M 19.425781 5.585938 "/>
<path style=" stroke:none;fill-rule:nonzero;fill:rgb(0%,0%,0%);fill-opacity:1;" d="M 17.894531 4.589844 C 17.90625 4.589844 17.917969 4.589844 17.925781 4.589844 C 18.042969 4.589844 18.140625 4.492188 18.140625 4.378906 C 18.140625 4.261719 18.042969 4.164062 17.925781 4.164062 C 17.914062 4.164062 17.90625 4.164062 17.894531 4.164062 C 17.78125 4.164062 17.683594 4.261719 17.683594 4.378906 C 17.683594 4.492188 17.78125 4.589844 17.894531 4.589844 Z M 17.894531 4.589844 "/>
<path style=" stroke:none;fill-rule:nonzero;fill:rgb(0%,0%,0%);fill-opacity:1;" d="M 20.898438 6.222656 C 20.964844 6.3125 21.082031 6.359375 21.1875 6.296875 C 21.28125 6.242188 21.332031 6.101562 21.265625 6.007812 C 21.179688 5.890625 21.097656 5.773438 21.011719 5.65625 C 20.941406 5.5625 20.828125 5.519531 20.71875 5.578125 C 20.625 5.632812 20.574219 5.773438 20.644531 5.871094 C 20.726562 5.988281 20.8125 6.101562 20.898438 6.222656 Z M 20.898438 6.222656 "/>
</g>
</svg>
