<?xml version="1.0" encoding="UTF-8"?>
<!DOCTYPE svg PUBLIC "-//W3C//DTD SVG 1.1//EN" "http://www.w3.org/Graphics/SVG/1.1/DTD/svg11.dtd">
<!-- Creator: CorelDRAW -->
<svg xmlns="http://www.w3.org/2000/svg" xml:space="preserve" width="2.0318mm" height="2.0318mm" version="1.1" style="shape-rendering:geometricPrecision; text-rendering:geometricPrecision; image-rendering:optimizeQuality; fill-rule:evenodd; clip-rule:evenodd"
viewBox="0 0 203.18 203.18"
 xmlns:xlink="http://www.w3.org/1999/xlink"
 xmlns:xodm="http://www.corel.com/coreldraw/odm/2003">
 <defs>
  <style type="text/css">
   <![CDATA[
    .fil0 {fill:black;fill-rule:nonzero}
   ]]>
  </style>
 </defs>
 <g id="????_x0020_1">
  <metadata id="CorelCorpID_0Corel-Layer"/>
  <g id="_105553311737664">
   <path class="fil0" d="M13.63 72.43c3.93,0.74 7.95,0.93 11.93,1.02 4.23,0.1 8.43,0.26 12.66,0.42 15.44,0.58 30.85,0.74 46.28,0.51 15.37,-0.21 30.71,-0.32 46.07,0.07 15.04,0.4 30.01,0.61 45.03,-0.49 4.18,-0.3 8.34,-0.04 12.5,-0.67 4.1,-0.63 8.35,-2.49 9,-6.97 0.02,-0.07 0.02,-0.14 0.02,-0.24 0.56,-6.69 -3.27,-12.43 -7.04,-17.61 -2.49,-3.45 -5.32,-6.47 -8.6,-9.16 -7.09,-5.77 -15.41,-9.81 -23.94,-13.02 -17.04,-6.42 -35.4,-9.55 -53.51,-11.06 -18.48,-1.54 -37.45,-0.45 -54.88,6.3 -14.23,5.5 -26.8,14.78 -35.66,27.24 -2.86,4.02 -5.23,8.32 -7.13,12.87 -0.89,2.12 -1.84,4.23 -0.84,6.49 1.3,2.86 5.41,3.79 8.11,4.3zm-5.07 -6.53c0.03,-0.09 0.03,-0.16 0.05,-0.26 0.21,-0.83 0.58,-1.65 0.88,-2.44 0.1,-0.21 0.17,-0.42 0.26,-0.6 0.02,-0.07 0.05,-0.1 0.05,-0.12 0.02,-0.02 0.04,-0.09 0.09,-0.21 0.21,-0.49 0.42,-0.97 0.65,-1.44 5.11,-10.99 13.18,-20.24 23.17,-27.22 16.6,-11.57 37.17,-15.66 57.12,-15.55 15.64,0.09 31.49,2.3 46.69,5.88 9.23,2.19 18.39,5 26.99,9.02 7.67,3.6 15.09,8.23 20.64,14.74 2.03,2.37 3.84,5.02 5.47,7.67 1.99,3.25 3.34,6.81 3.04,10.69 -0.05,0.4 -0.35,1.12 -0.58,1.4 -0.54,0.65 -1.05,0.95 -1.86,1.34 -1.53,0.77 -3.56,1.07 -5.32,1.26 -3.98,0.42 -7.98,0.21 -11.95,0.53 -15.18,1.21 -30.45,0.68 -45.65,0.31 -15.39,-0.4 -30.73,-0.19 -46.12,0 -15.44,0.2 -30.87,0 -46.28,-0.66 -3.84,-0.16 -7.65,-0.23 -11.48,-0.34 -3.79,-0.12 -7.65,-0.31 -11.37,-1.19 -1.53,-0.37 -2.63,-0.67 -3.86,-1.56 0.16,0.12 -0.32,-0.32 -0.42,-0.42 0,0 0,0 0,0 0,-0.02 -0.02,-0.04 -0.04,-0.06 -0.07,-0.12 -0.12,-0.21 -0.19,-0.33 0.23,0.44 0,-0.42 -0.02,-0.23 0.04,-0.05 0.04,-0.14 0.04,-0.21z"/>
   <path class="fil0" d="M8.26 89c2.7,0.75 5.53,1.37 8.32,1.56 5.21,0.35 10.39,-1.07 15.62,-0.51 2.44,0.25 4.65,1.23 6.37,2.95 1.93,1.91 3.88,3.79 6.05,5.44 4.55,3.46 9.97,5.42 15.41,2.77 4.51,-2.31 8.41,-5.89 13.18,-7.67 5.2,-1.96 10.81,-0.47 15.22,2.62 4.6,3.23 8.18,7.7 13.48,9.9 4.21,1.75 8.37,1.42 11.97,-1.41 2.91,-2.28 5.03,-5.44 8.26,-7.3 2,-1.14 4.37,-1.44 6.62,-1.23 2.21,0.2 4.07,1.53 5.58,3.06 1.74,1.77 3.09,3.89 4.49,5.91 1.53,2.23 3.39,4.02 5.81,5.3 4.67,2.51 10.57,2.69 15.41,0.53 5.04,-2.25 7.25,-7.09 10.37,-11.29 1.25,-1.7 3.06,-3.35 4.9,-3.93 1.7,-0.54 3.49,-0.54 5.32,-0.54 3.98,0 8.28,0.51 12.11,-0.9 3.91,-1.45 6.28,-5.35 5.68,-9.51 -0.52,-3.49 -4.3,-5.07 -7.35,-5.65 -3.65,-0.7 -7.41,-0.58 -11.11,-0.39 -5,0.27 -10.02,0.2 -15.04,0.23 -7.74,0.02 -15.48,0.07 -23.22,0.11 -30.96,0.17 -61.9,0.42 -92.86,0.19 -7.14,-0.05 -14.3,0.07 -21.41,-0.67 -6.49,-0.65 -13.04,-1.54 -19.5,-0.31 -2.7,0.52 -9.56,2.35 -7.61,6.51 0.56,1.16 1.84,1.93 2.96,2.47 1.65,0.79 3.3,1.32 4.97,1.76zm-4.42 -5.51c0.21,-0.14 0.42,-0.25 0.66,-0.37 2.32,-1.23 5.13,-1.65 7.71,-1.83 3.26,-0.26 6.56,-0.03 9.81,0.27 3.23,0.31 6.46,0.7 9.72,0.96 3.55,0.25 7.13,0.18 10.71,0.23 7.74,0.07 15.49,0.12 23.2,0.14 30.96,0.09 61.9,-0.21 92.86,-0.35 6.35,-0.02 12.79,0.23 19.13,-0.12 3.42,-0.18 6.82,-0.41 10.23,-0.16 1.65,0.12 3.26,0.37 4.86,0.98 0.16,0.07 0.42,0.18 0.74,0.35 0.14,0.09 0.31,0.16 0.45,0.25 0.02,0 0.18,0.14 0.25,0.19 0.16,0.16 0.49,0.49 0.44,0.44 0.1,0.12 0.17,0.23 0.24,0.35 0.04,0.07 0.09,0.16 0.11,0.23 0,0.02 0.03,0.05 0.03,0.07 0.41,1.16 0,2.84 -0.89,4.21 -0.81,1.23 -2.37,1.81 -3.86,2.14 -3.83,0.86 -7.97,0.14 -11.9,0.35 -1.9,0.09 -3.79,0.41 -5.53,1.25 -2.37,1.16 -4.16,3.23 -5.67,5.35 -1.47,2.04 -2.65,4.27 -4.28,6.18 -1.63,1.93 -3.65,3.21 -6.09,3.88 -4.72,1.33 -10.16,0 -13.57,-3.53 -1.77,-1.84 -3.05,-4.23 -4.61,-6.23 -1.46,-1.88 -3.2,-3.63 -5.32,-4.77 -4.35,-2.32 -9.99,-1.58 -13.99,1.14 -3.07,2.12 -5.26,5.42 -8.3,7.44 -3.67,2.44 -8,0.6 -11.44,-1.79 -3.3,-2.28 -6.04,-5.25 -9.29,-7.6 -3.49,-2.46 -7.68,-3.88 -11.93,-3.97 -7.79,-0.19 -13.53,5.71 -20.04,9.04 -5.37,2.6 -10.64,-1.47 -14.43,-4.95 -2,-1.84 -3.77,-3.98 -6.23,-5.23 -2.49,-1.24 -5.28,-1.58 -8.02,-1.61 -4.65,-0.04 -9.34,1.14 -13.97,0.56 -0.12,-0.02 -0.58,-0.09 -0.67,-0.09 -0.35,-0.05 -0.68,-0.12 -1.03,-0.17 -0.83,-0.13 -1.67,-0.32 -2.48,-0.51 -1.7,-0.37 -3.37,-0.83 -5,-1.39 -0.75,-0.26 -1.02,-0.37 -1.75,-0.75 -0.27,-0.13 -0.53,-0.3 -0.79,-0.46 -0.02,-0.02 -0.07,-0.05 -0.11,-0.07 0,-0.02 0.02,-0.05 0.04,-0.05z"/>
   <path class="fil0" d="M189.71 102.93c-4.05,-1.33 -9.18,-1.98 -13.27,-0.56 -4.21,1.46 -6.7,5.32 -9.21,8.74 -1.39,1.86 -2.9,3.69 -5,4.81 -2.51,1.35 -5.92,1.09 -8.67,0.95 -7.06,-0.39 -14.27,-2.76 -19.96,-7.02 -3.82,-2.83 -8.37,-4.18 -13.11,-3.58 -4.37,0.56 -8.39,2.3 -12.51,3.77 -4.04,1.42 -8.32,2.53 -12.6,1.65 -2.25,-0.47 -4.53,-1.4 -6.34,-2.81 -1.77,-1.38 -3.26,-3.1 -4.89,-4.63 -1.58,-1.49 -3.34,-2.84 -5.46,-3.42 -2.53,-0.69 -5.06,0.07 -7.34,1.21 -6,2.98 -12.51,4.95 -19.27,4.23 -2.95,-0.3 -6.14,-1.21 -8.72,-2.72 -1.35,-0.79 -2.42,-1.9 -3.58,-3.06 -1.21,-1.21 -2.46,-2.38 -3.93,-3.24 -1.93,-1.13 -4.13,-1.58 -6.32,-1.76 -1.42,-0.12 -2.86,-0.05 -4.28,0.09 -1.41,0.12 -3.02,-0.23 -4.44,-0.32 -2.25,-0.12 -4.53,-0.17 -6.78,0.06 -3.37,0.35 -6.75,1.42 -8.93,4.19 -2.46,3.14 -3.37,7.39 -3.79,11.3 -0.39,3.6 0.26,7.39 2.26,10.46 3.95,6.15 11.83,8.36 18.64,9.43 7.6,1.19 15.29,1.12 22.96,1.12 13.81,0 27.62,0.25 41.43,0.21 15.15,-0.05 30.31,-0.12 45.46,0.07 14.6,0.18 29.24,0.3 43.75,-1.56 3.55,-0.44 7.09,-1.02 10.57,-1.74 3.05,-0.63 6.12,-1.31 8.98,-2.54 3.41,-1.46 6.88,-3.97 7.64,-7.83 1.56,-7.76 -7.04,-13.44 -13.29,-15.5zm9.04 16.71c-0.86,1.3 -2.58,2.39 -4.11,3.14 -2.61,1.27 -5.54,1.86 -8.35,2.46 -3.46,0.74 -6.97,1.32 -10.48,1.79 -14.48,1.88 -29.15,1.72 -43.75,1.56 -15.15,-0.19 -30.31,-0.12 -45.46,-0.07 -13.81,0.04 -27.62,-0.19 -41.43,-0.21 -7.5,0 -15.06,0.11 -22.5,-1.07 -3.53,-0.56 -7.2,-1.44 -10.34,-3 -2.86,-1.42 -5.09,-3.28 -6.51,-6.04 -1.51,-3.02 -1.28,-6.86 -0.51,-10.32 0.39,-1.79 0.88,-3.49 1.72,-5.05 0.67,-1.21 1.51,-2.09 2.6,-2.74 1.16,-0.7 2.7,-1.09 4.14,-1.26 2.21,-0.27 4.46,-0.2 6.69,-0.11 1.35,0.07 2.7,0.16 4.05,0.28 1.56,0.11 3.11,-0.12 4.69,-0.05 1.93,0.09 3.79,0.61 5.42,1.63 2.63,1.67 4.6,4.72 7.56,6.32 5.85,3.16 12.97,3.63 19.38,2.35 3.33,-0.68 6.53,-1.91 9.62,-3.28 2.19,-0.98 4.3,-2.39 6.79,-1.7 1.84,0.52 3.33,2.07 4.65,3.37 1.65,1.63 3.26,3.28 5.16,4.63 4.02,2.81 9.23,3.65 14.02,3 4.34,-0.61 8.41,-2.37 12.53,-3.81 2.79,-0.98 5.64,-1.82 8.62,-1.82 3.3,0 6.25,1.33 8.88,3.28 4.83,3.63 10.72,5.81 16.62,6.88 2.93,0.54 5.9,0.77 8.88,0.63 2.49,-0.09 4.88,-0.44 7.07,-1.7 3.71,-2.11 5.81,-6.09 8.43,-9.3 1.17,-1.41 2.54,-2.85 4.28,-3.58 1.95,-0.79 4.23,-0.76 6.3,-0.62 4,0.25 7.93,1.72 11.23,3.99 1.3,0.91 2.62,2.17 3.48,3.35 0.45,0.61 0.82,1.28 1.12,1.95 0.09,0.19 0.42,1.52 0.44,1.63 0.14,1.42 -0.12,2.28 -0.93,3.49z"/>
   <path class="fil0" d="M136.85 149.9c0.77,0.51 1.53,0.98 2.35,1.42 2.39,1.32 5.02,2.3 7.74,2.74 4.32,0.7 8.51,-0.11 12.48,-1.88 1.44,-0.65 2.84,-1.44 4.19,-2.23 0.53,-0.3 1.04,-0.63 1.58,-0.91 0.23,-0.11 0.46,-0.23 0.69,-0.35 0.03,0 0.05,-0.02 0.07,-0.02 0.12,-0.05 0.24,-0.09 0.33,-0.12 0.04,0 0.07,-0.02 0.11,-0.02 0.17,0.12 0.35,0.26 0.38,0.28 0.44,0.35 0.93,0.67 1.39,1 1.74,1.16 3.65,2.04 5.63,2.74 3.69,1.3 7.88,1.65 11.64,0.47 4,-1.26 7.04,-4.3 8.67,-8.09 0.93,-2.19 1.42,-4.47 1.7,-6.81 0.12,-0.96 -0.88,-1.75 -1.74,-1.75 -18.86,0 -37.73,0.07 -56.58,0.17 -20.53,0.09 -41.05,0.23 -61.58,0.35 -15.8,0.09 -31.61,0.2 -47.42,0.27 -4.9,0.03 -9.83,0.19 -14.73,0.03 -4.65,-0.1 -9.72,2.97 -8.63,8.23 0.58,2.72 3.09,4.25 5.16,5.74 2.68,1.93 5.42,3.76 8.21,5.51 3.65,2.25 7.62,3.39 11.74,1.67 3.44,-1.44 6.3,-3.98 9.62,-5.6 3.46,-1.7 8.44,-2.51 11.51,0.3 2.58,2.32 3.72,6.83 7.6,7.34 2.28,0.31 4.74,-1.27 6.53,-2.48 2.28,-1.54 4.32,-3.42 6.65,-4.86 1.07,-0.65 2.16,-1.16 3.37,-1.46 0.37,-0.1 0.63,-0.17 0.97,-0.14 0,0 0.03,0 0.03,0 0.11,0.02 0.25,0.07 0.37,0.11 -0.23,-0.07 0.35,0.21 0.46,0.28 0.03,0.02 0.14,0.09 0.19,0.14 0.07,0.07 0.16,0.14 0.23,0.19 0.51,0.46 0.98,0.97 1.42,1.51 1.72,2.09 3.51,4.99 5.95,6.85 2.95,2.26 6.49,1.47 9.21,-0.69 2.25,-1.82 3.95,-4.26 5.9,-6.35 1.3,-1.39 3.18,-3.42 5.11,-3.6 2.17,-0.21 4,2 5.3,3.53 1.56,1.84 2.93,3.79 5.19,4.84 7.34,3.44 12.08,-6.26 17.78,-8.42 0.77,-0.28 1.35,-0.39 2,-0.39 0.21,0 0.39,0.02 0.58,0.02 -0.37,-0.12 0.67,0.44 0.65,0.44zm29.38 -1.53c0,0 0,0 0,0 -0.09,-0.03 -0.07,-0.03 0,0zm0.26 0.09c0,0 0,0 0,0 0,0 0,0 0,0 0,0 0,0 0,0zm-31.17 -2.58c-3.79,0.16 -6.81,2.88 -9.51,5.28 -1.3,1.14 -2.49,2.25 -3.88,3.16 -0.65,0.42 -1.16,0.67 -1.75,0.86 -0.16,0.04 -0.32,0.09 -0.51,0.14 -0.02,0 -0.28,0.04 -0.32,0.04 -0.14,0 -0.28,0.03 -0.4,0.03 -0.04,0 -0.49,-0.05 -0.49,-0.05 -1.69,-0.32 -3.09,-1.79 -4.23,-3.21 -1.79,-2.23 -3.6,-4.39 -6.34,-5.46 -5.07,-2 -9.58,3.65 -12.39,6.93 -1.49,1.72 -2.91,3.55 -5.02,4.53 -0.91,0.42 -1.86,0.28 -2.7,-0.19 -1.04,-0.55 -1.93,-1.55 -2.86,-2.69 -0.83,-1.02 -1.79,-2.4 -2.74,-3.6 -0.86,-1.12 -1.79,-2.14 -2.98,-2.93 -1.41,-0.96 -2.92,-0.96 -4.55,-0.58 -5.46,1.23 -8.81,6.32 -13.86,8.36 -0.25,0.12 -0.53,0.21 -0.81,0.28 0,0 -0.37,0.07 -0.39,0.07 -0.12,0 -0.24,0 -0.35,0 0.18,0 -0.12,-0.04 -0.21,-0.07 0.07,0 -0.37,-0.23 -0.37,-0.23 -0.33,-0.28 -0.61,-0.6 -0.86,-0.93 -1,-1.23 -2.05,-3.09 -3.26,-4.42 -3.32,-3.74 -8.51,-4.09 -13.09,-2.83 -3.51,0.97 -6.43,3.14 -9.48,5.06 -2.77,1.77 -5.28,2.86 -8.44,1.86 -2.41,-0.76 -4.58,-2.48 -6.67,-3.85 -2.39,-1.58 -5.02,-3.19 -7.16,-5.09 -1.16,-1.05 -1.58,-2.42 -0.93,-3.65 0.93,-1.75 3.21,-2.12 4.98,-2.07 2.48,0.09 4.97,0.02 7.46,0.02 5.65,-0.02 11.3,-0.05 16.97,-0.09 17.62,-0.1 35.24,-0.21 52.83,-0.33 20.71,-0.11 41.42,-0.25 62.11,-0.32 12.97,-0.05 25.94,-0.1 38.89,-0.1 -0.7,3.49 -2.3,6.88 -5.42,8.81 -2.99,1.86 -6.71,1.89 -10.11,1.07 -1.88,-0.46 -3.67,-1.21 -5.37,-2.18 -1.44,-0.82 -2.76,-2.3 -4.44,-2.54 -1.04,-0.14 -2.16,0.42 -3.06,0.89 -1.21,0.63 -2.35,1.35 -3.54,2 -3.18,1.76 -6.55,2.99 -10.27,2.95 -2.4,-0.02 -4.79,-0.63 -6.98,-1.58 -1.37,-0.61 -2.67,-1.35 -3.92,-2.14 -0.61,-0.4 -1.26,-1.02 -2,-1.14 -0.49,-0.05 -1.03,-0.09 -1.58,-0.07z"/>
   <path class="fil0" d="M192.52 154.97c-0.79,0.16 -1.56,0.63 -2.21,1.09 -1.11,0.82 -2.23,1.51 -3.53,1.98 -2.6,0.93 -5.44,0.97 -8.16,0.76 -2.76,-0.2 -5.48,-0.83 -8.18,-1.48 -2.6,-0.63 -5.02,-1.3 -7.74,-0.93 -4.14,0.58 -7.14,4.11 -11.48,3.81 -2.28,-0.16 -4.37,-1.49 -6.35,-2.49 -2.19,-1.14 -4.53,-2.42 -7.02,-2.76 -2.18,-0.31 -4.02,0.53 -5.86,1.65 -2.07,1.25 -3.95,2.81 -5.9,4.25 -1.51,1.12 -3.23,2.49 -5.02,2.84 -2.23,0.44 -4.51,0 -6.63,-0.77 -2.88,-1.07 -5.44,-2.7 -8.57,-2.98 -4.56,-0.42 -8.14,2.89 -12.14,4.47 -2.9,1.14 -6.23,1.72 -9.06,0.3 -2.54,-1.26 -4.37,-3.6 -6.09,-5.81 -2.86,-3.49 -6.74,-1.05 -9.49,1.11 -2.48,1.96 -6.11,5.65 -9.34,4.72 -1.65,-0.46 -3.47,-2.04 -4.93,-3.16 -1.79,-1.37 -3.58,-2.84 -5.58,-3.93 -1.72,-0.95 -3.58,-1.44 -5.48,-0.83 -2.03,0.62 -3.96,1.6 -5.84,2.51 -4.07,1.92 -8.34,4.46 -12.85,5.18 -0.4,0.07 -1.17,0 -1.65,-0.09 -0.93,-0.19 -1.82,-0.52 -2.7,-0.86 -1.84,-0.75 -3.58,-1.7 -5.35,-2.58 -2.58,-1.28 -6.97,-3.82 -9.78,-1.75 -1.61,1.19 -1.98,3.16 -2,5.07 -0.02,2.6 0.25,5.21 0.74,7.74 0.96,4.83 3.33,9.58 7.7,12.13 2.58,1.49 5.67,1.89 8.55,2.37 3.42,0.59 6.86,1 10.3,1.31 14.01,1.23 28.1,0.53 42.14,0.51 15.18,-0.03 30.34,0.23 45.51,0.16 11.65,-0.07 23.29,-0.16 34.94,-0.26 8.79,-0.07 17.81,-0.48 26.27,-3.04 7.57,-2.28 14.99,-7 17.06,-15.13 0.97,-3.74 2.72,-16.51 -4.28,-15.11zm0.95 3.37c0,0 0.03,0 0.03,0 0,0 0,0 -0.03,0 0,0 0,0 0,0zm-0.09 -0.02c0,0 0,0 0,0 -0.14,-0.05 -0.09,-0.05 0,0zm0.54 8.22c0,0 -0.05,0.28 -0.05,0.35 -0.02,0.12 -0.05,0.26 -0.05,0.38 -0.04,0.3 -0.09,0.58 -0.14,0.88 -0.09,0.53 -0.21,1.07 -0.37,1.58 -1.02,3.46 -3.37,6.3 -6.32,8.32 -6.9,4.77 -16.02,5.83 -24.15,6.35 -9.18,0.6 -18.43,0.32 -27.62,0.44 -15.38,0.16 -30.8,0.23 -46.18,0.14 -7.26,-0.05 -14.49,-0.19 -21.74,-0.12 -7.06,0.07 -14.11,0.23 -21.17,0.14 -7,-0.09 -14.02,-0.42 -20.97,-1.32 -3.18,-0.42 -6.51,-0.84 -9.58,-1.79 -2.11,-0.66 -3.9,-2.14 -5.16,-3.93 -2.74,-3.98 -3.34,-9.25 -3.32,-13.97 0,-0.44 0.02,-0.72 0.09,-1.09 0.09,-0.49 0.07,-0.38 0.26,-0.7 0.07,-0.14 0.18,-0.23 0.42,-0.26 0.74,-0.07 0.88,0.03 1.69,0.26 0.82,0.23 1.61,0.56 2.37,0.9 3.58,1.63 7.07,3.98 10.98,4.72 4.23,0.79 8.69,-1.69 12.38,-3.41 2.24,-1.05 4.44,-2.14 6.7,-3.17 0.79,-0.34 1.56,-0.67 2.37,-0.97 0.3,-0.12 0.63,-0.21 0.93,-0.28 -0.09,0.02 0.3,-0.02 0.33,-0.02 0.2,0 0.11,0 0.48,0.09 1.91,0.46 3.65,1.95 5.19,3.11 1.79,1.35 3.51,2.82 5.44,3.96 4.25,2.51 8.43,0.39 11.97,-2.35 1.53,-1.21 3,-2.54 4.67,-3.58 0.16,-0.09 0.35,-0.19 0.51,-0.28 0,0 0.33,-0.14 0.33,-0.16 0.14,-0.05 0.25,-0.1 0.39,-0.14 0.07,-0.03 0.16,-0.05 0.26,-0.05 0.02,0 0.04,0 0.07,0 0.37,-0.02 0.25,-0.02 0.46,0.07 0.3,0.16 0.42,0.33 0.75,0.7 2.39,3.04 5.02,5.97 8.83,7.18 5.21,1.65 10.83,-0.91 15.25,-3.51 1.86,-1.09 3.97,-1.93 6.16,-1.56 1.83,0.31 3.51,1.21 5.2,1.96 4.16,1.88 9,2.81 13.18,0.51 2.05,-1.14 3.89,-2.65 5.77,-4.05 1.65,-1.23 3.44,-2.69 5.37,-3.37 1.58,-0.56 3.79,0.51 5.51,1.35 2.27,1.09 4.44,2.39 6.81,3.25 2.28,0.82 4.9,0.82 7.18,0.12 2,-0.6 3.74,-1.77 5.6,-2.65 1.98,-0.95 4,-1.02 6.12,-0.49 2.62,0.68 5.27,1.33 7.97,1.77 5.58,0.91 11.74,0.98 16.55,-2.44 0.7,-0.49 1.23,-0.93 1.81,-1.07 0,0 0.02,0.02 0.02,0.02 -0.04,0.03 0.28,0.54 0.21,0.33 0.1,0.25 0.19,0.53 0.24,0.81 0.18,0.79 0.21,1.16 0.23,2.07 0.07,1.67 -0.05,3.35 -0.23,4.97z"/>
   <path class="fil0" d="M55.47 49.33c0.77,0.44 1.98,0.23 2.4,-0.63 0.53,-1.12 1.16,-2.21 1.92,-3.19 0.59,-0.74 0.75,-1.72 0,-2.46 -0.6,-0.61 -1.88,-0.74 -2.46,0 -0.95,1.23 -1.79,2.49 -2.46,3.88 -0.44,0.88 -0.26,1.91 0.6,2.4z"/>
   <path class="fil0" d="M83.55 43.68c1,-0.28 1.35,-1.21 1.21,-2.14 0.05,0.3 0,-0.3 0,-0.3 0,-0.19 0,-0.38 0.02,-0.56 -0.02,0.3 0.07,-0.3 0.07,-0.28 0.05,-0.19 0.12,-0.37 0.17,-0.54 0.32,-0.9 -0.35,-1.9 -1.21,-2.13 -0.96,-0.26 -1.84,0.32 -2.14,1.21 -0.42,1.16 -0.42,2.34 -0.26,3.53 0.14,0.93 1.33,1.44 2.14,1.21z"/>
   <path class="fil0" d="M122.9 47.05c0.56,0.76 1.49,1.14 2.4,0.62 0.74,-0.44 1.18,-1.62 0.63,-2.39 -0.86,-1.16 -1.61,-2.39 -2.19,-3.74 -0.39,-0.86 -1.63,-1.07 -2.39,-0.63 -0.89,0.51 -1,1.51 -0.63,2.39 0.58,1.33 1.3,2.58 2.18,3.75z"/>
   <path class="fil0" d="M144.5 52.37c0.88,0.37 1.9,-0.4 2.14,-1.21 0.11,-0.44 0.07,-0.93 -0.19,-1.35 -0.21,-0.35 -0.46,-0.53 -0.81,-0.69 0,0 0,0 0,0 0.02,0 0.02,0 0,-0.03 0,-0.07 0,-0.09 0,0l0 0 0 0c0,0 0,-0.02 0,-0.02 0.02,-0.37 0,-0.72 -0.21,-1.07 -0.23,-0.39 -0.61,-0.67 -1.05,-0.79 -0.83,-0.23 -2.02,0.28 -2.14,1.21 -0.11,0.88 -0.04,1.6 0.35,2.39 0.4,0.77 1.14,1.26 1.91,1.56zm1.11 -3.28c0,0 0,0 0,0 0,0 0,0 0,0 0,0 0,0 0,0zm0.03 0.05c0,0 0,0 0,0 0,0.07 -0.03,0.12 -0.03,0.21 0,-0.07 0,-0.14 0.03,-0.21z"/>
   <path class="fil0" d="M114.49 33.24c0.28,0.81 1.3,1.26 2.09,1.05 0.44,-0.12 0.81,-0.42 1.05,-0.79 0.25,-0.42 0.25,-0.86 0.18,-1.35 -0.09,-0.54 -0.44,-1.07 -0.83,-1.47 -0.21,-0.21 -0.45,-0.39 -0.72,-0.51 -0.47,-0.21 -0.72,-0.28 -1.24,-0.32 -0.44,-0.05 -0.93,0.21 -1.23,0.51 -0.32,0.32 -0.51,0.77 -0.51,1.23 0,0.46 0.19,0.91 0.51,1.23 0.23,0.21 0.47,0.33 0.7,0.42z"/>
   <path class="fil0" d="M95.8 27.99c0.16,0.09 0.33,0.16 0.49,0.18 0.42,0.26 0.93,0.37 1.42,0.24 0.93,-0.26 1.44,-1.24 1.21,-2.14 -0.12,-0.49 -0.42,-0.89 -0.77,-1.14 -0.26,-0.51 -0.68,-0.95 -1.14,-1.19 -0.84,-0.44 -1.88,-0.23 -2.39,0.63 -0.4,0.67 -0.28,1.63 0.3,2.16 0.07,0.51 0.46,1.02 0.88,1.26z"/>
   <path class="fil0" d="M76.62 29.34c0.89,0.23 1.96,-0.28 2.14,-1.21 0.1,-0.45 0.19,-0.89 0.28,-1.31 0.19,-0.92 -0.25,-1.88 -1.21,-2.13 -0.88,-0.24 -1.95,0.28 -2.14,1.21 -0.09,0.44 -0.18,0.88 -0.28,1.3 -0.18,0.9 0.26,1.86 1.21,2.14z"/>
   <path class="fil0" d="M59.77 34.15c0.42,-0.38 0.84,-0.75 1.26,-1.1 0.72,-0.62 0.62,-1.83 0,-2.46 -0.7,-0.7 -1.75,-0.63 -2.47,0 -0.42,0.37 -0.83,0.74 -1.25,1.09 -0.72,0.63 -0.63,1.84 0,2.47 0.72,0.69 1.74,0.6 2.46,0z"/>
   <path class="fil0" d="M42.57 41.1c0.09,-0.1 0.19,-0.19 0.28,-0.26 0.23,-0.16 0.49,-0.32 0.74,-0.44 0.86,-0.42 1.07,-1.6 0.63,-2.39 -0.51,-0.86 -1.53,-1.05 -2.39,-0.63 -0.63,0.3 -1.24,0.74 -1.72,1.25 -0.68,0.68 -0.68,1.79 0,2.47 0.67,0.67 1.79,0.67 2.46,0z"/>
   <path class="fil0" d="M101.96 48.79c0.95,0 1.74,-0.79 1.74,-1.74 0,-0.44 0,-0.89 0,-1.3 0,-0.96 -0.79,-1.75 -1.74,-1.75 -0.95,0 -1.74,0.79 -1.74,1.75 0,0.44 0,0.88 0,1.3 0,0.93 0.79,1.74 1.74,1.74z"/>
   <path class="fil0" d="M134.74 34.36c0.95,0 1.74,-0.79 1.74,-1.75 0,-0.18 0,-0.35 0,-0.53 0,-0.95 -0.79,-1.75 -1.74,-1.75 -0.96,0 -1.75,0.8 -1.75,1.75 0,0.18 0,0.35 0,0.53 0,0.96 0.79,1.75 1.75,1.75z"/>
   <path class="fil0" d="M159.89 45.98c0.3,0.37 0.55,0.67 1.04,0.79 0.44,0.11 0.93,0.07 1.35,-0.19 0.4,-0.23 0.67,-0.6 0.79,-1.04 0.12,-0.4 0.09,-1 -0.19,-1.35 -0.41,-0.54 -0.83,-1.07 -1.25,-1.63 -0.3,-0.37 -0.56,-0.67 -1.05,-0.79 -0.44,-0.12 -0.93,-0.07 -1.34,0.19 -0.4,0.23 -0.68,0.6 -0.8,1.04 -0.11,0.4 -0.09,1 0.19,1.35 0.42,0.56 0.84,1.09 1.26,1.63z"/>
   <path class="fil0" d="M147.31 37.77c0.09,0 0.19,0 0.26,0 0.95,0 1.74,-0.79 1.74,-1.74 0,-0.95 -0.79,-1.74 -1.74,-1.74 -0.1,0 -0.19,0 -0.26,0 -0.95,0 -1.74,0.79 -1.74,1.74 0,0.95 0.79,1.74 1.74,1.74z"/>
   <path class="fil0" d="M172.02 51.21c0.56,0.76 1.51,1.14 2.39,0.63 0.77,-0.45 1.19,-1.61 0.63,-2.4 -0.7,-0.95 -1.39,-1.93 -2.09,-2.88 -0.56,-0.77 -1.51,-1.14 -2.39,-0.63 -0.77,0.44 -1.19,1.61 -0.63,2.4 0.69,0.95 1.39,1.9 2.09,2.88z"/>
  </g>
 </g>
</svg>
