<svg xmlns="http://www.w3.org/2000/svg" width="100" height="100" viewBox="0 0 10000 10000"
     style="image-rendering:optimizeQuality;shape-rendering:geometricPrecision;text-rendering:geometricPrecision">
    <defs>
        <style type="text/css">
            .fil0 {fill:black;fill-rule:nonzero}
        </style>
    </defs>
    <path class="fil0"
          d="M9735.2 5498.4c-30.3-535-454.2-969-989.2-1029.6l-1019.5-111-1524.2-1514.1c-262.4-262.4-605.6-403.8-979.1-403.8l-666.2 0c-1039.7 0-2039 434-2735.5 1201.2l0 0c-262.4 282.6-565.3 545.1-888.3 767.2l-272.5 191.8c-292.7 191.8-464.3 524.9-464.3 868.1l0 696.5c0 282.6 232.2 514.8 514.8 514.8l343.2 0c0-716.7 585.5-1302.1 1302.2-1302.1 716.7 0 1302.2 585.5 1302.2 1302.2l2654.8 0c0-716.7 585.5-1302.1 1302.2-1302.1 716.7 0 1312.2 585.5 1312.2 1302.2l504.7 0c212 0 373.5-171.6 363.4-383.6l-60.6-797.4zm-6026.2-1231.5l-1322.3 0 50.5-60.6c343.2-383.6 787.4-656.1 1271.9-797.4l0 858zm837.8 0l0-989.2 686.4 0c141.3 0 282.6 60.6 383.6 161.5l827.7 827.7-1897.7 0z"/>
    <circle class="fil0" cx="2356.4" cy="6679.4" r="888.3"/>
    <circle class="fil0" cx="7625.5" cy="6679.4" r="888.3"/>
</svg>
