<?xml version="1.0" encoding="UTF-8"?>
<svg xmlns="http://www.w3.org/2000/svg" xmlns:xlink="http://www.w3.org/1999/xlink" width="24pt" height="24pt"
     viewBox="0 0 24 24" version="1.1">
    <g id="surface1">
        <path
              d="M 14.25 6.75 C 14.664062 6.75 15 6.414062 15 6 C 15 5.585938 14.664062 5.25 14.25 5.25 C 13.835938 5.25 13.5 5.585938 13.5 6 C 13.5 6.414062 13.835938 6.75 14.25 6.75 Z M 24 15 C 23.996094 13.96875 23.460938 13.007812 22.585938 12.464844 C 23.21875 11.484375 23.453125 9.984375 22.878906 8.757812 C 21 4.703125 16.851562 1.503906 12 1.5 C 7.148438 1.503906 3 4.703125 1.117188 8.757812 C 0.53125 10.011719 0.6875 11.5625 1.289062 12.542969 C 0.636719 12.992188 0.191406 13.679688 0.0507812 14.453125 C -0.09375 15.230469 0.078125 16.03125 0.523438 16.683594 C 0.660156 16.878906 0.820312 17.0625 1 17.222656 C 0.851562 17.453125 0.75 17.710938 0.75 18 L 0.75 19.5 C 0.75 21.15625 2.09375 22.5 3.75 22.5 L 20.25 22.5 C 21.90625 22.5 23.25 21.15625 23.25 19.5 L 23.25 18 C 23.25 17.710938 23.148438 17.453125 23 17.222656 C 23.632812 16.65625 23.996094 15.847656 24 15 Z M 2.476562 9.390625 C 4.253906 5.574219 8.078125 3.003906 12 3 C 15.921875 3.003906 19.753906 5.574219 21.523438 9.390625 C 21.796875 9.976562 21.769531 10.773438 21.457031 11.429688 C 21.453125 11.441406 21.449219 11.453125 21.441406 11.464844 C 21.269531 11.796875 20.925781 12.003906 20.554688 12 L 3.285156 12 C 3 12 2.714844 11.886719 2.535156 11.664062 C 2.484375 11.601562 2.445312 11.53125 2.417969 11.457031 C 2.175781 10.804688 2.195312 9.992188 2.476562 9.390625 Z M 21.75 19.5 C 21.75 20.328125 21.078125 21 20.25 21 L 3.75 21 C 2.921875 21 2.25 20.328125 2.25 19.5 L 2.25 18 L 21.75 18 Z M 21 16.5 L 3 16.5 C 2.171875 16.5 1.5 15.828125 1.5 15 C 1.5 14.171875 2.171875 13.5 3 13.5 L 10.5 13.5 L 15 15.75 L 19.5 13.5 L 21 13.5 C 21.828125 13.5 22.5 14.171875 22.5 15 C 22.5 15.828125 21.828125 16.5 21 16.5 Z M 18 9.75 C 18.414062 9.75 18.75 9.414062 18.75 9 C 18.75 8.585938 18.414062 8.25 18 8.25 C 17.585938 8.25 17.25 8.585938 17.25 9 C 17.25 9.414062 17.585938 9.75 18 9.75 Z M 6 9.75 C 6.414062 9.75 6.75 9.414062 6.75 9 C 6.75 8.585938 6.414062 8.25 6 8.25 C 5.585938 8.25 5.25 8.585938 5.25 9 C 5.25 9.414062 5.585938 9.75 6 9.75 Z M 9.75 6.75 C 10.164062 6.75 10.5 6.414062 10.5 6 C 10.5 5.585938 10.164062 5.25 9.75 5.25 C 9.335938 5.25 9 5.585938 9 6 C 9 6.414062 9.335938 6.75 9.75 6.75 Z M 9.75 6.75 "/>
    </g>
</svg>
