<svg xmlns="http://www.w3.org/2000/svg" width="100" height="100" viewBox="0 0 10000 10000"
     style="image-rendering:optimizeQuality;shape-rendering:geometricPrecision;text-rendering:geometricPrecision">
    <defs>
        <style type="text/css">
            .fil0 {fill:black;fill-rule:nonzero}
        </style>
    </defs>
    <path class="fil0"
          d="M7278.6 8178.3c358.6-239 719.4-348.6 1081.7-341.7 360.3 6.9 717.1 129.5 1070.1 354.9l-4 6.3c2.6 17.4-9.7 40.4 2.9 27.4 7.4-7.6 10.5-58.8 10.3-157.8 0.2-125.1-1.4-248.5-3.1-371.8-1.6-123.2-3.3-246.4-3.1-374.2 0.2-106.9-14.8-196.1-45-270.1-26.9-66.1-67.4-120.6-121.4-165.7-306.2-193.3-610.9-292.2-913.1-292.6-296.6-0.4-595.3 94.4-895.3 288.4-56.7 58-105.4 113.2-138.8 177.8-34.6 67.1-56.3 150.5-59.5 268.8 5.3 185.3 4.5 347.1 3.8 478.1-0.4 86.2-0.8 158.7 0.9 216.2l0 3.9c0.2 68.4 2.3 121.6 6.9 158 0.3-0.5 0.7-1 1.2-1.3l5.6-4.5zm1077.2-54.7c-302.8-5.8-608.6 88.6-917.3 294.4l-0.2-0.2c-164.1 119.6-285 115.2-378.3-4.5-58.1-74.5-81-202.9-81.9-383.2-1.7-58.9-1.3-134.8-0.9-225.2 0.6-128.4 1.4-287.2-3.9-472.6l0-7.3c4.1-169.2 37.5-293.3 91.2-397.4 53.1-102.9 122.4-179.9 201.9-260.2l11.3-11.4 11.8-7.7c351.4-230.2 706.7-342.7 1064.7-342.2 361.9 0.5 721.6 117 1078 344.4l10.8 6.9 3.2 2.7c93 76.2 162.7 169.4 209.2 283.3 43.8 107.3 65.5 232.2 65.3 378.2-0.2 124.7 1.5 247.8 3.1 370.8 1.6 123.5 3.3 247.1 3.1 375.2 0.2 177.8-26.5 291.4-91.4 358.1-89.3 91.8-198.5 88.4-345.5 15.9l-5.1-2.5-8.4-5.3c-308.6-197-615.6-304-920.4-309.8zm-1080.4 82.9c2.9 14.5 6.5 24.6 10.8 30.1 14.1 18.1-2.2-8.1-10.8-30.1z"/>
    <path class="fil0"
          d="M5108.7 4572.6l-1849.2 0 70.6-84.7c480-536.4 1101.1-917.6 1778.7-1115.2l0 1199.9zm2098.9 0l-927.2 0 0-1383.4 959.9 0c21.7 0 43.4 1 65 3l1.1-1.9 1.1-1.9 2.4-3.8 1.2-1.9 1.2-1.9 1.3-1.9 1.3-1.9 1.3-1.9 0.3-0.4 1.2-1.7 0.9-1.2 3-4.2 0.1-0.1 2-2.7 0.1-0.2 0.1-0.2 0.2-0.3 0.5-0.7 1.5-1.9 1.5-1.9 1.2-1.5 0.3-0.4 1.6-1.9 3.3-4 1.6-1.9 1.7-1.9 1.7-2 1.7-2 0.9-1 0.9-1 5.2-5.7 0.2-0.2 0.6-0.7 1.2-1.3 3.8-3.9 2-2 0.4-0.4 1.6-1.6 2-2 2-2 2.1-2 0.1-0.1 0.2-0.1 4-3.8 2.2-2 1.9-1.8 0.2-0.2 6.7-6 1.7-1.5 0.6-0.5 7.1-6.1 1.4-1.2 1-0.8 7.4-6.1 1.2-0.9 9.1-7.2 0.1-0.1 0.8-0.6 1.9-1.4 2.7-2.1 4.7-3.5 0.8-0.6 0.4-0.3 2.4-1.8 8.6-6.3 3.5-2.6 5.1-2.9c58.5-33.6 87.9-65.9 92.8-98.9 5.7-38.1-14.3-88.6-55.1-151.5-90.8-128.6-133.4-198-119.4-282.3 14.3-86.1 76-134.7 194.3-225.3 37.2-34.2 57-59.2 60.1-79.9 3.2-21.4-8.4-51.7-34.1-96.3l-1-1.5-1-1.5-1-1.5-1-1.5-0.4-0.6-0.6-0.8-1-1.5-1-1.4-1-1.5-0.8-1.2-0.1-0.2-1-1.4-0.9-1.4-1-1.4-0.9-1.4-0.3-0.4-0.7-1-0.9-1.4-0.9-1.4-0.9-1.4-0.7-1-0.3-0.4-0.9-1.4-0.9-1.4-0.9-1.4-0.9-1.4-0.1-0.2-1.5-2.4-0.1-0.2-0.9-1.4-0.9-1.4-0.5-0.8-0.4-0.6-0.9-1.4-0.9-1.4-0.9-1.3-0.9-1.3-0.9-1.4-0.9-1.3-0.9-1.3-0.9-1.3-0.4-0.6-0.5-0.8-0.9-1.3-0.8-1.3-0.9-1.3-0.7-1.1-0.9-1.5-0.8-1.3-0.8-1.3-1.1-1.7-0.6-0.9-0.8-1.3-0.8-1.3-0.8-1.3-0.6-0.9-1-1.6-0.8-1.3-1.7-2.7-0.7-1.1-0.8-1.2-0.8-1.3-0.8-1.2-0.5-0.7-0.3-0.5-0.8-1.2-0.8-1.2-0.8-1.2-0.7-1.2 0 0-0.7-1.2-0.8-1.2 0 0c-96.6-14.3-195.3-21.6-295.5-21.6l-931.7 0c-1454 0-2851.5 607-3825.5 1679.8l0 0c-367 395.3-790.5 762.3-1242.2 1072.9l-381.1 268.2c-409.4 268.2-649.3 734.1-649.3 1214l0 974c0 395.3 324.7 719.9 719.9 719.9l480 0c0-1002.2 818.8-1821 1821-1821 1002.3 0 1821 818.8 1821 1821l1737.9 0 0.1-21.1 0.1-10.5 0 0 0.1-10.5 0-6 0-4.6 0.2-28.4 0-3.2 0-10.5 0-2.7 0-7.8 0.1-21 0-4.1 0.1-32.9 0-5.1 0-10.5 0-0.8 0-9.7 0-6.8 0-3.7 0-10.5 0-2.2 0-29.3 0-3.5 0-7 0.1-41.9 0-0.3 0-10.2 0-6.2 0-4.3 0-10.5 0-31.4 0-3 0-7.5 0-8.9 0-1.6 0-20.9 0-10.2 0-0.3 0-10.4 0-5.6 0-4.8 0-10.5 0-1.1 0-9.4 0-7 0-3.5 0-10.4 0-2.4 0-8 0-8.3 0-2.1 0-10.5 0-3.8 0-6.7 0-9.7 0-0.8 0-10.4 0-5.1 0-5.4 0-10.4 0-0.5 0-9.9 0-6.4 0-4 0-10.4 0-1.9 0-8.6 0-7.8 0-2.7 0-10.4 0-3.2 0-7.2 0-9.1 0-1.3 0-10.4 0-4.6 0-5.9 0-10.4 0-16.4 0.1-5.8 0.2-11 0.2-5.6 0.5-11.6 0.2-4.6 0.1-0.6 0.8-13.8 0.1-1.8 0.4-5.6 0.9-11.5 0.5-5.3c0.9-10.6 2-21.1 3.3-31.6l0.7-5.8 1.6-12.1 0.5-3.5c1.6-11 3.3-22 5.2-32.9l0.6-3.3 2.4-12.9 0.8-4.3 3-14.5 0.2-1.1 3.4-14.9 0.5-2.1 0.7-2.8 2.9-11.6 1.6-6 2.6-10 1-3.8 0.7-2.5 3.7-12.8 0.5-1.6 1.6-5.1 2.4-8 2.4-7.7 2.9-8.7 1.8-5.5 0.5-1.4 4.4-12.5 0.4-1.1 0.6-1.6 4.7-12.6 2.2-5.8 3-7.7 2.7-6.7 5.6-13.7 0.2-0.5 5-11.5 0.6-1.4 3.3-7.3 3.4-7.4 3-6.4 6.4-13.4 0.1-0.1 5.8-11.7 0.2-0.5 4.5-8.7 3-5.7 3.5-6.5 4.6-8.3 2.6-4.7 0.2-0.4 6.5-11.4 5.8-9.8 1.8-3 5.4-8.9 2.2-3.6 5.2-8.3 7.1-11 6-8.9 2.4-3.6 5.8-8.3 2.3-3.3 5.8-8.2 7.8-10.5 7-9.3 1.4-1.8 6.6-8.5 3.3-4.1 5.8-7.2 8.3-10.1 6.7-7.9 2.9-3.4 6.4-7.4 2.8-3.1 7.1-7.9 8.9-9.6c6-6.4 12.1-12.6 18.3-18.9 24.7-24.8 51-48.3 78.7-70.4-18.9-16.1-36.3-35.2-52.4-56.1-46.1-60.2-77.5-135.5-97-184l-2.2-5.5-1.3-4.6c-40-141 63.9-228.5 143.7-295.6 10-8.4 19.5-16.4 26.8-23.1l6.3-5.7 3.5-2.5c22.9-16.2 40.2-33.4 52.6-49.5 11.5-14.9 18.4-27.9 21.6-37.6 0.9-25.2-38.6-82.9-77.5-139.5-58.8-85.8-116.6-170.1-106.2-262.7l0.8-5.9c24-140.1 113.3-192.1 195.3-239.6 51.1-29.7 94.7-55-16.5-222.6l-1.6-2.7c-57.5-92.8-91.5-178.6-85.1-262.4l0.2-2.7 0.2-1.6 0.1-1.1 0.3-2.7 0-0.5 0.3-2.2 0.3-2.1 0.1-0.6 0.4-2.7 0.2-1 0.2-1.7 0.4-2.6 0-0.1 0.4-2.7 0.3-1.5 0.2-1.1 0.5-2.7 0.1-0.4 0.4-2.2 0.4-2 0.1-0.7 0.6-2.6 0.2-0.9 0.4-1.7 0.6-2.5 0-0.1 0.7-2.6 0.4-1.4 0.3-1.2 0.7-2.6 0.1-0.3 0.6-2.2 0.6-1.9 0.2-0.7 0.8-2.6 0.2-0.8 0.6-1.7 0.8-2.3 0.1-0.2 0.9-2.5 0.9-2.5 0.9-2.5 0.1-0.2 0.9-2.3 0.7-1.7 0.3-0.8 1-2.5 0.3-0.7 1.7-4 0.1-0.3 1.1-2.5 0.5-1.2 0.6-1.3 1.2-2.4 0.1-0.2 1.1-2.3 0.8-1.6 0.4-0.8 1.2-2.4 0.4-0.6 0.9-1.8 1.1-2.1 0.2-0.3 1.4-2.4 0.6-1.1 0.8-1.3 1.4-2.4 0.1-0.1 2.3-3.8 0.5-0.8 1.5-2.4 0.4-0.6 1.2-1.8 1.3-2 0.3-0.4 1.6-2.3 1.6-2.3 1.6-2.3 0-0.1 1.6-2.3 1.1-1.4 0.7-0.9 1.7-2.3 0.4-0.5 1.4-1.8 1.4-1.8 0.3-0.4 1.8-2.3 0.8-0.9 3-3.6 0 0 1.9-2.2 1.1-1.3 0.8-0.9 2-2.2 0.4-0.4 3.3-3.5 0.5-0.5zm-2748.2 3373.8c0-686.1-556.2-1242.2-1242.2-1242.2-686.1 0-1242.2 556.2-1242.2 1242.3 0 686.1 556.2 1242.3 1242.2 1242.3 686.1 0 1242.3-556.2 1242.3-1242.2z"/>
    <path class="fil0"
          d="M9352.3 6310.6c-0.3-1019.9-148.5-4767.7-0.4-5479.7l-105.4 1.2c-371.9 4.3-734 8.4-1115.4 5.3-71.7-0.3-139.9 21.8-201.4 58.5-71.5 42.8-134 105.4-183 176.5-30.7 53.8 11.4 114.3 52.3 173.2 91.4 131.4 179.9 258.8-0.2 435l-2.7 2.7c-95.2 87-142.7 132-146.5 158.4-3.4 23.8 29.5 75 95.2 173.7l2.8 4.7c51.5 88.1 73.1 158.7 62.5 230.8-10.8 73-52 133.6-126.1 201.3l-6.7 5.5c-79.4 60.9-120.8 92.6-122.3 101.5-1.8 11 27.1 53 87.3 138.1l2.3 3.1c67.7 104.5 99.2 199.6 85.6 290.2-14.2 94.2-73.2 172.8-185.9 239-79.3 59.3-40.7 118.6 4.7 188.2 36.5 56 75.6 115.8 98.4 189.5l0.8 2.4c45.1 159-73.3 256.9-174.7 340.7-16.9 13.9-33.2 27.4-44.8 38.1-42.4 38.7-1.2 100.5 37.4 158.5 5.8 8.6 11.3 16.9 22.7 34.9 15.9 20 29.5 39.4 40.9 58.2 42.7 70.8 59.3 140 49.3 206.9-10.3 69-47.5 130-112 181.9-16.4 13.2-34.1 25.6-53 37l-3.1 1.6c-50 27.9-72 53.6-73.9 78.9-2.7 35.2 18.4 82.6 53.6 139.8 228.6 344.4 100.3 418.9-50 506.2-41.9 24.3-87.5 50.8-97.4 96.6 0.7 20.7 36.3 72.8 72.6 125.7 62.9 91.7 127 185.3 109.3 288.6l-1.6 7c-8.1 32.7-26.8 74.7-59 116.5-23 29.9-53.5 60.7-92.6 88.8l-26.3 22.6c-35.2 29.6-80.5 67.9-79.7 86.5 15.4 38 38.6 91.8 67.2 129.1 12.3 16 23.6 28.5 28.5 27.2 931.9-414 1290.4-320.1 2091-70.2zm3.3-5485.1c2.2-1.9 3.8-2.3 1.1-5.3l-1.1-1.2 0.1 6.5z"/>
</svg>
