<svg xmlns="http://www.w3.org/2000/svg" width="100" height="100" viewBox="0 0 10000 10000"
     style="image-rendering:optimizeQuality;shape-rendering:geometricPrecision;text-rendering:geometricPrecision">
    <defs>
        <style type="text/css">
            .fil0 {fill:none}
            .fil1 {fill:black;fill-rule:nonzero}
        </style>
    </defs>
    <rect class="fil0" x="7569.6" y="3794.4" width="1442.6" height="943.6"/>
    <path class="fil0"
          d="M4044.5 7655.7c206.1 0 368.8-162.7 368.8-368.8 0-206.1-162.7-368.8-368.8-368.8-206.1 0-368.8 162.7-368.8 368.8 0 206.1 162.7 368.8 368.8 368.8zm0-629.1c141 0 260.3 119.3 260.3 260.3 0 141-119.3 260.3-260.3 260.3-141 0-260.3-119.3-260.3-260.3 0-141 119.3-260.3 260.3-260.3z"/>
    <path class="fil0"
          d="M2038 7612.3c206.1 0 368.8-162.7 368.8-368.8 0-206.1-162.7-368.8-368.8-368.8-206.1 0-368.8 162.7-368.8 368.8 0 206.1 162.7 368.8 368.8 368.8zm0-629.1c141 0 260.3 119.3 260.3 260.3 0 141-119.3 260.3-260.3 260.3-141 0-260.3-119.3-260.3-260.3 0-141 119.3-260.3 260.3-260.3z"/>
    <path class="fil0"
          d="M3046.7 7612.3c206.1 0 368.8-162.7 368.8-368.8 0-206.1-162.7-368.8-368.8-368.8-206.1 0-368.8 162.7-368.8 368.8 0 206.1 162.7 368.8 368.8 368.8zm0-629.1c141 0 260.3 119.3 260.3 260.3 0 141-119.3 260.3-260.3 260.3-141 0-260.3-119.3-260.3-260.3 0-141 119.3-260.3 260.3-260.3z"/>
    <circle class="fil1" cx="2038" cy="7243.6" r="260.3"/>
    <path class="fil1"
          d="M1387.2 8143.8c21.7 43.4 65.1 75.9 119.3 75.9l6182.4 0c43.4 0 75.9-21.7 97.6-43.4l1410-1702.9-8612 0 802.6 1670.3zm2657.4-1225.6c206.1 0 368.8 162.7 368.8 368.8 0 206.1-162.7 368.8-368.8 368.8-206.1 0-368.8-162.7-368.8-368.8 0-206.1 162.7-368.8 368.8-368.8zm-997.9-43.4c206.1 0 368.8 162.7 368.8 368.8 0 206.1-162.7 368.8-368.8 368.8-206.1 0-368.8-162.7-368.8-368.8 0-206.1 162.7-368.8 368.8-368.8zm-1008.7 0c206.1 0 368.8 162.7 368.8 368.8 0 206.1-162.7 368.8-368.8 368.8-206.1 0-368.8-162.7-368.8-368.8 0-206.1 162.7-368.8 368.8-368.8z"/>
    <path class="fil1"
          d="M9359.3 5074.3l0-1767.9c0-271.2-184.4-498.9-444.7-585.7l0-867.7c0-32.5-32.5-65.1-65.1-65.1-32.5 0-65.1 32.5-65.1 65.1l0 835.2c-43.4-10.8-86.8-10.8-130.1-10.8l-835.2 0c-390.5 0-705 282-705 639.9l0 1768-6431.9 0c-357.9 0-596.5 368.8-433.9 694.2l227.8 477.2 8894 0 314.5-379.6c249.5-314.5 54.2-770.1-325.4-802.6zm-357.9-336.2l-1431.7 0 0-943.6 1442.6 0 0 943.6-10.8 0z"/>
    <circle class="fil1" cx="4044.5" cy="7287" r="260.3"/>
    <circle class="fil1" cx="3046.7" cy="7243.6" r="260.3"/>
    <path class="fil1"
          d="M6691.9 4417.4l-1461.5 0c-165.2 0-299.4 134.3-299.4 299.4 0 165.1 134.3 299.4 299.4 299.4l1461.4 0c165.2 0 299.5-134.3 299.5-299.4 0-165.1-134.3-299.4-299.4-299.4zm0 500.4l-1461.5 0c-110.8 0-201-90.1-201-201 0-110.8 90.1-201 201-201l1461.4 0c110.9 0 201 90.2 201 201 0 110.8-90 201-201 201z"/>
    <circle class="fil1" cx="5237" cy="4716.8" r="171.1"/>
    <circle class="fil1" cx="6685.3" cy="4716.8" r="171.1"/>
    <path class="fil1"
          d="M5429.7 4584.5c25.9 37.6 41.2 83.2 41.2 132.4 0 49.2-15.3 94.8-41.1 132.4l1062.7 0c-25.9-37.6-41.1-83.2-41.1-132.4 0-49.1 15.2-94.7 41.1-132.4l-1062.8 0z"/>
    <path class="fil1"
          d="M5237 4254.6c0 52.6 42.8 95.2 95.3 95.2l415.6 0 189.2 0 828.4 0c62.6 0 131.6-72.4 94.1-155.9-37.6-83.4-146.4-326.3-146.4-326.3-20.9-45.4-74.7-113.2-167.1-113.2l-393 0 0-194.8c0-52.6-42.6-95.2-95.2-95.2l-590.9 0-442.3-186.8-44.4 204.7 358.7 199.4-101.9 572.9zm255-652l527 0-317.8 492.4-293 0 83.8-492.4z"/>
    <path class="fil1"
          d="M4734.5 3938.8c62.6 10.9 89-36.7 99.9-99.3l144.1-631.1c10.9-62.5-31-122-93.4-132.9-62.6-10.9-122.1 30.9-133 93.4l-78 642.8c-10.9 62.5-2.1 116.2 60.4 127.2z"/>
    <path class="fil1"
          d="M4840.2 3941.6c-24.3 37.1-60.7 57.5-115.5 47.9-88.7-15.4-106-87.8-94.3-174.5-127.1 15.9-244.8 241.2-39.6 385.8 225.5 158.9 529.1-56.4 529.1-56.4l-279.7-202.8z"/>
    <path class="fil1"
          d="M2508.2 4298.3l-180.3-29.7-97.6-250.3c-46.7-118.8-161.2-197.2-290.6-197.2l-135.7 0c-8.5-50.9-53-89.1-106-89.1l-1007.5 0c-59.4 0-108.2 48.8-108.2 108.2l0 890.8c0 59.4 48.8 108.2 108.2 108.2l70 0c0-154.8 127.3-282.1 282.1-282.1 154.8 0 282.1 127.3 282.1 282.1l528.1 0c0-154.8 127.3-282.1 282.1-282.1 154.8 0 282.1 127.3 282.1 282.1l70 0c59.4 0 108.2-48.8 108.2-108.2l0-326.6c2.1-53-36.1-97.6-87-106zm-699.9-44.5l0-260.9 133.6 0c57.3 0 108.2 36.1 129.4 89.1l67.9 173.9-330.9 0 0-2.1z"/>
    <circle class="fil1" cx="1042.6" cy="4837" r="182.4"/>
    <circle class="fil1" cx="2137" cy="4837" r="182.4"/>
    <path class="fil1"
          d="M4617.8 4629.3c-5.7-100.5-85.3-182.1-185.9-193.4l-191.5-20.9-286.4-284.5c-49.3-49.3-113.8-75.9-184-75.9l-125.2 0c-195.3 0-383.1 81.6-514 225.7l0 0c-49.3 53.1-106.2 102.4-166.9 144.1l-51.2 36c-55 36-87.2 98.6-87.2 163.1l0 130.9c0 53.1 43.6 96.7 96.7 96.7l64.5 0c0-134.6 110-244.6 244.7-244.6 134.7 0 244.7 110 244.7 244.7l498.8 0c0-134.6 110-244.6 244.7-244.6 134.7 0 246.6 110 246.6 244.7l94.8 0c39.8 0 70.2-32.2 68.3-72.1l-11.4-149.8zm-1132.2-231.4l-248.4 0 9.5-11.4c64.5-72.1 147.9-123.3 239-149.8l0 161.2zm157.4 0l0-185.9 129 0c26.6 0 53.1 11.4 72.1 30.3l155.5 155.5-356.5 0z"/>
    <circle class="fil1" cx="3231.5" cy="4851.2" r="166.9"/>
    <circle class="fil1" cx="4221.5" cy="4851.2" r="166.9"/>
</svg>
