<svg xmlns="http://www.w3.org/2000/svg" width="100" height="100" viewBox="0 0 10000 10000"
     style="image-rendering:optimizeQuality;shape-rendering:geometricPrecision;text-rendering:geometricPrecision">
    <defs>
        <style type="text/css">
            .fil0 {fill:black;fill-rule:nonzero}
        </style>
    </defs>
    <path class="fil0"
          d="M8652 6427.2l-5585.6 0c-631.2 0-1144.2 513.3-1144.2 1144.2 0 630.9 513.3 1144.2 1144.2 1144.2l5585.3 0c631.2 0 1144.5-513.3 1144.5-1144.2 0-630.9-513.3-1144.2-1144.2-1144.2zm0 1912.6l-5585.6 0c-423.6 0-768.3-344.4-768.3-768.3 0-423.6 344.4-768.3 768.3-768.3l5585.3 0c423.9 0 768.3 344.7 768.3 768.3 0 423.6-344.1 768.3-768 768.3z"/>
    <circle class="fil0" cx="3091.6" cy="7571.5" r="654"/>
    <circle class="fil0" cx="8626.8" cy="7571.5" r="654"/>
    <path class="fil0"
          d="M3828.1 7065.6c99 143.7 157.5 318 157.5 506.1 0 188.1-58.5 362.4-157.2 506.1l4061.5 0c-99-143.7-157.2-318-157.2-506.1 0-187.8 58.2-362.1 157.2-506.1l-4061.8 0z"/>
    <path class="fil0"
          d="M3091.6 5805c0 201 163.5 363.9 364.2 363.9l1588.3 0 723 0 3166 0c239.1 0 502.8-276.6 359.7-595.8-143.7-318.9-559.5-1247.1-559.5-1247.1-79.8-173.7-285.6-432.6-638.7-432.6l-1501.8 0 0-744.3c0-201-162.9-363.9-363.9-363.9l-2258.5 0-1690.2-714-169.8 782.4 1370.8 762-389.4 2189.5zm974.7-2491.9l2014.3 0-1214.7 1882-1119.9 0 320.4-1882z"/>
    <path class="fil0"
          d="M1171.2 4598.1c239.1 41.7 340.2-140.4 381.6-379.5l550.8-2412.1c41.7-238.8-118.5-466.2-357-507.9-239.4-41.7-466.8 117.9-508.2 357l-298.2 2456.5c-41.7 238.8-8.1 444 231 486z"/>
    <path class="fil0"
          d="M1575 4608.6c-93 141.9-231.9 219.6-441.6 183-339-58.8-405-335.4-360.3-666.9-485.7 60.6-935.7 921.6-151.2 1474.6 861.9 607.2 2022.1-215.7 2022.1-215.7l-1068.9-774.9z"/>
</svg>
