<?xml version="1.0" encoding="UTF-8"?>
<!DOCTYPE svg PUBLIC "-//W3C//DTD SVG 1.1//EN" "http://www.w3.org/Graphics/SVG/1.1/DTD/svg11.dtd">
<!-- Creator: CorelDRAW -->
<svg xmlns="http://www.w3.org/2000/svg" xml:space="preserve" width="2.0318mm" height="2.0318mm" version="1.1" style="shape-rendering:geometricPrecision; text-rendering:geometricPrecision; image-rendering:optimizeQuality; fill-rule:evenodd; clip-rule:evenodd"
viewBox="0 0 203.18 203.18"
 xmlns:xlink="http://www.w3.org/1999/xlink"
 xmlns:xodm="http://www.corel.com/coreldraw/odm/2003">
 <defs>
  <style type="text/css">
   <![CDATA[
    .fil0 {fill:black}
   ]]>
  </style>
 </defs>
 <g id="????_x0020_1">
  <metadata id="CorelCorpID_0Corel-Layer"/>
  <g>
   <path class="fil0" d="M59.03 2.74c0,-1.52 1.23,-2.75 2.74,-2.75l90.62 0c1.52,0 2.75,1.23 2.75,2.75l0 18.49 10.62 18.59c0.24,0.41 0.36,0.88 0.36,1.36l0 118.07c0,0.55 -0.16,1.08 -0.46,1.53l-27.46 41.19c-0.51,0.76 -1.37,1.22 -2.29,1.22l-96.1 0c-1.52,0 -2.75,-1.23 -2.75,-2.75l0 -144.16c0,-0.52 0.15,-1.04 0.43,-1.48l21.54 -33.65 0 -18.41zm4.25 21.96l-18.46 28.84 89.37 0 13.84 -28.84 -84.75 0zm89.32 3.16l-5.07 10.57 11.11 0 -6.04 -10.57zm0.08 16.07l-7.79 0 -2.79 5.82 10.58 -5.82zm-14.02 13.98l0 133.46 21.97 -32.95 0 -112.6 -21.97 12.09zm-5.49 139.79l0 -138.67 -90.62 0 0 138.67 90.62 0zm16.47 -178.49l-85.12 0 0 -13.73 85.12 0 0 13.73zm-48.77 71.83c1.03,-0.66 2.39,-0.56 3.31,0.26 1.9,1.68 3.21,3.48 3.92,5.39 0.71,1.94 0.75,3.83 0.36,5.59 -0.25,1.1 -0.66,2.15 -1.17,3.13 1.43,0.07 2.88,0.29 4.25,0.62 3.69,0.88 7.59,2.73 10.02,5.66 0.48,0.59 0.7,1.36 0.6,2.12 -0.1,0.76 -0.52,1.44 -1.15,1.88 -3.53,2.46 -6.77,3.59 -9.73,3.63 -0.91,0.01 -1.76,-0.08 -2.56,-0.25 -0.03,0.32 -0.08,0.65 -0.13,0.96l-3.12 17.97c1.85,2.82 2.16,6.53 0.56,9.82 -2.23,4.54 -7.3,6.62 -12,5.75 -2.04,-0.39 -4.13,-0.67 -5.78,-0.67 -1.66,0 -3.75,0.28 -5.79,0.67 -4.69,0.87 -9.77,-1.21 -11.99,-5.75 -1.61,-3.29 -1.3,-7 0.55,-9.82l-3.12 -17.97c-0.06,-0.38 -0.11,-0.76 -0.15,-1.14 -0.68,0.19 -1.4,0.33 -2.18,0.39 -3.25,0.27 -6.87,-0.81 -10.86,-3.59 -0.63,-0.44 -1.04,-1.12 -1.15,-1.88 -0.1,-0.76 0.12,-1.53 0.61,-2.12 2.49,-3.02 6.6,-4.89 10.42,-5.74 1.09,-0.25 2.24,-0.42 3.38,-0.51 -0.4,-0.81 -0.73,-1.67 -0.95,-2.57 -0.44,-1.79 -0.45,-3.73 0.25,-5.73 0.69,-1.97 2.01,-3.82 3.97,-5.55 0.92,-0.82 2.27,-0.92 3.31,-0.26 1.03,0.67 1.5,1.95 1.13,3.12 -0.49,1.59 0.05,3.07 1.72,4.78 1.42,1.46 3.29,2.67 5.01,3.75 1.98,-0.5 3.98,-0.83 5.84,-0.83 1.51,0 3.13,0.22 4.75,0.58 1.73,-1.09 3.6,-2.31 5.03,-3.78 1.66,-1.71 2.2,-3.19 1.7,-4.78 -0.36,-1.18 0.1,-2.46 1.14,-3.13zm-8.09 17.27c0.02,0.01 0.04,0.01 0.05,0.02 1.91,0.49 3.93,1.2 5.86,1.98 0.47,0.19 0.91,0.43 1.31,0.7 0.08,0.05 0.15,0.1 0.22,0.15 1.39,1.01 2.36,2.5 2.81,4.23 0.31,1.17 0.37,2.43 0.15,3.71l-2.62 15.11c-0.29,-0.09 -0.58,-0.18 -0.88,-0.25 -3.56,-0.84 -7.83,-1.63 -11.43,-1.63 -3.61,0 -7.88,0.79 -11.44,1.63 -0.3,0.07 -0.59,0.16 -0.88,0.25l-2.61 -15.11c-0.27,-1.53 -0.13,-3.05 0.35,-4.4 0.46,-1.29 1.23,-2.41 2.24,-3.26 0,0 0,0 0,0l0.01 0c0,0 0,-0.01 0,-0.01l16.86 -3.12zm-16.73 3.01c0.03,-0.02 0.06,-0.04 0.09,-0.06 0.49,-0.38 1.05,-0.7 1.66,-0.95 3.61,-1.47 7.52,-2.66 10.45,-2.66 1.34,0 2.89,0.25 4.53,0.66l-16.73 3.01zm-1.38 -5.61c0.34,-0.18 0.7,-0.34 1.06,-0.49 0.05,-0.02 0.09,-0.03 0.14,-0.05 -0.83,-0.64 -1.66,-1.34 -2.4,-2.1 -0.35,-0.36 -0.69,-0.74 -1.02,-1.15 0.39,1.24 1.19,2.5 2.22,3.79zm-5.28 5.17c-0.24,0.43 -0.45,0.87 -0.64,1.32 -1.01,0.88 -2.19,1.49 -3.62,1.61 -1.03,0.08 -2.35,-0.08 -4.01,-0.77 1.34,-0.75 2.94,-1.35 4.66,-1.73 1.3,-0.29 2.52,-0.42 3.61,-0.43zm30.3 -6.08c0.79,-0.62 1.57,-1.3 2.28,-2.03 0.33,-0.33 0.65,-0.7 0.96,-1.08 -0.38,1.15 -1.12,2.33 -2.08,3.57 -0.03,-0.01 -0.06,-0.02 -0.09,-0.04 -0.35,-0.14 -0.71,-0.28 -1.07,-0.42zm7.43 6.1c0.36,0.67 0.67,1.36 0.92,2.08 0.89,0.54 1.93,0.87 3.16,0.85 0.92,-0.01 2.05,-0.23 3.41,-0.8 -1.25,-0.71 -2.74,-1.28 -4.34,-1.66 -1.11,-0.27 -2.18,-0.42 -3.15,-0.47zm-18.87 26.92c-2.95,0 -6.72,0.67 -10.17,1.49 -0.89,0.21 -1.59,0.65 -2.11,1.23 -1.08,1.21 -1.43,3.11 -0.57,4.86 1,2.05 3.47,3.25 6.05,2.77 2.15,-0.41 4.64,-0.76 6.8,-0.76 2.15,0 4.64,0.35 6.79,0.76 2.58,0.48 5.05,-0.72 6.05,-2.77 0.86,-1.75 0.51,-3.65 -0.57,-4.86 -0.52,-0.58 -1.22,-1.02 -2.11,-1.23 -3.45,-0.82 -7.22,-1.49 -10.16,-1.49zm-6.38 8.08c0.46,0.34 1.02,0.54 1.63,0.54 1.52,0 2.75,-1.23 2.75,-2.75 0,-1.14 -0.35,-2.27 -1.04,-3.18 -0.69,-0.91 -1.84,-1.72 -3.34,-1.72 -1.5,0 -2.65,0.81 -3.34,1.72 -0.69,0.91 -1.04,2.04 -1.04,3.18 0,1.52 1.23,2.75 2.75,2.75 0.61,0 1.17,-0.2 1.63,-0.54zm1.12 -2.23c0,0 0,0 -0.01,0.01l0.01 -0.01zm10.86 2.23c0.46,0.34 1.02,0.54 1.63,0.54 1.52,0 2.75,-1.23 2.75,-2.75 0,-1.14 -0.35,-2.27 -1.04,-3.18 -0.69,-0.91 -1.84,-1.72 -3.34,-1.72 -1.5,0 -2.65,0.81 -3.34,1.72 -0.69,0.91 -1.04,2.04 -1.04,3.18 0,1.52 1.23,2.75 2.75,2.75 0.61,0 1.17,-0.2 1.63,-0.54zm1.11 -2.23c0,0 0,0 0,0.01l0 -0.01zm-2.22 0c0,0 0,0 0,0.01l0 -0.01z"/>
  </g>
 </g>
</svg>
