<?xml version="1.0" encoding="UTF-8"?>
<!DOCTYPE svg PUBLIC "-//W3C//DTD SVG 1.1//EN" "http://www.w3.org/Graphics/SVG/1.1/DTD/svg11.dtd">
<!-- Creator: CorelDRAW -->
<svg xmlns="http://www.w3.org/2000/svg" xml:space="preserve" width="2.0318mm" height="2.0318mm" version="1.1" style="shape-rendering:geometricPrecision; text-rendering:geometricPrecision; image-rendering:optimizeQuality; fill-rule:evenodd; clip-rule:evenodd"
viewBox="0 0 203.18 203.18"
 xmlns:xlink="http://www.w3.org/1999/xlink"
 xmlns:xodm="http://www.corel.com/coreldraw/odm/2003">
 <defs>
  <style type="text/css">
   <![CDATA[
    .fil0 {fill:black;fill-rule:nonzero}
   ]]>
  </style>
 </defs>
 <g id="????_x0020_1">
  <metadata id="CorelCorpID_0Corel-Layer"/>
  <g id="_105553314817504">
   <path class="fil0" d="M127.92 184.7c10.58,-4.53 25.86,3.41 35.11,-4.35 0.01,-0.01 0.01,-0.02 0.02,-0.03 3.24,-2.12 -5.14,-26.08 -7.14,-38.48 -1.52,-9.33 -1.66,-19.18 -4.56,-28.24 20.48,0.75 41.59,-1.03 49.24,-23.55 6.36,-18.75 -1.07,-40.84 -12.22,-56.1 -25.04,-34.28 -72.97,-38.85 -111.32,-30.13 -42.23,9.59 -78.6,47.38 -76.74,92 0.76,18.09 8.11,36.74 22.23,48.43 16.32,13.54 36.63,9.15 53.55,-0.3 0.56,-0.32 -0.01,-1.14 -0.58,-0.83 -11.44,6.4 -21.41,10.57 -34.7,7.51 -9.12,-2.1 -16.95,-7.84 -23.02,-14.75 -11.66,-13.27 -15.46,-32.56 -14.48,-49.72 2.33,-40.48 38.12,-69.59 74.68,-79.71 34.02,-9.43 75.24,-3.87 101.28,21.08 14.48,13.88 21.92,33.7 20.41,53.63 -2.03,26.75 -23.3,29.98 -48.79,30.97 0.8,-3.53 -22.94,-35.01 -15.59,-49.46 9.65,2.71 19.62,3.8 28.93,7.75 5.33,2.26 9.51,6.03 11.57,11.51 -10.92,4.59 -24.67,-10.36 -38.9,-7.66 -1.15,0.22 -1.06,2 0.14,1.83 13.89,-1.91 25.2,13.88 38.96,7.32 0.1,-0.05 0.61,17.67 -10.43,10.52 -0.38,-0.5 -1.16,-0.11 -0.97,0.5 1.3,4.07 4.57,4.8 8.12,2.81 4.46,-2.51 6.56,-9.59 5.44,-14.32 -4.13,-17.53 -28.49,-18.98 -42.72,-22.28 -11.58,2.1 3.68,32.15 8.76,42.53 5.12,10.41 6.79,20.21 8.07,31.76 1.69,15.23 7.37,29.35 9.31,44.46 -7.17,3.97 -28.6,1.39 -32.73,2.02 -4.13,0.63 -12.01,5.58 -17.12,8.72 -7.69,4.74 -14.97,8.26 -23.87,9.54 1.01,-11.63 0.8,-23.11 -1.52,-34.62 -2.51,-12.5 -7.47,-24.43 -11.05,-36.64 -2.9,-9.92 -2.58,-41.63 -21.8,-28.88 -11.47,7.62 -8.16,23.83 -4.63,34.47 3.18,9.61 9.89,14.32 15.92,4.11 0.78,-1.32 -1.33,-2.3 -2.12,-1.03 -3.4,5.47 -9.05,3.84 -7.81,0.54 3.26,-3.35 3.1,-10.2 3.57,-14.54 0.77,-7.11 1.73,-14.67 9.8,-16.18 0.24,0.58 1.1,6.18 1.25,8.35 0.9,12.39 6.63,24.87 10.39,36.56 5.17,16.13 4.62,51.6 6.67,51.36 16.22,-1.81 26.89,-12.28 41.39,-18.48zm-70.42 -70.08c-1.21,3.72 -1.46,7.76 -1.92,11.62 -0.43,3.52 -1.61,6.66 -2.37,10.03 -2.53,-5.06 -4.1,-12.81 -4.5,-15.39 -0.75,-4.87 -0.05,-8.65 2.05,-13.28 3.19,-7.05 13.68,-7.77 17.15,-1.49 -5.52,-0.06 -8.66,3.2 -10.41,8.51z"/>
   <path class="fil0" d="M141.64 160.39c-3.88,-23.42 -13.69,-45.8 -18.61,-69.07 -0.15,-0.72 -1.3,-0.66 -1.15,0.09 4.56,23.22 10.79,46.83 18.02,69.36 0.31,0.96 1.92,0.64 1.74,-0.38z"/>
   <path class="fil0" d="M130.92 158.7c0.31,0.89 1.66,0.58 1.6,-0.34 -0.92,-13.05 -7.71,-25.84 -11.24,-38.36 -0.27,-0.97 -1.65,-0.42 -1.44,0.52 2.83,12.74 6.89,25.83 11.08,38.18z"/>
   <path class="fil0" d="M96.25 94.74c-0.02,13.01 5.24,26.83 9.11,39.05 1.83,5.81 5.31,24.92 12.33,27.28 1.03,0.36 2.08,-0.89 1.12,-1.7 -6.54,-5.52 -9.2,-20.99 -11.67,-28.68 -3.78,-11.81 -7.54,-23.85 -10,-36.01 -0.11,-0.57 -0.89,-0.53 -0.89,0.06z"/>
   <path class="fil0" d="M138.35 24.81c-18.05,-8.78 -37.15,-15.74 -56.45,-6.53 -8.34,3.98 -15.35,10.57 -23.18,15.43 -9.62,5.97 -21.28,6.37 -30.91,12.4 -1.38,0.87 0.06,2.97 1.44,2.1 8.71,-5.46 18.77,-6.38 27.91,-10.75 6.55,-3.13 12.27,-7.99 18.16,-12.18 20.28,-14.39 41.27,-8.22 61.91,1.82 1.48,0.71 2.59,-1.58 1.12,-2.29z"/>
   <path class="fil0" d="M36.34 57.54c11.29,-3.41 21.51,-8.57 31.51,-14.75 10.41,-6.43 18.24,-16.51 31.49,-16.22 1.63,0.04 1.43,-2.49 -0.2,-2.53 -10.37,-0.23 -17.46,5.22 -25.28,11.41 -11.26,8.94 -24.67,15.56 -38.38,19.69 -1.57,0.48 -0.71,2.87 0.86,2.4z"/>
  </g>
 </g>
</svg>
