<?xml version="1.0" encoding="UTF-8"?>
<!DOCTYPE svg PUBLIC "-//W3C//DTD SVG 1.1//EN" "http://www.w3.org/Graphics/SVG/1.1/DTD/svg11.dtd">
<!-- Creator: CorelDRAW -->
<svg xmlns="http://www.w3.org/2000/svg" xml:space="preserve" width="2.0318mm" height="2.0318mm" version="1.1" style="shape-rendering:geometricPrecision; text-rendering:geometricPrecision; image-rendering:optimizeQuality; fill-rule:evenodd; clip-rule:evenodd"
viewBox="0 0 203.18 203.18"
 xmlns:xlink="http://www.w3.org/1999/xlink"
 xmlns:xodm="http://www.corel.com/coreldraw/odm/2003">
 <defs>
  <style type="text/css">
   <![CDATA[
    .fil0 {fill:black;fill-rule:nonzero}
   ]]>
  </style>
 </defs>
 <g id="????_x0020_1">
  <metadata id="CorelCorpID_0Corel-Layer"/>
  <path class="fil0" d="M200.91 140.63l-12.06 -4.13c-1.59,-0.63 -3.5,0.32 -4.13,1.91 -0.64,1.59 -1.59,2.86 -2.86,4.13 -3.17,2.85 -5.39,6.66 -5.71,11.1 -0.32,3.81 -2.54,6.99 -6.03,8.26 -3.81,1.58 -6.98,4.76 -8.57,8.57 -1.27,3.49 -4.44,5.71 -8.25,6.03 -4.13,0.32 -8.26,2.22 -11.11,5.71 -0.32,0.32 -0.64,0.64 -1.27,0.95l-1.27 -4.12c7.62,-0.95 13.65,-7.62 13.65,-15.56 0,-8.88 -6.99,-15.87 -15.87,-15.87 -2.86,0 -5.4,0.64 -7.62,1.91l-9.21 -28.89 53.33 17.78c1.58,0.63 3.49,-0.32 4.12,-1.91 0.64,-1.58 -0.31,-3.49 -1.9,-4.12l-59.36 -19.68c-1.26,-0.32 -2.53,0 -3.17,0.63 -0.95,0.96 -1.27,2.23 -0.63,3.18l24.12 72.37 4.13 12.06c0.31,1.27 1.58,2.22 2.85,2.22 0.32,0 0.64,0 0.95,-0.32 27.3,-9.2 49.2,-30.79 58.09,-58.08 0.32,-1.59 -0.64,-3.49 -2.22,-4.13zm-63.17 13.01c5.4,0 9.53,4.13 9.53,9.53 0,5.08 -4.13,9.52 -9.21,9.52l-5.71 -17.14c1.58,-1.27 3.49,-1.91 5.39,-1.91zm7.94 42.22l-2.22 -6.35c1.58,-0.95 2.85,-1.9 3.81,-3.17 1.58,-1.91 4.12,-3.18 6.66,-3.49 6.03,-0.64 11.43,-4.13 13.65,-9.84 0.95,-2.23 2.86,-4.45 5.4,-5.4 5.71,-2.22 9.52,-7.62 9.84,-13.65 0.31,-2.54 1.26,-5.08 3.49,-6.66 1.27,-0.96 2.22,-2.54 3.17,-3.81l6.35 2.22c-8.57,23.17 -26.98,41.58 -50.15,50.15zm-11.43 -65.7l3.18 6.34c0.63,1.59 0,3.5 -1.27,4.13 -0.32,0.32 -0.96,0.32 -1.27,0.32 -1.27,0 -2.22,-0.64 -2.86,-1.91l-3.17 -6.34c-0.64,-1.59 0,-3.5 1.27,-4.13 1.58,-0.64 3.49,0 4.12,1.59zm22.54 9.84c1.59,0.63 2.22,2.54 1.27,4.12 -0.32,1.27 -1.27,1.91 -2.54,1.91 -0.64,0 -0.95,0 -1.27,-0.32l-6.35 -3.17c-1.59,-0.64 -2.22,-2.54 -1.27,-4.13 0.95,-1.59 2.54,-2.22 4.13,-1.27l6.03 2.86zm12.69 6.34c1.59,0.64 2.23,2.54 1.27,4.13l-3.17 6.35c-0.32,1.27 -1.27,1.9 -2.54,1.9 -0.63,0 -0.95,0 -1.27,-0.31 -1.59,-0.64 -2.22,-2.54 -1.27,-4.13l3.18 -6.35c0.63,-1.59 2.53,-2.22 3.8,-1.59zm-46.34 28.89c0.32,0.95 0.32,1.59 -0.31,2.54 -0.32,0.63 -0.96,1.27 -1.91,1.58 -9.52,3.18 -19.36,4.77 -29.2,4.77 -50.47,0 -91.73,-41.27 -91.73,-92.05 0,-50.79 41.26,-92.05 92.05,-92.05 50.78,0 92.04,41.26 92.04,92.05 0,9.84 -1.58,19.68 -4.76,29.2 -0.31,0.95 -0.95,1.59 -1.58,1.9 -0.64,0.32 -1.59,0.32 -2.54,0.32l-72.37 -24.12c-1.27,-0.32 -2.54,0 -3.17,0.63 -0.96,0.96 -1.27,2.22 -0.64,3.18l16.19 48.24c0.63,1.59 -0.32,3.49 -1.91,4.13 -1.58,0.63 -3.49,-0.32 -4.12,-1.91l-16.19 -48.24c-0.95,-3.81 -0.32,-7.62 2.22,-10.16 2.54,-2.54 6.35,-3.49 9.84,-2.22l2.54 0.95c0.32,-1.58 0.32,-3.49 -0.32,-5.08 -1.27,-3.17 -3.81,-5.71 -6.98,-6.03 -2.86,-0.63 -5.71,0.32 -7.94,1.91 -2.22,1.9 -3.49,4.44 -3.49,7.3 0,1.9 -1.27,3.17 -3.17,3.17 -1.91,0 -3.17,-1.27 -3.17,-3.17 0,-4.76 2.22,-9.21 5.71,-12.06 3.49,-3.18 8.57,-4.13 13.01,-3.5 5.4,0.96 10.16,5.08 12.06,10.16 0.96,3.18 1.27,6.03 0.32,9.21l60.63 20.31c2.22,-7.93 3.49,-15.87 3.49,-24.12 0,-47.3 -38.41,-85.7 -85.7,-85.7 -47.3,0 -85.7,38.4 -85.7,85.7 0,47.29 38.4,85.7 85.7,85.7 8.25,0 16.19,-1.27 24.12,-3.49l-2.22 -6.35c-2.22,0.32 -4.13,0.32 -6.35,-0.32 -2.54,-0.63 -5.08,-0.32 -7.3,1.27 -5.08,3.17 -11.74,3.17 -16.82,0 -2.22,-1.27 -4.76,-1.9 -7.3,-1.27 -6.03,1.27 -12.06,-0.63 -15.87,-5.08 -1.59,-1.9 -4.13,-3.17 -6.67,-3.49 -6.03,-0.63 -11.43,-4.13 -13.65,-9.84 -0.95,-2.22 -2.85,-4.44 -5.39,-5.4 -5.72,-2.22 -9.53,-7.61 -9.84,-13.64 -0.32,-2.54 -1.27,-5.08 -3.49,-6.67 -4.77,-3.81 -6.67,-10.16 -5.08,-15.87 0.63,-2.54 0.31,-5.08 -1.27,-7.3 -3.18,-5.08 -3.18,-11.74 0,-16.82 1.27,-2.22 1.9,-4.76 1.27,-7.3 -1.27,-6.03 0.63,-12.06 5.08,-15.87 1.9,-1.59 3.17,-4.13 3.49,-6.67 0.63,-6.03 4.12,-11.43 9.84,-13.65 2.22,-0.95 4.44,-2.85 5.39,-5.39 2.22,-5.72 7.62,-9.53 13.65,-9.84 2.54,-0.32 5.08,-1.27 6.67,-3.49 3.81,-4.77 10.15,-6.67 15.87,-5.08 2.54,0.63 5.08,0.31 7.3,-1.27 5.08,-3.18 11.74,-3.18 16.82,0 2.22,1.27 4.76,1.9 7.3,1.27 6.03,-1.27 12.06,0.63 15.87,5.08 1.59,1.9 4.13,3.17 6.67,3.49 6.03,0.63 11.42,4.12 13.64,9.84 0.96,2.22 2.86,4.44 5.4,5.39 5.71,2.22 9.52,7.62 9.84,13.65 0.32,2.54 1.27,5.08 3.49,6.67 4.76,3.81 6.67,10.15 5.08,15.87 -0.63,2.54 -0.32,5.08 1.27,7.3 3.17,5.08 3.17,11.74 0,16.82 -0.95,1.59 -2.86,1.9 -4.44,0.95 -1.59,-0.95 -1.91,-2.85 -0.96,-4.44 1.91,-3.18 1.91,-6.98 0,-10.16 -2.22,-3.81 -2.85,-7.93 -1.9,-12.06 0.95,-3.49 -0.32,-7.3 -3.17,-9.84 -3.18,-2.86 -5.4,-6.66 -5.72,-11.11 -0.32,-3.81 -2.54,-6.98 -6.03,-8.25 -3.81,-1.59 -6.98,-4.76 -8.57,-8.57 -1.27,-3.49 -4.44,-5.71 -8.25,-6.03 -4.13,-0.32 -8.25,-2.22 -11.11,-5.72 -2.54,-2.85 -6.03,-4.12 -9.84,-3.17 -4.13,0.95 -8.57,0.32 -12.06,-1.9 -3.18,-1.91 -6.98,-1.91 -10.16,0 -3.81,2.22 -7.93,2.85 -12.06,1.9 -3.49,-0.95 -7.3,0.32 -9.84,3.17 -2.86,3.18 -6.67,5.4 -11.11,5.72 -3.81,0.32 -6.98,2.54 -8.25,6.03 -1.59,3.81 -4.76,6.98 -8.57,8.57 -3.49,1.27 -5.71,4.44 -6.03,8.25 -0.32,4.13 -2.22,8.25 -5.72,11.11 -2.85,2.54 -4.12,6.03 -3.17,9.84 0.95,4.13 0.32,8.57 -1.9,12.06 -1.91,3.18 -1.91,6.98 0,10.16 2.22,3.81 2.85,7.93 1.9,12.06 -0.95,3.49 0.32,7.3 3.17,9.84 3.18,2.86 5.4,6.67 5.72,11.11 0.32,3.81 2.54,6.98 6.03,8.25 3.81,1.59 6.98,4.76 8.57,8.57 1.27,3.49 4.44,5.71 8.25,6.03 4.13,0.32 8.25,2.22 11.11,5.72 2.54,2.85 6.03,4.12 9.84,3.17 4.13,-0.95 8.57,-0.32 12.06,1.9 3.18,1.91 6.98,1.91 10.16,0 3.81,-2.22 7.93,-2.85 12.06,-1.9 1.9,0.32 3.81,0.32 5.71,-0.32 0.96,-0.31 1.59,-0.31 2.54,0 0.64,0.32 1.27,0.95 1.59,1.91l4.44 12.06zm-5.71 -137.12c-7.94,0 -15.87,4.44 -15.87,12.69l0 3.18c0,1.9 1.27,3.17 3.17,3.17l3.18 0 0 3.18c0,5.39 4.12,9.52 9.52,9.52 5.4,0 9.52,-4.13 9.52,-9.52l0 -3.18 3.18 0c1.9,0 3.17,-1.27 3.17,-3.17l0 -3.18c0,-8.25 -7.93,-12.69 -15.87,-12.69zm6.35 12.69c-1.91,0 -3.18,1.27 -3.18,3.18l0 6.35c0,1.9 -1.27,3.17 -3.17,3.17 -1.9,0 -3.17,-1.27 -3.17,-3.17l0 -6.35c0,-1.91 -1.27,-3.18 -3.18,-3.18l-3.17 0c0,-5.07 6.35,-6.34 9.52,-6.34 3.17,0 9.52,1.27 9.52,6.34l-3.17 0zm-85.7 22.22l0 3.18c0,1.9 1.27,3.17 3.17,3.17l3.18 0 0 3.18c0,5.39 4.12,9.52 9.52,9.52 5.39,0 9.52,-4.13 9.52,-9.52l0 -3.18 3.18 0c1.9,0 3.17,-1.27 3.17,-3.17l0 -3.18c0,-8.25 -7.94,-12.69 -15.87,-12.69 -7.94,0 -15.87,4.44 -15.87,12.69zm15.87 -6.34c3.17,0 9.52,1.26 9.52,6.34l-3.17 0c-1.91,0 -3.18,1.27 -3.18,3.18l0 6.35c0,1.9 -1.27,3.17 -3.17,3.17 -1.91,0 -3.18,-1.27 -3.18,-3.17l0 -6.35c0,-1.91 -1.26,-3.18 -3.17,-3.18l-3.17 0c0,-5.08 6.34,-6.34 9.52,-6.34zm25.39 88.87c5.4,0 9.52,-4.13 9.52,-9.52l0 -3.18 3.18 0c1.9,0 3.17,-1.27 3.17,-3.17l0 -3.18c0,-8.25 -7.93,-12.69 -15.87,-12.69 -7.93,0 -15.87,4.44 -15.87,12.69l0 3.18c0,1.9 1.27,3.17 3.18,3.17l3.17 0 0 3.18c0,5.39 4.13,9.52 9.52,9.52zm0 -25.39c3.18,0 9.52,1.27 9.52,6.34l-3.17 0c-1.91,0 -3.17,1.27 -3.17,3.18l0 6.35c0,1.9 -1.27,3.17 -3.18,3.17 -1.9,0 -3.17,-1.27 -3.17,-3.17l0 -6.35c0,-1.91 -1.27,-3.18 -3.18,-3.18l-3.17 0c0,-5.07 6.35,-6.34 9.52,-6.34zm0 -98.4c-8.89,0 -15.87,6.98 -15.87,15.87 0,8.89 6.98,15.87 15.87,15.87 8.89,0 15.87,-6.98 15.87,-15.87 0,-8.89 -6.98,-15.87 -15.87,-15.87zm0 25.39c-5.39,0 -9.52,-4.12 -9.52,-9.52 0,-5.4 4.13,-9.52 9.52,-9.52 5.4,0 9.52,4.12 9.52,9.52 0,5.4 -4.12,9.52 -9.52,9.52zm47.61 22.22c0,8.89 6.98,15.87 15.87,15.87 8.89,0 15.87,-6.98 15.87,-15.87 0,-8.89 -6.98,-15.87 -15.87,-15.87 -8.89,0 -15.87,6.98 -15.87,15.87zm15.87 -9.52c5.4,0 9.52,4.13 9.52,9.52 0,5.4 -4.12,9.52 -9.52,9.52 -5.39,0 -9.52,-4.12 -9.52,-9.52 0,-5.39 4.13,-9.52 9.52,-9.52zm-76.17 44.44c0,-8.89 -6.99,-15.87 -15.88,-15.87 -8.88,0 -15.87,6.98 -15.87,15.87 0,8.88 6.99,15.87 15.87,15.87 8.89,0 15.88,-6.99 15.88,-15.87zm-15.88 9.52c-5.39,0 -9.52,-4.13 -9.52,-9.52 0,-5.4 4.13,-9.53 9.52,-9.53 5.4,0 9.53,4.13 9.53,9.53 0,5.39 -4.13,9.52 -9.53,9.52zm25.4 -22.22c-0.64,0 -0.96,0 -1.27,-0.32l-6.35 -3.17c-1.59,-0.64 -2.22,-2.54 -1.27,-4.13 0.63,-1.58 2.54,-2.22 4.13,-1.27l6.34 3.18c1.59,0.63 2.23,2.54 1.27,4.12 -0.63,0.96 -1.58,1.59 -2.85,1.59zm0.31 14.6l3.18 -6.35c0.63,-1.58 2.54,-2.22 4.12,-1.27 1.59,0.64 2.23,2.54 1.27,4.13l-3.17 6.35c-0.32,0.95 -1.27,1.58 -2.54,1.58 -0.63,0 -0.95,0 -1.27,-0.31 -1.59,-0.96 -2.22,-2.86 -1.59,-4.13zm-18.09 23.81c1.59,0.63 2.22,2.54 1.27,4.12 -0.32,1.27 -1.27,1.91 -2.54,1.91 -0.63,0 -0.95,0 -1.27,-0.32l-6.34 -3.17c-1.59,-0.64 -2.23,-2.54 -1.27,-4.13 0.63,-1.59 2.53,-2.22 4.12,-1.27l6.03 2.86zm-20.63 -49.84l-3.17 6.35c-0.64,1.27 -1.59,1.91 -2.86,1.91 -0.63,0 -0.95,0 -1.27,-0.32 -1.59,-0.64 -2.22,-2.54 -1.27,-4.13l3.18 -6.35c0.63,-1.58 2.53,-2.22 4.12,-1.27 1.27,0.64 1.91,2.54 1.27,3.81zm13.33 -38.09l-3.17 -6.34c-0.64,-1.59 0,-3.5 1.27,-4.13 1.58,-0.63 3.49,0 4.12,1.27l3.18 6.35c0.63,1.58 0,3.49 -1.27,4.12 -0.32,0.64 -0.64,0.64 -1.27,0.64 -1.27,0 -2.22,-0.64 -2.86,-1.91zm35.87 20.64l-6.35 3.17c-0.32,0.32 -0.63,0.32 -1.27,0.32 -1.27,0 -2.22,-0.64 -2.86,-1.91 -0.63,-1.58 0,-3.49 1.27,-4.12l6.35 -3.18c1.59,-0.63 3.49,0 4.13,1.27 0.63,1.27 0.32,3.49 -1.27,4.45zm17.46 -39.68c-0.64,1.27 -1.59,1.9 -2.86,1.9 -0.64,0 -0.95,0 -1.27,-0.31l-6.35 -3.18c-1.59,-0.63 -2.22,-2.54 -1.27,-4.12 0.95,-1.59 2.54,-2.23 4.13,-1.27l6.35 3.17c1.27,0.64 1.9,2.54 1.27,3.81zm15.87 45.07l3.17 6.35c0.64,1.59 0,3.49 -1.27,4.13 -0.63,0.31 -0.95,0.31 -1.59,0.31 -1.27,0 -2.22,-0.63 -2.85,-1.9l-3.18 -6.35c-0.63,-1.59 0,-3.49 1.27,-4.13 1.59,-0.63 3.49,0 4.45,1.59z"/>
 </g>
</svg>
