<svg xmlns="http://www.w3.org/2000/svg" width="100" height="100" viewBox="0 0 10000 10000"
     style="image-rendering:optimizeQuality;shape-rendering:geometricPrecision;text-rendering:geometricPrecision">
    <defs>
        <style type="text/css">
            .fil0 {fill:black;fill-rule:nonzero}
        </style>
    </defs>
    <path class="fil0"
          d="M6705.9 2080.4l-533.5 0c-1424.9 0-2794.4 594.9-3749 1646.2l0 0c-359.6 387.4-774.7 747-1217.4 1051.3l-373.5 262.9c-401.2 262.8-636.3 719.3-636.3 1189.7l0 954.5c0 387.3 318.2 705.5 705.5 705.5l470.3 0c0-982.2 802.3-1784.5 1784.6-1784.5 982.2 0 1784.5 802.4 1784.5 1784.5l2618.7 0 0-3306.3-1401.4 0 0-1355.6 930.3 0-1.4-1.6-1.1-1.3-0.3-0.3-1.4-1.6-1.3-1.6-1.3-1.5-0.1-0.1-1.3-1.6-1.4-1.6-1.4-1.6 0 0-1.3-1.6-1.4-1.6-1.3-1.7-0.2-0.2-1.2-1.4-1.4-1.6-1.3-1.7-0.3-0.4-1-1.2-1.3-1.7-1.3-1.7-0.5-0.6-0.9-1.1-1.3-1.7-1.3-1.7-0.6-0.8-0.7-0.9-1.3-1.7-1.3-1.7-0.8-1-0.5-0.7-1.3-1.7-1.3-1.7-0.9-1.2-0.4-0.5-1.3-1.7-1.3-1.7-1.1-1.3-0.3-0.4-1.3-1.7-1.3-1.7-1.2-1.5-0.1-0.2-1.3-1.7-1.3-1.7-1.3-1.7 0 0-1.3-1.7-1.3-1.7-1.3-1.7-0.2-0.2-1.1-1.5-1.3-1.7-1.3-1.7-0.3-0.4-1-1.3-1.3-1.7-1.3-1.7-0.5-0.6-0.8-1.1-1.3-1.7-1.3-1.7-0.6-0.8-0.7-1-1.3-1.7-2-2.7-0.6-0.8-1.3-1.8-1.3-1.8-0.9-1.2-0.4-0.6-1.3-1.8-1.3-1.8-1-1.4-0.3-0.4-1.3-1.8-1.3-1.8-1.1-1.6-0.1-0.2-1.3-1.8-1.3-1.8-1.3-1.8c-185.4-251.1-284.7-555-299.4-863.2l-0.6-13.7 0-0.9-0.1-1.8-0.1-2.7-0.3-8.2-0.1-1.9 0-0.9-0.1-2.7-0.1-2.7-0.1-5.5-0.1-2.7 0-0.1-0.1-2.7-0.2-10.7 0-0.2 0-1 0-1.7-0.1-8.2 0-2.7 0-1.9 0-14.5 0-0.1 0.1-8.1 0-2.8 0-2.7 0-1 0-1.7 0.1-2.7 0-2.7 0-2.7 0.1-2.8 0-2 0-0.8 0.1-2.7 0.1-2.7 0.2-8.2 0-0.2 0.1-2.6 0.4-12.1 0.1-1.6 0.1-2.7 0.1-2.7 0.1-2.7 0.1-2.7 0.1-2 0-0.7 0-0.4 0.3-5.1 0.1-2.7 0.3-5.5zm-1695.6 2503.9l-1812.2 0 69.2-83c470.4-525.7 1079-899.1 1743.1-1092.8l0 1175.8zm-636.3 3306.3c0-672.3-545-1217.4-1217.4-1217.4-672.4 0-1217.4 545.1-1217.4 1217.4 0 672.3 545 1217.4 1217.4 1217.4 672.3 0 1217.4-545 1217.4-1217.4zm5229.4-6437c-72-118.1-154.3-221.6-244.4-311.7-94.8-94.7-197.2-173.8-304.6-238.6-5.8-2.4-11.9-3.5-17.8-3.5-6.4 0-12.1 1.4-16.4 4-3.9 2.3-7.2 5.7-9.2 9.7l0.3 0.2c-2.1 4.2-3.3 9.7-3.3 16.3l0 1104.9c0 111.4-44.8 212-117.6 284.7l-0.4 0.4c-72.8 72.8-173.3 117.6-284.7 117.6l-507.4 0c-111.2 0-211.8-44.8-284.7-117.6l-0.4-0.4c-72.8-73-117.6-173.5-117.6-284.7l0-1104.9c0-5.7-1.2-10.3-3.1-13.9-2.9-4.7-7.1-8.7-12.1-11.5-5.6-3.1-11.8-4.8-18.1-4.8-4.5 0-8.6 0.9-11.8 2.7l-3.1 1.5c-111.6 58.5-215.4 133.4-309.9 226.1-91.9 90.2-175.1 197.3-248.1 322.5-138.1 239-201.3 518.7-188.2 794.2 12.9 270.8 99.5 536.9 261 755.7l1.5 2.3c73.8 105.5 158.2 195.1 249.1 271.5 90.9 76.5 189.5 140.3 291.4 193.9l52.6 27.7 0 4963.6c0 164.5 67.9 314.7 177 423.8 109.1 109.1 259.2 177 423.8 177 164.6 0 314.7-67.9 423.8-177 109.1-109.1 177-259.2 177-423.8l0-4953.5 54.5-27.2c107.4-53.7 209.7-121.3 303.8-202.8 89.9-77.8 172.1-167.9 244.1-270.4 148.5-228 227.8-498.9 235.2-772.4 7.4-271.4-55.8-545-192.2-781.6zm0 0c-72-118.1-154.3-221.6-244.4-311.7-94.8-94.7-197.2-173.8-304.6-238.6-5.8-2.4-11.9-3.5-17.8-3.5-6.4 0-12.1 1.4-16.4 4-3.9 2.3-7.2 5.7-9.2 9.7l0.3 0.2c-2.1 4.2-3.3 9.7-3.3 16.3l0 1104.9c0 111.4-44.8 212-117.6 284.7l-0.4 0.4c-72.8 72.8-173.3 117.6-284.7 117.6l-507.4 0c-111.2 0-211.8-44.8-284.7-117.6l-0.4-0.4c-72.8-73-117.6-173.5-117.6-284.7l0-1104.9c0-5.7-1.2-10.3-3.1-13.9-2.9-4.7-7.1-8.7-12.1-11.5-5.6-3.1-11.8-4.8-18.1-4.8-4.5 0-8.6 0.9-11.8 2.7l-3.1 1.5c-111.6 58.5-215.4 133.4-309.9 226.1-91.9 90.2-175.1 197.3-248.1 322.5-138.1 239-201.3 518.7-188.2 794.2 12.9 270.8 99.5 536.9 261 755.7l1.5 2.3c73.8 105.5 158.2 195.1 249.1 271.5 90.9 76.5 189.5 140.3 291.4 193.9l52.6 27.7 0 4963.6c0 164.5 67.9 314.7 177 423.8 109.1 109.1 259.2 177 423.8 177 164.6 0 314.7-67.9 423.8-177 109.1-109.1 177-259.2 177-423.8l0-4953.5 54.5-27.2c107.4-53.7 209.7-121.3 303.8-202.8 89.9-77.8 172.1-167.9 244.1-270.4 148.5-228 227.8-498.9 235.2-772.4 7.4-271.4-55.8-545-192.2-781.6z"/>
</svg>
