<?xml version="1.0" encoding="UTF-8"?>
<!DOCTYPE svg PUBLIC "-//W3C//DTD SVG 1.1//EN" "http://www.w3.org/Graphics/SVG/1.1/DTD/svg11.dtd">
<!-- Creator: CorelDRAW -->
<svg xmlns="http://www.w3.org/2000/svg" xml:space="preserve" width="2.0318mm" height="2.0318mm" version="1.1" style="shape-rendering:geometricPrecision; text-rendering:geometricPrecision; image-rendering:optimizeQuality; fill-rule:evenodd; clip-rule:evenodd"
viewBox="0 0 203.18 203.18"
 xmlns:xlink="http://www.w3.org/1999/xlink"
 xmlns:xodm="http://www.corel.com/coreldraw/odm/2003">
 <defs>
  <style type="text/css">
   <![CDATA[
    .fil0 {fill:black;fill-rule:nonzero}
   ]]>
  </style>
 </defs>
 <g id="????_x0020_1">
  <metadata id="CorelCorpID_0Corel-Layer"/>
  <g id="_105553311853376">
   <path class="fil0" d="M177.72 68.75c-5.6,1.67 -11.27,3.22 -16.57,5.75 -2.63,1.25 -5.08,2.8 -7.24,4.76 -2.36,2.13 -4.15,4.93 -5.84,7.58 -1.77,2.8 -3.39,5.67 -5.28,8.37 -1.94,2.77 -4.32,5.08 -6.84,7.34 -4.54,4.02 -9.43,7.68 -14.8,10.55 -10.75,5.69 -23.42,6.92 -35.2,4.08 -11.9,-2.88 -22.67,-10.09 -30.01,-19.91 -2.13,-2.87 -3.39,-5.89 -4.66,-9.23 -1.28,-3.31 -2.58,-6.82 -4.98,-9.52 -1.31,-1.47 -3,-2.06 -4.77,-2.77 -2.7,-1.08 -5.39,-2.14 -8.09,-3.22 -5.4,-2.13 -10.78,-4.29 -16.18,-6.43 -1.32,-0.51 -2.65,1.04 -2.26,2.26 4.62,14.78 9.65,29.43 13.58,44.42 1.96,7.49 3.6,15.05 4.78,22.68 1.2,7.88 1.82,15.85 2.43,23.8 0.57,7.12 1.03,14.29 1.77,21.38 0.56,5.4 1.84,10.72 5.86,14.65 2.24,2.16 5.16,3.83 8.18,4.47 3.04,0.64 6.18,0.12 9.13,-0.81 3.04,-0.96 5.94,-2.41 8.9,-3.56 3.39,-1.3 6.93,-1.99 10.51,-2.33 11.53,-1.13 22.97,1.45 34.23,3.58 11.42,2.16 22.83,4.34 34.26,6.5 1.26,0.25 2.21,-0.51 2.34,-1.76 0.24,-2.24 1.49,-4.03 3.48,-5.06 1.99,-1.03 4.05,-1.54 5.79,-2.99 0.08,-0.05 0.15,-0.1 0.2,-0.17 0.07,-0.05 0.12,-0.13 0.17,-0.18 3.09,-3.14 3.93,-8.07 4.47,-12.24 0.66,-5.03 0.71,-10.09 0.88,-15.14 0.22,-6.41 1.13,-12.82 1.72,-19.2 0.73,-7.9 1.4,-15.83 2.16,-23.73 1.69,-17.47 4.12,-35.02 10.06,-51.63 0.56,-1.35 -0.91,-2.68 -2.18,-2.29zm-10.68 46.12c-0.86,7.73 -1.52,15.48 -2.21,23.21 -0.71,7.83 -1.57,15.64 -2.28,23.44 -0.47,5.13 -0.3,10.31 -0.71,15.44 -0.22,2.72 -0.57,5.45 -1.25,8.1 -0.52,1.98 -1.28,4.07 -2.7,5.45 -1.82,1.61 -4.45,1.93 -6.46,3.31 -1.89,1.3 -3.09,3.24 -3.68,5.37 -15.24,-2.87 -30.46,-6.01 -45.74,-8.59 -7.83,-1.32 -15.79,-2.01 -23.69,-1.03 -3.58,0.44 -6.97,1.23 -10.33,2.55 -2.97,1.16 -5.84,2.56 -8.88,3.49 -2.9,0.88 -5.77,1.03 -8.64,-0.05 -2.53,-0.96 -4.84,-2.94 -6.31,-5.18 -2.9,-4.39 -2.92,-10.11 -3.36,-15.16 -1.33,-15.74 -2.06,-31.59 -4.96,-47.15 -3.63,-19.46 -10.14,-38.23 -16.1,-57.08 6.36,2.53 12.71,5.05 19.07,7.58 1.35,0.54 2.87,0.96 4.1,1.74 0.69,0.45 1.3,1.3 1.77,2.04 1.32,2.04 2.2,4.37 3.06,6.63 0.89,2.28 1.7,4.59 2.83,6.77 1.3,2.5 3.24,4.76 5.05,6.9 4.03,4.71 8.93,8.68 14.26,11.85 10.95,6.48 23.83,8.91 36.4,7.22 12.14,-1.65 22.62,-8.2 31.73,-16.1 1.84,-1.6 3.65,-3.22 5.25,-5.03 1.69,-1.92 3.14,-4.05 4.52,-6.19 2.55,-4.02 4.73,-8.42 8.07,-11.88 2.9,-3.02 6.87,-4.88 10.72,-6.35 2.88,-1.11 5.82,-1.99 8.77,-2.85 -4.45,13.45 -6.7,27.49 -8.3,41.55z"/>
   <path class="fil0" d="M39.2 93.62c-0.49,-3.91 -0.95,-7.78 -1.45,-11.69 -0.12,-1 -0.73,-1.84 -1.84,-1.84 -0.9,0 -1.96,0.84 -1.84,1.84 3.78,30.78 7.54,61.65 15.61,91.67 1.11,4.09 2.28,8.17 3.56,12.22 0.71,2.26 4.27,1.3 3.56,-0.98 -9.25,-29.67 -13.74,-60.47 -17.6,-91.22z"/>
   <path class="fil0" d="M160.17 86.99c0.42,31.68 -7.29,62.63 -14.19,93.33 -0.68,3.07 -1.37,6.11 -2.03,9.18 -0.49,2.31 3.04,3.29 3.56,0.98 6.67,-30.77 14.92,-61.5 16.19,-93.13 0.15,-3.46 0.17,-6.93 0.13,-10.36 0,-2.36 -3.69,-2.36 -3.66,0z"/>
   <path class="fil0" d="M26.71 66.64c3.22,2.43 7.27,3.73 11.07,4.96 1.32,0.42 2.65,-0.96 2.26,-2.26 -3.24,-10.75 -10.73,-19.8 -12.86,-30.94 -0.15,-0.79 -1.01,-1.38 -1.77,-1.35 -2.45,0.1 -4.88,-0.35 -7.31,0 -2.75,0.37 -4.37,2.62 -5.28,5.05 -2.28,6.09 3.58,11.1 6.48,15.76 2.01,3.31 4.27,6.4 7.41,8.78zm-10.58 -22.89c0.25,-0.91 0.62,-1.79 1.28,-2.48 0.39,-0.42 1.08,-0.62 1.6,-0.66 1.61,-0.18 3.26,0.02 4.9,0.09 2.19,9.35 7.95,17.31 11.39,26.19 -2.21,-0.81 -4.37,-1.77 -6.33,-3.12 -2.82,-1.94 -4.79,-4.91 -6.53,-7.78 -1.28,-2.06 -2.87,-3.9 -4.22,-5.89 -1.23,-1.81 -2.75,-4.1 -2.09,-6.35z"/>
   <path class="fil0" d="M51.15 48.21c-1.59,-2.65 -3.77,-5.54 -7.06,-5.89 -3.78,-0.39 -6.24,4.05 -7.51,6.9 -0.03,0.07 -0.08,0.15 -0.1,0.22 -0.03,0.07 -0.07,0.15 -0.1,0.2 -0.54,1.35 0.34,3.41 0.76,4.68 0.93,2.83 2.11,5.55 3.29,8.27 3.26,7.51 7.02,14.83 11.12,21.9 3.26,5.59 6.8,11.14 11.04,16.05 2.6,3.01 6.33,6.99 10.68,6.97 1.42,0 2.25,-1.55 1.59,-2.78 -6.38,-11.51 -11.48,-23.51 -15.58,-36.02 -2.31,-6.9 -4.35,-14.16 -8.13,-20.5zm17.26 53.11c-2.48,-2.18 -4.57,-4.81 -6.46,-7.39 -4.98,-6.79 -9.13,-14.23 -12.95,-21.74 -2.46,-4.83 -4.89,-9.96 -6.83,-14.75 -0.68,-1.69 -1.32,-3.39 -1.84,-5.13 -0.17,-0.54 -0.32,-1.08 -0.42,-1.62 0,0 0,0 0,-0.02 0,-0.03 0,-0.03 0,-0.05 0.74,-1.57 1.53,-3.07 2.78,-4.15 -0.03,0.05 0.44,-0.29 0.56,-0.37 0.03,0 0.03,-0.02 0.05,-0.02 0,0 0.03,0 0.03,0 0.12,-0.05 0.24,-0.08 0.34,-0.1 0,0 0.02,0 0.02,0 0.1,0 0.2,0 0.3,0 -0.3,0 0.15,0.07 0.42,0.12 0.04,0.05 0.46,0.25 0.56,0.3 0.02,0.02 0.17,0.12 0.22,0.14 0.07,0.08 0.17,0.13 0.25,0.2 0.49,0.42 1.13,1.18 1.32,1.45 1.06,1.42 1.92,2.99 2.7,4.56 3.41,6.9 5.38,14.48 7.88,21.72 3.29,9.45 7.19,18.58 11.8,27.42 -0.19,-0.1 -0.41,-0.3 -0.73,-0.57z"/>
   <path class="fil0" d="M32.13 36.21c0.13,2.31 0.3,7.81 3.78,7.64 0.59,-0.03 1.33,-0.32 1.6,-0.91 0.56,-1.28 1.4,-2.97 2.77,-3.54 1.11,-0.46 2.11,-0.29 3.29,0.1 2.26,0.76 4.05,2.38 5.82,3.81 1.47,1.2 3.36,0.07 3.07,-1.8 -0.47,-2.99 -0.86,-5.98 -1.16,-8.98 -0.27,-2.65 -0.32,-5.35 -0.81,-7.95 -0.61,-3.31 -2.8,-5.01 -5.84,-6.01 -0.74,-0.25 -1.47,-0.47 -2.23,-0.71 -0.84,-0.27 -1.74,-0.77 -2.63,-0.91 -1.62,-0.25 -2.89,0.71 -3.9,1.89 -1.13,1.3 -2.01,2.82 -2.72,4.39 -0.59,1.3 -1.33,2.95 -1.18,4.42 0.37,2.77 0,5.74 0.14,8.56zm6.21 -14.6c0.2,-0.24 0.4,-0.47 0.59,-0.69 0.03,-0.02 0.25,-0.19 0.35,-0.29 0.12,0.05 0.24,0.1 0.39,0.15 1.45,0.54 2.94,0.95 4.39,1.44 0.86,0.3 1.52,0.62 2.09,1.26 -0.08,-0.08 0.24,0.39 0.27,0.46 0.1,0.2 0.15,0.3 0.22,0.59 0.24,0.79 0.37,1.6 0.44,2.41 0.34,3.65 0.69,7.28 1.15,10.92 -1.27,-0.86 -2.65,-1.6 -4.17,-2.06 -3.29,-1.01 -6.11,0.22 -8.07,2.55 -0.15,-1.08 -0.2,-2.26 -0.25,-3.41 -0.1,-2.41 0.2,-4.94 -0.1,-7.32 -0.14,-1.57 1.5,-4.46 2.7,-6.01z"/>
   <path class="fil0" d="M76.85 100.49c0.12,4.68 0.37,10.67 4.98,13.3 3.63,2.06 8.4,2.13 12.44,2.28 0.96,0.05 1.92,-0.86 1.85,-1.84 -0.64,-8.05 -1.11,-16.1 -1.45,-24.15 -0.3,-7.04 -0.74,-14.16 -0.2,-21.2 0.2,-2.51 0.34,-5.08 -0.37,-7.54 -0.73,-2.57 -2.6,-4.17 -5.05,-5.05 -1.92,-0.69 -3.78,-1.7 -5.79,-1.94 -1.7,-0.2 -3.12,1.03 -4.23,2.16 -0.98,1.03 -1.86,2.13 -2.79,3.21 -2.85,3.39 -3.02,8.25 -2.9,12.47 0.17,5.28 1.1,10.55 2.04,15.73 0.78,4.39 1.37,8.15 1.47,12.57zm1.06 -36.45c0.17,-0.49 0.66,-1.37 0.93,-1.69 0.88,-1.01 1.74,-2.04 2.62,-3.02 0.3,-0.32 0.59,-0.64 0.91,-0.93 0.35,-0.32 0.08,-0.12 0.52,-0.35l0 0c-0.35,0.18 -0.1,0.05 0.05,0 0,0 0.02,0 0.02,0 0.05,0 0.12,0 0.2,0.03 0.1,0.02 0.22,0.05 0.32,0.07 0.83,0.22 1.64,0.59 2.45,0.91 1.94,0.76 3.9,1.11 4.61,3.29 0.74,2.26 0.37,4.86 0.2,7.19 -0.54,6.97 -0.02,14.06 0.27,21.06 0.29,7.24 0.74,14.5 1.28,21.74 -2.85,-0.15 -5.77,-0.42 -8.37,-1.59 -1.97,-0.89 -2.63,-3.05 -3,-5.01 -0.46,-2.38 -0.39,-4.88 -0.44,-7.31 -0.05,-2.07 -0.29,-4.08 -0.61,-6.12 -0.79,-4.83 -1.77,-9.62 -2.36,-14.47 -0.56,-4.47 -1.13,-9.48 0.4,-13.8z"/>
   <path class="fil0" d="M68.06 85.47c0.32,0.76 0.89,1.35 1.77,1.35 0.93,0 1.94,-0.84 1.84,-1.84 -1,-9.99 0.25,-19.86 1.01,-29.8 0.15,-1.84 0.32,-3.68 0.19,-5.52 -0.09,-1.67 -0.34,-3.34 -0.58,-4.98 -0.45,-2.95 -0.94,-6.09 -2.16,-8.84 -0.03,-0.07 -0.05,-0.12 -0.1,-0.19 -0.03,-0.08 -0.08,-0.15 -0.1,-0.2 -1.45,-2.75 -3.9,-4.78 -5.33,-7.53 -0.56,-1.08 -2.06,-1.16 -2.89,-0.37 -3.14,2.92 -5.82,6.4 -6.63,10.7 -0.78,4.15 0.1,8.42 1.03,12.47 2.78,11.97 7.29,23.38 11.95,34.75zm-9.47 -45.94c0.34,-3.02 2.06,-5.6 4.1,-7.78 1.4,1.91 3.09,3.6 4.17,5.76 0.03,0.03 0.03,0.05 0.03,0.08 0.05,0.1 0.07,0.22 0.12,0.32 0.1,0.27 0.19,0.56 0.27,0.86 0.19,0.68 0.37,1.37 0.54,2.06 0.37,1.59 0.66,3.21 0.93,4.86 0.54,3.41 0.49,6.57 0.22,9.98 -0.49,6.36 -1.15,12.69 -1.3,19.02 -2.99,-7.68 -5.72,-15.46 -7.63,-23.51 -0.93,-3.83 -1.89,-7.73 -1.45,-11.65z"/>
   <path class="fil0" d="M99.72 92.9c-1.2,5.82 -1.69,11.61 -0.95,17.53 0,0.07 0.02,0.14 0.04,0.22 0,0.1 0.03,0.17 0.03,0.27 0.81,5.18 6.85,5.05 10.8,4.27 0.98,-0.2 1.96,-0.47 2.92,-0.76 1.08,-0.32 2.72,-0.64 3.02,-1.89 0.88,-3.44 1.84,-6.87 2.87,-10.29 0.86,-2.82 1.62,-5.67 2.62,-8.44 0.79,-2.13 1.65,-4.24 2.38,-6.38 0.79,-2.23 1.55,-4.51 1.87,-6.87 0.34,-2.41 -0.05,-4.25 -1.47,-6.26 -2.33,-3.29 -5.72,-5.59 -8.62,-8.32 -0.95,-0.88 -2.16,-0.59 -2.89,0.37 -2.11,2.77 -4.79,5.57 -8.15,6.7 -0.71,0.24 -1.45,0.93 -1.35,1.77 0.39,3.09 -0.27,5.98 -1.06,8.98 -0.76,3.04 -1.44,6.08 -2.06,9.1zm3.71 0.18c0.64,-3.05 1.35,-6.09 2.13,-9.08 0.67,-2.61 1.18,-5.26 1.06,-7.93 2.99,-1.35 5.42,-3.61 7.53,-6.11 2.8,2.35 5.94,4.64 7.54,7.92 0.05,0.1 0.1,0.32 0.12,0.47 -0.07,-0.29 0,0.52 0,0.66 0,0.74 -0.15,1.4 -0.29,2.14 -0.4,1.81 -0.99,3.61 -1.6,5.35 -1.13,3.19 -2.4,6.28 -3.41,9.5 -1.5,4.86 -2.97,9.74 -4.27,14.67 -1.77,0.62 -3.61,1.11 -5.47,1.28 -1.16,0.1 -2.24,0.1 -3.32,-0.27 -0.22,-0.08 -0.46,-0.27 -0.68,-0.49 0.09,0.07 -0.27,-0.44 -0.2,-0.3 -0.1,-0.22 -0.15,-0.46 -0.2,-0.71 -0.66,-5.82 -0.14,-11.41 1.06,-17.1z"/>
   <path class="fil0" d="M190.89 38.74c-0.04,-3.04 -1.17,-5.77 -2.01,-8.66 -0.34,-1.18 -1.64,-1.65 -2.7,-1.11 -2.84,1.5 -5.76,3 -8.14,5.18 -2.12,1.92 -3.56,4.47 -4.89,6.97 -4.91,9.18 -9.28,18.68 -13.35,28.25 -0.59,1.4 0.37,3.19 2.09,2.7 2.28,-0.64 4.46,-1.55 6.62,-2.55 2.14,-0.99 4.32,-1.62 6.48,-2.46 3.61,-1.4 5.16,-5.81 6.51,-9.08 1.3,-3.14 3.14,-5.84 4.93,-8.71 1.84,-2.95 4.17,-6.41 4.44,-9.99 0.02,-0.1 0.02,-0.2 0.02,-0.29 0,-0.1 0,-0.18 0,-0.25zm-4.9 3.85c-0.86,1.75 -1.89,3.44 -2.92,5.08 -1.7,2.73 -3.46,5.3 -4.69,8.27 -0.64,1.53 -1.25,3.05 -2.01,4.52 -0.57,1.08 -1.43,2.7 -2.58,3.14 -1.13,0.44 -2.31,0.69 -3.44,1.13 -1.05,0.39 -2.06,0.86 -3.09,1.33 -0.86,0.39 -1.69,0.76 -2.55,1.12 3.51,-8 7.26,-15.9 11.31,-23.63 1.25,-2.4 2.53,-4.78 4.44,-6.65 1.58,-1.52 3.56,-2.65 5.55,-3.71 0.61,1.89 1.2,3.76 1.2,5.8 -0.05,1.05 -0.68,2.47 -1.22,3.6z"/>
   <path class="fil0" d="M152.63 70.96c0.2,1.67 2.51,2.73 3.44,0.94 4.34,-8.32 7.76,-17.08 12,-25.43 2.73,-5.45 4.08,-11.58 2.19,-17.52 -1.31,-4.15 -4.1,-7.66 -7.56,-10.19 -0.57,-0.41 -1.3,-0.24 -1.87,0 -1.45,0.67 -2.85,1.38 -4.24,2.16 -1.97,1.11 -4.45,2.41 -5.77,4.3 -0.62,0.86 -0.74,2.06 -0.86,3.07 -0.17,1.42 -0.22,2.87 -0.25,4.32 -0.09,8.81 0.81,17.67 1.67,26.45 0.37,3.95 0.79,7.93 1.25,11.9zm0.86 -41.2c0.03,-0.32 0.05,-0.64 0.08,-0.93 0,-0.1 0.02,-0.18 0.02,-0.27 0,-0.08 0.03,-0.18 0.03,-0.2 0.05,-0.37 0.14,-0.76 0.24,-1.1 -0.05,0.22 0.17,-0.2 0.05,-0.1 0.27,-0.27 0.57,-0.54 0.86,-0.76 1.05,-0.81 2.21,-1.5 3.39,-2.16 1.08,-0.62 2.21,-1.21 3.33,-1.77 2.29,1.89 4.23,4.56 5.18,7.46 1.67,4.93 0.44,10.16 -1.81,14.7 -3.32,6.53 -6.11,13.3 -9.26,19.93 -0.58,-5.52 -1.1,-11.07 -1.52,-16.59 -0.34,-4.39 -0.61,-8.79 -0.68,-13.18 -0.03,-1.72 -0.03,-3.36 0.09,-5.03z"/>
   <path class="fil0" d="M132.61 20.95c-0.37,0.15 -0.69,0.44 -0.86,0.86 0,0.02 -0.02,0.02 -0.02,0.05 0,0.02 -0.03,0.02 -0.03,0.05 -0.02,0.07 -0.05,0.14 -0.07,0.22 -1.18,3.73 -2.21,7.7 -1.72,11.65 0.47,3.64 2.13,6.9 3.75,10.14 4.99,10.01 9.7,20.15 14.16,30.38 0.32,0.74 1.35,1.06 2.09,0.84 1.03,-0.3 1.47,-1.28 1.28,-2.26 -1.13,-6.01 -2.06,-12.08 -2.78,-18.14 -0.63,-5.45 -1.27,-10.99 -1.37,-16.49 -0.07,-3.73 0.02,-7.78 -1.69,-11.22 -2.09,-4.19 -7.69,-3.55 -11.02,-6.06 -0.49,-0.34 -1.18,-0.29 -1.72,-0.02zm2.6 4.71c1.13,0.44 2.28,0.76 3.44,1.08 1.47,0.44 3.04,0.96 3.65,2.45 1.33,3.17 0.96,6.9 1.08,10.26 0.25,6.75 0.93,13.5 1.89,20.22 -2.5,-5.42 -5.05,-10.84 -7.73,-16.19 -1.54,-3.1 -3.31,-6.21 -3.95,-9.65 -0.47,-2.53 0,-5.2 0.66,-7.73 0.03,0 0.03,0 0.05,-0.02 0.39,-0.08 0.69,-0.25 0.91,-0.42z"/>
   <path class="fil0" d="M123.36 108.44c1.2,-1.47 2.84,-2.36 4.46,-3.31 2.04,-1.21 3.56,-2.61 5.03,-4.47 3.34,-4.25 6.95,-8.27 10.73,-12.12 2.06,-2.09 5.18,-4.45 5.45,-7.61 0.1,-1.23 -0.54,-2.48 -1.13,-3.49 -0.98,-1.67 -2.11,-3.26 -3.17,-4.91 -1.94,-2.97 -4.78,-5.05 -8.24,-3.14 -0.91,0.49 -2.07,1.25 -2.8,1.99 -0.79,0.79 -0.91,2.43 -1.2,3.46 -0.37,1.33 -0.79,2.65 -1.23,3.95 -3.07,9.5 -7.22,18.6 -10.97,27.83 -0.71,1.72 1.94,3.22 3.07,1.82zm13.22 -34.61c0.69,-0.49 1.35,-1.05 2.14,-1.44 0.22,-0.13 0.61,-0.17 0.83,-0.08 0.91,0.4 1.5,1.3 2.02,2.09 0.95,1.52 1.96,2.99 2.92,4.51 0.17,0.25 0.32,0.52 0.46,0.79 0.03,0.05 0.25,0.49 0.25,0.49 0.07,0.17 0.12,0.34 0.17,0.54 0,0.03 0,0.03 0,0.05 0,0.02 0,0.1 -0.02,0.2 0,-0.37 -0.03,-0.1 -0.05,0.09 -0.03,0.05 -0.18,0.37 -0.2,0.42 -0.27,0.47 -0.54,0.76 -0.93,1.2 -1.43,1.6 -3,3.07 -4.47,4.62 -3.53,3.65 -6.87,7.53 -10.01,11.53 -0.93,1.21 -2.11,2.06 -3.36,2.85 3.8,-9.15 7.65,-18.28 10.25,-27.86z"/>
   <path class="fil0" d="M119.85 66.77c2.01,2.77 5.03,4.61 7.9,6.38 0.78,0.46 2.13,0.24 2.53,-0.66 1.3,-3.02 3.02,-5.82 4.32,-8.82 1.2,-2.74 2.13,-5.52 1.37,-8.51 -0.74,-2.95 -2.04,-5.77 -3.24,-8.54 -1.08,-2.48 -2.21,-4.96 -3.43,-7.39 -0.67,-1.3 -2.48,-1.08 -3.2,0 -0.31,0.49 -0.36,0.54 -0.56,0.79 -0.47,0.61 -0.96,1.2 -1.42,1.81 -1.28,1.65 -2.56,3.29 -3.71,5.01 -2.06,3.02 -4.47,6.87 -3.88,10.67 0,0.08 0.03,0.15 0.03,0.23 0.66,3.11 1.4,6.4 3.29,9.03zm0.27 -10.68c0,-0.22 0.05,-0.44 0.12,-0.78 0.17,-0.74 0.44,-1.45 0.76,-2.14 0.79,-1.74 1.84,-3.36 2.92,-4.93 1.08,-1.57 2.31,-3.02 3.49,-4.52 1.86,3.83 3.63,7.78 4.83,11.83 0.15,0.44 0.25,0.91 0.34,1.38 0,0.04 0.03,0.09 0.03,0.09 0,0.03 0,0.08 0,0.15 0.02,0.32 0,0.64 -0.03,0.98 -0.12,1.35 -0.76,2.78 -1.3,4 -1,2.31 -2.28,4.52 -3.38,6.78 -1.87,-1.18 -3.76,-2.48 -4.99,-4.2 -1.66,-2.31 -2.2,-5.25 -2.77,-7.98 0.03,0.25 -0.02,-0.51 -0.02,-0.66z"/>
   <path class="fil0" d="M95.53 38.89c0.49,5.4 0.34,10.89 0.34,16.32 0,5.99 -0.12,11.95 -0.32,17.91 -0.05,1.5 2.14,2.6 3.14,1.3 3.56,-4.51 9.33,-7.33 10.09,-13.57 0.96,-7.9 1.79,-15.83 2.97,-23.7 0.59,-3.98 1.23,-7.96 1.89,-11.91 0.32,-1.91 0.66,-3.8 1,-5.69 0.32,-1.74 0.74,-3.51 0.74,-5.3 0,-5.33 -5.3,-6.87 -8.44,-10.19 -0.17,-0.17 -0.32,-0.36 -0.49,-0.54 -0.74,-0.86 -2.41,-0.66 -2.9,0.37 -1.79,3.73 -6.11,5.33 -7.93,9.11 -0.02,0.07 -0.07,0.14 -0.09,0.22 -1.62,3.9 -1.7,8.15 -1.45,12.32 0.29,4.46 1.05,8.91 1.45,13.35zm3.28 -24.03c1.43,-3.02 4.54,-4.64 6.63,-7.14 1.23,1.08 2.55,2.01 3.9,2.95 1.52,1.05 2.33,1.98 2.33,3.87 0,1.65 -0.49,3.34 -0.78,4.96 -0.34,1.89 -0.66,3.8 -1.01,5.69 -0.64,3.81 -1.25,7.61 -1.81,11.44 -1.11,7.46 -2.04,14.92 -2.83,22.41 -0.14,1.4 -0.29,2.72 -0.95,4 -0.54,1.05 -1.38,1.94 -2.21,2.77 -0.91,0.88 -1.84,1.72 -2.75,2.58 0.12,-4.25 0.17,-8.47 0.17,-12.72 0,-5.37 0.12,-10.79 -0.27,-16.17 -0.32,-4.29 -1.05,-8.56 -1.42,-12.86 -0.27,-3.78 -0.57,-8.17 1,-11.78z"/>
   <path class="fil0" d="M114.67 46.1c6.89,-2.35 9.62,-8.76 11.51,-15.26 0.88,-3.02 1.62,-6.11 2.97,-8.96 0.32,-0.69 0.71,-1.37 1.1,-2.01 0.25,-0.37 0.64,-1.16 1.06,-1.28 1.64,-0.51 4,0.91 5.4,1.62 1.13,0.59 2.28,0.05 2.7,-1.1 0.68,-1.87 0.71,-3.95 1.13,-5.89 0.17,-0.86 0.51,-1.6 0.58,-2.48 0.08,-0.86 -0.24,-1.77 -0.58,-2.53 -1.43,-3.14 -4.45,-5.05 -6.53,-7.68 -0.67,-0.86 -1.89,-0.57 -2.6,0 -4.4,3.41 -9.6,6.87 -12.03,12.05 -4.39,9.86 -4.76,20.83 -6.99,31.27 -0.25,1.27 0.88,2.74 2.28,2.25zm7.9 -31.66c2.01,-4.27 6.14,-7.28 9.89,-10.11 1.62,1.72 3.54,3.19 4.69,5.28 0.64,1.15 -0.03,1.96 -0.27,3.29 -0.2,1.03 -0.3,2.08 -0.47,3.12 -1.27,-0.54 -2.6,-0.94 -4,-1.13 -2.35,-0.32 -3.8,0.9 -5.05,2.7 -1.94,2.74 -2.95,6.11 -3.88,9.3 -1.42,4.86 -2.7,10.84 -6.8,14.03 1.55,-8.9 2.21,-18.18 5.89,-26.48z"/>
   <path class="fil0" d="M74.71 52.07c-0.09,0.95 0.91,1.89 1.85,1.84 1.49,-0.08 2.65,-0.79 3.75,-1.75 0.79,-0.68 1.57,-1.91 2.58,-2.28 1.1,-0.29 2.75,0.79 3.73,1.33 1.45,0.76 2.94,1.67 4.59,1.89 1.44,0.19 2.5,-0.79 2.25,-2.26 -1.64,-9.89 -3.16,-19.81 -4.93,-29.7 -0.51,-2.92 -1.4,-5.64 -3.24,-8.02 -1.79,-2.31 -4.46,-3.95 -6.8,-5.65 -1.22,-0.88 -2.65,0.35 -2.77,1.6 -0.27,3.07 -1.72,5.74 -3.09,8.42 -1.45,2.84 -2.58,5.76 -2.55,9 0.02,4.13 1.84,8.27 2.94,12.18 1.28,4.34 2.19,8.81 1.69,13.4zm1.53 -33.55c1.05,-2.06 2.01,-4.12 2.6,-6.31 1.4,1.03 2.77,2.14 3.85,3.49 1.62,2.01 2.06,5.08 2.5,7.6 1.4,8.42 2.8,16.81 4.18,25.23 -2.21,-1.13 -4.32,-2.7 -6.83,-2.35 -0.19,0 -0.41,0.05 -0.63,0.12 -0.23,0.07 -0.42,0.15 -0.59,0.27 -0.94,0.47 -1.7,1.13 -2.46,1.89 -0.1,0.1 -0.19,0.22 -0.32,0.34 -0.07,-3.34 -0.73,-6.62 -1.57,-9.86 -0.56,-2.14 -1.22,-4.25 -1.86,-6.38 -0.57,-1.89 -1.21,-3.81 -1.3,-5.77 -0.2,-3 1.08,-5.67 2.43,-8.27z"/>
  </g>
 </g>
</svg>
