<svg xmlns="http://www.w3.org/2000/svg" width="100" height="100" viewBox="0 0 10000 10000"
     style="image-rendering:optimizeQuality;shape-rendering:geometricPrecision;text-rendering:geometricPrecision">
    <defs>
        <style type="text/css">
            .fil0 {fill:black;fill-rule:nonzero}
        </style>
    </defs>
    <path class="fil0"
          d="M9381.1 4634.6l-859.8-141.6-465.3-1193.6c-222.5-566.5-768.8-940.7-1385.8-940.7l-647.4 0c-40.5-242.8-252.9-424.8-505.8-424.8l-4804.8 0c-283.2 0-515.9 232.7-515.9 515.9l0 4248.5c0 283.2 232.7 515.9 515.9 515.9l333.8 0c0-738.4 606.9-1345.4 1345.4-1345.4 738.4 0 1345.4 606.9 1345.4 1345.4l2518.8 0c0-738.4 606.9-1345.4 1345.4-1345.4 738.4 0 1345.4 606.9 1345.4 1345.4l333.8 0c283.2 0 515.9-232.7 515.9-515.9l0-1557.8c10.1-252.9-172-465.3-414.7-505.8zm-3338.1-212.4l0-1244.2 637.3 0c273.1 0 515.9 172 617 424.9l323.7 829.5-1578 0 0-10.1z"/>
    <circle class="fil0" cx="2391.3" cy="7203.9" r="869.9"/>
    <circle class="fil0" cx="7610.8" cy="7203.9" r="869.9"/>
</svg>
