<?xml version="1.0" encoding="UTF-8"?>
<!DOCTYPE svg PUBLIC "-//W3C//DTD SVG 1.1//EN" "http://www.w3.org/Graphics/SVG/1.1/DTD/svg11.dtd">
<!-- Creator: CorelDRAW 2019 (64-Bit) -->
<svg xmlns="http://www.w3.org/2000/svg" xml:space="preserve" width="48px" height="48px" version="1.1" style="shape-rendering:geometricPrecision; text-rendering:geometricPrecision; image-rendering:optimizeQuality; fill-rule:evenodd; clip-rule:evenodd"
viewBox="0 0 48 48"
 xmlns:xlink="http://www.w3.org/1999/xlink">
 <defs>
  <style type="text/css">
   <![CDATA[
    .fil0 {fill:gray;fill-rule:nonzero}
   ]]>
  </style>
 </defs>
 <g id="Слой_x0020_1">
  <metadata id="CorelCorpID_0Corel-Layer"/>
  <path class="fil0" d="M35.99 18.55l0.01 0.01 0.01 0 0 0.01 0.01 0.01 0.01 0.01 0.01 0.01 0.01 0.01 0.01 0.01c0.16,0.19 0.34,0.42 0.52,0.69 1.16,-0.18 2.23,-0.52 3.19,-1l0.02 -0.02c1.98,-1 3.5,-2.57 4.46,-4.39 0.97,-1.83 1.39,-3.91 1.14,-5.9 -0.12,-1 -0.41,-1.98 -0.87,-2.89l-0.01 -0.03c-0.55,-1.1 -1.33,-2.14 -2.46,-2.87 -1.14,-0.75 -2.65,-1.19 -4.67,-1.1 -0.05,0 -0.09,0.02 -0.11,0.05l-0.03 0.08 0 0.1c0.02,0.04 0.05,0.07 0.1,0.1 1.81,0.77 3.12,1.97 3.9,3.35 0.66,1.15 0.94,2.42 0.85,3.67 -0.1,1.25 -0.58,2.48 -1.46,3.54 -1.03,1.25 -2.63,2.27 -4.79,2.81 -1.26,0.31 -2.81,0.43 -2.81,0.43 -0.3,0 -0.54,-0.23 -0.55,-0.52 -0.1,-0.81 -0.48,-1.55 -1.03,-2.15 -0.53,-0.57 -1.21,-1.03 -1.97,-1.31 -0.76,-0.28 -1.59,-0.4 -2.42,-0.31 -0.77,0.1 -1.55,0.38 -2.24,0.88 0.55,0.6 1,1.32 1.33,2.17 0.11,0.28 -0.03,0.6 -0.32,0.71 -0.28,0.1 -0.6,-0.04 -0.7,-0.32 -0.35,-0.89 -0.86,-1.61 -1.49,-2.18l-0.01 -0.01 -0.01 -0.01 -0.01 -0.01c-0.42,-0.37 -0.89,-0.67 -1.38,-0.89l-0.03 -0.01c-0.95,-0.43 -2.01,-0.59 -3.03,-0.5 -1.01,0.1 -2,0.46 -2.82,1.08 -1.02,0.77 -1.78,1.95 -2.02,3.54 -0.05,0.3 -0.33,0.5 -0.63,0.46 -0.3,-0.05 -0.5,-0.33 -0.46,-0.63l0.03 -0.2c-2.58,-0.4 -4.46,-1.44 -5.68,-2.78 -0.91,-0.99 -1.45,-2.16 -1.63,-3.37 -0.17,-1.2 0.01,-2.44 0.54,-3.59 0.73,-1.58 2.13,-2.99 4.15,-3.86 0.06,-0.02 0.09,-0.05 0.1,-0.08l0.01 -0.11 -0.03 -0.08c-0.02,-0.03 -0.06,-0.05 -0.11,-0.05 -2.02,-0.09 -3.53,0.35 -4.67,1.1 -1.13,0.74 -1.91,1.78 -2.46,2.87l-0.01 0.03c-0.46,0.91 -0.75,1.89 -0.87,2.89 -0.25,2 0.16,4.07 1.13,5.9 0.84,1.59 2.11,2.98 3.72,3.98l0 0 0.01 0.01 0.01 0 0.01 0.01 0.03 0.02c0.23,0.13 0.47,0.27 0.71,0.39 0.95,0.48 2.02,0.83 3.18,1 0.22,-0.32 0.44,-0.59 0.63,-0.81l0.01 -0.01 0.01 -0.01 0.01 -0.01 0 0 0.01 -0.01 0 -0.01 0.01 0 0.01 -0.02c1.41,-1.48 2.98,-1.54 4.36,-0.89 0.83,0.39 1.58,1.04 2.16,1.79 0.58,0.75 1.01,1.6 1.19,2.39 0.27,1.19 0.02,2.25 -0.98,2.76 -0.51,0.25 -1.03,0.24 -1.51,0.06 -0.52,-0.2 -1,-0.6 -1.39,-1.03 -0.2,-0.22 -0.18,-0.57 0.04,-0.77 0.23,-0.2 0.57,-0.19 0.78,0.04 0.28,0.31 0.62,0.6 0.95,0.73 0.21,0.08 0.43,0.09 0.64,-0.02 0.46,-0.23 0.55,-0.83 0.4,-1.52 -0.15,-0.64 -0.5,-1.34 -0.99,-1.96 -0.48,-0.63 -1.09,-1.17 -1.75,-1.48 -0.98,-0.45 -2.1,-0.4 -3.11,0.66l-0.01 0.01 0 0.01 -0.01 0.01 -0.01 0.01c-0.21,0.23 -0.45,0.54 -0.69,0.93l-0.01 0.02 0 0 -0.01 0.02c-0.43,0.71 -0.81,1.67 -0.91,2.89 -0.15,2 0.47,4.71 2.95,8.17 0.32,0.44 1.07,1.68 1.69,3.15 0.25,0.6 0.48,1.24 0.66,1.89 1.34,-1.47 3.08,-0.97 4.95,-0.44 0.88,0.25 1.79,0.51 2.66,0.51 0.83,0 1.72,-0.26 2.59,-0.5l0.02 -0.01c1.76,-0.5 3.44,-0.97 4.76,0.21 0.17,-0.57 0.37,-1.13 0.59,-1.66 0.62,-1.48 1.37,-2.71 1.68,-3.15 2.43,-3.37 3.09,-6.03 2.97,-8.02 -0.07,-1.28 -0.46,-2.28 -0.9,-3.02l-0.04 -0.07c-0.2,-0.33 -0.4,-0.59 -0.59,-0.81l0 0 -0.01 -0.01c-1.78,-1.83 -2.85,-0.93 -4.14,0.16 -1.55,1.31 -3.36,2.84 -6.56,1.75 -0.05,0.19 -0.12,0.36 -0.2,0.53l-0.02 0.04c-0.26,0.5 -0.65,0.89 -1.11,1.13 -0.58,0.3 -1.26,0.37 -1.92,0.16 -0.29,-0.1 -0.45,-0.41 -0.36,-0.69 0.1,-0.29 0.41,-0.45 0.7,-0.36 0.37,0.12 0.75,0.08 1.07,-0.09 0.26,-0.13 0.49,-0.36 0.64,-0.66l0.02 -0.02c0.15,-0.31 0.22,-0.7 0.18,-1.16 -0.07,-0.95 -0.65,-2.17 -2,-3.53 -0.22,-0.22 -0.22,-0.56 0,-0.78 0.21,-0.21 0.56,-0.21 0.77,0.01 1.57,1.57 2.23,3.03 2.33,4.21l0.01 0.08c2.78,1.04 4.38,-0.31 5.74,-1.46 1.71,-1.45 3.13,-2.64 5.62,-0.1zm-5.27 9.47c0.35,0 0.63,0.28 0.63,0.63 0,0.34 -0.28,0.62 -0.63,0.62 -0.35,0 -0.62,-0.28 -0.62,-0.62 0,-0.35 0.27,-0.63 0.62,-0.63zm-13.13 0c0.35,0 0.63,0.28 0.63,0.63 0,0.34 -0.28,0.62 -0.63,0.62 -0.34,0 -0.62,-0.28 -0.62,-0.62 0,-0.35 0.28,-0.63 0.62,-0.63zm14.5 -2.2c0.3,0.05 0.5,0.33 0.46,0.63 -0.04,0.3 -0.32,0.5 -0.62,0.46 -1.34,-0.2 -2.14,0.07 -2.59,0.69 -0.49,0.69 -0.65,1.83 -0.65,3.27 0,0.31 -0.25,0.55 -0.55,0.55 -0.31,0 -0.55,-0.24 -0.55,-0.55 0,-1.65 0.21,-3 0.86,-3.91 0.7,-0.97 1.83,-1.41 3.64,-1.14zm-15.71 1.09c-0.3,0.04 -0.58,-0.16 -0.63,-0.46 -0.04,-0.3 0.17,-0.58 0.47,-0.63 1.8,-0.27 2.93,0.17 3.63,1.14 0.66,0.91 0.87,2.26 0.87,3.91 0,0.31 -0.25,0.55 -0.55,0.55 -0.31,0 -0.55,-0.24 -0.55,-0.55 0,-1.44 -0.16,-2.58 -0.66,-3.27 -0.45,-0.62 -1.25,-0.89 -2.58,-0.69zm25.34 -8.5c0.45,0.46 0.73,1 0.83,1.56 0.08,0.37 0.07,0.77 -0.01,1.15 -0.07,0.37 -0.22,0.74 -0.44,1.07 -0.5,0.78 -1.36,1.4 -2.5,1.62 -0.3,0.06 -0.58,-0.14 -0.64,-0.44 -0.06,-0.29 0.14,-0.58 0.44,-0.64 0.82,-0.16 1.43,-0.59 1.78,-1.13 0.14,-0.22 0.24,-0.46 0.29,-0.7 0.05,-0.24 0.05,-0.49 0,-0.73 -0.08,-0.41 -0.31,-0.82 -0.71,-1.15 -0.15,0.09 -0.31,0.17 -0.47,0.25l-0.03 0.02c-0.94,0.47 -1.98,0.83 -3.1,1.04 0.35,0.77 0.63,1.72 0.7,2.85 0.13,2.2 -0.57,5.1 -3.17,8.72 -0.29,0.41 -0.98,1.55 -1.56,2.93 -0.31,0.74 -0.59,1.55 -0.75,2.34 0.14,0.25 0.27,0.52 0.4,0.83 0.41,1.01 0.42,2.75 0.4,3.64l-0.02 0.53c0,0.79 -0.43,1.5 -1.11,2.01l-0.04 0.03c-0.63,0.45 -1.49,0.73 -2.42,0.73l-0.05 0c-0.2,0.79 -0.83,1.49 -1.67,2.01 -1.03,0.65 -2.42,1.05 -3.72,1.05 -1.3,0 -2.68,-0.4 -3.72,-1.05 -0.84,-0.52 -1.46,-1.22 -1.66,-2.01l-0.06 0c-0.95,0 -1.82,-0.29 -2.45,-0.76 -0.69,-0.51 -1.11,-1.22 -1.11,-2.01l-0.03 -0.54c-0.02,-0.9 0,-2.63 0.41,-3.63 0.05,-0.13 0.11,-0.26 0.16,-0.38l0 -0.03c-0.14,-0.92 -0.46,-1.89 -0.83,-2.76 -0.58,-1.39 -1.27,-2.53 -1.56,-2.93 -2.67,-3.71 -3.33,-6.68 -3.15,-8.89 0.08,-1.06 0.35,-1.95 0.69,-2.68 -1.12,-0.21 -2.16,-0.57 -3.1,-1.04 -0.17,-0.09 -0.34,-0.18 -0.5,-0.27 -0.4,0.33 -0.63,0.74 -0.71,1.15 -0.05,0.24 -0.04,0.49 0,0.73 0.05,0.24 0.15,0.48 0.29,0.7 0.35,0.54 0.96,0.97 1.78,1.13 0.3,0.06 0.5,0.35 0.44,0.64 -0.06,0.3 -0.34,0.5 -0.64,0.44 -1.14,-0.22 -2,-0.84 -2.5,-1.61 -0.21,-0.34 -0.36,-0.7 -0.44,-1.08 -0.08,-0.38 -0.08,-0.78 -0.01,-1.15 0.1,-0.56 0.38,-1.1 0.83,-1.56 -1.5,-1.06 -2.69,-2.45 -3.51,-3.99 -1.07,-2.03 -1.53,-4.33 -1.25,-6.56 0.13,-1.11 0.46,-2.21 0.98,-3.25l0.01 -0.03c0.63,-1.25 1.53,-2.44 2.84,-3.29 1.32,-0.86 3.05,-1.38 5.32,-1.27 0.39,0.01 0.7,0.19 0.9,0.43 0.15,0.18 0.24,0.39 0.28,0.6 0.03,0.21 0.02,0.44 -0.06,0.65l0 0.02c-0.12,0.3 -0.35,0.57 -0.7,0.72 -1.76,0.76 -2.97,1.96 -3.6,3.31 -0.44,0.95 -0.59,1.98 -0.44,2.97 0.15,1 0.6,1.97 1.35,2.8 1.08,1.17 2.78,2.09 5.15,2.44 0.43,-1.27 1.19,-2.27 2.14,-2.98 0.98,-0.74 2.16,-1.17 3.38,-1.29 1.21,-0.11 2.46,0.08 3.58,0.59l0.04 0.01c0.46,0.21 0.9,0.47 1.3,0.79 0.91,-0.71 1.93,-1.1 2.95,-1.22 1,-0.11 2.01,0.03 2.93,0.37 0.91,0.35 1.74,0.9 2.38,1.6 0.59,0.64 1.03,1.41 1.23,2.27 0.5,-0.06 1.34,-0.17 2.09,-0.36 1.92,-0.48 3.32,-1.36 4.22,-2.44 0.72,-0.88 1.12,-1.89 1.2,-2.92 0.08,-1.04 -0.16,-2.09 -0.7,-3.05 -0.67,-1.17 -1.81,-2.21 -3.38,-2.88 -0.36,-0.16 -0.59,-0.44 -0.7,-0.75 -0.08,-0.21 -0.09,-0.44 -0.06,-0.65 0.04,-0.21 0.13,-0.41 0.26,-0.58l0.02 -0.02c0.21,-0.25 0.51,-0.42 0.9,-0.43 2.28,-0.11 4.01,0.41 5.32,1.27 1.31,0.85 2.21,2.05 2.84,3.29l0.01 0.03c0.52,1.04 0.85,2.14 0.98,3.25 0.28,2.23 -0.18,4.53 -1.25,6.56 -0.82,1.54 -2.01,2.93 -3.51,3.99zm-13.35 26.53l-8.44 0c0.2,0.4 0.59,0.77 1.08,1.08 0.87,0.54 2.04,0.88 3.14,0.88 1.1,0 2.27,-0.34 3.14,-0.88 0.5,-0.31 0.89,-0.68 1.08,-1.08zm3.21 -6.92c-0.24,-0.08 -0.39,-0.32 -0.36,-0.58 -1.05,-1.4 -2.57,-0.97 -4.16,-0.52l-0.02 0c-0.94,0.27 -1.92,0.55 -2.89,0.55 -1.01,0 -2,-0.28 -2.96,-0.55 -1.88,-0.54 -3.62,-1.03 -4.64,1.49 -0.34,0.83 -0.35,2.38 -0.33,3.19l0.03 0.57c0,0.43 0.25,0.83 0.66,1.13 0.45,0.33 1.09,0.54 1.8,0.54l0.54 0 9.81 0 0.53 0c0.7,0 1.33,-0.2 1.78,-0.52l0.02 -0.02c0.41,-0.3 0.67,-0.7 0.67,-1.13l0.02 -0.56c0.02,-0.81 0.01,-2.37 -0.32,-3.2 -0.06,-0.14 -0.12,-0.27 -0.18,-0.39zm-2.93 1.47c0,-0.3 0.24,-0.55 0.55,-0.55 0.3,0 0.55,0.25 0.55,0.55l0 1.6c0,0.3 -0.25,0.55 -0.55,0.55 -0.31,0 -0.55,-0.25 -0.55,-0.55l0 -1.6zm-10.09 0c0,-0.3 0.24,-0.55 0.55,-0.55 0.3,0 0.55,0.25 0.55,0.55l0 1.6c0,0.3 -0.25,0.55 -0.55,0.55 -0.31,0 -0.55,-0.25 -0.55,-0.55l0 -1.6z"/>
 </g>
</svg>
