<?xml version="1.0" encoding="UTF-8"?>
<!DOCTYPE svg PUBLIC "-//W3C//DTD SVG 1.1//EN" "http://www.w3.org/Graphics/SVG/1.1/DTD/svg11.dtd">
<!-- Creator: CorelDRAW 2019 (64-Bit) -->
<svg xmlns="http://www.w3.org/2000/svg" xml:space="preserve" width="48px" height="48px" version="1.1" style="shape-rendering:geometricPrecision; text-rendering:geometricPrecision; image-rendering:optimizeQuality; fill-rule:evenodd; clip-rule:evenodd"
viewBox="0 0 48 48"
 xmlns:xlink="http://www.w3.org/1999/xlink">
 <defs>
  <style type="text/css">
   <![CDATA[
    .fil0 {fill:gray;fill-rule:nonzero}
    .fil1 {fill:#FBE0DC;fill-rule:nonzero}
   ]]>
  </style>
 </defs>
 <g id="Слой_x0020_1">
  <metadata id="CorelCorpID_0Corel-Layer"/>
  <path class="fil0" d="M39.08 36.24l-0.02 0 -0.01 0 -0.01 0 -6.99 0c-0.31,0 -0.55,-0.25 -0.55,-0.55 0,-0.31 0.24,-0.55 0.55,-0.55l5.88 0c-0.25,-0.36 -0.48,-0.75 -0.7,-1.15 -0.47,-0.85 -0.88,-1.77 -1.22,-2.69 -0.55,-1.48 -0.95,-3 -1.22,-4.53 -0.27,-1.61 -0.41,-3.24 -0.41,-4.87l0 -7.26c0,-2.86 -1.16,-5.46 -3.04,-7.34 -1.88,-1.88 -4.47,-3.04 -7.34,-3.04 -2.87,0 -5.46,1.16 -7.34,3.04 -1.88,1.88 -3.04,4.48 -3.04,7.34l0 7.26c0,1.63 -0.14,3.26 -0.41,4.86 -0.27,1.54 -0.67,3.06 -1.22,4.54 -0.32,0.86 -0.7,1.72 -1.13,2.52 -0.24,0.46 -0.51,0.9 -0.79,1.32l5.88 0c0.31,0 0.55,0.24 0.55,0.55 0,0.3 -0.24,0.55 -0.55,0.55l-6.99 0 -0.01 0 -0.02 0 -0.01 0 -1.68 0c-0.66,0 -1.26,0.27 -1.69,0.7 -0.43,0.43 -0.7,1.03 -0.7,1.69 0,0.66 0.27,1.26 0.7,1.69 0.43,0.43 1.03,0.7 1.69,0.7l10.88 0 11.76 0 10.88 0c0.66,0 1.26,-0.27 1.69,-0.7 0.43,-0.43 0.7,-1.03 0.7,-1.69 0,-0.66 -0.27,-1.26 -0.7,-1.69 -0.43,-0.43 -1.03,-0.7 -1.69,-0.7l-1.68 0zm-11.37 -32.53l0 0.06c1.68,0.57 3.18,1.52 4.41,2.75 2.08,2.08 3.37,4.95 3.37,8.12l0 7.26c0,1.57 0.12,3.14 0.39,4.68 0.25,1.48 0.64,2.94 1.16,4.34 0.32,0.86 0.7,1.74 1.15,2.54 0.33,0.6 0.71,1.17 1.13,1.68l1.44 0c0.96,0 1.84,0.39 2.47,1.02 0.63,0.63 1.02,1.51 1.02,2.47 0,0.96 -0.39,1.83 -1.02,2.47 -0.63,0.63 -1.51,1.02 -2.47,1.02l-10.35 0c-0.13,1.55 -0.82,2.95 -1.86,3.99 -1.17,1.17 -2.78,1.89 -4.55,1.89 -1.77,0 -3.38,-0.72 -4.54,-1.88 -1.05,-1.05 -1.74,-2.45 -1.87,-4l-10.35 0c-0.97,0 -1.84,-0.39 -2.47,-1.02 -0.63,-0.63 -1.02,-1.51 -1.02,-2.47 0,-0.96 0.39,-1.84 1.02,-2.47 0.63,-0.63 1.51,-1.02 2.47,-1.02l1.44 0c0.45,-0.55 0.86,-1.17 1.22,-1.84 0.41,-0.76 0.76,-1.58 1.06,-2.38 0.52,-1.4 0.91,-2.86 1.16,-4.34 0.27,-1.54 0.39,-3.11 0.39,-4.68l0 -7.26c0,-3.17 1.29,-6.04 3.37,-8.12 1.23,-1.22 2.73,-2.18 4.41,-2.75l0 -0.06c0,-1.02 0.42,-1.95 1.09,-2.62 0.67,-0.67 1.6,-1.09 2.62,-1.09 1.02,0 1.95,0.42 2.62,1.09 0.67,0.67 1.09,1.6 1.09,2.62zm-1.12 -0.26c-0.06,-0.62 -0.33,-1.17 -0.75,-1.58 -0.47,-0.48 -1.12,-0.77 -1.84,-0.77 -0.72,0 -1.37,0.29 -1.84,0.76 -0.42,0.42 -0.69,0.97 -0.75,1.59 0.83,-0.19 1.7,-0.29 2.59,-0.29 0.89,0 1.76,0.1 2.59,0.29zm-7.89 38.67c0.13,1.25 0.69,2.38 1.53,3.22 0.96,0.96 2.3,1.56 3.77,1.56 1.47,0 2.81,-0.6 3.77,-1.56 0.84,-0.84 1.4,-1.97 1.53,-3.22l-10.6 0z"/>
  <path class="fil1" d="M19.15 17.49c0.77,-2.96 3.23,-5.25 6.27,-5.56 2.09,-0.21 4.61,0.47 7.31,3.16l0 -0.45c0,-4.81 -3.92,-8.72 -8.73,-8.72 -4.81,0 -8.73,3.91 -8.73,8.72l0 7.26c0,1.85 -0.16,3.64 -0.47,5.38l0 0c0,0 2.98,-4.46 4.35,-9.79z"/>
 </g>
</svg>
