<?xml version="1.0" encoding="UTF-8"?>
<!DOCTYPE svg PUBLIC "-//W3C//DTD SVG 1.1//EN" "http://www.w3.org/Graphics/SVG/1.1/DTD/svg11.dtd">
<!-- Creator: CorelDRAW 2019 (64-Bit) -->
<svg xmlns="http://www.w3.org/2000/svg" xml:space="preserve" width="48px" height="48px" version="1.1" style="shape-rendering:geometricPrecision; text-rendering:geometricPrecision; image-rendering:optimizeQuality; fill-rule:evenodd; clip-rule:evenodd"
viewBox="0 0 48 48"
 xmlns:xlink="http://www.w3.org/1999/xlink">
 <defs>
  <style type="text/css">
   <![CDATA[
    .fil0 {fill:gray;fill-rule:nonzero}
    .fil1 {fill:#FBE0DC;fill-rule:nonzero}
   ]]>
  </style>
 </defs>
 <g id="Слой_x0020_1">
  <metadata id="CorelCorpID_0Corel-Layer"/>
  <path class="fil0" d="M41.15 16.54c0,-1.82 -1.86,-3.52 -4.86,-4.78 -3.13,-1.32 -7.48,-2.14 -12.29,-2.14 -4.82,0 -9.16,0.82 -12.3,2.14 -2.99,1.26 -4.85,2.96 -4.85,4.78 0,1.83 1.86,3.52 4.85,4.79 3.14,1.32 7.48,2.13 12.3,2.13 4.81,0 9.16,-0.81 12.29,-2.13 3,-1.27 4.86,-2.96 4.86,-4.79zm-0.59 14.49c0.02,-0.04 0.04,-0.07 0.06,-0.1 0.35,-0.54 0.53,-1.1 0.53,-1.67 0,-0.32 -0.06,-0.64 -0.17,-0.94 -0.11,-0.32 -0.28,-0.64 -0.5,-0.95 -0.17,-0.23 -0.12,-0.56 0.11,-0.73 0.23,-0.16 0.56,-0.11 0.73,0.12 0.28,0.39 0.5,0.8 0.65,1.21 0.15,0.42 0.22,0.85 0.22,1.29 0,0.58 -0.14,1.15 -0.4,1.7 1.13,0.45 2.1,1.28 2.75,2.2 0.7,1.01 1.04,2.15 0.82,3.04l-0.06 0.2c-0.62,1.75 -1.99,1.82 -3.43,1.89l-0.82 0.05c-0.21,0.03 -0.42,0.09 -0.62,0.18 -0.18,0.09 -0.34,0.21 -0.47,0.35l-0.02 0.03c-0.41,0.46 -0.78,1.12 -1.15,1.77 -0.72,1.28 -1.44,2.55 -2.62,2.87 -1.19,0.32 -2.46,-0.43 -3.72,-1.17 -1.01,-0.6 -2.02,-1.19 -2.77,-1.09 -0.75,0.1 -1.58,0.93 -2.4,1.77 -1.02,1.04 -2.06,2.09 -3.28,2.09 -1.23,0 -2.26,-1.04 -3.28,-2.09 -0.82,-0.84 -1.65,-1.67 -2.4,-1.77 -0.75,-0.1 -1.76,0.49 -2.76,1.09l-0.04 0.02c-1.25,0.73 -2.51,1.47 -3.69,1.15 -1.18,-0.32 -1.9,-1.59 -2.62,-2.86 -0.37,-0.67 -0.75,-1.34 -1.17,-1.81 -0.13,-0.14 -0.3,-0.26 -0.47,-0.35l-0.03 -0.01c-0.18,-0.09 -0.38,-0.14 -0.59,-0.17l-0.82 -0.05c-1.44,-0.07 -2.82,-0.14 -3.43,-1.89l-0.06 -0.21c-0.21,-0.89 0.12,-2.02 0.82,-3.03 0.65,-0.92 1.61,-1.75 2.75,-2.2 -0.27,-0.55 -0.41,-1.12 -0.41,-1.7 0,-0.43 0.08,-0.86 0.22,-1.27l0.01 -0.03c0.15,-0.42 0.38,-0.83 0.67,-1.23 0.17,-0.23 0.49,-0.28 0.73,-0.11 0.23,0.17 0.28,0.5 0.11,0.73 -0.23,0.31 -0.4,0.63 -0.52,0.96l-0.01 0.03c-0.11,0.3 -0.16,0.6 -0.16,0.92 0,0.57 0.18,1.13 0.52,1.67 0.03,0.03 0.06,0.06 0.08,0.1 0.77,1.14 2.26,2.17 4.26,3.01 3.13,1.32 7.47,2.14 12.29,2.14 4.81,0 9.16,-0.82 12.29,-2.14 2,-0.84 3.5,-1.88 4.27,-3.01zm-33.79 0.84l-0.04 0.01c-0.99,0.35 -1.85,1.07 -2.41,1.88 -0.54,0.77 -0.81,1.59 -0.67,2.19l0.04 0.12c0.38,1.07 1.41,1.13 2.49,1.18l0.88 0.06c0.32,0.03 0.64,0.12 0.93,0.26l0.04 0.01c0.29,0.15 0.56,0.35 0.78,0.6 0.49,0.55 0.9,1.27 1.31,1.99 0.61,1.08 1.22,2.16 1.98,2.36 0.77,0.2 1.83,-0.42 2.9,-1.04l0.02 -0.02c1.16,-0.69 2.33,-1.37 3.44,-1.22 1.11,0.14 2.05,1.11 3,2.07 0.87,0.89 1.75,1.78 2.54,1.78 0.79,0 1.67,-0.9 2.54,-1.78 0.94,-0.96 1.89,-1.93 3,-2.07 1.11,-0.15 2.27,0.53 3.43,1.22 1.08,0.63 2.16,1.27 2.93,1.06 0.76,-0.2 1.37,-1.29 1.98,-2.37 0.4,-0.7 0.8,-1.41 1.28,-1.95l0.02 -0.03c0.23,-0.25 0.5,-0.45 0.79,-0.6 0.3,-0.14 0.64,-0.24 0.97,-0.27l0.88 -0.06c1.08,-0.05 2.11,-0.11 2.49,-1.19l0.04 -0.11c0.14,-0.6 -0.13,-1.42 -0.67,-2.19 -0.56,-0.8 -1.4,-1.52 -2.39,-1.87l-0.06 -0.02c-0.94,1.21 -2.5,2.28 -4.53,3.13 -3.27,1.38 -7.76,2.23 -12.7,2.23 -4.95,0 -9.44,-0.85 -12.7,-2.23 -2.03,-0.85 -3.6,-1.92 -4.53,-3.13zm34.9 -13.39l6.12 4.48c0.23,0.17 0.28,0.5 0.11,0.73 -0.1,0.14 -0.26,0.22 -0.42,0.22 -0.49,0.01 -15.37,0.45 -23.07,10.32 -0.18,0.23 -0.51,0.27 -0.74,0.09l-0.09 -0.09c-7.82,-10.02 -23.03,-10.32 -23.07,-10.32 -0.29,-0.01 -0.52,-0.25 -0.51,-0.54 0.01,-0.17 0.09,-0.31 0.21,-0.41l6.12 -4.48c-0.35,-0.62 -0.53,-1.27 -0.53,-1.94 0,-2.28 2.11,-4.31 5.5,-5.74 3.26,-1.38 7.75,-2.23 12.7,-2.23 4.94,0 9.44,0.85 12.7,2.23 3.39,1.43 5.49,3.46 5.49,5.74 0,0.67 -0.18,1.32 -0.52,1.94zm-34.75 0.86l-4.93 3.61c4,0.36 15.31,2.06 22.01,10.13 6.7,-8.07 18.01,-9.77 22.01,-10.13l-4.93 -3.61c-0.95,1.13 -2.46,2.14 -4.38,2.95 -3.26,1.37 -7.76,2.22 -12.7,2.22 -4.95,0 -9.44,-0.85 -12.7,-2.22 -1.93,-0.81 -3.43,-1.82 -4.38,-2.95zm35.22 21.29c-0.17,-0.23 -0.12,-0.56 0.11,-0.73 0.24,-0.17 0.56,-0.12 0.73,0.12 0.31,0.42 0.56,0.87 0.72,1.32 0.16,0.45 0.24,0.92 0.24,1.39 0,2.59 -2.34,3.9 -6.12,4.56 -3.56,0.62 -8.44,0.66 -13.82,0.66 -5.38,0 -10.26,-0.04 -13.82,-0.66 -3.78,-0.66 -6.12,-1.97 -6.12,-4.56 0,-0.47 0.08,-0.95 0.25,-1.4l0.02 -0.05c0.16,-0.45 0.4,-0.88 0.7,-1.29 0.17,-0.23 0.5,-0.28 0.73,-0.11 0.23,0.17 0.28,0.5 0.11,0.73 -0.25,0.34 -0.44,0.68 -0.57,1.03l-0.01 0.04c-0.12,0.34 -0.19,0.69 -0.19,1.05 0,1.94 2.01,2.97 5.26,3.53 3.46,0.6 8.29,0.65 13.64,0.65 5.34,0 10.18,-0.05 13.64,-0.65 3.25,-0.56 5.26,-1.59 5.26,-3.53 0,-0.35 -0.07,-0.71 -0.19,-1.05 -0.12,-0.35 -0.32,-0.71 -0.57,-1.05z"/>
  <path class="fil1" d="M35.69 13.2c-1.28,-0.53 -2.73,-0.96 -4.3,-1.29 0.83,0.64 1.3,1.3 1.3,1.87 0,2.14 -6.22,5.36 -15.58,5.36 -2.62,0 -5.13,-0.25 -7.39,-0.72 0.66,0.51 1.54,1.02 2.59,1.46 3.09,1.3 7.24,2.02 11.69,2.02 9.37,0 15.58,-3.23 15.58,-5.36 0,-1.03 -1.53,-2.34 -3.89,-3.34z"/>
 </g>
</svg>
