<?xml version="1.0" encoding="UTF-8"?>
<!DOCTYPE svg PUBLIC "-//W3C//DTD SVG 1.1//EN" "http://www.w3.org/Graphics/SVG/1.1/DTD/svg11.dtd">
<!-- Creator: CorelDRAW 2019 (64-Bit) -->
<svg xmlns="http://www.w3.org/2000/svg" xml:space="preserve" width="48px" height="48px" version="1.1" style="shape-rendering:geometricPrecision; text-rendering:geometricPrecision; image-rendering:optimizeQuality; fill-rule:evenodd; clip-rule:evenodd"
viewBox="0 0 48 48"
 xmlns:xlink="http://www.w3.org/1999/xlink">
 <defs>
  <style type="text/css">
   <![CDATA[
    .fil0 {fill:gray;fill-rule:nonzero}
    .fil1 {fill:#FBE0DC;fill-rule:nonzero}
   ]]>
  </style>
 </defs>
 <g id="Слой_x0020_1">
  <metadata id="CorelCorpID_0Corel-Layer"/>
  <g id="_1753738697184">
   <path class="fil0" d="M36.49 10.83c0.35,0 0.64,0.28 0.64,0.64 0,0.35 -0.29,0.64 -0.64,0.64l-27.47 0 6.32 19.39 29 -0.01 2.41 -7.4c0.11,-0.33 0.47,-0.52 0.81,-0.41 0.33,0.11 0.52,0.47 0.41,0.81l-2.54 7.8c-0.07,0.28 -0.32,0.49 -0.62,0.49l-29.9 0c-0.28,0.02 -0.55,-0.16 -0.65,-0.44l-6.72 -20.63 0 -0.01 0 0 -0.01 -0.01 0 -0.01 0 -0.01 -1.63 -4.28c-0.24,-0.64 -0.68,-1.18 -1.22,-1.55 -0.54,-0.37 -1.19,-0.58 -1.88,-0.58l-2.16 0c-0.35,0 -0.64,-0.29 -0.64,-0.65 0,-0.35 0.29,-0.64 0.64,-0.64l2.16 0c0.95,0 1.86,0.3 2.61,0.82 0.75,0.51 1.35,1.26 1.69,2.15l1.48 3.89 27.91 0zm-18.85 26.46c-0.36,0 -0.65,-0.28 -0.65,-0.64 0,-0.35 0.29,-0.64 0.65,-0.64l24.39 0c0.36,0 0.64,0.29 0.64,0.64 0,0.36 -0.28,0.64 -0.64,0.64l-24.39 0zm24.12 6.66c0,1.08 -0.44,2.06 -1.15,2.76 -0.71,0.71 -1.68,1.14 -2.76,1.14 -1.08,0 -2.06,-0.43 -2.77,-1.14l-0.03 -0.04c-0.69,-0.7 -1.11,-1.66 -1.11,-2.72 0,-1.08 0.44,-2.06 1.14,-2.76 0.71,-0.71 1.69,-1.15 2.77,-1.15 1.07,0 2.05,0.44 2.76,1.15 0.71,0.7 1.15,1.68 1.15,2.76zm-2.06 1.85c0.48,-0.47 0.77,-1.12 0.77,-1.85 0,-0.72 -0.29,-1.38 -0.77,-1.85 -0.47,-0.48 -1.13,-0.77 -1.85,-0.77 -0.73,0 -1.38,0.29 -1.86,0.77 -0.47,0.47 -0.77,1.13 -0.77,1.85 0,0.71 0.29,1.35 0.74,1.82l0.03 0.03c0.48,0.48 1.13,0.77 1.86,0.77 0.72,0 1.38,-0.29 1.85,-0.77zm-13.97 -1.85c0,1.08 -0.44,2.05 -1.15,2.76 -0.7,0.71 -1.68,1.14 -2.76,1.14 -1.07,0 -2.05,-0.43 -2.75,-1.14l-0.04 -0.04c-0.68,-0.7 -1.11,-1.66 -1.11,-2.72 0,-1.07 0.44,-2.05 1.15,-2.76 0.7,-0.71 1.68,-1.15 2.75,-1.15 1.08,0 2.06,0.44 2.77,1.15 0.7,0.7 1.14,1.68 1.14,2.76zm-2.05 1.85c0.47,-0.47 0.77,-1.12 0.77,-1.85 0,-0.72 -0.3,-1.38 -0.77,-1.85 -0.48,-0.48 -1.13,-0.77 -1.86,-0.77 -0.72,0 -1.37,0.29 -1.84,0.76 -0.48,0.48 -0.77,1.14 -0.77,1.86 0,0.71 0.28,1.35 0.73,1.82l0.03 0.03c0.48,0.48 1.13,0.77 1.85,0.77 0.73,0 1.38,-0.29 1.86,-0.77z"/>
   <path class="fil1" d="M16.74 29.57l13.1 0 4.69 0c-3.48,-1.58 -6.93,-3.23 -10.18,-5.25 -0.93,-0.59 -1.85,-1.23 -2.51,-2.12 -0.65,-0.9 -0.95,-2.1 -0.53,-3.12 0.48,-1.14 1.69,-1.73 2.7,-2.43 1.03,-0.7 1.91,-1.6 2.62,-2.61l-14.95 0 5.06 15.53z"/>
  </g>
 </g>
</svg>
