<?xml version="1.0" encoding="UTF-8"?>
<!DOCTYPE svg PUBLIC "-//W3C//DTD SVG 1.1//EN" "http://www.w3.org/Graphics/SVG/1.1/DTD/svg11.dtd">
<!-- Creator: CorelDRAW 2019 (64-Bit) -->
<svg xmlns="http://www.w3.org/2000/svg" xml:space="preserve" width="48px" height="48px" version="1.1" style="shape-rendering:geometricPrecision; text-rendering:geometricPrecision; image-rendering:optimizeQuality; fill-rule:evenodd; clip-rule:evenodd"
viewBox="0 0 48 48"
 xmlns:xlink="http://www.w3.org/1999/xlink">
 <defs>
  <style type="text/css">
   <![CDATA[
    .fil0 {fill:gray;fill-rule:nonzero}
    .fil1 {fill:#FBE0DC;fill-rule:nonzero}
   ]]>
  </style>
 </defs>
 <g id="Слой_x0020_1">
  <metadata id="CorelCorpID_0Corel-Layer"/>
  <g id="_1753152773712">
   <path class="fil0" d="M31.08 16.41c0.3,0 0.55,0.24 0.55,0.54 0,0.3 -0.25,0.55 -0.55,0.55l-23.4 0 5.38 16.51 24.7 0 2.05 -6.3c0.1,-0.29 0.41,-0.45 0.69,-0.36 0.29,0.1 0.45,0.41 0.35,0.69l-2.16 6.65c-0.06,0.24 -0.28,0.41 -0.53,0.41l-25.46 0c-0.24,0.02 -0.47,-0.13 -0.55,-0.37l-5.73 -17.57 0 -0.01 0 -0.01 0 0 -0.01 -0.01 -1.38 -3.65c-0.21,-0.55 -0.58,-1.01 -1.04,-1.32 -0.46,-0.32 -1.02,-0.5 -1.61,-0.5l-1.83 0c-0.3,0 -0.55,-0.24 -0.55,-0.55 0,-0.3 0.25,-0.54 0.55,-0.54l1.83 0c0.81,0 1.59,0.25 2.23,0.69 0.64,0.44 1.15,1.08 1.44,1.83l1.26 3.32 23.77 0zm2.9 2.1c0,1.78 0.73,3.4 1.89,4.56 1.17,1.17 2.79,1.9 4.58,1.9 1.78,0 3.4,-0.73 4.57,-1.89 1.16,-1.17 1.89,-2.79 1.89,-4.57 0,-1.79 -0.73,-3.41 -1.89,-4.58 -1.17,-1.17 -2.79,-1.89 -4.57,-1.89 -1.79,0 -3.41,0.73 -4.58,1.89 -1.16,1.17 -1.89,2.79 -1.89,4.58zm1.13 5.34c-1.37,-1.37 -2.22,-3.26 -2.22,-5.34 0,-2.09 0.85,-3.98 2.22,-5.35 1.36,-1.37 3.26,-2.21 5.34,-2.21 2.08,0 3.97,0.84 5.34,2.21 1.36,1.37 2.21,3.26 2.21,5.35 0,2.08 -0.85,3.97 -2.21,5.34 -1.37,1.36 -3.26,2.21 -5.34,2.21 -2.08,0 -3.98,-0.85 -5.34,-2.21zm-20.09 15.1c-0.3,0 -0.55,-0.25 -0.55,-0.55 0,-0.3 0.25,-0.55 0.55,-0.55l20.78 0c0.3,0 0.54,0.25 0.54,0.55 0,0.3 -0.24,0.55 -0.54,0.55l-20.78 0zm20.54 5.67c0,0.92 -0.37,1.75 -0.97,2.35 -0.6,0.6 -1.44,0.97 -2.36,0.97 -0.92,0 -1.75,-0.37 -2.35,-0.97l-0.03 -0.04c-0.58,-0.59 -0.95,-1.41 -0.95,-2.31 0,-0.92 0.38,-1.76 0.98,-2.36 0.6,-0.6 1.44,-0.97 2.35,-0.97 0.92,0 1.75,0.37 2.36,0.97 0.6,0.6 0.97,1.44 0.97,2.36zm-1.75 1.58c0.41,-0.41 0.66,-0.97 0.66,-1.58 0,-0.62 -0.25,-1.18 -0.66,-1.58 -0.4,-0.41 -0.96,-0.66 -1.58,-0.66 -0.61,0 -1.17,0.25 -1.58,0.66 -0.4,0.4 -0.65,0.96 -0.65,1.58 0,0.6 0.24,1.15 0.62,1.55l0.03 0.03c0.41,0.4 0.97,0.65 1.58,0.65 0.62,0 1.18,-0.25 1.58,-0.65zm-11.9 -1.58c0,0.91 -0.37,1.75 -0.97,2.35 -0.6,0.6 -1.44,0.97 -2.35,0.97 -0.92,0 -1.75,-0.37 -2.35,-0.97l-0.03 -0.04c-0.58,-0.6 -0.94,-1.41 -0.94,-2.31 0,-0.92 0.37,-1.75 0.97,-2.35 0.6,-0.61 1.43,-0.98 2.35,-0.98 0.91,0 1.75,0.37 2.35,0.97 0.6,0.6 0.97,1.44 0.97,2.36zm-1.74 1.58c0.4,-0.41 0.65,-0.97 0.65,-1.58 0,-0.62 -0.25,-1.18 -0.65,-1.58 -0.41,-0.41 -0.97,-0.66 -1.58,-0.66 -0.62,0 -1.18,0.25 -1.58,0.66 -0.4,0.4 -0.65,0.96 -0.65,1.58 0,0.6 0.24,1.15 0.63,1.55l0.02 0.02c0.41,0.41 0.96,0.66 1.58,0.66 0.61,0 1.17,-0.25 1.58,-0.65z"/>
   <path class="fil1" d="M14.26 32.37l11.15 0 3.99 0c-2.96,-1.35 -5.9,-2.75 -8.66,-4.47 -0.79,-0.5 -1.58,-1.05 -2.14,-1.81 -0.55,-0.76 -0.81,-1.79 -0.45,-2.66 0.41,-0.96 1.44,-1.47 2.3,-2.07 0.87,-0.59 1.63,-1.36 2.23,-2.22l-12.73 0 4.31 13.23z"/>
  </g>
 </g>
</svg>
