<?xml version="1.0" encoding="UTF-8"?>
<!DOCTYPE svg PUBLIC "-//W3C//DTD SVG 1.1//EN" "http://www.w3.org/Graphics/SVG/1.1/DTD/svg11.dtd">
<!-- Creator: CorelDRAW 2019 (64-Bit) -->
<svg xmlns="http://www.w3.org/2000/svg" xml:space="preserve" width="48px" height="48px" version="1.1" style="shape-rendering:geometricPrecision; text-rendering:geometricPrecision; image-rendering:optimizeQuality; fill-rule:evenodd; clip-rule:evenodd"
viewBox="0 0 48 48"
 xmlns:xlink="http://www.w3.org/1999/xlink">
 <defs>
  <style type="text/css">
   <![CDATA[
    .fil0 {fill:gray;fill-rule:nonzero}
    .fil1 {fill:#C9DADD;fill-rule:nonzero}
    .fil2 {fill:#FBE0DC;fill-rule:nonzero}
   ]]>
  </style>
 </defs>
 <g id="Слой_x0020_1">
  <metadata id="CorelCorpID_0Corel-Layer"/>
  <path class="fil0" d="M17.74 36.14c-0.29,0 -0.52,-0.23 -0.52,-0.52 0,-0.29 0.23,-0.53 0.52,-0.53l20.94 0 0.04 0c0.78,-0.01 1.49,-0.33 2,-0.84l0.03 -0.03c0.5,-0.52 0.82,-1.23 0.82,-2.01l0 -7.27 -6.25 0c-0.46,0 -0.88,-0.19 -1.18,-0.49 -0.3,-0.29 -0.48,-0.71 -0.48,-1.17l0 -4.36c0,-0.46 0.18,-0.88 0.48,-1.18 0.3,-0.3 0.72,-0.48 1.18,-0.48l6.25 0 0 -7.27c0,-0.8 -0.33,-1.52 -0.85,-2.04 -0.51,-0.51 -1.22,-0.83 -2,-0.84l-0.04 0 -24.47 0c-0.8,0 -1.52,0.32 -2.04,0.84 -0.52,0.52 -0.85,1.24 -0.85,2.04l0 17.09c0,0.13 0.02,0.26 0.05,0.38 0.02,0.09 0.06,0.18 0.11,0.26l0.07 0.11c0.13,0.16 0.28,0.27 0.43,0.31 0.15,0.03 0.31,0.01 0.47,-0.08l0.09 -0.07c2.39,-1.75 3.79,-3.6 4.83,-4.97 0.06,-0.07 0.2,-0.23 0.24,-0.31 0.41,-0.49 0.99,-0.79 1.59,-0.86 0.6,-0.08 1.22,0.08 1.74,0.47l0.16 0.12c0.62,0.55 0.9,1.11 0.88,1.76 -0.02,0.6 -0.29,1.23 -0.79,1.99l-0.02 0.03c-0.4,0.59 -0.82,1.19 -1.23,1.75 -0.46,0.64 -0.9,1.25 -1.23,1.77l-0.01 0.02c-0.32,0.5 -0.6,1.02 -0.86,1.54 -0.26,0.54 -0.5,1.1 -0.73,1.66 -0.65,1.62 -1.47,2.85 -2.34,3.77 -1.16,1.25 -2.4,1.97 -3.38,2.37l-0.03 0.01c-0.45,0.19 -0.82,0.51 -1.08,0.9 -0.27,0.4 -0.42,0.89 -0.42,1.4 0,0.3 -0.24,0.53 -0.53,0.53 -0.29,0 -0.52,-0.23 -0.52,-0.52 0,-0.72 0.21,-1.41 0.6,-1.99 0.37,-0.56 0.9,-1.01 1.54,-1.29l0.04 -0.01c0.88,-0.36 1.98,-0.99 3.02,-2.11 0.78,-0.84 1.53,-1.96 2.13,-3.45 0.24,-0.59 0.49,-1.17 0.76,-1.73 0.28,-0.57 0.59,-1.12 0.92,-1.65 0.35,-0.54 0.8,-1.18 1.27,-1.83 0.42,-0.57 0.85,-1.17 1.2,-1.71l0.03 -0.04c0.39,-0.59 0.61,-1.06 0.62,-1.44 0.01,-0.32 -0.16,-0.62 -0.53,-0.94l-0.11 -0.09c-0.29,-0.21 -0.64,-0.29 -0.98,-0.25 -0.34,0.04 -0.67,0.21 -0.9,0.49l-0.22 0.28c-1.08,1.41 -2.53,3.33 -5.03,5.17l-0.16 0.11c-0.42,0.26 -0.87,0.31 -1.28,0.21 -0.39,-0.1 -0.74,-0.34 -1,-0.67l-0.13 -0.19c-0.11,-0.18 -0.19,-0.38 -0.25,-0.57 -0.05,-0.21 -0.07,-0.43 -0.07,-0.64l0 -8.62 -0.23 0.13c-1.73,0.96 -3.32,2.72 -4.63,4.75 -1.54,2.4 -2.68,5.17 -3.21,7.48 -0.39,1.7 -0.68,3.11 -0.87,4.72 -0.19,1.59 -0.29,3.39 -0.29,5.88 0,0.29 -0.24,0.52 -0.53,0.52 -0.28,0 -0.52,-0.23 -0.52,-0.52 0,-2.53 0.1,-4.36 0.3,-6.01 0.2,-1.63 0.49,-3.07 0.89,-4.82 0.55,-2.42 1.74,-5.32 3.35,-7.82 1.4,-2.16 3.11,-4.04 5,-5.09l0.74 -0.41 0 -7.28c0,-1.09 0.44,-2.07 1.15,-2.78 0.71,-0.71 1.69,-1.15 2.78,-1.15l24.47 0 0.05 0 3.63 0c1.07,0 2.04,0.42 2.75,1.12l0.03 0.03c0.71,0.71 1.15,1.69 1.15,2.78l0 7.27 0.05 0c0.46,0 0.87,0.18 1.17,0.48 0.3,0.3 0.49,0.72 0.49,1.18l0 4.36c0,0.46 -0.19,0.88 -0.49,1.17 -0.3,0.3 -0.71,0.49 -1.17,0.49l-0.05 0 0 7.27c0,1.08 -0.44,2.07 -1.15,2.78 -0.71,0.71 -1.7,1.15 -2.78,1.15l-3.63 0 -0.05 0 -20.94 0zm23.62 -29.03l0.1 0.1c0.71,0.71 1.16,1.69 1.16,2.78l0 7.27 2.62 0 0 -7.27c0,-0.8 -0.32,-1.52 -0.84,-2.04l-0.03 -0.03c-0.52,-0.5 -1.23,-0.81 -2.01,-0.81l-1 0zm1.26 17.83l0 7.27c0,1.07 -0.43,2.04 -1.13,2.75l-0.03 0.03 -0.1 0.1 1 0c0.8,0 1.52,-0.32 2.04,-0.84 0.52,-0.52 0.84,-1.25 0.84,-2.04l0 -7.27 -2.62 0zm3.72 -6.63l-0.57 0 -3.68 0 -6.77 0c-0.17,0 -0.33,0.06 -0.43,0.17 -0.11,0.11 -0.18,0.27 -0.18,0.44l0 4.36c0,0.17 0.07,0.32 0.18,0.43 0.1,0.11 0.26,0.18 0.43,0.18l6.77 0 3.68 0 0.57 0c0.17,0 0.32,-0.07 0.43,-0.18 0.11,-0.11 0.18,-0.26 0.18,-0.43l0 -4.36c0,-0.17 -0.07,-0.33 -0.18,-0.44 -0.11,-0.11 -0.26,-0.17 -0.43,-0.17z"/>
  <path class="fil1" d="M39.22 21.1c0,-0.82 -0.66,-1.48 -1.47,-1.48 -0.82,0 -1.48,0.66 -1.48,1.48 0,0.82 0.66,1.48 1.48,1.48 0.81,0 1.47,-0.66 1.47,-1.48z"/>
  <g>
   <path class="fil2" d="M14.54 24c0,0.29 -0.24,0.52 -0.53,0.52 -0.29,0 -0.52,-0.23 -0.52,-0.52l1.05 0zm-1.05 -0.21l1.05 0 0 0.21 -1.05 0 0 -0.21zm0 0c0,-0.29 0.23,-0.52 0.52,-0.52 0.29,0 0.53,0.23 0.53,0.52l-1.05 0zm1.05 -2.71c0,0.28 -0.24,0.52 -0.53,0.52 -0.29,0 -0.52,-0.24 -0.52,-0.52l1.05 0zm-1.05 -0.21l1.05 0 0 0.21 -1.05 0 0 -0.21zm0 0c0,-0.29 0.23,-0.53 0.52,-0.53 0.29,0 0.53,0.24 0.53,0.53l-1.05 0zm1.05 -2.72c0,0.29 -0.24,0.52 -0.53,0.52 -0.29,0 -0.52,-0.23 -0.52,-0.52l1.05 0zm-1.05 -0.21l1.05 0 0 0.21 -1.05 0 0 -0.21zm0 0c0,-0.29 0.23,-0.52 0.52,-0.52 0.29,0 0.53,0.23 0.53,0.52l-1.05 0zm1.05 -2.72c0,0.29 -0.24,0.53 -0.53,0.53 -0.29,0 -0.52,-0.24 -0.52,-0.53l1.05 0zm-1.05 -0.21l1.05 0 0 0.21 -1.05 0 0 -0.21zm0 0c0,-0.29 0.23,-0.52 0.52,-0.52 0.29,0 0.53,0.23 0.53,0.52l-1.05 0zm1.05 -2.71c0,0.28 -0.24,0.52 -0.53,0.52 -0.29,0 -0.52,-0.24 -0.52,-0.52l1.05 0zm0 -0.12l0 0.12 -1.05 0 0 -0.12 1.05 0zm-1.05 0c0,-0.29 0.23,-0.52 0.52,-0.52 0.29,0 0.53,0.23 0.53,0.52l-1.05 0z"/>
  </g>
 </g>
</svg>
