<?xml version="1.0" encoding="UTF-8"?>
<!DOCTYPE svg PUBLIC "-//W3C//DTD SVG 1.1//EN" "http://www.w3.org/Graphics/SVG/1.1/DTD/svg11.dtd">
<!-- Creator: CorelDRAW 2019 (64-Bit) -->
<svg xmlns="http://www.w3.org/2000/svg" xml:space="preserve" width="48px" height="48px" version="1.1" style="shape-rendering:geometricPrecision; text-rendering:geometricPrecision; image-rendering:optimizeQuality; fill-rule:evenodd; clip-rule:evenodd"
viewBox="0 0 48 48"
 xmlns:xlink="http://www.w3.org/1999/xlink">
 <defs>
  <style type="text/css">
   <![CDATA[
    .fil2 {fill:gray;fill-rule:nonzero}
    .fil1 {fill:#C9DADD;fill-rule:nonzero}
    .fil0 {fill:#FBE0DC;fill-rule:nonzero}
   ]]>
  </style>
 </defs>
 <g id="Слой_x0020_1">
  <metadata id="CorelCorpID_0Corel-Layer"/>
  <path class="fil0" d="M11.33 33.69l3.06 0 0 -13.93 -3.06 0 0 13.93zm16.67 0l3.07 0 0 -13.93 -3.07 0 0 13.93z"/>
  <path class="fil1" d="M19.67 33.69l3.07 0 0 -7.53 -3.07 0 0 7.53zm16.67 0l3.06 0 0 -8.6 -3.06 0 0 8.6z"/>
  <path class="fil2" d="M12.54 15.13c-0.24,-0.18 -0.28,-0.52 -0.1,-0.76 0.18,-0.24 0.52,-0.28 0.76,-0.1l8 6.14 8.01 -6.14c0.19,-0.15 0.45,-0.15 0.64,-0.01l8.3 5.3c0.25,0.16 0.33,0.5 0.17,0.75 -0.16,0.25 -0.49,0.32 -0.74,0.16l-8.02 -5.11 -8.02 6.16c-0.19,0.15 -0.47,0.16 -0.67,0l-8.33 -6.39zm-2.19 25.41c0,-0.3 0.24,-0.54 0.54,-0.54 0.3,0 0.54,0.24 0.54,0.54l0 3.21 4.55 0 0 -3.21c0,-0.3 0.24,-0.54 0.54,-0.54 0.3,0 0.54,0.24 0.54,0.54l0 3.21 4.55 0 0 -3.21c0,-0.3 0.25,-0.54 0.54,-0.54 0.3,0 0.54,0.24 0.54,0.54l0 3.21 4.56 0 0 -3.21c0,-0.3 0.24,-0.54 0.54,-0.54 0.3,0 0.54,0.24 0.54,0.54l0 3.21 4.56 0 0 -3.21c0,-0.3 0.24,-0.54 0.54,-0.54 0.3,0 0.54,0.24 0.54,0.54l0 3.21 4.55 0 0 -3.21c0,-0.3 0.24,-0.54 0.54,-0.54 0.3,0 0.54,0.24 0.54,0.54l0 3.21 6.55 0 -2.23 -2.23c-0.22,-0.21 -0.22,-0.56 0,-0.77 0.21,-0.21 0.55,-0.21 0.76,0l3.16 3.16 0.01 0.01 0.01 0.01 0 0 0.01 0.01 0 0.01 0.01 0 0.01 0.01 0 0.01 0 0 0.01 0.02 0.01 0 0 0.01 0.01 0.01 0 0 0 0.01 0.01 0.01 0 0.01 0.01 0 0 0.02 0.01 0 0 0.01 0 0.01 0.01 0 0 0.01 0 0.01 0.01 0.01 0 0.01 0 0.01 0 0 0.01 0.01 0 0.01 0 0.01 0 0.01 0.01 0.01 0 0.01 0 0 0 0.02 0 0 0 0.01 0.01 0.01 0 0.01 0 0 0 0.02 0 0.01 0 0 0 0.01 0 0.01 0 0.01 0 0.01 0 0.01 0 0 0 0.02 0 0.01 0 0 0 0.01 -0.01 0.01 0 0.01 0 0.01 0 0.01 0 0 0 0.01 -0.01 0.01 0 0.01 0 0.01 0 0.01 -0.01 0.01 0 0 0 0.02 -0.01 0.01 0 0.01 0 0.01 -0.01 0 0 0.01 0 0.01 -0.01 0.01 0 0.01 -0.01 0 0 0.01 -0.01 0.01 0 0.01 0 0 -0.01 0.01 0 0.01 -0.01 0.01 -0.02 0.03 -0.01 0 0 0.01 -0.01 0.01 0 0 -0.02 0.02 0 0 -0.02 0.02 -3.14 3.14c-0.21,0.21 -0.55,0.21 -0.76,0 -0.21,-0.21 -0.21,-0.55 0,-0.76l2.23 -2.24 -7.09 0 -5.63 0 -5.64 0 -5.64 0 -5.63 0 -5.63 0 -7.19 0c-0.3,0 -0.54,-0.25 -0.54,-0.55l0 -7.05 0 -5.64 0 -5.63 0 -5.63 0 -5.64 0 -5.64 0 -7.21 -2.24 2.24c-0.21,0.21 -0.55,0.21 -0.76,0 -0.21,-0.21 -0.21,-0.55 0,-0.77l3.13 -3.13 0.01 -0.01 0.02 -0.02 0 0 0 -0.01 0.02 0 0 -0.01 0.01 0 0.02 -0.02 0.01 -0.01 0 0 0.01 -0.01 0.01 0 0 -0.01 0.01 0 0.04 -0.02 0.01 -0.01 0.02 -0.01 0.01 0 0 -0.01 0.02 0 0 0 0.01 0 0.01 -0.01 0.01 0 0 0 0.02 -0.01c0.03,-0.01 0.06,-0.01 0.1,-0.01l0.01 0 0 -0.01 0.01 0 0.02 0 0 0c0.06,0 0.11,0.01 0.16,0.03l0.02 0 0 0.01 0.01 0 0.01 0 0.01 0.01 0 0c0.05,0.02 0.09,0.04 0.13,0.08l0 0 0.01 0 0.03 0.03 0.02 0.03 3.15 3.13c0.21,0.21 0.21,0.56 0,0.77 -0.21,0.21 -0.55,0.21 -0.77,0l-2.24 -2.24 0 6.67 3.22 0c0.3,0 0.54,0.24 0.54,0.54 0,0.3 -0.24,0.54 -0.54,0.54l-3.22 0 0 4.55 3.22 0c0.3,0 0.54,0.25 0.54,0.55 0,0.3 -0.24,0.54 -0.54,0.54l-3.22 0 0 4.55 3.22 0c0.3,0 0.54,0.25 0.54,0.55 0,0.29 -0.24,0.54 -0.54,0.54l-3.22 0 0 4.55 3.22 0c0.3,0 0.54,0.24 0.54,0.54 0,0.3 -0.24,0.54 -0.54,0.54l-3.22 0 0 4.55 3.22 0c0.3,0 0.54,0.24 0.54,0.54 0,0.3 -0.24,0.54 -0.54,0.54l-3.22 0 0 4.56 3.22 0c0.3,0 0.54,0.24 0.54,0.54 0,0.3 -0.24,0.54 -0.54,0.54l-3.22 0 0 5.97 6.11 0 0 -3.21z"/>
 </g>
</svg>
