<?xml version="1.0" encoding="UTF-8"?>
<!DOCTYPE svg PUBLIC "-//W3C//DTD SVG 1.1//EN" "http://www.w3.org/Graphics/SVG/1.1/DTD/svg11.dtd">
<!-- Creator: CorelDRAW 2019 (64-Bit) -->
<svg xmlns="http://www.w3.org/2000/svg" xml:space="preserve" width="48px" height="48px" version="1.1" style="shape-rendering:geometricPrecision; text-rendering:geometricPrecision; image-rendering:optimizeQuality; fill-rule:evenodd; clip-rule:evenodd"
viewBox="0 0 48 48"
 xmlns:xlink="http://www.w3.org/1999/xlink">
 <defs>
  <style type="text/css">
   <![CDATA[
    .fil0 {fill:gray;fill-rule:nonzero}
    .fil1 {fill:#C9DADD;fill-rule:nonzero}
    .fil2 {fill:#FBE0DC;fill-rule:nonzero}
   ]]>
  </style>
 </defs>
 <g id="Слой_x0020_1">
  <metadata id="CorelCorpID_0Corel-Layer"/>
  <path class="fil0" d="M0.57 44.91c-0.31,0 -0.57,-0.25 -0.57,-0.56 0,-0.3 0.26,-0.55 0.57,-0.55l46.86 0c0.31,0 0.57,0.25 0.57,0.55 0,0.31 -0.26,0.56 -0.57,0.56l-46.86 0zm31.63 -31.71l7.69 -4.38c-0.13,-0.41 -0.21,-0.85 -0.21,-1.3 0,-1.13 0.47,-2.17 1.22,-2.91 0.75,-0.75 1.8,-1.21 2.94,-1.21 1.15,0 2.19,0.46 2.94,1.21 0.75,0.74 1.22,1.78 1.22,2.91 0,1.14 -0.47,2.17 -1.22,2.92 -0.75,0.75 -1.79,1.21 -2.94,1.21 -1.14,0 -2.18,-0.46 -2.94,-1.21 -0.19,-0.19 -0.36,-0.4 -0.51,-0.62l-7.65 4.36c0.08,0.24 0.12,0.5 0.12,0.77 0,0.75 -0.31,1.42 -0.8,1.91 -0.49,0.49 -1.18,0.8 -1.93,0.8 -0.75,0 -1.43,-0.31 -1.92,-0.8 -0.49,-0.49 -0.8,-1.16 -0.8,-1.91 0,-0.29 0.05,-0.57 0.14,-0.83l-7.59 -4.73c-0.17,0.27 -0.37,0.52 -0.59,0.74 -0.75,0.75 -1.8,1.21 -2.94,1.21 -1.15,0 -2.19,-0.46 -2.94,-1.21 -0.11,-0.11 -0.22,-0.23 -0.32,-0.35l-8.03 4.84c0.19,0.38 0.3,0.8 0.3,1.25 0,0.75 -0.3,1.42 -0.79,1.91 -0.5,0.49 -1.18,0.79 -1.93,0.79 -0.75,0 -1.43,-0.3 -1.92,-0.79 -0.49,-0.49 -0.8,-1.16 -0.8,-1.91 0,-0.74 0.31,-1.42 0.8,-1.91 0.49,-0.49 1.17,-0.79 1.92,-0.79 0.64,0 1.23,0.22 1.7,0.59l8.18 -4.93c-0.21,-0.5 -0.33,-1.04 -0.33,-1.61 0,-1.14 0.47,-2.17 1.22,-2.92 0.75,-0.75 1.79,-1.21 2.94,-1.21 1.14,0 2.19,0.46 2.94,1.21 0.75,0.75 1.22,1.78 1.22,2.92 0,0.4 -0.06,0.78 -0.17,1.15l7.69 4.78 0.1 -0.11c0.49,-0.49 1.17,-0.79 1.92,-0.79 0.75,0 1.44,0.3 1.93,0.8l0.14 0.15zm-27.88 2.67c0,-0.44 -0.18,-0.84 -0.47,-1.12 -0.28,-0.29 -0.68,-0.46 -1.13,-0.46 -0.44,0 -0.84,0.17 -1.13,0.46 -0.29,0.28 -0.47,0.68 -0.47,1.12 0,0.44 0.18,0.84 0.47,1.13 0.29,0.28 0.69,0.46 1.13,0.46 0.44,0 0.84,-0.18 1.13,-0.47 0.29,-0.28 0.47,-0.68 0.47,-1.12zm27.42 -0.92c0,-0.44 -0.19,-0.83 -0.47,-1.12 -0.29,-0.29 -0.69,-0.46 -1.14,-0.46 -0.44,0 -0.84,0.17 -1.13,0.46 -0.28,0.28 -0.46,0.68 -0.46,1.12 0,0.44 0.18,0.84 0.46,1.13 0.29,0.28 0.69,0.46 1.13,0.46 0.45,0 0.85,-0.18 1.14,-0.46 0.28,-0.29 0.47,-0.69 0.47,-1.13zm15.14 -7.43c0,-0.83 -0.34,-1.58 -0.89,-2.13 -0.55,-0.54 -1.31,-0.88 -2.15,-0.88 -0.84,0 -1.6,0.34 -2.14,0.88 -0.55,0.55 -0.89,1.3 -0.89,2.13 0,0.84 0.34,1.59 0.88,2.13 0.55,0.55 1.31,0.88 2.15,0.88 0.84,0 1.6,-0.33 2.15,-0.88 0.55,-0.54 0.89,-1.29 0.89,-2.13zm-27.42 -0.3c0,-0.84 -0.34,-1.59 -0.88,-2.13 -0.55,-0.55 -1.31,-0.89 -2.15,-0.89 -0.84,0 -1.6,0.34 -2.15,0.88 -0.55,0.55 -0.89,1.3 -0.89,2.14 0,0.83 0.34,1.58 0.89,2.13 0.55,0.54 1.31,0.88 2.15,0.88 0.84,0 1.6,-0.34 2.15,-0.88 0.54,-0.55 0.88,-1.3 0.88,-2.13z"/>
  <path class="fil1" d="M0 40.08l5.27 0 0 -16.09 -5.27 0 0 16.09zm31.73 -25.13c0,-0.87 -0.71,-1.58 -1.59,-1.58 -0.89,0 -1.6,0.71 -1.6,1.58 0,0.88 0.71,1.59 1.6,1.59 0.88,0 1.59,-0.71 1.59,-1.59zm-27.41 0.92c0,-0.87 -0.71,-1.58 -1.6,-1.58 -0.88,0 -1.6,0.71 -1.6,1.58 0,0.88 0.72,1.59 1.6,1.59 0.89,0 1.6,-0.71 1.6,-1.59zm24.16 24.21l5.28 0 0 -17.01 -5.28 0 0 17.01z"/>
  <path class="fil2" d="M42.73 40.08l5.27 0 0 -24.44 -5.27 0 0 24.44zm-23.23 -32.85c0,-1.67 -1.36,-3.02 -3.05,-3.02 -1.68,0 -3.05,1.35 -3.05,3.02 0,1.68 1.37,3.03 3.05,3.03 1.69,0 3.05,-1.35 3.05,-3.03zm27.39 0.31c0,-1.66 -1.37,-3.02 -3.05,-3.02 -1.69,0 -3.05,1.36 -3.05,3.02 0,1.68 1.36,3.03 3.05,3.03 1.68,0 3.05,-1.35 3.05,-3.03zm-32.65 32.54l5.28 0 0 -24.74 -5.28 0 0 24.74z"/>
 </g>
</svg>
