<?xml version="1.0" encoding="UTF-8"?>
<!DOCTYPE svg PUBLIC "-//W3C//DTD SVG 1.1//EN" "http://www.w3.org/Graphics/SVG/1.1/DTD/svg11.dtd">
<!-- Creator: CorelDRAW 2019 (64-Bit) -->
<svg xmlns="http://www.w3.org/2000/svg" xml:space="preserve" width="48px" height="48px" version="1.1" style="shape-rendering:geometricPrecision; text-rendering:geometricPrecision; image-rendering:optimizeQuality; fill-rule:evenodd; clip-rule:evenodd"
viewBox="0 0 48 48"
 xmlns:xlink="http://www.w3.org/1999/xlink">
 <defs>
  <style type="text/css">
   <![CDATA[
    .fil0 {fill:gray;fill-rule:nonzero}
    .fil1 {fill:#C9DADD;fill-rule:nonzero}
    .fil2 {fill:#FBE0DC;fill-rule:nonzero}
   ]]>
  </style>
 </defs>
 <g id="Слой_x0020_1">
  <metadata id="CorelCorpID_0Corel-Layer"/>
  <path class="fil0" d="M25.87 2.64c-0.08,-0.36 -0.26,-0.68 -0.51,-0.93 -0.35,-0.35 -0.83,-0.57 -1.36,-0.57 -0.53,0 -1.01,0.22 -1.35,0.57l-0.03 0.02c-0.24,0.25 -0.41,0.56 -0.49,0.91l3.74 0zm4.05 39.02c0,0.32 -0.26,0.57 -0.57,0.57 -0.32,0 -0.57,-0.25 -0.57,-0.57l0 -4.31c0,-0.31 0.25,-0.57 0.57,-0.57l4.3 0c0.31,0 0.57,0.26 0.57,0.57 0,0.32 -0.26,0.58 -0.57,0.58l-3.73 0 0 3.73zm-8.96 -6.13c0.22,0.22 0.22,0.58 0,0.81 -0.22,0.22 -0.59,0.22 -0.81,0l-1.3 -1.3 -1.3 1.3c-0.22,0.22 -0.59,0.22 -0.81,0 -0.22,-0.23 -0.22,-0.59 0,-0.81l1.3 -1.3 -1.3 -1.3c-0.22,-0.22 -0.22,-0.58 0,-0.8 0.22,-0.23 0.59,-0.23 0.81,-0.01l1.3 1.31 1.3 -1.31c0.22,-0.22 0.59,-0.22 0.81,0.01 0.22,0.22 0.22,0.58 0,0.8l-1.3 1.3 1.3 1.3zm0 -17.54c0.22,0.22 0.22,0.59 0,0.81 -0.23,0.22 -0.59,0.22 -0.81,0l-1.3 -1.3 -1.3 1.3c-0.22,0.22 -0.59,0.22 -0.81,0 -0.22,-0.22 -0.22,-0.59 0,-0.81l1.3 -1.3 -1.3 -1.3c-0.22,-0.22 -0.22,-0.59 0,-0.81 0.22,-0.22 0.59,-0.22 0.81,0l1.3 1.3 1.3 -1.3c0.22,-0.22 0.58,-0.22 0.81,0 0.22,0.22 0.22,0.59 0,0.81l-1.3 1.3 1.3 1.3zm-0.13 5.4c0.21,-0.23 0.58,-0.24 0.8,-0.03 0.23,0.22 0.24,0.58 0.03,0.81l-2.86 3.02c-0.22,0.23 -0.58,0.24 -0.81,0.03l-1.39 -1.39c-0.22,-0.22 -0.22,-0.59 0,-0.81 0.22,-0.22 0.59,-0.22 0.81,0l0.96 0.96 2.46 -2.59zm-4.86 -15.05c0.32,0 0.58,0.26 0.58,0.57 0,0.32 -0.26,0.58 -0.58,0.58l-3.22 0 0 33.77 17.5 0 5 -5 0 -28.77 -3.22 0c-0.32,0 -0.58,-0.26 -0.58,-0.58 0,-0.31 0.26,-0.57 0.58,-0.57l3.79 0c0.32,0 0.57,0.26 0.57,0.57l0 29.58c0,0.15 -0.05,0.3 -0.17,0.41l-5.31 5.31c-0.11,0.12 -0.26,0.19 -0.42,0.19l-18.31 0c-0.31,0 -0.57,-0.26 -0.57,-0.57l0 -34.92c0,-0.31 0.26,-0.57 0.57,-0.57l3.79 0zm2.36 -2.46l-7.32 0c-0.51,0 -0.98,0.21 -1.31,0.55 -0.34,0.33 -0.55,0.8 -0.55,1.31l0 37.26c0,0.51 0.21,0.98 0.55,1.31 0.33,0.34 0.8,0.55 1.31,0.55l25.98 0c0.51,0 0.98,-0.21 1.31,-0.55 0.34,-0.33 0.55,-0.8 0.55,-1.31l0 -37.26c0,-0.51 -0.21,-0.98 -0.55,-1.31 -0.33,-0.34 -0.8,-0.55 -1.31,-0.55l-7.32 0 0 3.27c0,0.41 -0.16,0.78 -0.43,1.04 -0.27,0.27 -0.63,0.43 -1.04,0.43 -0.36,0 -0.71,-0.14 -0.97,-0.36 -0.24,-0.22 -0.42,-0.52 -0.48,-0.87l-0.02 -0.15c-0.08,-0.64 -0.39,-1.19 -0.83,-1.59l-0.02 -0.02c-0.46,-0.4 -1.05,-0.64 -1.7,-0.64 -0.64,0 -1.24,0.24 -1.7,0.64 -0.45,0.4 -0.76,0.95 -0.85,1.59l-0.01 0.12c-0.05,0.37 -0.23,0.69 -0.49,0.92 -0.26,0.22 -0.6,0.36 -0.97,0.36l-0.36 0c-0.41,0 -0.77,-0.16 -1.04,-0.43 -0.27,-0.26 -0.43,-0.63 -0.43,-1.04l0 -3.27zm11.34 -1.14l7.32 0c0.83,0 1.58,0.34 2.12,0.88 0.54,0.54 0.88,1.29 0.88,2.12l0 37.26c0,0.83 -0.34,1.58 -0.88,2.12 -0.54,0.54 -1.29,0.88 -2.12,0.88l-25.98 0c-0.83,0 -1.58,-0.34 -2.12,-0.88 -0.54,-0.54 -0.88,-1.29 -0.88,-2.12l0 -37.26c0,-0.83 0.34,-1.58 0.88,-2.12 0.54,-0.54 1.29,-0.88 2.12,-0.88l7.32 0 0 -0.84c0,-0.34 0.14,-0.66 0.37,-0.89 0.23,-0.23 0.55,-0.37 0.89,-0.37l1.38 0c0.09,-0.66 0.39,-1.25 0.83,-1.71l0.04 -0.03c0.55,-0.56 1.32,-0.9 2.16,-0.9 0.85,0 1.61,0.34 2.17,0.9 0.46,0.46 0.77,1.06 0.86,1.74l1.38 0c0.35,0 0.66,0.14 0.89,0.37 0.23,0.23 0.37,0.55 0.37,0.89l0 0.84zm-10.2 -0.84l0 5.25c0,0.09 0.04,0.17 0.09,0.23 0.07,0.06 0.15,0.1 0.24,0.1l0.36 0c0.08,0 0.16,-0.03 0.22,-0.08 0.05,-0.05 0.09,-0.12 0.11,-0.19l0.01 -0.15c0.13,-0.92 0.58,-1.72 1.23,-2.28 0.66,-0.58 1.52,-0.93 2.45,-0.93 0.93,0 1.79,0.35 2.45,0.93l0.03 0.02c0.63,0.57 1.08,1.37 1.2,2.28l0.02 0.14c0.01,0.07 0.05,0.13 0.11,0.18 0.05,0.05 0.13,0.08 0.21,0.08 0.09,0 0.18,-0.04 0.23,-0.09 0.06,-0.06 0.1,-0.15 0.1,-0.24l0 -3.84 0 -1.41c0,-0.03 -0.02,-0.06 -0.04,-0.08 -0.02,-0.02 -0.05,-0.04 -0.08,-0.04l-1.92 0 -4.98 0 -1.92 0c-0.03,0 -0.06,0.02 -0.08,0.04 -0.02,0.02 -0.04,0.05 -0.04,0.08z"/>
  <path class="fil1" d="M33.03 18.95l-10.09 0c-0.44,0 -0.78,-0.35 -0.78,-0.78 0,-0.44 0.34,-0.78 0.78,-0.78l10.09 0c0.43,0 0.78,0.34 0.78,0.78 0,0.43 -0.35,0.78 -0.78,0.78z"/>
  <path class="fil2" d="M33.03 27.35l-10.09 0c-0.44,0 -0.78,-0.35 -0.78,-0.78 0,-0.43 0.34,-0.78 0.78,-0.78l10.09 0c0.43,0 0.78,0.35 0.78,0.78 0,0.43 -0.35,0.78 -0.78,0.78z"/>
 </g>
</svg>
