<?xml version="1.0" encoding="UTF-8"?>
<!DOCTYPE svg PUBLIC "-//W3C//DTD SVG 1.1//EN" "http://www.w3.org/Graphics/SVG/1.1/DTD/svg11.dtd">
<!-- Creator: CorelDRAW 2019 (64-Bit) -->
<svg xmlns="http://www.w3.org/2000/svg" xml:space="preserve" width="48px" height="48px" version="1.1" style="shape-rendering:geometricPrecision; text-rendering:geometricPrecision; image-rendering:optimizeQuality; fill-rule:evenodd; clip-rule:evenodd"
viewBox="0 0 48 48"
 xmlns:xlink="http://www.w3.org/1999/xlink">
 <defs>
  <style type="text/css">
   <![CDATA[
    .fil0 {fill:gray;fill-rule:nonzero}
    .fil1 {fill:#FBE0DC;fill-rule:nonzero}
   ]]>
  </style>
 </defs>
 <g id="Слой_x0020_1">
  <metadata id="CorelCorpID_0Corel-Layer"/>
  <path class="fil0" d="M6.04 9.3c0.29,0.09 0.45,0.41 0.36,0.69 -0.1,0.29 -0.41,0.45 -0.7,0.36 -0.44,-0.15 -0.92,-0.27 -1.39,-0.36 -0.14,0.45 -0.14,0.87 -0.04,1.24 0.13,0.46 0.42,0.87 0.78,1.19l0.03 0.03c0.36,0.31 0.81,0.53 1.25,0.64 0.47,0.1 0.93,0.07 1.29,-0.13 0.22,-0.13 0.44,-0.32 0.59,-0.53 0.11,-0.17 0.19,-0.36 0.19,-0.54 0.01,-0.3 0.26,-0.54 0.56,-0.54 0.3,0.01 0.55,0.26 0.54,0.56 -0.01,0.42 -0.16,0.81 -0.39,1.14 -0.24,0.36 -0.59,0.66 -0.94,0.86 -0.44,0.26 -0.95,0.36 -1.48,0.33 -0.54,1.68 -2.46,9.19 4.84,15.63 0.74,0.65 1.53,1.24 2.36,1.74 0.88,0.55 1.82,1.03 2.8,1.45l0.04 0.02c1.26,0.55 3.01,1.45 4.45,2.73 1.5,1.33 2.68,3.08 2.68,5.27l0.01 2.34c0,0.26 -0.18,0.48 -0.42,0.54 -0.3,0.09 -2.27,0.74 -3.55,2.56 -0.17,0.25 -0.51,0.31 -0.76,0.14 -0.25,-0.18 -0.31,-0.52 -0.14,-0.77 1.23,-1.76 3,-2.57 3.77,-2.86l-0.01 -1.95c0,-1.81 -1.01,-3.3 -2.31,-4.45 -1.34,-1.18 -2.97,-2.03 -4.16,-2.54l-0.04 -0.02c-1.01,-0.43 -1.99,-0.94 -2.94,-1.52 -0.89,-0.55 -1.74,-1.17 -2.51,-1.85 -7.62,-6.72 -5.83,-14.62 -5.19,-16.69 -0.45,-0.16 -0.88,-0.41 -1.25,-0.73l-0.04 -0.03c-0.51,-0.45 -0.92,-1.04 -1.11,-1.73 -0.14,-0.53 -0.15,-1.11 0.01,-1.72 -1.01,-0.15 -1.8,-0.2 -1.81,-0.2 -0.3,0 -0.55,-0.25 -0.55,-0.56 0,-0.09 0.03,-0.18 0.07,-0.26 0.07,-0.17 0.74,-1.64 2.58,-2.1l-0.06 -0.23c-0.07,-0.28 -0.11,-0.57 -0.11,-0.85 0,-1.01 0.41,-1.91 1.07,-2.57 0.56,-0.57 1.31,-0.95 2.14,-1.05 0.18,-0.5 0.68,-1.43 1.91,-1.82l0.03 -0.01c1.4,-0.44 2.27,0.19 2.73,0.73 0.66,-0.44 1.35,-0.29 1.35,-0.29l0.15 0.02c0.48,0.09 0.87,0.32 1.17,0.64l0.03 0.03c0.24,0.26 0.41,0.58 0.5,0.92 0.1,0.34 0.11,0.7 0.05,1.04 -0.09,0.46 -0.32,0.9 -0.71,1.26 -0.17,0.16 -0.35,0.31 -0.52,0.43 -0.18,0.13 -0.42,0.26 -0.57,0.42l-0.04 0.1 0.04 0.12 0.06 0.07c3.3,2.18 4.2,4.31 5.03,6.3 0.42,0.99 0.82,1.95 1.53,2.82l0.01 0.01c0.19,0.24 1.69,2.03 3.63,1.81l0.04 0c2.76,-0.35 3.73,-3.77 4.43,-6.23 0.2,-0.69 0.38,-1.32 0.57,-1.8 0.71,-1.8 1.87,-3.51 3.33,-4.88 1.38,-1.31 3.04,-2.33 4.83,-2.82 1.97,-0.55 4.29,-0.68 6.37,-0.21 1.81,0.41 3.45,1.29 4.53,2.76 0.07,0.1 0.11,0.22 0.11,0.35 -0.02,0.3 -0.28,0.54 -0.58,0.52 -0.65,-0.03 -1.27,-0.01 -1.87,0.06l-0.01 0.01c-2.65,0.32 -4.67,1.64 -6.06,3.46 -1.4,1.84 -2.16,4.21 -2.28,6.61 -0.03,0.75 -0.01,1.51 0.08,2.25 0.04,0.31 -0.18,0.58 -0.48,0.62 -0.3,0.03 -0.57,-0.18 -0.61,-0.48 -0.1,-0.8 -0.13,-1.62 -0.09,-2.44 0.13,-2.61 0.97,-5.2 2.51,-7.23 1.56,-2.05 3.83,-3.53 6.79,-3.89l0.79 -0.06c-0.85,-0.73 -1.92,-1.21 -3.08,-1.47 -1.89,-0.43 -4.02,-0.3 -5.82,0.19 -1.61,0.45 -3.11,1.37 -4.38,2.57 -1.33,1.26 -2.41,2.83 -3.06,4.48 -0.17,0.45 -0.34,1.04 -0.53,1.7 -0.79,2.76 -1.87,6.58 -5.36,7.02l-0.05 0c-2.5,0.28 -4.32,-1.87 -4.58,-2.18l-0.04 -0.04c-0.8,-0.99 -1.23,-2.02 -1.68,-3.09 -0.77,-1.83 -1.6,-3.81 -4.62,-5.8l-0.04 -0.03c-0.15,-0.1 -0.27,-0.23 -0.36,-0.38 -0.13,-0.21 -0.2,-0.46 -0.2,-0.71 0.01,-0.24 0.08,-0.49 0.22,-0.7 0.1,-0.15 0.23,-0.28 0.4,-0.39l0.43 -0.3 0.44 -0.37c0.2,-0.18 0.32,-0.41 0.37,-0.64 0.03,-0.19 0.02,-0.38 -0.02,-0.55 -0.05,-0.17 -0.14,-0.34 -0.26,-0.47l-0.03 -0.03c-0.14,-0.14 -0.33,-0.25 -0.56,-0.3l-0.03 0c-0.2,-0.02 -0.66,0 -0.9,0.36 -0.17,0.25 -0.51,0.31 -0.76,0.15 -0.08,-0.06 -0.15,-0.13 -0.19,-0.21l-0.01 -0.02c-0.07,-0.15 -0.6,-1.15 -1.81,-0.77l-0.02 0c-1.11,0.36 -1.3,1.48 -1.3,1.48 -0.08,0.23 -0.29,0.38 -0.52,0.38 -0.7,0 -1.34,0.29 -1.79,0.74 -0.46,0.46 -0.74,1.09 -0.74,1.8 0,0.21 0.02,0.41 0.07,0.59 0.04,0.2 0.11,0.38 0.2,0.56 0.04,0.07 0.06,0.16 0.06,0.24l0.01 0.06c0.03,0.3 -0.19,0.57 -0.49,0.6 -0.95,0.09 -1.56,0.53 -1.92,0.93 0.46,0.05 1.06,0.13 1.68,0.24l0.01 0c0.66,0.12 1.36,0.27 1.97,0.48zm21.84 36.31c0,0.3 -0.24,0.55 -0.55,0.55 -0.3,0 -0.55,-0.25 -0.55,-0.55l0 -8.33c0,-0.31 0.25,-0.56 0.55,-0.56 1.33,0 2.82,-0.66 4.22,-1.61 1.79,-1.21 3.4,-2.87 4.28,-4.2 3.33,-5 3.36,-9.61 3.38,-13.43 0.03,-4.22 0.05,-7.55 4.1,-9.58 -0.46,-0.31 -1.06,-0.66 -1.54,-0.76 -0.3,-0.06 -0.49,-0.35 -0.43,-0.65 0.06,-0.29 0.35,-0.48 0.65,-0.42 1.2,0.24 2.62,1.41 2.72,1.5 0.09,0.06 0.15,0.14 0.19,0.24 0.11,0.28 -0.02,0.6 -0.3,0.72 -4.25,1.7 -4.27,4.86 -4.29,8.95 -0.02,3.97 -0.05,8.76 -3.56,14.03 -0.95,1.44 -2.68,3.22 -4.59,4.52 -1.38,0.93 -2.87,1.62 -4.28,1.77l0 7.81zm-12.1 -26.18c-0.2,-0.23 -0.18,-0.58 0.05,-0.78 0.23,-0.2 0.57,-0.18 0.77,0.05 0.01,0.01 2.64,3.07 7.47,2.54 1.18,-0.14 2.29,-0.64 3.24,-1.27 1.45,-0.96 2.53,-2.21 3.02,-2.92 0.18,-0.25 0.52,-0.31 0.77,-0.13 0.11,0.07 0.18,0.17 0.21,0.29 0.11,0.33 1.23,4.06 -1.4,6.99 0.18,0.32 0.29,0.64 0.37,0.96l0 0.01c0.1,0.46 0.11,0.9 0.07,1.31 -0.09,0.76 -0.31,1.49 -0.72,2.15l-0.02 0.03c-0.43,0.67 -1.06,1.26 -1.95,1.73 -5.74,3.05 -10.59,-0.42 -10.6,-0.43 -0.26,-0.17 -0.33,-0.51 -0.16,-0.77 0.17,-0.25 0.51,-0.32 0.77,-0.15 0.01,0.01 4.33,3.11 9.48,0.38 0.71,-0.38 1.2,-0.84 1.53,-1.35l0.02 -0.03c0.32,-0.5 0.49,-1.08 0.55,-1.68 0.04,-0.3 0.03,-0.62 -0.04,-0.94l-0.01 -0.02c-0.03,-0.13 -0.07,-0.26 -0.12,-0.4 -1,0.81 -2.35,1.52 -4.19,2.02 -0.29,0.08 -0.59,-0.09 -0.67,-0.39 -0.08,-0.29 0.09,-0.59 0.39,-0.67 5.8,-1.58 6.11,-5.45 5.88,-7.33 -0.63,0.71 -1.52,1.55 -2.57,2.26 -1.08,0.71 -2.35,1.29 -3.73,1.44 -5.4,0.6 -8.41,-2.89 -8.41,-2.9zm-6.34 -11.88c0,0.2 -0.07,0.38 -0.2,0.51l-0.06 0.05c-0.13,0.1 -0.28,0.16 -0.45,0.16 -0.19,0 -0.36,-0.08 -0.49,-0.21 -0.14,-0.13 -0.22,-0.31 -0.22,-0.51 0,-0.2 0.09,-0.38 0.22,-0.5 0.13,-0.13 0.3,-0.21 0.49,-0.21 0.2,0 0.38,0.08 0.51,0.21l0.05 0.07c0.09,0.12 0.15,0.27 0.15,0.43zm-0.7 0l0.11 -0.11 -0.11 0.11zm0.16 -0.16l-0.17 0.16 0.17 -0.16zm-0.05 0.05l0.05 -0.05 -0.05 0.05zm14.74 37.63c0.3,-0.06 0.59,0.13 0.65,0.43 0.06,0.3 -0.13,0.59 -0.43,0.65 0,0 -1.56,0.33 -2.16,1.55 -0.14,0.27 -0.47,0.38 -0.74,0.24 -0.27,-0.13 -0.38,-0.46 -0.25,-0.74 0.85,-1.69 2.93,-2.13 2.93,-2.13z"/>
  <path class="fil1" d="M10.83 12.99c-0.89,2.43 -2.83,2.77 -2.83,2.77 -0.53,2.42 -0.93,7.97 4.62,12.87 0.33,0.29 0.76,0.64 1.2,0.98 0.48,0.38 1.2,0.13 1.34,-0.46l0.09 -0.36c0.24,-0.95 1.23,-1.5 2.14,-1.15 1.05,0.41 2.6,0.74 4.39,0.29 -8.52,-3.49 -10.74,-10.56 -10.95,-14.94z"/>
 </g>
</svg>
