<?xml version="1.0" encoding="UTF-8"?>
<!DOCTYPE svg PUBLIC "-//W3C//DTD SVG 1.1//EN" "http://www.w3.org/Graphics/SVG/1.1/DTD/svg11.dtd">
<!-- Creator: CorelDRAW 2019 (64-Bit) -->
<svg xmlns="http://www.w3.org/2000/svg" xml:space="preserve" width="48px" height="48px" version="1.1" style="shape-rendering:geometricPrecision; text-rendering:geometricPrecision; image-rendering:optimizeQuality; fill-rule:evenodd; clip-rule:evenodd"
viewBox="0 0 48 48"
 xmlns:xlink="http://www.w3.org/1999/xlink">
 <defs>
  <style type="text/css">
   <![CDATA[
    .fil0 {fill:gray;fill-rule:nonzero}
    .fil1 {fill:#C9DADD;fill-rule:nonzero}
    .fil2 {fill:#FBE0DC;fill-rule:nonzero}
   ]]>
  </style>
 </defs>
 <g id="Слой_x0020_1">
  <metadata id="CorelCorpID_0Corel-Layer"/>
  <path class="fil0" d="M36.29 44.42l-1.28 0 -22.02 0 -1.28 0 0 1.87c0,0.16 0.06,0.31 0.17,0.41 0.1,0.1 0.25,0.17 0.41,0.17l23.42 0c0.16,0 0.31,-0.07 0.41,-0.17 0.1,-0.1 0.17,-0.25 0.17,-0.41l0 -1.87zm-2.01 -1.13l0 0 0.03 -0.08 0 0 0.03 -0.1 0 0 0.04 -0.1 0 0 0.03 -0.11 0.01 0 0.03 -0.12 0 0 0.04 -0.13 0 0 0.04 -0.14 0 0 0.04 -0.15 0.04 -0.15 0 0 0.04 -0.16 0.04 -0.17 0.03 -0.17 0.04 -0.19 0 0 0.03 -0.19 0.03 -0.19 0.03 -0.21 0 0 0.03 -0.21 0.02 -0.21 0 0 0.02 -0.23 0 0 0.01 -0.22 0 0 0.02 -0.24 0 -0.24 0 -0.24 0 -0.25 0 0 -0.01 -0.26 -0.01 -0.26 -0.02 -0.26 -0.03 -0.27 -0.03 -0.27 -0.01 0 -0.04 -0.28 -0.04 -0.28 -0.06 -0.29 -0.06 -0.29 -0.01 0 -0.07 -0.29 -0.08 -0.29 -0.09 -0.3 -0.1 -0.3 -0.11 -0.31 -0.12 -0.3 -0.13 -0.31 -0.14 -0.31 -0.15 -0.32 -0.17 -0.31 -0.17 -0.32 -0.19 -0.31 0 0 -0.2 -0.32 -0.21 -0.32 -0.23 -0.32 -0.24 -0.32 -0.25 -0.33 -0.27 -0.32 -0.28 -0.32 -0.29 -0.32 -0.32 -0.32 -0.32 -0.33 -0.35 -0.32 -0.35 -0.32 -0.38 -0.32 -0.39 -0.32 -0.41 -0.31 -0.42 -0.32 -0.45 -0.31 -0.46 -0.31 -0.48 -0.31c-0.16,-0.11 -2.15,-1.37 -2.15,-2.9 0,-1.53 1.99,-2.79 2.15,-2.89l0.48 -0.32 0.46 -0.31 0.45 -0.31 0.42 -0.32 0.41 -0.31 0.39 -0.32c0.26,-0.21 0.5,-0.43 0.73,-0.64l0.35 -0.32 0 0 0.32 -0.32 0.31 -0.33 0 0 0.3 -0.32 0 0 0.28 -0.32 0 0 0.27 -0.32 0.25 -0.32 0 -0.01 0.24 -0.32 0 0 0.23 -0.32 0.21 -0.32 0.2 -0.32 0.19 -0.31 0 0 0.17 -0.32 0.17 -0.31 0 0 0.15 -0.32 0.14 -0.31 0.13 -0.31 0 0 0.12 -0.3 0 0 0.11 -0.31 0 0 0.1 -0.3 0.09 -0.29 0 -0.01 0.08 -0.29 0 0 0.07 -0.29c0.05,-0.2 0.09,-0.39 0.13,-0.58l0.04 -0.28 0.04 -0.28 0.04 -0.27 0 0 0.03 -0.27 0 0 0.02 -0.26 0.01 -0.26 0 0 0.01 -0.26c0,-0.17 0,-0.33 0,-0.49l0 -0.24 -0.01 0 -0.01 -0.24 -0.01 -0.22 -0.02 -0.23 -0.02 -0.21 -0.03 -0.21 -0.03 -0.21 0 0 -0.03 -0.19 0 0 -0.03 -0.19 -0.04 -0.19 0 0 -0.03 -0.17 0 0 -0.04 -0.17 0 0 -0.04 -0.16 -0.04 -0.15 0 0 -0.04 -0.15 -0.04 -0.14 -0.04 -0.13 -0.04 -0.12 -0.03 -0.11 -0.04 -0.1 -0.03 -0.1 -0.03 -0.08 -20.56 0 0 0 -0.03 0.08 0 0 -0.03 0.1 0 0 -0.04 0.1 0 0 -0.03 0.11 -0.01 0 -0.03 0.12 0 0 -0.04 0.13 0 0 -0.04 0.14 0 0 -0.04 0.15 0 0 -0.04 0.15 0 0 -0.04 0.16 0 0 -0.04 0.17 0 0 -0.03 0.17 0 0 -0.04 0.19 0 0 -0.03 0.19 0 0 -0.03 0.19 0 0 -0.03 0.21 0 0 -0.03 0.21 0 0 -0.02 0.21 0 0 -0.02 0.23 0 0 -0.01 0.22 -0.01 0 -0.01 0.24 0 0 0 0.24 0 0 0 0.24 0 0.25 0 0 0.01 0.26 0.01 0.26 0 0 0.02 0.26 0 0 0.03 0.27 0 0 0.03 0.27 0 0 0.04 0.28 0.01 0 0.04 0.28 0 0c0.04,0.19 0.08,0.38 0.12,0.58l0 0 0.08 0.29 0 0c0.05,0.19 0.1,0.39 0.17,0.59l0 0 0.1 0.3 0 0 0.11 0.31 0 0c0.08,0.2 0.16,0.41 0.25,0.61l0 0 0.14 0.31 0 0c0.1,0.21 0.2,0.42 0.32,0.63 0.11,0.21 0.23,0.42 0.36,0.63l0 0 0.2 0.32 0 0 0.21 0.32 0 0 0.23 0.32c0.15,0.22 0.32,0.43 0.49,0.65l0 0c0.17,0.21 0.36,0.43 0.55,0.64l0 0c0.19,0.22 0.39,0.43 0.61,0.65 0.21,0.21 0.43,0.42 0.66,0.64 0.24,0.21 0.48,0.43 0.74,0.64l0.39 0.32 0.41 0.31 0.42 0.32 0 0 0.45 0.31 0.46 0.31 0.48 0.32c0.16,0.1 2.15,1.36 2.15,2.89 0,1.53 -1.99,2.79 -2.15,2.9l-0.48 0.31 -0.46 0.31 -0.45 0.31 -0.42 0.32 -0.41 0.31 -0.39 0.32 -0.38 0.32 -0.35 0.32 -0.01 0 -0.34 0.32 -0.32 0.33 -0.32 0.32 -0.29 0.32 -0.28 0.32 -0.27 0.32 -0.25 0.33 -0.24 0.32 0 0 -0.23 0.32 -0.21 0.32 -0.2 0.32 0 0 -0.19 0.31 -0.17 0.32 0 0 -0.17 0.31 0 0 -0.15 0.32 0 0 -0.14 0.31 0 0 -0.13 0.31 0 0 -0.12 0.3 0 0 -0.11 0.31 0 0 -0.1 0.3 0 0 -0.09 0.3 0 0 -0.08 0.29 0 0 -0.08 0.29 0 0 -0.06 0.29 0 0 -0.06 0.29 0 0 -0.04 0.28 -0.01 0 -0.04 0.28 0 0 -0.03 0.27 -0.03 0.27 0 0 -0.02 0.26 0 0 -0.01 0.26 0 0 -0.01 0.26 0 0 0 0.25 0 0.24 0 0 0 0.24 0 0 0.01 0.24 0.01 0 0.01 0.22 0 0 0.02 0.23 0 0 0.02 0.21 0 0 0.03 0.21 0 0 0.03 0.21 0 0 0.03 0.19 0 0 0.03 0.19 0 0 0.04 0.19 0 0 0.03 0.17 0 0 0.04 0.17 0 0 0.04 0.16 0 0 0.04 0.15 0 0 0.04 0.15 0 0 0.04 0.14 0 0 0.04 0.13 0 0 0.03 0.12 0.01 0 0.03 0.11 0 0 0.04 0.1 0 0 0.03 0.1 0 0 0.03 0.08 0 0 20.56 0zm1.19 -38.58l0.02 0.05 0.02 0.07 0.02 0.08 0.02 0.05 0.03 0.12 0.01 0.02 0.04 0.15 0 0 0.04 0.16 0.01 0.03 0.03 0.13 0.02 0.07 0.02 0.1 0.03 0.11 0.01 0.06 0.03 0.16 0.01 0.03 0.03 0.19 0 0 0.04 0.2 0.01 0.04 0.02 0.16 0.01 0.09 0.02 0.12 0.02 0.13 0.01 0.08 0.02 0.19 0 0.04 0.02 0.22 0 0.01 0.02 0.23 0 0.05 0 0.04 0.02 0.5 0.01 0.04 0 0.1 0 0.21 0 0.04 -0.01 0.26 0 0.01 -0.01 0.25 0 0.06 -0.02 0.21 0 0.12 -0.01 0.04c-0.01,0.18 -0.03,0.36 -0.05,0.55l-0.01 0.07 -0.01 0.05 -0.04 0.29 0 0 -0.05 0.28 -0.01 0.07 -0.01 0.02 -0.05 0.29 -0.02 0.09 -0.06 0.23 -0.01 0.07 -0.03 0.12 -0.07 0.24 -0.01 0.06 -0.09 0.3 0 0.01 -0.1 0.3 -0.02 0.06 -0.01 0.05 -0.11 0.29 -0.03 0.08 -0.1 0.27 -0.03 0.06 -0.05 0.12 -0.11 0.26 -0.02 0.05 -0.15 0.32 0 0.01 -0.04 0.08 -0.14 0.28 -0.03 0.06 -0.17 0.31 -0.05 0.08 -0.13 0.24 -0.1 0.17 -0.03 0.05 -0.16 0.27 -0.04 0.06 -0.22 0.32 0 0 -0.01 0.02 -0.25 0.35 -0.07 0.1 -0.19 0.25 -0.12 0.16 -0.15 0.18 -0.15 0.19 -0.19 0.23 -0.1 0.11 -0.32 0.37 -0.01 0 -0.36 0.38 -0.04 0.04 -0.31 0.31 -0.14 0.13 -0.24 0.23 -0.12 0.12 -0.29 0.25 -0.15 0.14 -0.03 0.02 -0.38 0.32 0 0 -0.4 0.32 -0.08 0.07 -0.13 0.09 -0.3 0.23 -0.2 0.15 -0.29 0.21 -0.17 0.12 -0.4 0.27 -0.09 0.06 -0.1 0.07 -0.48 0.31 -0.01 0.01c0,0 -1.6,0.96 -1.6,1.93 0,0.97 1.6,1.93 1.6,1.94l0.01 0 0.49 0.32 0.26 0.17 0.33 0.23 0.11 0.08 0.39 0.28 0.14 0.1 0.31 0.24 0.13 0.09 0.08 0.07 0.4 0.32 0 0 0.38 0.32 0.02 0.02 0.18 0.16 0.24 0.21 0.16 0.15 0.26 0.24 0.1 0.1c0.25,0.25 0.5,0.49 0.72,0.74l0.01 0 0.32 0.37 0.08 0.09 0.23 0.28 0.1 0.11 0.21 0.27 0.07 0.09 0.22 0.3 0.06 0.08 0.25 0.35 0.01 0.02 0 0 0.22 0.32 0.04 0.06 0.04 0.08 0.15 0.24 0.1 0.17 0.13 0.24 0.05 0.08 0.17 0.31 0.03 0.06 0.11 0.22 0.07 0.14 0 0.01 0.15 0.32 0.02 0.06 0.04 0.07 0.1 0.25 0.05 0.11 0.1 0.27 0.03 0.08 0.11 0.29 0.01 0.05 0.02 0.06 0.1 0.3 0 0.01 0.09 0.3 0.01 0.06 0.07 0.24 0.03 0.12 0.01 0.07 0.06 0.23 0.02 0.09 0.05 0.27 0.01 0.04 0.01 0.07 0.05 0.28 0 0 0.04 0.29 0.01 0.05 0.01 0.07c0.02,0.19 0.04,0.37 0.05,0.55l0.01 0.04 0 0.12 0.02 0.21 0 0.06 0.01 0.25 0 0.01 0.01 0.26 0 0.04 0 0.21 0 0.1 -0.01 0.04 -0.02 0.5 0 0.04 0 0.05 -0.02 0.23 0 0.01 -0.02 0.22 0 0.04 -0.02 0.19 -0.01 0.08 -0.02 0.13 -0.02 0.12 -0.01 0.09 -0.02 0.16 -0.01 0.04 -0.04 0.2 0 0 -0.03 0.19 -0.01 0.04 -0.03 0.15 -0.01 0.06 -0.03 0.11 -0.02 0.1 -0.02 0.07 -0.03 0.13 -0.01 0.03 -0.04 0.16 0 0 -0.04 0.15 -0.01 0.02 -0.03 0.12 -0.02 0.05 -0.02 0.08 -0.02 0.07 -0.02 0.05 1.95 0 0 3c0,0.47 -0.19,0.9 -0.5,1.21 -0.31,0.31 -0.74,0.5 -1.21,0.5l-23.42 0c-0.47,0 -0.9,-0.19 -1.21,-0.5 -0.31,-0.31 -0.5,-0.74 -0.5,-1.21l0 -3 0.56 0 1.39 0 -0.04 -0.12 -0.02 -0.08 -0.02 -0.05 -0.03 -0.12 -0.01 -0.02 -0.04 -0.15 0 0 -0.04 -0.16 -0.01 -0.03 -0.03 -0.13 -0.02 -0.07 -0.02 -0.1 -0.03 -0.11 -0.01 -0.06 -0.03 -0.16 -0.01 -0.03 -0.03 -0.19 0 0 -0.04 -0.2 -0.01 -0.04 -0.02 -0.16 -0.01 -0.09 -0.02 -0.12 -0.02 -0.13 -0.01 -0.08 -0.02 -0.19 0 -0.04 -0.02 -0.22 0 -0.01 -0.02 -0.23 0 -0.05 -0.01 -0.19 -0.01 -0.1 0 -0.14 -0.01 -0.15 0 -0.1 0 -0.06 0 -0.19 0.01 -0.26 0 -0.01 0.01 -0.25 0 -0.06 0.01 -0.21 0.01 -0.05 0.01 -0.18 0.01 -0.04 0.01 -0.18 0.01 -0.1 0.03 -0.23 0.01 -0.05 0.04 -0.29 0 0 0.05 -0.28 0.01 -0.07 0.05 -0.22 0 -0.03 0.04 -0.17 0.05 -0.23 0.02 -0.09 0.07 -0.26 0.02 -0.06 0.01 -0.06 0.09 -0.3 0 -0.01 0.1 -0.3 0.02 -0.06 0.01 -0.05 0.1 -0.26 0.06 -0.17 0.03 -0.08 0.07 -0.19 0.02 -0.04 0.11 -0.24 0.03 -0.1 0.03 -0.05 0.15 -0.32 0 -0.01 0.04 -0.08 0.14 -0.28 0.03 -0.06 0.17 -0.31 0.04 -0.08 0.15 -0.25 0.07 -0.14 0.15 -0.24 0.06 -0.1 0.04 -0.06 0.22 -0.32 0 0 0.22 -0.33 0.01 -0.01 0.13 -0.17 0.16 -0.21 0.11 -0.15 0.19 -0.24 0.09 -0.11 0.24 -0.28 0.07 -0.09 0.23 -0.25 0.1 -0.12 0 0 0.31 -0.32 0.07 -0.07 0.11 -0.12 0.2 -0.2 0.17 -0.16 0.24 -0.22 0.14 -0.14 0.23 -0.2 0.2 -0.17 0.02 -0.02 0.38 -0.32 0 0 0.04 -0.03 0.43 -0.34 0.05 -0.05 0.43 -0.32 0.1 -0.07 0.34 -0.25 0.22 -0.15 0.25 -0.17 0.29 -0.2 0.49 -0.32 0.01 0c0,-0.01 1.6,-0.97 1.6,-1.94 0,-0.97 -1.6,-1.93 -1.6,-1.93l-0.01 -0.01 -0.49 -0.32 -0.26 -0.17 -0.33 -0.23 -0.11 -0.08 -0.41 -0.29 -0.09 -0.07 -0.43 -0.32 -0.05 -0.05 -0.43 -0.33 -0.04 -0.04 0 0 -0.38 -0.32 -0.02 -0.02 -0.2 -0.17 -0.23 -0.2 -0.13 -0.13 -0.29 -0.27 -0.09 -0.09 -0.28 -0.27 -0.07 -0.08 -0.07 -0.07 -0.31 -0.32 0 0 -0.1 -0.12 -0.23 -0.25 -0.06 -0.08 -0.27 -0.31 -0.04 -0.06 -0.22 -0.27 -0.12 -0.16 -0.14 -0.18 -0.13 -0.19 -0.02 -0.01 -0.22 -0.33 0 0 -0.25 -0.37 -0.06 -0.09 -0.14 -0.24 -0.1 -0.17 -0.14 -0.23 -0.04 -0.08c-0.12,-0.21 -0.22,-0.42 -0.32,-0.63l-0.06 -0.11 0 -0.01 -0.15 -0.32 -0.03 -0.05 -0.03 -0.08 -0.1 -0.24 -0.07 -0.18 -0.03 -0.07 -0.07 -0.19 -0.02 -0.05 -0.09 -0.25 -0.02 -0.07 -0.02 -0.06 -0.1 -0.3 0 -0.01 -0.09 -0.3 -0.01 -0.06 -0.03 -0.09 -0.06 -0.23 -0.02 -0.09 -0.05 -0.23 -0.04 -0.17 0 -0.03 -0.05 -0.22 -0.01 -0.07 -0.05 -0.28 0 0 -0.04 -0.29 -0.01 -0.05 -0.03 -0.23 -0.01 -0.1 -0.01 -0.17 -0.02 -0.16 -0.01 -0.12 -0.01 -0.21 0 -0.06 -0.01 -0.25 0 -0.01 -0.01 -0.26 0 -0.19 0 -0.06 0 -0.1 0.01 -0.15 0 -0.14 0.01 -0.1 0.01 -0.19 0 -0.05 0.02 -0.23 0 -0.01 0.02 -0.22 0 -0.04 0.02 -0.19 0.01 -0.08 0.02 -0.13 0.02 -0.12 0.01 -0.09 0.02 -0.16 0.01 -0.04 0.04 -0.2 0 0 0.03 -0.19 0.01 -0.03 0.03 -0.16 0.01 -0.06 0.03 -0.11 0.02 -0.1 0.02 -0.07 0.03 -0.13 0.01 -0.03 0.04 -0.16 0 0 0.04 -0.15 0.01 -0.02 0.03 -0.12 0.02 -0.05 0.02 -0.08 0.04 -0.12 -1.95 0 0 -3c0,-0.47 0.19,-0.9 0.5,-1.21 0.31,-0.31 0.74,-0.5 1.21,-0.5l23.42 0c0.47,0 0.9,0.19 1.21,0.5 0.31,0.31 0.5,0.74 0.5,1.21l0 3 -0.56 0 -1.39 0zm-23.76 -1.13l1.28 0 22.02 0 1.28 0 0 -1.87c0,-0.16 -0.07,-0.31 -0.17,-0.41 -0.1,-0.1 -0.25,-0.17 -0.41,-0.17l-23.42 0c-0.16,0 -0.31,0.07 -0.41,0.17 -0.11,0.1 -0.17,0.25 -0.17,0.41l0 1.87z"/>
  <path class="fil1" d="M14.96 41.62l18.1 0c0.22,-0.91 0.39,-2.26 0.13,-3.85 -2.94,-0.68 -6.02,-1.05 -9.17,-1.05 -3.15,0 -6.22,0.36 -9.16,1.05 -0.26,1.58 -0.1,2.93 0.1,3.85z"/>
  <path class="fil2" d="M22.07 19.68c0.3,0.19 1.2,0.78 1.93,1.7 0.73,-0.92 1.63,-1.51 1.93,-1.7 4.69,-2.97 6.52,-6.22 7.11,-8.9 -2.9,-0.66 -5.92,-1.01 -9.02,-1.01 -3.11,0 -6.15,0.35 -9.05,1.02 0.59,2.68 2.41,5.93 7.1,8.89z"/>
 </g>
</svg>
