<?xml version="1.0" encoding="UTF-8"?>
<!DOCTYPE svg PUBLIC "-//W3C//DTD SVG 1.1//EN" "http://www.w3.org/Graphics/SVG/1.1/DTD/svg11.dtd">
<!-- Creator: CorelDRAW 2019 (64-Bit) -->
<svg xmlns="http://www.w3.org/2000/svg" xml:space="preserve" width="48px" height="48px" version="1.1" style="shape-rendering:geometricPrecision; text-rendering:geometricPrecision; image-rendering:optimizeQuality; fill-rule:evenodd; clip-rule:evenodd"
viewBox="0 0 48 48"
 xmlns:xlink="http://www.w3.org/1999/xlink">
 <defs>
  <style type="text/css">
   <![CDATA[
    .fil2 {fill:gray;fill-rule:nonzero}
    .fil0 {fill:#C9DADD;fill-rule:nonzero}
    .fil1 {fill:#FBE0DC;fill-rule:nonzero}
   ]]>
  </style>
 </defs>
 <g id="Слой_x0020_1">
  <metadata id="CorelCorpID_0Corel-Layer"/>
  <path class="fil0" d="M8.43 37.2l39.57 0 0 -2.96 -39.57 0 0 2.96zm25.67 -21.56l-5 0c-0.48,0 -0.87,-0.39 -0.87,-0.87l0 -3.26c0,-0.48 0.39,-0.87 0.87,-0.87l5 0c0.48,0 0.87,0.39 0.87,0.87l0 3.26c0,0.48 -0.39,0.87 -0.87,0.87zm-24.4 -2.5c0,1.38 -1.12,2.5 -2.5,2.5 -1.38,0 -2.5,-1.12 -2.5,-2.5 0,-1.38 1.12,-2.5 2.5,-2.5 1.38,0 2.5,1.12 2.5,2.5z"/>
  <path class="fil1" d="M11.1 10.64c-0.39,0 -0.75,0.09 -1.07,0.25 0.49,0.62 0.79,1.4 0.79,2.25 0,0.86 -0.3,1.64 -0.79,2.26 0.32,0.16 0.68,0.24 1.07,0.24 1.38,0 2.5,-1.12 2.5,-2.5 0,-1.38 -1.12,-2.5 -2.5,-2.5z"/>
  <path class="fil2" d="M5.05 26.8c-0.3,0 -0.56,-0.25 -0.56,-0.56 0,-0.3 0.26,-0.56 0.56,-0.56l4.45 0c0.3,0 0.56,0.26 0.56,0.56 0,0.31 -0.26,0.56 -0.56,0.56l-4.45 0zm34.72 -11.3l5.08 0c0.87,0 1.66,0.35 2.23,0.92 0.57,0.57 0.92,1.36 0.92,2.23l0 18.93c0,0.87 -0.35,1.66 -0.92,2.23 -0.57,0.57 -1.36,0.93 -2.23,0.93l-33.46 0c-0.87,0 -1.66,-0.36 -2.23,-0.93 -0.57,-0.57 -0.92,-1.36 -0.92,-2.23l0 -5.08 -5.39 0c-0.79,0 -1.5,-0.32 -2.01,-0.83 -0.52,-0.52 -0.84,-1.23 -0.84,-2.01l0 -19.55c0,-0.79 0.32,-1.5 0.83,-2.01 0.52,-0.52 1.23,-0.84 2.02,-0.84l34.07 0c0.79,0 1.5,0.32 2.01,0.84l0.04 0.03c0.49,0.51 0.8,1.21 0.8,1.98l0 5.39zm-30.42 17l0 5.08c0,0.56 0.23,1.08 0.6,1.44 0.37,0.37 0.88,0.6 1.44,0.6l33.46 0c0.56,0 1.07,-0.23 1.44,-0.6 0.36,-0.36 0.59,-0.88 0.59,-1.44l0 -18.93c0,-0.56 -0.23,-1.07 -0.59,-1.44 -0.37,-0.37 -0.88,-0.59 -1.44,-0.59l-5.08 0 0 13.04c0,0.78 -0.32,1.5 -0.83,2.01l-0.04 0.03c-0.51,0.5 -1.21,0.8 -1.98,0.8l-27.57 0zm-6.5 -1.12l5.94 0 28.13 0c0.47,0 0.89,-0.18 1.2,-0.48l0.02 -0.02c0.32,-0.31 0.51,-0.75 0.51,-1.22l0 -13.6 0 -5.95c0,-0.47 -0.18,-0.89 -0.48,-1.2l-0.03 -0.02c-0.31,-0.31 -0.74,-0.51 -1.22,-0.51l-34.07 0c-0.48,0 -0.91,0.2 -1.22,0.51 -0.32,0.31 -0.51,0.74 -0.51,1.22l0 19.55c0,0.47 0.19,0.91 0.5,1.22 0.31,0.31 0.75,0.5 1.23,0.5zm27.42 -4.58c-0.31,0 -0.56,-0.25 -0.56,-0.56 0,-0.3 0.25,-0.56 0.56,-0.56l4.44 0c0.31,0 0.56,0.26 0.56,0.56 0,0.31 -0.25,0.56 -0.56,0.56l-4.44 0zm-8.4 0c-0.31,0 -0.56,-0.25 -0.56,-0.56 0,-0.3 0.25,-0.56 0.56,-0.56l4.44 0c0.31,0 0.56,0.26 0.56,0.56 0,0.31 -0.25,0.56 -0.56,0.56l-4.44 0zm-8.41 0c-0.31,0 -0.56,-0.25 -0.56,-0.56 0,-0.3 0.25,-0.56 0.56,-0.56l4.44 0c0.31,0 0.56,0.26 0.56,0.56 0,0.31 -0.25,0.56 -0.56,0.56l-4.44 0z"/>
 </g>
</svg>
