<?xml version="1.0" encoding="UTF-8"?>
<!DOCTYPE svg PUBLIC "-//W3C//DTD SVG 1.1//EN" "http://www.w3.org/Graphics/SVG/1.1/DTD/svg11.dtd">
<!-- Creator: CorelDRAW 2019 (64-Bit) -->
<svg xmlns="http://www.w3.org/2000/svg" xml:space="preserve" width="48px" height="48px" version="1.1" style="shape-rendering:geometricPrecision; text-rendering:geometricPrecision; image-rendering:optimizeQuality; fill-rule:evenodd; clip-rule:evenodd"
viewBox="0 0 48 48"
 xmlns:xlink="http://www.w3.org/1999/xlink">
 <defs>
  <style type="text/css">
   <![CDATA[
    .fil0 {fill:gray;fill-rule:nonzero}
    .fil1 {fill:#FBE0DC;fill-rule:nonzero}
   ]]>
  </style>
 </defs>
 <g id="Слой_x0020_1">
  <metadata id="CorelCorpID_0Corel-Layer"/>
  <path class="fil0" d="M21.99 18.37c-0.14,0.27 -0.48,0.37 -0.74,0.22 -0.27,-0.15 -0.36,-0.48 -0.22,-0.75l4.66 -8.47c0.14,-0.27 0.47,-0.37 0.74,-0.22 0.27,0.15 0.36,0.48 0.22,0.75l-4.66 8.47zm20.43 4.26c-0.59,0 -1.14,-0.24 -1.52,-0.63 -0.39,-0.39 -0.64,-0.93 -0.64,-1.52l0 -2.56c0,-0.6 0.25,-1.14 0.64,-1.53l0.03 -0.03c0.39,-0.37 0.92,-0.6 1.49,-0.6 0.59,0 1.13,0.24 1.52,0.63 0.39,0.39 0.64,0.93 0.64,1.53l0 2.56c0,0.59 -0.25,1.13 -0.63,1.52 -0.39,0.39 -0.94,0.63 -1.53,0.63zm-0.75 -1.41c0.19,0.19 0.46,0.31 0.75,0.31 0.29,0 0.56,-0.12 0.75,-0.31 0.19,-0.19 0.31,-0.46 0.31,-0.74l0 -2.56c0,-0.29 -0.12,-0.56 -0.31,-0.75 -0.19,-0.19 -0.46,-0.31 -0.75,-0.31 -0.28,0 -0.54,0.11 -0.72,0.29l-0.03 0.02c-0.19,0.19 -0.31,0.46 -0.31,0.75l0 2.56c0,0.28 0.12,0.55 0.31,0.74zm-5.8 -3.15c0,0.3 -0.25,0.54 -0.56,0.53 -0.3,0 -0.54,-0.26 -0.53,-0.56l0 -0.04c0.01,-0.58 0.26,-1.1 0.64,-1.47 0.38,-0.37 0.91,-0.61 1.48,-0.61l0.06 0.01c0.56,0.01 1.07,0.25 1.44,0.62 0.37,0.38 0.61,0.89 0.63,1.45 0.01,0.35 -0.07,0.69 -0.21,0.98 -0.15,0.31 -0.37,0.58 -0.65,0.78l-0.02 0.01c-0.36,0.28 -0.71,0.58 -1.02,0.92 -0.2,0.21 -0.38,0.44 -0.55,0.68l2.31 0c0.3,0 0.55,0.24 0.55,0.55 0,0.3 -0.25,0.55 -0.55,0.55l-3.28 0c-0.09,0 -0.18,-0.03 -0.27,-0.08 -0.26,-0.14 -0.35,-0.48 -0.2,-0.74l0.22 -0.4c0.27,-0.48 0.6,-0.91 0.97,-1.31 0.35,-0.38 0.74,-0.72 1.16,-1.04l0.03 -0.03c0.13,-0.09 0.24,-0.22 0.31,-0.37 0.07,-0.14 0.1,-0.3 0.1,-0.47 0,-0.27 -0.12,-0.52 -0.3,-0.7 -0.18,-0.18 -0.43,-0.3 -0.69,-0.31l-0.04 0.01c-0.28,0 -0.53,0.11 -0.71,0.29 -0.19,0.18 -0.31,0.43 -0.31,0.7l-0.01 0.05zm-25.37 4.7c-0.63,0 -1.2,-0.26 -1.61,-0.67 -0.41,-0.41 -0.67,-0.99 -0.67,-1.62l0 -2.76c0,-0.62 0.25,-1.19 0.67,-1.61 0.42,-0.42 0.99,-0.67 1.61,-0.67 0.63,0 1.2,0.25 1.62,0.67 0.41,0.41 0.67,0.98 0.67,1.61l0 2.76c0,0.63 -0.26,1.21 -0.67,1.62 -0.42,0.41 -0.99,0.67 -1.62,0.67zm-0.83 -1.45c0.21,0.21 0.51,0.35 0.83,0.35 0.33,0 0.63,-0.13 0.84,-0.35 0.21,-0.21 0.35,-0.51 0.35,-0.84l0 -2.76c0,-0.32 -0.14,-0.62 -0.35,-0.83 -0.21,-0.22 -0.51,-0.35 -0.84,-0.35 -0.32,0 -0.62,0.13 -0.83,0.34 -0.22,0.22 -0.35,0.52 -0.35,0.84l0 2.76c0,0.33 0.13,0.63 0.35,0.84zm-4.87 1.45c-0.3,0 -0.55,-0.25 -0.55,-0.55 0,-0.31 0.25,-0.55 0.55,-0.55l0.53 0 0 -4.45 -0.95 0.71c-0.25,0.18 -0.59,0.12 -0.77,-0.12 -0.18,-0.24 -0.12,-0.59 0.12,-0.77l1.8 -1.33c0.1,-0.08 0.22,-0.13 0.35,-0.13 0.31,0 0.55,0.25 0.55,0.56l0 5.53 0.44 0c0.31,0 0.55,0.24 0.55,0.55 0,0.3 -0.24,0.55 -0.55,0.55l-0.99 0 -1.08 0zm3.48 6.99l0.01 0 0 0 0.02 0 0 0 0.01 0 0.01 0 0.03 0 0.01 0 0 0 0.01 0.01 0.03 0 0.01 0 0 0 0.01 0.01 0.01 0 0.01 0 0 0 0.01 0.01 0.02 0 0 0 2.2 0.75c0.14,0.05 0.27,0.04 0.39,0l0.01 0c0.08,-0.04 0.15,-0.09 0.21,-0.15 0.06,-0.06 0.1,-0.13 0.13,-0.2l0.01 -0.02c0.04,-0.12 0.04,-0.26 -0.02,-0.4l-0.49 -1.23c-0.82,0.33 -1.7,0.5 -2.61,0.5 -0.87,0 -1.71,-0.16 -2.5,-0.45l-0.5 1.11c-0.06,0.15 -0.06,0.3 -0.02,0.42 0.02,0.08 0.07,0.15 0.12,0.21 0.06,0.06 0.13,0.11 0.2,0.15 0.13,0.05 0.28,0.06 0.43,0.01l2.05 -0.7 0.01 0 0.01 0 0.01 -0.01 0 0 0.01 0 0.01 0 0.01 -0.01 0 0 0.07 -0.01 0.01 0 0 0 0.01 0 0.01 0 0.01 0 0 0 0.01 0 0.01 0zm0.56 1.31l0 14.89c0,0.3 -0.25,0.55 -0.55,0.55 -0.31,0 -0.55,-0.25 -0.55,-0.55l0 -14.89 -1.35 0.46c-0.43,0.15 -0.86,0.11 -1.23,-0.05 -0.21,-0.1 -0.4,-0.24 -0.56,-0.41 -0.15,-0.17 -0.28,-0.37 -0.35,-0.6 -0.13,-0.37 -0.12,-0.8 0.06,-1.22l0.51 -1.12c-0.91,-0.49 -1.73,-1.18 -2.42,-2.01l-0.03 -0.03c-1.46,-1.78 -2.37,-4.21 -2.37,-6.89 0,-2.7 0.92,-5.15 2.4,-6.93 1.5,-1.8 3.59,-2.92 5.91,-2.92 0.7,0 1.39,0.11 2.04,0.3 0.68,0.21 1.32,0.51 1.92,0.89 0.25,0.16 0.33,0.51 0.16,0.76 -0.16,0.25 -0.5,0.33 -0.76,0.17 -0.5,-0.33 -1.05,-0.59 -1.63,-0.76 -0.55,-0.17 -1.14,-0.26 -1.73,-0.26 -1.97,0 -3.77,0.97 -5.07,2.53 -1.32,1.58 -2.14,3.78 -2.14,6.22 0,2.41 0.81,4.61 2.12,6.19l0.02 0.02c1.3,1.56 3.1,2.53 5.07,2.53 1.45,0 2.8,-0.53 3.93,-1.42 1.19,-0.94 2.13,-2.3 2.69,-3.89 0.1,-0.29 0.42,-0.44 0.7,-0.34 0.29,0.1 0.44,0.42 0.34,0.7 -0.63,1.79 -1.7,3.32 -3.04,4.39 -0.33,0.25 -0.66,0.48 -1.02,0.69l0.52 1.29c0.16,0.4 0.16,0.81 0.04,1.16l-0.02 0.04c-0.07,0.21 -0.2,0.42 -0.36,0.59 -0.17,0.17 -0.38,0.32 -0.6,0.41l-0.03 0.01c-0.35,0.12 -0.74,0.15 -1.13,0.01l-1.49 -0.51zm30.83 -1.31l0.01 0 0 0 0.02 0 0 0 0.01 0 0.01 0 0.03 0 0.01 0 0 0 0.01 0.01 0.03 0 0.01 0 0 0 0.01 0.01 0.01 0 0.01 0 0 0 0.01 0.01 0.01 0 0.01 0 2.19 0.75c0.14,0.05 0.28,0.04 0.39,0l0.01 0c0.08,-0.04 0.16,-0.09 0.22,-0.15 0.05,-0.06 0.1,-0.13 0.12,-0.2l0.01 -0.02c0.04,-0.12 0.04,-0.26 -0.01,-0.4l-0.49 -1.23c-0.83,0.32 -1.7,0.5 -2.62,0.5 -0.87,0 -1.7,-0.16 -2.49,-0.45l-0.5 1.11c-0.06,0.14 -0.07,0.28 -0.03,0.41l0.01 0.01c0.02,0.08 0.07,0.15 0.12,0.21 0.05,0.06 0.11,0.1 0.17,0.13l0.03 0.02c0.12,0.05 0.27,0.07 0.42,0.01l2.06 -0.7 0.01 0 0.01 0 0.01 -0.01 0 0 0.01 0 0.01 0 0.01 -0.01 0 0 0.07 -0.01 0.01 0 0 0 0.01 0 0.01 0 0.01 0 0 0 0.01 0 0.01 0zm0.56 1.31l0 14.89c0,0.3 -0.25,0.55 -0.55,0.55 -0.31,0 -0.55,-0.25 -0.55,-0.55l0 -14.89 -1.35 0.46c-0.44,0.15 -0.87,0.11 -1.24,-0.05l-0.05 -0.03c-0.19,-0.09 -0.36,-0.22 -0.5,-0.38 -0.16,-0.17 -0.28,-0.37 -0.35,-0.59l-0.01 -0.04c-0.12,-0.37 -0.11,-0.78 0.07,-1.19l0.5 -1.12c-0.41,-0.23 -0.81,-0.49 -1.18,-0.79 -1.35,-1.1 -2.42,-2.66 -3.04,-4.49 -0.09,-0.28 0.06,-0.59 0.35,-0.69 0.28,-0.1 0.6,0.06 0.69,0.35 0.55,1.62 1.5,3.01 2.69,3.97 1.14,0.92 2.51,1.46 3.98,1.46 1.97,0 3.76,-0.97 5.07,-2.53 1.32,-1.58 2.14,-3.78 2.14,-6.21 0,-2.44 -0.82,-4.64 -2.14,-6.22 -1.31,-1.56 -3.1,-2.53 -5.07,-2.53 -0.65,0 -1.28,0.11 -1.88,0.3 -0.62,0.21 -1.21,0.51 -1.75,0.9 -0.25,0.17 -0.59,0.11 -0.77,-0.13 -0.17,-0.25 -0.11,-0.59 0.13,-0.77 0.63,-0.45 1.33,-0.8 2.05,-1.04 0.71,-0.23 1.46,-0.36 2.22,-0.36 2.31,0 4.4,1.12 5.91,2.92 1.48,1.78 2.4,4.23 2.4,6.93 0,2.69 -0.92,5.14 -2.4,6.92 -0.66,0.79 -1.44,1.46 -2.3,1.95l0.52 1.29c0.16,0.4 0.15,0.81 0.03,1.16l-0.01 0.04c-0.08,0.21 -0.21,0.42 -0.36,0.59 -0.17,0.17 -0.38,0.32 -0.61,0.41l-0.03 0.01c-0.34,0.12 -0.73,0.15 -1.13,0.01l-1.48 -0.51zm-16.36 -4.69l0 -0.01 0.01 0.01 0.01 0 0.01 0 0 0 0.01 0 0.04 0 0.01 0 0.04 0.01 0.01 0 0 0 0.01 0.01 0.01 0 0.01 0 0.01 0 0.01 0.01 0.01 0 2.7 0.92c0.21,0.07 0.41,0.06 0.59,-0.01 0.11,-0.04 0.22,-0.12 0.3,-0.21 0.09,-0.09 0.15,-0.2 0.19,-0.31 0.06,-0.18 0.06,-0.38 -0.02,-0.58l-0.65 -1.64c-1.03,0.43 -2.14,0.66 -3.29,0.66 -1.09,0 -2.14,-0.21 -3.13,-0.59l-0.67 1.48c-0.09,0.21 -0.09,0.42 -0.03,0.61 0.04,0.11 0.1,0.22 0.18,0.3 0.07,0.08 0.16,0.15 0.26,0.2l0.02 0.01c0.18,0.08 0.4,0.1 0.62,0.02l2.54 -0.86 0 0 0.01 -0.01 0.01 0 0.01 0 0 0 0.01 -0.01 0.01 0 0.01 0 0.01 0 0.05 -0.01 0.01 0 0 0 0.01 0 0.01 0 0.01 0 0 0 0.01 0 0.02 0zm0.55 1.31l0 18.5c0,0.3 -0.25,0.55 -0.55,0.55 -0.3,0 -0.55,-0.25 -0.55,-0.55l0 -18.5 -1.82 0.62c-0.51,0.18 -1.01,0.13 -1.43,-0.06l-0.03 -0.01c-0.23,-0.11 -0.44,-0.27 -0.61,-0.46 -0.18,-0.2 -0.32,-0.43 -0.41,-0.69 -0.15,-0.43 -0.15,-0.93 0.07,-1.42l0.67 -1.48c-1.14,-0.61 -2.17,-1.46 -3.04,-2.5 -1.81,-2.17 -2.93,-5.15 -2.93,-8.44 0,-3.29 1.12,-6.28 2.93,-8.44 1.83,-2.19 4.37,-3.55 7.17,-3.55 2.81,0 5.34,1.36 7.17,3.55 1.81,2.16 2.93,5.15 2.93,8.44 0,3.29 -1.12,6.27 -2.93,8.44 -0.83,0.99 -1.81,1.82 -2.89,2.42l0.68 1.7c0.19,0.46 0.18,0.93 0.04,1.34 -0.09,0.27 -0.24,0.52 -0.43,0.72 -0.19,0.2 -0.43,0.37 -0.69,0.47 -0.41,0.16 -0.88,0.19 -1.35,0.03l-2 -0.68zm5.8 -6.71c1.65,-1.97 2.67,-4.71 2.67,-7.73 0,-3.03 -1.02,-5.76 -2.67,-7.74 -1.62,-1.94 -3.86,-3.15 -6.33,-3.15 -2.46,0 -4.7,1.21 -6.33,3.15 -1.65,1.98 -2.67,4.71 -2.67,7.74 0,3.02 1.02,5.76 2.67,7.73 1.63,1.95 3.87,3.15 6.33,3.15 2.47,0 4.71,-1.2 6.33,-3.15zm-9.5 -6.74c-0.56,0 -1.08,-0.23 -1.45,-0.61 -0.38,-0.37 -0.61,-0.88 -0.61,-1.45l0 -1.04c0,-0.57 0.23,-1.08 0.61,-1.45 0.37,-0.38 0.89,-0.61 1.45,-0.61 0.57,0 1.08,0.23 1.46,0.6 0.37,0.38 0.6,0.89 0.6,1.46l0 1.04c0,0.57 -0.23,1.08 -0.6,1.45 -0.38,0.38 -0.89,0.61 -1.46,0.61zm-0.68 -1.38c0.18,0.17 0.42,0.28 0.68,0.28 0.27,0 0.51,-0.11 0.68,-0.28 0.17,-0.17 0.28,-0.41 0.28,-0.68l0 -1.04c0,-0.27 -0.11,-0.51 -0.28,-0.68 -0.17,-0.17 -0.41,-0.28 -0.68,-0.28 -0.26,0 -0.5,0.11 -0.67,0.28 -0.18,0.17 -0.29,0.41 -0.29,0.68l0 1.04c0,0.27 0.11,0.51 0.28,0.68zm7.02 5.8c-0.57,0 -1.08,-0.23 -1.45,-0.6 -0.38,-0.38 -0.61,-0.89 -0.61,-1.46l0 -1.04c0,-0.57 0.23,-1.08 0.6,-1.46 0.38,-0.37 0.89,-0.6 1.46,-0.6 0.56,0 1.08,0.23 1.45,0.6 0.38,0.38 0.61,0.89 0.61,1.46l0 1.04c0,0.57 -0.23,1.08 -0.61,1.45 -0.37,0.38 -0.89,0.61 -1.45,0.61zm-0.68 -1.38c0.17,0.17 0.41,0.28 0.68,0.28 0.26,0 0.5,-0.11 0.67,-0.28 0.18,-0.17 0.28,-0.41 0.28,-0.68l0 -1.04c0,-0.27 -0.1,-0.51 -0.27,-0.68 -0.18,-0.17 -0.42,-0.28 -0.68,-0.28 -0.27,0 -0.51,0.11 -0.68,0.28 -0.17,0.17 -0.28,0.41 -0.28,0.68l0 1.04c0,0.27 0.11,0.51 0.28,0.68z"/>
  <path class="fil1" d="M30.91 10.51c-0.94,-3.76 -3.73,-6.5 -7.02,-6.5 -1.61,0 -3.1,0.66 -4.32,1.77 3.47,-0.17 7.71,0.73 11.34,4.73z"/>
 </g>
</svg>
