<?xml version="1.0" encoding="UTF-8"?>
<!DOCTYPE svg PUBLIC "-//W3C//DTD SVG 1.1//EN" "http://www.w3.org/Graphics/SVG/1.1/DTD/svg11.dtd">
<!-- Creator: CorelDRAW 2019 (64-Bit) -->
<svg xmlns="http://www.w3.org/2000/svg" xml:space="preserve" width="48px" height="48px" version="1.1" style="shape-rendering:geometricPrecision; text-rendering:geometricPrecision; image-rendering:optimizeQuality; fill-rule:evenodd; clip-rule:evenodd"
viewBox="0 0 48 48"
 xmlns:xlink="http://www.w3.org/1999/xlink">
 <defs>
  <style type="text/css">
   <![CDATA[
    .fil0 {fill:gray}
   ]]>
  </style>
 </defs>
 <g id="Слой_x0020_1">
  <metadata id="CorelCorpID_0Corel-Layer"/>
  <path class="fil0" d="M47.65 5.44c0.47,-0.47 0.47,-1.23 0,-1.69l-3.4 -3.4c-0.46,-0.47 -1.22,-0.47 -1.69,0l-42.21 42.21c-0.47,0.46 -0.47,1.22 0,1.69l3.4 3.4c0.46,0.47 1.22,0.47 1.69,0l39.03 -39.03 3.18 -3.18zm-38.05 13.76c2.46,0 4.91,-0.94 6.79,-2.81 3.75,-3.75 3.75,-9.83 0,-13.58 -1.88,-1.87 -4.33,-2.81 -6.79,-2.81 -2.46,0 -4.91,0.94 -6.79,2.81 -3.75,3.75 -3.75,9.83 0,13.58 1.88,1.87 4.33,2.81 6.79,2.81zm-3.39 -12.99c0.9,-0.91 2.11,-1.41 3.39,-1.41 1.28,0 2.49,0.5 3.39,1.41 1.88,1.87 1.88,4.91 0,6.78 -0.9,0.91 -2.11,1.41 -3.39,1.41 -1.28,0 -2.49,-0.5 -3.39,-1.41 -1.88,-1.87 -1.88,-4.91 0,-6.78l0 0zm32.19 22.59c-2.46,0 -4.91,0.94 -6.79,2.81 -3.75,3.75 -3.75,9.83 0,13.58 1.88,1.87 4.33,2.81 6.79,2.81 2.46,0 4.91,-0.94 6.79,-2.81 3.75,-3.75 3.75,-9.83 0,-13.58 -1.88,-1.87 -4.33,-2.81 -6.79,-2.81zm3.39 12.99c-0.9,0.91 -2.11,1.41 -3.39,1.41 -1.28,0 -2.49,-0.5 -3.39,-1.41 -1.88,-1.87 -1.88,-4.91 0,-6.78 0.9,-0.91 2.11,-1.41 3.39,-1.41 1.28,0 2.49,0.5 3.39,1.41 1.88,1.87 1.88,4.91 0,6.78z"/>
 </g>
</svg>
