<?xml version="1.0" encoding="UTF-8"?>
<!DOCTYPE svg PUBLIC "-//W3C//DTD SVG 1.1//EN" "http://www.w3.org/Graphics/SVG/1.1/DTD/svg11.dtd">
<!-- Creator: CorelDRAW 2019 (64-Bit) -->
<svg xmlns="http://www.w3.org/2000/svg" xml:space="preserve" width="48px" height="48px" version="1.1" style="shape-rendering:geometricPrecision; text-rendering:geometricPrecision; image-rendering:optimizeQuality; fill-rule:evenodd; clip-rule:evenodd"
viewBox="0 0 48 48"
 xmlns:xlink="http://www.w3.org/1999/xlink">
 <defs>
  <style type="text/css">
   <![CDATA[
    .fil1 {fill:gray;fill-rule:nonzero}
    .fil0 {fill:#C9DADD;fill-rule:nonzero}
   ]]>
  </style>
 </defs>
 <g id="Слой_x0020_1">
  <metadata id="CorelCorpID_0Corel-Layer"/>
  <path class="fil0" d="M30.97 34.71c-1.29,0 -2.46,-0.53 -3.31,-1.38 -0.86,-0.85 -1.39,-2.02 -1.39,-3.31l0 -2.31c0,-1.29 0.53,-2.46 1.39,-3.32 0.85,-0.85 2.02,-1.37 3.31,-1.37 1.3,0 2.47,0.52 3.32,1.37 0.85,0.86 1.38,2.03 1.38,3.32l0 2.31c0,1.29 -0.53,2.46 -1.38,3.31 -0.85,0.85 -2.02,1.38 -3.32,1.38zm-13.94 -9.73c-1.3,0 -2.47,-0.53 -3.33,-1.38 -0.84,-0.85 -1.37,-2.03 -1.37,-3.32l0 -2.3c0,-1.29 0.53,-2.46 1.38,-3.31 0.85,-0.85 2.02,-1.38 3.32,-1.38 1.29,0 2.46,0.53 3.31,1.38 0.85,0.85 1.39,2.02 1.39,3.31l0 2.3c0,1.3 -0.53,2.48 -1.38,3.33l-0.1 0.08c-0.84,0.8 -1.98,1.29 -3.22,1.29zm-1.38 -3.32c0.35,0.35 0.84,0.57 1.38,0.57 0.51,0 0.97,-0.2 1.31,-0.51l0.06 -0.06c0.35,-0.35 0.57,-0.84 0.57,-1.38l0 -2.3c0,-0.53 -0.22,-1.02 -0.56,-1.36 -0.36,-0.35 -0.84,-0.57 -1.38,-0.57 -0.54,0 -1.03,0.22 -1.38,0.57 -0.35,0.34 -0.57,0.83 -0.57,1.36l0 2.3c0,0.54 0.22,1.03 0.57,1.38zm4.32 12.33c-0.36,0.67 -1.2,0.91 -1.86,0.55 -0.67,-0.37 -0.91,-1.2 -0.55,-1.87l10.24 -18.66c0.36,-0.67 1.2,-0.91 1.87,-0.55 0.66,0.37 0.91,1.21 0.54,1.87l-10.24 18.66zm9.63 -2.6c0.35,0.35 0.83,0.56 1.37,0.56 0.54,0 1.03,-0.21 1.38,-0.56 0.35,-0.35 0.57,-0.84 0.57,-1.37l0 -2.31c0,-0.53 -0.22,-1.02 -0.57,-1.37 -0.35,-0.35 -0.84,-0.57 -1.38,-0.57 -0.54,0 -1.02,0.22 -1.37,0.57 -0.35,0.35 -0.57,0.84 -0.57,1.37l0 2.31c0,0.53 0.22,1.02 0.57,1.37z"/>
  <path class="fil1" d="M48 24c0,6.62 -2.69,12.62 -7.03,16.96 -4.34,4.35 -10.34,7.04 -16.96,7.04 -6.63,0 -12.63,-2.69 -16.97,-7.03 -4.35,-4.34 -7.03,-10.34 -7.03,-16.97 0,-6.63 2.68,-12.63 7.03,-16.97l0.08 -0.08c4.34,-4.29 10.3,-6.95 16.89,-6.95 6.62,0 12.62,2.69 16.96,7.04 4.34,4.34 7.03,10.34 7.03,16.96zm-8.98 15.03c3.84,-3.85 6.22,-9.16 6.22,-15.03 0,-5.87 -2.38,-11.18 -6.22,-15.03 -3.84,-3.84 -9.14,-6.21 -15.01,-6.21 -5.84,0 -11.12,2.34 -14.96,6.15l-0.07 0.07c-3.84,3.84 -6.22,9.15 -6.22,15.02 0,5.87 2.38,11.18 6.22,15.02 3.84,3.85 9.16,6.22 15.03,6.22 5.87,0 11.18,-2.37 15.01,-6.21z"/>
 </g>
</svg>
