<?xml version="1.0" encoding="UTF-8"?>
<!DOCTYPE svg PUBLIC "-//W3C//DTD SVG 1.1//EN" "http://www.w3.org/Graphics/SVG/1.1/DTD/svg11.dtd">
<!-- Creator: CorelDRAW 2019 (64-Bit) -->
<svg xmlns="http://www.w3.org/2000/svg" xml:space="preserve" width="48px" height="48px" version="1.1" style="shape-rendering:geometricPrecision; text-rendering:geometricPrecision; image-rendering:optimizeQuality; fill-rule:evenodd; clip-rule:evenodd"
viewBox="0 0 48 48"
 xmlns:xlink="http://www.w3.org/1999/xlink">
 <defs>
  <style type="text/css">
   <![CDATA[
    .fil1 {fill:gray;fill-rule:nonzero}
    .fil0 {fill:#FBE0DC;fill-rule:nonzero}
   ]]>
  </style>
 </defs>
 <g id="Слой_x0020_1">
  <metadata id="CorelCorpID_0Corel-Layer"/>
  <path class="fil0" d="M4.63 2.24l0 1.22c-1.29,0.76 -2.12,2.15 -2.12,3.71 0,2.36 1.93,4.29 4.3,4.29l0 20.59 -6.26 0 0 -29.81 4.08 0 0 0z"/>
  <path class="fil1" d="M38.84 9.41l-2.76 0c-0.31,0 -0.56,-0.25 -0.56,-0.56 0,-0.3 0.25,-0.55 0.56,-0.55l2.76 0c0.89,0 1.65,-0.31 2.19,-0.8 0.53,-0.48 0.85,-1.17 0.85,-1.94 0,-0.85 -0.3,-1.48 -0.78,-1.92l-0.03 -0.02c-0.59,-0.52 -1.45,-0.78 -2.35,-0.78 -12.12,0 -22.8,1.66 -25.1,2.04l0 24.44c1.75,0.69 8.84,4.06 9.02,13.57 0.01,0.72 0.31,1.3 0.74,1.69 0.31,0.29 0.71,0.48 1.12,0.57 0.4,0.09 0.83,0.08 1.22,-0.04l0.04 -0.01c0.56,-0.18 1.07,-0.58 1.39,-1.24 0.78,-1.62 1.38,-3.47 1.62,-5.5 0.21,-1.76 0.15,-3.66 -0.29,-5.7 -0.04,-0.17 -0.06,-0.33 -0.06,-0.49 0,-0.53 0.19,-1.03 0.51,-1.42 0.31,-0.38 0.74,-0.66 1.23,-0.78l0.06 -0.01c0.15,-0.04 0.32,-0.06 0.49,-0.06 4.09,0 9.4,0.3 13.34,0 0.8,-0.05 1.51,-0.41 2.02,-0.96 0.51,-0.54 0.82,-1.27 0.82,-2.08l0 -0.21c-0.05,-0.8 -0.43,-1.5 -0.99,-2.01 -0.57,-0.52 -1.35,-0.83 -2.18,-0.83l-1.54 0c-0.03,0 -0.07,-0.01 -0.1,-0.01l-0.04 0 -4.95 0c-0.3,0 -0.55,-0.25 -0.55,-0.55 0,-0.31 0.25,-0.56 0.55,-0.56l4.95 0c0.03,0 0.07,0.01 0.11,0.01l0.01 0 0.22 -0.01c0.79,-0.05 1.51,-0.4 2.02,-0.95 0.51,-0.54 0.83,-1.28 0.83,-2.09l-0.01 -0.2c-0.05,-0.78 -0.41,-1.48 -0.95,-1.98l-0.03 -0.03c-0.58,-0.52 -1.36,-0.83 -2.18,-0.83l-1.55 0c-0.04,0 -0.08,-0.01 -0.12,-0.02l-3.79 0c-0.3,0 -0.55,-0.24 -0.55,-0.55 0,-0.31 0.25,-0.55 0.55,-0.55l4.08 0 0.08 0c0.77,-0.06 1.47,-0.42 1.97,-0.95 0.51,-0.54 0.83,-1.28 0.83,-2.09l-0.01 -0.2c-0.05,-0.8 -0.42,-1.5 -0.98,-2.01 -0.58,-0.52 -1.35,-0.83 -2.18,-0.83l-1.55 0zm-32.59 -4.86l0 -1.76 -5.14 0 0 28.71 10.43 0c0.26,0 0.5,-0.11 0.67,-0.27l0.02 -0.02c0.17,-0.17 0.28,-0.42 0.28,-0.68l0 -26.09 0 -0.02 0 -0.01 0 -0.02 0 -0.63c0,-0.26 -0.1,-0.5 -0.27,-0.67l-0.01 -0.01c-0.18,-0.18 -0.42,-0.29 -0.69,-0.29l-4.18 0 0 1.76c0.52,0.1 0.98,0.36 1.34,0.72 0.48,0.49 0.78,1.16 0.78,1.9 0,0.74 -0.3,1.4 -0.78,1.89 -0.48,0.48 -1.15,0.78 -1.89,0.78 -0.74,0 -1.41,-0.3 -1.89,-0.78 -0.49,-0.49 -0.79,-1.16 -0.79,-1.89 0,-0.74 0.3,-1.41 0.79,-1.9 0.36,-0.36 0.82,-0.61 1.33,-0.72zm1.67 3.72c0.28,-0.28 0.46,-0.67 0.46,-1.1 0,-0.44 -0.18,-0.83 -0.46,-1.11 -0.29,-0.29 -0.68,-0.46 -1.11,-0.46 -0.44,0 -0.83,0.17 -1.11,0.45 -0.28,0.29 -0.46,0.68 -0.46,1.12 0,0.43 0.18,0.82 0.46,1.1 0.28,0.29 0.67,0.46 1.11,0.46 0.43,0 0.83,-0.17 1.11,-0.46zm5.7 -4.51c2.65,-0.43 13.19,-2.02 25.1,-2.02 1.15,0 2.27,0.34 3.08,1.05l0.03 0.03c0.71,0.64 1.16,1.55 1.16,2.74 0,1.09 -0.45,2.06 -1.22,2.76l-0.17 0.15c0.64,0.19 1.23,0.52 1.71,0.95 0.76,0.69 1.28,1.66 1.35,2.76l0 0.27c0.01,1.1 -0.42,2.11 -1.12,2.85l-0.37 0.34c0.68,0.18 1.3,0.52 1.81,0.98l0.03 0.04c0.75,0.69 1.24,1.64 1.32,2.72l0 0.27c0.01,1.1 -0.42,2.11 -1.12,2.85l-0.37 0.34c0.68,0.18 1.3,0.53 1.81,0.99 0.76,0.69 1.27,1.65 1.34,2.75l0.01 0.28c0,1.1 -0.43,2.1 -1.13,2.84 -0.69,0.74 -1.66,1.23 -2.75,1.3 -4.42,0.12 -8.98,0.01 -13.41,0.01l-0.29 0.03c-0.25,0.07 -0.48,0.21 -0.63,0.41 -0.16,0.2 -0.26,0.45 -0.26,0.72l0.03 0.25c0.47,2.17 0.53,4.2 0.31,6.07 -0.26,2.16 -0.9,4.11 -1.73,5.85 -0.46,0.96 -1.21,1.55 -2.05,1.82l-0.05 0.01c-0.58,0.17 -1.2,0.19 -1.77,0.06 -0.6,-0.13 -1.17,-0.41 -1.64,-0.83 -0.64,-0.58 -1.07,-1.43 -1.09,-2.49 -0.16,-8.25 -5.88,-11.5 -7.92,-12.39l0 0.01c0,0.57 -0.24,1.09 -0.61,1.46l-0.02 0.03c-0.38,0.36 -0.89,0.59 -1.45,0.59l-10.99 0c-0.3,0 -0.55,-0.25 -0.55,-0.56l0 -29.81c0,-0.31 0.25,-0.56 0.55,-0.56l6.26 0 4.73 0c0.57,0 1.09,0.24 1.47,0.61l0.02 0.03c0.36,0.37 0.59,0.88 0.59,1.44z"/>
 </g>
</svg>
