<?xml version="1.0" encoding="UTF-8"?>
<!DOCTYPE svg PUBLIC "-//W3C//DTD SVG 1.1//EN" "http://www.w3.org/Graphics/SVG/1.1/DTD/svg11.dtd">
<!-- Creator: CorelDRAW 2019 (64-Bit) -->
<svg xmlns="http://www.w3.org/2000/svg" xml:space="preserve" width="48px" height="48px" version="1.1" style="shape-rendering:geometricPrecision; text-rendering:geometricPrecision; image-rendering:optimizeQuality; fill-rule:evenodd; clip-rule:evenodd"
viewBox="0 0 48 48"
 xmlns:xlink="http://www.w3.org/1999/xlink">
 <defs>
  <style type="text/css">
   <![CDATA[
    .fil2 {fill:gray;fill-rule:nonzero}
    .fil1 {fill:#C9DADD;fill-rule:nonzero}
    .fil0 {fill:#FBE0DC;fill-rule:nonzero}
   ]]>
  </style>
 </defs>
 <g id="Слой_x0020_1">
  <metadata id="CorelCorpID_0Corel-Layer"/>
  <path class="fil0" d="M24 0.56c-12.94,0 -23.44,10.5 -23.44,23.44 0,2.92 0.53,5.7 1.51,8.28 0.43,0.96 0.87,1.73 1.9,2.02 0.7,0.19 1.47,0.09 2.1,-0.27 0.54,-0.32 1,-0.86 1.62,-1.03 0.67,-0.19 1.43,0.12 1.97,0.52 0.65,0.49 1.11,1.19 1.55,1.87 0.45,0.69 0.91,1.38 1.57,1.87 0.65,0.49 1.55,0.73 2.3,0.42 0.66,-0.28 1.08,-0.92 1.51,-1.49 0.43,-0.58 0.98,-1.16 1.69,-1.23 2.1,-0.2 1.99,2.49 2.19,3.88 0.14,1 0.54,2.07 1.44,2.5 0.97,0.46 2.18,-0.01 2.89,-0.82 0.8,-0.91 0.93,-2.2 1.62,-3.19 1,-1.44 2.45,-0.93 3.68,-0.09 1.46,1 4.05,1.77 5.49,0.31 1.04,-1.04 0.86,-2.65 1.34,-3.95 0.19,-0.48 0.42,-1.01 0.74,-1.41 0.26,-0.33 0.63,-0.59 1.05,-0.63 0.39,-0.04 0.78,0.13 1.09,0.39 0.97,0.78 1.43,2.06 2.92,1.86 0.75,-0.11 1.71,-0.65 2.24,-1.18 0.99,-1.04 1.52,-2.04 1.92,-3.54 0.36,-1.64 0.55,-3.34 0.55,-5.09 0,-12.94 -10.49,-23.44 -23.44,-23.44zm0 31.51c-4.46,0 -8.08,-3.61 -8.08,-8.07 0,-4.46 3.62,-8.08 8.08,-8.08 4.46,0 8.08,3.62 8.08,8.08 0,4.46 -3.62,8.07 -8.08,8.07z"/>
  <path class="fil1" d="M10.54 24.59l-2.69 0c-0.33,0 -0.59,-0.26 -0.59,-0.59 0,-0.33 0.26,-0.6 0.59,-0.6l2.69 0c0.32,0 0.59,0.27 0.59,0.6 0,0.33 -0.27,0.59 -0.59,0.59zm29.61 0l-2.69 0c-0.32,0 -0.59,-0.26 -0.59,-0.59 0,-0.33 0.27,-0.6 0.59,-0.6l2.69 0c0.33,0 0.59,0.27 0.59,0.6 0,0.33 -0.26,0.59 -0.59,0.59zm-4.49 -6.73c-0.2,0 -0.4,-0.1 -0.51,-0.3 -0.17,-0.28 -0.07,-0.64 0.21,-0.81l2.33 -1.34c0.28,-0.16 0.65,-0.07 0.81,0.22 0.16,0.28 0.07,0.65 -0.22,0.81l-2.32 1.34c-0.09,0.06 -0.2,0.08 -0.3,0.08zm-3.07 -7.55l-1.34 2.33c-0.11,0.19 -0.31,0.29 -0.52,0.29 -0.1,0 -0.2,-0.02 -0.29,-0.07 -0.29,-0.17 -0.39,-0.53 -0.22,-0.82l1.34 -2.32c0.16,-0.29 0.53,-0.38 0.81,-0.22 0.29,0.16 0.38,0.53 0.22,0.81zm-17.18 0c-0.16,-0.28 -0.07,-0.65 0.22,-0.81 0.28,-0.16 0.65,-0.07 0.81,0.22l1.34 2.32c0.17,0.29 0.07,0.65 -0.21,0.81 -0.1,0.06 -0.2,0.08 -0.3,0.08 -0.21,0 -0.41,-0.1 -0.52,-0.29l-1.34 -2.33zm8 -2.46c0,-0.33 0.26,-0.59 0.59,-0.59 0.33,0 0.6,0.26 0.6,0.59l0 2.69c0,0.32 -0.27,0.59 -0.6,0.59 -0.33,0 -0.59,-0.27 -0.59,-0.59l0 -2.69zm-10.55 9.71c-0.11,0.2 -0.31,0.3 -0.52,0.3 -0.1,0 -0.2,-0.02 -0.3,-0.08l-2.32 -1.34c-0.29,-0.16 -0.38,-0.53 -0.22,-0.81 0.16,-0.29 0.53,-0.38 0.81,-0.22l2.33 1.34c0.28,0.17 0.38,0.53 0.22,0.81z"/>
  <path class="fil2" d="M46.88 24c0,-6.32 -2.56,-12.04 -6.7,-16.18 -4.14,-4.14 -9.86,-6.7 -16.18,-6.7 -6.32,0 -12.04,2.56 -16.18,6.7 -4.14,4.14 -6.7,9.86 -6.7,16.18 0,2.83 0.51,5.54 1.45,8.04l0.01 0.03c0.2,0.42 0.39,0.81 0.63,1.1 0.23,0.27 0.51,0.48 0.91,0.59 0.27,0.08 0.57,0.1 0.85,0.06 0.28,-0.04 0.57,-0.13 0.82,-0.28 0.16,-0.09 0.34,-0.23 0.52,-0.37l0.03 -0.02c0.36,-0.28 0.73,-0.56 1.2,-0.69 0.42,-0.12 0.85,-0.09 1.25,0.02l0.02 0c0.43,0.12 0.85,0.35 1.18,0.6 0.37,0.27 0.68,0.61 0.96,0.96l0.03 0.03c0.25,0.33 0.48,0.68 0.7,1.02 0.22,0.33 0.45,0.67 0.68,0.96 0.22,0.28 0.47,0.55 0.75,0.76l0.03 0.02c0.27,0.2 0.59,0.35 0.92,0.4l0.01 0.01c0.27,0.04 0.55,0.03 0.79,-0.08 0.46,-0.19 0.82,-0.67 1.16,-1.13l0.13 -0.18c0.23,-0.31 0.51,-0.64 0.83,-0.9 0.36,-0.29 0.77,-0.5 1.25,-0.54 2.34,-0.23 2.56,2.02 2.72,3.69l0.07 0.66c0.07,0.48 0.2,0.99 0.44,1.39 0.17,0.3 0.4,0.55 0.7,0.69l0.03 0.02c0.32,0.14 0.69,0.13 1.04,0.04 0.43,-0.13 0.85,-0.4 1.15,-0.74l0.02 -0.03c0.37,-0.42 0.58,-0.98 0.8,-1.54 0.2,-0.54 0.41,-1.08 0.76,-1.58 0.63,-0.91 1.43,-1.21 2.26,-1.14 0.75,0.06 1.51,0.44 2.2,0.9 0.74,0.52 1.81,0.96 2.83,1.02 0.74,0.04 1.44,-0.12 1.95,-0.63 0.54,-0.55 0.69,-1.37 0.84,-2.2 0.09,-0.52 0.18,-1.05 0.37,-1.56 0.09,-0.24 0.21,-0.51 0.34,-0.78 0.14,-0.28 0.3,-0.54 0.49,-0.78 0.17,-0.22 0.39,-0.42 0.64,-0.57 0.23,-0.14 0.5,-0.24 0.78,-0.26 0.28,-0.03 0.54,0.01 0.79,0.1 0.26,0.09 0.51,0.23 0.71,0.4 0.32,0.25 0.58,0.54 0.82,0.83 0.47,0.52 0.91,1.02 1.68,0.91 0.29,-0.04 0.64,-0.17 0.98,-0.34 0.36,-0.2 0.7,-0.44 0.92,-0.67 0.48,-0.5 0.84,-0.98 1.13,-1.52 0.26,-0.5 0.47,-1.07 0.65,-1.75l0.01 -0.03c0.35,-1.59 0.53,-3.24 0.53,-4.94zm-43.03 10.84c1.06,1.97 2.4,3.77 3.97,5.34l0.03 0.03c4.13,4.12 9.85,6.67 16.15,6.67 6.32,0 12.04,-2.56 16.18,-6.7 1.93,-1.93 3.51,-4.2 4.66,-6.71 -0.21,0.15 -0.44,0.3 -0.68,0.42 -0.45,0.24 -0.93,0.41 -1.35,0.47 -1.36,0.18 -1.99,-0.53 -2.66,-1.29 -0.22,-0.24 -0.44,-0.49 -0.69,-0.69 -0.11,-0.09 -0.24,-0.17 -0.38,-0.22 -0.1,-0.04 -0.21,-0.05 -0.31,-0.04 -0.11,0 -0.22,0.05 -0.32,0.11 -0.13,0.07 -0.24,0.18 -0.34,0.3 -0.13,0.17 -0.26,0.37 -0.36,0.58 -0.11,0.22 -0.21,0.46 -0.29,0.69 -0.16,0.41 -0.24,0.88 -0.32,1.36 -0.18,0.99 -0.35,1.99 -1.15,2.79 -0.76,0.76 -1.77,1.02 -2.8,0.96 -1.24,-0.07 -2.52,-0.6 -3.4,-1.21 -0.55,-0.37 -1.13,-0.67 -1.66,-0.71 -0.45,-0.04 -0.89,0.13 -1.25,0.66 -0.28,0.4 -0.46,0.87 -0.64,1.34 -0.25,0.65 -0.51,1.31 -0.99,1.87l-0.03 0.04c-0.44,0.49 -1.05,0.89 -1.69,1.07 -0.59,0.17 -1.23,0.16 -1.81,-0.1l-0.04 -0.02c-0.52,-0.25 -0.91,-0.66 -1.19,-1.14 -0.31,-0.54 -0.49,-1.18 -0.58,-1.79l-0.07 -0.71c-0.12,-1.2 -0.27,-2.81 -1.5,-2.7 -0.23,0.03 -0.46,0.15 -0.66,0.31 -0.23,0.19 -0.45,0.44 -0.64,0.7l-0.12 0.17c-0.43,0.59 -0.89,1.2 -1.62,1.5 -0.46,0.19 -0.95,0.23 -1.42,0.15l-0.03 -0.01c-0.49,-0.09 -0.97,-0.31 -1.37,-0.6l-0.03 -0.02c-0.37,-0.28 -0.69,-0.61 -0.97,-0.97 -0.27,-0.35 -0.51,-0.7 -0.73,-1.04 -0.21,-0.32 -0.43,-0.65 -0.65,-0.94l-0.03 -0.03c-0.22,-0.29 -0.47,-0.55 -0.75,-0.76 -0.23,-0.18 -0.51,-0.33 -0.8,-0.41l-0.02 0c-0.23,-0.07 -0.46,-0.08 -0.66,-0.03 -0.27,0.08 -0.54,0.29 -0.81,0.49l-0.04 0.03c-0.2,0.16 -0.41,0.32 -0.64,0.46 -0.38,0.22 -0.8,0.36 -1.24,0.42 -0.42,0.05 -0.85,0.02 -1.26,-0.09zm43.63 -5.87l-0.01 0.1 -0.03 0.12 -0.01 0.04c-1.01,4.53 -3.29,8.58 -6.46,11.74 -4.34,4.34 -10.34,7.03 -16.97,7.03 -6.61,0 -12.6,-2.67 -16.94,-7l-0.03 -0.03c-4.34,-4.34 -7.03,-10.34 -7.03,-16.97 0,-6.63 2.69,-12.63 7.03,-16.97 4.34,-4.34 10.35,-7.03 16.97,-7.03 6.63,0 12.63,2.69 16.97,7.03 4.34,4.34 7.03,10.34 7.03,16.97 0,1.7 -0.18,3.37 -0.52,4.97zm-19.15 -8.11c0.16,0.26 0.08,0.61 -0.17,0.77 -0.26,0.17 -0.61,0.09 -0.77,-0.17 -0.36,-0.57 -0.87,-1.05 -1.46,-1.38l-0.02 -0.02c-0.57,-0.3 -1.22,-0.49 -1.9,-0.49 -0.72,-0.01 -1.4,0.16 -1.99,0.48 -0.61,0.33 -1.13,0.81 -1.5,1.4 -0.17,0.26 -0.51,0.33 -0.77,0.17 -0.26,-0.17 -0.34,-0.51 -0.17,-0.77 0.48,-0.75 1.14,-1.36 1.91,-1.78 0.75,-0.41 1.62,-0.63 2.53,-0.62 0.88,0.01 1.71,0.25 2.43,0.64l0.03 0.02c0.75,0.42 1.39,1.03 1.85,1.75zm3.19 3.14c0,-2.08 -0.85,-3.96 -2.21,-5.31l-0.02 -0.03c-1.36,-1.35 -3.23,-2.18 -5.29,-2.18 -2.07,0 -3.96,0.85 -5.31,2.21l-0.03 0.02c-1.35,1.36 -2.18,3.23 -2.18,5.29 0,2.08 0.85,3.96 2.2,5.31 1.37,1.36 3.25,2.2 5.32,2.2 2.08,0 3.96,-0.84 5.31,-2.2 1.36,-1.35 2.21,-3.23 2.21,-5.31zm-1.41 -6.11c1.56,1.57 2.53,3.73 2.53,6.11 0,2.38 -0.97,4.54 -2.53,6.1 -1.57,1.57 -3.73,2.53 -6.11,2.53 -2.38,0 -4.54,-0.96 -6.11,-2.53 -1.56,-1.56 -2.53,-3.72 -2.53,-6.1 0,-2.37 0.96,-4.51 2.5,-6.07l0.03 -0.04c1.57,-1.56 3.73,-2.53 6.11,-2.53 2.37,0 4.51,0.96 6.07,2.5l0.04 0.03z"/>
 </g>
</svg>
