<?xml version="1.0" encoding="UTF-8"?>
<!DOCTYPE svg PUBLIC "-//W3C//DTD SVG 1.1//EN" "http://www.w3.org/Graphics/SVG/1.1/DTD/svg11.dtd">
<!-- Creator: CorelDRAW 2019 (64-Bit) -->
<svg xmlns="http://www.w3.org/2000/svg" xml:space="preserve" width="48px" height="48px" version="1.1" style="shape-rendering:geometricPrecision; text-rendering:geometricPrecision; image-rendering:optimizeQuality; fill-rule:evenodd; clip-rule:evenodd"
viewBox="0 0 48 48"
 xmlns:xlink="http://www.w3.org/1999/xlink">
 <defs>
  <style type="text/css">
   <![CDATA[
    .fil0 {fill:gray;fill-rule:nonzero}
    .fil1 {fill:#FBE0DC;fill-rule:nonzero}
   ]]>
  </style>
 </defs>
 <g id="Слой_x0020_1">
  <metadata id="CorelCorpID_0Corel-Layer"/>
  <path class="fil0" d="M6.51 28.19c2.02,0.45 4.1,0.68 6.17,0.68 2.08,0 4.15,-0.23 6.18,-0.68l0 -7.9c-2.04,0.44 -4.12,0.66 -6.18,0.66 -2.06,0 -4.13,-0.22 -6.17,-0.66l0 7.9zm30.06 -14.65c-0.3,0 -0.55,-0.24 -0.55,-0.54 0,-0.31 0.25,-0.55 0.55,-0.55 0.77,0 1.48,-0.32 1.99,-0.83 0.5,-0.5 0.82,-1.21 0.82,-1.98 0,-0.78 -0.32,-1.48 -0.82,-1.99 -0.51,-0.51 -1.21,-0.82 -1.99,-0.82 -0.3,0 -0.55,-0.25 -0.55,-0.55 0,-0.3 0.25,-0.55 0.55,-0.55 1.08,0 2.06,0.44 2.77,1.14 0.7,0.71 1.14,1.69 1.14,2.77 0,1.07 -0.44,2.05 -1.15,2.76 -0.7,0.71 -1.68,1.14 -2.76,1.14zm1.48 -9.47c-0.3,-0.04 -0.51,-0.32 -0.46,-0.62 0.04,-0.3 0.32,-0.5 0.61,-0.46 0.01,0 3.22,0.35 4.56,3.98 0.1,0.29 -0.05,0.6 -0.33,0.71 -0.28,0.1 -0.6,-0.04 -0.7,-0.33 -1.11,-3 -3.67,-3.28 -3.68,-3.28zm-6.9 3.2c0.18,0.22 0.17,0.54 -0.04,0.74 -0.21,0.22 -0.56,0.22 -0.77,0l-0.1 -0.12c-0.49,-0.74 -0.64,-1.6 -0.5,-2.41 0.15,-0.8 0.6,-1.56 1.32,-2.07l0.1 -0.07c0.73,-0.49 1.59,-0.64 2.4,-0.5 0.81,0.15 1.56,0.6 2.07,1.32 0.19,0.21 0.18,0.54 -0.02,0.75 -0.22,0.21 -0.57,0.21 -0.78,0l-0.06 -0.08c-0.35,-0.5 -0.86,-0.81 -1.41,-0.91 -0.54,-0.1 -1.11,0.01 -1.6,0.34l-0.03 0.02c-0.5,0.34 -0.81,0.85 -0.91,1.4 -0.09,0.54 0.01,1.11 0.33,1.59zm1.76 2.3c0.29,0.07 0.47,0.37 0.4,0.66 -0.07,0.3 -0.37,0.48 -0.66,0.41l-0.2 -0.04 -0.23 -0.01c-0.55,0 -1.06,0.23 -1.42,0.59 -0.37,0.37 -0.6,0.88 -0.6,1.43 0,0.56 0.23,1.07 0.59,1.43 0.37,0.36 0.88,0.59 1.43,0.59 0.32,0 0.62,-0.07 0.88,-0.19 0.27,-0.13 0.51,-0.32 0.7,-0.56 0.19,-0.23 0.53,-0.27 0.77,-0.08 0.24,0.19 0.27,0.54 0.08,0.77 -0.28,0.36 -0.66,0.66 -1.08,0.86 -0.41,0.19 -0.87,0.3 -1.35,0.3 -0.86,0 -1.64,-0.35 -2.2,-0.91 -0.57,-0.56 -0.92,-1.34 -0.92,-2.21 0,-0.86 0.36,-1.64 0.92,-2.2 0.56,-0.57 1.35,-0.92 2.2,-0.92l0.35 0.02 0.34 0.06zm-5.41 7.89c2.13,0.51 4.31,0.77 6.51,0.77 2.2,0 4.41,-0.26 6.55,-0.78 0.27,-0.06 0.54,0.08 0.64,0.32 0,0.02 1.96,4.77 0.02,11.2l-0.01 0.03c-0.15,0.45 -2.1,6.62 -1.57,11.95l0.61 4.34 0.03 0.34c0,0.58 -0.22,1.13 -0.59,1.55 -0.36,0.42 -0.87,0.71 -1.45,0.79l-0.34 0.03 -7.79 0 -0.37 -0.03c-0.57,-0.09 -1.07,-0.38 -1.42,-0.79l-0.02 -0.02c-0.35,-0.42 -0.57,-0.96 -0.57,-1.53 0.12,-1.53 0.43,-3.15 0.64,-4.68 0.54,-5.53 -1.57,-11.96 -1.58,-11.98 -1.94,-6.43 0.02,-11.18 0.02,-11.2 0.09,-0.21 0.29,-0.34 0.51,-0.34l0.18 0.03zm6.51 1.86c-2.12,0 -4.25,-0.23 -6.34,-0.69 -0.39,1.24 -1.32,5.08 0.17,10.02 0.08,0.22 2.18,6.73 1.62,12.41 -0.14,1.49 -0.53,3.08 -0.63,4.57 0,0.31 0.11,0.59 0.3,0.81l0.02 0.02c0.19,0.22 0.45,0.38 0.75,0.43 1.78,0.19 6.31,0.12 8.18,0 0.31,-0.04 0.59,-0.2 0.78,-0.43 0.2,-0.22 0.32,-0.52 0.32,-0.83l-0.01 -0.18 -0.62 -4.38c-0.56,-5.61 1.5,-12.04 1.61,-12.41l0.01 -0.01c1.49,-4.94 0.56,-8.78 0.17,-10.02 -2.09,0.46 -4.22,0.69 -6.33,0.69zm-18.52 -18.22l-5.62 0c-0.2,0.41 -0.3,0.86 -0.3,1.31 0,0.45 0.1,0.91 0.3,1.32l5.62 0c0.2,-0.41 0.3,-0.87 0.3,-1.32 0,-0.45 -0.1,-0.9 -0.3,-1.31zm-5.94 -1.1l6.26 0c0.18,0 0.36,0.1 0.47,0.26 0.4,0.66 0.6,1.41 0.6,2.15 0,0.73 -0.19,1.46 -0.58,2.12 -0.09,0.18 -0.28,0.3 -0.49,0.3l-6.26 0c-0.19,0 -0.37,-0.1 -0.47,-0.27 -0.4,-0.66 -0.61,-1.4 -0.61,-2.15 0,-0.73 0.2,-1.47 0.6,-2.13 0.09,-0.17 0.27,-0.28 0.48,-0.28zm10.4 28.55c0,0.05 0,0.1 0,0.15l0 0.14c-0.06,0.68 -0.16,1.38 -0.26,2.06 -0.13,0.84 -0.29,1.67 -0.44,2.43 -0.21,1.01 -0.28,2.04 -0.21,3.06 0.08,0.99 0.29,1.97 0.64,2.9l0.04 0.12c1.04,3.45 -0.14,6.56 -0.23,6.79 -0.17,0.51 -0.48,0.92 -0.86,1.22 -0.36,0.28 -0.78,0.47 -1.22,0.54 -0.43,0.07 -0.89,0.04 -1.32,-0.11 -0.46,-0.15 -0.89,-0.45 -1.23,-0.88l-0.06 -0.08c-0.16,-0.23 -0.8,-1.05 -2.02,-1.05l-0.13 -0.01c-0.23,0.01 -1.39,0.01 -2.12,1.11l-0.03 0.04c-0.34,0.42 -0.77,0.71 -1.23,0.87 -0.43,0.15 -0.88,0.18 -1.32,0.11 -0.44,-0.07 -0.86,-0.26 -1.22,-0.54l-0.03 -0.03c-0.36,-0.3 -0.66,-0.7 -0.83,-1.19 -0.14,-0.36 -1.26,-3.34 -0.23,-6.79l0.04 -0.12c0.36,-0.93 0.57,-1.91 0.64,-2.9 0.07,-1.02 0,-2.05 -0.2,-3.06 -0.15,-0.71 -0.29,-1.47 -0.41,-2.24 -0.13,-0.78 -0.24,-1.57 -0.3,-2.3l0 -9.19c0,-1 0.1,-2.01 0.29,-2.99 0.19,-0.98 0.48,-1.95 0.86,-2.88l1.65 -4.04c0.15,-0.38 0.33,-0.73 0.5,-1.09 0.44,-0.88 0.88,-1.78 0.88,-2.73 0,-0.3 0.25,-0.55 0.55,-0.55 0.3,0 0.55,0.25 0.55,0.55 0,1.2 -0.5,2.22 -0.99,3.22 -0.18,0.35 -0.35,0.7 -0.48,1.02l-1.64 4.03c-0.36,0.86 -0.63,1.77 -0.8,2.68 -0.15,0.77 -0.24,1.56 -0.27,2.35 2.03,0.45 4.1,0.68 6.17,0.68 2.07,0 4.14,-0.23 6.17,-0.68 -0.02,-0.79 -0.11,-1.58 -0.26,-2.35 -0.18,-0.91 -0.45,-1.81 -0.8,-2.68l-1.63 -3.99c-0.14,-0.36 -0.32,-0.72 -0.49,-1.07 -0.49,-1.02 -1,-2.06 -1,-3.21 0,-0.3 0.25,-0.55 0.55,-0.55 0.3,0 0.55,0.25 0.55,0.55 0,0.91 0.45,1.83 0.89,2.73 0.18,0.39 0.37,0.77 0.52,1.14l1.62 3.99c0.38,0.93 0.67,1.9 0.87,2.88 0.19,0.98 0.29,1.99 0.29,2.99l-0.01 8.95zm-1.15 0.77c-2.02,0.43 -4.08,0.65 -6.12,0.65 -2.04,0 -4.09,-0.22 -6.11,-0.65 0.06,0.53 0.13,1.07 0.22,1.6 0.12,0.75 0.26,1.5 0.4,2.19 0.23,1.11 0.3,2.24 0.22,3.36 -0.08,1.09 -0.31,2.17 -0.7,3.2l-0.02 0.06c-0.93,3.14 0.09,5.8 0.2,6.05l0.02 0.06c0.1,0.29 0.27,0.53 0.48,0.7l0.02 0.02c0.21,0.17 0.46,0.27 0.72,0.32 0.26,0.04 0.53,0.02 0.79,-0.07 0.26,-0.09 0.51,-0.26 0.72,-0.51 1.05,-1.56 2.68,-1.56 3,-1.56l0.14 0c1.77,0 2.69,1.21 2.91,1.52l0.05 0.05c0.19,0.25 0.44,0.41 0.71,0.5 0.25,0.09 0.52,0.11 0.78,0.07 0.26,-0.05 0.51,-0.15 0.72,-0.32 0.22,-0.17 0.4,-0.42 0.5,-0.72l0.01 -0.01c0,-0.01 1.18,-2.89 0.21,-6.11l-0.02 -0.05c-0.39,-1.03 -0.62,-2.12 -0.7,-3.2 -0.08,-1.12 0,-2.25 0.22,-3.36 0.16,-0.75 0.31,-1.56 0.43,-2.38 0.08,-0.47 0.15,-0.95 0.2,-1.41z"/>
  <path class="fil1" d="M36.91 41.23c-0.45,-4.49 0.66,-9.4 1.29,-11.73l-8.39 0c0.64,2.33 1.74,7.24 1.29,11.73l0 0.05 -0.56 3.97 6.93 0 -0.55 -3.92 -0.01 -0.1z"/>
 </g>
</svg>
