<?xml version="1.0" encoding="UTF-8"?>
<!DOCTYPE svg PUBLIC "-//W3C//DTD SVG 1.1//EN" "http://www.w3.org/Graphics/SVG/1.1/DTD/svg11.dtd">
<!-- Creator: CorelDRAW 2019 (64-Bit) -->
<svg xmlns="http://www.w3.org/2000/svg" xml:space="preserve" width="48px" height="48px" version="1.1" style="shape-rendering:geometricPrecision; text-rendering:geometricPrecision; image-rendering:optimizeQuality; fill-rule:evenodd; clip-rule:evenodd"
viewBox="0 0 48 48"
 xmlns:xlink="http://www.w3.org/1999/xlink">
 <defs>
  <style type="text/css">
   <![CDATA[
    .fil0 {fill:gray;fill-rule:nonzero}
    .fil2 {fill:#C9DADD;fill-rule:nonzero}
    .fil1 {fill:#FBE0DC;fill-rule:nonzero}
   ]]>
  </style>
 </defs>
 <g id="Слой_x0020_1">
  <metadata id="CorelCorpID_0Corel-Layer"/>
  <path class="fil0" d="M11.52 42.45l-6.74 -3.67 0.29 7.71 6.45 -4.04zm-7.86 -4.65l0 -0.01 0 0 0 -0.01 0 -0.01 0 -0.01 0 0 0 -0.01 0 -0.01 0 0 0.01 -0.02 0 0 0 -0.01 0 -0.01 0 0 0.01 -0.01 0 -0.01 0 0 0 -0.01 0 0 0.01 -0.01 0 0 0 -0.01 0 0 0 -0.01 0.01 -0.01 0 0 0 -0.01 0 0 0 0 0.01 -0.01 0 -0.01 0 0 0.01 -0.02 0.01 -0.01 0 -0.01 0.01 -0.01 17.5 -32.17 0.04 -0.06c0.74,-1.33 1.61,-2.78 2.21,-4.08 0.31,-0.57 0.83,-0.97 1.42,-1.14 0.58,-0.17 1.23,-0.12 1.81,0.19l5.18 2.82c0.57,0.31 0.97,0.83 1.14,1.41 0.17,0.59 0.12,1.24 -0.19,1.82l-2.23 4.1 -0.01 0.01 -0.01 0.01 0 0.01 -17.52 32.2c-0.03,0.05 -0.06,0.08 -0.09,0.12l0 0 -0.01 0.01 0 0 -0.01 0.01 -0.01 0.01 0 0 -0.01 0.01 -0.01 0.01 0 0 -0.01 0 0 0.01 -0.01 0 0 0.01 -0.01 0 0 0 -0.01 0.01 0 0 -0.01 0.01 -0.01 0 -0.01 0 -0.01 0.01 -7.97 5c-0.09,0.07 -0.2,0.11 -0.31,0.11 -0.3,0.01 -0.56,-0.23 -0.57,-0.53l-0.36 -9.61 0.01 -0.06zm22.48 -29.13l-5.19 9.54c-0.15,0.27 -0.48,0.36 -0.74,0.22 -0.27,-0.14 -0.37,-0.48 -0.22,-0.74l5.19 -9.54 -3.24 -1.77 -17 31.25 7.44 4.04 17 -31.24 -3.24 -1.76zm-3.68 -3.25l3.71 2.02 0.01 0.01 3.72 2.02 1.99 -3.65c0.17,-0.31 0.2,-0.67 0.11,-0.99 -0.1,-0.31 -0.31,-0.59 -0.63,-0.76l-5.17 -2.82c-0.31,-0.17 -0.67,-0.2 -0.99,-0.1 -0.31,0.09 -0.59,0.3 -0.76,0.61l-1.99 3.66z"/>
  <polygon class="fil1" points="24.69,4.77 25.72,2.87 30.28,5.34 29.24,7.24 "/>
  <path class="fil2" d="M24.69 42.96c-0.31,0 -0.55,-0.24 -0.55,-0.55 0,-0.3 0.24,-0.54 0.55,-0.54l19.11 0c0.3,0 0.55,0.24 0.55,0.54 0,0.31 -0.25,0.55 -0.55,0.55l-19.11 0zm0 -5.04c-0.31,0 -0.55,-0.24 -0.55,-0.54 0,-0.31 0.24,-0.55 0.55,-0.55l19.11 0c0.3,0 0.55,0.24 0.55,0.55 0,0.3 -0.25,0.54 -0.55,0.54l-19.11 0z"/>
 </g>
</svg>
