<?xml version="1.0" encoding="UTF-8"?>
<!DOCTYPE svg PUBLIC "-//W3C//DTD SVG 1.1//EN" "http://www.w3.org/Graphics/SVG/1.1/DTD/svg11.dtd">
<!-- Creator: CorelDRAW 2019 (64-Bit) -->
<svg xmlns="http://www.w3.org/2000/svg" xml:space="preserve" width="48px" height="48px" version="1.1" style="shape-rendering:geometricPrecision; text-rendering:geometricPrecision; image-rendering:optimizeQuality; fill-rule:evenodd; clip-rule:evenodd"
viewBox="0 0 48 48"
 xmlns:xlink="http://www.w3.org/1999/xlink">
 <defs>
  <style type="text/css">
   <![CDATA[
    .fil0 {fill:gray;fill-rule:nonzero}
    .fil1 {fill:#C9DADD;fill-rule:nonzero}
    .fil2 {fill:#FBE0DC;fill-rule:nonzero}
   ]]>
  </style>
 </defs>
 <g id="Слой_x0020_1">
  <metadata id="CorelCorpID_0Corel-Layer"/>
  <path class="fil0" d="M15 40.65l-0.02 0.04c-1.05,2.47 -2.75,4.41 -4.64,5.55 0.16,0.03 0.32,0.06 0.49,0.09 0.62,0.1 1.27,0.15 1.95,0.15 2.5,0 4.76,-0.74 6.38,-1.95 1.58,-1.17 2.56,-2.77 2.56,-4.53 0,-1.47 -0.68,-2.83 -1.81,-3.91 -1.03,-0.99 -2.43,-1.75 -4.05,-2.18 0.36,2.06 0.1,4.44 -0.86,6.74zm28.48 -22.54c0.03,-0.02 0.06,-0.04 0.1,-0.05l0 0c3.01,-1.5 3.37,-3.72 3.31,-4.95 -2.02,1.46 -5.29,2.51 -5.3,2.51 -0.29,0.09 -0.6,-0.08 -0.69,-0.37 -0.08,-0.29 0.08,-0.6 0.37,-0.68 0.01,-0.01 4.01,-1.28 5.62,-2.89 0.22,-0.21 0.57,-0.21 0.78,0 0.07,0.08 0.12,0.17 0.14,0.26 0.08,0.25 1.21,4.31 -3.18,6.81 0.25,0.37 0.52,0.92 0.65,1.64l0 0.03c0.18,1.02 -0.01,2.03 -0.49,2.89 -0.49,0.89 -1.27,1.62 -2.24,2.04l-0.24 0.1c-0.11,2.94 -1.46,5.4 -3.48,7.31 -2.43,2.31 -5.84,3.82 -9.14,4.41l-0.04 0.01c-0.7,0.13 -1.31,0.51 -1.75,1.03 -0.44,0.52 -0.7,1.2 -0.7,1.93l0 5.49c0,0.3 -0.25,0.55 -0.55,0.55 -0.31,0 -0.55,-0.25 -0.55,-0.55l0 -5.49c0,-1 0.36,-1.92 0.96,-2.64 0.6,-0.71 1.43,-1.22 2.39,-1.4l0.05 -0.01c3.11,-0.55 6.31,-1.97 8.58,-4.12 1.71,-1.63 2.9,-3.7 3.11,-6.14l-0.37 0.1c-0.68,0.16 -1.45,0.3 -2.34,0.38 -0.3,0.02 -0.57,-0.2 -0.6,-0.5 -0.02,-0.31 0.2,-0.57 0.5,-0.6 0.84,-0.07 1.56,-0.2 2.17,-0.35 0.36,-0.09 0.68,-0.18 0.98,-0.29 0.04,-0.02 0.08,-0.03 0.12,-0.04 0.17,-0.06 0.32,-0.12 0.46,-0.19 0.75,-0.32 1.35,-0.88 1.72,-1.56 0.36,-0.64 0.51,-1.4 0.37,-2.17l0 -0.03c-0.11,-0.63 -0.37,-1.07 -0.56,-1.33 -0.94,0.41 -2.07,0.75 -3.43,1 -0.3,0.06 -0.59,-0.14 -0.64,-0.44 -0.06,-0.29 0.14,-0.58 0.44,-0.63 1.43,-0.26 2.56,-0.64 3.47,-1.07zm-5.75 -0.71c0.14,0.95 -0.07,1.89 -0.54,2.68l-0.02 0.03c-0.4,0.65 -0.97,1.2 -1.68,1.56 0,0.82 -0.15,1.58 -0.45,2.3l-0.01 0.03c-0.68,1.63 -2.05,2.97 -3.82,3.93 -1.72,0.94 -3.84,1.52 -6.02,1.65 -2.18,0.12 -4.44,-0.2 -6.48,-1.05 -2.48,-1.02 -4.06,-2.5 -4.07,-2.5 -0.21,-0.22 -0.21,-0.57 0,-0.78 0.22,-0.22 0.57,-0.22 0.78,0 0.01,0 1.43,1.33 3.7,2.27 1.89,0.79 3.99,1.08 6.01,0.96 2.02,-0.11 3.97,-0.65 5.56,-1.51 1.55,-0.84 2.75,-2 3.33,-3.39l0.01 -0.03c0.19,-0.46 0.31,-0.95 0.35,-1.46l-3.05 0.93c-0.28,0.09 -0.59,-0.07 -0.68,-0.36 -0.09,-0.29 0.07,-0.6 0.36,-0.69l3.44 -1.05c0.77,-0.23 1.39,-0.74 1.78,-1.38l0.01 -0.02c0.29,-0.49 0.45,-1.05 0.44,-1.63 -0.29,0.12 -0.59,0.24 -0.88,0.36 -0.56,0.22 -1.15,0.43 -1.77,0.62 -0.29,0.09 -0.6,-0.08 -0.69,-0.36 -0.08,-0.29 0.08,-0.6 0.37,-0.69 0.57,-0.17 1.14,-0.38 1.69,-0.59 0.55,-0.22 1.04,-0.43 1.46,-0.62l0 0 0.01 0 0.02 -0.01 0.01 -0.01 0.01 0 0.01 -0.01 0.01 0c0.47,-0.22 0.89,-0.54 1.16,-0.93 0.24,-0.34 0.38,-0.73 0.37,-1.16l-0.16 -1.12c-1.6,0.82 -3.12,1.46 -4.53,1.95 -1.8,0.63 -3.45,1.01 -4.95,1.21 -2.9,0.39 -5.76,-0.18 -8.23,-1.48 -2.51,-1.32 -4.63,-3.4 -6.01,-6.02 -0.33,-0.63 -0.73,-1.24 -1.23,-1.83 -0.48,-0.57 -1.07,-1.1 -1.8,-1.59 -0.24,-0.13 -0.35,-0.42 -0.25,-0.68 0.18,-0.45 0.15,-0.92 -0.01,-1.31l-0.02 -0.04c-0.11,-0.25 -0.28,-0.47 -0.49,-0.62 -0.2,-0.15 -0.45,-0.25 -0.71,-0.26 -0.38,-0.01 -0.82,0.14 -1.28,0.54 -0.06,0.06 -0.13,0.1 -0.22,0.13 -0.28,0.09 -0.6,-0.07 -0.69,-0.35 -0.14,-0.44 -0.43,-0.82 -0.79,-1.09 -0.36,-0.26 -0.8,-0.41 -1.28,-0.41 -0.61,0 -1.16,0.24 -1.56,0.64 -0.39,0.39 -0.64,0.94 -0.64,1.54 0,0.28 0.06,0.55 0.16,0.81 0.11,0.26 0.26,0.51 0.44,0.7 0.08,0.08 0.13,0.17 0.16,0.29 0.05,0.29 -0.14,0.58 -0.44,0.64l-0.64 0.14c-0.21,0.06 -0.41,0.12 -0.6,0.21l-0.04 0.01c-0.58,0.25 -0.9,0.7 -1.08,1.08 0.48,0.05 1.14,0.13 1.85,0.25l0.02 0 0.1 0.02c0.64,0.12 1.32,0.27 1.92,0.47 0.28,0.1 0.44,0.41 0.34,0.69 -0.09,0.29 -0.4,0.44 -0.69,0.35 -0.43,-0.14 -0.91,-0.26 -1.38,-0.36 -0.14,0.45 -0.14,0.86 -0.04,1.24l0.02 0.04c0.13,0.44 0.4,0.84 0.76,1.15 0.37,0.32 0.82,0.55 1.27,0.66 0.47,0.1 0.93,0.08 1.28,-0.13 0.22,-0.12 0.44,-0.31 0.59,-0.53l0.01 -0.02c0.11,-0.16 0.18,-0.34 0.19,-0.52 0,-0.3 0.25,-0.54 0.55,-0.54 0.31,0.01 0.55,0.26 0.54,0.56 -0.01,0.41 -0.15,0.79 -0.37,1.11l-0.02 0.03c-0.24,0.36 -0.58,0.66 -0.93,0.86 -0.45,0.25 -0.96,0.36 -1.49,0.33 -0.45,1.41 -1.89,7.02 2.13,12.61 0.18,0.25 0.12,0.59 -0.12,0.77 -0.25,0.17 -0.59,0.12 -0.77,-0.13 -4.19,-5.82 -2.85,-11.72 -2.31,-13.48 -0.46,-0.17 -0.9,-0.43 -1.27,-0.76 -0.51,-0.44 -0.91,-1.01 -1.1,-1.67l-0.01 -0.06c-0.15,-0.52 -0.16,-1.1 0,-1.71 -1,-0.15 -1.79,-0.2 -1.8,-0.2 -0.3,0 -0.55,-0.25 -0.55,-0.55l0.02 -0.14c0.02,-0.13 0.3,-1.74 1.91,-2.43l0.02 0c0.23,-0.11 0.46,-0.18 0.67,-0.24l-0.15 -0.33c-0.16,-0.38 -0.25,-0.8 -0.25,-1.22 0,-0.9 0.38,-1.73 0.97,-2.32 0.6,-0.59 1.42,-0.96 2.33,-0.96 0.71,0 1.38,0.23 1.92,0.62 0.36,0.26 0.66,0.59 0.89,0.97 0.51,-0.3 1.02,-0.42 1.5,-0.4 0.49,0.02 0.94,0.19 1.31,0.47 0.37,0.27 0.66,0.64 0.85,1.06l0.02 0.05c0.21,0.51 0.29,1.12 0.15,1.72 0.69,0.49 1.26,1.02 1.74,1.58 0.55,0.64 0.98,1.33 1.36,2.03 1.28,2.42 3.23,4.34 5.55,5.56 2.27,1.2 4.91,1.72 7.58,1.37 1.43,-0.2 3.01,-0.56 4.73,-1.16 1.57,-0.54 3.26,-1.28 5.07,-2.25 0.26,-0.14 0.6,-0.04 0.74,0.23 0.03,0.06 0.05,0.12 0.06,0.18l0.27 1.97c0.03,0.7 -0.19,1.33 -0.57,1.86 -0.31,0.45 -0.75,0.83 -1.25,1.12zm-28.9 -10.82c0,0.19 -0.07,0.36 -0.19,0.48l-0.07 0.07c-0.12,0.1 -0.27,0.16 -0.44,0.16 -0.2,0 -0.37,-0.08 -0.5,-0.22l-0.01 -0.01c-0.12,-0.12 -0.19,-0.29 -0.19,-0.48 0,-0.19 0.08,-0.37 0.2,-0.49 0.13,-0.14 0.31,-0.22 0.5,-0.22 0.2,0 0.38,0.08 0.51,0.22l0.05 0.06c0.09,0.12 0.14,0.27 0.14,0.43zm-0.01 40.39c-1.58,0.57 -3.21,0.61 -4.7,-0.02l-0.01 0c-1.96,-0.83 -3.28,-2.63 -3.83,-4.88 -0.53,-2.18 -0.33,-4.8 0.74,-7.32 1.07,-2.52 2.8,-4.5 4.74,-5.64 1.99,-1.17 4.21,-1.48 6.16,-0.66 1.78,0.75 3.02,2.3 3.64,4.26 2.04,0.44 3.82,1.36 5.1,2.58 1.35,1.29 2.16,2.93 2.16,4.71 0,2.12 -1.15,4.04 -3,5.41 -1.81,1.34 -4.31,2.17 -7.04,2.17 -0.73,0 -1.44,-0.06 -2.13,-0.17 -0.63,-0.1 -1.25,-0.25 -1.83,-0.44zm5.16 -6.74c0.98,-2.31 1.17,-4.68 0.69,-6.65l-0.06 -0.24 0 -0.02 -0.01 -0.01c-0.49,-1.78 -1.56,-3.2 -3.1,-3.85 -1.62,-0.68 -3.48,-0.41 -5.18,0.59 -1.75,1.03 -3.32,2.82 -4.3,5.13 -0.96,2.3 -1.15,4.67 -0.67,6.63 0.46,1.91 1.56,3.44 3.17,4.12l0.01 0.01c1.62,0.68 3.48,0.4 5.17,-0.6 1.74,-1.02 3.3,-2.8 4.27,-5.08l0.01 -0.03z"/>
  <path class="fil1" d="M5.16 44.42c0.39,0.16 0.82,0.24 1.26,0.24 2.31,0 4.78,-2.08 6.05,-5.08 0.8,-1.87 1,-3.92 0.6,-5.61 -0.14,-0.59 -0.46,-1.49 -1.11,-2.2 0.19,1.66 -0.08,3.49 -0.83,5.24 -1.39,3.32 -4.19,5.64 -6.8,5.64 -0.35,0 -0.67,-0.05 -1,-0.13 0.34,0.73 0.9,1.5 1.83,1.9z"/>
  <path class="fil2" d="M13.57 10.6c-1.15,1.87 -3.01,3.34 -5.34,3.99 -0.28,0.08 -0.57,0.14 -0.84,0.19 -0.43,1.99 -0.75,6.05 2.17,10.11 2.2,-6.88 7.22,-7.15 13.36,-7.16 -3.82,-1.07 -7.21,-3.59 -9.35,-7.13z"/>
 </g>
</svg>
