<?xml version="1.0" encoding="UTF-8"?>
<!DOCTYPE svg PUBLIC "-//W3C//DTD SVG 1.1//EN" "http://www.w3.org/Graphics/SVG/1.1/DTD/svg11.dtd">
<!-- Creator: CorelDRAW 2019 (64-Bit) -->
<svg xmlns="http://www.w3.org/2000/svg" xml:space="preserve" width="48px" height="48px" version="1.1" style="shape-rendering:geometricPrecision; text-rendering:geometricPrecision; image-rendering:optimizeQuality; fill-rule:evenodd; clip-rule:evenodd"
viewBox="0 0 48 48"
 xmlns:xlink="http://www.w3.org/1999/xlink">
 <defs>
  <style type="text/css">
   <![CDATA[
    .fil0 {fill:gray;fill-rule:nonzero}
    .fil1 {fill:#FBE0DC;fill-rule:nonzero}
   ]]>
  </style>
 </defs>
 <g id="Слой_x0020_1">
  <metadata id="CorelCorpID_0Corel-Layer"/>
  <path class="fil0" d="M46.86 18.03l-22.86 11.7 -22.86 -11.7 0 27.26c0,0.22 0.09,0.43 0.23,0.57 0.15,0.15 0.35,0.24 0.57,0.24l44.12 0c0.22,0 0.42,-0.09 0.57,-0.24 0.14,-0.14 0.23,-0.35 0.23,-0.57l0 -27.26zm-29.64 3.28l13.56 0 0 1.14 -13.56 0 0 -1.14zm0 -3.56l13.56 0 0 1.14 -13.56 0 0 -1.14zm18.2 4.86l0 -8.05 -22.84 0 0 8.05 11.42 5.85 11.42 -5.85zm-23.98 -0.58l0 -8.61 25.12 0 0 8.61 9.75 -4.99 -22.31 -14.91 -22.31 14.91 9.75 4.99zm5.22 7.94c-0.28,-0.14 -0.39,-0.49 -0.25,-0.77 0.14,-0.27 0.48,-0.38 0.76,-0.24l5.84 2.99c0.15,0.07 0.32,0.13 0.48,0.17 0.16,0.04 0.34,0.06 0.51,0.06 0.34,0 0.68,-0.08 0.99,-0.23l5.84 -2.99c0.28,-0.14 0.62,-0.03 0.76,0.24 0.14,0.28 0.03,0.63 -0.25,0.77l-5.83 2.99c-0.48,0.24 -1,0.36 -1.51,0.36 -0.25,0 -0.51,-0.03 -0.77,-0.09 -0.26,-0.06 -0.51,-0.15 -0.74,-0.27l-5.83 -2.99zm7.66 -28.99l23.68 15.82 0 28.49c0,0.54 -0.22,1.02 -0.57,1.38 -0.35,0.35 -0.84,0.57 -1.37,0.57l-44.12 0c-0.53,0 -1.02,-0.22 -1.37,-0.57 -0.35,-0.36 -0.57,-0.84 -0.57,-1.38l0 -28.49 24 -16.04 0.32 0.22z"/>
  <path class="fil1" d="M45.72 45.6c0,-2.38 0,-4.77 0,-7.16 -14.28,3.43 -29.16,3.43 -43.44,0 0,2.39 0,4.78 0,7.16 14.48,0 28.96,0 43.44,0z"/>
 </g>
</svg>
