<?xml version="1.0" encoding="UTF-8"?>
<!DOCTYPE svg PUBLIC "-//W3C//DTD SVG 1.1//EN" "http://www.w3.org/Graphics/SVG/1.1/DTD/svg11.dtd">
<!-- Creator: CorelDRAW 2019 (64-Bit) -->
<svg xmlns="http://www.w3.org/2000/svg" xml:space="preserve" width="48px" height="48px" version="1.1" style="shape-rendering:geometricPrecision; text-rendering:geometricPrecision; image-rendering:optimizeQuality; fill-rule:evenodd; clip-rule:evenodd"
viewBox="0 0 48 48"
 xmlns:xlink="http://www.w3.org/1999/xlink">
 <defs>
  <style type="text/css">
   <![CDATA[
    .fil0 {fill:gray;fill-rule:nonzero}
    .fil2 {fill:#C9DADD;fill-rule:nonzero}
    .fil1 {fill:#FBE0DC;fill-rule:nonzero}
   ]]>
  </style>
 </defs>
 <g id="Слой_x0020_1">
  <metadata id="CorelCorpID_0Corel-Layer"/>
  <g id="_1753744538288">
   <path class="fil0" d="M16.23 40.54c0.23,-0.2 0.58,-0.17 0.78,0.06 0.2,0.24 0.17,0.59 -0.06,0.78 -0.58,0.5 -1.26,0.9 -1.99,1.17 -0.71,0.26 -1.47,0.4 -2.27,0.4 -1.81,0 -3.46,-0.74 -4.65,-1.93 -0.78,-0.78 -1.37,-1.76 -1.68,-2.85l-1.18 0c-0.31,0 -0.56,-0.24 -0.56,-0.55 0,-0.31 0.25,-0.56 0.56,-0.56l0.97 0c-0.03,-0.23 -0.04,-0.46 -0.04,-0.69 0,-0.24 0.01,-0.46 0.03,-0.69l-0.96 0c-0.31,0 -0.56,-0.25 -0.56,-0.56 0,-0.31 0.25,-0.56 0.56,-0.56l1.18 0c0.31,-1.09 0.9,-2.07 1.68,-2.85 1.19,-1.19 2.83,-1.92 4.65,-1.92 0.8,0 1.57,0.14 2.28,0.4 0.73,0.27 1.4,0.67 1.99,1.17 0.23,0.19 0.26,0.55 0.06,0.78 -0.2,0.23 -0.55,0.26 -0.78,0.06 -0.49,-0.41 -1.05,-0.74 -1.66,-0.97 -0.59,-0.21 -1.23,-0.33 -1.89,-0.33 -1.51,0 -2.88,0.61 -3.87,1.6 -0.57,0.57 -1.02,1.28 -1.3,2.06l4.44 0c0.31,0 0.56,0.25 0.56,0.56 0,0.31 -0.25,0.56 -0.56,0.56l-4.7 0c-0.03,0.22 -0.04,0.45 -0.04,0.69 0,0.23 0.02,0.46 0.04,0.69l4.7 0c0.31,0 0.56,0.25 0.56,0.56 0,0.31 -0.25,0.55 -0.56,0.55l-4.43 0c0.27,0.79 0.72,1.49 1.29,2.07 0.99,0.99 2.36,1.6 3.87,1.6 0.66,0 1.3,-0.12 1.89,-0.34 0.61,-0.22 1.17,-0.55 1.65,-0.96zm26.1 -11.17c-0.24,0.19 -0.59,0.14 -0.77,-0.1 -0.18,-0.24 -0.14,-0.58 0.1,-0.77l3.08 -2.38c0.23,-0.18 0.58,-0.13 0.76,0.11l2.39 3.08c0.18,0.23 0.13,0.58 -0.1,0.76 -0.24,0.19 -0.59,0.14 -0.77,-0.1l-2.05 -2.64 -2.64 2.04zm-17.39 17.85c-0.3,-0.06 -0.5,-0.34 -0.45,-0.64 0.05,-0.3 0.34,-0.5 0.64,-0.45 0.05,0.01 17.51,3.35 18.97,-16.68 0.02,-0.31 0.28,-0.53 0.58,-0.51 0.31,0.02 0.53,0.28 0.51,0.58 -1.54,21.27 -20.2,17.71 -20.25,17.7zm-19.27 -25.46c0.24,-0.18 0.59,-0.14 0.77,0.1 0.19,0.24 0.14,0.58 -0.1,0.77l-3.08 2.38c-0.24,0.18 -0.58,0.13 -0.77,-0.1l-2.38 -3.08c-0.18,-0.24 -0.13,-0.59 0.1,-0.77 0.24,-0.19 0.59,-0.14 0.77,0.1l2.05 2.64 2.64 -2.04zm17.39 -17.85c0.3,0.06 0.5,0.34 0.45,0.64 -0.06,0.3 -0.34,0.5 -0.64,0.45 -0.05,-0.01 -17.51,-3.35 -18.97,16.69 -0.02,0.3 -0.28,0.53 -0.59,0.5 -0.3,-0.02 -0.53,-0.28 -0.51,-0.58 1.55,-21.28 20.21,-17.71 20.26,-17.7zm11.08 16.97l0 0.87c0,0.3 -0.25,0.55 -0.55,0.55 -0.31,0 -0.55,-0.25 -0.55,-0.55l0 -0.87c-0.58,-0.11 -1.11,-0.39 -1.51,-0.79l-0.04 -0.03c-0.53,-0.54 -0.87,-1.28 -0.87,-2.1 0,-0.3 0.25,-0.55 0.55,-0.55 0.31,0 0.55,0.25 0.55,0.55 0,0.52 0.21,0.99 0.55,1.32l0.02 0.03c0.34,0.32 0.79,0.52 1.3,0.52 0.52,0 0.98,-0.21 1.32,-0.54 0.34,-0.34 0.55,-0.81 0.55,-1.33 0,-0.49 -0.18,-0.85 -0.49,-1.13 -0.36,-0.32 -0.9,-0.56 -1.55,-0.77 -0.7,-0.22 -1.36,-0.53 -1.88,-0.97 -0.56,-0.48 -0.92,-1.12 -0.92,-1.97 0,-0.81 0.33,-1.56 0.87,-2.09 0.41,-0.42 0.95,-0.71 1.55,-0.83l0 -0.85c0,-0.3 0.24,-0.55 0.55,-0.55 0.3,0 0.55,0.25 0.55,0.55l0 0.85c0.6,0.12 1.13,0.41 1.55,0.82 0.53,0.54 0.87,1.28 0.87,2.1 0,0.31 -0.25,0.55 -0.55,0.55 -0.31,0 -0.55,-0.24 -0.55,-0.55 0,-0.51 -0.21,-0.98 -0.55,-1.32 -0.31,-0.31 -0.73,-0.51 -1.21,-0.54 -0.03,0.01 -0.07,0.01 -0.11,0.01 -0.04,0 -0.08,0 -0.12,-0.01 -0.47,0.03 -0.89,0.23 -1.2,0.54 -0.34,0.34 -0.55,0.81 -0.55,1.32 0,0.49 0.22,0.86 0.54,1.14 0.38,0.33 0.93,0.57 1.5,0.76 0.78,0.25 1.45,0.56 1.94,0.99 0.54,0.49 0.86,1.11 0.86,1.95 0,0.82 -0.34,1.56 -0.87,2.1 -0.42,0.41 -0.95,0.71 -1.55,0.82z"/>
   <path class="fil1" d="M40.26 22.21c-3.68,3.68 -9.65,3.68 -13.33,0 -3.68,-3.68 -3.68,-9.65 0,-13.33 3.68,-3.68 9.65,-3.68 13.33,0 3.68,3.68 3.68,9.65 0,13.33zm1.55 -14.89c-2.19,-2.19 -5.11,-3.4 -8.21,-3.4 -3.11,0 -6.03,1.21 -8.22,3.4 -2.2,2.2 -3.41,5.12 -3.41,8.22 0,3.11 1.21,6.03 3.41,8.22 2.19,2.2 5.11,3.41 8.22,3.41 3.1,0 6.02,-1.21 8.21,-3.41 2.2,-2.19 3.41,-5.11 3.41,-8.22 0,-3.1 -1.21,-6.02 -3.41,-8.22z"/>
   <path class="fil2" d="M19.52 42.95c-3.68,3.68 -9.65,3.68 -13.33,0 -3.68,-3.68 -3.68,-9.65 0,-13.33 3.68,-3.68 9.65,-3.68 13.33,0 3.68,3.68 3.68,9.65 0,13.33zm1.55 -14.88c-2.19,-2.2 -5.11,-3.41 -8.22,-3.41 -3.1,0 -6.02,1.21 -8.22,3.41 -2.19,2.19 -3.4,5.11 -3.4,8.22 0,3.1 1.21,6.02 3.4,8.22 2.2,2.19 5.12,3.4 8.22,3.4 3.11,0 6.03,-1.21 8.22,-3.4 2.2,-2.2 3.4,-5.12 3.4,-8.22 0,-3.11 -1.2,-6.03 -3.4,-8.22z"/>
  </g>
 </g>
</svg>
