<?xml version="1.0" encoding="UTF-8"?>
<!DOCTYPE svg PUBLIC "-//W3C//DTD SVG 1.1//EN" "http://www.w3.org/Graphics/SVG/1.1/DTD/svg11.dtd">
<!-- Creator: CorelDRAW 2019 (64-Bit) -->
<svg xmlns="http://www.w3.org/2000/svg" xml:space="preserve" width="48px" height="48px" version="1.1" style="shape-rendering:geometricPrecision; text-rendering:geometricPrecision; image-rendering:optimizeQuality; fill-rule:evenodd; clip-rule:evenodd"
viewBox="0 0 48 48"
 xmlns:xlink="http://www.w3.org/1999/xlink">
 <defs>
  <style type="text/css">
   <![CDATA[
    .fil2 {fill:gray;fill-rule:nonzero}
    .fil1 {fill:#C9DADD;fill-rule:nonzero}
    .fil0 {fill:#FBE0DC;fill-rule:nonzero}
   ]]>
  </style>
 </defs>
 <g id="Слой_x0020_1">
  <metadata id="CorelCorpID_0Corel-Layer"/>
  <path class="fil0" d="M4.85 15.3l0 7.67c0.4,-0.35 3.87,-4.05 12.58,-4.1l0 -3.57 -12.58 0z"/>
  <path class="fil1" d="M33.02 28.5c0,2.79 2.26,5.05 5.05,5.06 2.76,0 5,-2.21 5.06,-4.95 -0.68,1.38 -2.1,2.34 -3.75,2.34 -2.3,-0.01 -4.17,-1.87 -4.16,-4.18 0,-1.24 0.54,-2.35 1.4,-3.11 -2.08,0.62 -3.59,2.55 -3.6,4.84zm-27.6 -0.04c0,2.79 2.26,5.05 5.05,5.06 2.76,0 5,-2.21 5.06,-4.96 -0.68,1.39 -2.1,2.35 -3.75,2.35 -2.3,-0.01 -4.17,-1.87 -4.16,-4.18 0,-1.24 0.54,-2.35 1.4,-3.11 -2.08,0.62 -3.59,2.55 -3.6,4.84zm13.8 0.01c0,2.8 2.26,5.06 5.05,5.07 2.76,0 5,-2.21 5.06,-4.95 -0.68,1.38 -2.1,2.34 -3.75,2.34 -2.3,0 -4.17,-1.87 -4.16,-4.17 0,-1.25 0.55,-2.36 1.41,-3.12 -2.08,0.62 -3.6,2.55 -3.61,4.83z"/>
  <path class="fil2" d="M15.09 25.31c0.16,0.24 0.1,0.57 -0.14,0.74 -0.24,0.16 -0.57,0.1 -0.73,-0.14 -0.42,-0.61 -0.97,-1.11 -1.63,-1.46 -0.63,-0.33 -1.35,-0.52 -2.1,-0.52 -1.25,0 -2.39,0.5 -3.21,1.32 -0.82,0.82 -1.33,1.96 -1.33,3.21 0,1.25 0.5,2.38 1.32,3.2 0.81,0.82 1.95,1.33 3.19,1.33l0.02 0c1.24,0 2.38,-0.5 3.2,-1.32 0.7,-0.7 1.18,-1.64 1.3,-2.68l-2.08 0c-0.29,0 -0.52,-0.23 -0.52,-0.52 0,-0.29 0.23,-0.53 0.52,-0.53l2.58 0 0.03 0 0.02 0 0.06 0 3.13 0.01c0.13,-1.33 0.72,-2.53 1.62,-3.42 1.01,-1.01 2.41,-1.63 3.94,-1.63 0.88,0 1.7,0.2 2.43,0.56 0.76,0.36 1.43,0.91 1.95,1.57 0.18,0.22 0.14,0.55 -0.09,0.73 -0.23,0.18 -0.56,0.14 -0.74,-0.09 -0.42,-0.53 -0.96,-0.96 -1.58,-1.27 -0.59,-0.28 -1.26,-0.45 -1.97,-0.45 -1.24,0 -2.38,0.51 -3.2,1.33 -0.82,0.81 -1.33,1.95 -1.33,3.19 0,1.26 0.5,2.39 1.32,3.21 0.82,0.82 1.95,1.33 3.2,1.33 1.25,0.01 2.39,-0.5 3.21,-1.32 0.7,-0.7 1.18,-1.64 1.3,-2.68l-2.08 0c-0.29,0 -0.52,-0.23 -0.52,-0.52 0,-0.29 0.23,-0.53 0.52,-0.53l2.61 0.01 0.02 -0.01 0.03 0.01 3.16 0c0.13,-1.33 0.72,-2.53 1.62,-3.42 1,-1.01 2.4,-1.63 3.94,-1.63 0.91,0 1.77,0.22 2.53,0.6 0.78,0.4 1.46,0.99 1.97,1.69 0.17,0.23 0.12,0.56 -0.11,0.73 -0.23,0.18 -0.56,0.12 -0.73,-0.11 -0.42,-0.57 -0.98,-1.04 -1.61,-1.37 -0.62,-0.31 -1.32,-0.49 -2.05,-0.49 -1.25,0 -2.38,0.51 -3.2,1.33 -0.82,0.81 -1.34,1.95 -1.34,3.2 0,1.24 0.51,2.38 1.33,3.2 0.82,0.82 1.95,1.33 3.2,1.33 1.25,0.01 2.38,-0.5 3.2,-1.32 0.71,-0.71 1.19,-1.65 1.31,-2.7l-4.5 0.02c-0.29,0 -0.53,-0.24 -0.53,-0.53 0,-0.29 0.24,-0.52 0.53,-0.52l9.4 -0.04c0.28,0 0.52,0.24 0.52,0.53 0,0.29 -0.24,0.52 -0.52,0.52l-3.85 0.02c-0.12,1.34 -0.71,2.55 -1.61,3.45 -1.01,1 -2.41,1.63 -3.95,1.62 -1.54,0 -2.94,-0.63 -3.95,-1.64 -0.89,-0.89 -1.48,-2.09 -1.6,-3.42l-2.69 -0.01c-0.12,1.34 -0.72,2.53 -1.61,3.42 -1.01,1.01 -2.41,1.64 -3.95,1.63 -1.54,0 -2.94,-0.63 -3.94,-1.64 -0.9,-0.89 -1.49,-2.09 -1.61,-3.42l-2.68 -0.01c-0.13,1.34 -0.73,2.53 -1.62,3.42 -1.01,1.01 -2.41,1.63 -3.94,1.63l-0.02 0c-1.53,0 -2.93,-0.63 -3.94,-1.64 -1,-1.01 -1.62,-2.4 -1.62,-3.94 0,-1.55 0.63,-2.94 1.64,-3.95 1.01,-1.01 2.4,-1.63 3.95,-1.63 0.93,0 1.82,0.24 2.59,0.64 0.81,0.43 1.5,1.05 2.01,1.79zm-4.59 19.29c-5.69,-0.2 -6.68,-3.69 -6.85,-5.04l-1.8 0c-0.51,0 -0.97,-0.21 -1.31,-0.54 -0.33,-0.34 -0.54,-0.8 -0.54,-1.31 0,-0.5 0.21,-0.97 0.54,-1.3 0.34,-0.34 0.8,-0.54 1.31,-0.54l41.5 0c0.51,0 0.97,0.2 1.3,0.54l0.03 0.02c0.32,0.33 0.52,0.79 0.52,1.28 0,0.51 -0.21,0.97 -0.55,1.31 -0.33,0.33 -0.79,0.54 -1.3,0.54l-1.81 0c-0.16,1.33 -1.13,4.76 -6.67,5.03l0 0.87c0,0.69 -0.28,1.31 -0.72,1.76 -0.45,0.45 -1.08,0.73 -1.76,0.73l-19.4 0c-0.69,0 -1.31,-0.28 -1.76,-0.73 -0.45,-0.45 -0.73,-1.07 -0.73,-1.76l0 -0.86zm23.66 -1.04c6.31,0 6.37,-4.22 6.37,-4.51l0 -0.02c0,-0.29 0.23,-0.52 0.52,-0.52l2.3 0c0.22,0 0.42,-0.09 0.56,-0.24 0.14,-0.14 0.23,-0.34 0.23,-0.56 0,-0.21 -0.08,-0.4 -0.21,-0.54l-0.02 -0.02c-0.14,-0.14 -0.34,-0.23 -0.56,-0.23l-41.5 0c-0.22,0 -0.42,0.09 -0.56,0.23 -0.15,0.14 -0.24,0.34 -0.24,0.56 0,0.22 0.09,0.42 0.24,0.56 0.14,0.15 0.34,0.24 0.56,0.24l2.29 0c0.29,0 0.53,0.23 0.53,0.52 0,0.01 -0.16,4.53 6.36,4.53l23.13 0zm-21.17 3.33l19.4 0c0.39,0 0.75,-0.16 1.01,-0.41 0.26,-0.26 0.42,-0.62 0.42,-1.02l0 -0.85 -11.22 0 -11.04 0 0 0.85c0,0.4 0.16,0.76 0.42,1.02 0.25,0.25 0.61,0.41 1.01,0.41zm15.27 -35.82c-0.62,-0.2 -1.47,-0.59 -2.09,-1.36 -1.06,1.37 -3.47,5.16 -0.72,8.64 0.18,0.23 0.14,0.56 -0.09,0.73 -0.22,0.18 -0.55,0.14 -0.73,-0.08 -3.86,-4.89 0.88,-10.17 1.19,-10.51 0.05,-0.05 0.11,-0.09 0.17,-0.13 0.26,-0.13 0.58,-0.02 0.71,0.24 0.53,1.06 1.73,1.45 2.29,1.58 0.11,-0.11 0.22,-0.23 0.33,-0.35l0.07 -0.05c0.21,-0.19 1.91,-1.75 2.01,-4.57 0.01,-0.29 0.25,-0.52 0.54,-0.51 0.13,0.01 0.25,0.06 0.34,0.15 0.01,0.01 2.12,2.01 3.42,4.83 0.47,-0.24 1.25,-0.77 1.66,-1.77 0.11,-0.27 0.42,-0.4 0.69,-0.29 0.09,0.04 0.17,0.11 0.22,0.18 0.02,0.02 4.42,5.68 0.87,11.11 -0.16,0.25 -0.49,0.31 -0.73,0.16 -0.24,-0.16 -0.31,-0.49 -0.15,-0.73 2.44,-3.73 0.58,-7.66 -0.37,-9.22 -0.56,0.8 -1.3,1.27 -1.79,1.52 0.92,2.54 1.03,5.56 -1.48,8.34 -0.19,0.21 -0.53,0.23 -0.74,0.04 -0.22,-0.2 -0.23,-0.53 -0.04,-0.75 2.28,-2.52 2.06,-5.33 1.13,-7.65l0 0 0 0c-0.03,-0.04 -0.04,-0.08 -0.06,-0.13 -0.73,-1.75 -1.85,-3.22 -2.59,-4.07 -0.46,2.46 -1.96,3.9 -2.25,4.15 -0.18,0.18 -0.34,0.35 -0.49,0.52l-0.01 0.01c-3.24,3.75 -0.56,7.19 -0.56,7.2 0.18,0.22 0.15,0.55 -0.08,0.73 -0.22,0.18 -0.56,0.15 -0.74,-0.08 0,-0.01 -2.91,-3.74 0.07,-7.88zm-24.99 13.38c0,0.29 -0.24,0.53 -0.53,0.53 -0.29,0 -0.53,-0.24 -0.53,-0.53l0 -9.53c0,-0.62 0.26,-1.19 0.66,-1.6 0.37,-0.37 0.87,-0.61 1.42,-0.65l0 -2.3c0,-0.5 0.2,-0.94 0.52,-1.27 0.33,-0.32 0.77,-0.52 1.26,-0.52l0.89 0 2.4 -5.36c0.21,-0.47 0.57,-0.8 0.97,-0.98 0.27,-0.12 0.54,-0.18 0.81,-0.18 0.27,0 0.55,0.06 0.81,0.18 0.4,0.18 0.76,0.51 0.97,0.98l2.4 5.36 0.89 0c0.49,0 0.94,0.2 1.26,0.52 0.32,0.32 0.53,0.77 0.53,1.27l0 2.3c0.55,0.04 1.04,0.28 1.41,0.65l0.02 0.03c0.39,0.4 0.64,0.96 0.64,1.57l0 3.9c0,0.29 -0.24,0.52 -0.53,0.52 -0.29,0 -0.52,-0.23 -0.52,-0.52l0 -3.9c0,-0.33 -0.13,-0.62 -0.34,-0.84l-0.02 -0.01c-0.21,-0.22 -0.52,-0.36 -0.85,-0.36l-0.34 0 -12.66 0 -0.34 0c-0.33,0 -0.63,0.14 -0.85,0.36 -0.22,0.21 -0.35,0.52 -0.35,0.85l0 9.53zm12.94 -14.82l-1.23 0 -7.68 0 -0.01 0 -1.22 0c-0.2,0 -0.39,0.08 -0.52,0.21 -0.13,0.14 -0.21,0.32 -0.21,0.53l0 2.29 11.6 0 0 -2.29c0,-0.21 -0.08,-0.39 -0.21,-0.52 -0.14,-0.14 -0.32,-0.22 -0.52,-0.22zm-5.89 -5.98l-2.21 4.93 6.06 0 -2.21 -4.93c-0.1,-0.22 -0.26,-0.37 -0.44,-0.45 -0.12,-0.05 -0.25,-0.08 -0.38,-0.08 -0.13,0 -0.26,0.02 -0.38,0.07 -0.18,0.09 -0.34,0.24 -0.44,0.46z"/>
 </g>
</svg>
