<?xml version="1.0" encoding="UTF-8"?>
<!DOCTYPE svg PUBLIC "-//W3C//DTD SVG 1.1//EN" "http://www.w3.org/Graphics/SVG/1.1/DTD/svg11.dtd">
<!-- Creator: CorelDRAW 2019 (64-Bit) -->
<svg xmlns="http://www.w3.org/2000/svg" xml:space="preserve" width="48px" height="48px" version="1.1" style="shape-rendering:geometricPrecision; text-rendering:geometricPrecision; image-rendering:optimizeQuality; fill-rule:evenodd; clip-rule:evenodd"
viewBox="0 0 48 48"
 xmlns:xlink="http://www.w3.org/1999/xlink">
 <defs>
  <style type="text/css">
   <![CDATA[
    .fil0 {fill:gray;fill-rule:nonzero}
    .fil1 {fill:#C9DADD;fill-rule:nonzero}
   ]]>
  </style>
 </defs>
 <g id="Слой_x0020_1">
  <metadata id="CorelCorpID_0Corel-Layer"/>
  <path class="fil0" d="M15.6 29.42c1.08,0.94 2.34,2.14 3.24,3.38 0.95,1.3 1.48,2.66 1.02,3.81 -0.06,0.15 -0.2,0.24 -0.35,0.25 -2.98,0.21 -4.78,-1.63 -5.62,-3.55 -0.39,-0.91 -0.57,-1.85 -0.56,-2.6 0.02,-0.87 0.32,-1.52 0.86,-1.72 0.4,-0.13 0.87,-0.02 1.41,0.43zm14.45 2.33c0,0.75 0.16,2.99 1.75,4.33 0.28,-0.77 1.06,-2.07 3.14,-2.96 -0.51,-0.48 -1.24,-1.33 -1.63,-2.56 -1,0.26 -2.08,0.65 -3.26,1.19zm4.07 -1.38c0.51,1.54 1.64,2.38 1.85,2.53 0.08,0.05 0.15,0.12 0.18,0.22 0.07,0.22 -0.04,0.45 -0.26,0.52 -3.07,1.04 -3.4,2.92 -3.44,3.15 0,0.07 -0.02,0.13 -0.06,0.2 -0.12,0.19 -0.38,0.25 -0.57,0.13 -2.13,-1.32 -2.53,-3.82 -2.59,-5 -1.24,0.54 -2.5,0.93 -3.76,1.2 -1.59,0.34 -3.19,0.5 -4.77,0.51 -0.23,0.01 -0.42,-0.18 -0.42,-0.41 0,-0.23 0.18,-0.41 0.41,-0.42 1.53,-0.01 3.07,-0.16 4.6,-0.49 1.4,-0.3 2.79,-0.76 4.14,-1.39l0.03 -0.01 0.04 -0.02c3.13,-1.46 5.63,-1.91 7.72,-1.86 2.48,-2.78 0.66,-4.95 0.16,-5.45 -2.09,-0.05 -4.58,-0.63 -7.71,-2.29 -0.97,-0.51 -1.95,-0.92 -2.95,-1.26l-0.08 -0.02 -0.31 -0.1c-3.7,-1.16 -7.52,-1.2 -11.05,-0.66l-0.02 0.01 -0.02 0 -0.02 0c-2.08,0.33 -4.05,0.85 -5.84,1.46 -0.35,0.12 -0.7,0.24 -1.04,0.37 0.99,1.29 3.29,5.1 -0.21,9.17 1.3,0.51 2.75,1 4.29,1.41 0.22,0.06 0.35,0.29 0.29,0.51 -0.06,0.22 -0.29,0.35 -0.51,0.3 -2.16,-0.59 -4.14,-1.32 -5.81,-2.04 -2.76,-1.19 -4.71,-2.36 -5.3,-2.75l-0.03 -0.02c-0.44,-0.3 -0.76,-0.73 -0.93,-1.23 -0.16,-0.47 -0.18,-1.01 -0.02,-1.52l0.06 -0.14c0.33,-0.64 3.17,-2.61 7.28,-4.23l0.01 -0.01 0.06 -0.02 0.01 -0.01 0.01 0c0.51,-0.2 1.03,-0.39 1.58,-0.58 1.75,-0.6 3.68,-1.11 5.72,-1.44 0.31,-1.32 1.85,-6.55 7.19,-7.86 0.22,-0.05 0.45,0.08 0.5,0.3 0.01,0.06 0.01,0.11 0.01,0.16 -0.03,0.22 -0.43,4.66 4.46,8.16 1.03,0.35 2.05,0.78 3.06,1.31 6.15,3.25 9.69,2.16 12.68,1.23 1.67,-0.52 3.18,-0.98 4.9,-0.7 0.06,0.01 0.11,0.03 0.17,0.06 0.19,0.12 0.25,0.38 0.12,0.57 -0.89,1.41 -1.65,2.41 -2.22,3.16 -1,1.32 -1.32,1.73 -0.69,2.37 1.61,1.64 2.7,4.15 2.71,4.16l0.03 0.11c0.02,0.23 -0.14,0.43 -0.37,0.46 -1.68,0.2 -3.17,-0.33 -4.83,-0.91 -2.22,-0.79 -4.75,-1.68 -8.44,-0.9zm-9.1 -11.48c-2.92,-2.79 -3.3,-5.85 -3.32,-7.11 -4.15,1.3 -5.58,5.29 -5.97,6.77 2.98,-0.4 6.15,-0.39 9.29,0.34zm-19.23 4.84c-0.1,-0.21 -0.01,-0.45 0.2,-0.55 0.21,-0.09 0.45,0 0.55,0.21 0.18,0.4 0.18,0.83 0.04,1.21l-0.01 0.03c-0.14,0.36 -0.43,0.68 -0.82,0.86 -0.39,0.18 -0.83,0.18 -1.21,0.04 -0.38,-0.14 -0.71,-0.43 -0.89,-0.83 -0.09,-0.2 0,-0.45 0.21,-0.55 0.2,-0.09 0.45,0 0.55,0.21 0.09,0.19 0.24,0.33 0.42,0.39 0.18,0.07 0.39,0.07 0.58,-0.02 0.18,-0.08 0.32,-0.23 0.39,-0.4l0 -0.02c0.07,-0.18 0.07,-0.39 -0.01,-0.58zm1.52 6.4c3.59,-3.94 0.96,-7.63 0.22,-8.53 -3.75,1.5 -6.3,3.19 -6.62,3.75l-0.01 0.02c-0.1,0.34 -0.09,0.69 0.02,1.01 0.11,0.32 0.32,0.61 0.61,0.81l0.02 0.01c0.57,0.38 2.46,1.51 5.17,2.68l0.59 0.25zm31.14 -6.37c0.74,1.02 1.67,3.06 -0.21,5.54 1.76,0.19 3.24,0.71 4.6,1.19 1.35,0.48 2.59,0.91 3.87,0.9 -0.4,-0.79 -1.22,-2.28 -2.28,-3.36 -1.13,-1.15 -0.71,-1.7 0.62,-3.45 0.48,-0.63 1.1,-1.44 1.82,-2.54 -1.29,-0.06 -2.53,0.32 -3.88,0.74 -1.35,0.42 -2.81,0.87 -4.54,0.98zm-20.28 9.52c-0.85,-1.17 -2.07,-2.33 -3.12,-3.23 -0.27,-0.24 -0.46,-0.31 -0.58,-0.27 -0.19,0.06 -0.29,0.43 -0.31,0.95 -0.01,0.64 0.14,1.45 0.49,2.25 0.69,1.59 2.15,3.11 4.52,3.07 0.16,-0.8 -0.29,-1.78 -1,-2.77z"/>
  <path class="fil1" d="M32.37 24.19c0.14,0 0.28,0.01 0.43,0.01 -1.14,-0.37 -2.37,-0.89 -3.71,-1.6 -5.97,-3.15 -12.55,-2.39 -17.02,-1.19 -0.62,0.16 -1.23,0.34 -1.81,0.53 1.06,2.05 1.61,4.94 -0.16,7.91 0,0 0.87,-0.18 1.92,-0.74 6.28,-3.31 13.25,-5.11 20.35,-4.92z"/>
 </g>
</svg>
