<?xml version="1.0" encoding="UTF-8"?>
<!DOCTYPE svg PUBLIC "-//W3C//DTD SVG 1.1//EN" "http://www.w3.org/Graphics/SVG/1.1/DTD/svg11.dtd">
<!-- Creator: CorelDRAW 2019 (64-Bit) -->
<svg xmlns="http://www.w3.org/2000/svg" xml:space="preserve" width="48px" height="48px" version="1.1" style="shape-rendering:geometricPrecision; text-rendering:geometricPrecision; image-rendering:optimizeQuality; fill-rule:evenodd; clip-rule:evenodd"
viewBox="0 0 48 48"
 xmlns:xlink="http://www.w3.org/1999/xlink">
 <defs>
  <style type="text/css">
   <![CDATA[
    .fil0 {fill:gray;fill-rule:nonzero}
    .fil1 {fill:#C9DADD;fill-rule:nonzero}
    .fil2 {fill:#FBE0DC;fill-rule:nonzero}
   ]]>
  </style>
 </defs>
 <g id="Слой_x0020_1">
  <metadata id="CorelCorpID_0Corel-Layer"/>
  <path class="fil0" d="M41.41 20.7l0 24.32c0,0.82 -0.33,1.57 -0.87,2.11l-0.04 0.03c-0.54,0.52 -1.27,0.84 -2.07,0.84l-10.57 0 -7.71 0 -10.58 0c-0.82,0 -1.57,-0.34 -2.11,-0.88 -0.54,-0.53 -0.87,-1.28 -0.87,-2.1l0 -24.32 -0.83 0c-0.73,0 -1.4,-0.3 -1.88,-0.79 -0.49,-0.48 -0.79,-1.14 -0.79,-1.88l0 -3.56c0,-0.74 0.31,-1.4 0.79,-1.89 0.48,-0.48 1.15,-0.78 1.88,-0.78 0.33,0 0.6,0.27 0.6,0.59 0,0.33 -0.27,0.59 -0.6,0.59 -0.41,0 -0.78,0.17 -1.05,0.44 -0.27,0.26 -0.43,0.64 -0.43,1.05l0 3.56c0,0.41 0.16,0.79 0.43,1.05 0.27,0.27 0.64,0.43 1.05,0.43l1.42 0 12.97 0 1.12 0c0.32,0 0.59,0.27 0.59,0.59 0,0.33 -0.27,0.6 -0.59,0.6l-0.53 0 0 26.12 6.53 0 0 -18.13c0,-0.32 0.27,-0.59 0.59,-0.59 0.33,0 0.59,0.27 0.59,0.59l0 18.13 9.98 0c0.49,0 0.93,-0.19 1.25,-0.5l0.03 -0.03c0.32,-0.32 0.52,-0.77 0.52,-1.27l0 -24.32 -6.82 0c-0.32,0 -0.59,-0.27 -0.59,-0.6 0,-0.32 0.27,-0.59 0.59,-0.59l7.41 0 1.43 0c0.41,0 0.78,-0.16 1.04,-0.43 0.27,-0.26 0.43,-0.64 0.43,-1.05l0 -3.56c0,-0.4 -0.15,-0.76 -0.4,-1.03l-0.03 -0.02c-0.26,-0.27 -0.63,-0.44 -1.04,-0.44 -0.33,0 -0.6,-0.26 -0.6,-0.59 0,-0.32 0.27,-0.59 0.6,-0.59 0.73,0 1.4,0.3 1.88,0.78l0.03 0.04c0.46,0.48 0.75,1.13 0.75,1.85l0 3.56c0,0.73 -0.3,1.4 -0.78,1.88 -0.48,0.49 -1.15,0.79 -1.88,0.79l-0.84 0zm-21.85 0l-11.79 0 0 24.32c0,0.49 0.2,0.94 0.53,1.27 0.32,0.33 0.78,0.53 1.27,0.53l9.99 0 0 -26.12z"/>
  <path class="fil1" d="M27.86 5.1c-0.26,0.2 -0.63,0.16 -0.83,-0.09 -0.2,-0.26 -0.16,-0.63 0.09,-0.83 0.92,-0.73 1.9,-1.4 2.92,-2 1.01,-0.59 2.08,-1.11 3.18,-1.54 0.57,-0.23 1.18,-0.44 1.81,-0.55 0.66,-0.12 1.33,-0.13 1.99,0.05l0.27 0.1c0.6,0.23 1.14,0.68 1.48,1.21 0.38,0.58 0.55,1.28 0.35,1.96l-0.07 0.22c-0.18,0.42 -0.44,0.72 -0.7,1.03 -0.17,0.2 -0.34,0.4 -0.45,0.61l-0.02 0.03c-0.27,0.5 -0.23,1.09 -0.04,1.66 0.22,0.67 0.63,1.35 1.05,1.93 0.46,0.66 0.96,1.39 1.27,2.17 0.33,0.84 0.45,1.73 0.1,2.61 -0.29,0.73 -0.86,1.28 -1.56,1.61 -0.73,0.36 -1.6,0.49 -2.41,0.4 -1.32,-0.17 -2.47,-0.8 -3.59,-1.41l-0.32 -0.17c-0.45,-0.24 -0.91,-0.48 -1.37,-0.66 -0.45,-0.18 -0.91,-0.32 -1.37,-0.37 -0.33,-0.04 -0.56,-0.34 -0.52,-0.66 0.04,-0.32 0.34,-0.55 0.66,-0.51 0.56,0.07 1.12,0.23 1.66,0.45 0.52,0.2 1.02,0.46 1.5,0.72l0.32 0.17c1.02,0.56 2.07,1.13 3.17,1.27 0.59,0.07 1.23,-0.03 1.76,-0.28 0.44,-0.22 0.8,-0.55 0.98,-0.99 0.22,-0.56 0.13,-1.16 -0.11,-1.75 -0.26,-0.65 -0.7,-1.32 -1.13,-1.91 -0.47,-0.67 -0.95,-1.45 -1.21,-2.25 -0.28,-0.87 -0.32,-1.76 0.13,-2.59l0.01 -0.03c0.17,-0.31 0.38,-0.56 0.59,-0.81 0.2,-0.24 0.41,-0.47 0.51,-0.72l0.03 -0.1c0.09,-0.33 0,-0.68 -0.2,-0.99 -0.22,-0.33 -0.55,-0.61 -0.92,-0.76l-0.2 -0.06c-0.46,-0.13 -0.95,-0.11 -1.44,-0.03 -0.52,0.1 -1.07,0.28 -1.58,0.49 -1.03,0.41 -2.05,0.91 -3.02,1.47 -0.97,0.56 -1.9,1.2 -2.77,1.9zm0.08 6.25c0,0.32 -0.26,0.59 -0.59,0.59 -0.33,0 -0.59,-0.27 -0.59,-0.59l0 -2.4c0,-0.55 -0.22,-1.04 -0.58,-1.4 -0.35,-0.35 -0.85,-0.57 -1.39,-0.57l-1.57 0c-0.55,0 -1.04,0.22 -1.4,0.57l-0.02 0.03c-0.34,0.35 -0.55,0.83 -0.55,1.37l0 2.4c0,0.12 0.05,0.24 0.13,0.32l0.02 0.02c0.08,0.07 0.18,0.11 0.3,0.11l1.09 0c1.03,-0.02 2.13,0.24 3.08,0.74 0.93,0.49 1.73,1.22 2.18,2.11l0.02 0.04c0.32,0.62 0.54,1.17 0.67,1.78 0.12,0.51 0.17,1.06 0.18,1.72 0.79,0.33 1.47,0.87 2.01,1.53 0.79,0.96 1.3,2.19 1.46,3.41 0.15,1.15 0.05,2.29 -0.19,3.41 -0.23,1.09 -0.6,2.16 -0.99,3.2 -0.12,0.3 -0.46,0.45 -0.76,0.34 -0.3,-0.11 -0.46,-0.46 -0.34,-0.76 0.37,-0.98 0.72,-2 0.94,-3.03 0.21,-1 0.3,-2.01 0.17,-3.01 -0.13,-1.01 -0.55,-2.02 -1.19,-2.81 -0.57,-0.69 -1.32,-1.21 -2.19,-1.38 -0.8,-0.16 -1.64,0.02 -2.34,0.43 -0.71,0.41 -1.28,1.05 -1.54,1.81l-0.07 0.25c-0.11,0.51 -0.06,1.08 0.14,1.56 0.18,0.42 0.48,0.77 0.88,0.92l0.16 0.05c0.35,0.07 0.71,0 1.05,-0.17 0.38,-0.2 0.72,-0.54 0.95,-0.93 0.14,-0.24 0.27,-0.58 0.38,-1 0.11,-0.46 0.2,-0.98 0.25,-1.52 0.03,-0.32 0.31,-0.56 0.64,-0.53 0.32,0.03 0.56,0.31 0.53,0.64 -0.06,0.62 -0.16,1.2 -0.28,1.7 -0.13,0.51 -0.31,0.96 -0.51,1.3 -0.32,0.57 -0.83,1.07 -1.42,1.38 -0.56,0.29 -1.2,0.42 -1.84,0.28l-0.3 -0.09c-0.74,-0.27 -1.28,-0.86 -1.58,-1.58 -0.29,-0.69 -0.36,-1.52 -0.2,-2.26l0.11 -0.38c0.36,-1.05 1.12,-1.91 2.06,-2.45 0.85,-0.49 1.85,-0.73 2.83,-0.62 -0.02,-0.43 -0.07,-0.81 -0.14,-1.15 -0.12,-0.51 -0.3,-0.97 -0.57,-1.5l-0.03 -0.05c-0.34,-0.66 -0.95,-1.21 -1.67,-1.59 -0.78,-0.41 -1.68,-0.63 -2.5,-0.61l-1.13 0c-0.43,0 -0.82,-0.17 -1.12,-0.44l-0.03 -0.04c-0.3,-0.29 -0.48,-0.7 -0.48,-1.15l0 -2.4c0,-0.85 0.34,-1.63 0.89,-2.2l0.03 -0.03c0.57,-0.57 1.36,-0.93 2.23,-0.93l1.57 0c0.87,0 1.66,0.36 2.23,0.93 0.57,0.57 0.92,1.36 0.92,2.23l0 2.4zm-6.91 -7.06c0.25,0.2 0.29,0.57 0.09,0.83 -0.21,0.25 -0.58,0.29 -0.83,0.09 -0.9,-0.73 -1.85,-1.39 -2.84,-1.97 -0.99,-0.58 -2.03,-1.08 -3.09,-1.51 -0.52,-0.21 -1.06,-0.39 -1.59,-0.49 -0.49,-0.08 -0.98,-0.09 -1.45,0.03l-0.17 0.06c-0.38,0.15 -0.71,0.43 -0.93,0.76l-0.01 0.02c-0.2,0.31 -0.28,0.65 -0.19,0.97l0.02 0.08c0.1,0.26 0.31,0.51 0.52,0.76 0.21,0.24 0.42,0.48 0.58,0.78l0.02 0.02c0.44,0.84 0.41,1.74 0.12,2.61 -0.26,0.8 -0.74,1.58 -1.21,2.24 -0.42,0.6 -0.86,1.26 -1.12,1.92 -0.24,0.6 -0.33,1.2 -0.11,1.75 0.18,0.44 0.54,0.77 0.98,0.99 0.53,0.25 1.17,0.35 1.76,0.28 1.09,-0.14 2.12,-0.71 3.14,-1.26l0.34 -0.18c0.48,-0.26 0.98,-0.51 1.5,-0.72 0.54,-0.22 1.1,-0.38 1.66,-0.45 0.32,-0.04 0.62,0.19 0.66,0.51 0.04,0.32 -0.19,0.62 -0.52,0.66 -0.46,0.05 -0.92,0.19 -1.36,0.37 -0.46,0.18 -0.93,0.42 -1.38,0.66l-0.34 0.18c-1.12,0.61 -2.25,1.23 -3.56,1.4 -0.81,0.09 -1.68,-0.04 -2.42,-0.39 -0.69,-0.34 -1.26,-0.88 -1.55,-1.62 -0.35,-0.88 -0.23,-1.77 0.1,-2.61 0.31,-0.77 0.8,-1.51 1.26,-2.17 0.42,-0.58 0.83,-1.26 1.05,-1.93 0.19,-0.58 0.23,-1.17 -0.04,-1.68 -0.11,-0.2 -0.28,-0.4 -0.45,-0.6 -0.28,-0.33 -0.56,-0.66 -0.73,-1.1l-0.06 -0.18c-0.18,-0.66 -0.03,-1.35 0.33,-1.92l0.02 -0.03c0.35,-0.53 0.88,-0.98 1.49,-1.21l0.27 -0.1c0.66,-0.18 1.33,-0.17 1.99,-0.05 0.62,0.11 1.23,0.32 1.81,0.55 1.12,0.45 2.21,0.98 3.25,1.59 1.05,0.61 2.05,1.3 2.99,2.06z"/>
  <path class="fil2" d="M9.57 45.05l5.66 0c-0.76,-1.64 -1.28,-3.41 -1.49,-5.21 -0.32,-2.86 0.08,-5.82 -0.69,-8.59 -0.58,-2.08 -1.83,-3.95 -3.51,-5.31l0 19.08c0,0.01 0.02,0.03 0.03,0.03zm28.77 0l-5.66 0c0.77,-1.64 1.28,-3.41 1.49,-5.21 0.32,-2.86 -0.08,-5.82 0.7,-8.59 0.58,-2.08 1.83,-3.95 3.5,-5.31l0 19.08c0,0.01 -0.02,0.03 -0.03,0.03z"/>
 </g>
</svg>
