<?xml version="1.0" encoding="UTF-8"?>
<!DOCTYPE svg PUBLIC "-//W3C//DTD SVG 1.1//EN" "http://www.w3.org/Graphics/SVG/1.1/DTD/svg11.dtd">
<!-- Creator: CorelDRAW 2019 (64-Bit) -->
<svg xmlns="http://www.w3.org/2000/svg" xml:space="preserve" width="48px" height="48px" version="1.1" style="shape-rendering:geometricPrecision; text-rendering:geometricPrecision; image-rendering:optimizeQuality; fill-rule:evenodd; clip-rule:evenodd"
viewBox="0 0 48 48"
 xmlns:xlink="http://www.w3.org/1999/xlink">
 <defs>
  <style type="text/css">
   <![CDATA[
    .fil1 {fill:gray}
    .fil0 {fill:#C9DADD}
   ]]>
  </style>
 </defs>
 <g id="Слой_x0020_1">
  <metadata id="CorelCorpID_0Corel-Layer"/>
  <circle class="fil0" cx="24" cy="24" r="21"/>
  <g>
   <path class="fil1" d="M24 3.1c11.48,0 20.9,9.29 20.9,20.9 0,11.54 -9.35,20.9 -20.9,20.9 -11.54,0 -20.9,-9.34 -20.9,-20.9 0,-11.54 9.35,-20.9 20.9,-20.9l0 0zm0 -3.1c-13.25,0 -24,10.75 -24,24 0,13.26 10.75,24 24,24 13.25,0 24,-10.74 24,-24 0,-13.25 -10.75,-24 -24,-24zm-3.48 33.29l1.16 0 0 -11.61 -1.16 0c-0.65,0 -1.17,-0.52 -1.17,-1.16l0 -0.78c0,-0.64 0.52,-1.16 1.17,-1.16l4.64 0c0.64,0 1.16,0.52 1.16,1.16l0 13.55 1.16 0c0.65,0 1.17,0.52 1.17,1.16l0 0.78c0,0.64 -0.52,1.16 -1.17,1.16l-6.96 0c-0.65,0 -1.17,-0.52 -1.17,-1.16l0 -0.78c0,-0.64 0.52,-1.16 1.17,-1.16l0 0zm3.48 -23.23c-1.71,0 -3.1,1.39 -3.1,3.1 0,1.71 1.39,3.1 3.1,3.1 1.71,0 3.1,-1.39 3.1,-3.1 0,-1.71 -1.39,-3.1 -3.1,-3.1z"/>
  </g>
 </g>
</svg>
