<?xml version="1.0" encoding="UTF-8"?>
<!DOCTYPE svg PUBLIC "-//W3C//DTD SVG 1.1//EN" "http://www.w3.org/Graphics/SVG/1.1/DTD/svg11.dtd">
<!-- Creator: CorelDRAW 2019 (64-Bit) -->
<svg xmlns="http://www.w3.org/2000/svg" xml:space="preserve" width="48px" height="48px" version="1.1" style="shape-rendering:geometricPrecision; text-rendering:geometricPrecision; image-rendering:optimizeQuality; fill-rule:evenodd; clip-rule:evenodd"
viewBox="0 0 48 48"
 xmlns:xlink="http://www.w3.org/1999/xlink">
 <defs>
  <style type="text/css">
   <![CDATA[
    .fil0 {fill:gray}
    .fil2 {fill:#C9DADD}
    .fil1 {fill:#FBE0DC}
   ]]>
  </style>
 </defs>
 <g id="Слой_x0020_1">
  <metadata id="CorelCorpID_0Corel-Layer"/>
  <path class="fil0" d="M47.22 8.16l-4.64 -4.71c-0.52,-0.52 -1.2,-0.78 -1.88,-0.78 -0.68,0 -1.36,0.26 -1.88,0.78l-38.44 37.89c-0.66,0.67 -0.43,1.85 0.45,2.15 3.48,1.17 7.38,1.84 11.24,1.84 6.08,0 12.06,-1.68 16.15,-5.78l8.38 -8.33c0.97,-0.98 1.01,-2.53 0.17,-3.6l0.97 -5.74 9.48 -9.95c1.04,-1.04 1.04,-2.73 0,-3.77l0 0zm-20.78 29.47c-3.24,3.25 -8.35,5.04 -14.37,5.04 -2.74,0 -5.55,-0.37 -8.25,-1.07l21.81 -21.86 9.19 9.55 -8.38 8.34zm8.73 -16.84l-0.88 4.19 -6.78 -7.05c4.04,-3.86 13.18,-12.6 13.19,-12.6l4.7 4.73 -10.23 10.73 0 0zm0.83 -7.46c-0.74,0 -1.33,0.6 -1.33,1.34 0,0.73 0.59,1.33 1.33,1.33 0.74,0 1.33,-0.6 1.33,-1.33 0,-0.74 -0.59,-1.34 -1.33,-1.34zm2.67 -2.66c0,0.73 0.59,1.33 1.33,1.33 0.74,0 1.33,-0.6 1.33,-1.33 0,-0.74 -0.59,-1.34 -1.33,-1.34 -0.74,0 -1.33,0.6 -1.33,1.34z"/>
  <path class="fil1" d="M38.35 10.67c0,0.91 0.74,1.65 1.65,1.65 0.91,0 1.65,-0.74 1.65,-1.65 0,-0.91 -0.74,-1.65 -1.65,-1.65 -0.91,0 -1.65,0.74 -1.65,1.65zm-2.35 2.35c-0.91,0 -1.65,0.74 -1.65,1.65 0,0.91 0.74,1.65 1.65,1.65 0.91,0 1.65,-0.74 1.65,-1.65 0,-0.91 -0.74,-1.65 -1.65,-1.65z"/>
  <path class="fil2" d="M26.44 37.63c-3.24,3.25 -8.35,5.04 -14.37,5.04 -2.74,0 -5.55,-0.37 -8.25,-1.07l21.81 -21.86 9.19 9.55 -8.38 8.34z"/>
 </g>
</svg>
