<?xml version="1.0" encoding="UTF-8"?>
<!DOCTYPE svg PUBLIC "-//W3C//DTD SVG 1.1//EN" "http://www.w3.org/Graphics/SVG/1.1/DTD/svg11.dtd">
<!-- Creator: CorelDRAW 2019 (64-Bit) -->
<svg xmlns="http://www.w3.org/2000/svg" xml:space="preserve" width="48px" height="48px" version="1.1" style="shape-rendering:geometricPrecision; text-rendering:geometricPrecision; image-rendering:optimizeQuality; fill-rule:evenodd; clip-rule:evenodd"
viewBox="0 0 48 48"
 xmlns:xlink="http://www.w3.org/1999/xlink">
 <defs>
  <style type="text/css">
   <![CDATA[
    .fil0 {fill:gray;fill-rule:nonzero}
    .fil1 {fill:#FBE0DC;fill-rule:nonzero}
   ]]>
  </style>
 </defs>
 <g id="Слой_x0020_1">
  <metadata id="CorelCorpID_0Corel-Layer"/>
  <path class="fil0" d="M35.94 18.82l-0.03 -0.83c-0.22,-3.1 -1.62,-5.88 -3.75,-7.88 -2.13,-2 -5.01,-3.23 -8.16,-3.23l-0.85 0.03c-2.91,0.2 -5.55,1.48 -7.53,3.42 -1.97,1.95 -3.27,4.57 -3.51,7.48 -0.15,1.79 0.09,3.51 0.66,5.07 0.59,1.63 1.53,3.1 2.72,4.31 0.75,0.76 1.35,1.65 1.75,2.61 0.33,0.79 0.54,1.63 0.6,2.49l12.32 0c0.05,-0.86 0.25,-1.7 0.57,-2.49 0.38,-0.93 0.95,-1.78 1.68,-2.5 1.1,-1.1 2,-2.42 2.61,-3.89 0.59,-1.41 0.92,-2.96 0.92,-4.59zm1.57 -6.92c-0.26,0.15 -0.6,0.06 -0.74,-0.2 -0.15,-0.26 -0.06,-0.6 0.2,-0.74l2.48 -1.44c0.26,-0.14 0.6,-0.05 0.74,0.21 0.15,0.26 0.06,0.59 -0.2,0.74l-2.48 1.43zm-3.22 -4.31c-0.19,0.23 -0.54,0.26 -0.77,0.07 -0.23,-0.19 -0.26,-0.54 -0.07,-0.77l1.84 -2.2c0.2,-0.23 0.54,-0.26 0.77,-0.06 0.23,0.19 0.26,0.54 0.07,0.77l-1.84 2.19zm-4.5 -2.95c-0.11,0.29 -0.42,0.43 -0.7,0.33 -0.29,-0.1 -0.43,-0.42 -0.33,-0.7l0.98 -2.69c0.1,-0.28 0.41,-0.43 0.7,-0.33 0.28,0.1 0.43,0.42 0.33,0.7l-0.98 2.69zm-18.76 6.32c0.26,0.14 0.35,0.48 0.2,0.74 -0.14,0.26 -0.48,0.35 -0.74,0.2l-2.48 -1.43c-0.26,-0.15 -0.35,-0.48 -0.21,-0.74 0.15,-0.26 0.49,-0.35 0.75,-0.21l2.48 1.44zm3.52 -4.07c0.19,0.23 0.16,0.58 -0.07,0.77 -0.23,0.19 -0.58,0.16 -0.77,-0.07l-1.84 -2.19c-0.19,-0.23 -0.16,-0.58 0.07,-0.77 0.23,-0.2 0.57,-0.17 0.77,0.06l1.84 2.2zm4.69 -2.62c0.1,0.28 -0.04,0.6 -0.33,0.7 -0.28,0.1 -0.59,-0.04 -0.7,-0.33l-0.98 -2.69c-0.1,-0.28 0.05,-0.6 0.33,-0.7 0.29,-0.1 0.6,0.05 0.7,0.33l0.98 2.69zm5.31 -0.86c0,0.3 -0.25,0.55 -0.55,0.55 -0.3,0 -0.55,-0.25 -0.55,-0.55l0 -2.86c0,-0.3 0.25,-0.55 0.55,-0.55 0.3,0 0.55,0.25 0.55,0.55l0 2.86zm-2 41.77l0 0.27c0,0.4 0.16,0.77 0.42,1.03 0.26,0.26 0.63,0.42 1.03,0.42 0.4,0 0.77,-0.16 1.03,-0.42 0.26,-0.26 0.42,-0.63 0.42,-1.03l0 -0.27 -0.26 0 -2.38 0 -0.26 0zm4 -0.15l0 0.42c0,0.7 -0.29,1.34 -0.75,1.8 -0.46,0.46 -1.1,0.75 -1.8,0.75 -0.7,0 -1.34,-0.29 -1.8,-0.75 -0.46,-0.46 -0.75,-1.1 -0.75,-1.8l0 -0.42c-1.15,-0.26 -2.17,-0.84 -2.97,-1.64 -1.11,-1.11 -1.8,-2.64 -1.8,-4.33l0 -1.45 14.64 0 0 1.45c0,1.69 -0.69,3.22 -1.8,4.33 -0.8,0.8 -1.82,1.38 -2.97,1.64zm-3.74 -0.94l2.38 0c1.39,0 2.65,-0.57 3.56,-1.47 0.91,-0.91 1.47,-2.17 1.47,-3.56l0 -0.36 -12.44 0 0 0.36c0,1.39 0.56,2.65 1.47,3.55 0.91,0.91 2.17,1.48 3.56,1.48zm-5.58 -8.07c-0.3,0 -0.55,-0.25 -0.55,-0.55 0,-0.3 0.25,-0.55 0.55,-0.55l13.54 0c0.3,0 0.55,0.25 0.55,0.55 0,0.3 -0.25,0.55 -0.55,0.55l-13.54 0zm-1.38 -17.96c-0.02,0.3 -0.29,0.52 -0.59,0.5 -0.3,-0.03 -0.52,-0.29 -0.5,-0.59 0.19,-2.26 1.21,-4.3 2.74,-5.81 1.53,-1.51 3.59,-2.5 5.84,-2.65l0.66 -0.03c1.15,0 2.25,0.21 3.27,0.6 1.06,0.4 2.02,0.98 2.85,1.72 0.23,0.2 0.25,0.54 0.05,0.77 -0.2,0.22 -0.54,0.24 -0.77,0.04 -0.73,-0.64 -1.58,-1.16 -2.51,-1.51 -0.9,-0.34 -1.87,-0.52 -2.89,-0.52l-0.58 0.02c-1.99,0.13 -3.81,1.01 -5.16,2.34 -1.35,1.33 -2.24,3.13 -2.41,5.12zm21.15 -0.15l0.03 0.91c0,1.77 -0.35,3.47 -1,5.01 -0.66,1.6 -1.64,3.04 -2.85,4.24 -0.63,0.62 -1.11,1.35 -1.44,2.15 -0.33,0.8 -0.5,1.68 -0.5,2.57l0 0.6 -14.48 0 0 -0.6c0,-0.9 -0.18,-1.77 -0.52,-2.57 -0.36,-0.83 -0.88,-1.6 -1.52,-2.26 -1.31,-1.32 -2.34,-2.93 -2.98,-4.72 -0.62,-1.7 -0.89,-3.57 -0.73,-5.52 0.27,-3.17 1.69,-6.04 3.85,-8.17 2.15,-2.12 5.04,-3.51 8.22,-3.73l0.92 -0.03c3.44,0 6.58,1.34 8.91,3.52 2.33,2.19 3.86,5.22 4.09,8.6z"/>
  <path class="fil1" d="M19.81 29.91c-0.33,-1.11 -0.86,-2.17 -1.56,-3.13 8.19,-0.19 13.06,-4.33 15.24,-6.8 -0.25,2.13 -1.21,4.1 -2.76,5.63 -1.19,1.18 -2.07,2.66 -2.55,4.3l-8.37 0z"/>
 </g>
</svg>
