<?xml version="1.0" encoding="UTF-8"?>
<!DOCTYPE svg PUBLIC "-//W3C//DTD SVG 1.1//EN" "http://www.w3.org/Graphics/SVG/1.1/DTD/svg11.dtd">
<!-- Creator: CorelDRAW 2019 (64-Bit) -->
<svg xmlns="http://www.w3.org/2000/svg" xml:space="preserve" width="48px" height="48px" version="1.1" style="shape-rendering:geometricPrecision; text-rendering:geometricPrecision; image-rendering:optimizeQuality; fill-rule:evenodd; clip-rule:evenodd"
viewBox="0 0 48 48"
 xmlns:xlink="http://www.w3.org/1999/xlink">
 <defs>
  <style type="text/css">
   <![CDATA[
    .fil1 {fill:gray;fill-rule:nonzero}
    .fil0 {fill:#C9DADD;fill-rule:nonzero}
   ]]>
  </style>
 </defs>
 <g id="Слой_x0020_1">
  <metadata id="CorelCorpID_0Corel-Layer"/>
  <path class="fil0" d="M4.63 45.76l0 -1.22c-1.29,-0.75 -2.12,-2.15 -2.12,-3.71 0,-2.36 1.93,-4.29 4.3,-4.29l0 -20.59 -6.26 0 0 29.81 4.08 0 0 0z"/>
  <path class="fil1" d="M38.84 39.7l-2.76 0c-0.31,0 -0.56,-0.24 -0.56,-0.55 0,-0.31 0.25,-0.55 0.56,-0.55l2.76 0 1.55 0c0.83,0 1.6,-0.32 2.18,-0.84 0.56,-0.5 0.93,-1.21 0.98,-2.01l0.01 -0.2c0,-0.81 -0.32,-1.55 -0.83,-2.09 -0.5,-0.53 -1.2,-0.89 -1.98,-0.95l-0.08 0.01 -4.07 0c-0.3,0 -0.55,-0.25 -0.55,-0.56 0,-0.3 0.25,-0.55 0.55,-0.55l3.8 0c0.03,-0.01 0.07,-0.01 0.11,-0.01l1.55 -0.01c0.82,0 1.6,-0.31 2.17,-0.83l0.04 -0.03c0.54,-0.5 0.9,-1.2 0.95,-1.98l0.01 -0.2c0,-0.81 -0.32,-1.55 -0.83,-2.09 -0.51,-0.54 -1.23,-0.9 -2.02,-0.95l-0.22 -0.01 -0.02 0c-0.03,0.01 -0.07,0.01 -0.11,0.01l-4.94 0c-0.3,0 -0.55,-0.25 -0.55,-0.55 0,-0.31 0.25,-0.56 0.55,-0.56l4.94 0 0.06 0 0.09 0 1.54 -0.01c0.83,0 1.61,-0.31 2.18,-0.83 0.56,-0.51 0.94,-1.21 0.99,-2.01l0 -0.21c0,-0.8 -0.31,-1.54 -0.82,-2.08 -0.51,-0.55 -1.23,-0.9 -2.02,-0.95 -3.94,-0.31 -9.24,-0.01 -13.34,-0.01 -0.17,0 -0.34,-0.02 -0.49,-0.05l-0.06 -0.02c-0.49,-0.12 -0.92,-0.4 -1.23,-0.78 -0.32,-0.39 -0.51,-0.89 -0.51,-1.42 0,-0.15 0.02,-0.32 0.06,-0.49 0.44,-2.03 0.5,-3.94 0.29,-5.7 -0.24,-2.03 -0.85,-3.87 -1.62,-5.5 -0.32,-0.65 -0.83,-1.06 -1.39,-1.24l-0.04 -0.01c-0.39,-0.12 -0.82,-0.13 -1.22,-0.04 -0.41,0.09 -0.81,0.28 -1.12,0.57 -0.43,0.39 -0.73,0.97 -0.74,1.69 -0.18,9.51 -7.27,12.88 -9.02,13.57l0 24.44c2.31,0.38 12.98,2.04 25.1,2.04 0.9,0 1.76,-0.25 2.35,-0.78l0.03 -0.02c0.47,-0.44 0.78,-1.07 0.78,-1.92 0,-0.77 -0.32,-1.46 -0.85,-1.94 -0.54,-0.49 -1.3,-0.8 -2.19,-0.8zm-31.48 3.76l0 1.75 4.18 0c0.27,0 0.51,-0.11 0.69,-0.29l0.01 -0.01c0.17,-0.17 0.27,-0.41 0.27,-0.67l0 -26.76c0,-0.27 -0.11,-0.52 -0.28,-0.69l-0.02 -0.02c-0.17,-0.16 -0.41,-0.27 -0.67,-0.27l-10.43 0 0 28.71 5.14 0 0 -1.75c-0.51,-0.11 -0.97,-0.37 -1.33,-0.73 -0.49,-0.49 -0.79,-1.16 -0.79,-1.9 0,-0.73 0.3,-1.4 0.79,-1.89 0.48,-0.48 1.15,-0.78 1.89,-0.78 0.74,0 1.41,0.3 1.89,0.78 0.48,0.49 0.78,1.16 0.78,1.89 0,0.74 -0.3,1.41 -0.78,1.9 -0.36,0.36 -0.82,0.62 -1.34,0.73zm1.02 -2.63c0,-0.43 -0.18,-0.82 -0.46,-1.1 -0.28,-0.29 -0.68,-0.46 -1.11,-0.46 -0.44,0 -0.83,0.17 -1.11,0.46 -0.28,0.28 -0.46,0.67 -0.46,1.1 0,0.44 0.18,0.83 0.46,1.12 0.28,0.28 0.68,0.46 1.11,0.46 0.43,0 0.82,-0.18 1.11,-0.46 0.28,-0.29 0.46,-0.68 0.46,-1.12zm5.24 -23.34c2.04,-0.9 7.76,-4.15 7.92,-12.39 0.02,-1.07 0.45,-1.91 1.09,-2.5 0.47,-0.42 1.04,-0.7 1.64,-0.83 0.57,-0.13 1.19,-0.11 1.77,0.06l0.05 0.02c0.83,0.26 1.59,0.85 2.05,1.82 0.83,1.73 1.47,3.69 1.73,5.84 0.22,1.88 0.16,3.9 -0.31,6.07l-0.03 0.25c0,0.27 0.1,0.52 0.26,0.72 0.15,0.2 0.38,0.34 0.63,0.41l0.29 0.03c4.43,0 8.99,-0.1 13.41,0.01 1.09,0.07 2.06,0.56 2.75,1.3 0.7,0.74 1.13,1.74 1.13,2.84l-0.01 0.28c-0.07,1.1 -0.58,2.06 -1.35,2.76 -0.5,0.46 -1.12,0.8 -1.8,0.98l0.37 0.34c0.7,0.75 1.12,1.75 1.12,2.85l0 0.27c-0.08,1.08 -0.57,2.04 -1.32,2.73l-0.03 0.03c-0.51,0.46 -1.13,0.8 -1.81,0.98l0.37 0.34c0.7,0.75 1.13,1.75 1.13,2.85l-0.01 0.27c-0.07,1.1 -0.59,2.07 -1.35,2.76 -0.49,0.44 -1.07,0.76 -1.71,0.95l0.17 0.15c0.76,0.7 1.22,1.67 1.22,2.76 0,1.19 -0.45,2.11 -1.16,2.74l-0.03 0.03c-0.81,0.71 -1.93,1.05 -3.08,1.05 -11.91,0 -22.45,-1.59 -25.1,-2.02 0,0.56 -0.23,1.07 -0.59,1.44l-0.02 0.03c-0.38,0.37 -0.9,0.61 -1.47,0.61l-4.73 0 -6.26 0c-0.3,0 -0.55,-0.25 -0.55,-0.56l0 -29.81c0,-0.31 0.25,-0.55 0.55,-0.55l10.99 0c0.56,0 1.07,0.22 1.45,0.58l0.02 0.03c0.37,0.37 0.61,0.89 0.61,1.47l0 0.01z"/>
 </g>
</svg>
