<?xml version="1.0" encoding="UTF-8"?>
<!DOCTYPE svg PUBLIC "-//W3C//DTD SVG 1.1//EN" "http://www.w3.org/Graphics/SVG/1.1/DTD/svg11.dtd">
<!-- Creator: CorelDRAW 2019 (64-Bit) -->
<svg xmlns="http://www.w3.org/2000/svg" xml:space="preserve" width="48px" height="48px" version="1.1" style="shape-rendering:geometricPrecision; text-rendering:geometricPrecision; image-rendering:optimizeQuality; fill-rule:evenodd; clip-rule:evenodd"
viewBox="0 0 48 48"
 xmlns:xlink="http://www.w3.org/1999/xlink">
 <defs>
  <style type="text/css">
   <![CDATA[
    .fil0 {fill:gray;fill-rule:nonzero}
    .fil1 {fill:#C9DADD;fill-rule:nonzero}
   ]]>
  </style>
 </defs>
 <g id="Слой_x0020_1">
  <metadata id="CorelCorpID_0Corel-Layer"/>
  <path class="fil0" d="M37.49 3.41c0,-0.63 -0.26,-1.21 -0.68,-1.63 -0.41,-0.41 -0.99,-0.67 -1.63,-0.67l-22.36 0c-0.64,0 -1.22,0.26 -1.63,0.67 -0.42,0.42 -0.68,1 -0.68,1.63 0,0.64 0.26,1.22 0.68,1.64l0.02 0.02c0.42,0.4 0.98,0.65 1.61,0.65l1.44 0 9.74 0c0.31,0 0.56,0.25 0.56,0.56 0,0.3 -0.25,0.55 -0.56,0.55l-9.12 0 1.94 16.65 3.28 0c0.3,0 0.55,0.25 0.55,0.55 0,0.31 -0.25,0.56 -0.55,0.56l-3.55 0 -4.64 4.38 7.7 0 8.78 0 7.7 0 -4.64 -4.38 -3.45 0c-0.31,0 -0.55,-0.25 -0.55,-0.56 0,-0.3 0.24,-0.55 0.55,-0.55l3.18 0 2.01 -17.27c0.03,-0.28 0.27,-0.49 0.55,-0.49l1.44 0c0.64,0 1.22,-0.26 1.63,-0.67 0.42,-0.42 0.68,-1 0.68,-1.64zm-17.18 26.67l3.69 15.05 3.69 -15.05 -3.69 0 -3.69 0zm8.52 0l-4.29 17.5c-0.05,0.19 -0.2,0.36 -0.41,0.4 -0.3,0.07 -0.6,-0.11 -0.67,-0.4l-4.29 -17.5 -8.65 0c-0.15,0 -0.3,-0.06 -0.4,-0.18 -0.21,-0.22 -0.2,-0.57 0.02,-0.78l5.61 -5.3 -1.98 -16.99 -0.95 0c-0.93,0 -1.77,-0.37 -2.38,-0.97l-0.04 -0.03c-0.61,-0.62 -1,-1.48 -1,-2.42 0,-0.94 0.39,-1.79 1,-2.41 0.62,-0.62 1.47,-1 2.42,-1l22.36 0c0.95,0 1.8,0.38 2.42,1 0.61,0.62 1,1.47 1,2.41 0,0.94 -0.39,1.8 -1,2.42 -0.62,0.62 -1.48,1 -2.42,1l-0.95 0 -1.98 16.95 0.04 0.08 5.54 5.23c0.12,0.1 0.21,0.26 0.21,0.43 0,0.31 -0.25,0.56 -0.56,0.56l-8.65 0z"/>
  <path class="fil1" d="M17.72 16.83l0 0 0.58 4.99 11.4 0 1.55 -13.33c0,0 -3.58,8.34 -13.53,8.34z"/>
 </g>
</svg>
