<?xml version="1.0" encoding="UTF-8"?>
<!DOCTYPE svg PUBLIC "-//W3C//DTD SVG 1.1//EN" "http://www.w3.org/Graphics/SVG/1.1/DTD/svg11.dtd">
<!-- Creator: CorelDRAW 2019 (64-Bit) -->
<svg xmlns="http://www.w3.org/2000/svg" xml:space="preserve" width="48px" height="48px" version="1.1" style="shape-rendering:geometricPrecision; text-rendering:geometricPrecision; image-rendering:optimizeQuality; fill-rule:evenodd; clip-rule:evenodd"
viewBox="0 0 48 48"
 xmlns:xlink="http://www.w3.org/1999/xlink">
 <defs>
  <style type="text/css">
   <![CDATA[
    .fil0 {fill:gray;fill-rule:nonzero}
    .fil1 {fill:#FBE0DC;fill-rule:nonzero}
   ]]>
  </style>
 </defs>
 <g id="Слой_x0020_1">
  <metadata id="CorelCorpID_0Corel-Layer"/>
  <path class="fil0" d="M15.6 33.77c-0.23,-0.2 -0.25,-0.56 -0.05,-0.79 0.21,-0.23 0.56,-0.25 0.79,-0.04l6.99 6.23 10.32 -12.64c0.19,-0.24 0.55,-0.27 0.79,-0.08 0.23,0.2 0.27,0.55 0.07,0.79l-11.06 13.53 -7.85 -7zm18.93 -18.02c0,-2.9 -1.18,-5.53 -3.09,-7.44 -1.9,-1.9 -4.53,-3.08 -7.43,-3.08l0 -1.12c3.2,0 6.12,1.3 8.22,3.41 2.11,2.11 3.42,5.02 3.42,8.23l-1.12 0zm4.1 0c0,-4.04 -1.64,-7.7 -4.28,-10.34 -2.65,-2.65 -6.31,-4.29 -10.34,-4.29 -4.05,0 -7.71,1.64 -10.36,4.28 -2.64,2.65 -4.28,6.31 -4.28,10.35l-1.12 0c0,-4.35 1.77,-8.29 4.62,-11.14 2.85,-2.85 6.79,-4.61 11.14,-4.61 4.34,0 8.28,1.76 11.13,4.61 2.85,2.85 4.61,6.79 4.61,11.14l-1.12 0zm-33.59 31.13l37.92 0 0 -26.47 -37.92 0 0 26.47zm38.48 1.12l-39.6 0 0 -28.71 40.16 0 0 28.71 -0.56 0z"/>
  <path class="fil1" d="M39.48 43.4l-30.96 0 0 -19.51 30.96 0 0 19.51zm-32.98 -21.53l0 23.55 35 0 0 -23.55 -35 0z"/>
 </g>
</svg>
