<?xml version="1.0" encoding="UTF-8"?>
<!DOCTYPE svg PUBLIC "-//W3C//DTD SVG 1.1//EN" "http://www.w3.org/Graphics/SVG/1.1/DTD/svg11.dtd">
<!-- Creator: CorelDRAW 2019 (64-Bit) -->
<svg xmlns="http://www.w3.org/2000/svg" xml:space="preserve" width="48px" height="48px" version="1.1" style="shape-rendering:geometricPrecision; text-rendering:geometricPrecision; image-rendering:optimizeQuality; fill-rule:evenodd; clip-rule:evenodd"
viewBox="0 0 48 48"
 xmlns:xlink="http://www.w3.org/1999/xlink">
 <defs>
  <style type="text/css">
   <![CDATA[
    .fil0 {fill:gray}
   ]]>
  </style>
 </defs>
 <g id="Слой_x0020_1">
  <metadata id="CorelCorpID_0Corel-Layer"/>
  <path class="fil0" d="M24 13.94c3.85,0 6.97,-3.12 6.97,-6.97 0,-3.85 -3.12,-6.97 -6.97,-6.97 -3.85,0 -6.97,3.12 -6.97,6.97 0,3.85 3.12,6.97 6.97,6.97zm0 -10.84c2.14,0 3.87,1.73 3.87,3.87 0,2.14 -1.73,3.87 -3.87,3.87 -2.14,0 -3.87,-1.73 -3.87,-3.87 0,-2.14 1.73,-3.87 3.87,-3.87l0 0zm0 13.93c-3.85,0 -6.97,3.12 -6.97,6.97 0,3.85 3.12,6.97 6.97,6.97 3.85,0 6.97,-3.12 6.97,-6.97 0,-3.85 -3.12,-6.97 -6.97,-6.97zm0 10.84c-2.14,0 -3.87,-1.73 -3.87,-3.87 0,-2.14 1.73,-3.87 3.87,-3.87 2.14,0 3.87,1.73 3.87,3.87 0,2.14 -1.73,3.87 -3.87,3.87l0 0zm0 6.19c-3.85,0 -6.97,3.12 -6.97,6.97 0,3.85 3.12,6.97 6.97,6.97 3.85,0 6.97,-3.12 6.97,-6.97 0,-3.85 -3.12,-6.97 -6.97,-6.97zm0 10.84c-2.14,0 -3.87,-1.73 -3.87,-3.87 0,-2.14 1.73,-3.87 3.87,-3.87 2.14,0 3.87,1.73 3.87,3.87 0,2.14 -1.73,3.87 -3.87,3.87l0 0z"/>
 </g>
</svg>
