<?xml version="1.0" encoding="UTF-8"?>
<!DOCTYPE svg PUBLIC "-//W3C//DTD SVG 1.1//EN" "http://www.w3.org/Graphics/SVG/1.1/DTD/svg11.dtd">
<!-- Creator: CorelDRAW 2019 (64-Bit) -->
<svg xmlns="http://www.w3.org/2000/svg" xml:space="preserve" width="48px" height="48px" version="1.1" style="shape-rendering:geometricPrecision; text-rendering:geometricPrecision; image-rendering:optimizeQuality; fill-rule:evenodd; clip-rule:evenodd"
viewBox="0 0 48 48"
 xmlns:xlink="http://www.w3.org/1999/xlink">
 <defs>
  <style type="text/css">
   <![CDATA[
    .fil0 {fill:gray;fill-rule:nonzero}
    .fil1 {fill:#C9DADD;fill-rule:nonzero}
   ]]>
  </style>
 </defs>
 <g id="Слой_x0020_1">
  <metadata id="CorelCorpID_0Corel-Layer"/>
  <path class="fil0" d="M41.3 10.74c-0.3,0.09 -0.6,-0.08 -0.69,-0.38 -0.08,-0.29 0.09,-0.6 0.39,-0.68 0.23,-0.06 0.45,-0.14 0.67,-0.23l0.03 -0.01c1.84,-0.72 2.94,-2.04 3.48,-3.48 0.55,-1.48 0.54,-3.08 0.19,-4.31 -0.04,-0.14 -0.11,-0.41 -0.18,-0.52 -0.07,-0.01 -0.05,-0.01 -0.12,0.01l-0.05 0.1c-0.31,1.05 -0.86,2.18 -1.57,3.03 -0.64,0.78 -1.43,1.34 -2.32,1.49 -1.32,0.21 -2.26,-0.16 -3.36,-0.59 -1.05,-0.42 -2.29,-0.91 -4.22,-0.91 -1.94,0 -3.18,0.49 -4.23,0.91l-0.02 0c-1.09,0.43 -2.03,0.8 -3.35,0.59l-0.02 -0.01c-0.89,-0.15 -1.66,-0.71 -2.3,-1.48 -0.72,-0.86 -1.27,-2.02 -1.58,-3.07 -0.05,-0.08 -0.05,-0.08 -0.15,-0.07l-0.04 0.05 -0.15 0.47c-0.35,1.23 -0.36,2.84 0.19,4.31 0.45,1.2 1.29,2.31 2.62,3.07l0 0 0.01 0.01 0.01 0 0.01 0.01 0.03 0.01 0.01 0.01 0 0c0.26,0.14 0.53,0.27 0.82,0.39 0.21,0.08 0.44,0.15 0.67,0.22 0.3,0.08 0.47,0.39 0.39,0.68 -0.09,0.3 -0.39,0.47 -0.69,0.38 -0.26,-0.07 -0.52,-0.16 -0.77,-0.25 -0.2,-0.08 -0.39,-0.16 -0.58,-0.26 -0.54,0.71 -1.17,1.96 -0.99,3.77 0.14,1.42 0.78,3.18 2.31,5.31l0.21 0.28c0.53,0.7 1.64,2.15 2.17,3.69 0.25,-0.22 0.53,-0.41 0.85,-0.55 0.76,-0.33 1.69,-0.38 2.77,0.05l0.4 0.18c0.2,0.1 0.42,0.19 0.63,0.25 0.2,0.05 0.4,0.09 0.59,0.1l0.18 0 0.16 0c0.19,-0.01 0.4,-0.05 0.59,-0.1l0.03 -0.01c0.2,-0.06 0.4,-0.14 0.6,-0.24l0.4 -0.18c1.08,-0.43 2.01,-0.38 2.77,-0.05 0.24,0.1 0.46,0.24 0.66,0.39 0.54,-1.46 1.57,-2.81 2.1,-3.5l0.24 -0.32c1.51,-2.09 2.14,-3.83 2.29,-5.24 0.2,-1.78 -0.38,-3.01 -0.91,-3.74 -0.12,0.05 -0.25,0.1 -0.37,0.15l-0.05 0.02c-0.24,0.09 -0.49,0.18 -0.76,0.25zm-3.06 2.11c0.35,0 0.63,0.28 0.63,0.62 0,0.35 -0.28,0.63 -0.63,0.63 -0.35,0 -0.62,-0.28 -0.62,-0.63 0,-0.34 0.27,-0.62 0.62,-0.62zm-9.65 0c0.35,0 0.63,0.28 0.63,0.62 0,0.35 -0.28,0.63 -0.63,0.63 -0.34,0 -0.62,-0.28 -0.62,-0.63 0,-0.34 0.28,-0.62 0.62,-0.62zm-9.25 24.87c-3.04,0.45 -6.09,0.67 -9.12,0.67 -3.04,0 -6.08,-0.22 -9.11,-0.67l0 7.03c0,0.15 0.04,0.29 0.12,0.41 0.07,0.11 0.17,0.21 0.3,0.27l0.02 0.01c0.7,0.31 1.92,0.76 3.78,1.07 1.3,0.21 2.92,0.37 4.89,0.37 1.97,0 3.59,-0.16 4.89,-0.37 1.85,-0.31 3.07,-0.76 3.77,-1.07 0.13,-0.06 0.24,-0.15 0.32,-0.26l0.02 -0.03c0.07,-0.11 0.12,-0.26 0.12,-0.4l0 -7.03zm-18.23 -11.48c3.01,0.45 6.05,0.67 9.11,0.67 3.05,0 6.1,-0.22 9.12,-0.68l0 -2.7c0,-3 -1.46,-5.8 -1.68,-6.21l-0.01 -0.03c-2.54,-4.54 -3.32,-8.55 -3.53,-9.93l-7.81 0c-0.21,1.38 -0.99,5.39 -3.53,9.93 -0.14,0.27 -1.67,3.16 -1.67,6.24l0 2.71zm9.11 11.04c3.05,0 6.1,-0.22 9.12,-0.68l0 -9.25c-3.04,0.45 -6.09,0.67 -9.12,0.67 -3.04,0 -6.08,-0.22 -9.11,-0.67l0 9.25c3.01,0.46 6.05,0.68 9.11,0.68zm-4.41 -31.03l0.02 0 8.77 0 0.02 0 0.01 0 0.01 0 0.08 0.01 0.01 0 0.01 0.01 0.01 0 0.03 0.01 0.01 0 0.01 0.01 0.02 0 0.01 0.01 0.04 0.02 0.01 0 0.01 0.01 0.01 0 0.02 0.02 0.02 0.01 0 0 0.02 0.02 0 0 0.02 0.02 0.02 0.01 0 0.01 0.02 0.01 0 0.01 0.01 0.01 0.01 0.01 0.01 0.01 0 0.01 0.01 0.01 0.01 0.01 0.01 0.02 0 0 0.01 0.02 0.01 0.01 0.01 0.01 0 0.01 0.01 0.02 0 0.01 0.01 0.01 0 0.01 0 0.02 0.01 0.01 0 0.01 0 0.01 0.01 0.02 0 0.01 0 0.02 0 0.01 0.01 0.02 0 0.01 0 0 0 0.01c0.03,0.29 0.53,4.74 3.45,9.98l0.02 0.04c0.13,0.24 1.82,3.36 1.82,6.74l0 13.55 0 7.67c0,0.36 -0.11,0.72 -0.31,1.01l-0.03 0.05c-0.19,0.27 -0.46,0.49 -0.78,0.64 -0.75,0.34 -2.07,0.82 -4.04,1.15 -1.36,0.22 -3.05,0.39 -5.07,0.39 -2.02,0 -3.71,-0.17 -5.08,-0.39 -1.97,-0.33 -3.29,-0.81 -4.04,-1.15l-0.04 -0.02c-0.32,-0.15 -0.58,-0.39 -0.76,-0.67 -0.19,-0.3 -0.3,-0.65 -0.3,-1.01l0 -18.04 0 -3.18c0,-3.52 1.8,-6.75 1.81,-6.75l0.01 -0.03c2.92,-5.24 3.42,-9.69 3.45,-9.98l0 -0.01 0 0 0 -0.01 0 -0.02 0.01 -0.01 0 -0.02 0 -0.01 0.01 -0.02 0 -0.01 0 -0.01 0 -0.01 0.01 -0.02 0 -0.01 0.01 -0.01 0 -0.01 0.01 -0.02 0 -0.01 0.01 -0.01 0.01 -0.01 0.01 -0.02 0 0 0.01 -0.02 0 -0.01 0.02 -0.01 0 -0.01 0.01 -0.01 0.01 -0.01 0.01 -0.01 0 -0.01 0.02 -0.01 0 -0.01 0.02 -0.01 0.02 -0.02 0 0 0.02 -0.02 0 0 0.02 -0.01 0.02 -0.02 0.01 0 0.01 -0.01 0.01 0 0.04 -0.02 0.01 -0.01 0.02 0 0.01 -0.01 0.01 0 0.03 -0.01 0.01 0 0.01 -0.01 0.01 0 0.08 -0.01 0.01 0 0.01 0zm9.22 -1.5c-0.03,0.31 -0.31,0.52 -0.61,0.49 -0.3,-0.03 -0.52,-0.31 -0.49,-0.61l0.33 -2.7 -8.09 0 0.32 2.7c0.04,0.3 -0.18,0.58 -0.48,0.61 -0.3,0.03 -0.58,-0.18 -0.62,-0.49 -0.11,-0.91 -0.27,-1.91 -0.33,-2.82 0,-0.26 0.09,-0.52 0.25,-0.71 0.15,-0.18 0.36,-0.32 0.61,-0.37 1.79,-0.31 6.28,-0.03 8.36,-0.03l0.21 0.02c0.24,0.05 0.44,0.17 0.59,0.33l0.05 0.05c0.15,0.19 0.25,0.43 0.25,0.69 -0.09,0.94 -0.23,1.9 -0.35,2.84zm22.31 25.6c-0.15,0.63 -0.55,1.18 -1.13,1.6 -0.68,0.51 -1.63,0.82 -2.66,0.82 -1.03,0 -1.98,-0.31 -2.67,-0.82 -0.58,-0.42 -0.99,-0.97 -1.14,-1.6 -0.75,-0.02 -1.42,-0.25 -1.92,-0.62 -0.56,-0.41 -0.92,-1 -0.97,-1.67l0 -0.03c0,-0.01 -0.16,-2.16 0.32,-3.34l0.12 -0.27c-0.25,-1.59 -1.62,-3.38 -2.21,-4.16l-0.23 -0.3c-1.66,-2.31 -2.35,-4.26 -2.51,-5.85 -0.2,-2.08 0.49,-3.55 1.12,-4.43 -0.81,-0.55 -1.44,-1.23 -1.91,-1.97 -0.34,-0.05 -0.68,0.04 -0.94,0.23 -0.15,0.11 -0.27,0.26 -0.34,0.42 -0.07,0.15 -0.1,0.33 -0.07,0.53 0.07,0.46 0.46,1.01 1.35,1.55 0.26,0.16 0.34,0.51 0.18,0.77 -0.15,0.25 -0.5,0.34 -0.76,0.18 -1.2,-0.74 -1.75,-1.58 -1.86,-2.34 -0.07,-0.41 0,-0.8 0.15,-1.14 0.15,-0.34 0.39,-0.63 0.69,-0.85 0.29,-0.22 0.65,-0.38 1.03,-0.44l-0.11 -0.28c-0.64,-1.7 -0.63,-3.56 -0.23,-4.99l0.19 -0.57c0.11,-0.28 0.29,-0.48 0.51,-0.6 0.2,-0.12 0.44,-0.17 0.66,-0.16 0.21,0.01 0.41,0.07 0.59,0.18l0.06 0.04c0.21,0.14 0.38,0.36 0.46,0.65 0.27,0.93 0.75,1.93 1.37,2.68 0.48,0.57 1.04,0.99 1.63,1.09l0.01 0.01c1.02,0.16 1.83,-0.16 2.77,-0.53l0.02 0c1.15,-0.46 2.49,-0.99 4.64,-0.99 2.14,0 3.48,0.53 4.63,0.99 0.95,0.37 1.76,0.69 2.78,0.53 0.59,-0.1 1.16,-0.52 1.64,-1.1 0.61,-0.74 1.09,-1.73 1.36,-2.64l0.01 -0.04c0.08,-0.29 0.26,-0.52 0.48,-0.67 0.19,-0.12 0.41,-0.19 0.62,-0.2l0.02 0c0.22,-0.01 0.44,0.04 0.64,0.15l0.02 0.01c0.22,0.13 0.41,0.34 0.5,0.62l0.19 0.54c0.4,1.44 0.41,3.3 -0.23,5l-0.11 0.28c0.38,0.06 0.74,0.22 1.03,0.44 0.3,0.22 0.54,0.51 0.69,0.85 0.15,0.34 0.22,0.73 0.16,1.14 -0.12,0.76 -0.67,1.6 -1.87,2.34 -0.26,0.16 -0.6,0.07 -0.76,-0.18 -0.16,-0.26 -0.08,-0.61 0.18,-0.77 0.89,-0.54 1.28,-1.09 1.35,-1.55 0.03,-0.2 0,-0.38 -0.07,-0.53 -0.07,-0.16 -0.19,-0.31 -0.34,-0.42 -0.25,-0.19 -0.6,-0.28 -0.94,-0.23 -0.51,0.79 -1.19,1.5 -2.07,2.08 0.62,0.9 1.26,2.36 1.03,4.39 -0.17,1.57 -0.86,3.5 -2.5,5.78l-0.25 0.33c-0.57,0.74 -1.77,2.32 -2.12,3.8 0.06,0.1 0.11,0.2 0.16,0.3l0.14 0.3c0.47,1.17 0.31,3.33 0.31,3.34l-0.01 0.08c-0.05,0.65 -0.4,1.22 -0.95,1.63 -0.51,0.37 -1.18,0.59 -1.93,0.61zm-6.43 0c0.13,0.27 0.34,0.51 0.62,0.71 0.51,0.37 1.22,0.6 2.02,0.6 0.79,0 1.51,-0.23 2.01,-0.6 0.27,-0.2 0.49,-0.44 0.61,-0.71l-5.26 0zm7.53 -19.96c0.3,-0.09 0.6,0.08 0.69,0.37 0.08,0.3 -0.09,0.6 -0.38,0.69 -0.58,0.17 -1.24,0.4 -1.67,0.78l-0.03 0.03c-0.36,0.33 -0.57,0.81 -0.43,1.55l0.01 0.04c0.16,0.76 0.55,1.26 0.93,1.74 0.58,0.76 1.15,1.49 1.15,2.98 0,0.3 -0.25,0.55 -0.56,0.55 -0.3,0 -0.55,-0.25 -0.55,-0.55 0,-1.11 -0.46,-1.7 -0.92,-2.3 -0.45,-0.59 -0.92,-1.19 -1.13,-2.2l-0.01 -0.05c-0.24,-1.19 0.14,-2.01 0.77,-2.59l0.03 -0.03c0.6,-0.52 1.4,-0.81 2.1,-1.01zm-10.35 1.06c-0.29,-0.09 -0.46,-0.39 -0.38,-0.69 0.09,-0.29 0.39,-0.46 0.69,-0.37 0.7,0.2 1.5,0.49 2.1,1.01l0.03 0.03c0.64,0.58 1.01,1.4 0.77,2.59l-0.01 0.06c-0.22,1.01 -0.68,1.61 -1.14,2.2 -0.46,0.6 -0.92,1.19 -0.93,2.29 0,0.3 -0.25,0.55 -0.55,0.55 -0.3,0 -0.55,-0.25 -0.55,-0.56 0.01,-1.48 0.58,-2.21 1.16,-2.96 0.38,-0.49 0.77,-0.99 0.93,-1.75l0.01 -0.04c0.14,-0.74 -0.07,-1.22 -0.43,-1.55l-0.03 -0.03c-0.43,-0.38 -1.09,-0.61 -1.67,-0.78zm10.68 13.38c-0.18,-0.08 -0.31,-0.27 -0.32,-0.47 -0.21,-0.27 -0.48,-0.48 -0.79,-0.62 -0.5,-0.22 -1.15,-0.24 -1.92,0.07l-0.32 0.15c-0.25,0.12 -0.51,0.23 -0.79,0.3l-0.03 0.01c-0.27,0.08 -0.55,0.13 -0.83,0.14l-0.02 0 -0.44 0c-0.28,-0.01 -0.56,-0.06 -0.83,-0.14 -0.29,-0.08 -0.57,-0.19 -0.82,-0.31l-0.32 -0.15c-0.77,-0.31 -1.42,-0.28 -1.92,-0.07 -0.5,0.22 -0.88,0.65 -1.13,1.14l-0.09 0.21c-0.34,0.83 -0.25,2.7 -0.24,2.92 0.03,0.32 0.22,0.61 0.52,0.83 0.33,0.25 0.79,0.4 1.32,0.4l0.43 0 6.62 0 0.43 0c0.53,0 1,-0.15 1.33,-0.4 0.3,-0.21 0.48,-0.51 0.51,-0.83 0.01,-0.21 0.1,-2.09 -0.23,-2.91l-0.1 -0.22 -0.02 -0.05zm-2.35 1.52c0,-0.3 0.24,-0.55 0.55,-0.55 0.31,0 0.56,0.25 0.56,0.55l0 0.89c0,0.3 -0.25,0.55 -0.56,0.55 -0.31,0 -0.55,-0.25 -0.55,-0.55l0 -0.89zm-6.87 0c0,-0.3 0.25,-0.55 0.56,-0.55 0.31,0 0.55,0.25 0.55,0.55l0 0.89c0,0.3 -0.24,0.55 -0.55,0.55 -0.31,0 -0.56,-0.25 -0.56,-0.55l0 -0.89z"/>
  <path class="fil1" d="M9.52 29.68c-2.24,-0.03 -4.52,-0.17 -6.76,-0.43l0 5.9c2.48,0.31 4.96,0.47 7.46,0.47 1.59,0 3.2,-0.07 4.81,-0.2 -2.31,-0.91 -4.41,-3.25 -5.51,-5.74z"/>
 </g>
</svg>
