<?xml version="1.0" encoding="UTF-8"?>
<!DOCTYPE svg PUBLIC "-//W3C//DTD SVG 1.1//EN" "http://www.w3.org/Graphics/SVG/1.1/DTD/svg11.dtd">
<!-- Creator: CorelDRAW 2019 (64-Bit) -->
<svg xmlns="http://www.w3.org/2000/svg" xml:space="preserve" width="48px" height="48px" version="1.1" style="shape-rendering:geometricPrecision; text-rendering:geometricPrecision; image-rendering:optimizeQuality; fill-rule:evenodd; clip-rule:evenodd"
viewBox="0 0 48 48"
 xmlns:xlink="http://www.w3.org/1999/xlink">
 <defs>
  <style type="text/css">
   <![CDATA[
    .fil1 {fill:#FBE0DC}
    .fil0 {fill:gray;fill-rule:nonzero}
   ]]>
  </style>
 </defs>
 <g id="Слой_x0020_1">
  <metadata id="CorelCorpID_0Corel-Layer"/>
  <path class="fil0" d="M37.06 36.94l0 -20.02c-3.72,2.86 -6.23,4.29 -7.53,4.29 -0.61,0 -1.16,-0.25 -1.63,-0.74 -0.48,-0.49 -0.72,-1.06 -0.72,-1.71 0,-0.75 0.24,-1.3 0.7,-1.65 0.47,-0.34 1.3,-0.8 2.49,-1.36 1.78,-0.83 3.2,-1.71 4.26,-2.64 1.07,-0.92 2,-1.96 2.83,-3.1 0.82,-1.15 1.36,-1.85 1.61,-2.11 0.25,-0.26 0.72,-0.4 1.41,-0.4 0.77,0 1.41,0.3 1.87,0.9 0.48,0.6 0.71,1.43 0.71,2.49l0 25.18c0,2.96 -1.01,4.43 -3.02,4.43 -0.9,0 -1.62,-0.3 -2.16,-0.9 -0.55,-0.6 -0.82,-1.49 -0.82,-2.66z"/>
  <path class="fil1" d="M6.52 23.05l16.74 0c0.87,0 1.58,0.71 1.58,1.59l0 1.4c0,0.87 -0.71,1.59 -1.58,1.59l-16.74 0c-0.87,0 -1.58,-0.72 -1.58,-1.59l0 -1.4c0,-0.88 0.71,-1.59 1.58,-1.59z"/>
 </g>
</svg>
