<?xml version="1.0" encoding="UTF-8"?>
<!DOCTYPE svg PUBLIC "-//W3C//DTD SVG 1.1//EN" "http://www.w3.org/Graphics/SVG/1.1/DTD/svg11.dtd">
<!-- Creator: CorelDRAW 2019 (64-Bit) -->
<svg xmlns="http://www.w3.org/2000/svg" xml:space="preserve" width="48px" height="48px" version="1.1" style="shape-rendering:geometricPrecision; text-rendering:geometricPrecision; image-rendering:optimizeQuality; fill-rule:evenodd; clip-rule:evenodd"
viewBox="0 0 48 48"
 xmlns:xlink="http://www.w3.org/1999/xlink">
 <defs>
  <style type="text/css">
   <![CDATA[
    .fil0 {fill:gray;fill-rule:nonzero}
    .fil1 {fill:#FBE0DC;fill-rule:nonzero}
   ]]>
  </style>
 </defs>
 <g id="Слой_x0020_1">
  <metadata id="CorelCorpID_0Corel-Layer"/>
  <path class="fil0" d="M35.74 39c0.33,0 0.6,0.27 0.6,0.6 0,0.33 -0.27,0.6 -0.6,0.6l-23.47 0c-0.34,0 -0.61,-0.27 -0.61,-0.6 0,-0.33 0.27,-0.6 0.61,-0.6l23.47 0zm-14.55 -35.3c-0.34,0 -0.61,-0.27 -0.61,-0.61 0,-0.33 0.27,-0.6 0.61,-0.6l5.63 0c0.33,0 0.6,0.27 0.6,0.6 0,0.34 -0.27,0.61 -0.6,0.61l-5.63 0zm4 39.84c0,-0.33 -0.13,-0.63 -0.35,-0.84 -0.21,-0.22 -0.51,-0.35 -0.84,-0.35 -0.33,0 -0.63,0.13 -0.84,0.35 -0.21,0.21 -0.35,0.51 -0.35,0.84 0,0.33 0.14,0.63 0.35,0.84 0.21,0.22 0.51,0.35 0.84,0.35 0.33,0 0.63,-0.14 0.84,-0.35 0.22,-0.21 0.35,-0.51 0.35,-0.84zm0.51 -1.7c0.43,0.44 0.7,1.04 0.7,1.7 0,0.66 -0.27,1.26 -0.7,1.7 -0.44,0.43 -1.04,0.7 -1.7,0.7 -0.66,0 -1.26,-0.27 -1.69,-0.7 -0.44,-0.44 -0.71,-1.04 -0.71,-1.7 0,-0.66 0.27,-1.26 0.71,-1.7 0.43,-0.43 1.03,-0.7 1.69,-0.7 0.66,0 1.26,0.27 1.7,0.7zm10.01 6.16l-23.42 0c-0.85,0 -1.63,-0.35 -2.19,-0.91 -0.56,-0.57 -0.91,-1.34 -0.91,-2.2l0 -41.45c0,-0.95 0.38,-1.81 1,-2.43 0.63,-0.62 1.49,-1.01 2.43,-1.01l22.76 0c0.94,0 1.8,0.39 2.42,1.01 0.63,0.62 1.01,1.48 1.01,2.43l0 41.45c0,0.86 -0.35,1.63 -0.9,2.2 -0.57,0.56 -1.34,0.91 -2.2,0.91zm-23.42 -1.21l23.42 0c0.52,0 1,-0.21 1.34,-0.55 0.34,-0.34 0.55,-0.82 0.55,-1.35l0 -41.45c0,-0.62 -0.25,-1.18 -0.65,-1.58 -0.4,-0.4 -0.96,-0.65 -1.57,-0.65l-22.76 0c-0.61,0 -1.17,0.25 -1.57,0.65 -0.4,0.4 -0.65,0.96 -0.65,1.58l0 41.45c0,0.53 0.21,1 0.55,1.35 0.34,0.34 0.82,0.55 1.34,0.55zm-0.02 -40.66c-0.34,0 -0.61,-0.27 -0.61,-0.6 0,-0.34 0.27,-0.61 0.61,-0.61l22.71 0c0.33,0 0.61,0.27 0.61,0.61 0,0.33 -0.28,0.6 -0.61,0.6l-22.71 0z"/>
  <path class="fil1" d="M21.66 8.02l13.88 0 0 20.58 -1.53 -5.35c-1.87,-6.54 -6.33,-12.05 -12.35,-15.23l0 0z"/>
 </g>
</svg>
