<?xml version="1.0" encoding="UTF-8"?>
<!DOCTYPE svg PUBLIC "-//W3C//DTD SVG 1.1//EN" "http://www.w3.org/Graphics/SVG/1.1/DTD/svg11.dtd">
<!-- Creator: CorelDRAW 2019 (64-Bit) -->
<svg xmlns="http://www.w3.org/2000/svg" xml:space="preserve" width="48px" height="48px" version="1.1" style="shape-rendering:geometricPrecision; text-rendering:geometricPrecision; image-rendering:optimizeQuality; fill-rule:evenodd; clip-rule:evenodd"
viewBox="0 0 48 48"
 xmlns:xlink="http://www.w3.org/1999/xlink">
 <defs>
  <style type="text/css">
   <![CDATA[
    .fil0 {fill:gray;fill-rule:nonzero}
    .fil1 {fill:#FBE0DC;fill-rule:nonzero}
   ]]>
  </style>
 </defs>
 <g id="Слой_x0020_1">
  <metadata id="CorelCorpID_0Corel-Layer"/>
  <path class="fil0" d="M15.62 29.18l0 0c-1.02,-0.98 -2.47,-2.07 -4.46,-3.02 -1.92,-0.92 -4.34,-1.7 -7.37,-2.14 -0.76,2.78 -4.12,17.64 10.24,19.72l0.05 0.01c0,0 0.81,0.12 1.59,0.06 -0.69,-1.1 -1.12,-2.48 -1.18,-4.2l0 -0.02c-0.8,-4.81 -6.93,-8.98 -6.94,-8.99 -0.25,-0.17 -0.31,-0.51 -0.14,-0.76 0.17,-0.25 0.51,-0.31 0.76,-0.14 0.01,0.01 4.45,3.03 6.5,7.05 0.27,-2.48 0.59,-5.03 0.93,-7.42l0.02 -0.15zm24.96 6.15c0.12,0.77 0.29,1.82 0.46,3 0.22,1.47 0.44,3.16 0.61,4.77l0.04 0.64c0.01,1.45 -0.47,2.45 -1.24,3.12 -0.74,0.66 -1.75,0.98 -2.8,1.09 -0.25,0.03 -0.52,0.04 -0.79,0.05l-0.36 0c-0.28,-0.01 -0.55,-0.02 -0.81,-0.05 -1.05,-0.11 -2.05,-0.43 -2.79,-1.09 -0.77,-0.67 -1.26,-1.67 -1.24,-3.12l0.04 -0.64c0.13,-1.3 0.3,-2.65 0.48,-3.9 0.21,-1.53 0.43,-2.9 0.59,-3.86 -0.62,-0.07 -1.18,-0.15 -1.68,-0.23 -1.39,-0.24 -2.36,-0.52 -2.9,-0.71 -0.25,-0.09 -0.47,-0.24 -0.64,-0.43 -0.17,-0.19 -0.3,-0.42 -0.35,-0.68 -0.11,-0.49 -0.16,-0.97 -0.16,-1.41 0,-1.61 0.65,-2.97 1.78,-4.03 1.09,-1.03 2.62,-1.76 4.42,-2.17 1.05,-0.23 2.19,-0.35 3.37,-0.35 1.19,0 2.33,0.12 3.38,0.36 1.8,0.4 3.34,1.14 4.42,2.16 1.13,1.06 1.79,2.42 1.79,4.03 0,0.45 -0.06,0.92 -0.17,1.41 -0.06,0.26 -0.18,0.49 -0.35,0.68 -0.18,0.19 -0.39,0.34 -0.63,0.43 -0.55,0.19 -1.51,0.47 -2.91,0.71 -0.47,0.08 -0.99,0.15 -1.56,0.22zm-6.71 0.11c-0.17,0.98 -0.39,2.39 -0.61,3.91 -0.17,1.24 -0.34,2.58 -0.47,3.86l-0.04 0.54c-0.01,1.09 0.33,1.82 0.87,2.29 0.55,0.49 1.34,0.74 2.19,0.82 0.36,0.02 0.68,0.04 1.04,0.04 0.23,0 0.46,-0.01 0.69,-0.04 0.84,-0.08 1.63,-0.33 2.19,-0.82 0.53,-0.47 0.88,-1.2 0.86,-2.29l-0.03 -0.54c-0.16,-1.57 -0.39,-3.24 -0.6,-4.72 -0.17,-1.19 -0.35,-2.27 -0.48,-3.06 -0.86,0.06 -1.81,0.1 -2.87,0.1 -1,0 -1.92,-0.03 -2.74,-0.09zm2.74 -9.01c-1.11,0 -2.17,0.11 -3.13,0.32 -1.61,0.36 -2.96,1.01 -3.91,1.9 -0.9,0.85 -1.43,1.94 -1.43,3.23 0,0.38 0.04,0.78 0.13,1.18 0.02,0.07 0.05,0.13 0.09,0.18 0.05,0.05 0.12,0.1 0.19,0.12 0.5,0.18 1.39,0.44 2.72,0.67 1.34,0.22 3.11,0.41 5.34,0.41 2.24,0 4.01,-0.19 5.35,-0.41 1.33,-0.23 2.22,-0.49 2.72,-0.67 0.07,-0.02 0.14,-0.07 0.18,-0.12 0.05,-0.05 0.09,-0.12 0.1,-0.19 0.09,-0.4 0.14,-0.79 0.14,-1.17 0,-1.29 -0.53,-2.38 -1.44,-3.23 -0.94,-0.89 -2.3,-1.54 -3.9,-1.9 -0.96,-0.21 -2.02,-0.32 -3.15,-0.32zm-4.29 -6.08l0.52 3.36c0.04,0.29 -0.16,0.57 -0.46,0.62 -0.3,0.05 -0.58,-0.16 -0.63,-0.46l-0.52 -3.42c-1.98,0.17 -4.21,0.27 -6.7,0.27 -2.38,0 -4.53,-0.1 -6.46,-0.25 -0.35,2.11 -0.88,5.39 -1.39,9.01 -0.37,2.69 -0.74,5.58 -1.03,8.35 -0.04,0.43 -0.07,0.84 -0.07,1.22 -0.02,2.12 0.53,3.67 1.45,4.78l0 0 0.01 0.01c0.19,0.23 0.4,0.44 0.61,0.63 1.31,1.15 3.13,1.72 5.07,1.92 0.52,0.05 1.04,0.08 1.56,0.09l0.75 0c0.81,-0.01 1.62,-0.08 2.41,-0.21 0.71,-0.11 1.39,-0.29 2.02,-0.53 0.29,-0.1 0.6,0.04 0.71,0.32 0.11,0.29 -0.04,0.6 -0.32,0.71 -0.71,0.27 -1.46,0.46 -2.23,0.59 -0.84,0.13 -1.71,0.2 -2.59,0.21l-0.75 0c-0.57,0 -1.13,-0.03 -1.67,-0.09 -2.15,-0.22 -4.18,-0.87 -5.68,-2.19 -0.18,-0.15 -0.34,-0.31 -0.51,-0.49 -0.92,0.2 -2.11,0.07 -2.48,0.03l-0.07 -0.01c-17.1,-2.47 -11.02,-21.51 -11,-21.56 0.08,-0.25 0.33,-0.42 0.59,-0.38 3.39,0.43 6.07,1.28 8.17,2.28 1.77,0.85 3.14,1.81 4.18,2.71 0.43,-3.04 0.86,-5.69 1.17,-7.5 -0.82,-0.08 -1.6,-0.17 -2.33,-0.27 -4.04,-0.54 -6.7,-1.31 -8.06,-1.79 -0.43,-0.15 -0.82,-0.41 -1.12,-0.74 -0.29,-0.32 -0.51,-0.73 -0.61,-1.18 -0.22,-1.01 -0.33,-1.98 -0.33,-2.91 0,-3.28 1.34,-6.05 3.63,-8.22 2.26,-2.13 5.46,-3.66 9.22,-4.51 2.22,-0.49 4.63,-0.75 7.15,-0.75 2.51,0 4.92,0.26 7.12,0.75 3.77,0.84 6.97,2.38 9.24,4.51 2.3,2.17 3.64,4.94 3.64,8.23 0,0.92 -0.11,1.89 -0.34,2.91 -0.1,0.44 -0.31,0.85 -0.61,1.18 -0.29,0.32 -0.68,0.58 -1.11,0.73 -1.14,0.4 -3.18,1.01 -6.15,1.51 -1.18,0.2 -2.51,0.38 -4,0.53zm-7.79 -19.25c-2.45,0 -4.78,0.25 -6.91,0.72 -3.57,0.8 -6.59,2.25 -8.71,4.24 -2.07,1.96 -3.28,4.46 -3.28,7.42 0,0.86 0.1,1.76 0.3,2.68 0.06,0.26 0.19,0.49 0.36,0.68 0.17,0.2 0.4,0.35 0.66,0.44 1.32,0.46 3.9,1.21 7.84,1.74 2.62,0.35 5.85,0.6 9.74,0.6 4.85,0 8.7,-0.4 11.61,-0.89 2.91,-0.49 4.87,-1.07 5.97,-1.45 0.26,-0.09 0.48,-0.24 0.66,-0.44 0.17,-0.19 0.3,-0.43 0.36,-0.68 0.2,-0.92 0.3,-1.82 0.3,-2.67 0,-2.97 -1.21,-5.47 -3.29,-7.43 -2.13,-2 -5.15,-3.44 -8.72,-4.24 -2.12,-0.47 -4.44,-0.72 -6.89,-0.72z"/>
  <path class="fil1" d="M17.72 11.28c2.89,-3.35 6.37,-6.18 10.22,-8.35 -1.1,-0.12 -2.24,-0.18 -3.41,-0.18 -6.89,0 -12.65,2.07 -15.43,5.53 -1.67,2.08 -2.2,4.59 -1.57,7.45 1.09,0.38 3.27,1.02 6.61,1.53 0.09,-0.3 0.19,-0.61 0.3,-0.9 0.74,-1.89 1.96,-3.55 3.28,-5.08z"/>
 </g>
</svg>
