<?xml version="1.0" encoding="UTF-8"?>
<!DOCTYPE svg PUBLIC "-//W3C//DTD SVG 1.1//EN" "http://www.w3.org/Graphics/SVG/1.1/DTD/svg11.dtd">
<!-- Creator: CorelDRAW 2019 (64-Bit) -->
<svg xmlns="http://www.w3.org/2000/svg" xml:space="preserve" width="48px" height="48px" version="1.1" style="shape-rendering:geometricPrecision; text-rendering:geometricPrecision; image-rendering:optimizeQuality; fill-rule:evenodd; clip-rule:evenodd"
viewBox="0 0 48 48"
 xmlns:xlink="http://www.w3.org/1999/xlink">
 <defs>
  <style type="text/css">
   <![CDATA[
    .fil0 {fill:gray;fill-rule:nonzero}
    .fil1 {fill:#C9DADD;fill-rule:nonzero}
    .fil2 {fill:#FBE0DC;fill-rule:nonzero}
   ]]>
  </style>
 </defs>
 <g id="Слой_x0020_1">
  <metadata id="CorelCorpID_0Corel-Layer"/>
  <path class="fil0" d="M15.95 30.32l0 0 0.01 0.01 0.01 0.01 0 0 0.01 0.01c0.1,0.12 0.22,0.22 0.33,0.32 0.44,0.38 0.95,0.63 1.49,0.71 0.75,0.12 1.59,-0.12 2.38,-0.84 0.23,-0.2 0.57,-0.18 0.78,0.04l0.03 0.03c0.19,0.25 0.41,0.47 0.64,0.65 0.68,0.53 1.51,0.8 2.33,0.8 0.83,0 1.66,-0.27 2.34,-0.8l0.03 -0.03c0.22,-0.17 0.43,-0.38 0.61,-0.62 0.19,-0.24 0.53,-0.28 0.77,-0.09l0.03 0.02c0.79,0.72 1.63,0.96 2.39,0.84 0.54,-0.08 1.05,-0.34 1.49,-0.72 0.11,-0.08 0.21,-0.18 0.3,-0.28 0.03,-0.04 0.06,-0.07 0.09,-0.1 0.28,-0.32 0.52,-0.7 0.7,-1.11 0.49,-1.12 0.55,-2.51 -0.13,-3.82l-1.53 -2.9 -0.44 0.01 -13.27 0 -0.47 -0.01 -1.52 2.9c-0.67,1.3 -0.62,2.7 -0.13,3.83 0.19,0.42 0.44,0.81 0.73,1.14zm-0.07 1.4l-1 4.18c-0.52,2.14 -0.66,3.88 -0.52,5.29 0.13,1.38 0.52,2.45 1.07,3.26 0.28,0.4 0.64,0.76 1.04,1.05 0.41,0.3 0.88,0.54 1.37,0.69l0.02 0.01c2.76,0.84 6.1,0.69 6.11,0.69 0.01,0 3.35,0.15 6.12,-0.7 0.49,-0.15 0.96,-0.38 1.37,-0.68l0.02 -0.02c0.39,-0.29 0.74,-0.64 1.01,-1.04l0.02 -0.02c0.54,-0.81 0.93,-1.87 1.06,-3.24 0.14,-1.42 0,-3.17 -0.52,-5.32l-1 -4.15c-0.53,0.38 -1.12,0.64 -1.75,0.74 -0.93,0.14 -1.93,-0.07 -2.86,-0.76l-0.46 0.42c-0.89,0.69 -1.95,1.04 -3.02,1.04 -1.06,0 -2.13,-0.35 -3.01,-1.04 -0.16,-0.13 -0.31,-0.27 -0.46,-0.42 -0.94,0.7 -1.93,0.91 -2.86,0.77 -0.63,-0.1 -1.22,-0.36 -1.75,-0.75zm17.09 -0.88l1.15 4.77c0.55,2.28 0.69,4.16 0.54,5.69 -0.15,1.56 -0.61,2.79 -1.25,3.74l-0.01 0.02c-0.35,0.51 -0.78,0.95 -1.27,1.31l-0.03 0.02c-0.5,0.37 -1.07,0.66 -1.69,0.85 -2.98,0.91 -6.43,0.75 -6.44,0.75 -0.01,0 -3.45,0.16 -6.43,-0.75l-0.03 0c-0.6,-0.19 -1.18,-0.48 -1.69,-0.85 -0.5,-0.36 -0.94,-0.81 -1.29,-1.33 -0.65,-0.95 -1.11,-2.18 -1.26,-3.76 -0.15,-1.53 0,-3.39 0.55,-5.66l1.14 -4.8c-0.29,-0.36 -0.54,-0.78 -0.74,-1.23 -0.61,-1.4 -0.68,-3.14 0.16,-4.76l1.27 -2.42c-2.96,-0.1 -5.24,-0.46 -6.98,-0.94 -3.14,-0.86 -4.59,-2.12 -5.21,-2.92 -0.36,-0.46 -0.53,-1.1 -0.53,-1.86 0,-1.47 0.66,-3.53 1.94,-5.68 1.25,-2.12 3.11,-4.36 5.52,-6.26 3.45,-2.73 8.03,-4.77 13.58,-4.77l0.56 0.01c6.73,0.16 11.86,3.24 15.31,6.82 3.46,3.61 5.23,7.77 5.23,10.03l-0.01 0.21c-0.06,0.44 -0.72,4.97 -12.78,5.36l1.27 2.42c0.85,1.62 0.78,3.36 0.17,4.76 -0.2,0.45 -0.46,0.87 -0.75,1.23zm-9 -29.74c-5.28,0 -9.63,1.93 -12.91,4.52 -2.28,1.81 -4.05,3.95 -5.25,5.97 -1.17,1.98 -1.79,3.83 -1.79,5.12 0,0.52 0.1,0.93 0.3,1.18 0.54,0.69 1.79,1.77 4.64,2.55 1.96,0.53 4.67,0.92 8.38,0.92l13.27 0c12.72,0 13.31,-4.07 13.36,-4.45l0.01 -0.05c-0.01,-2.04 -1.68,-5.88 -4.93,-9.27 -3.28,-3.41 -8.16,-6.33 -14.55,-6.49l-0.53 0z"/>
  <path class="fil1" d="M37.74 8.61c-2.61,-2.67 -7.13,-5.87 -13.77,-5.87 -3.32,0 -6.13,0.81 -8.41,1.96 7.13,0.88 14.71,4.32 14.4,15.01l0.65 0c9.97,0 11.54,-2.6 11.71,-2.98 -0.08,-1.53 -1.52,-4.99 -4.58,-8.12z"/>
  <path class="fil2" d="M16.96 34.24l-0.47 2.02c-0.8,3.28 -0.7,5.79 0.3,7.26 0.36,0.51 0.9,0.9 1.53,1.1 1.88,0.57 4.11,0.64 4.99,0.64l0 0c0.32,0 0.53,-0.01 0.54,-0.01l0.12 -0.01 0.1 0.01c0.02,0 0.22,0.01 0.55,0.01 0.88,0 3.11,-0.07 4.99,-0.64 0.51,-0.17 0.96,-0.46 1.3,-0.84 -7.06,-2.38 -11.34,-6 -13.95,-9.54z"/>
 </g>
</svg>
