<?xml version="1.0" encoding="UTF-8"?>
<!DOCTYPE svg PUBLIC "-//W3C//DTD SVG 1.1//EN" "http://www.w3.org/Graphics/SVG/1.1/DTD/svg11.dtd">
<!-- Creator: CorelDRAW 2019 (64-Bit) -->
<svg xmlns="http://www.w3.org/2000/svg" xml:space="preserve" width="48px" height="48px" version="1.1" style="shape-rendering:geometricPrecision; text-rendering:geometricPrecision; image-rendering:optimizeQuality; fill-rule:evenodd; clip-rule:evenodd"
viewBox="0 0 48 48"
 xmlns:xlink="http://www.w3.org/1999/xlink">
 <defs>
  <style type="text/css">
   <![CDATA[
    .fil0 {fill:gray;fill-rule:nonzero}
    .fil1 {fill:#FBE0DC;fill-rule:nonzero}
   ]]>
  </style>
 </defs>
 <g id="Слой_x0020_1">
  <metadata id="CorelCorpID_0Corel-Layer"/>
  <path class="fil0" d="M12.5 41.29c-0.28,0.03 -0.53,-0.18 -0.55,-0.46 -0.03,-0.28 0.18,-0.53 0.46,-0.55 0.01,0 4.35,-0.33 8.44,-1.71l0.02 0 0.02 -0.01 0 0 0.02 -0.01 0.01 0 0 0 0.01 0 0.01 -0.01 0.02 0 0.02 -0.01 0.04 -0.01 0.01 0 0.02 -0.01c0.53,-0.2 2.42,-1.1 2.55,-4.15l0 -0.45c-2.61,-0.05 -5.02,-0.7 -6.88,-2.05l-0.28 -0.21c-0.86,1 -3.31,3.17 -8.26,2.62 -0.28,-0.03 -0.48,-0.28 -0.45,-0.56 0.01,-0.13 0.07,-0.23 0.15,-0.31l0.27 -0.29c-1.04,-0.01 -2.56,-0.17 -4.15,-0.86 -0.25,-0.11 -0.37,-0.41 -0.26,-0.66 0.05,-0.13 0.15,-0.22 0.27,-0.27l2.85 -1.47c-0.61,-0.21 -1.39,-0.55 -2.21,-1.08 -1.23,-0.79 -2.56,-2.03 -3.6,-3.93 -0.13,-0.24 -0.04,-0.55 0.21,-0.69l1.1 -0.34c-1.65,-1.91 -2.34,-4.24 -2.34,-4.24 -0.08,-0.27 0.08,-0.56 0.35,-0.63l0.12 -0.02c0.28,-0.02 2.4,-0.14 5.32,1.03 -0.23,-0.33 -0.45,-0.69 -0.67,-1.09l-0.01 -0.02c-0.58,-1.12 -1.03,-2.55 -1.09,-4.31 -0.01,-0.28 0.21,-0.51 0.49,-0.52 0.12,-0.01 0.23,0.03 0.32,0.1l1.14 0.79 -0.24 -0.74c-0.35,-1.22 -0.55,-2.73 -0.1,-4.16 0.08,-0.26 0.37,-0.41 0.64,-0.33l0.05 0.02c0.31,0.1 2.14,0.77 4.31,2.67l-0.32 -1.66c-0.05,-0.28 0.13,-0.54 0.41,-0.59 0.07,-0.02 0.15,-0.02 0.21,0 0.01,0 1.79,0.53 3.15,2.21 0.17,0.22 0.14,0.54 -0.08,0.71 -0.22,0.18 -0.54,0.14 -0.72,-0.08 -0.59,-0.74 -1.28,-1.21 -1.79,-1.49l0.41 2.13c0.01,0.07 0.01,0.16 -0.01,0.23 -0.02,0.1 -0.07,0.19 -0.14,0.26l-0.01 0.02c-0.08,0.06 -0.17,0.12 -0.27,0.14l-0.18 0.01c-0.12,-0.02 -0.24,-0.08 -0.33,-0.16 -1.9,-1.97 -3.65,-2.89 -4.49,-3.25 -0.19,1.05 -0.02,2.13 0.24,3.04 0.3,1.06 0.74,1.88 0.89,2.15 0.04,0.06 0.07,0.15 0.07,0.24l0.01 0.02c0,0.11 -0.03,0.22 -0.1,0.32 -0.05,0.07 -0.1,0.12 -0.17,0.16 -0.11,0.06 -0.25,0.09 -0.38,0.05l-0.18 -0.08 -1.72 -1.19c0.15,1.11 0.48,2.05 0.89,2.82l0.01 0.02c0.84,1.61 2.01,2.52 2.56,2.89l0.02 0.02c0.16,0.12 0.22,0.28 0.22,0.45 0,0.06 -0.01,0.13 -0.04,0.19l0 0.02c-0.03,0.06 -0.08,0.13 -0.14,0.18l-0.05 0.04c-0.18,0.13 -0.41,0.15 -0.6,0.01 -3.08,-1.89 -5.64,-2.22 -6.8,-2.27 0.35,0.89 1.12,2.53 2.43,3.77 0.07,0.06 0.12,0.14 0.14,0.23 0.08,0.27 -0.07,0.55 -0.34,0.63l-1.19 0.35c0.89,1.42 1.96,2.38 2.94,3.02 1.11,0.71 2.12,1.03 2.68,1.17 0.19,0.05 0.33,0.16 0.42,0.3l0.03 0.04c0.03,0.07 0.06,0.14 0.07,0.21l0.01 0.03c0.01,0.09 0,0.18 -0.02,0.27 -0.04,0.18 -0.15,0.34 -0.34,0.44l-2.57 1.32c2.11,0.61 3.84,0.33 3.85,0.33 0.15,-0.02 0.31,0.03 0.43,0.14 0.2,0.19 0.21,0.52 0.01,0.72l-0.42 0.44c3.89,0.13 5.73,-1.62 6.33,-2.35 -1.23,-1.22 -2.11,-2.84 -2.5,-4.9 -0.82,-4.28 -1.93,-7.22 -2.05,-7.53 -0.05,-0.11 -0.06,-0.24 -0.02,-0.36 0.08,-0.27 0.37,-0.42 0.63,-0.34 0.53,0.17 1.05,0.45 1.54,0.79l0.04 -0.23 0 -0.02c0.07,-0.39 0.16,-0.79 0.27,-1.16 0.37,-1.32 0.98,-2.55 1.78,-3.63 0.82,-1.11 1.83,-2.08 2.98,-2.86 2.73,-1.85 5.26,-3.91 5.26,-3.92 0.19,-0.15 0.46,-0.15 0.65,0 0.01,0.01 2.51,2.05 5.22,3.9l0.04 0.02c1.15,0.78 2.16,1.75 2.98,2.86 0.8,1.08 1.41,2.31 1.78,3.63 0.11,0.36 0.2,0.75 0.26,1.13l0.01 0.03 0.04 0.25c0.49,-0.34 1.01,-0.62 1.54,-0.79 0.1,-0.02 0.21,-0.02 0.32,0.02 0.27,0.09 0.4,0.39 0.3,0.65 0,0.01 -1.19,3.03 -2.06,7.56 -0.38,2.03 -1.24,3.62 -2.43,4.83 0.53,0.68 2.37,2.55 6.39,2.42l-0.42 -0.44c-0.2,-0.2 -0.19,-0.53 0.01,-0.72 0.12,-0.11 0.28,-0.16 0.43,-0.13 0.01,-0.01 1.74,0.28 3.85,-0.34l-2.57 -1.32c-0.19,-0.1 -0.3,-0.26 -0.35,-0.44 -0.02,-0.08 -0.02,-0.17 -0.01,-0.24l0 -0.03c0.01,-0.08 0.04,-0.17 0.08,-0.24l0.01 -0.01c0.09,-0.16 0.24,-0.28 0.44,-0.33 0.56,-0.14 1.57,-0.46 2.68,-1.17 0.98,-0.64 2.05,-1.6 2.93,-3.02l-1.18 -0.35c-0.27,-0.08 -0.42,-0.36 -0.34,-0.63 0.03,-0.1 0.08,-0.18 0.15,-0.24 1.3,-1.24 2.07,-2.87 2.42,-3.76 -1.16,0.05 -3.72,0.38 -6.81,2.28l-0.04 0.03c-0.19,0.09 -0.39,0.07 -0.55,-0.05l-0.06 -0.04c-0.05,-0.05 -0.1,-0.12 -0.13,-0.18l-0.04 -0.19c-0.01,-0.16 0.04,-0.34 0.22,-0.47l0.02 -0.02c0.55,-0.37 1.72,-1.28 2.56,-2.89 0.41,-0.78 0.74,-1.72 0.9,-2.84l-1.72 1.19c-0.05,0.04 -0.11,0.07 -0.18,0.08l-0.01 0c-0.11,0.03 -0.21,0.02 -0.31,-0.02 -0.1,-0.04 -0.19,-0.11 -0.24,-0.21 -0.07,-0.1 -0.09,-0.2 -0.09,-0.31l0 -0.02c0.01,-0.08 0.04,-0.17 0.08,-0.24 0.16,-0.27 0.59,-1.08 0.89,-2.14 0.26,-0.91 0.43,-1.99 0.24,-3.04 -0.84,0.36 -2.59,1.28 -4.49,3.24 -0.09,0.09 -0.2,0.15 -0.33,0.17l-0.18 -0.01c-0.1,-0.02 -0.19,-0.07 -0.25,-0.13l-0.12 -0.14c-0.05,-0.09 -0.09,-0.22 -0.06,-0.37l0.41 -2.14c-0.52,0.28 -1.19,0.76 -1.79,1.5 -0.18,0.22 -0.5,0.25 -0.72,0.07 -0.22,-0.17 -0.25,-0.5 -0.08,-0.72 1.36,-1.67 3.14,-2.2 3.14,-2.2 0.07,-0.02 0.15,-0.02 0.22,0 0.28,0.05 0.46,0.31 0.41,0.59l-0.32 1.66c2.17,-1.9 4,-2.57 4.31,-2.67l0.05 -0.02c0.27,-0.08 0.56,0.07 0.64,0.33 0.45,1.43 0.25,2.95 -0.1,4.16l-0.24 0.74 1.14 -0.79c0.09,-0.07 0.2,-0.11 0.32,-0.1 0.28,0.01 0.5,0.24 0.49,0.52 -0.06,1.77 -0.51,3.2 -1.11,4.33 -0.21,0.4 -0.43,0.76 -0.67,1.09 2.93,-1.17 5.05,-1.05 5.33,-1.03l0.12 0.02c0.27,0.07 0.43,0.36 0.35,0.63 0,0 -0.68,2.33 -2.34,4.24l1.01 0.3 0.09 0.04c0.25,0.14 0.34,0.45 0.21,0.69 -1.04,1.9 -2.37,3.14 -3.6,3.93 -0.82,0.53 -1.6,0.87 -2.21,1.08l2.85 1.47c0.12,0.05 0.22,0.14 0.27,0.27 0.11,0.25 -0.01,0.55 -0.27,0.66 -1.58,0.69 -3.1,0.85 -4.14,0.86l0.27 0.29c0.08,0.08 0.14,0.18 0.15,0.31 0.03,0.28 -0.17,0.53 -0.45,0.56 -5.06,0.56 -7.51,-1.71 -8.31,-2.68 -0.12,0.09 -0.24,0.18 -0.36,0.27 -1.78,1.29 -4.06,1.94 -6.54,2.04l0.01 0.49c-0.07,1.61 -0.57,2.74 -1.16,3.51 5.49,-0.98 10.29,0.65 10.3,0.65 0.27,0.09 0.42,0.38 0.34,0.64 -0.08,0.27 -0.37,0.42 -0.64,0.34 -0.02,-0.01 -5.99,-2.04 -12.08,-0.06l-0.16 0.05 0 0.01 -0.02 0 0 0 -0.01 0 -0.01 0.01 -0.01 0c-4.21,1.41 -8.66,1.75 -8.67,1.75zm1.72 -21.92c0.54,0.48 1.01,0.97 1.37,1.38 0.47,-1.85 1.38,-3.27 1.6,-3.61l0.01 -0.01c0.14,-0.24 0.46,-0.32 0.7,-0.18 1.6,0.94 2.63,2.35 3.2,3.32 0.88,-1.94 2.44,-3.79 2.45,-3.8l0.06 -0.06c0.22,-0.18 0.54,-0.15 0.72,0.06 0,0.01 1.57,1.86 2.44,3.8 0.57,-0.97 1.61,-2.38 3.2,-3.32 0.22,-0.12 0.5,-0.08 0.66,0.12 0,0.01 1.12,1.57 1.66,3.68 0.35,-0.41 0.82,-0.9 1.36,-1.38 -0.03,-0.27 -0.06,-0.54 -0.11,-0.81l0 -0.02c-0.06,-0.36 -0.14,-0.71 -0.24,-1.04 -0.34,-1.2 -0.89,-2.31 -1.62,-3.3 -0.74,-1.01 -1.67,-1.9 -2.73,-2.61l-0.04 -0.03c-2.16,-1.47 -4.2,-3.07 -4.97,-3.69 -0.78,0.62 -2.84,2.24 -5.02,3.71 -1.06,0.72 -1.98,1.61 -2.73,2.62 -0.72,0.99 -1.28,2.1 -1.62,3.3 -0.1,0.33 -0.18,0.69 -0.24,1.06l0 0.02c-0.05,0.26 -0.08,0.52 -0.11,0.79zm20.34 0.56c-0.04,0.03 -0.08,0.07 -0.12,0.09 -1.16,0.99 -2.03,2.18 -2.03,2.18 -0.16,0.23 -0.48,0.29 -0.71,0.12 -0.12,-0.08 -0.19,-0.21 -0.21,-0.34 -0.23,-1.75 -1.01,-3.22 -1.41,-3.89 -2.03,1.41 -2.91,3.64 -2.91,3.64 -0.11,0.26 -0.41,0.38 -0.67,0.27 -0.14,-0.06 -0.25,-0.19 -0.29,-0.33 -0.41,-1.51 -1.64,-3.23 -2.27,-4.06 -0.64,0.83 -1.87,2.55 -2.28,4.06 -0.08,0.27 -0.36,0.43 -0.63,0.35 -0.15,-0.04 -0.27,-0.15 -0.33,-0.29 0,0 -0.88,-2.23 -2.91,-3.64 -0.4,0.67 -1.18,2.14 -1.41,3.89 -0.04,0.27 -0.3,0.47 -0.57,0.43 -0.15,-0.02 -0.27,-0.1 -0.35,-0.21 0,0 -0.86,-1.18 -2.02,-2.17 -0.05,-0.03 -0.09,-0.07 -0.13,-0.11 -0.26,-0.22 -0.54,-0.42 -0.83,-0.6 0.44,1.3 1.14,3.63 1.7,6.57 0.38,1.99 1.26,3.52 2.49,4.62l0 0 0.01 0.01 0 0.01 0.01 0 0.01 0.01 0.01 0.01 0 0.01 0.01 0c0.19,0.17 0.39,0.33 0.59,0.48 1.76,1.27 4.09,1.85 6.63,1.85 2.53,0 4.86,-0.58 6.62,-1.85 1.56,-1.13 2.69,-2.82 3.13,-5.15 0.56,-2.94 1.27,-5.27 1.7,-6.57 -0.29,0.18 -0.57,0.38 -0.83,0.61z"/>
  <path class="fil1" d="M23.94 31.36c-2.68,0 -7.3,-0.75 -8.26,-5.75 -0.04,-0.23 -0.08,-0.46 -0.13,-0.68l0 0c0.61,0.83 1.91,0.5 2.05,-0.52l0.3 -2.23c0.07,-0.54 0.21,-1.06 0.38,-1.53 0.67,0.85 0.99,1.63 0.99,1.64l1.39 3.41c0.29,0.7 1.29,0.64 1.5,-0.08l0.98 -3.54c0.15,-0.54 0.45,-1.16 0.8,-1.75 0.34,0.59 0.64,1.2 0.79,1.75l1 3.62c0.2,0.73 1.22,0.78 1.5,0.07l1.37 -3.49c0.01,-0.01 0.33,-0.79 0.99,-1.63 0.17,0.47 0.31,0.99 0.38,1.53l0.3 2.23c0.14,1.02 1.45,1.35 2.05,0.52l0 0c-0.04,0.22 -0.09,0.45 -0.13,0.68 -0.96,5 -5.58,5.75 -8.25,5.75z"/>
 </g>
</svg>
