<?xml version="1.0" encoding="UTF-8"?>
<!DOCTYPE svg PUBLIC "-//W3C//DTD SVG 1.1//EN" "http://www.w3.org/Graphics/SVG/1.1/DTD/svg11.dtd">
<!-- Creator: CorelDRAW 2019 (64-Bit) -->
<svg xmlns="http://www.w3.org/2000/svg" xml:space="preserve" width="48px" height="48px" version="1.1" style="shape-rendering:geometricPrecision; text-rendering:geometricPrecision; image-rendering:optimizeQuality; fill-rule:evenodd; clip-rule:evenodd"
viewBox="0 0 48 48"
 xmlns:xlink="http://www.w3.org/1999/xlink">
 <defs>
  <style type="text/css">
   <![CDATA[
    .fil0 {fill:gray;fill-rule:nonzero}
    .fil2 {fill:#C9DADD;fill-rule:nonzero}
    .fil1 {fill:#FBE0DC;fill-rule:nonzero}
   ]]>
  </style>
 </defs>
 <g id="Слой_x0020_1">
  <metadata id="CorelCorpID_0Corel-Layer"/>
  <path class="fil0" d="M26.15 3.97c0.3,0 0.54,0.25 0.54,0.54 0,0.3 -0.24,0.54 -0.54,0.54l-18.35 0c-0.3,0 -0.54,-0.24 -0.54,-0.54 0,-0.29 0.24,-0.54 0.54,-0.54l18.35 0zm-10.13 14.31l1.2 0 0.05 0 -0.1 -0.27 -0.57 -1.47 -0.3 0.91 -0.05 0.12 -0.23 0.71zm1.66 1.06l-2.01 0 -0.28 0.86c-0.09,0.28 -0.4,0.43 -0.68,0.34 -0.28,-0.09 -0.44,-0.4 -0.35,-0.68l1.69 -5.09c0.09,-0.28 0.39,-0.43 0.68,-0.34 0.16,0.06 0.29,0.19 0.34,0.34l1.96 5.07c0.1,0.27 -0.03,0.58 -0.31,0.69 -0.28,0.11 -0.59,-0.03 -0.7,-0.31l-0.34 -0.88zm-2.34 22.4l2.83 0 16.79 0c0.5,0 0.96,-0.21 1.29,-0.53 0.33,-0.33 0.53,-0.79 0.53,-1.29l0 -7.65 0 -2.83c0,-0.5 -0.2,-0.96 -0.53,-1.28 -0.33,-0.33 -0.79,-0.54 -1.29,-0.54l-6.51 0 -13.11 0c-0.5,0 -0.96,0.21 -1.29,0.54 -0.33,0.32 -0.53,0.78 -0.53,1.28l0 2.6 0 6.3 0 1.58c0,0.5 0.2,0.96 0.53,1.28 0.33,0.33 0.78,0.54 1.29,0.54zm-2.9 -3.94l0 -5.22 -4.64 0c-0.3,0 -0.54,-0.24 -0.54,-0.54 0,-0.3 0.24,-0.54 0.54,-0.54l4.64 0 0 -2.06c0,-0.79 0.33,-1.52 0.85,-2.05 0.52,-0.52 1.25,-0.84 2.05,-0.84l12.58 0 0 -23.14c0,-0.64 -0.27,-1.23 -0.69,-1.65 -0.42,-0.42 -1,-0.68 -1.65,-0.68l-17.21 0c-0.65,0 -1.23,0.26 -1.65,0.68 -0.42,0.42 -0.69,1.01 -0.69,1.65l0 32.06c0,0.64 0.26,1.23 0.68,1.65 0.43,0.42 1.01,0.68 1.66,0.68l4.07 0zm6.27 5.01l0 3.01c0,0.3 0.11,0.56 0.29,0.76l0.03 0.02c0.19,0.2 0.47,0.32 0.77,0.32l21.07 0c0.3,0 0.58,-0.12 0.78,-0.32 0.19,-0.2 0.32,-0.47 0.32,-0.78l0 -11.92c0,-0.29 -0.12,-0.55 -0.3,-0.75l-0.02 -0.02c-0.2,-0.2 -0.48,-0.32 -0.78,-0.32l-3.01 0 0 7.11c0,0.79 -0.33,1.52 -0.85,2.04 -0.53,0.53 -1.25,0.85 -2.05,0.85l-16.25 0zm19.15 -11.08l3.01 0c0.6,0 1.15,0.24 1.54,0.64l0.03 0.03c0.37,0.39 0.61,0.92 0.61,1.5l0 11.92c0,0.6 -0.25,1.15 -0.64,1.54 -0.39,0.4 -0.94,0.64 -1.54,0.64l-21.07 0c-0.6,0 -1.14,-0.24 -1.53,-0.64l-0.04 -0.03c-0.37,-0.39 -0.6,-0.93 -0.6,-1.51l0 -3.01 -2.29 0c-0.8,0 -1.52,-0.32 -2.05,-0.85 -0.52,-0.52 -0.85,-1.25 -0.85,-2.04l0 -1.04 -4.07 0c-0.94,0 -1.79,-0.38 -2.41,-1 -0.62,-0.62 -1.01,-1.48 -1.01,-2.41l0 -32.06c0,-0.94 0.39,-1.79 1,-2.41 0.62,-0.62 1.48,-1 2.42,-1l17.21 0c0.94,0 1.79,0.38 2.41,1 0.62,0.61 1,1.47 1,2.41l0 23.14 5.97 0c0.8,0 1.53,0.32 2.05,0.84 0.52,0.53 0.85,1.26 0.85,2.05l0 2.29zm-27.52 -14.47l1.3 0c0.24,0 0.46,-0.1 0.62,-0.26 0.16,-0.16 0.26,-0.39 0.26,-0.63 0,-0.25 -0.1,-0.47 -0.25,-0.63 -0.16,-0.16 -0.39,-0.26 -0.63,-0.26l-1.3 0 0 1.78zm-0.54 -2.86l0 0 1.84 0c0.54,0 1.03,0.22 1.38,0.58 0.36,0.36 0.58,0.85 0.58,1.39 0,0.54 -0.22,1.03 -0.57,1.39 -0.36,0.35 -0.85,0.58 -1.39,0.58l-1.3 0 0 1.69c0,0.3 -0.24,0.54 -0.54,0.54 -0.29,0 -0.53,-0.24 -0.53,-0.54l0 -2.23 0 -2.86 0 0 0 -0.02 0 -0.01 0 -0.02 0 0 0 -0.03 0 0 0.01 -0.03 0 0 0 -0.02 0 0 0.01 -0.03 0 0 0.01 -0.02 0 0 0.01 -0.03 0 0 0.01 -0.02 0 0 0.01 -0.02 0 0 0.01 -0.03 0 0 0.02 -0.02 0 0 0.01 -0.02 0 0 0.02 -0.02 0 0 0.02 -0.02 0 0 0.01 -0.02 0 0 0.02 -0.01 0 -0.01 0.02 -0.01 0 0 0.02 -0.02 0 0 0.02 -0.01 0 0 0.03 -0.02 0 0 0.02 -0.01 0 0 0.02 -0.01 0 0 0.03 -0.01 0 0 0.02 -0.01 0 0 0.02 -0.01 0 0 0.03 -0.01 0 0 0.03 0 0 -0.01 0.02 0 0 0 0.03 0 0 0 0.03 0 0 -0.01 0.02 0zm9.83 0.92c-0.21,-0.21 -0.21,-0.55 0,-0.76 0.21,-0.21 0.55,-0.21 0.76,0l1.75 1.75 1.62 -1.62c0.21,-0.21 0.55,-0.21 0.76,0 0.21,0.21 0.21,0.55 0,0.76l-1.85 1.86 0 2.72c0,0.3 -0.24,0.54 -0.54,0.54 -0.29,0 -0.53,-0.24 -0.53,-0.54l0 -2.74 -1.97 -1.97zm-3.24 23.58l2.75 0c0.34,0 0.63,0.29 0.63,0.63l0 0c0,0.34 -0.29,0.62 -0.63,0.62l-2.75 0c-0.34,0 -0.63,-0.28 -0.63,-0.62l0 0c0,-0.34 0.29,-0.63 0.63,-0.63zm5 0l2.75 0c0.34,0 0.63,0.29 0.63,0.63l0 0c0,0.34 -0.29,0.62 -0.63,0.62l-2.75 0c-0.35,0 -0.63,-0.28 -0.63,-0.62l0 0c0,-0.34 0.28,-0.63 0.63,-0.63zm5 0l2.75 0c0.35,0 0.63,0.29 0.63,0.63l0 0c0,0.34 -0.28,0.62 -0.63,0.62l-2.75 0c-0.34,0 -0.63,-0.28 -0.63,-0.62l0 0c0,-0.34 0.29,-0.63 0.63,-0.63zm5 0l2.75 0c0.34,0 0.63,0.29 0.63,0.63l0 0c0,0.34 -0.29,0.62 -0.63,0.62l-2.75 0c-0.34,0 -0.63,-0.28 -0.63,-0.62l0 0c0,-0.34 0.29,-0.63 0.63,-0.63zm-10 5.39l2.75 0c0.34,0 0.63,0.29 0.63,0.63l0 0c0,0.34 -0.29,0.62 -0.63,0.62l-2.75 0c-0.35,0 -0.63,-0.28 -0.63,-0.62l0 0c0,-0.34 0.28,-0.63 0.63,-0.63zm5 0l2.75 0c0.34,0 0.62,0.29 0.62,0.63l0 0c0,0.34 -0.28,0.62 -0.62,0.62l-2.75 0c-0.35,0 -0.63,-0.28 -0.63,-0.62l0 0c0,-0.34 0.28,-0.63 0.63,-0.63zm5 0l2.75 0c0.34,0 0.63,0.29 0.63,0.63l0 0c0,0.34 -0.29,0.62 -0.63,0.62l-2.75 0c-0.34,0 -0.63,-0.28 -0.63,-0.62l0 0c0,-0.34 0.29,-0.63 0.63,-0.63zm5 0l2.75 0c0.34,0 0.63,0.29 0.63,0.63l0 0c0,0.34 -0.29,0.62 -0.63,0.62l-2.75 0c-0.35,0 -0.63,-0.28 -0.63,-0.62l0 0c0,-0.34 0.28,-0.63 0.63,-0.63zm-21.69 -41.2c-0.3,0 -0.54,-0.24 -0.54,-0.54 0,-0.3 0.24,-0.54 0.54,-0.54l4.55 0c0.3,0 0.54,0.24 0.54,0.54 0,0.3 -0.24,0.54 -0.54,0.54l-4.55 0z"/>
  <path class="fil1" d="M18.95 30.59c0,0.85 -0.69,1.54 -1.54,1.54 -0.85,0 -1.54,-0.69 -1.54,-1.54 0,-0.85 0.69,-1.53 1.54,-1.53 0.85,0 1.54,0.68 1.54,1.53z"/>
  <path class="fil2" d="M33.62 32.13l-2.4 0c-0.48,0 -0.87,-0.39 -0.87,-0.87l0 -1.33c0,-0.48 0.39,-0.87 0.87,-0.87l2.4 0c0.48,0 0.87,0.39 0.87,0.87l0 1.33c0,0.48 -0.39,0.87 -0.87,0.87zm-13.61 -3.07c-0.28,0 -0.55,0.08 -0.78,0.21 0.28,0.37 0.43,0.83 0.43,1.32 0,0.5 -0.15,0.95 -0.43,1.33 0.23,0.13 0.5,0.21 0.78,0.21 0.85,0 1.54,-0.69 1.54,-1.54 0,-0.85 -0.69,-1.53 -1.54,-1.53z"/>
 </g>
</svg>
