<?xml version="1.0" encoding="UTF-8"?>
<!DOCTYPE svg PUBLIC "-//W3C//DTD SVG 1.1//EN" "http://www.w3.org/Graphics/SVG/1.1/DTD/svg11.dtd">
<!-- Creator: CorelDRAW 2019 (64-Bit) -->
<svg xmlns="http://www.w3.org/2000/svg" xml:space="preserve" width="48px" height="48px" version="1.1" style="shape-rendering:geometricPrecision; text-rendering:geometricPrecision; image-rendering:optimizeQuality; fill-rule:evenodd; clip-rule:evenodd"
viewBox="0 0 48 48"
 xmlns:xlink="http://www.w3.org/1999/xlink">
 <defs>
  <style type="text/css">
   <![CDATA[
    .fil0 {fill:gray;fill-rule:nonzero}
    .fil1 {fill:#FBE0DC;fill-rule:nonzero}
   ]]>
  </style>
 </defs>
 <g id="Слой_x0020_1">
  <metadata id="CorelCorpID_0Corel-Layer"/>
  <path class="fil0" d="M5.23 21.1l0.08 0.23 0.26 0.49 2.77 4.73c0.04,0.06 13.54,23.13 37.86,19.56l0.01 0c0.09,-0.02 0.16,-0.06 0.21,-0.11l0.02 -0.03c0.04,-0.04 0.06,-0.1 0.07,-0.15 0.01,-0.07 0,-0.14 -0.03,-0.2 -0.02,-0.06 -0.08,-0.12 -0.16,-0.16 -2.5,-1.23 -6.1,-3.15 -10.07,-6.78 -3.96,-3.61 -8.26,-8.91 -12.17,-16.92l-0.02 -0.05c-0.64,-1.31 -1.32,-2.64 -2.04,-4.01 -0.72,-1.35 -1.45,-2.68 -2.2,-3.97l-0.41 -0.64 -0.16 -0.2c-1.18,-0.01 -5.24,0.33 -5.57,5.35 -0.02,0.41 -0.38,0.72 -0.79,0.7 -0.11,-0.01 -0.21,-0.04 -0.3,-0.09 -4.57,-2.17 -6.83,1.27 -7.36,2.25zm1.27 -11.85c0.04,0.41 -0.26,0.77 -0.67,0.81 -0.41,0.04 -0.77,-0.25 -0.82,-0.66 0,-0.01 -0.23,-3.48 -3.17,-4.34 -0.49,-0.15 -0.92,-0.44 -1.24,-0.82 -0.31,-0.37 -0.52,-0.84 -0.58,-1.34l-0.01 -0.11c-0.03,-0.4 0.03,-0.78 0.16,-1.12 0.17,-0.46 0.48,-0.85 0.86,-1.13 0.38,-0.28 0.84,-0.46 1.32,-0.51l0.02 0c0.38,-0.03 0.78,0.02 1.16,0.17 0.8,0.31 1.89,0.92 2.93,2.1 1.02,1.15 1.99,2.84 2.61,5.33 0.09,0.4 -0.15,0.8 -0.55,0.9 -0.4,0.1 -0.8,-0.15 -0.9,-0.54 -0.55,-2.23 -1.39,-3.72 -2.27,-4.7 -0.84,-0.96 -1.72,-1.45 -2.36,-1.7 -0.16,-0.07 -0.33,-0.09 -0.49,-0.08 -0.22,0.03 -0.42,0.1 -0.58,0.23 -0.16,0.12 -0.29,0.28 -0.37,0.46 -0.05,0.14 -0.07,0.3 -0.06,0.47l0.01 0.05c0.02,0.22 0.11,0.41 0.24,0.57 0.13,0.15 0.31,0.27 0.52,0.34 3.93,1.17 4.23,5.61 4.24,5.62zm13.71 2.47c0.15,0.17 0.28,0.33 0.4,0.49 0.14,0.19 0.27,0.39 0.38,0.58l0.11 0.19c0.79,1.35 1.53,2.69 2.24,4.03 0.68,1.29 1.37,2.64 2.05,4.04l0.03 0.06c3.81,7.81 8,12.97 11.83,16.47 3.82,3.49 7.31,5.35 9.72,6.54 0.43,0.22 0.73,0.55 0.89,0.92 0.13,0.32 0.17,0.67 0.12,1.01 -0.05,0.31 -0.18,0.61 -0.39,0.87l-0.04 0.06c-0.27,0.3 -0.64,0.53 -1.11,0.6l-0.03 0.01c-25.3,3.71 -39.31,-20.22 -39.35,-20.28l-2.77 -4.74c-0.13,-0.21 -0.24,-0.42 -0.33,-0.64l-0.24 -0.6c-0.29,-0.61 -3.33,-7.35 4.18,-11.74 7.6,-4.46 12.02,1.71 12.31,2.13zm-2.18 -0.23c-1.5,-1.41 -4.71,-3.36 -9.38,-0.62 -4.66,2.73 -4.54,6.48 -4.05,8.48 1.2,-1.57 3.68,-3.7 7.71,-2.22 0.69,-4.26 3.77,-5.37 5.72,-5.64z"/>
  <path class="fil1" d="M39.64 44.21c-5.03,-3.41 -11.8,-9.64 -17.57,-21.46 -0.85,-1.74 -2.48,-4.83 -2.48,-4.83 0.44,2.96 2.6,11.33 -0.78,17.36 0.31,0.27 0.62,0.53 0.94,0.79 6.17,5.09 12.85,7.81 19.89,8.14z"/>
 </g>
</svg>
