<?xml version="1.0" encoding="UTF-8"?>
<!DOCTYPE svg PUBLIC "-//W3C//DTD SVG 1.1//EN" "http://www.w3.org/Graphics/SVG/1.1/DTD/svg11.dtd">
<!-- Creator: CorelDRAW 2019 (64-Bit) -->
<svg xmlns="http://www.w3.org/2000/svg" xml:space="preserve" width="48px" height="48px" version="1.1" style="shape-rendering:geometricPrecision; text-rendering:geometricPrecision; image-rendering:optimizeQuality; fill-rule:evenodd; clip-rule:evenodd"
viewBox="0 0 48 48"
 xmlns:xlink="http://www.w3.org/1999/xlink">
 <defs>
  <style type="text/css">
   <![CDATA[
    .fil0 {fill:gray;fill-rule:nonzero}
    .fil1 {fill:#C9DADD;fill-rule:nonzero}
    .fil2 {fill:#FBE0DC;fill-rule:nonzero}
   ]]>
  </style>
 </defs>
 <g id="Слой_x0020_1">
  <metadata id="CorelCorpID_0Corel-Layer"/>
  <path class="fil0" d="M41.16 39.37l-6.83 -6.82c-0.35,-0.35 -0.82,-0.53 -1.28,-0.53 -0.46,0 -0.93,0.18 -1.28,0.53l-3.43 3.43c-0.53,0.53 -1.21,0.85 -1.92,0.93 -0.71,0.08 -1.44,-0.07 -2.07,-0.48 -2.61,-1.66 -5.01,-3.57 -7.16,-5.72 -2.13,-2.13 -4.03,-4.5 -5.64,-7.06 -0.4,-0.63 -0.55,-1.36 -0.47,-2.06 0.08,-0.71 0.4,-1.39 0.93,-1.92l3.44 -3.44c0.35,-0.35 0.53,-0.82 0.53,-1.28 0,-0.46 -0.18,-0.93 -0.53,-1.28l-6.85 -6.85c-0.35,-0.34 -0.8,-0.51 -1.26,-0.51 -0.46,0 -0.93,0.18 -1.29,0.53l-4.04 4.04c-0.36,0.37 -0.61,0.83 -0.72,1.32 -0.1,0.49 -0.07,1 0.11,1.48 2.8,7.64 7.21,14.47 12.83,20.09 5.62,5.62 12.45,10.04 20.09,12.84l0.02 0.01c0.48,0.17 0.99,0.19 1.47,0.09 0.48,-0.11 0.94,-0.36 1.31,-0.72l4.04 -4.04c0.35,-0.36 0.53,-0.83 0.53,-1.29 0,-0.47 -0.18,-0.93 -0.53,-1.29zm-5.96 -7.69l6.83 6.82c0.59,0.6 0.89,1.38 0.89,2.16 0,0.78 -0.3,1.56 -0.89,2.15l-4.04 4.05c-0.54,0.53 -1.21,0.89 -1.92,1.05 -0.7,0.15 -1.44,0.11 -2.14,-0.13l-0.04 -0.01c-7.8,-2.87 -14.79,-7.38 -20.53,-13.12 -5.74,-5.75 -10.26,-12.73 -13.12,-20.54 -0.26,-0.71 -0.3,-1.47 -0.15,-2.18 0.16,-0.71 0.52,-1.38 1.05,-1.91l4.04 -4.05c0.6,-0.59 1.38,-0.89 2.16,-0.89 0.77,0 1.53,0.29 2.12,0.86l6.86 6.85c0.6,0.6 0.89,1.38 0.89,2.16 0,0.78 -0.29,1.56 -0.89,2.15l-3.44 3.44c-0.32,0.33 -0.52,0.75 -0.57,1.19 -0.05,0.43 0.04,0.88 0.28,1.26 1.56,2.49 3.4,4.78 5.47,6.85 2.09,2.09 4.42,3.95 6.95,5.56 0.38,0.24 0.83,0.34 1.27,0.29 0.44,-0.05 0.86,-0.25 1.19,-0.58l3.43 -3.43c0.6,-0.6 1.38,-0.89 2.15,-0.89 0.78,0 1.56,0.29 2.15,0.89z"/>
  <path class="fil1" d="M43.01 4.99l4.99 0 0 -4.99 -4.99 0 0 4.99zm-18.36 18.36l5 0 0 -5 -5 0 0 5zm18.36 0l4.99 0 0 -5 -4.99 0 0 5zm-18.36 -18.36l5 0 0 -4.99 -5 0 0 4.99z"/>
  <path class="fil2" d="M33.83 4.99l5 0 0 -4.99 -5 0 0 4.99zm0 18.36l5 0 0 -5 -5 0 0 5zm0 -9.18l5 0 0 -5 -5 0 0 5zm-9.18 0l5 0 0 -5 -5 0 0 5zm18.36 0l4.99 0 0 -5 -4.99 0 0 5z"/>
 </g>
</svg>
