<?xml version="1.0" encoding="UTF-8"?>
<!DOCTYPE svg PUBLIC "-//W3C//DTD SVG 1.1//EN" "http://www.w3.org/Graphics/SVG/1.1/DTD/svg11.dtd">
<!-- Creator: CorelDRAW 2019 (64-Bit) -->
<svg xmlns="http://www.w3.org/2000/svg" xml:space="preserve" width="48px" height="48px" version="1.1" style="shape-rendering:geometricPrecision; text-rendering:geometricPrecision; image-rendering:optimizeQuality; fill-rule:evenodd; clip-rule:evenodd"
viewBox="0 0 48 48"
 xmlns:xlink="http://www.w3.org/1999/xlink">
 <defs>
  <style type="text/css">
   <![CDATA[
    .fil0 {fill:gray}
    .fil2 {fill:#C9DADD}
    .fil1 {fill:#FBE0DC}
   ]]>
  </style>
 </defs>
 <g id="Слой_x0020_1">
  <metadata id="CorelCorpID_0Corel-Layer"/>
  <g>
   <path class="fil0" d="M30.4 3l-12.28 0c-1.87,0 -3.55,1.16 -4.21,2.92l-1.16 3.08 -8.25 0c-2.48,0 -4.5,2.02 -4.5,4.5l0 27c0,2.48 2.02,4.5 4.5,4.5l39 0c2.48,0 4.5,-2.02 4.5,-4.5l0 -27c0,-2.48 -2.02,-4.5 -4.5,-4.5l-8.25 0 -1.34 -3.56c-0.54,-1.47 -1.94,-2.44 -3.51,-2.44zm0 3c0.31,0 0.59,0.2 0.71,0.49l2.07 5.51 10.32 0c0.83,0 1.5,0.67 1.5,1.5l0 27c0,0.83 -0.67,1.5 -1.5,1.5l-39 0c-0.83,0 -1.5,-0.67 -1.5,-1.5l0 -27c0,-0.83 0.67,-1.5 1.5,-1.5l10.33 0 1.89 -5.03c0.21,-0.58 0.77,-0.97 1.4,-0.97l12.28 0 0 0zm-9.4 21c0,-1.65 1.35,-3 3,-3 0.83,0 1.5,-0.67 1.5,-1.5 0,-0.83 -0.67,-1.5 -1.5,-1.5 -3.31,0 -6,2.69 -6,6 0,0.83 0.67,1.5 1.5,1.5 0.83,0 1.5,-0.67 1.5,-1.5zm3 -8.25c-4.55,0 -8.25,3.7 -8.25,8.25 0,4.55 3.7,8.25 8.25,8.25 4.55,0 8.25,-3.7 8.25,-8.25 0,-4.55 -3.7,-8.25 -8.25,-8.25zm0 19.5c-6.21,0 -11.25,-5.04 -11.25,-11.25 0,-6.21 5.04,-11.25 11.25,-11.25 6.21,0 11.25,5.04 11.25,11.25 0,6.21 -5.04,11.25 -11.25,11.25z"/>
  </g>
  <path class="fil1" d="M23.99 18.71c-4.58,0 -8.32,3.74 -8.32,8.32 0,4.59 3.74,8.32 8.32,8.32 4.59,0 8.32,-3.73 8.32,-8.32 0,-4.58 -3.73,-8.32 -8.32,-8.32z"/>
  <path class="fil2" d="M21.09 27.03c0,-1.66 1.36,-3.02 3.02,-3.02 0.83,0 1.51,-0.68 1.51,-1.52 0,-0.83 -0.68,-1.51 -1.51,-1.51 -3.34,0 -6.05,2.71 -6.05,6.05 0,0.83 0.68,1.51 1.51,1.51 0.83,0 1.52,-0.68 1.52,-1.51z"/>
 </g>
</svg>
