<?xml version="1.0" encoding="UTF-8"?>
<!DOCTYPE svg PUBLIC "-//W3C//DTD SVG 1.1//EN" "http://www.w3.org/Graphics/SVG/1.1/DTD/svg11.dtd">
<!-- Creator: CorelDRAW 2019 (64-Bit) -->
<svg xmlns="http://www.w3.org/2000/svg" xml:space="preserve" width="48px" height="48px" version="1.1" style="shape-rendering:geometricPrecision; text-rendering:geometricPrecision; image-rendering:optimizeQuality; fill-rule:evenodd; clip-rule:evenodd"
viewBox="0 0 48 48"
 xmlns:xlink="http://www.w3.org/1999/xlink">
 <defs>
  <style type="text/css">
   <![CDATA[
    .fil0 {fill:gray;fill-rule:nonzero}
   ]]>
  </style>
 </defs>
 <g id="Слой_x0020_1">
  <metadata id="CorelCorpID_0Corel-Layer"/>
  <path class="fil0" d="M24 36.66c-0.46,0 -0.94,0.06 -1.38,0.16 -0.48,0.1 -0.92,0.25 -1.23,0.4 -0.78,0.39 -1.55,0.49 -2.25,0.36 -0.71,-0.13 -1.34,-0.49 -1.83,-1 -0.47,-0.5 -0.81,-1.15 -0.97,-1.87l0 -0.03c-0.18,-0.85 -0.09,-1.8 0.34,-2.73 0.59,-1.27 1.69,-2.6 3.1,-3.55 1.21,-0.82 2.66,-1.36 4.22,-1.36 1.56,0 3.01,0.54 4.22,1.36 1.41,0.95 2.52,2.28 3.1,3.55 0.44,0.94 0.52,1.9 0.34,2.76l-0.01 0.02c-0.15,0.71 -0.49,1.36 -0.96,1.85 -0.49,0.51 -1.12,0.88 -1.83,1 -0.7,0.13 -1.47,0.03 -2.25,-0.36 -0.31,-0.15 -0.75,-0.3 -1.23,-0.4 -0.44,-0.1 -0.92,-0.16 -1.38,-0.16zm5.94 -16.76c0.34,0 0.62,0.28 0.62,0.62 0,0.35 -0.28,0.63 -0.62,0.63 -0.35,0 -0.63,-0.28 -0.63,-0.63 0,-0.34 0.28,-0.62 0.63,-0.62zm-11.99 0c0.34,0 0.62,0.28 0.62,0.62 0,0.35 -0.28,0.63 -0.62,0.63 -0.35,0 -0.63,-0.28 -0.63,-0.63 0,-0.34 0.28,-0.62 0.63,-0.62zm17.4 12.07c-0.22,-0.27 -0.18,-0.66 0.08,-0.88 0.27,-0.22 0.66,-0.18 0.88,0.08 0.53,0.64 0.97,1.32 1.32,2.03 0.26,-0.7 0.47,-1.4 0.63,-2.12 0.27,-1.18 0.41,-2.39 0.4,-3.59 -0.03,-3.95 -1.14,-6.85 -1.33,-7.33 -0.04,-0.08 -0.07,-0.16 -0.07,-0.24 -0.03,-0.34 0.23,-0.65 0.57,-0.67l0.46 -0.06c1.37,-0.2 2.57,-0.84 3.52,-1.76 1.03,-0.99 1.77,-2.31 2.15,-3.77 1.55,-5.94 -1.18,-10.76 -2.15,-12.21 -7.56,4.31 -11.11,8.06 -11.8,8.84 -0.03,2.2 2.01,3.89 2.01,3.9 0.27,0.22 0.31,0.61 0.09,0.87 -0.22,0.27 -0.62,0.3 -0.88,0.09 -0.01,-0.01 -2.45,-2.03 -2.47,-4.77 -0.56,-0.33 -2.06,-1.02 -4.76,-1.02 -2.7,0 -4.2,0.69 -4.76,1.02 -0.02,2.74 -2.46,4.76 -2.47,4.77 -0.26,0.21 -0.66,0.18 -0.88,-0.09 -0.22,-0.26 -0.18,-0.65 0.09,-0.87 0,-0.01 2.04,-1.7 2.01,-3.9 -0.69,-0.78 -4.24,-4.53 -11.8,-8.84 -0.97,1.45 -3.7,6.27 -2.15,12.21 0.38,1.46 1.12,2.78 2.15,3.77 0.95,0.93 2.15,1.56 3.52,1.76 0.13,0.02 0.34,0.06 0.46,0.06 0.35,0.02 0.6,0.33 0.57,0.67 0,0.08 -0.03,0.17 -0.06,0.24 -0.2,0.48 -1.3,3.37 -1.34,7.33 -0.01,1.2 0.13,2.41 0.4,3.58 0.16,0.72 0.37,1.43 0.63,2.13 0.35,-0.72 0.79,-1.4 1.32,-2.03 0.22,-0.26 0.61,-0.3 0.88,-0.08 0.26,0.22 0.3,0.61 0.08,0.88 -0.62,0.74 -1.11,1.56 -1.44,2.43 -0.08,0.2 -0.15,0.41 -0.21,0.62l0 0.01 0 0c-0.18,0.64 -0.28,1.31 -0.28,1.99 0,2.65 1.46,5.07 3.82,6.82 2.41,1.8 5.76,2.91 9.46,2.91 3.7,0 7.05,-1.11 9.46,-2.91 2.36,-1.76 3.82,-4.17 3.82,-6.82 0,-0.67 -0.09,-1.33 -0.27,-1.96l0 0 0 -0.02 -0.01 -0.01 0 -0.01c-0.06,-0.2 -0.12,-0.4 -0.19,-0.59l-0.02 -0.03c-0.33,-0.86 -0.82,-1.68 -1.44,-2.43zm2.91 2.95c0.18,0.68 0.27,1.38 0.27,2.1 0,3.06 -1.65,5.83 -4.33,7.82 -2.62,1.95 -6.23,3.16 -10.2,3.16 -3.97,0 -7.58,-1.21 -10.2,-3.16 -2.67,-1.99 -4.33,-4.76 -4.33,-7.82 0,-0.72 0.09,-1.42 0.27,-2.1 -0.53,-1.15 -0.94,-2.34 -1.22,-3.57 -0.28,-1.27 -0.43,-2.57 -0.42,-3.87 0.02,-3.29 0.75,-5.89 1.17,-7.09 -1.54,-0.29 -2.88,-1.02 -3.95,-2.06 -1.19,-1.15 -2.05,-2.68 -2.49,-4.35 -1.96,-7.54 2.42,-13.4 2.66,-13.71 0.18,-0.26 0.54,-0.35 0.82,-0.19 7.45,4.18 11.28,7.95 12.41,9.16 0.78,-0.42 2.5,-1.13 5.28,-1.13 2.78,0 4.5,0.71 5.28,1.13 1.13,-1.21 4.96,-4.98 12.41,-9.16 0.28,-0.16 0.64,-0.07 0.82,0.19 0.24,0.31 4.62,6.17 2.66,13.71 -0.44,1.67 -1.3,3.19 -2.49,4.34 -1.07,1.04 -2.41,1.78 -3.94,2.06 0.41,1.21 1.14,3.81 1.16,7.1 0.01,1.3 -0.13,2.6 -0.42,3.87 -0.28,1.23 -0.69,2.43 -1.22,3.57zm-4.2 -22.44c-0.25,0.24 -0.64,0.23 -0.88,-0.01 -0.24,-0.25 -0.24,-0.65 0.01,-0.88 2.51,-2.44 5.75,-4.33 5.75,-4.33 0.3,-0.19 0.68,-0.1 0.86,0.2l0.03 0.04c0.57,1.1 0.71,2.38 0.6,3.58 -0.13,1.54 -0.68,3 -1.23,3.85 -0.19,0.29 -0.58,0.37 -0.87,0.18 -0.29,-0.19 -0.37,-0.58 -0.18,-0.86 0.47,-0.71 0.92,-1.95 1.04,-3.28 0.07,-0.76 0.02,-1.56 -0.21,-2.27 -1.04,0.65 -3.18,2.09 -4.92,3.78zm-12.42 27.56c-0.31,0.14 -0.68,-0.01 -0.82,-0.33 -0.13,-0.31 0.01,-0.68 0.33,-0.81 0.92,-0.4 1.89,-0.6 2.85,-0.6 0.96,0 1.93,0.2 2.85,0.6 0.32,0.13 0.46,0.5 0.33,0.81 -0.14,0.32 -0.51,0.47 -0.82,0.33 -0.76,-0.33 -1.56,-0.49 -2.36,-0.49 -0.8,0 -1.6,0.16 -2.36,0.49zm-6.83 -28.45c0.25,0.23 0.25,0.63 0.02,0.88 -0.24,0.24 -0.64,0.25 -0.89,0.01 -1.74,-1.7 -3.88,-3.13 -4.92,-3.78 -0.23,0.71 -0.28,1.5 -0.21,2.27 0.12,1.33 0.57,2.57 1.04,3.28 0.19,0.28 0.11,0.67 -0.18,0.86 -0.29,0.19 -0.68,0.11 -0.87,-0.18 -0.55,-0.85 -1.1,-2.31 -1.24,-3.85 -0.1,-1.2 0.04,-2.48 0.61,-3.58l0.03 -0.04c0.18,-0.3 0.56,-0.39 0.86,-0.2 0,0 3.24,1.89 5.75,4.33zm6.42 19.51c0.31,-0.15 0.69,-0.03 0.84,0.28 0.15,0.3 0.03,0.68 -0.28,0.83 0,0 -0.62,0.43 -0.89,1.54 -0.08,0.34 -0.41,0.54 -0.75,0.46 -0.33,-0.07 -0.54,-0.41 -0.46,-0.74 0.39,-1.63 1.54,-2.37 1.54,-2.37zm4.98 1.11c-0.31,-0.15 -0.43,-0.53 -0.28,-0.83 0.15,-0.31 0.53,-0.43 0.84,-0.28 0,0 1.15,0.74 1.54,2.37 0.08,0.33 -0.13,0.67 -0.46,0.74 -0.34,0.08 -0.67,-0.12 -0.75,-0.46 -0.27,-1.11 -0.89,-1.54 -0.89,-1.54zm-5.34 -8.42c-0.11,0.33 -0.46,0.51 -0.78,0.4 -0.33,-0.11 -0.5,-0.46 -0.4,-0.79 0,0 0.29,-1 0.42,-2.21 0.06,-0.61 -0.11,-1.15 -0.42,-1.56 -0.19,-0.26 -0.44,-0.48 -0.71,-0.64 -0.28,-0.15 -0.6,-0.26 -0.92,-0.29l-0.02 0c-0.52,-0.05 -1.08,0.08 -1.58,0.45l-0.37 0.29 -0.36 0.34c-0.24,0.25 -0.64,0.25 -0.88,0.01 -0.25,-0.24 -0.25,-0.64 -0.01,-0.88l0.44 -0.41 0.44 -0.36c0.76,-0.56 1.63,-0.76 2.44,-0.68l0.02 0c0.5,0.05 0.98,0.21 1.41,0.45 0.43,0.24 0.81,0.58 1.11,0.98 0.48,0.65 0.75,1.49 0.65,2.42 -0.14,1.32 -0.48,2.48 -0.48,2.48zm7.44 -0.39c0.11,0.33 -0.07,0.68 -0.4,0.79 -0.32,0.11 -0.67,-0.07 -0.78,-0.4 0,0 -0.34,-1.16 -0.48,-2.48 -0.09,-0.93 0.17,-1.77 0.65,-2.42 0.3,-0.4 0.68,-0.74 1.11,-0.98 0.43,-0.24 0.91,-0.4 1.41,-0.45l0.02 0c0.81,-0.08 1.68,0.12 2.44,0.68l0.45 0.36 0.43 0.41c0.24,0.24 0.24,0.64 -0.01,0.88 -0.24,0.24 -0.64,0.24 -0.88,-0.01l-0.36 -0.34 -0.37 -0.29c-0.49,-0.37 -1.06,-0.5 -1.58,-0.45l-0.02 0c-0.32,0.03 -0.64,0.14 -0.92,0.29 -0.27,0.16 -0.52,0.38 -0.71,0.64 -0.31,0.41 -0.48,0.95 -0.42,1.56 0.13,1.21 0.42,2.21 0.42,2.21zm-5.95 12.2c0.52,-0.11 1.09,-0.19 1.64,-0.19 0.55,0 1.12,0.08 1.64,0.19 0.59,0.13 1.12,0.31 1.52,0.51 0.53,0.26 1.04,0.33 1.48,0.25 0.44,-0.08 0.84,-0.31 1.14,-0.64 0.32,-0.33 0.55,-0.77 0.65,-1.25l0.01 -0.02c0.13,-0.61 0.07,-1.3 -0.25,-1.98 -0.5,-1.08 -1.44,-2.22 -2.66,-3.04 -1.02,-0.68 -2.23,-1.14 -3.53,-1.14 -1.3,0 -2.51,0.46 -3.53,1.14 -1.22,0.82 -2.16,1.96 -2.66,3.04 -0.31,0.67 -0.37,1.36 -0.25,1.96l0 0.02c0.11,0.5 0.34,0.94 0.66,1.27 0.31,0.33 0.7,0.56 1.14,0.64 0.44,0.08 0.95,0.01 1.48,-0.25 0.4,-0.2 0.94,-0.38 1.52,-0.51z"/>
 </g>
</svg>
