<?xml version="1.0" encoding="UTF-8"?>
<!DOCTYPE svg PUBLIC "-//W3C//DTD SVG 1.1//EN" "http://www.w3.org/Graphics/SVG/1.1/DTD/svg11.dtd">
<!-- Creator: CorelDRAW 2019 (64-Bit) -->
<svg xmlns="http://www.w3.org/2000/svg" xml:space="preserve" width="48px" height="48px" version="1.1" style="shape-rendering:geometricPrecision; text-rendering:geometricPrecision; image-rendering:optimizeQuality; fill-rule:evenodd; clip-rule:evenodd"
viewBox="0 0 48 48"
 xmlns:xlink="http://www.w3.org/1999/xlink">
 <defs>
  <style type="text/css">
   <![CDATA[
    .fil0 {fill:gray;fill-rule:nonzero}
    .fil1 {fill:#C9DADD;fill-rule:nonzero}
    .fil2 {fill:#FBE0DC;fill-rule:nonzero}
   ]]>
  </style>
 </defs>
 <g id="Слой_x0020_1">
  <metadata id="CorelCorpID_0Corel-Layer"/>
  <path class="fil0" d="M28.98 37.67c0,-0.63 0.26,-1.21 0.68,-1.62 0.42,-0.42 0.99,-0.68 1.63,-0.68l9.86 0c-0.08,-6.1 -1.57,-11.86 -4.16,-16.97 -2.68,-5.3 -6.54,-9.91 -11.24,-13.47l-22.37 30.44 2.35 0c0.89,0 1.7,0.36 2.28,0.95 0.59,0.58 0.95,1.39 0.95,2.28l0 1.64c0,0.43 -0.08,0.85 -0.22,1.25l-0.01 0.02c-0.14,0.4 -0.35,0.79 -0.61,1.13l-0.01 0.01c-0.17,0.24 -0.3,0.52 -0.37,0.82 -0.06,0.29 -0.07,0.6 -0.02,0.92 0.08,0.45 0.3,0.86 0.61,1.18 0.31,0.32 0.72,0.54 1.16,0.63l0.02 0c0.14,0.03 0.29,0.04 0.44,0.04 0.56,0 1.07,-0.19 1.46,-0.52 0.39,-0.33 0.67,-0.78 0.77,-1.31 0.03,-0.13 0.04,-0.28 0.04,-0.43 0,-0.26 -0.04,-0.51 -0.12,-0.73l-0.01 -0.05c-0.08,-0.21 -0.2,-0.43 -0.35,-0.61l-0.02 -0.04c-0.25,-0.32 -0.44,-0.69 -0.57,-1.07 -0.14,-0.39 -0.21,-0.82 -0.21,-1.23l0 -1.65c0,-0.89 0.37,-1.7 0.95,-2.28 0.58,-0.59 1.4,-0.95 2.29,-0.95l1.35 0c0.56,0 1.08,0.23 1.46,0.61 0.37,0.37 0.6,0.89 0.6,1.46 0,0.42 -0.08,0.84 -0.22,1.23 -0.14,0.41 -0.36,0.8 -0.62,1.16 -0.17,0.24 -0.31,0.53 -0.38,0.84 -0.06,0.28 -0.07,0.6 -0.02,0.92 0.08,0.45 0.3,0.86 0.61,1.17 0.31,0.32 0.72,0.55 1.16,0.63l0.02 0.01c0.14,0.02 0.29,0.04 0.44,0.04 0.56,0 1.06,-0.2 1.45,-0.52 0.39,-0.33 0.68,-0.79 0.78,-1.31l0 -0.01c0.02,-0.13 0.04,-0.28 0.04,-0.43 0,-0.24 -0.04,-0.47 -0.1,-0.68 -0.07,-0.22 -0.17,-0.42 -0.3,-0.6 -0.27,-0.4 -0.5,-0.83 -0.65,-1.28 -0.14,-0.43 -0.23,-0.87 -0.23,-1.33 0,-0.53 0.22,-1 0.56,-1.35 0.35,-0.35 0.82,-0.56 1.35,-0.56l2.56 0c0.82,0 1.56,0.33 2.1,0.87l0.03 0.04c0.52,0.53 0.84,1.26 0.84,2.06 0,0.95 -0.12,1.9 -0.32,2.82 -0.2,0.92 -0.48,1.82 -0.82,2.7 -0.07,0.19 -0.11,0.38 -0.13,0.59l-0.01 0.05c-0.01,0.18 0,0.38 0.04,0.57 0.08,0.45 0.3,0.86 0.61,1.18 0.31,0.32 0.71,0.54 1.16,0.63 0.15,0.03 0.3,0.04 0.46,0.04 0.55,0 1.06,-0.19 1.45,-0.52 0.39,-0.33 0.67,-0.78 0.77,-1.3l0.01 -0.02c0.02,-0.13 0.03,-0.28 0.03,-0.42 0,-0.15 -0.01,-0.29 -0.03,-0.42 -0.03,-0.14 -0.08,-0.29 -0.13,-0.43l0 -0.01c-0.38,-0.94 -0.65,-1.92 -0.83,-2.92 -0.2,-1.07 -0.29,-2.14 -0.29,-3.21zm13.25 -1.76c0,0.4 0.16,0.77 0.43,1.03 0.26,0.26 0.63,0.42 1.03,0.42 0.4,0 0.77,-0.16 1.03,-0.42l0.02 -0.02c0.25,-0.26 0.4,-0.62 0.4,-1.01 0,-6.78 -1.63,-13.4 -4.63,-19.32 -3,-5.92 -7.36,-11.16 -12.83,-15.19l-0.03 -0.02c-0.31,-0.24 -0.7,-0.34 -1.07,-0.29 -0.37,0.05 -0.73,0.23 -0.97,0.55 -0.25,0.32 -0.34,0.71 -0.3,1.08 0.05,0.35 0.22,0.7 0.52,0.94l0.1 0.07 0.06 0.04 0.01 0.01c5,3.7 9.12,8.54 11.95,14.13 2.74,5.41 4.28,11.53 4.28,18zm-17.32 -31.65c-0.38,-0.4 -0.6,-0.9 -0.67,-1.41 -0.07,-0.63 0.09,-1.3 0.5,-1.84l0.06 -0.08c0.42,-0.52 1.02,-0.83 1.65,-0.91 0.63,-0.08 1.29,0.08 1.84,0.49l0.05 0.04c5.59,4.13 10.06,9.49 13.13,15.56 3.08,6.07 4.75,12.85 4.75,19.8 0,0.68 -0.27,1.3 -0.71,1.75l-0.03 0.04c-0.46,0.46 -1.09,0.74 -1.79,0.74 -0.7,0 -1.34,-0.28 -1.79,-0.74 -0.34,-0.34 -0.58,-0.77 -0.69,-1.25l-9.92 0c-0.34,0 -0.65,0.14 -0.87,0.36 -0.22,0.22 -0.36,0.52 -0.36,0.86 0,1.03 0.08,2.04 0.26,3.02 0.17,0.92 0.42,1.83 0.77,2.71l0.02 0.03c0.07,0.19 0.13,0.4 0.17,0.61 0.04,0.2 0.06,0.41 0.06,0.62 0,0.2 -0.02,0.4 -0.06,0.61l0 0.03c-0.15,0.77 -0.57,1.44 -1.15,1.93 -0.58,0.48 -1.32,0.77 -2.13,0.77 -0.21,0 -0.44,-0.02 -0.67,-0.07 -0.66,-0.12 -1.26,-0.46 -1.72,-0.93 -0.46,-0.46 -0.78,-1.07 -0.9,-1.74 -0.05,-0.29 -0.07,-0.58 -0.05,-0.85l0 -0.05c0.03,-0.3 0.1,-0.6 0.2,-0.88 0.32,-0.83 0.59,-1.68 0.78,-2.54 0.18,-0.85 0.29,-1.72 0.29,-2.6 0,-0.51 -0.2,-0.98 -0.52,-1.31l-0.03 -0.03c-0.34,-0.34 -0.82,-0.55 -1.34,-0.55l-2.56 0c-0.23,0 -0.44,0.09 -0.59,0.24 -0.15,0.15 -0.24,0.36 -0.24,0.59 0,0.34 0.06,0.67 0.17,0.99 0.12,0.35 0.3,0.69 0.51,1.01 0.19,0.27 0.34,0.57 0.44,0.9 0.1,0.31 0.15,0.65 0.15,0.99 0,0.21 -0.02,0.42 -0.06,0.63l0 0.01c-0.15,0.77 -0.56,1.45 -1.14,1.93 -0.58,0.48 -1.33,0.78 -2.14,0.78 -0.2,0 -0.42,-0.03 -0.64,-0.07l-0.03 0c-0.66,-0.13 -1.26,-0.47 -1.72,-0.93 -0.46,-0.47 -0.78,-1.08 -0.9,-1.74 -0.08,-0.47 -0.06,-0.93 0.03,-1.35 0.11,-0.45 0.3,-0.87 0.57,-1.23 0.2,-0.27 0.36,-0.57 0.47,-0.89 0.1,-0.27 0.15,-0.57 0.15,-0.87 0,-0.27 -0.11,-0.53 -0.29,-0.7 -0.17,-0.18 -0.42,-0.29 -0.69,-0.29l-1.35 0c-0.6,0 -1.14,0.24 -1.53,0.63 -0.39,0.39 -0.63,0.93 -0.63,1.52l0 1.65c0,0.3 0.05,0.61 0.15,0.89 0.09,0.27 0.23,0.53 0.4,0.76l0.02 0.03c0.21,0.27 0.39,0.58 0.51,0.91l0.02 0.06c0.12,0.34 0.18,0.7 0.18,1.08 0,0.21 -0.02,0.42 -0.06,0.63 -0.15,0.78 -0.57,1.45 -1.15,1.93 -0.58,0.49 -1.33,0.78 -2.14,0.78 -0.2,0 -0.41,-0.02 -0.64,-0.06l-0.03 -0.01c-0.66,-0.12 -1.26,-0.46 -1.72,-0.93 -0.45,-0.47 -0.78,-1.08 -0.89,-1.74 -0.09,-0.47 -0.07,-0.93 0.02,-1.35 0.11,-0.44 0.3,-0.85 0.55,-1.21l0.02 -0.02c0.19,-0.26 0.35,-0.55 0.46,-0.85l0.01 -0.02c0.1,-0.28 0.15,-0.58 0.15,-0.89l0 -1.64c0,-0.59 -0.24,-1.13 -0.63,-1.52 -0.38,-0.39 -0.92,-0.63 -1.52,-0.63l-3.41 0c-0.11,0 -0.23,-0.04 -0.32,-0.11 -0.24,-0.17 -0.29,-0.51 -0.12,-0.75l23.03 -31.33z"/>
  <path class="fil1" d="M30.01 28.74c0,1.85 -1.49,3.34 -3.33,3.34 -1.84,0 -3.34,-1.49 -3.34,-3.34 0,-1.84 1.5,-3.34 3.34,-3.34 1.84,0 3.33,1.5 3.33,3.34zm2.08 -9.72c1.05,-1.11 0.7,-3.16 -0.8,-4.59 -1.49,-1.43 -3.55,-1.7 -4.61,-0.6 -0.59,0.62 -0.75,1.54 -0.49,2.48l-1.91 1.99c-0.34,0.35 -0.33,0.9 0.02,1.24l2.19 2.09c0.35,0.34 0.9,0.33 1.24,-0.02l1.91 -2c0.95,0.21 1.86,0.02 2.45,-0.59zm-16.06 9.97c0,1.12 -0.9,2.03 -2.02,2.03 -1.11,0 -2.02,-0.91 -2.02,-2.03 0,-1.11 0.91,-2.02 2.02,-2.02 1.12,0 2.02,0.91 2.02,2.02z"/>
  <path class="fil2" d="M21.49 22.71c0,1.05 -0.85,1.89 -1.89,1.89 -1.05,0 -1.89,-0.84 -1.89,-1.89 0,-1.04 0.84,-1.88 1.89,-1.88 1.04,0 1.89,0.84 1.89,1.88zm16.25 7.16c0,1.12 -0.91,2.04 -2.04,2.04 -1.12,0 -2.04,-0.92 -2.04,-2.04 0,-1.13 0.92,-2.04 2.04,-2.04 1.13,0 2.04,0.91 2.04,2.04z"/>
 </g>
</svg>
