<?xml version="1.0" encoding="UTF-8"?>
<!DOCTYPE svg PUBLIC "-//W3C//DTD SVG 1.1//EN" "http://www.w3.org/Graphics/SVG/1.1/DTD/svg11.dtd">
<!-- Creator: CorelDRAW 2019 (64-Bit) -->
<svg xmlns="http://www.w3.org/2000/svg" xml:space="preserve" width="48px" height="48px" version="1.1" style="shape-rendering:geometricPrecision; text-rendering:geometricPrecision; image-rendering:optimizeQuality; fill-rule:evenodd; clip-rule:evenodd"
viewBox="0 0 48 48"
 xmlns:xlink="http://www.w3.org/1999/xlink">
 <defs>
  <style type="text/css">
   <![CDATA[
    .fil2 {fill:gray}
    .fil0 {fill:#C9DADD}
    .fil1 {fill:#FBE0DC}
   ]]>
  </style>
 </defs>
 <g id="Слой_x0020_1">
  <metadata id="CorelCorpID_0Corel-Layer"/>
  <path class="fil0" d="M33 9c0,-3.31 2.69,-6 6,-6 3.31,0 6,2.69 6,6 0,1.91 -2.82,6.37 -6,10.35 -3.19,-3.99 -6,-8.49 -6,-10.35z"/>
  <path class="fil1" d="M3 33c0,-3.31 2.69,-6 6,-6 3.31,0 6,2.69 6,6 0,1.91 -2.82,6.37 -6,10.35 -3.19,-3.99 -6,-8.49 -6,-10.35z"/>
  <path class="fil2" d="M40.5 33l-10.5 0c-2.48,0 -4.5,-2.02 -4.5,-4.5 0,-2.48 2.02,-4.5 4.5,-4.5l9 0c0,0 9,-10.03 9,-15 0,-4.97 -4.03,-9 -9,-9 -4.97,0 -9,4.03 -9,9 0,3.24 3.83,8.64 6.5,12l-6.5 0c-4.13,0 -7.5,3.37 -7.5,7.5 0,4.13 3.37,7.5 7.5,7.5l10.5 0c2.48,0 4.5,2.02 4.5,4.5 0,2.48 -2.02,4.5 -4.5,4.5l-29 0c2.67,-3.36 6.5,-8.76 6.5,-12 0,-4.97 -4.03,-9 -9,-9 -4.97,0 -9,4.03 -9,9 0,4.97 9,15 9,15l31.5 0c4.13,0 7.5,-3.37 7.5,-7.5 0,-4.13 -3.37,-7.5 -7.5,-7.5zm-7.5 -24c0,-3.31 2.69,-6 6,-6 3.31,0 6,2.69 6,6 0,1.91 -2.82,6.37 -6,10.35 -3.19,-3.99 -6,-8.49 -6,-10.35zm6 -1.5c-1.99,0 -1.98,3 0,3 1.99,0 1.98,-3 0,-3zm-36 25.5c0,-3.31 2.69,-6 6,-6 3.31,0 6,2.69 6,6 0,1.91 -2.82,6.37 -6,10.35 -3.19,-3.99 -6,-8.49 -6,-10.35zm6 -1.5c-1.99,0 -1.98,3 0,3 1.99,0 1.98,-3 0,-3z"/>
 </g>
</svg>
