<?xml version="1.0" encoding="UTF-8"?>
<!DOCTYPE svg PUBLIC "-//W3C//DTD SVG 1.1//EN" "http://www.w3.org/Graphics/SVG/1.1/DTD/svg11.dtd">
<!-- Creator: CorelDRAW 2019 (64-Bit) -->
<svg xmlns="http://www.w3.org/2000/svg" xml:space="preserve" width="48px" height="48px" version="1.1" style="shape-rendering:geometricPrecision; text-rendering:geometricPrecision; image-rendering:optimizeQuality; fill-rule:evenodd; clip-rule:evenodd"
viewBox="0 0 48 48"
 xmlns:xlink="http://www.w3.org/1999/xlink">
 <defs>
  <style type="text/css">
   <![CDATA[
    .fil0 {fill:gray;fill-rule:nonzero}
    .fil2 {fill:#C9DADD;fill-rule:nonzero}
    .fil1 {fill:#FBE0DC;fill-rule:nonzero}
   ]]>
  </style>
 </defs>
 <g id="Слой_x0020_1">
  <metadata id="CorelCorpID_0Corel-Layer"/>
  <path class="fil0" d="M10.47 7.02l0 6.12c0,0.38 0.06,0.76 0.17,1.11 0.1,0.36 0.26,0.7 0.47,1l1.26 1.83c0.45,0.66 0.78,1.37 0.99,2.12l0.01 0.03c0.2,0.74 0.29,1.52 0.24,2.3l-0.89 15.11c-0.07,1.21 -0.04,2.42 0.08,3.61 0.12,1.19 0.34,2.38 0.65,3.54 0.07,0.32 0.2,0.69 0.3,1.01 0.06,0.23 0.09,0.46 0.09,0.68 0,0.54 -0.18,1.06 -0.5,1.48 -0.31,0.42 -0.76,0.74 -1.28,0.89 -0.22,0.06 -0.45,0.09 -0.68,0.09l-8.93 0c-0.24,0 -0.48,-0.03 -0.7,-0.1 -0.52,-0.15 -0.96,-0.47 -1.26,-0.88l-0.03 -0.04c-0.29,-0.41 -0.46,-0.9 -0.46,-1.42 0,-0.22 0.03,-0.46 0.1,-0.7l0.28 -1c0.32,-1.18 0.54,-2.36 0.66,-3.55 0.12,-1.2 0.15,-2.41 0.07,-3.62l-0.88 -15.1c-0.04,-0.79 0.05,-1.57 0.25,-2.32 0.21,-0.76 0.54,-1.47 0.98,-2.12l1.26 -1.84c0.21,-0.31 0.38,-0.66 0.49,-1.01 0.11,-0.35 0.16,-0.72 0.16,-1.1l0 -6.12 0 -3.67c0,-0.52 0.22,-0.99 0.56,-1.33 0.34,-0.34 0.81,-0.56 1.33,-0.56l3.31 0c0.52,0 0.99,0.22 1.34,0.56 0.35,0.34 0.56,0.81 0.56,1.33l0 3.67zm22.21 7.45c0,-0.3 0.24,-0.54 0.54,-0.54 0.29,0 0.54,0.24 0.54,0.54 0,0.81 -0.33,1.55 -0.87,2.08l-0.03 0.04c-0.53,0.51 -1.26,0.83 -2.05,0.83 -0.82,0 -1.56,-0.33 -2.09,-0.87l-0.03 -0.03c-0.52,-0.53 -0.83,-1.26 -0.83,-2.05 0,-0.3 0.24,-0.54 0.53,-0.54 0.3,0 0.54,0.24 0.54,0.54 0,0.51 0.2,0.96 0.52,1.3l0.03 0.02c0.34,0.34 0.81,0.55 1.33,0.55 0.5,0 0.96,-0.2 1.3,-0.52l0.02 -0.03c0.34,-0.34 0.55,-0.8 0.55,-1.32zm3.97 4.43c0,-0.3 0.25,-0.54 0.54,-0.54 0.3,0 0.54,0.24 0.54,0.54 0,0.81 -0.33,1.55 -0.86,2.09l-0.04 0.03c-0.53,0.51 -1.25,0.83 -2.05,0.83 -0.81,0 -1.55,-0.33 -2.08,-0.86 -0.54,-0.54 -0.87,-1.28 -0.87,-2.09 0,-0.3 0.24,-0.54 0.54,-0.54 0.3,0 0.54,0.24 0.54,0.54 0,0.52 0.21,0.99 0.55,1.32 0.33,0.34 0.8,0.55 1.32,0.55 0.51,0 0.96,-0.2 1.3,-0.52l0.03 -0.03c0.33,-0.33 0.54,-0.8 0.54,-1.32zm3.98 4.43c0,-0.3 0.24,-0.54 0.54,-0.54 0.29,0 0.54,0.24 0.54,0.54 0,0.81 -0.34,1.55 -0.87,2.08 -0.53,0.54 -1.27,0.87 -2.08,0.87 -0.82,0 -1.55,-0.33 -2.08,-0.87 -0.53,-0.53 -0.86,-1.27 -0.86,-2.08 0,-0.3 0.24,-0.54 0.54,-0.54 0.3,0 0.54,0.24 0.54,0.54 0,0.52 0.21,0.99 0.54,1.33 0.34,0.33 0.8,0.54 1.32,0.54 0.51,0 0.98,-0.21 1.32,-0.55 0.34,-0.33 0.55,-0.8 0.55,-1.32zm-11.93 -4.43c0,-0.3 0.25,-0.54 0.54,-0.54 0.3,0 0.54,0.24 0.54,0.54 0,0.81 -0.33,1.55 -0.86,2.08 -0.54,0.54 -1.28,0.87 -2.09,0.87 -0.81,0 -1.55,-0.33 -2.08,-0.87 -0.54,-0.53 -0.87,-1.27 -0.87,-2.08 0,-0.3 0.24,-0.54 0.54,-0.54 0.3,0 0.54,0.24 0.54,0.54 0,0.52 0.21,0.99 0.54,1.32 0.34,0.34 0.81,0.55 1.33,0.55 0.52,0 0.99,-0.21 1.33,-0.55 0.33,-0.33 0.54,-0.8 0.54,-1.32zm3.98 4.43c0,-0.3 0.24,-0.54 0.54,-0.54 0.29,0 0.54,0.24 0.54,0.54 0,0.81 -0.33,1.55 -0.87,2.08 -0.53,0.54 -1.27,0.87 -2.08,0.87 -0.82,0 -1.56,-0.33 -2.09,-0.87l-0.03 -0.03c-0.52,-0.53 -0.83,-1.25 -0.83,-2.05 0,-0.3 0.24,-0.54 0.53,-0.54 0.3,0 0.54,0.24 0.54,0.54 0,0.5 0.2,0.96 0.52,1.3l0.03 0.02c0.34,0.34 0.81,0.55 1.33,0.55 0.51,0 0.98,-0.21 1.32,-0.55 0.34,-0.33 0.55,-0.8 0.55,-1.32zm-7.97 0c0,-0.3 0.25,-0.54 0.54,-0.54 0.3,0 0.54,0.24 0.54,0.54 0,0.81 -0.33,1.55 -0.86,2.08 -0.53,0.54 -1.27,0.87 -2.07,0.87 -0.82,0 -1.56,-0.33 -2.09,-0.87l-0.03 -0.03c-0.52,-0.53 -0.83,-1.25 -0.83,-2.05 0,-0.3 0.24,-0.54 0.53,-0.54 0.3,0 0.54,0.24 0.54,0.54 0,0.5 0.2,0.96 0.52,1.3l0.03 0.02c0.34,0.34 0.81,0.55 1.33,0.55 0.51,0 0.97,-0.21 1.31,-0.55 0.33,-0.33 0.54,-0.8 0.54,-1.32zm14.81 9.96c-0.18,-0.24 -0.12,-0.57 0.12,-0.75 0.24,-0.17 0.58,-0.11 0.75,0.13 0,0 0.41,0.56 0.67,1.52 1.42,0.84 2.8,0.71 3.85,0.07 0.48,-0.3 0.9,-0.71 1.23,-1.18 0.33,-0.47 0.57,-1.01 0.69,-1.57 0.28,-1.27 -0.07,-2.67 -1.35,-3.64 -0.55,-0.43 -1.25,-0.65 -1.95,-0.66 -0.68,0 -1.36,0.21 -1.89,0.63 -0.45,0.35 -0.8,0.83 -1.16,1.31 -0.21,0.3 -0.44,0.61 -0.69,0.89l-0.01 0.02c-0.87,1.01 -1.99,1.74 -3.22,2.21 -1.34,0.52 -2.82,0.75 -4.25,0.73l-0.04 0c-2.44,0 -4.5,-0.42 -6.19,-1.02 -2.35,-0.84 -4.01,-2.05 -5.07,-3.01 -0.48,-0.45 -1.05,-0.8 -1.66,-1.04 -0.61,-0.24 -1.26,-0.36 -1.93,-0.36l-0.45 0 -0.1 0.01c-0.06,0.02 -0.11,0.06 -0.14,0.11 -0.03,0.05 -0.05,0.11 -0.05,0.18l0.01 0.11c0.97,2.61 1.27,4.31 1.5,5.64 0.08,0.47 0.15,0.9 0.25,1.32 0.25,1.09 0.93,3.24 2.74,5.12 1.81,1.88 4.77,3.5 9.58,3.5 2.99,0 5.12,-1.11 6.47,-2.18 0.03,-0.02 0.06,-0.05 0.09,-0.07 1.2,-0.96 1.76,-1.87 1.77,-1.88 1.24,-2.01 1.24,-3.67 1,-4.75l-0.01 -0.04c-0.2,-0.86 -0.56,-1.34 -0.56,-1.35zm1.75 2.2c0.07,1.22 -0.2,2.76 -1.27,4.51 -0.01,0.01 -0.6,0.97 -1.85,2.02l0 2.78c0,0.87 -0.35,1.65 -0.92,2.22 -0.57,0.57 -1.35,0.92 -2.22,0.92l-9.97 0c-0.87,0 -1.66,-0.35 -2.23,-0.92 -0.57,-0.57 -0.92,-1.35 -0.92,-2.22l0 -2.7c-0.56,-0.41 -1.05,-0.85 -1.48,-1.3 -1.99,-2.06 -2.75,-4.42 -3.01,-5.61 -0.11,-0.42 -0.19,-0.88 -0.27,-1.39 -0.22,-1.29 -0.51,-2.94 -1.44,-5.45 -0.07,-0.17 -0.09,-0.33 -0.09,-0.48 0,-0.29 0.09,-0.56 0.25,-0.79 0.16,-0.23 0.38,-0.41 0.65,-0.51 0.15,-0.05 0.31,-0.08 0.47,-0.08l0.45 0c0.79,0 1.58,0.15 2.31,0.44 0.73,0.28 1.42,0.7 2.01,1.24 0.97,0.9 2.51,2.01 4.7,2.79 1.59,0.57 3.52,0.96 5.83,0.96l0.06 0.01c1.29,0.01 2.63,-0.19 3.84,-0.66 1.07,-0.42 2.05,-1.04 2.79,-1.91l0.02 -0.02c0.22,-0.26 0.43,-0.54 0.64,-0.82 0.4,-0.55 0.8,-1.09 1.35,-1.52 0.73,-0.58 1.65,-0.86 2.57,-0.86 0.92,0.01 1.86,0.3 2.59,0.87 1.67,1.27 2.11,3.08 1.75,4.73 -0.15,0.69 -0.45,1.37 -0.86,1.95 -0.41,0.59 -0.94,1.11 -1.55,1.48 -1.18,0.73 -2.66,0.96 -4.2,0.32zm-4.2 7.32c-1.49,0.98 -3.58,1.83 -6.31,1.83 -3.36,0 -5.89,-0.75 -7.8,-1.85l0 2.01c0,0.57 0.24,1.09 0.61,1.46 0.37,0.37 0.9,0.6 1.47,0.6l9.97 0c0.57,0 1.09,-0.23 1.46,-0.6 0.37,-0.37 0.6,-0.89 0.6,-1.46l0 -1.99zm-32.62 -35.25l0 5.58c0,0.48 -0.07,0.96 -0.21,1.41 -0.15,0.46 -0.36,0.9 -0.63,1.31l-1.26 1.83c-0.38,0.56 -0.66,1.17 -0.83,1.8 -0.18,0.64 -0.25,1.3 -0.21,1.98l0.88 15.09c0.08,1.27 0.05,2.54 -0.08,3.8 -0.13,1.25 -0.36,2.5 -0.69,3.71l-0.28 1.03c-0.04,0.13 -0.06,0.27 -0.06,0.4 0,0.29 0.09,0.57 0.25,0.79l0.02 0.02c0.17,0.23 0.42,0.42 0.7,0.5 0.12,0.03 0.26,0.05 0.4,0.05l8.93 0c0.14,0 0.27,-0.01 0.38,-0.05 0.3,-0.08 0.55,-0.26 0.73,-0.49 0.17,-0.24 0.27,-0.53 0.27,-0.84 0,-0.12 -0.01,-0.25 -0.05,-0.38l-0.3 -1.03c-0.32,-1.22 -0.55,-2.46 -0.68,-3.71 -0.12,-1.26 -0.16,-2.52 -0.09,-3.78l0.9 -15.11c0.04,-0.67 -0.03,-1.33 -0.2,-1.96l-0.01 -0.02c-0.18,-0.64 -0.46,-1.25 -0.84,-1.8l-1.27 -1.83c-0.27,-0.41 -0.48,-0.84 -0.61,-1.3 -0.14,-0.46 -0.22,-0.94 -0.22,-1.42l0 -5.58 -4.94 0zm4.12 -5.02l-3.31 0c-0.22,0 -0.43,0.09 -0.57,0.24 -0.15,0.14 -0.24,0.35 -0.24,0.57l0 3.13 4.94 0 0 -3.13c0,-0.22 -0.09,-0.42 -0.23,-0.57 -0.15,-0.14 -0.36,-0.24 -0.59,-0.24z"/>
  <path class="fil1" d="M2.98 44.49c-0.06,0.25 -0.13,0.5 -0.2,0.76l8.29 0c-0.09,-0.26 -0.15,-0.51 -0.22,-0.76 -0.7,-2.6 -0.98,-5.3 -0.82,-8.02l0.75 -12.99c-1.63,1.28 -4.59,0.58 -6.02,0.64 0,0 -0.01,0 -0.03,0 -0.92,0.04 -1.6,0.84 -1.55,1.74l0.62 10.61c0.16,2.73 -0.12,5.42 -0.82,8.02z"/>
  <path class="fil2" d="M20.15 35.1c0.7,2.41 3.01,6.85 10.61,6.85 4.72,0 6.87,-3.24 6.97,-3.38 0.94,-1.55 0.94,-2.76 0.79,-3.52 -4.92,4.77 -13.5,-2.18 -18.37,0.05z"/>
 </g>
</svg>
