<?xml version="1.0" encoding="UTF-8"?>
<!DOCTYPE svg PUBLIC "-//W3C//DTD SVG 1.1//EN" "http://www.w3.org/Graphics/SVG/1.1/DTD/svg11.dtd">
<!-- Creator: CorelDRAW 2019 (64-Bit) -->
<svg xmlns="http://www.w3.org/2000/svg" xml:space="preserve" width="48px" height="48px" version="1.1" style="shape-rendering:geometricPrecision; text-rendering:geometricPrecision; image-rendering:optimizeQuality; fill-rule:evenodd; clip-rule:evenodd"
viewBox="0 0 48 48"
 xmlns:xlink="http://www.w3.org/1999/xlink">
 <defs>
  <style type="text/css">
   <![CDATA[
    .fil0 {fill:gray;fill-rule:nonzero}
    .fil1 {fill:#FBE0DC;fill-rule:nonzero}
   ]]>
  </style>
 </defs>
 <g id="Слой_x0020_1">
  <metadata id="CorelCorpID_0Corel-Layer"/>
  <path class="fil0" d="M19.41 48l-13.96 0c-0.65,0 -1.24,-0.27 -1.67,-0.69 -0.43,-0.43 -0.7,-1.02 -0.7,-1.67l0 -32.19c0,-0.65 0.27,-1.24 0.7,-1.67 0.38,-0.38 0.9,-0.64 1.47,-0.69l0 -2.41c0,-0.49 0.2,-0.95 0.52,-1.28l0.03 -0.04c0.34,-0.34 0.81,-0.55 1.32,-0.55l0.93 0 2.52 -5.6c0.22,-0.49 0.59,-0.84 1.02,-1.03 0.27,-0.12 0.56,-0.18 0.84,-0.18 0.28,0 0.57,0.06 0.84,0.18 0.42,0.19 0.8,0.54 1.02,1.03l2.51 5.6 0.93 0c0.49,0 0.95,0.2 1.28,0.52l0.04 0.03c0.34,0.34 0.54,0.81 0.54,1.32l0 2.41c0.58,0.05 1.1,0.3 1.48,0.69 0.43,0.42 0.7,1.02 0.7,1.67l0 32.19c0,0.65 -0.27,1.24 -0.7,1.67 -0.42,0.42 -1.01,0.69 -1.66,0.69zm21.04 -18.19c-0.38,-0.61 -0.91,-1.12 -1.55,-1.48 -0.61,-0.34 -1.32,-0.54 -2.09,-0.54 -0.76,0 -1.47,0.2 -2.08,0.54 -0.65,0.36 -1.19,0.89 -1.57,1.51 -0.1,0.17 -0.28,0.27 -0.47,0.27l-2.87 0 0 3.92 2.87 0c0.21,0 0.4,0.12 0.49,0.29 0.38,0.61 0.91,1.13 1.54,1.48l0.03 0.02c0.61,0.34 1.31,0.53 2.06,0.53 0.77,0 1.48,-0.2 2.1,-0.54 0.64,-0.37 1.18,-0.89 1.56,-1.52 0.1,-0.17 0.28,-0.26 0.47,-0.26l2.87 0 0 -3.92 -2.87 0c-0.21,0 -0.39,-0.12 -0.49,-0.3zm-1.01 -2.44c0.72,0.4 1.33,0.97 1.8,1.64l2.57 0 0 -10.39c0,-0.38 -0.15,-0.73 -0.4,-0.98 -0.25,-0.25 -0.6,-0.4 -0.98,-0.4l-11.24 0c-0.36,0 -0.7,0.14 -0.94,0.37l-0.03 0.03c-0.25,0.25 -0.4,0.6 -0.4,0.98l0 10.39 2.58 0c0.46,-0.67 1.07,-1.24 1.79,-1.64 0.78,-0.44 1.67,-0.69 2.62,-0.69 0.96,0 1.86,0.25 2.63,0.69zm4.37 7.76l-2.57 0c-0.47,0.67 -1.08,1.23 -1.8,1.64 -0.77,0.43 -1.67,0.68 -2.63,0.68 -0.93,0 -1.82,-0.24 -2.59,-0.67l-0.03 -0.02c-0.72,-0.4 -1.33,-0.96 -1.79,-1.63l-2.58 0 0 10.39c0,0.37 0.14,0.7 0.38,0.95l0.02 0.02c0.25,0.25 0.59,0.41 0.97,0.41l11.24 0c0.38,0 0.73,-0.16 0.98,-0.41 0.25,-0.24 0.4,-0.59 0.4,-0.97l0 -10.39zm-5.17 -22.47c-0.55,-1.51 -1.69,-4.65 -1.79,-4.74l-0.07 0 -0.05 0.05 -1.74 4.69 1.82 0 1.83 0zm-4.82 0l1.87 -5.06c0.14,-0.37 0.41,-0.6 0.71,-0.71 0.14,-0.05 0.28,-0.08 0.42,-0.08 0.14,0 0.29,0.03 0.42,0.08 0.29,0.11 0.54,0.33 0.68,0.67l1.89 5.1 1.66 0c0.19,0 0.36,0.07 0.5,0.17 0.13,0.1 0.24,0.24 0.3,0.39 0.06,0.14 0.1,0.3 0.1,0.45 0,0.22 -0.07,0.45 -0.21,0.64l-1.38 1.82 1.65 0c0.68,0 1.31,0.28 1.76,0.73 0.45,0.45 0.73,1.07 0.73,1.76l0 10.94 0 5.02 0 10.94c0,0.68 -0.28,1.3 -0.73,1.75 -0.45,0.45 -1.07,0.73 -1.76,0.73l-11.24 0c-0.68,0 -1.3,-0.28 -1.75,-0.73l-0.03 -0.03c-0.43,-0.45 -0.7,-1.06 -0.7,-1.72l0 -10.94 0 -5.02 0 -10.94c0,-0.69 0.28,-1.31 0.73,-1.76l0.04 -0.03c0.44,-0.43 1.05,-0.7 1.71,-0.7l1.66 0 -1.38 -1.82c-0.13,-0.17 -0.19,-0.38 -0.21,-0.58l0 -0.06c0,-0.15 0.04,-0.31 0.09,-0.44 0.06,-0.14 0.15,-0.27 0.27,-0.37l0.02 -0.02c0.15,-0.11 0.32,-0.18 0.51,-0.18l1.67 0zm5.58 3.47l1.79 -2.36 -4.38 0 -4.37 0 1.8 2.36 5.16 0zm-30.14 -9.32l6.33 0 -2.3 -5.15c-0.11,-0.23 -0.28,-0.39 -0.47,-0.48 -0.12,-0.05 -0.25,-0.08 -0.39,-0.08 -0.14,0 -0.28,0.03 -0.39,0.08 -0.2,0.09 -0.37,0.25 -0.47,0.48l-2.31 5.15zm-2.9 4.28l12.13 0 0 -2.41c0,-0.21 -0.08,-0.4 -0.22,-0.54l-0.03 -0.02c-0.13,-0.13 -0.31,-0.2 -0.51,-0.2l-1.29 0 -8.03 0 -0.02 0 -1.27 0c-0.21,0 -0.4,0.08 -0.54,0.22l-0.02 0.02c-0.13,0.14 -0.2,0.32 -0.2,0.52l0 2.41zm-0.91 35.81l13.96 0c0.34,0 0.66,-0.14 0.88,-0.37 0.23,-0.23 0.37,-0.54 0.37,-0.89l0 -32.19c0,-0.35 -0.14,-0.67 -0.36,-0.89 -0.23,-0.23 -0.55,-0.37 -0.9,-0.37l-0.36 0 -13.23 0 -0.36 0c-0.35,0 -0.67,0.14 -0.9,0.37 -0.22,0.22 -0.36,0.54 -0.36,0.89l0 32.19c0,0.35 0.14,0.66 0.36,0.89 0.23,0.23 0.55,0.37 0.9,0.37z"/>
  <path class="fil1" d="M18.92 45.16l0 -24.96c-0.91,-0.39 -1.66,-1.05 -2.17,-1.87 -0.81,1.34 -2.32,2.25 -4.05,2.25 -1.73,0 -3.23,-0.91 -4.06,-2.25 -0.59,0.98 -1.57,1.73 -2.72,2.06l0 24.77 13 0z"/>
 </g>
</svg>
