<?xml version="1.0" encoding="UTF-8"?>
<!DOCTYPE svg PUBLIC "-//W3C//DTD SVG 1.1//EN" "http://www.w3.org/Graphics/SVG/1.1/DTD/svg11.dtd">
<!-- Creator: CorelDRAW 2019 (64-Bit) -->
<svg xmlns="http://www.w3.org/2000/svg" xml:space="preserve" width="48px" height="48px" version="1.1" style="shape-rendering:geometricPrecision; text-rendering:geometricPrecision; image-rendering:optimizeQuality; fill-rule:evenodd; clip-rule:evenodd"
viewBox="0 0 48 48"
 xmlns:xlink="http://www.w3.org/1999/xlink">
 <defs>
  <style type="text/css">
   <![CDATA[
    .fil0 {fill:gray;fill-rule:nonzero}
    .fil1 {fill:#C9DADD;fill-rule:nonzero}
   ]]>
  </style>
 </defs>
 <g id="Слой_x0020_1">
  <metadata id="CorelCorpID_0Corel-Layer"/>
  <path class="fil0" d="M37.06 24c0,3.6 -1.46,6.87 -3.82,9.24 -2.37,2.36 -5.64,3.82 -9.24,3.82 -3.61,0 -6.88,-1.46 -9.24,-3.82 -2.36,-2.36 -3.83,-5.63 -3.83,-9.24 0,-3.6 1.47,-6.87 3.83,-9.24l0.03 -0.03c2.37,-2.34 5.62,-3.79 9.21,-3.79 3.6,0 6.87,1.46 9.24,3.82 2.36,2.37 3.82,5.64 3.82,9.24zm-11.58 -22.88l-2.96 0c-0.5,0 -0.95,0.21 -1.28,0.53 -0.33,0.33 -0.53,0.79 -0.53,1.29 0,0.65 -0.21,1.26 -0.58,1.75 -0.37,0.5 -0.89,0.88 -1.51,1.06l-0.03 0.01c-0.62,0.18 -1.24,0.4 -1.85,0.66l-0.02 0c-0.61,0.26 -1.22,0.55 -1.82,0.87l-0.04 0.02c-0.56,0.29 -1.18,0.39 -1.77,0.3 -0.6,-0.08 -1.17,-0.36 -1.62,-0.8l-0.03 -0.03c-0.36,-0.35 -0.83,-0.53 -1.29,-0.53 -0.47,0 -0.93,0.18 -1.29,0.53l-2.11 2.11c-0.33,0.35 -0.5,0.81 -0.5,1.26 0,0.46 0.16,0.91 0.5,1.26l0.03 0.03c0.46,0.45 0.74,1.04 0.83,1.65 0.09,0.61 -0.01,1.25 -0.32,1.82l-0.02 0.03c-0.31,0.56 -0.59,1.16 -0.85,1.78l-0.01 0.02c-0.25,0.61 -0.47,1.24 -0.66,1.88l-0.01 0.03c-0.19,0.61 -0.56,1.12 -1.05,1.48 -0.49,0.36 -1.11,0.58 -1.75,0.58 -0.5,0 -0.96,0.2 -1.29,0.53 -0.32,0.33 -0.53,0.78 -0.53,1.28l0 2.96c0,0.5 0.21,0.95 0.53,1.28 0.33,0.33 0.79,0.53 1.29,0.53 0.65,0 1.26,0.22 1.75,0.58 0.5,0.37 0.88,0.89 1.05,1.51 0.2,0.65 0.42,1.28 0.68,1.9 0.26,0.63 0.55,1.23 0.87,1.81 0.31,0.57 0.41,1.21 0.32,1.82 -0.09,0.61 -0.37,1.19 -0.83,1.65l-0.03 0.03c-0.33,0.35 -0.5,0.81 -0.5,1.26 0,0.47 0.18,0.93 0.53,1.28l2.08 2.09c0.36,0.35 0.82,0.53 1.29,0.53 0.46,0 0.92,-0.17 1.27,-0.51l0.05 -0.06c0.46,-0.43 1.02,-0.71 1.62,-0.79l0.02 -0.01c0.6,-0.08 1.23,0.02 1.79,0.33 0.58,0.32 1.19,0.61 1.82,0.87 0.62,0.25 1.25,0.48 1.9,0.67l0.03 0.01c0.6,0.19 1.12,0.56 1.48,1.05 0.36,0.49 0.58,1.1 0.58,1.75 0,0.5 0.2,0.96 0.53,1.29 0.33,0.32 0.78,0.53 1.28,0.53l2.96 0c0.5,0 0.95,-0.21 1.28,-0.53 0.33,-0.33 0.53,-0.79 0.53,-1.29 0,-0.64 0.21,-1.26 0.58,-1.76 0.37,-0.49 0.89,-0.87 1.51,-1.04 0.65,-0.2 1.28,-0.43 1.91,-0.68 0.61,-0.26 1.22,-0.55 1.8,-0.87l0.04 -0.02c0.56,-0.29 1.18,-0.39 1.78,-0.3 0.61,0.09 1.2,0.37 1.65,0.83l0.03 0.03c0.35,0.33 0.8,0.5 1.26,0.5 0.46,0 0.93,-0.18 1.28,-0.53l2.11 -2.11c0.34,-0.35 0.51,-0.8 0.51,-1.26 0,-0.46 -0.18,-0.93 -0.53,-1.29l-0.04 -0.04c-0.44,-0.45 -0.71,-1.02 -0.79,-1.61l-0.01 -0.02c-0.08,-0.6 0.02,-1.23 0.33,-1.8 0.32,-0.58 0.61,-1.19 0.87,-1.82 0.26,-0.62 0.48,-1.25 0.67,-1.89 0.18,-0.62 0.56,-1.14 1.06,-1.51 0.49,-0.37 1.1,-0.58 1.75,-0.58 0.5,0 0.96,-0.2 1.29,-0.53 0.32,-0.33 0.53,-0.78 0.53,-1.28l0 -2.96c0,-0.5 -0.21,-0.95 -0.53,-1.28 -0.33,-0.33 -0.79,-0.53 -1.29,-0.53 -0.65,0 -1.26,-0.21 -1.75,-0.58 -0.5,-0.37 -0.88,-0.89 -1.06,-1.51 -0.19,-0.64 -0.41,-1.28 -0.67,-1.89 -0.25,-0.62 -0.55,-1.23 -0.87,-1.82 -0.31,-0.57 -0.41,-1.21 -0.32,-1.82l0 -0.02c0.09,-0.6 0.38,-1.18 0.83,-1.63 0.35,-0.36 0.53,-0.82 0.53,-1.29 0,-0.46 -0.18,-0.93 -0.53,-1.28l-2.09 -2.09c-0.35,-0.35 -0.82,-0.53 -1.28,-0.53 -0.47,0 -0.94,0.18 -1.29,0.53 -0.46,0.46 -1.04,0.74 -1.65,0.83 -0.61,0.09 -1.25,-0.01 -1.82,-0.32 -0.58,-0.32 -1.19,-0.61 -1.82,-0.87l-0.02 -0.01c-0.61,-0.25 -1.24,-0.47 -1.87,-0.66 -0.62,-0.18 -1.14,-0.56 -1.51,-1.05 -0.37,-0.5 -0.58,-1.11 -0.58,-1.76 0,-0.5 -0.2,-0.96 -0.53,-1.28 -0.33,-0.33 -0.78,-0.54 -1.28,-0.54zm-2.96 -1.12l2.96 0c0.8,0 1.54,0.33 2.07,0.86 0.54,0.54 0.86,1.27 0.86,2.08 0,0.4 0.14,0.78 0.36,1.09 0.22,0.3 0.54,0.53 0.92,0.65 0.68,0.19 1.35,0.43 1.99,0.69l0.02 0.01c0.65,0.27 1.3,0.58 1.93,0.93 0.35,0.18 0.74,0.25 1.12,0.19 0.37,-0.05 0.73,-0.23 1.02,-0.51 0.57,-0.57 1.32,-0.86 2.08,-0.86 0.74,0 1.5,0.28 2.07,0.86l2.09 2.08c0.57,0.58 0.86,1.33 0.86,2.08 0,0.76 -0.29,1.51 -0.86,2.08 -0.28,0.28 -0.45,0.64 -0.51,1.01l0 0.01c-0.06,0.38 0,0.77 0.19,1.12 0.34,0.62 0.65,1.27 0.93,1.93 0.27,0.65 0.5,1.32 0.7,2.01 0.12,0.37 0.35,0.7 0.65,0.92 0.31,0.22 0.69,0.36 1.09,0.36 0.81,0 1.54,0.32 2.07,0.86 0.54,0.53 0.87,1.27 0.87,2.07l0 2.96c0,0.81 -0.33,1.54 -0.86,2.07 -0.53,0.54 -1.27,0.86 -2.08,0.86 -0.4,0 -0.78,0.14 -1.09,0.36 -0.3,0.23 -0.53,0.55 -0.65,0.93 -0.2,0.68 -0.43,1.35 -0.7,2 -0.27,0.66 -0.58,1.3 -0.93,1.93 -0.18,0.34 -0.25,0.73 -0.2,1.1l0.01 0.02c0.05,0.37 0.23,0.73 0.51,1.02l0.04 0.04c0.55,0.57 0.82,1.31 0.82,2.04 0,0.73 -0.27,1.47 -0.83,2.04l-2.12 2.12c-0.57,0.58 -1.32,0.87 -2.07,0.87 -0.76,0 -1.51,-0.29 -2.08,-0.87l-0.03 -0.03c-0.28,-0.26 -0.63,-0.43 -0.99,-0.48 -0.37,-0.06 -0.76,0 -1.1,0.18l-0.02 0.01c-0.62,0.34 -1.26,0.65 -1.92,0.92 -0.65,0.27 -1.32,0.51 -2.02,0.72 -0.38,0.11 -0.7,0.34 -0.92,0.64 -0.22,0.31 -0.36,0.69 -0.36,1.09 0,0.81 -0.32,1.55 -0.86,2.08 -0.53,0.53 -1.26,0.86 -2.07,0.86l-2.96 0c-0.81,0 -1.54,-0.33 -2.08,-0.86 -0.53,-0.53 -0.85,-1.27 -0.85,-2.08 0,-0.4 -0.14,-0.78 -0.36,-1.09 -0.22,-0.29 -0.54,-0.52 -0.9,-0.64l-0.03 0c-0.69,-0.21 -1.36,-0.45 -2.01,-0.72 -0.65,-0.27 -1.3,-0.57 -1.92,-0.92 -0.34,-0.18 -0.73,-0.25 -1.1,-0.2l-0.02 0.01c-0.36,0.05 -0.71,0.22 -0.99,0.48l-0.03 0.03c-0.57,0.58 -1.33,0.87 -2.08,0.87 -0.75,0 -1.51,-0.29 -2.08,-0.87l-2.08 -2.08c-0.58,-0.58 -0.87,-1.33 -0.87,-2.08 0,-0.74 0.28,-1.47 0.83,-2.04l0.03 -0.04c0.29,-0.29 0.47,-0.65 0.52,-1.02 0.06,-0.38 0,-0.77 -0.19,-1.12 -0.35,-0.63 -0.65,-1.27 -0.92,-1.92 -0.27,-0.65 -0.51,-1.32 -0.72,-2.01 -0.11,-0.38 -0.34,-0.7 -0.64,-0.93 -0.31,-0.22 -0.69,-0.36 -1.09,-0.36 -0.81,0 -1.55,-0.32 -2.08,-0.85 -0.53,-0.54 -0.86,-1.27 -0.86,-2.08l0 -2.96c0,-0.81 0.33,-1.54 0.86,-2.07 0.53,-0.54 1.27,-0.86 2.08,-0.86 0.4,0 0.78,-0.14 1.09,-0.36 0.29,-0.22 0.52,-0.53 0.64,-0.9l0 -0.02c0.2,-0.68 0.44,-1.35 0.71,-2l0.01 -0.02c0.26,-0.64 0.56,-1.28 0.9,-1.89l0.02 -0.03c0.19,-0.35 0.25,-0.74 0.19,-1.12 -0.05,-0.36 -0.22,-0.71 -0.48,-0.99l-0.03 -0.03c-0.58,-0.57 -0.87,-1.32 -0.87,-2.08 0,-0.73 0.28,-1.47 0.83,-2.04l2.12 -2.12c0.58,-0.57 1.33,-0.86 2.08,-0.86 0.74,0 1.48,0.27 2.05,0.83l0.03 0.03c0.28,0.28 0.65,0.46 1.02,0.51 0.36,0.06 0.74,0 1.08,-0.17l0.04 -0.03c0.61,-0.33 1.25,-0.64 1.92,-0.91l0.02 -0.01c0.63,-0.26 1.29,-0.5 1.97,-0.7l0.02 0c0.38,-0.12 0.7,-0.35 0.93,-0.65 0.22,-0.31 0.36,-0.69 0.36,-1.09 0,-0.81 0.32,-1.55 0.86,-2.08 0.53,-0.53 1.26,-0.86 2.07,-0.86zm9.92 32.44c2.17,-2.16 3.5,-5.14 3.5,-8.44 0,-3.3 -1.34,-6.28 -3.5,-8.44 -2.16,-2.16 -5.14,-3.5 -8.44,-3.5 -3.28,0 -6.26,1.33 -8.42,3.47l-0.03 0.03c-2.16,2.16 -3.49,5.14 -3.49,8.44 0,3.3 1.33,6.28 3.49,8.44 2.16,2.16 5.15,3.5 8.45,3.5 3.3,0 6.28,-1.33 8.44,-3.5z"/>
  <path class="fil1" d="M6.58 24l2.65 0c0,-8.16 6.61,-14.77 14.77,-14.77 8.16,0 14.77,6.61 14.77,14.77l2.65 0c0,-9.62 -7.8,-17.42 -17.42,-17.42 -9.62,0 -17.42,7.8 -17.42,17.42z"/>
 </g>
</svg>
