<?xml version="1.0" encoding="UTF-8"?>
<!DOCTYPE svg PUBLIC "-//W3C//DTD SVG 1.1//EN" "http://www.w3.org/Graphics/SVG/1.1/DTD/svg11.dtd">
<!-- Creator: CorelDRAW 2019 (64-Bit) -->
<svg xmlns="http://www.w3.org/2000/svg" xml:space="preserve" width="48px" height="48px" version="1.1" style="shape-rendering:geometricPrecision; text-rendering:geometricPrecision; image-rendering:optimizeQuality; fill-rule:evenodd; clip-rule:evenodd"
viewBox="0 0 48 48"
 xmlns:xlink="http://www.w3.org/1999/xlink">
 <defs>
  <style type="text/css">
   <![CDATA[
    .fil1 {fill:gray}
    .fil0 {fill:#C9DADD}
   ]]>
  </style>
 </defs>
 <g id="Слой_x0020_1">
  <metadata id="CorelCorpID_0Corel-Layer"/>
  <path class="fil0" d="M44.97 44.82c-0.07,0.18 -0.19,0.18 -0.27,0.18l-41.41 0c-0.16,0 -0.29,-0.13 -0.29,-0.29l0 -41.41c0,-0.3 0.3,-0.3 0.32,-0.3 0.04,0 0.09,0.01 0.18,0.09l6.91 6.92 -1.59 1.59c-0.29,0.29 -0.29,0.77 0,1.06l1.06 1.06c0.14,0.14 0.34,0.22 0.53,0.22 0,0 0,0 0,0 0.2,0 0.39,-0.07 0.54,-0.22l1.59 -1.59 4.24 4.24 -1.59 1.59c-0.29,0.3 -0.29,0.77 0,1.07l1.06 1.05c0.14,0.15 0.33,0.22 0.53,0.22 0,0 0,0 0,0 0.19,0 0.38,-0.07 0.53,-0.22l1.59 -1.59 4.24 4.25 -1.59 1.59c-0.29,0.29 -0.29,0.77 0,1.06l1.06 1.06c0.14,0.14 0.33,0.22 0.53,0.22 0,0 0,0 0,0 0.2,0 0.39,-0.08 0.54,-0.22l1.59 -1.59 4.24 4.24 -1.59 1.59c-0.3,0.29 -0.3,0.77 0,1.06l1.06 1.06c0.14,0.15 0.34,0.22 0.53,0.22 0.19,0 0.38,-0.07 0.53,-0.22l1.59 -1.59 4.24 4.24 -1.59 1.59c-0.29,0.3 -0.29,0.77 0,1.06l1.06 1.06c0.15,0.15 0.34,0.22 0.53,0.22 0.19,0 0.39,-0.07 0.53,-0.22l1.59 -1.59 6.92 6.92c0.05,0.06 0.14,0.14 0.06,0.32l0 0zm-32.97 -8.82l0 -9.88 9.88 9.88 -9.88 0 0 0z"/>
  <path class="fil1" d="M12 36l0 -9.88 9.88 9.88 -9.88 0 0 0zm-0.44 -14.56c-0.43,-0.43 -1.08,-0.56 -1.64,-0.33 -0.56,0.24 -0.92,0.78 -0.92,1.39 0,0 0,0 0,0l0 15c0,0.83 0.67,1.5 1.5,1.5l15 0c0.61,0 1.15,-0.37 1.39,-0.93 0.07,-0.18 0.11,-0.37 0.11,-0.57 0,-0.4 -0.16,-0.78 -0.44,-1.06l-15 -15 0 0zm33.41 23.38c-0.07,0.18 -0.19,0.18 -0.27,0.18l-41.41 0c-0.16,0 -0.29,-0.13 -0.29,-0.29l0 -41.41c0,-0.3 0.3,-0.3 0.32,-0.3 0.04,0 0.09,0.01 0.18,0.09l6.91 6.92 -1.59 1.59c-0.29,0.29 -0.29,0.77 0,1.06l1.06 1.06c0.14,0.14 0.34,0.22 0.53,0.22 0,0 0,0 0,0 0.2,0 0.39,-0.07 0.54,-0.22l1.59 -1.59 4.24 4.24 -1.59 1.59c-0.29,0.3 -0.29,0.77 0,1.07l1.06 1.05c0.14,0.15 0.33,0.22 0.53,0.22 0,0 0,0 0,0 0.19,0 0.38,-0.07 0.53,-0.22l1.59 -1.59 4.24 4.25 -1.59 1.59c-0.29,0.29 -0.29,0.77 0,1.06l1.06 1.06c0.14,0.14 0.33,0.22 0.53,0.22 0,0 0,0 0,0 0.2,0 0.39,-0.08 0.54,-0.22l1.59 -1.59 4.24 4.24 -1.59 1.59c-0.3,0.29 -0.3,0.77 0,1.06l1.06 1.06c0.14,0.15 0.34,0.22 0.53,0.22 0.19,0 0.38,-0.07 0.53,-0.22l1.59 -1.59 4.24 4.24 -1.59 1.59c-0.29,0.3 -0.29,0.77 0,1.06l1.06 1.06c0.15,0.15 0.34,0.22 0.53,0.22 0.19,0 0.39,-0.07 0.53,-0.22l1.59 -1.59 6.92 6.92c0.05,0.06 0.14,0.14 0.06,0.32l0 0zm2.06 -2.44l-41.41 -41.41c-0.67,-0.67 -1.5,-0.97 -2.31,-0.97 -1.69,0 -3.31,1.31 -3.31,3.3l0 41.41c0,1.82 1.47,3.29 3.29,3.29l41.41 0c2.93,0 4.4,-3.54 2.33,-5.62l0 0z"/>
 </g>
</svg>
