<?xml version="1.0" encoding="UTF-8"?>
<!DOCTYPE svg PUBLIC "-//W3C//DTD SVG 1.1//EN" "http://www.w3.org/Graphics/SVG/1.1/DTD/svg11.dtd">
<!-- Creator: CorelDRAW 2019 (64-Bit) -->
<svg xmlns="http://www.w3.org/2000/svg" xml:space="preserve" width="48px" height="48px" version="1.1" style="shape-rendering:geometricPrecision; text-rendering:geometricPrecision; image-rendering:optimizeQuality; fill-rule:evenodd; clip-rule:evenodd"
viewBox="0 0 48 48"
 xmlns:xlink="http://www.w3.org/1999/xlink">
 <defs>
  <style type="text/css">
   <![CDATA[
    .fil0 {fill:gray}
    .fil1 {fill:#C9DADD}
   ]]>
  </style>
 </defs>
 <g id="Слой_x0020_1">
  <metadata id="CorelCorpID_0Corel-Layer"/>
  <path class="fil0" d="M24 3c-13.25,0 -23.99,8.73 -23.99,19.5 0,4.46 1.86,8.55 4.96,11.84 -1.4,3.69 -4.31,6.82 -4.35,6.86 -0.62,0.66 -0.79,1.61 -0.44,2.44 0.36,0.82 1.17,1.36 2.07,1.36 5.76,0 10.31,-2.41 13.04,-4.34 2.71,0.85 5.64,1.34 8.71,1.34 13.26,0 24,-8.73 24,-19.5 0,-10.77 -10.74,-19.5 -24,-19.5z"/>
  <path class="fil1" d="M28.5 16.5l-1.5 0c-0.57,0 -1.08,0.32 -1.34,0.83l-1.66 3.31 -1.66 -3.31c-0.25,-0.51 -0.76,-0.83 -1.34,-0.83l-1.5 0c-0.82,0 -1.5,0.68 -1.5,1.5l0 9.75c0,0.41 0.34,0.75 0.75,0.75l1.5 0c0.42,0 0.75,-0.34 0.75,-0.75l0 -6.39 2.33 5.23c0.27,0.55 1.07,0.55 1.34,0l2.32 -5.23 0 6.39c0,0.41 0.34,0.75 0.75,0.75l1.5 0c0.42,0 0.75,-0.34 0.75,-0.75l0 -9.75c0.01,-0.82 -0.66,-1.5 -1.49,-1.5zm-15.8 3.99c-0.13,-0.12 -0.2,-0.24 -0.2,-0.36 0,-0.29 0.42,-0.62 0.98,-0.62l1.15 0c0.41,0 0.75,-0.34 0.75,-0.75l0 -1.5c0,-0.41 -0.34,-0.75 -0.75,-0.75l-1.14 0c-2.2,0 -3.98,1.62 -3.98,3.62 0,1 0.46,1.96 1.25,2.63l2.05 1.76c0.13,0.12 0.2,0.24 0.2,0.36 0,0.29 -0.42,0.62 -0.98,0.62l-1.15 0c-0.41,0 -0.75,0.34 -0.75,0.75l0 1.5c0,0.41 0.34,0.75 0.75,0.75l1.15 0c2.2,0 3.98,-1.62 3.98,-3.62 0,-1 -0.46,-1.96 -1.25,-2.63l-2.06 -1.76 0 0zm22.5 0c-0.14,-0.12 -0.2,-0.24 -0.2,-0.36 0,-0.29 0.42,-0.62 0.97,-0.62l1.16 0c0.41,0 0.75,-0.34 0.75,-0.75l0 -1.5c0,-0.41 -0.34,-0.75 -0.75,-0.75l-1.16 0c-2.19,0 -3.97,1.62 -3.97,3.62 0,1 0.46,1.96 1.25,2.63l2.05 1.76c0.13,0.12 0.2,0.24 0.2,0.36 0,0.29 -0.43,0.62 -0.98,0.62l-1.14 0c-0.42,0 -0.75,0.34 -0.75,0.75l0 1.5c0,0.41 0.33,0.75 0.75,0.75l1.15 0c2.19,0 3.97,-1.62 3.97,-3.62 0,-1 -0.46,-1.96 -1.24,-2.63l-2.06 -1.76 0 0zm-11.2 18.51c-2.65,0 -5.27,-0.41 -7.8,-1.2l-1.42 -0.45 -1.22 0.86c-2.16,1.53 -5.48,3.31 -9.62,3.71 1.13,-1.41 2.8,-3.78 3.83,-6.52l0.66 -1.76 -1.28 -1.36c-2.7,-2.87 -4.13,-6.26 -4.13,-9.78 0,-9.09 9.42,-16.5 20.99,-16.5 11.58,0 21,7.41 21,16.5 0,9.09 -9.43,16.5 -21.01,16.5z"/>
 </g>
</svg>
