<?xml version="1.0" encoding="UTF-8"?>
<!DOCTYPE svg PUBLIC "-//W3C//DTD SVG 1.1//EN" "http://www.w3.org/Graphics/SVG/1.1/DTD/svg11.dtd">
<!-- Creator: CorelDRAW 2019 (64-Bit) -->
<svg xmlns="http://www.w3.org/2000/svg" xml:space="preserve" width="48px" height="48px" version="1.1" style="shape-rendering:geometricPrecision; text-rendering:geometricPrecision; image-rendering:optimizeQuality; fill-rule:evenodd; clip-rule:evenodd"
viewBox="0 0 48 48"
 xmlns:xlink="http://www.w3.org/1999/xlink">
 <defs>
  <style type="text/css">
   <![CDATA[
    .fil0 {fill:gray;fill-rule:nonzero}
    .fil1 {fill:#FBE0DC;fill-rule:nonzero}
   ]]>
  </style>
 </defs>
 <g id="Слой_x0020_1">
  <metadata id="CorelCorpID_0Corel-Layer"/>
  <path class="fil0" d="M39.72 16.75c-0.46,0 -0.88,0.16 -1.21,0.41 -0.35,0.27 -0.62,0.66 -0.75,1.12 -0.83,2.8 -2.66,5.23 -5.12,6.94 -2.39,1.67 -5.39,2.66 -8.64,2.66 -3.25,0 -6.25,-0.99 -8.64,-2.66 -2.46,-1.71 -4.29,-4.14 -5.12,-6.94 -0.13,-0.46 -0.4,-0.85 -0.75,-1.12 -0.33,-0.25 -0.75,-0.41 -1.21,-0.41l-5.29 0c-0.16,0 -0.31,0.02 -0.46,0.06 -0.41,0.1 -0.77,0.34 -1.02,0.66l-0.02 0.03c-0.24,0.32 -0.38,0.71 -0.38,1.13 0,0.15 0.02,0.31 0.05,0.46l6.43 26.19c0.06,0.26 0.17,0.5 0.33,0.71l3.66 -4.11c0.38,-0.41 0.82,-0.74 1.31,-0.96 0.5,-0.22 1.04,-0.34 1.58,-0.34l19.06 0c0.54,0 1.08,0.12 1.58,0.34 0.48,0.22 0.93,0.54 1.3,0.95l3.67 4.12c0.16,-0.21 0.27,-0.45 0.33,-0.71l6.43 -26.19c0.03,-0.15 0.05,-0.31 0.05,-0.46 0,-0.43 -0.15,-0.84 -0.4,-1.16 -0.25,-0.32 -0.61,-0.56 -1.02,-0.66 -0.15,-0.04 -0.3,-0.06 -0.46,-0.06l-5.29 0zm-30.93 29.93c0.24,0.1 0.51,0.16 0.79,0.16l28.84 0c0.28,0 0.55,-0.06 0.79,-0.16l-3.62 -4.07c-0.27,-0.3 -0.59,-0.53 -0.93,-0.68 -0.35,-0.16 -0.74,-0.24 -1.13,-0.24l-19.06 0c-0.39,0 -0.78,0.08 -1.13,0.24 -0.35,0.16 -0.67,0.39 -0.93,0.68l-3.62 4.07zm29.3 -32.22c-0.05,0.3 -0.33,0.52 -0.63,0.47 -0.3,-0.04 -0.51,-0.32 -0.47,-0.63l1.16 -7.81c0.06,-0.41 -0.05,-0.8 -0.28,-1.1 -0.22,-0.3 -0.56,-0.52 -0.96,-0.58l-2.52 -0.38c-0.4,-0.06 -0.8,0.06 -1.1,0.28 -0.3,0.23 -0.52,0.57 -0.58,0.98 -0.05,0.3 -0.33,0.51 -0.63,0.46 -0.3,-0.04 -0.51,-0.32 -0.47,-0.63 0.11,-0.7 0.49,-1.3 1.02,-1.7 0.53,-0.39 1.22,-0.58 1.92,-0.48l2.52 0.37c0.7,0.11 1.3,0.49 1.69,1.02 0.39,0.53 0.59,1.21 0.48,1.91l-1.15 7.82zm4.5 1.18l1.08 -5c0.08,-0.39 -0.01,-0.78 -0.21,-1.09 -0.2,-0.31 -0.52,-0.54 -0.9,-0.64l-1.78 -0.38c-0.3,-0.07 -0.49,-0.36 -0.43,-0.66 0.07,-0.3 0.36,-0.49 0.66,-0.42l1.76 0.38c0.69,0.15 1.26,0.57 1.62,1.13 0.36,0.55 0.5,1.25 0.35,1.94l-1.02 4.74 1.29 0c0.24,0 0.48,0.04 0.72,0.09 0.66,0.17 1.23,0.55 1.63,1.06 0.4,0.51 0.64,1.16 0.64,1.84 0,0.23 -0.03,0.48 -0.09,0.72l-6.42 26.19c-0.17,0.67 -0.54,1.24 -1.04,1.66l-0.01 0.01 0 0 -0.01 0.01 -0.01 0.01 0 0 -0.01 0.01 -0.01 0.01 -0.01 0 0 0 -0.01 0.01 -0.01 0.01c-0.55,0.42 -1.22,0.67 -1.95,0.67l-28.84 0c-0.71,0 -1.37,-0.24 -1.91,-0.64l-0.04 -0.03 -0.01 -0.01 -0.01 -0.01 0 0 -0.01 0 -0.01 -0.01 -0.01 -0.01 0 0 -0.01 -0.01 -0.01 -0.01 0 0 -0.01 -0.01c-0.5,-0.42 -0.87,-0.99 -1.04,-1.66l-6.42 -26.19c-0.06,-0.24 -0.09,-0.49 -0.09,-0.72 0,-0.66 0.23,-1.29 0.61,-1.8l0.03 -0.04c0.4,-0.51 0.97,-0.89 1.63,-1.06 0.24,-0.05 0.48,-0.09 0.72,-0.09l0.32 0 -1.03 -4.76c-0.14,-0.69 0.01,-1.38 0.36,-1.92 0.36,-0.56 0.94,-0.98 1.63,-1.13l1.76 -0.38c0.3,-0.06 0.59,0.13 0.65,0.42 0.07,0.3 -0.12,0.59 -0.42,0.66l-1.76 0.38c-0.39,0.08 -0.72,0.33 -0.93,0.64 -0.2,0.32 -0.29,0.71 -0.21,1.11l1.08 4.98 3.84 0c0.7,0 1.36,0.25 1.89,0.65 0.53,0.41 0.93,1 1.13,1.67 0.76,2.56 2.43,4.78 4.69,6.36 1.62,1.13 3.55,1.92 5.65,2.27l-0.4 -16.4c-0.01,-0.41 -0.19,-0.77 -0.46,-1.03 -0.26,-0.25 -0.63,-0.41 -1.02,-0.41 -0.85,0.04 -1.73,0.02 -2.58,0.07 -0.41,0.01 -0.77,0.18 -1.03,0.45 -0.25,0.27 -0.41,0.63 -0.41,1.02l0.27 10.81c0,0.3 -0.24,0.56 -0.54,0.56 -0.31,0.01 -0.56,-0.23 -0.57,-0.54l-0.27 -10.82c0,-0.69 0.28,-1.32 0.72,-1.79 0.46,-0.48 1.1,-0.78 1.81,-0.8 0.86,0 1.73,-0.06 2.59,-0.06 0.69,0 1.33,0.27 1.79,0.71 0.48,0.46 0.79,1.1 0.8,1.81 0,5.45 0.27,11.08 0.41,16.55 0.41,0.04 0.83,0.06 1.25,0.06 3.02,0 5.8,-0.92 8.01,-2.46 2.26,-1.58 3.93,-3.8 4.69,-6.36 0.2,-0.67 0.6,-1.26 1.13,-1.67 0.53,-0.4 1.19,-0.65 1.89,-0.65l2.87 0zm-21.84 -9.6c0,0.3 -0.25,0.55 -0.55,0.55 -0.31,0 -0.56,-0.25 -0.56,-0.55l0 -0.85c0,-0.71 0.3,-1.36 0.76,-1.83 0.47,-0.47 1.12,-0.76 1.84,-0.76l2.56 0c0.71,0 1.36,0.29 1.83,0.76 0.47,0.46 0.76,1.11 0.76,1.83l0 18.74c0,0.3 -0.25,0.55 -0.55,0.55 -0.31,0 -0.56,-0.25 -0.56,-0.55l0 -18.74c0,-0.41 -0.16,-0.79 -0.43,-1.05 -0.27,-0.27 -0.64,-0.44 -1.05,-0.44l-2.56 0c-0.41,0 -0.79,0.17 -1.05,0.44 -0.27,0.26 -0.44,0.64 -0.44,1.05l0 0.85zm8.8 4.34c-0.3,-0.03 -0.52,-0.31 -0.48,-0.61 0.03,-0.31 0.31,-0.52 0.61,-0.49l2.57 0.33c0.68,0.1 1.27,0.46 1.67,0.97l0.03 0.04c0.38,0.52 0.58,1.18 0.49,1.87l-1.07 8.52c-0.04,0.3 -0.32,0.52 -0.62,0.48 -0.3,-0.04 -0.52,-0.32 -0.48,-0.62l1.08 -8.51c0.05,-0.4 -0.06,-0.78 -0.28,-1.07l-0.03 -0.03c-0.22,-0.29 -0.56,-0.5 -0.95,-0.56l-2.54 -0.32zm-19.55 3.62c0.04,0.3 -0.17,0.59 -0.47,0.63 -0.3,0.04 -0.58,-0.17 -0.62,-0.47 -0.38,-2.51 -0.76,-5.03 -1.12,-7.55 -0.09,-0.69 0.1,-1.36 0.49,-1.88 0.39,-0.53 0.99,-0.91 1.69,-1.02 0.81,-0.12 1.72,-0.29 2.53,-0.37 0.7,-0.1 1.38,0.09 1.9,0.48 0.53,0.4 0.92,1 1.03,1.7 0.04,0.31 -0.17,0.59 -0.47,0.63 -0.3,0.05 -0.58,-0.16 -0.63,-0.46 -0.06,-0.41 -0.28,-0.75 -0.59,-0.98 -0.29,-0.22 -0.68,-0.33 -1.09,-0.28 -0.83,0.14 -1.69,0.26 -2.53,0.38 -0.4,0.06 -0.74,0.28 -0.96,0.58 -0.22,0.3 -0.33,0.68 -0.27,1.07l1.11 7.54z"/>
  <path class="fil1" d="M24 32.24l-7.77 0c-2.58,0 -5.03,-1.18 -6.64,-3.2l-5.52 -6.91 4.81 19.63 1.14 -1.28c1.13,-1.27 2.75,-1.99 4.45,-1.99l19.05 0c1.7,0 3.33,0.72 4.46,1.99l1.14 1.28 4.82 -19.63 -5.53 6.91c-1.61,2.02 -4.06,3.2 -6.64,3.2l-7.77 0z"/>
 </g>
</svg>
