<?xml version="1.0" encoding="UTF-8"?>
<!DOCTYPE svg PUBLIC "-//W3C//DTD SVG 1.1//EN" "http://www.w3.org/Graphics/SVG/1.1/DTD/svg11.dtd">
<!-- Creator: CorelDRAW 2019 (64-Bit) -->
<svg xmlns="http://www.w3.org/2000/svg" xml:space="preserve" width="48px" height="48px" version="1.1" style="shape-rendering:geometricPrecision; text-rendering:geometricPrecision; image-rendering:optimizeQuality; fill-rule:evenodd; clip-rule:evenodd"
viewBox="0 0 48 48"
 xmlns:xlink="http://www.w3.org/1999/xlink">
 <defs>
  <style type="text/css">
   <![CDATA[
    .fil0 {fill:gray;fill-rule:nonzero}
    .fil1 {fill:#C9DADD;fill-rule:nonzero}
    .fil2 {fill:#FBE0DC;fill-rule:nonzero}
   ]]>
  </style>
 </defs>
 <g id="Слой_x0020_1">
  <metadata id="CorelCorpID_0Corel-Layer"/>
  <path class="fil0" d="M24.95 1.72l6.11 12.36c0.23,0.47 0.57,0.87 0.98,1.16 0.4,0.3 0.88,0.5 1.4,0.57l13.65 1.99c0.25,0.03 0.46,0.15 0.61,0.31 0.11,0.12 0.2,0.26 0.25,0.41 0.05,0.16 0.06,0.32 0.04,0.49 -0.04,0.22 -0.14,0.43 -0.32,0.6l-9.87 9.63c-0.37,0.36 -0.64,0.81 -0.8,1.29 -0.15,0.48 -0.19,1 -0.1,1.51l2.32 13.6c0.04,0.24 -0.01,0.47 -0.1,0.66 -0.08,0.15 -0.19,0.28 -0.32,0.37 -0.13,0.1 -0.28,0.17 -0.45,0.19 -0.22,0.04 -0.45,0.01 -0.67,-0.11l-12.21 -6.41c-0.46,-0.24 -0.96,-0.36 -1.47,-0.36 -0.51,0 -1.02,0.12 -1.47,0.36l-12.21 6.41c-0.23,0.12 -0.46,0.15 -0.68,0.11 -0.16,-0.03 -0.32,-0.09 -0.44,-0.19 -0.13,-0.09 -0.24,-0.22 -0.32,-0.36 -0.1,-0.2 -0.15,-0.43 -0.1,-0.68l2.33 -13.59c0.09,-0.51 0.05,-1.03 -0.11,-1.52 -0.16,-0.47 -0.43,-0.92 -0.8,-1.28l-9.88 -9.63c-0.18,-0.17 -0.28,-0.39 -0.31,-0.6 -0.02,-0.16 -0.01,-0.33 0.04,-0.49 0.05,-0.15 0.14,-0.3 0.25,-0.41 0.16,-0.16 0.37,-0.28 0.61,-0.31l13.65 -1.99c0.51,-0.07 0.99,-0.27 1.4,-0.57 0.41,-0.29 0.75,-0.69 0.98,-1.16l6.11 -12.36c0.11,-0.23 0.28,-0.39 0.48,-0.49l0.01 0c0.14,-0.07 0.3,-0.11 0.46,-0.11 0.15,0 0.31,0.04 0.46,0.11l0.01 0c0.19,0.1 0.37,0.26 0.48,0.49zm5.12 12.85l-6.07 -12.28 -6.07 12.28c-0.31,0.63 -0.77,1.17 -1.32,1.57 -0.55,0.4 -1.2,0.67 -1.9,0.77l-13.56 1.97 9.81 9.57c0.51,0.48 0.88,1.09 1.09,1.73 0.21,0.65 0.27,1.35 0.15,2.05l-2.32 13.51 12.13 -6.38c0.63,-0.33 1.31,-0.49 1.99,-0.49 0.68,0 1.36,0.16 1.98,0.49l12.14 6.38 -2.31 -13.51c-0.13,-0.69 -0.07,-1.39 0.14,-2.04 0.21,-0.65 0.58,-1.25 1.08,-1.74l9.82 -9.57 -13.57 -1.97c-0.69,-0.1 -1.34,-0.37 -1.89,-0.77 -0.55,-0.4 -1.01,-0.94 -1.32,-1.57z"/>
  <path class="fil1" d="M36.74 22.89c0.21,-0.22 0.56,-0.23 0.78,-0.02 0.22,0.21 0.23,0.57 0.02,0.79l-3.45 3.57c-0.53,0.55 -0.92,1.21 -1.15,1.92 -0.24,0.72 -0.31,1.49 -0.21,2.25l0.77 5.79c0.04,0.3 -0.17,0.58 -0.47,0.62 -0.3,0.04 -0.58,-0.17 -0.62,-0.47l-0.77 -5.8c-0.13,-0.93 -0.04,-1.86 0.25,-2.73 0.28,-0.87 0.76,-1.67 1.41,-2.35l3.44 -3.57z"/>
  <path class="fil2" d="M12.13 42.64l3.57 -8.2c2.77,-6.33 -2.33,-10.07 -5.11,-12.54l5.08 -0.39c3.37,-0.49 5.58,-2.84 6.25,-5.91l2.08 -9.49 -4.55 9.21c-0.87,1.77 -2.54,2.98 -4.49,3.27l-10.16 1.47 7.35 7.17c1.41,1.38 2.05,3.35 1.72,5.28l-1.74 10.13z"/>
 </g>
</svg>
