<?xml version="1.0" encoding="UTF-8"?>
<!DOCTYPE svg PUBLIC "-//W3C//DTD SVG 1.1//EN" "http://www.w3.org/Graphics/SVG/1.1/DTD/svg11.dtd">
<!-- Creator: CorelDRAW 2019 (64-Bit) -->
<svg xmlns="http://www.w3.org/2000/svg" xml:space="preserve" width="48px" height="48px" version="1.1" style="shape-rendering:geometricPrecision; text-rendering:geometricPrecision; image-rendering:optimizeQuality; fill-rule:evenodd; clip-rule:evenodd"
viewBox="0 0 48 48"
 xmlns:xlink="http://www.w3.org/1999/xlink">
 <defs>
  <style type="text/css">
   <![CDATA[
    .fil0 {fill:gray;fill-rule:nonzero}
    .fil2 {fill:#C9DADD;fill-rule:nonzero}
    .fil1 {fill:#FBE0DC;fill-rule:nonzero}
   ]]>
  </style>
 </defs>
 <g id="Слой_x0020_1">
  <metadata id="CorelCorpID_0Corel-Layer"/>
  <path class="fil0" d="M32.04 35.66c-0.32,0 -0.58,-0.26 -0.58,-0.58 0,-0.32 0.26,-0.58 0.58,-0.58l6.99 0 0 -28.91c-1.17,-0.13 -2.21,-0.66 -2.99,-1.44 -0.79,-0.79 -1.32,-1.83 -1.45,-3l-10.11 0c-0.13,1.17 -0.66,2.21 -1.44,3l-0.04 0.03c-0.78,0.77 -1.81,1.28 -2.96,1.41l0 3.83c0,0.31 -0.26,0.57 -0.58,0.57 -0.31,0 -0.57,-0.26 -0.57,-0.57l0 -4.37c0,-0.32 0.26,-0.58 0.57,-0.58 1.07,0 2.03,-0.42 2.73,-1.11l0.03 -0.03c0.7,-0.7 1.14,-1.68 1.14,-2.75 0,-0.32 0.26,-0.58 0.58,-0.58l11.19 0c0.32,0 0.58,0.26 0.58,0.58 0,1.07 0.44,2.05 1.14,2.75 0.71,0.7 1.68,1.14 2.76,1.14 0.31,0 0.57,0.26 0.57,0.58l0 30.03c0,0.32 -0.26,0.58 -0.57,0.58l-7.57 0zm-0.82 -28.85c0,-0.46 -0.19,-0.88 -0.49,-1.19 -0.31,-0.3 -0.73,-0.49 -1.19,-0.49 -0.46,0 -0.88,0.19 -1.19,0.5l-0.03 0.02c-0.28,0.3 -0.46,0.71 -0.46,1.16 0,0.47 0.19,0.89 0.49,1.19l0.02 0.03c0.31,0.28 0.72,0.46 1.17,0.46 0.46,0 0.88,-0.19 1.19,-0.49l0.02 -0.02c0.29,-0.3 0.47,-0.72 0.47,-1.17zm0.32 -2c0.51,0.51 0.83,1.22 0.83,2 0,0.77 -0.3,1.46 -0.8,1.97l-0.03 0.04c-0.51,0.51 -1.22,0.82 -2,0.82 -0.76,0 -1.46,-0.3 -1.97,-0.79l-0.04 -0.03c-0.51,-0.51 -0.83,-1.22 -0.83,-2.01 0,-0.76 0.31,-1.45 0.8,-1.96l0.04 -0.04c0.51,-0.51 1.22,-0.83 2,-0.83 0.78,0 1.49,0.32 2,0.83zm-11.4 14.35c0,-0.47 -0.19,-0.89 -0.49,-1.19l-0.02 -0.03c-0.3,-0.28 -0.71,-0.46 -1.16,-0.46 -0.46,0 -0.89,0.19 -1.19,0.49 -0.31,0.3 -0.5,0.73 -0.5,1.19 0,0.46 0.19,0.88 0.5,1.18 0.3,0.31 0.73,0.5 1.19,0.5 0.46,0 0.88,-0.19 1.18,-0.49 0.3,-0.31 0.49,-0.73 0.49,-1.19zm0.33 -2.01c0.51,0.51 0.83,1.22 0.83,2.01 0,0.78 -0.32,1.49 -0.83,2 -0.51,0.51 -1.22,0.83 -2,0.83 -0.78,0 -1.5,-0.32 -2.01,-0.83 -0.51,-0.51 -0.83,-1.22 -0.83,-2 0,-0.78 0.32,-1.49 0.83,-2.01 0.52,-0.51 1.23,-0.83 2.01,-0.83 0.76,0 1.46,0.31 1.96,0.8l0.04 0.03zm3.05 -3.65l-10.11 0c-0.13,1.16 -0.66,2.21 -1.45,2.99 -0.78,0.78 -1.82,1.31 -2.99,1.45l0 28.91 18.99 0 0 -28.91c-1.17,-0.14 -2.21,-0.67 -3,-1.45 -0.78,-0.78 -1.31,-1.83 -1.44,-2.99zm-10.65 -1.16l11.19 0c0.32,0 0.58,0.26 0.58,0.58 0,1.07 0.44,2.05 1.14,2.75 0.7,0.71 1.68,1.15 2.76,1.15 0.31,0 0.57,0.25 0.57,0.57l0 30.03c0,0.32 -0.26,0.58 -0.57,0.58l-20.15 0c-0.31,0 -0.57,-0.26 -0.57,-0.58l0 -30.03c0,-0.32 0.26,-0.57 0.57,-0.57 1.08,0 2.05,-0.44 2.76,-1.15 0.7,-0.7 1.14,-1.68 1.14,-2.75 0,-0.32 0.26,-0.58 0.58,-0.58z"/>
  <path class="fil1" d="M22.73 43.68c-0.53,0 -0.96,-0.43 -0.96,-0.95l0 -11.07c0,-0.53 0.43,-0.96 0.96,-0.96 0.53,0 0.96,0.43 0.96,0.96l0 11.07c0,0.52 -0.43,0.95 -0.96,0.95zm-8.52 0c-0.54,0 -0.97,-0.43 -0.97,-0.95l0 -11.07c0,-0.53 0.43,-0.96 0.97,-0.96 0.52,0 0.95,0.43 0.95,0.96l0 11.07c0,0.52 -0.43,0.95 -0.95,0.95z"/>
  <path class="fil2" d="M18.47 43.68c-0.54,0 -0.97,-0.43 -0.97,-0.95l0 -11.07c0,-0.53 0.43,-0.96 0.97,-0.96 0.53,0 0.96,0.43 0.96,0.96l0 11.07c0,0.52 -0.43,0.95 -0.96,0.95z"/>
 </g>
</svg>
