<?xml version="1.0" encoding="UTF-8"?>
<!DOCTYPE svg PUBLIC "-//W3C//DTD SVG 1.1//EN" "http://www.w3.org/Graphics/SVG/1.1/DTD/svg11.dtd">
<!-- Creator: CorelDRAW 2019 (64-Bit) -->
<svg xmlns="http://www.w3.org/2000/svg" xml:space="preserve" width="48px" height="48px" version="1.1" style="shape-rendering:geometricPrecision; text-rendering:geometricPrecision; image-rendering:optimizeQuality; fill-rule:evenodd; clip-rule:evenodd"
viewBox="0 0 48 48"
 xmlns:xlink="http://www.w3.org/1999/xlink">
 <defs>
  <style type="text/css">
   <![CDATA[
    .fil0 {fill:gray}
    .fil2 {fill:#C9DADD}
    .fil1 {fill:#FBE0DC}
   ]]>
  </style>
 </defs>
 <g id="Слой_x0020_1">
  <metadata id="CorelCorpID_0Corel-Layer"/>
  <path class="fil0" d="M39 43.5c0,0.83 -0.67,1.5 -1.5,1.5l-27 0c-0.83,0 -1.5,-0.67 -1.5,-1.5l0 -34.5 30 0 0 34.5zm-19.75 -40.1c0.29,-0.38 0.73,-0.6 1.2,-0.6l7.5 0c0.47,0 0.92,0.22 1.2,0.6l1.8 2.4 -13.5 0 1.8 -2.4zm25 2.6l-9.75 0 -3.15 -4.2c-0.85,-1.13 -2.18,-1.8 -3.6,-1.8l-7.5 0c-1.42,0 -2.75,0.67 -3.6,1.8l-3.15 4.2 -9.75 0c-0.41,0 -0.75,0.34 -0.75,0.75l0 1.5c0,0.41 0.34,0.75 0.75,0.75l2.25 0 0 34.5c0,2.49 2.01,4.5 4.5,4.5l27 0c2.49,0 4.5,-2.01 4.5,-4.5l0 -34.5 2.25 0c0.41,0 0.75,-0.34 0.75,-0.75l0 -1.5c0,-0.41 -0.34,-0.75 -0.75,-0.75l0 0z"/>
  <path class="fil1" d="M14.54 12.32l0 0c0.83,0 1.5,0.22 1.5,0.49l0 28.72c0,0.26 -0.67,0.48 -1.5,0.48l0 0c-0.82,0 -1.5,-0.22 -1.5,-0.48l0 -28.72c0,-0.27 0.68,-0.49 1.5,-0.49zm18.75 0l0 0c0.83,0 1.5,0.22 1.5,0.49l0 28.72c0,0.26 -0.67,0.48 -1.5,0.48l0 0c-0.82,0 -1.5,-0.22 -1.5,-0.48l0 -28.72c0,-0.27 0.68,-0.49 1.5,-0.49z"/>
  <path class="fil2" d="M24.15 12.32l0 0c0.83,0 1.5,0.22 1.5,0.49l0 28.72c0,0.26 -0.67,0.48 -1.5,0.48l0 0c-0.83,0 -1.5,-0.22 -1.5,-0.48l0 -28.72c0,-0.27 0.67,-0.49 1.5,-0.49z"/>
 </g>
</svg>
