<?xml version="1.0" encoding="UTF-8"?>
<!DOCTYPE svg PUBLIC "-//W3C//DTD SVG 1.1//EN" "http://www.w3.org/Graphics/SVG/1.1/DTD/svg11.dtd">
<!-- Creator: CorelDRAW 2019 (64-Bit) -->
<svg xmlns="http://www.w3.org/2000/svg" xml:space="preserve" width="48px" height="48px" version="1.1" style="shape-rendering:geometricPrecision; text-rendering:geometricPrecision; image-rendering:optimizeQuality; fill-rule:evenodd; clip-rule:evenodd"
viewBox="0 0 48 48"
 xmlns:xlink="http://www.w3.org/1999/xlink">
 <defs>
  <style type="text/css">
   <![CDATA[
    .str0 {stroke:#FBE0DC;stroke-width:1.11;stroke-linecap:round;stroke-miterlimit:10}
    .fil0 {fill:none;fill-rule:nonzero}
    .fil1 {fill:gray;fill-rule:nonzero}
   ]]>
  </style>
 </defs>
 <g id="Слой_x0020_1">
  <metadata id="CorelCorpID_0Corel-Layer"/>
  <path class="fil0 str0" d="M39.26 25.5l0 -1.03c0,-0.85 0.47,-1.62 1.22,-2l0 0c0.8,-0.4 1.34,-1.2 1.35,-2.09 0,-0.05 0,-0.1 0,-0.15 -0.05,-1.31 -1.12,-2.39 -2.43,-2.46 -1.49,-0.08 -2.72,1.1 -2.72,2.57m2.58 6.48c0.3,0 0.54,0.24 0.54,0.54 0,0.3 -0.24,0.54 -0.54,0.54 -0.3,0 -0.55,-0.24 -0.55,-0.54 0,-0.3 0.25,-0.54 0.55,-0.54z"/>
  <path class="fil1" d="M14 28.95c-0.05,0.34 -0.2,0.66 -0.42,0.92 -0.24,0.28 -0.56,0.49 -0.92,0.6l-5.85 1.69c-0.32,0.07 -0.65,0.2 -0.99,0.37 -0.33,0.17 -0.68,0.41 -1.02,0.69 -0.54,0.45 -0.99,0.98 -1.35,1.57 -0.35,0.59 -0.6,1.24 -0.74,1.92l-1.27 9.93 26.54 0 0.03 -0.01 6.99 0 -1.27 -9.92c-0.13,-0.68 -0.39,-1.33 -0.74,-1.92 -0.35,-0.59 -0.8,-1.12 -1.34,-1.56 -0.35,-0.29 -0.7,-0.52 -1.03,-0.7 -0.33,-0.17 -0.66,-0.3 -0.98,-0.37l-5.85 -1.69c-0.37,-0.12 -0.69,-0.33 -0.93,-0.6 -0.15,-0.19 -0.27,-0.4 -0.35,-0.63 -1.21,0.48 -2.54,0.74 -3.92,0.74 -1.64,0 -3.2,-0.37 -4.59,-1.03zm17.68 -6.11c0,2.08 0.85,3.96 2.2,5.32 1.36,1.36 3.25,2.21 5.32,2.21 2.08,0 3.96,-0.85 5.32,-2.21 1.36,-1.36 2.2,-3.24 2.2,-5.32 0,-2.07 -0.84,-3.95 -2.2,-5.31l-0.03 -0.03c-1.35,-1.35 -3.22,-2.18 -5.29,-2.18 -2.07,0 -3.96,0.85 -5.32,2.21 -1.36,1.36 -2.2,3.24 -2.2,5.31zm1.3 6.22c-1.59,-1.59 -2.57,-3.79 -2.57,-6.22 0,-2.42 0.98,-4.63 2.57,-6.22 1.59,-1.59 3.79,-2.57 6.22,-2.57 2.41,0 4.6,0.97 6.19,2.54l0.03 0.03c1.59,1.59 2.58,3.8 2.58,6.22 0,2.43 -0.99,4.63 -2.58,6.22 -1.59,1.6 -3.79,2.58 -6.22,2.58 -2.43,0 -4.63,-0.98 -6.22,-2.58zm-10.47 -1.21c0.1,-0.12 0.25,-0.21 0.42,-0.23l0.05 0c0.83,-0.44 1.58,-1 2.24,-1.66l0.03 -0.03c1.67,-1.69 2.71,-4.03 2.71,-6.6 0,-2.59 -1.05,-4.93 -2.74,-6.63 -1.7,-1.69 -4.04,-2.74 -6.63,-2.74 -2.59,0 -4.94,1.05 -6.63,2.74 -1.7,1.7 -2.75,4.04 -2.75,6.63 0,2.59 1.05,4.94 2.75,6.63l0.03 0.03c1.69,1.68 4.02,2.72 6.6,2.72 1.4,0 2.73,-0.31 3.92,-0.86zm1.18 0.83l0 0.03c0.02,0.13 0.07,0.24 0.15,0.33 0.07,0.1 0.18,0.17 0.31,0.21l5.78 1.67c0.42,0.1 0.85,0.26 1.28,0.48 0.42,0.22 0.84,0.51 1.25,0.84 0.65,0.54 1.2,1.19 1.62,1.9 0.43,0.72 0.74,1.5 0.9,2.33 0.44,3.81 0.98,7.63 1.46,11.44l-8.43 0 -0.03 0 -27.98 0c0.49,-3.8 1.04,-7.64 1.46,-11.44 0.16,-0.83 0.47,-1.62 0.9,-2.33 0.43,-0.72 0.98,-1.36 1.63,-1.9 0.4,-0.33 0.82,-0.61 1.24,-0.84 0.42,-0.22 0.85,-0.38 1.28,-0.47l5.78 -1.68c0.13,-0.04 0.24,-0.11 0.32,-0.2 0.07,-0.09 0.12,-0.21 0.14,-0.34l0.05 -0.44c-0.62,-0.4 -1.19,-0.86 -1.7,-1.37l-0.04 -0.04c-1.93,-1.92 -3.12,-4.59 -3.12,-7.53 0,-2.94 1.19,-5.6 3.12,-7.53 1.93,-1.93 4.59,-3.12 7.53,-3.12 2.93,0 5.6,1.19 7.53,3.12 1.93,1.93 3.12,4.59 3.12,7.53 0,2.92 -1.18,5.57 -3.09,7.5l-0.03 0.03c-0.72,0.72 -1.53,1.33 -2.43,1.82z"/>
 </g>
</svg>
