<?xml version="1.0" encoding="UTF-8"?>
<!DOCTYPE svg PUBLIC "-//W3C//DTD SVG 1.1//EN" "http://www.w3.org/Graphics/SVG/1.1/DTD/svg11.dtd">
<!-- Creator: CorelDRAW 2019 (64-Bit) -->
<svg xmlns="http://www.w3.org/2000/svg" xml:space="preserve" width="48px" height="48px" version="1.1" style="shape-rendering:geometricPrecision; text-rendering:geometricPrecision; image-rendering:optimizeQuality; fill-rule:evenodd; clip-rule:evenodd"
viewBox="0 0 48 48"
 xmlns:xlink="http://www.w3.org/1999/xlink">
 <defs>
  <style type="text/css">
   <![CDATA[
    .fil0 {fill:gray;fill-rule:nonzero}
    .fil1 {fill:#C9DADD;fill-rule:nonzero}
   ]]>
  </style>
 </defs>
 <g id="Слой_x0020_1">
  <metadata id="CorelCorpID_0Corel-Layer"/>
  <path class="fil0" d="M36.46 20.97c1.98,0 3.77,0.8 5.07,2.1 1.3,1.3 2.11,3.09 2.11,5.07 0,1.26 -0.34,2.49 -0.95,3.55 -0.61,1.07 -1.5,1.98 -2.59,2.62l-0.02 0.01c-0.55,0.33 -1.13,0.57 -1.72,0.73 -0.62,0.17 -1.26,0.26 -1.9,0.26l0 -1.08c0.55,0 1.1,-0.08 1.62,-0.22 0.51,-0.14 1,-0.34 1.45,-0.61l0.03 -0.02c0.92,-0.53 1.67,-1.31 2.19,-2.22 0.52,-0.9 0.81,-1.95 0.81,-3.02 0,-1.68 -0.69,-3.21 -1.79,-4.31 -1.1,-1.1 -2.63,-1.78 -4.31,-1.78l0 -1.08zm-5.81 9.56c0.21,0.21 0.21,0.55 0,0.76 -0.21,0.21 -0.56,0.21 -0.77,0l-1.77 -1.77 0 9.07 8.35 0c0.94,0 1.87,-0.13 2.76,-0.37 0.89,-0.24 1.75,-0.6 2.55,-1.07 1.58,-0.93 2.87,-2.26 3.77,-3.82 0.89,-1.56 1.38,-3.35 1.38,-5.19 0,-2.89 -1.17,-5.5 -3.06,-7.39 -1.9,-1.89 -4.52,-3.06 -7.4,-3.06l-0.54 0 -0.26 -0.55c-0.86,-2.31 -2.4,-4.25 -4.34,-5.6 -1.94,-1.35 -4.29,-2.13 -6.75,-2.13 -2.63,0 -5.11,0.88 -7.11,2.39 -2,1.5 -3.53,3.64 -4.24,6.16l-0.23 0.78 -0.78 -0.2 -0.53 -0.1 -0.57 -0.03c-1.23,0 -2.34,0.48 -3.15,1.26 -0.82,0.79 -1.34,1.88 -1.38,3.1l-0.02 0.56 -0.52 0.19c-1.48,0.57 -2.72,1.59 -3.59,2.87 -0.87,1.27 -1.37,2.8 -1.37,4.4 0,2.15 0.87,4.1 2.29,5.51 1.41,1.42 3.36,2.29 5.51,2.29l11.01 0 0 -9.07 -1.77 1.77c-0.21,0.21 -0.55,0.21 -0.76,0 -0.21,-0.21 -0.21,-0.55 0,-0.76l6.64 -6.64 6.65 6.64zm-3.62 -2.09l-3.03 -3.03 -3.03 3.03 0 11.23 -12.09 0c-2.44,0 -4.67,-1 -6.27,-2.61 -1.61,-1.6 -2.61,-3.82 -2.61,-6.27 0,-1.82 0.57,-3.56 1.56,-5.01 0.96,-1.4 2.33,-2.54 3.95,-3.21 0.1,-1.44 0.73,-2.73 1.7,-3.67 1.01,-0.97 2.38,-1.57 3.9,-1.57 0.23,0 0.46,0.02 0.69,0.04l0.45 0.07c0.8,-2.64 2.44,-4.9 4.57,-6.5 2.19,-1.65 4.89,-2.61 7.75,-2.61 2.68,0 5.24,0.85 7.36,2.33 2.08,1.45 3.73,3.5 4.68,5.95 3.12,0.04 5.95,1.32 8,3.38 2.09,2.09 3.39,4.97 3.39,8.15 0,2.03 -0.55,4 -1.53,5.72 -0.98,1.72 -2.4,3.19 -4.16,4.22 -0.88,0.52 -1.83,0.92 -2.81,1.18 -0.98,0.27 -2.01,0.41 -3.04,0.41l-9.43 0 0 -11.23z"/>
  <path class="fil1" d="M11.03 36.95c0,0 -5.39,0.5 -7.19,-3.53 -0.98,-2.18 -0.6,-4.78 0.96,-6.61 0.8,-0.93 1.99,-1.8 3.75,-2.1 0,0 -1.12,-2.62 1.14,-4.08 0,0 1.45,-1.05 4.18,-0.23 0,0 0.99,-7.84 9.69,-9.37 0,0 -9.32,3.23 -7.15,11.88 0,0 -2.82,-1.54 -4.32,0.9 0,0 -1.07,1.9 0.15,3.15 0,0 -2.46,-0.45 -4.17,1.92 -0.7,0.96 -0.93,2.18 -0.8,3.35 0.18,1.61 0.94,3.95 3.76,4.72z"/>
 </g>
</svg>
