<?xml version="1.0" encoding="UTF-8"?>
<!DOCTYPE svg PUBLIC "-//W3C//DTD SVG 1.1//EN" "http://www.w3.org/Graphics/SVG/1.1/DTD/svg11.dtd">
<!-- Creator: CorelDRAW 2019 (64-Bit) -->
<svg xmlns="http://www.w3.org/2000/svg" xml:space="preserve" width="48px" height="48px" version="1.1" style="shape-rendering:geometricPrecision; text-rendering:geometricPrecision; image-rendering:optimizeQuality; fill-rule:evenodd; clip-rule:evenodd"
viewBox="0 0 48 48"
 xmlns:xlink="http://www.w3.org/1999/xlink">
 <defs>
  <style type="text/css">
   <![CDATA[
    .fil0 {fill:gray;fill-rule:nonzero}
    .fil1 {fill:#C9DADD;fill-rule:nonzero}
   ]]>
  </style>
 </defs>
 <g id="Слой_x0020_1">
  <metadata id="CorelCorpID_0Corel-Layer"/>
  <path class="fil0" d="M4.69 47.5l0 0.02 0 0.01 0 0.01 0 0 0 0.01 0 0.01 0 0.01 -0.01 0 0 0.01 0 0 0 0.01 0 0 -0.01 0.02 0 0 0 0.01 0 0 0 0.01 -0.01 0.02 0 0.01 0 0 -0.01 0.01 0 0.01 -0.01 0.01 0 0.01 -0.01 0.01 0 0 0 0.01 0 0 -0.01 0.01 0 0 -0.01 0.01 0 0 0 0.01 0 0 -0.01 0.01 0 0 -0.01 0.01 0 0 0 0.01 -0.01 0.01 0 0 0 0.01 -0.01 0.01 0 0 -0.01 0 0 0.01 -0.02 0.01 0 0 -0.01 0.01 0 0 -0.01 0.01 0 0 -0.01 0.01 -0.07 0.06 0 0 -0.01 0 -0.01 0.01 -0.01 0 0 0 -0.04 0.02 -0.02 0.01 0 0 -0.01 0 -0.01 0.01 0 0 -0.03 0.01 -0.01 0 0 0 -0.07 0.02 -0.01 0 -0.08 0 -0.01 0 0 0 -0.01 0 -0.01 0 -0.01 0 0 0 -0.01 0 -0.01 -0.01 0 0 -0.01 0 0 0 -0.01 0 -0.01 0 -0.01 0 0 0 -0.01 -0.01 0 0 -0.01 0 -0.01 0 -0.01 0 0 0 -0.01 -0.01 -0.01 0 -0.02 -0.01 -0.01 0 0 0 -0.01 -0.01 0 0 -0.01 0 0 0 0 0 -0.02 -0.01 0 0 -0.01 0 0 0 -0.01 -0.01 0 0 -0.01 -0.01 0 0 -0.01 0 0 0 -0.01 -0.01 0 0 -0.01 -0.01 0 0 -0.01 -0.01 -0.01 0 -0.01 0 0 0 -0.01 -0.01 0 0 -0.01 -0.01 0 0 0 0 -0.01 -0.01 0 0 -0.01 -0.01 0 0 -0.01 -0.01 0 0 -0.01 -0.01 0 0 0 -0.01 -0.01 -0.01 -0.02 -0.02 0 0 -0.01 -0.01 0 0 -0.01 -0.01 0 0 -0.02 -0.03 0 0 0 -0.01 -0.01 -0.01 0 0 0 -0.01 -0.02 -0.02 0 -0.01 0 0c-0.01,-0.03 -4.19,-8.85 6.85,-23.24 0.18,-0.24 0.52,-0.29 0.76,-0.1 0.25,0.18 0.29,0.53 0.11,0.77 -7.47,9.74 -7.77,16.7 -7.28,19.99 0.61,-2.31 1.55,-4.53 2.77,-6.58 1.62,-2.72 3.73,-5.14 6.22,-7.08 2.68,-2.09 5.84,-3.65 9,-5.2 5.19,-2.56 10.42,-5.13 13.37,-10.06 0.16,-0.26 0.49,-0.34 0.75,-0.19 0.26,0.16 0.35,0.5 0.19,0.76 -3.12,5.2 -8.49,7.84 -13.83,10.47 -3.11,1.54 -6.21,3.06 -8.8,5.08 -2.39,1.86 -4.41,4.18 -5.95,6.78 -1.54,2.58 -2.62,5.45 -3.12,8.42zm21.41 -10.36c0,-0.3 0.25,-0.55 0.55,-0.55 0.31,0 0.55,0.25 0.55,0.55 0,1.27 0.59,2.92 2.49,4.17 1.46,0.95 3.67,1.67 6.95,1.83 0.01,0 3.5,-0.16 6.07,0.46 -0.31,-0.98 -0.58,-2.57 -0.22,-4.84 0.25,-1.59 0.03,-2.94 -0.52,-4.03 -0.65,-1.3 -1.79,-2.27 -3.15,-2.89 -1.39,-0.63 -3.03,-0.89 -4.65,-0.78 -2.01,0.13 -4,0.84 -5.5,2.14 -0.23,0.2 -0.57,0.17 -0.77,-0.06 -0.2,-0.23 -0.17,-0.57 0.05,-0.77 1.69,-1.46 3.92,-2.26 6.15,-2.41 1.8,-0.12 3.61,0.18 5.17,0.88 1.58,0.72 2.9,1.85 3.68,3.4 0.65,1.29 0.91,2.86 0.62,4.69 -0.59,3.71 0.59,5.23 0.59,5.24 0.12,0.15 0.15,0.36 0.07,0.54 -0.12,0.28 -0.44,0.41 -0.72,0.29 -2.23,-0.95 -6.86,-0.76 -6.87,-0.76l-0.02 0c-3.52,-0.17 -5.92,-0.96 -7.53,-2.01 -2.29,-1.5 -2.99,-3.53 -2.99,-5.09zm4.84 -12.65c-0.31,-0.02 -0.52,-0.3 -0.5,-0.6 0.03,-0.3 0.3,-0.52 0.6,-0.49 0.83,0.09 1.64,0.11 2.41,0.08 2.91,-0.12 5.39,-1.04 7.21,-2.69 1.82,-1.65 2.99,-4.03 3.3,-7.06 0.07,-0.75 0.1,-1.55 0.06,-2.38 -0.11,-2.87 -1.09,-6.19 -2,-9.12 -1.23,1.8 -4.08,2.62 -6.97,3.44 -1.6,0.45 -3.21,0.91 -4.49,1.53 -0.68,0.33 -1.28,0.71 -1.8,1.14 -1.69,1.39 -2.59,3.25 -2.87,5.18 -0.29,1.93 0.04,3.93 0.82,5.55 0.27,0.57 0.6,1.09 0.98,1.54 0.19,0.24 0.15,0.58 -0.08,0.78 -0.23,0.19 -0.58,0.15 -0.77,-0.08 -0.43,-0.52 -0.81,-1.12 -1.12,-1.76 -0.87,-1.81 -1.24,-4.04 -0.92,-6.19 0.32,-2.18 1.34,-4.29 3.26,-5.87 0.59,-0.48 1.26,-0.91 2.02,-1.28 1.38,-0.66 3.03,-1.13 4.67,-1.6 3.28,-0.93 6.5,-1.85 6.78,-4.13 0.02,-0.2 0.17,-0.39 0.38,-0.46 0.29,-0.08 0.6,0.08 0.69,0.37l0.25 0.82c0.99,3.17 2.14,6.86 2.27,10.1 0.03,0.88 0.01,1.72 -0.07,2.52 -0.34,3.32 -1.64,5.94 -3.65,7.77 -2.02,1.82 -4.74,2.85 -7.91,2.98 -0.82,0.03 -1.68,0 -2.55,-0.09zm-24.76 3.28c0.21,0.23 0.19,0.58 -0.04,0.78 -0.23,0.2 -0.57,0.18 -0.77,-0.05 -0.34,-0.38 -0.66,-0.78 -0.93,-1.2 -1.14,-1.73 -1.75,-3.84 -1.53,-6.01 0.22,-2.17 1.27,-4.39 3.45,-6.35 0.54,-0.48 1.15,-0.95 1.82,-1.39 0.87,-0.57 2.41,-1.63 3.84,-2.82 0.92,-0.77 1.79,-1.6 2.39,-2.39 0.19,-0.24 0.53,-0.29 0.77,-0.1 0.06,0.04 0.1,0.09 0.14,0.14 0.48,0.68 10.21,14.78 -3.92,20.73 -0.28,0.12 -0.6,-0.01 -0.72,-0.29 -0.12,-0.28 0.01,-0.6 0.29,-0.72 11.55,-4.86 5.53,-15.83 3.83,-18.51 -0.59,0.67 -1.32,1.35 -2.08,1.98 -1.47,1.23 -3.05,2.32 -3.94,2.9 -0.63,0.42 -1.2,0.85 -1.69,1.29 -1.96,1.76 -2.9,3.73 -3.09,5.64 -0.19,1.9 0.35,3.77 1.36,5.3 0.25,0.39 0.53,0.75 0.82,1.07zm4.38 13.03c-0.15,0.27 -0.49,0.36 -0.75,0.21 -0.27,-0.15 -0.36,-0.49 -0.21,-0.75 0.01,-0.02 3.09,-5.77 9.99,-6.85 1.91,-0.3 4.13,-0.23 6.64,0.42 2.49,0.65 5.28,1.87 8.39,3.9 0.25,0.16 0.32,0.5 0.16,0.76 -0.17,0.25 -0.51,0.32 -0.76,0.16 -3,-1.96 -5.68,-3.14 -8.06,-3.76 -2.36,-0.61 -4.42,-0.67 -6.2,-0.39 -6.36,0.99 -9.2,6.29 -9.2,6.3z"/>
  <path class="fil1" d="M42.3 11.85c-0.07,-1.98 -0.6,-4.22 -1.23,-6.43 -1.68,0.99 -3.81,1.6 -5.8,2.17 -1.54,0.43 -3.14,0.89 -4.33,1.46 -2.51,1.21 -3.43,3.21 -3.75,4.68 -0.16,0.76 -0.21,1.55 -0.15,2.33 0.66,-1.15 1.63,-2.12 2.8,-2.75 1.47,-0.79 3.17,-1.03 4.81,-1.36 0.01,-0.01 0.03,-0.01 0.05,-0.01 2.25,-0.46 4.36,1.26 4.32,3.56 -0.01,0.49 -0.03,0.97 -0.07,1.45 -0.13,1.47 -0.47,2.92 -1.01,4.29 0.57,-0.33 1.11,-0.71 1.58,-1.16 1.97,-1.84 2.93,-4.69 2.78,-8.23z"/>
 </g>
</svg>
