<?xml version="1.0" encoding="UTF-8"?>
<!DOCTYPE svg PUBLIC "-//W3C//DTD SVG 1.1//EN" "http://www.w3.org/Graphics/SVG/1.1/DTD/svg11.dtd">
<!-- Creator: CorelDRAW 2019 (64-Bit) -->
<svg xmlns="http://www.w3.org/2000/svg" xml:space="preserve" width="48px" height="48px" version="1.1" style="shape-rendering:geometricPrecision; text-rendering:geometricPrecision; image-rendering:optimizeQuality; fill-rule:evenodd; clip-rule:evenodd"
viewBox="0 0 48 48"
 xmlns:xlink="http://www.w3.org/1999/xlink">
 <defs>
  <style type="text/css">
   <![CDATA[
    .fil1 {fill:gray;fill-rule:nonzero}
    .fil0 {fill:#C9DADD;fill-rule:nonzero}
    .fil2 {fill:#FBE0DC;fill-rule:nonzero}
   ]]>
  </style>
 </defs>
 <g id="Слой_x0020_1">
  <metadata id="CorelCorpID_0Corel-Layer"/>
  <path class="fil0" d="M30.28 31.88c0.28,-0.19 0.66,-0.13 0.86,0.15 0.19,0.27 0.13,0.66 -0.15,0.85 -2.85,2.03 -5.9,3.25 -8.7,3.97 -2.79,0.72 -5.36,0.96 -7.25,1 -0.33,0.01 -0.62,-0.26 -0.62,-0.59 -0.01,-0.34 0.26,-0.62 0.59,-0.63 1.82,-0.05 4.28,-0.27 6.97,-0.96 2.68,-0.69 5.59,-1.86 8.3,-3.79zm-10.57 -12.72c-2.79,3.36 -4.38,7.09 -5.26,10.49 6.47,-5.81 16.01,-11.83 27.83,-12.04 0.79,-2.74 1.37,-5.83 1.69,-9.32 -10.94,0.99 -19.09,4.65 -24.26,10.87z"/>
  <path class="fil1" d="M45.96 6.31c-36.12,2.1 -34.7,30.31 -34.32,34.31 4,0.39 32.21,1.8 34.32,-34.31zm-26.71 5.33c0.13,0.31 -0.01,0.67 -0.32,0.8 -0.31,0.14 -0.67,-0.01 -0.81,-0.32 -0.74,-1.72 -1.71,-3.51 -2.94,-5.36 -1.13,-1.7 -2.47,-3.45 -4.05,-5.23 -7.45,8.4 -9.5,15.83 -9.07,21.89 0.43,6.16 3.44,10.95 5.94,13.93 0.22,0.25 0.19,0.64 -0.07,0.86 -0.26,0.21 -0.64,0.18 -0.86,-0.08 -2.63,-3.11 -5.78,-8.14 -6.24,-14.62 -0.45,-6.48 1.76,-14.4 9.85,-23.31l0.04 -0.04c0.25,-0.23 0.64,-0.21 0.87,0.04 1.82,2.02 3.35,3.98 4.61,5.88 1.26,1.9 2.27,3.76 3.05,5.56zm-7.82 30.19c-0.79,1.38 -3.83,5.89 -10.01,6.17 -0.34,0.01 -0.63,-0.25 -0.64,-0.58 -0.02,-0.34 0.25,-0.63 0.58,-0.64 5.92,-0.28 8.62,-4.83 9.1,-5.71 -0.31,-2.7 -3.09,-34.13 36.12,-36.03l0.06 0c0.34,0.02 0.6,0.31 0.58,0.64 -1.85,38.31 -31.91,36.54 -35.79,36.15z"/>
  <path class="fil2" d="M10.47 12.28c-1.07,0.02 -3,-0.31 -2.93,-2.94 0,-0.34 0.29,-0.61 0.62,-0.6 0.34,0.01 0.61,0.29 0.6,0.63 -0.03,1.44 1.04,1.67 1.71,1.67l0 -5.39c0,-0.33 0.28,-0.61 0.62,-0.61 0.34,0 0.61,0.28 0.61,0.61l0 15.3c0,0.34 -0.27,0.62 -0.61,0.62l-0.11 -0.01c-0.49,-0.04 -4.82,-0.55 -4.67,-6.01 0,-0.34 0.28,-0.61 0.62,-0.6 0.34,0.01 0.61,0.29 0.6,0.63 -0.09,3.35 1.87,4.35 2.94,4.64l0 -7.94z"/>
 </g>
</svg>
