<?xml version="1.0" encoding="UTF-8"?>
<!DOCTYPE svg PUBLIC "-//W3C//DTD SVG 1.1//EN" "http://www.w3.org/Graphics/SVG/1.1/DTD/svg11.dtd">
<!-- Creator: CorelDRAW 2019 (64-Bit) -->
<svg xmlns="http://www.w3.org/2000/svg" xml:space="preserve" width="48px" height="48px" version="1.1" style="shape-rendering:geometricPrecision; text-rendering:geometricPrecision; image-rendering:optimizeQuality; fill-rule:evenodd; clip-rule:evenodd"
viewBox="0 0 48 48"
 xmlns:xlink="http://www.w3.org/1999/xlink">
 <defs>
  <style type="text/css">
   <![CDATA[
    .fil0 {fill:gray}
    .fil1 {fill:#C9DADD}
   ]]>
  </style>
 </defs>
 <g id="Слой_x0020_1">
  <metadata id="CorelCorpID_0Corel-Layer"/>
  <path class="fil0" d="M45.52 3.47c-0.24,-0.54 -0.72,-0.8 -1.2,-0.8 -0.44,0 -0.89,0.23 -1.16,0.7 -2.59,4.5 -7.21,7.3 -12.49,7.3l-6.67 0c-8.83,0 -16,7.16 -16,16 0,1.74 0.28,3.41 0.8,4.97 -6.36,5.44 -8.68,11.81 -8.73,11.92 -0.24,0.69 0.13,1.46 0.82,1.7 0.66,0.23 1.45,-0.09 1.7,-0.82 0.03,-0.1 1.99,-5.42 7.3,-10.22 2.7,5.02 8,8.45 14.11,8.45 0.58,0 1.14,-0.04 1.7,-0.09 13.09,-0.95 22.3,-12.68 22.3,-27.05 0,-4.19 -0.9,-8.52 -2.48,-12.06z"/>
  <path class="fil1" d="M25.42 39.93c-0.5,0.05 -0.97,0.07 -1.42,0.07 -5.27,0 -9.8,-3.1 -11.96,-7.55 4.32,-3.2 10.34,-5.78 18.63,-5.78 0.73,0 1.33,-0.6 1.33,-1.34 0,-0.73 -0.6,-1.33 -1.33,-1.33 -8.57,0 -14.92,2.58 -19.57,5.87 -0.26,-1.04 -0.43,-2.1 -0.43,-3.2 0,-7.35 5.98,-13.34 13.33,-13.34l6.67 0c5.27,0 10.08,-2.36 13.3,-6.43 0.88,2.69 1.36,5.72 1.36,8.62 0,13.3 -8.34,23.56 -19.91,24.41z"/>
 </g>
</svg>
