<svg xmlns="http://www.w3.org/2000/svg" width="42" height="42" viewBox="0 0 4233.3 4233.3" style="image-rendering:optimizeQuality;shape-rendering:geometricPrecision;text-rendering:geometricPrecision"><defs><style type="text/css">
    .fil0 {fill:#EB0028}
    .fil1 {fill:white;fill-rule:nonzero}
</style></defs><path class="fil0" d="M346.3 0l3540.6 0c190.5 0 346.4 155.8 346.4 346.4l0 3540.6c0 190.5-155.8 346.4-346.4 346.4l-3540.6 0c-190.5 0-346.3-155.8-346.3-346.4l0-3540.6c0-190.5 155.8-346.4 346.3-346.4z"/><path class="fil1" d="M1724.5 2455.8l768.1 0-378.1-1093.2-390 1093.2zm38.6-1728.2l715.5 0 1072.5 2778.3-686 0-195.7-571.3-1115.3 0-209.7 571.4-662.2 0 1081-2778.3z"/></svg>
