<svg xmlns="http://www.w3.org/2000/svg" width="123" height="110" viewBox="0 0 57.8 51.7" style="image-rendering:optimizeQuality;shape-rendering:geometricPrecision;text-rendering:geometricPrecision"><defs><style type="text/css">
    .fil0 {fill:#6D6E70}
    .fil1 {fill:#E21E36}
</style></defs><path class="fil0" d="M34.2 15c0 3.5 0.3 5.4 0 8.9-0.2 2.9-0.3 6.3 0.2 9.1 1.1 5.5 3.7 7.8 8.4 10.5-3.8 4.2-14.4 5.3-20.7 4.7 0.9 0.9 2.2 1.4 3.4 2 17.7 7.2 40.1-14.3 29.7-37.1-2.3-4.9-8.7-12.4-13.4-13.2 0.3 3.6-0.3 6.7-1.8 9.2-1.1 1.9-3.8 5.1-5.7 5.8z"/><path class="fil1" d="M10.2 11.5c-0.8-4.6 6.4-5.6 6.8-1 0.4 4.7-6.1 5.1-6.8 1zm11.9 36.8c-0.6-1.1-2.1-2.2-3.1-3.8-1-1.5-1.7-2.9-2.3-4.8-1.3-4.4-0.8-8.5 0.9-12.1 3.3-6.6 9.7-9.2 16.3-12.6-1.1-7.2-7.8-13.6-15.7-13.7-17.8-0.2-23.1 20.1-13.6 35.4 3.5 5.6 11.2 11.1 17.5 11.6z"/></svg>
