<svg xmlns="http://www.w3.org/2000/svg" width="400" height="110" viewBox="0 0 400 110" style="image-rendering:optimizeQuality;shape-rendering:geometricPrecision;text-rendering:geometricPrecision"><defs><style type="text/css">
    .fil0 {fill:#6D6E70}
    .fil1 {fill:#E21E36}
</style></defs><path class="fil0" d="M72.6 32c0.1 7.4 0.7 11.5 0 19-0.5 6.2-0.7 13.4 0.5 19.4 2.4 11.8 7.9 16.6 17.8 22.4-8 9-30.7 11.3-44.1 10 1.9 1.9 4.7 3 7.3 4.2 37.6 15.2 85.4-30.3 63.1-78.9-4.8-10.5-18.4-26.3-28.4-28.1 0.6 7.7-0.7 14.3-3.9 19.6-2.4 4-8 10.9-12.2 12.3z"/><path class="fil1" d="M21.5 24.6c-1.6-9.7 13.6-11.9 14.4-2 0.9 9.9-12.9 10.8-14.4 2.1zm25.3 78.2c-1.2-2.3-4.5-4.7-6.7-8.1-2.1-3.2-3.6-6.3-4.8-10.3-2.7-9.3-1.8-18.1 2-25.7 7-14 20.6-19.6 34.8-26.8-2.4-15.4-16.6-28.9-33.4-29.1-37.8-0.5-49.2 42.8-29 75.3 7.4 12 23.7 23.6 37.1 24.7z"/><path class="fil1" d="M298.3 65.4c-0.3 30.5-41 30.7-45.3 11-6.3-13.4 1.7-23.3 8.5-27 6.9-3.5 28.3-3.3 36.7-3.4l0.1 19.5zm-112.6 24.4c-29.7-0.3-29.8-39.3-10.7-43.3 13.2-1.7 22.3-1.5 26.3 8.2 3.5 6.6 3.2 27.1 3.3 35.1l-18.9 0.1zm39 11.9c-0.4-8.7-0.5-11.5-0.5-12.3-0.6 0-2.8 0-5.9 0.2-0.4-11 2.8-30.8-9.2-47.1-12.7-13.9-38.9-13.5-51.8 0.1-14 18.4-7.4 43.6 3.7 53.7 10.4 9 39.1 6.8 57 5.9 2.5-0.1 4.8-0.2 6.8-0.3zm175.2-29.5l0 0 0 30.6-14.2 0 0-30.6 0 0c0-7.3-2.6-13.9-6.9-18.6-4.1-4.5-9.7-7.4-15.9-7.4-6.2 0-11.8 2.8-15.9 7.4-4.3 4.7-6.9 11.3-6.9 18.6l0 0 0 30.6-14.2 0 0-30.6 0 0c0-11 4.1-20.9 10.6-28.2 6.7-7.4 16-12 26.3-12 10.3 0 19.6 4.6 26.3 12 6.5 7.3 10.6 17.2 10.6 28.2zm-89.2-46.8c-9.1 0.4-12 0.5-12.9 0.6 0 0.7 0 2.8 0.2 6.1-11.5 0.4-32.2-2.9-49.2 9.4-14.5 13.1-14.1 40 0.1 53.3 19.2 14.4 45.6 7.7 56.1-3.8 9.4-10.7 7.1-40.3 6.2-58.6-0.1-2.6-0.2-4.9-0.3-6.9z"/></svg>
