<svg xmlns="http://www.w3.org/2000/svg" width="355" height="110" viewBox="0 0 449.4 139.3" style="image-rendering:optimizeQuality;shape-rendering:geometricPrecision;text-rendering:geometricPrecision"><defs><style type="text/css">
    .fil0 {fill:#E21E36}
</style></defs><path class="fil0" d="M267.2 72.1c-0.6 54.8-73.6 55.2-81.2 19.7-11.2-24 3.1-41.8 15.3-48.6 12.3-6.4 50.7-5.9 65.8-6.1l0.1 35zm-202 43.8c-53.2-0.6-53.5-70.6-19.2-77.9 23.7-3.1 40-2.7 47.2 14.7 6.2 11.8 5.8 48.6 5.9 63.1l-33.9 0.1zm69.9 21.3c-0.7-15.7-0.9-20.7-1-22.1-1.1 0.1-5 0-10.5 0.3-0.8-19.7 5-55.4-16.5-84.7-22.9-25-69.8-24.3-92.9 0.1-25.1 33.1-13.4 78.4 6.6 96.4 18.7 16.1 70.2 12.1 102.2 10.6 4.5-0.2 8.5-0.4 12.1-0.5zm314.3-53l0 0 0 55.1-25.4 0 0-55 0 0c0-13.1-4.7-25-12.4-33.5-7.3-8.2-17.4-13.2-28.5-13.2-11.1 0-21.1 5.1-28.5 13.2-7.6 8.5-12.4 20.3-12.4 33.5l0 0 0 55.1-25.4 0 0-55 0 0c0-19.7 7.3-37.6 19-50.7 12-13.4 28.7-21.6 47.2-21.6 18.5 0 35.2 8.3 47.2 21.7 11.7 13.1 19 31 19 50.7zm-159.9-84.2c-16.4 0.7-21.6 0.9-23.1 1 0.1 1.2 0 5.1 0.3 10.9-20.6 0.8-57.8-5.2-88.3 17-26.1 23.5-25.3 71.9 0.1 95.7 34.5 25.8 81.8 13.8 100.5-6.8 16.8-19.2 12.6-72.3 11.1-105.3-0.2-4.7-0.4-8.8-0.5-12.5z"/></svg>

