<?xml version="1.0" standalone="no"?>
<!DOCTYPE svg PUBLIC "-//W3C//DTD SVG 20010904//EN"
 "http://www.w3.org/TR/2001/REC-SVG-20010904/DTD/svg10.dtd">
<svg version="1.0" xmlns="http://www.w3.org/2000/svg"
 width="1182.000000pt" height="1182.000000pt" viewBox="0 0 1182.000000 1182.000000"
 preserveAspectRatio="xMidYMid meet">
<metadata>
Created by potrace 1.11, written by Peter Selinger 2001-2013
</metadata>
<g transform="translate(0.000000,1182.000000) scale(0.100000,-0.100000)"
fill="#000000" stroke="none">
<path d="M5450 11407 c-4 -4 -122 -17 -295 -32 -22 -2 -71 -6 -110 -10 -38 -3
-86 -8 -105 -10 -19 -2 -66 -7 -103 -10 -37 -3 -82 -7 -100 -10 -18 -2 -61 -6
-97 -10 -105 -9 -344 -43 -426 -59 -12 -2 -37 -7 -55 -10 -35 -6 -66 -12 -109
-21 -33 -7 -119 -25 -150 -31 -356 -70 -1046 -252 -1369 -360 -352 -118 -522
-204 -583 -296 -35 -51 -46 -90 -43 -153 7 -140 43 -256 165 -535 40 -91 86
-201 102 -245 70 -185 256 -664 268 -690 7 -17 254 -651 760 -1955 48 -124
103 -265 123 -315 19 -49 83 -214 142 -365 59 -151 127 -327 152 -390 25 -63
65 -167 89 -230 24 -63 48 -124 54 -135 5 -11 36 -92 70 -180 80 -208 180
-467 445 -1145 119 -305 334 -859 477 -1230 143 -371 293 -760 334 -863 41
-103 74 -190 74 -193 0 -3 8 -24 18 -47 11 -23 31 -73 47 -112 15 -38 35 -88
45 -110 10 -22 21 -51 25 -65 4 -14 13 -38 21 -55 7 -16 27 -68 44 -115 17
-47 36 -94 41 -105 13 -31 250 -637 259 -665 15 -47 51 -125 65 -140 12 -13
19 -43 24 -102 1 -5 80 -8 176 -8 132 0 177 3 180 13 2 6 6 35 8 62 6 56 29
121 149 420 47 116 117 293 156 395 39 102 98 255 132 340 74 188 207 531 331
855 127 332 241 628 272 705 14 36 51 133 82 215 31 83 60 159 65 170 5 11 41
101 79 200 75 194 97 249 111 280 11 25 222 577 300 785 69 186 242 634 300
780 23 58 49 123 56 145 8 22 19 49 24 60 6 11 48 121 95 245 86 231 105 279
288 746 59 149 120 309 137 355 17 46 34 93 39 104 5 11 21 49 34 85 82 215
331 860 342 885 7 17 72 185 144 375 73 190 137 354 142 365 5 11 72 184 149
385 77 201 144 373 150 382 5 10 10 22 10 28 0 6 9 29 19 53 35 78 124 311
156 411 66 204 27 336 -125 418 -71 38 -245 103 -510 191 -78 26 -375 117
-394 122 -6 1 -18 5 -26 8 -139 55 -741 203 -1060 261 -47 8 -98 18 -115 21
-34 6 -212 34 -265 41 -19 2 -48 6 -65 9 -16 3 -52 7 -80 10 -27 3 -75 10
-105 15 -52 9 -87 12 -290 25 -47 3 -105 8 -130 10 -25 2 -85 7 -135 10 -49 4
-108 9 -130 11 -63 6 -989 16 -995 11z m914 -491 c76 -4 146 -9 155 -11 9 -1
52 -6 96 -9 44 -4 96 -8 115 -11 19 -2 55 -6 80 -9 118 -13 158 -17 190 -21
19 -3 55 -7 80 -10 25 -3 61 -7 80 -10 19 -3 51 -7 70 -10 93 -11 503 -80 625
-105 55 -11 134 -27 175 -35 41 -9 90 -20 110 -25 19 -5 91 -23 160 -40 359
-90 991 -292 1011 -323 18 -26 -10 -181 -56 -308 -21 -60 -144 -359 -151 -368
-2 -2 -16 5 -31 15 -15 10 -37 24 -48 30 -11 6 -105 62 -210 125 -293 177
-373 218 -457 233 -125 22 -172 25 -358 26 -140 1 -229 -3 -315 -16 -62 -10
-682 -12 -740 -4 -33 6 -76 12 -96 15 -86 11 -396 96 -859 235 -75 22 -211 59
-237 65 -10 1 -52 10 -93 18 -142 29 -250 39 -395 37 -60 -1 -119 -2 -130 -4
-11 -1 -49 -7 -85 -11 -36 -5 -67 -9 -70 -10 -3 -1 -25 -5 -50 -9 -25 -5 -53
-10 -62 -12 -109 -20 -470 -133 -583 -183 -47 -21 -95 -41 -176 -74 -47 -20
-122 -52 -165 -73 -158 -73 -307 -134 -389 -159 -88 -27 -94 -29 -185 -47 -57
-11 -246 -13 -290 -4 -14 3 -45 9 -70 12 -100 13 -283 55 -329 75 -27 11 -59
31 -71 44 -24 25 -150 270 -150 291 0 13 182 106 300 152 205 81 638 210 800
238 14 3 52 11 85 19 50 12 302 62 395 79 14 2 77 13 140 25 63 11 131 23 150
26 19 3 42 8 50 10 23 7 70 14 125 20 28 4 61 8 75 10 25 4 80 10 180 20 30 3
69 8 85 10 17 3 86 9 155 15 69 6 143 13 165 15 43 4 123 11 245 21 41 3 91 7
110 9 19 2 94 7 165 11 72 3 131 7 132 8 6 5 424 -2 547 -8z m-844 -1043 c52
-7 113 -18 135 -24 22 -6 50 -13 62 -15 32 -6 258 -72 301 -89 77 -29 348
-110 405 -121 10 -2 26 -5 35 -8 9 -3 28 -7 42 -10 14 -2 70 -13 125 -24 55
-11 123 -24 150 -28 28 -5 52 -9 55 -9 5 -1 90 -13 145 -20 181 -24 405 -24
580 0 147 19 442 25 573 12 169 -18 306 -71 448 -173 233 -168 313 -230 314
-245 0 -9 -14 -54 -31 -100 -16 -46 -53 -148 -81 -227 -41 -115 -55 -142 -67
-137 -21 9 -210 43 -275 51 -64 7 -238 7 -291 0 -71 -9 -212 -55 -272 -87
-220 -119 -404 -373 -470 -648 -18 -79 -20 -327 -2 -393 6 -24 13 -52 15 -63
2 -11 20 -60 39 -110 68 -177 146 -269 359 -429 83 -63 161 -123 173 -134 l23
-19 -124 -324 c-160 -417 -214 -559 -225 -584 -13 -30 -34 -85 -101 -260 -80
-209 -120 -310 -235 -603 -52 -134 -95 -248 -95 -253 0 -5 -4 -17 -10 -27 -9
-16 -169 -426 -369 -947 -148 -383 -371 -959 -381 -980 -4 -11 -45 -117 -90
-235 -46 -118 -88 -228 -95 -245 -13 -29 -224 -573 -251 -645 -83 -223 -127
-330 -134 -323 -4 4 -53 127 -110 273 -56 146 -193 499 -304 785 -112 286
-226 583 -256 660 -29 77 -59 154 -66 170 -37 85 -175 432 -234 590 -64 169
-89 233 -110 280 -4 11 -36 92 -70 180 -33 88 -65 169 -70 180 -9 19 -344 880
-380 975 -56 149 -482 1235 -490 1251 -8 15 -5 21 17 35 447 276 633 544 636
914 2 139 -6 195 -38 294 -63 193 -177 351 -345 481 -207 159 -471 220 -719
165 -81 -18 -176 -26 -246 -21 -21 1 -28 13 -65 111 -11 30 -25 65 -30 78 -6
12 -14 32 -19 45 -13 32 -168 427 -181 461 l-10 28 107 -8 c60 -5 209 -9 333
-9 324 1 390 17 753 181 116 53 226 102 242 110 87 39 362 145 445 171 192 62
283 83 420 99 30 3 57 8 59 10 10 9 267 0 351 -13z m2943 -1694 c26 -12 47
-28 47 -34 0 -7 -28 -88 -63 -181 -35 -93 -103 -278 -153 -411 -49 -134 -93
-243 -97 -243 -8 0 -96 57 -107 69 -3 4 -21 18 -41 33 -20 15 -53 49 -72 75
-133 182 -124 443 20 604 71 78 161 122 263 128 24 1 46 4 48 5 6 7 106 -23
155 -45z m-4808 -34 c147 -39 290 -204 320 -368 21 -117 -17 -258 -97 -360
-120 -153 -182 -174 -264 -89 -38 39 -79 118 -112 217 -12 33 -40 114 -65 180
-35 95 -77 246 -78 280 -1 2 -7 27 -14 54 l-13 49 42 16 c86 32 205 41 281 21z"/>
<path d="M5855 9362 c-130 -9 -323 -63 -423 -119 -207 -114 -384 -330 -453
-553 -19 -64 -23 -97 -23 -220 0 -161 16 -254 64 -369 108 -263 309 -481 531
-577 268 -117 543 -100 784 49 46 28 154 118 204 170 56 57 141 173 141 190 0
6 7 18 15 27 9 10 18 26 20 36 3 11 18 58 35 107 35 103 45 175 43 314 -6 425
-273 801 -648 912 -85 25 -209 39 -290 33z m116 -508 c205 -60 346 -254 338
-464 -12 -304 -270 -504 -534 -414 -192 65 -316 240 -317 446 0 196 127 378
305 433 58 19 143 18 208 -1z"/>
<path d="M6803 7136 c-159 -50 -361 -220 -488 -411 -70 -104 -111 -197 -141
-315 -20 -80 -23 -113 -20 -210 7 -182 47 -295 132 -369 101 -89 222 -87 303
6 56 62 69 119 68 293 0 183 6 230 44 307 36 74 117 152 210 202 170 90 221
159 213 284 -10 168 -155 264 -321 213z"/>
<path d="M4632 6925 c-101 -31 -155 -108 -151 -219 4 -137 84 -231 212 -251
192 -30 246 -53 335 -141 66 -66 116 -156 127 -228 14 -96 36 -179 55 -214 77
-135 277 -148 379 -25 112 135 64 455 -104 688 -150 209 -319 321 -580 385
-73 18 -222 21 -273 5z"/>
<path d="M5610 5072 c-42 -7 -143 -58 -177 -89 -18 -16 -42 -50 -53 -76 -24
-55 -20 -119 12 -182 40 -80 98 -114 256 -151 298 -70 383 -137 417 -329 7
-39 8 -233 1 -243 -3 -5 -7 -21 -10 -36 -9 -50 -46 -114 -88 -152 -50 -45
-172 -103 -293 -139 -160 -48 -212 -82 -250 -161 -24 -52 -23 -139 3 -191 28
-53 102 -118 158 -137 51 -17 184 -15 249 4 172 50 327 139 435 250 121 125
168 197 221 342 33 89 33 89 54 192 13 68 14 266 2 316 -4 14 -9 37 -11 52
-14 87 -80 229 -154 333 -136 192 -329 333 -524 383 -71 18 -185 25 -248 14z"/>
</g>
</svg>
