<svg xmlns="http://www.w3.org/2000/svg" viewBox="0 0 20000 7000">
    <path fill="#fff"
          d="M3833 2357c32 54 80 105 149 148l138 85 267-681-115-50a336 336 0 0 0-400 90 346 346 0 0 0-87 220c-2 63 12 128 47 189zm15986 2142v-308h173v1771h-173v-317a773 773 0 0 1-688 365c-239 0-443-85-610-256s-251-397-251-677c0-275 79-498 238-669a810 810 0 0 1 623-256c294 0 523 116 688 347zm-679-182c-187 0-349 67-484 202-136 135-203 316-203 545 0 211 62 394 186 549a613 613 0 0 0 506 232c211 0 377-76 500-228a851 851 0 0 0 184-554c0-240-71-425-212-554a687 687 0 0 0-476-193zm-1146-126l-1427 1606h1419v165h-1791l1445-1606h-1220v-165h1574zm-1955 0l-1427 1606h1419v165h-1791l1445-1606h-1220v-165h1574zm-2362 0h173v1771h-173V4191zm195-473c-29 29-65 43-108 43s-80-15-110-46c-30-30-45-69-45-115a157 157 0 0 1 155-161 157 157 0 0 1 155 161c0 46-16 85-48 117zm-2254 1928v1355h-173V4192h173v308a813 813 0 0 1 692-347c260 0 467 86 623 258a936 936 0 0 1 234 653c0 269-79 494-236 675a791 791 0 0 1-629 271c-133 0-252-27-359-80a789 789 0 0 1-221-148c-40-45-75-90-104-137zm173-22c121 148 290 221 506 221s385-74 506-221a855 855 0 0 0 182-560c0-234-66-418-199-549a661 661 0 0 0-484-198c-187 0-350 65-487 195s-205 311-205 543c0 229 61 418 182 569zM9347 4421a899 899 0 0 1 662-269c262 0 482 89 660 267a903 903 0 0 1 266 662c0 263-89 484-266 662a893 893 0 0 1-660 267c-262 0-482-89-660-267a903 903 0 0 1-266-662c0-263 88-483 264-660zm130 1203a713 713 0 0 0 532 221c210 0 387-74 530-221a752 752 0 0 0 214-543c0-214-71-395-214-543a706 706 0 0 0-530-221c-211 0-387 74-530 221a752 752 0 0 0-214 543c0 214 71 395 212 543zm-2193 339V4192h173v278a580 580 0 0 1 541-317c219 0 382 82 489 247 58 93 87 242 87 447v1116h-173V4847c0-165-23-284-69-356-69-116-185-174-346-174-196 0-340 82-433 247-63 113-95 272-95 478v920h-173zm-1912 0V4192h173v278a580 580 0 0 1 541-317c219 0 382 82 489 247 58 93 86 242 86 447v1116h-173V4847c0-165-23-284-69-356-69-116-185-174-346-174-196 0-340 82-433 247-63 113-95 272-95 478v920h-173zm-796-1771h173v1771h-173V4192zm195-473c-29 29-65 43-108 43s-80-15-110-46c-30-30-45-69-45-115a157 157 0 0 1 155-161 157 157 0 0 1 155 161c0 46-16 85-48 117zm7138 2784h8085v169h-8085v-169zm-9223 7h8467v169H2534v-18l-12-6-19-15-2-2L395 1564 156 986c-24-58-45-105-66-150-32-70-61-133-78-187-18-56-24-102-9-134 26-55 223-125 441-188 215-62 453-117 566-143l20-5 23-5c203-48 344-75 461-93 117-17 209-24 312-32l160-13c60-6 128-13 210-23 41-5 106-8 185-9a9996 9996 0 0 1 940 39h2a7169 7169 0 0 1 1135 220l87 26 250 75c82 26 164 53 247 85 53 20 77 49 84 84 6 33-4 69-19 106l-18 44-15 35-1 2-33 76-5 13-2328 5650-10 26-10 28zm-922-3583c-9-1-17-3-21-5l-14-8 2-2c-7-6-13-14-17-22-8-12-13-27-15-41-1-7-2-14-1-20 0-7 1-13 4-18 1-4 3-7 6-11l9-8c14-9 35-15 64-16a562 562 0 0 1 311 94 494 494 0 0 1 182 221c16 37 27 73 33 107 6 36 7 68 2 95l-3 13-4 10-4 5c-7 9-16 17-25 22a91 91 0 0 1-55 13c-7-1-13-3-19-7-66-50 30 20-38-28v-26c-4-12-6-24-8-36-5-29-10-58-21-87-10-29-26-60-52-93a352 352 0 0 0-287-147l-28-3zm26 3l-26-3 26 3zm1 0h-1 1zm1476-266c7 9 14 22 18 39 8 29 2 49-12 64-12 14-29 23-48 33-65 34-133 69-181 130s-77 148-66 287c2 30 1 54-3 74-5 23-14 40-26 50l-11 7-12 4-16 1c-5 0-11-1-16-3-15-5-29-14-42-28-11-12-20-29-27-49-31-91-26-182 3-266a604 604 0 0 1 307-339c19-8 36-14 53-18s32-5 45-4c12 1 23 7 33 19zm-915 1416c-17-5-30-9-36-14-14-12-23-23-29-33-8-13-9-25-6-35 2-5 5-11 9-16s8-10 14-14c8-7 17-13 28-18 10-5 21-10 34-13 51-15 116-14 186 11 59 21 123 59 188 119a499 499 0 0 1 24 732l-10 11a545 545 0 0 1-339 150 107 107 0 0 1-85-33 80 80 0 0 1-21-38 54 54 0 0 1 9-40c4-7 10-13 18-21 4-4 16-8 32-13l50-15c79-22 163-46 226-97 63-50 107-127 108-258 2-137-42-216-106-264-65-49-152-69-236-88l-55-13zm-5-2598c-51 33-96 84-129 154-34 73-42 143-32 206a357 357 0 0 0 155 235 366 366 0 0 0 142 61c25 5 51 8 77 8 68 0 136-17 194-57 52-36 97-89 128-164 29-70 34-137 21-199a365 365 0 0 0-157-228 413 413 0 0 0-213-69c-65-1-130 15-187 52zm523-103a524 524 0 0 1 96 723c-40 50-91 97-156 136a486 486 0 0 1-557-28 677 677 0 0 1-161-176 536 536 0 0 1-79-217c-12-92 3-186 54-273a567 567 0 0 1 627-252c62 17 123 46 177 88zm-1859 489c-43-1-87 6-132 21l-112 39 59 246 4 10c21 48 38 93 53 132 19 49 34 91 52 125 17 33 37 60 64 81 49 37 94 52 139 41 47-11 95-50 150-117a333 333 0 0 0 57-341 380 380 0 0 0-205-209c-40-17-84-27-130-28zm-619-734l257 607 86 3a529 529 0 0 0 158-18h1c33-6 65-13 85-13a549 549 0 0 1 532 376 461 461 0 0 1 1 265c-21 69-60 138-119 202a839 839 0 0 1-218 164l-104 56 1494 3589 1484-3618-81-60-57-41-49-34c-51-35-92-62-127-102-35-39-65-90-92-169a459 459 0 0 1 19-351c34-77 75-137 121-183 47-46 99-78 155-99 61-22 128-31 200-31s148 10 228 26l112 23 156-410-86-57-98-68c-151-107-233-165-447-177-96-5-168-5-228-3-60 3-108 8-154 13h-1c-120 13-226 24-572-35-151-26-271-62-382-96-164-49-308-93-482-96s-379 34-664 147l-131 53-109 46c-237 101-310 132-672 106l-214-15zm214-693c-119 36-228 77-318 122l-113 57 53 112c21 43 37 77 55 104a263 263 0 0 0 145 111c32 10 69 17 118 25l31 5c92 15 169 27 267 20 75-5 149-24 223-49 75-25 149-57 222-88l2-1c45-19 91-39 139-57 101-39 195-72 285-99s175-47 257-59a1163 1163 0 0 1 474 21c171 42 287 75 383 102h1c152 43 257 73 382 89 126 16 273 17 509 4h1c34-2 55-5 74-8h1a1642 1642 0 0 1 371 11c66 14 109 39 187 85 59 34 133 78 234 131l136 72 52-143c8-23 22-53 36-84v-1c38-84 79-175 81-263l2-90-87-33c-136-51-278-96-424-136-156-42-315-79-477-109a8722 8722 0 0 0-1077-134l-66-4-73-2-68-1h-78l-845 66-9 1a12829 12829 0 0 0-704 125c-130 28-260 60-379 97z"/>
</svg>
