<svg xmlns="http://www.w3.org/2000/svg" xmlns:xlink="http://www.w3.org/1999/xlink" version="1.1" x="0px" y="0px" viewBox="0 0 64 62.5" style="enable-background:new 0 0 64 50;" xml:space="preserve"><g><path style="" d="M25.586,1C12.008,1,1,10.551,1,22.333   c0,7.906,4.96,10.003,12.324,10.528c0.557,0.04,1.082-0.278,1.313-0.785l2.104-4.62c0.498-1.094,2.075-1.032,2.486,0.097   l1.669,4.58c0.194,0.533,0.696,0.887,1.265,0.883C23.281,33.008,24.423,33,25.586,33c13.579,0,24.586,1.115,24.586-10.667   S39.165,1,25.586,1z" fill="none" stroke="#000000" stroke-width="2" stroke-miterlimit="10"/><path style="" d="M27.55,33.007   C26.902,33.003,26.248,33,25.586,33c-1.163,0-2.305,0.008-3.424,0.015c-0.426,0.003-0.815-0.195-1.065-0.52   c-0.083-0.108-0.151-0.23-0.2-0.363l-1.669-4.58c-0.411-1.129-1.988-1.19-2.486-0.097l-0.576,1.265v0l-0.174,0.382l-0.097,0.212   l1.678,2.658c1.743,2.761,2.668,5.958,2.668,9.222V42.6c0,2.946,2.393,3.2,5.345,3.2s5.345-0.254,5.345-3.2   c0-3.429,1.034-6.757,2.923-9.585h-0.005C31.855,33.042,29.743,33.019,27.55,33.007z" fill="none" stroke="#000000" stroke-width="2" stroke-linejoin="round" stroke-miterlimit="10"/><path style="" d="M50.758,43.817   c-0.457-0.222-0.925-0.456-1.401-0.697c-0.246-0.125-0.502-0.255-0.753-0.383c-0.084-0.043-0.166-0.084-0.251-0.128   c-0.547-0.28-1.105-0.564-1.675-0.851c-0.57-0.286-1.132-0.563-1.683-0.835c-0.711-0.351-1.397-0.692-2.06-1.03   c0.035,1.622-0.329,3.235-1.064,4.695l-0.362,0.717c-0.758,1.504,0.385,2.24,1.875,2.988c1.491,0.748,2.764,1.225,3.522-0.279   c0.882-1.751,2.261-3.187,3.942-4.152l-0.003-0.001C50.817,43.847,50.787,43.831,50.758,43.817z" fill="none" stroke="#000000" stroke-width="2" stroke-linejoin="round" stroke-miterlimit="10"/><path style="" d="M54.912,25.423   c-1.571-0.789-3.202-1.273-4.822-1.501c-0.693,7.118-6.175,8.714-13.895,9.032c-0.003,0.125-0.004,0.249,0.003,0.37   c0.002,0.044,0.003,0.089,0.007,0.132c0.015,0.178,0.038,0.352,0.074,0.522c0.001,0.007,0.004,0.014,0.005,0.02   c0.035,0.162,0.082,0.32,0.135,0.476c0.014,0.04,0.029,0.079,0.044,0.119c0.049,0.132,0.105,0.261,0.167,0.389   c0.015,0.03,0.028,0.061,0.044,0.092c0.081,0.158,0.171,0.314,0.271,0.466c0.002,0.002,0.004,0.005,0.005,0.008   c0.097,0.147,0.205,0.29,0.318,0.431c0.024,0.03,0.048,0.059,0.073,0.088c0.105,0.126,0.215,0.249,0.332,0.372   c0.017,0.018,0.034,0.037,0.052,0.055c0.279,0.285,0.593,0.561,0.934,0.83c0.024,0.019,0.049,0.038,0.073,0.057   c0.164,0.127,0.334,0.253,0.511,0.378c0.006,0.004,0.012,0.009,0.019,0.013c0.387,0.271,0.803,0.537,1.243,0.8   c0.005,0.003,0.009,0.006,0.014,0.009l0.002,0.001c1.313,0.782,2.841,1.538,4.471,2.343c0.551,0.272,1.113,0.549,1.683,0.835   c0.57,0.286,1.128,0.571,1.675,0.851c1.619,0.827,3.139,1.6,4.55,2.185c0,0,0.001,0.001,0.001,0.001   c0.005,0.002,0.01,0.004,0.016,0.006c0.474,0.196,0.936,0.371,1.385,0.519c0.007,0.002,0.014,0.004,0.022,0.007   c0.206,0.068,0.409,0.129,0.609,0.184c0.03,0.008,0.06,0.017,0.09,0.025c0.42,0.114,0.829,0.2,1.225,0.254   c0.025,0.003,0.05,0.005,0.075,0.009c0.168,0.021,0.334,0.036,0.497,0.045c0.038,0.002,0.076,0.004,0.115,0.006   c0.181,0.007,0.361,0.007,0.537-0.002l0.009,0c0.182-0.01,0.361-0.031,0.537-0.06c0.034-0.006,0.067-0.013,0.1-0.02   c0.139-0.026,0.277-0.059,0.412-0.098c0.04-0.012,0.081-0.023,0.121-0.036c0.157-0.05,0.312-0.107,0.463-0.176   c0.007-0.003,0.013-0.005,0.02-0.008c0.158-0.072,0.313-0.158,0.464-0.252c0.037-0.023,0.074-0.049,0.111-0.073   c0.115-0.076,0.229-0.159,0.341-0.248c0.04-0.032,0.08-0.064,0.12-0.097c0.137-0.116,0.271-0.241,0.402-0.379   c0.005-0.006,0.011-0.01,0.017-0.016c0.136-0.144,0.267-0.303,0.397-0.471c0.036-0.048,0.072-0.098,0.108-0.148   c0.096-0.131,0.189-0.269,0.281-0.414c0.036-0.057,0.072-0.112,0.108-0.171c0.121-0.201,0.239-0.41,0.354-0.637   C64.869,36.53,61.768,28.865,54.912,25.423z" fill="none" stroke="#000000" stroke-width="2" stroke-miterlimit="10"/></g><text x="0" y="65" fill="#000000" font-size="5px" font-weight="bold" font-family="'Helvetica Neue', Helvetica, Arial-Unicode, Arial, Sans-serif">Created by Jellycons</text><text x="0" y="70" fill="#000000" font-size="5px" font-weight="bold" font-family="'Helvetica Neue', Helvetica, Arial-Unicode, Arial, Sans-serif">from the Noun Project</text></svg>