<svg xmlns="http://www.w3.org/2000/svg" xmlns:xlink="http://www.w3.org/1999/xlink" version="1.1" x="0px" y="0px" viewBox="0 0 100 125" style="enable-background:new 0 0 100 100;" xml:space="preserve"><ellipse cx="-6.9" cy="-34.5" rx="16.5" ry="1.2"/><g><path d="M68.3,12.7l12.2-0.2V6H66.3l-8.2,6.1l-6.2,17.4c-1.5-0.2-3.1-0.3-4.9-0.3c-15.8,0-19.4,7.3-20.2,10h-2.9v7.6h3.9l5.9,47   h26.8l6.1-47h3.5v-7.6h-2.9c-0.6-1.9-2.5-6.1-9-8.4L63,16.4L68.3,12.7z M58.5,91.6H35.6L30,46.9h34.3L58.5,91.6z M65.2,40.5l0.1,1   h2.6v3.1h-1H27.5h-1.4v-3.1h2.6l0.1-1c0-0.1,1.2-9,18.2-9C63.8,31.5,65.1,40.1,65.2,40.5z M56,30.3c-0.6-0.1-1.2-0.3-1.9-0.4   l5.8-16.4L67,8.2h11.2v2.1l-10.7,0.2L61.1,15L56,30.3z"/><path d="M35.2,56.3c0.5,4.3,1.2,10.2,2.1,16.8c0.4,2.7,0.8,5.3,1.1,7.7c0.4,2.6,0.8,5,1.1,7.1c0.9,0,1.7,0,2.5,0   c0.6,0,1.3,0,1.8-0.1c1.1,0,2.1-0.1,3-0.1c1.6-0.1,2.6-0.2,2.6-0.3c0-0.1-0.9-0.2-2.6-0.3c-0.8,0-1.8-0.1-3-0.1   c-1,0-2.2-0.1-3.4-0.1l0-0.1l0,0l0-0.2c0-0.3-0.1-0.5-0.1-0.8c-0.1-0.5-0.1-1.1-0.2-1.6c-0.1-1.1-0.3-2.3-0.4-3.5   c-0.3-2.4-0.7-5-1-7.7c-0.9-6.5-1.8-12.4-2.5-16.7c-0.7-4.3-1.2-6.9-1.4-6.9C34.5,49.4,34.7,52,35.2,56.3z"/><path d="M40,34.4c-2.5,0.7-4.7,2-5.9,3.2c-0.3,0.3-0.6,0.6-0.8,0.9c-0.2,0.3-0.3,0.5-0.5,0.8c-0.2,0.4-0.3,0.7-0.2,0.7   c0.1,0,0.3-0.1,0.6-0.4c0.2-0.2,0.4-0.4,0.6-0.6c0.3-0.2,0.5-0.4,0.9-0.7c1.3-1,3.3-2,5.7-2.7c4.8-1.3,9-1.2,9-1.6   c0-0.2-1-0.4-2.7-0.5C44.9,33.5,42.5,33.7,40,34.4z"/><ellipse transform="matrix(0.9893 -0.1459 0.1459 0.9893 -9.0954 6.6085)" cx="40.5" cy="65.3" rx="0.6" ry="14.3"/></g><text x="0" y="115" fill="#000000" font-size="5px" font-weight="bold" font-family="'Helvetica Neue', Helvetica, Arial-Unicode, Arial, Sans-serif">Created by Ian Ransley</text><text x="0" y="120" fill="#000000" font-size="5px" font-weight="bold" font-family="'Helvetica Neue', Helvetica, Arial-Unicode, Arial, Sans-serif">from the Noun Project</text></svg>