<svg xmlns="http://www.w3.org/2000/svg" viewBox="0 0 100 125" fill="none" x="0px" y="0px"><path fill-rule="evenodd" clip-rule="evenodd" d="M34 12C34 11.4477 34.4477 11 35 11H68C68.5523 11 69 11.4477 69 12V18.7344L72.8682 25.5039C72.9546 25.655 73 25.826 73 26V69C73 69.1974 72.9416 69.3904 72.8321 69.5547L62.8321 84.5547C62.6466 84.8329 62.3344 85 62 85H27C26.4477 85 26 84.5523 26 84V31.5C26 31.3089 26.0547 31.1219 26.1577 30.9609L34 18.7074V12ZM35.5473 20L28.8273 30.5H61.3708L66.4108 20H35.5473ZM68.077 21.1504L66.2292 25H70.2768L68.077 21.1504ZM68.1068 27H65.2692L64.2514 29.1204L68.1068 27ZM63 32.0913V80.6972L71 68.6972V27.6913L63 32.0913ZM61 83V32.5H28V83H61ZM67 18H36V13H67V18ZM49.2374 44.1596C49.6145 43.9164 50.1075 43.9542 50.4431 44.2522C51.1347 44.8661 51.6115 45.5189 51.8693 46.2156C52.1305 46.9214 52.144 47.611 52.0016 48.2515C51.9124 48.6524 51.7617 49.0336 51.5762 49.3912C52.0971 49.4164 52.6235 49.4955 53.1243 49.6152C54.4657 49.9358 55.8879 50.61 56.7707 51.6777C56.9488 51.8931 57.0286 52.1733 56.9908 52.4503C56.9529 52.7273 56.8009 52.9758 56.5715 53.1355C55.2877 54.0295 54.1081 54.4414 53.0282 54.4569C52.6985 54.4616 52.3879 54.4292 52.0966 54.3675C52.0843 54.4841 52.0681 54.6007 52.048 54.7171L50.9145 61.2598C51.5866 62.285 51.7001 63.6392 51.1153 64.8341C50.3063 66.4873 48.4568 67.2471 46.7476 66.928C46.0043 66.7892 45.2421 66.6867 44.6404 66.6867C44.0386 66.6867 43.2764 66.7892 42.5332 66.928C40.824 67.2471 38.9744 66.4873 38.1654 64.8341C37.5807 63.6392 37.6942 62.285 38.3662 61.2598L37.2328 54.7171C37.2087 54.5781 37.1903 54.4388 37.1774 54.2996C36.9292 54.3704 36.6649 54.4201 36.3843 54.4431C35.2002 54.54 33.8814 54.1472 32.4285 53.1355C32.1991 52.9758 32.0471 52.7273 32.0092 52.4503C31.9714 52.1733 32.0512 51.8931 32.2293 51.6777C33.1387 50.5778 34.6338 49.8961 36.0245 49.5868C36.4232 49.4982 36.8397 49.4344 37.2571 49.4032C37.111 49.1057 36.9905 48.7928 36.9099 48.4663C36.7493 47.8159 36.745 47.1086 37.0002 46.3812C37.2525 45.6621 37.7354 44.9884 38.4461 44.3574C38.7817 44.0595 39.2747 44.0216 39.6519 44.2648C40.0291 44.508 40.198 44.9727 40.0652 45.4014C39.8864 45.9779 40.0829 46.5178 40.6905 47.1398C41.2096 47.6712 41.8886 48.1129 42.5148 48.5062C43.2358 48.3244 43.9647 48.2052 44.6404 48.2052C45.193 48.2052 45.7813 48.285 46.3716 48.4134C47.0001 48.0183 47.6834 47.5732 48.2034 47.0378C48.8071 46.4165 49.0036 45.8751 48.8241 45.2961C48.6912 44.8674 48.8602 44.4028 49.2374 44.1596ZM46.2914 50.449C46.2981 50.4508 46.3048 50.4525 46.3115 50.4541C47.0063 50.6321 47.7414 50.89 48.4444 51.176C48.6165 51.246 48.7753 51.3311 48.9208 51.4289C48.9485 51.4475 48.9757 51.4666 49.0025 51.4861C49.5057 51.8536 49.8616 52.3958 50.0255 53.0258C50.136 53.4508 50.1576 53.9121 50.0773 54.3757L49.1238 59.8799C49.0199 59.8449 48.9134 59.8144 48.8042 59.7886C47.5096 59.4821 45.9533 59.1929 44.6404 59.1929C43.3274 59.1929 41.7711 59.4821 40.4766 59.7886C40.3674 59.8144 40.2608 59.8449 40.157 59.8799L39.2034 54.3757C39.1069 53.8185 39.1577 53.2655 39.3324 52.7746C39.4996 52.305 39.7785 51.8959 40.1483 51.5876C40.1483 51.5876 40.1483 51.5876 40.1483 51.5876L40.1506 51.5857C40.1509 51.5854 40.1512 51.5852 40.1515 51.585M40.2005 51.5452C40.2109 51.5375 40.2212 51.5295 40.2313 51.5213C40.4109 51.3837 40.6126 51.2669 40.8363 51.176C42.1499 50.6417 43.5758 50.2052 44.6404 50.2052C45.1297 50.2052 45.6954 50.2975 46.2914 50.449M39.6969 49.5011C39.8216 49.4366 39.9503 49.3772 40.0828 49.3233C40.0996 49.3165 40.1164 49.3097 40.1332 49.3029C39.8302 49.0702 39.5304 48.8144 39.2598 48.5373C39.1327 48.4072 39.0077 48.2677 38.8887 48.1194C39.03 48.5716 39.3215 49.0313 39.6969 49.5011ZM37.7732 51.3815C37.6868 51.5381 37.6092 51.6993 37.5407 51.8642C37.1745 52.1833 36.7418 52.4072 36.2212 52.4498C35.847 52.4804 35.3654 52.4225 34.7625 52.168C35.2486 51.8972 35.8325 51.6784 36.4586 51.5392C36.9319 51.4339 37.3778 51.3853 37.7732 51.3815ZM48.8065 49.168C49.0952 48.9431 49.3799 48.6971 49.6379 48.4315C49.7577 48.3082 49.8755 48.1766 49.9881 48.0371C49.8488 48.4556 49.5797 48.8859 49.2294 49.3363C49.219 49.3319 49.2085 49.3276 49.1979 49.3233C49.0707 49.2716 48.9401 49.2196 48.8065 49.168ZM51.5123 51.3903C51.6456 51.633 51.7577 51.8867 51.848 52.1481C52.1746 52.3432 52.552 52.4635 52.9995 52.4571C53.3357 52.4522 53.7475 52.3753 54.2418 52.1661C53.7849 51.9093 53.2423 51.6997 52.6594 51.5604C52.2564 51.4641 51.8686 51.4095 51.5123 51.3903ZM44.6404 61.1929C43.5668 61.1929 42.194 61.4372 40.9373 61.7348C40.614 61.8113 40.3589 61.9736 40.1715 62.1834C39.7767 62.6254 39.6505 63.3188 39.9619 63.955C40.3274 64.7019 41.2271 65.1373 42.166 64.9619C42.9495 64.8156 43.854 64.6867 44.6404 64.6867C45.4267 64.6867 46.3312 64.8156 47.1147 64.9619C48.0537 65.1373 48.9534 64.7019 49.3189 63.955C49.6302 63.3188 49.5041 62.6254 49.1093 62.1834C48.9219 61.9736 48.6667 61.8113 48.3434 61.7348C47.0867 61.4372 45.714 61.1929 44.6404 61.1929ZM42.319 64.1361C42.4852 64.2593 42.691 64.3322 42.9138 64.3322C43.4661 64.3322 43.9138 63.8845 43.9138 63.3322C43.9138 62.9176 43.7876 62.5045 43.5365 62.1732C43.285 61.8413 42.864 61.5474 42.319 61.5474C41.7739 61.5474 41.353 61.8413 41.1014 62.1732C40.8503 62.5045 40.7241 62.9176 40.7241 63.3322C40.7241 63.8845 41.1719 64.3322 41.7241 64.3322C41.9469 64.3322 42.1527 64.2593 42.319 64.1361ZM42.7247 63.3253C42.7247 63.3254 42.7246 63.3262 42.7243 63.3278ZM46.681 64.1361C46.8473 64.2593 47.0531 64.3322 47.2759 64.3322C47.8281 64.3322 48.2759 63.8845 48.2759 63.3322C48.2759 62.9176 48.1497 62.5045 47.8986 62.1732C47.647 61.8413 47.2261 61.5474 46.681 61.5474C46.136 61.5474 45.715 61.8413 45.4635 62.1732C45.2124 62.5045 45.0862 62.9176 45.0862 63.3322C45.0862 63.8845 45.5339 64.3322 46.0862 64.3322C46.309 64.3322 46.5148 64.2593 46.681 64.1361ZM47.0867 63.3253C47.0868 63.3252 47.0867 63.3261 47.0864 63.3278ZM46.2753 63.3253C46.2753 63.3251 46.2756 63.3259 46.2757 63.3278Z" fill="black"/><text x="0" y="115" fill="#000000" font-size="5px" font-weight="bold" font-family="'Helvetica Neue', Helvetica, Arial-Unicode, Arial, Sans-serif">Created by Alla Zaleuska</text><text x="0" y="120" fill="#000000" font-size="5px" font-weight="bold" font-family="'Helvetica Neue', Helvetica, Arial-Unicode, Arial, Sans-serif">from the Noun Project</text></svg>