<svg xmlns="http://www.w3.org/2000/svg" xmlns:xlink="http://www.w3.org/1999/xlink" version="1.1" x="0px" y="0px" viewBox="0 0 1000 1250" enable-background="new 0 0 1000 1000" xml:space="preserve"><g><path d="M121.4,374.6c16.9,3.2,34.2,4,51.3,4.4c18.2,0.4,36.3,1.1,54.5,1.8c66.4,2.5,132.7,3.2,199.1,2.2   c66.1-0.9,132.1-1.4,198.2,0.3c64.7,1.7,129.1,2.6,193.7-2.1c18-1.3,35.9-0.2,53.8-2.9c17.6-2.7,35.9-10.7,38.7-30   c0.1-0.3,0.1-0.6,0.1-1c2.4-28.8-14.1-53.5-30.3-75.8c-10.7-14.8-22.9-27.8-37-39.4c-30.5-24.8-66.3-42.2-103-56   c-73.3-27.6-152.3-41.1-230.2-47.6c-79.5-6.6-161.1-1.9-236.1,27.1c-61.2,23.7-115.3,63.6-153.4,117.2   c-12.3,17.3-22.5,35.8-30.7,55.4c-3.8,9.1-7.9,18.2-3.6,27.9C92.1,368.4,109.8,372.4,121.4,374.6z M99.6,346.5   c0.1-0.4,0.1-0.7,0.2-1.1c0.9-3.6,2.5-7.1,3.8-10.5c0.4-0.9,0.7-1.8,1.1-2.6c0.1-0.3,0.2-0.4,0.2-0.5c0.1-0.1,0.2-0.4,0.4-0.9   c0.9-2.1,1.8-4.2,2.8-6.2c22-47.3,56.7-87.1,99.7-117.1c71.4-49.8,159.9-67.4,245.7-66.9c67.3,0.4,135.5,9.9,200.9,25.3   c39.7,9.4,79.1,21.5,116.1,38.8c33,15.5,64.9,35.4,88.8,63.4c8.7,10.2,16.5,21.6,23.5,33c8.6,14,14.4,29.3,13.1,46   c-0.2,1.7-1.5,4.8-2.5,6c-2.3,2.8-4.5,4.1-8,5.8c-6.6,3.3-15.3,4.6-22.9,5.4c-17.1,1.8-34.3,0.9-51.4,2.3   c-65.3,5.2-131,2.9-196.4,1.3c-66.2-1.7-132.2-0.8-198.4,0c-66.4,0.9-132.8,0-199.1-2.8c-16.5-0.7-32.9-1-49.4-1.5   c-16.3-0.5-32.9-1.3-48.9-5.1c-6.6-1.6-11.3-2.9-16.6-6.7c0.7,0.5-1.4-1.4-1.8-1.8c0,0,0,0,0,0c0-0.1-0.1-0.2-0.2-0.3   c-0.3-0.5-0.5-0.9-0.8-1.4c1,1.9,0-1.8-0.1-1C99.6,347.2,99.6,346.8,99.6,346.5z"/><path d="M98.3,445.9c11.6,3.2,23.8,5.9,35.8,6.7c22.4,1.5,44.7-4.6,67.2-2.2c10.5,1.1,20,5.3,27.4,12.7c8.3,8.2,16.7,16.3,26,23.4   c19.6,14.9,42.9,23.3,66.3,11.9c19.4-9.9,36.2-25.3,56.7-33c22.4-8.4,46.5-2,65.5,11.3c19.8,13.9,35.2,33.1,58,42.6   c18.1,7.5,36,6.1,51.5-6.1c12.5-9.8,21.6-23.4,35.5-31.4c8.6-4.9,18.8-6.2,28.5-5.3c9.5,0.9,17.5,6.6,24,13.2   c7.5,7.6,13.3,16.7,19.3,25.4c6.6,9.6,14.6,17.3,25,22.8c20.1,10.8,45.5,11.6,66.3,2.3c21.7-9.7,31.2-30.5,44.6-48.6   c5.4-7.3,13.2-14.4,21.1-16.9c7.3-2.3,15-2.3,22.9-2.3c17.1,0,35.6,2.2,52.1-3.9c16.8-6.2,27-23,24.4-40.9   c-2.2-15-18.5-21.8-31.6-24.3c-15.7-3-31.9-2.5-47.8-1.7c-21.5,1.2-43.1,0.9-64.7,1c-33.3,0.1-66.6,0.3-99.9,0.5   c-133.2,0.7-266.3,1.8-399.5,0.8c-30.7-0.2-61.5,0.3-92.1-2.9c-27.9-2.8-56.1-6.6-83.9-1.3c-11.6,2.2-41.1,10.1-32.7,28   c2.4,5,7.9,8.3,12.7,10.6C84,441.7,91.1,444,98.3,445.9z M79.3,422.2c0.9-0.6,1.8-1.1,2.8-1.6c10-5.3,22.1-7.1,33.2-7.9   c14-1.1,28.2-0.1,42.2,1.2c13.9,1.3,27.8,3,41.8,4.1c15.3,1.1,30.7,0.8,46.1,1c33.3,0.3,66.6,0.5,99.8,0.6   c133.2,0.4,266.3-0.9,399.5-1.5c27.3-0.1,55,1,82.3-0.5c14.7-0.8,29.3-1.8,44-0.7c7.1,0.5,14,1.6,20.9,4.2c0.7,0.3,1.8,0.8,3.2,1.5   c0.6,0.4,1.3,0.7,1.9,1.1c0.1,0,0.8,0.6,1.1,0.8c0.7,0.7,2.1,2.1,1.9,1.9c0.4,0.5,0.7,1,1,1.5c0.2,0.3,0.4,0.7,0.5,1   c0,0.1,0.1,0.2,0.1,0.3c1.8,5,0,12.2-3.8,18.1c-3.5,5.3-10.2,7.8-16.6,9.2c-16.5,3.7-34.3,0.6-51.2,1.5c-8.2,0.4-16.3,1.8-23.8,5.4   c-10.2,5-17.9,13.9-24.4,23c-6.3,8.8-11.4,18.4-18.4,26.6c-7,8.3-15.7,13.8-26.2,16.7c-20.3,5.7-43.7,0-58.4-15.2   c-7.6-7.9-13.1-18.2-19.8-26.8c-6.3-8.1-13.8-15.6-22.9-20.5c-18.7-10-43-6.8-60.2,4.9c-13.2,9.1-22.6,23.3-35.7,32   c-15.8,10.5-34.4,2.6-49.2-7.7c-14.2-9.8-26-22.6-40-32.7C436,453.1,418,447,399.7,446.6c-33.5-0.8-58.2,24.6-86.2,38.9   c-23.1,11.2-45.8-6.3-62.1-21.3c-8.6-7.9-16.2-17.1-26.8-22.5c-10.7-5.3-22.7-6.8-34.5-6.9c-20-0.2-40.2,4.9-60.1,2.4   c-0.5-0.1-2.5-0.4-2.9-0.4c-1.5-0.2-2.9-0.5-4.4-0.7c-3.6-0.6-7.2-1.4-10.7-2.2c-7.3-1.6-14.5-3.6-21.5-6c-3.2-1.1-4.4-1.6-7.5-3.2   c-1.2-0.6-2.3-1.3-3.4-2c-0.1-0.1-0.3-0.2-0.5-0.3C79.1,422.3,79.2,422.2,79.3,422.2z"/><path d="M878.9,505.8c-17.4-5.7-39.5-8.5-57.1-2.4c-18.1,6.3-28.8,22.9-39.6,37.6c-6,8-12.5,15.9-21.5,20.7   c-10.8,5.8-25.5,4.7-37.3,4.1c-30.4-1.7-61.4-11.9-85.9-30.2c-16.4-12.2-36-18-56.4-15.4c-18.8,2.4-36.1,9.9-53.8,16.2   c-17.4,6.1-35.8,10.9-54.2,7.1c-9.7-2-19.5-6-27.3-12.1c-7.6-5.9-14-13.3-21-19.9c-6.8-6.4-14.4-12.2-23.5-14.7   c-10.9-3-21.8,0.3-31.6,5.2c-25.8,12.8-53.8,21.3-82.9,18.2c-12.7-1.3-26.4-5.2-37.5-11.7c-5.8-3.4-10.4-8.2-15.4-13.2   c-5.2-5.2-10.6-10.2-16.9-13.9c-8.3-4.9-17.8-6.8-27.2-7.6c-6.1-0.5-12.3-0.2-18.4,0.4c-6.1,0.5-13-1-19.1-1.4   c-9.7-0.5-19.5-0.7-29.2,0.3c-14.5,1.5-29,6.1-38.4,18c-10.6,13.5-14.5,31.8-16.3,48.6c-1.7,15.5,1.1,31.8,9.7,45   c17,26.5,50.9,36,80.2,40.6c32.7,5.1,65.8,4.8,98.8,4.8c59.4,0,118.8,1.1,178.2,0.9c65.2-0.2,130.4-0.5,195.6,0.3   c62.8,0.8,125.8,1.3,188.2-6.7c15.3-1.9,30.5-4.4,45.5-7.5c13.1-2.7,26.3-5.6,38.6-10.9c14.7-6.3,29.6-17.1,32.9-33.7   C942.8,539.1,905.8,514.7,878.9,505.8z M917.8,577.7c-3.7,5.6-11.1,10.3-17.7,13.5c-11.2,5.5-23.8,8-35.9,10.6   c-14.9,3.2-30,5.7-45.1,7.7c-62.3,8.1-125.4,7.4-188.2,6.7c-65.2-0.8-130.4-0.5-195.6-0.3c-59.4,0.2-118.8-0.8-178.2-0.9   c-32.3,0-64.8,0.5-96.8-4.6c-15.2-2.4-31-6.2-44.5-12.9c-12.3-6.1-21.9-14.1-28-26c-6.5-13-5.5-29.5-2.2-44.4   c1.7-7.7,3.8-15,7.4-21.7c2.9-5.2,6.5-9,11.2-11.8c5-3,11.6-4.7,17.8-5.4c9.5-1.2,19.2-0.9,28.8-0.5c5.8,0.3,11.6,0.7,17.4,1.2   c6.7,0.5,13.4-0.5,20.2-0.2c8.3,0.4,16.3,2.6,23.3,7c11.3,7.2,19.8,20.3,32.5,27.2c25.2,13.6,55.8,15.6,83.4,10.1   c14.3-2.9,28.1-8.2,41.4-14.1c9.4-4.2,18.5-10.3,29.2-7.3c7.9,2.2,14.3,8.9,20,14.5c7.1,7,14,14.1,22.2,19.9   c17.3,12.1,39.7,15.7,60.3,12.9c18.7-2.6,36.2-10.2,53.9-16.4c12-4.2,24.3-7.8,37.1-7.8c14.2,0,26.9,5.7,38.2,14.1   c20.8,15.6,46.1,25,71.5,29.6c12.6,2.3,25.4,3.3,38.2,2.7c10.7-0.4,21-1.9,30.4-7.3c16-9.1,25-26.2,36.3-40   c5-6.1,10.9-12.3,18.4-15.4c8.4-3.4,18.2-3.3,27.1-2.7c17.2,1.1,34.1,7.4,48.3,17.2c5.6,3.9,11.3,9.3,15,14.4   c1.9,2.6,3.5,5.5,4.8,8.4c0.4,0.8,1.8,6.5,1.9,7C922.4,568.8,921.3,572.5,917.8,577.7z"/><path d="M651.5,707.9c3.3,2.2,6.6,4.2,10.1,6.1c10.3,5.7,21.6,9.9,33.3,11.8c18.6,3,36.6-0.5,53.7-8.1c6.2-2.8,12.2-6.2,18-9.6   c2.3-1.3,4.5-2.7,6.8-3.9c1-0.5,2-1,3-1.5c0.1,0,0.2-0.1,0.3-0.1c0.5-0.2,1-0.4,1.4-0.5c0.2,0,0.3-0.1,0.5-0.1   c0.7,0.5,1.5,1.1,1.6,1.2c1.9,1.5,4,2.9,6,4.3c7.5,5,15.7,8.8,24.2,11.8c15.9,5.6,33.9,7.1,50.1,2c17.2-5.4,30.3-18.5,37.3-34.8   c4-9.4,6.1-19.2,7.3-29.3c0.5-4.1-3.8-7.5-7.5-7.5c-81.1,0-162.3,0.3-243.4,0.7c-88.3,0.4-176.6,1-264.9,1.5   c-68,0.4-136,0.9-204,1.2c-21.1,0.1-42.3,0.8-63.4,0.1c-20-0.4-41.8,12.8-37.1,35.4c2.5,11.7,13.3,18.3,22.2,24.7   c11.5,8.3,23.3,16.2,35.3,23.7c15.7,9.7,32.8,14.6,50.5,7.2c14.8-6.2,27.1-17.1,41.4-24.1c14.9-7.3,36.3-10.8,49.5,1.3   c11.1,10,16,29.4,32.7,31.6c9.8,1.3,20.4-5.5,28.1-10.7c9.8-6.6,18.6-14.7,28.6-20.9c4.6-2.8,9.3-5,14.5-6.3   c1.6-0.4,2.7-0.7,4.2-0.6c0,0,0.1,0,0.1,0c0.5,0.1,1.1,0.3,1.6,0.5c-1-0.3,1.5,0.9,2,1.2c0.1,0.1,0.6,0.4,0.8,0.6   c0.3,0.3,0.7,0.6,1,0.8c2.2,2,4.2,4.2,6.1,6.5c7.4,9,15.1,21.5,25.6,29.5c12.7,9.7,27.9,6.3,39.6-3c9.7-7.8,17-18.3,25.4-27.3   c5.6-6,13.7-14.7,22-15.5c9.3-0.9,17.2,8.6,22.8,15.2c6.7,7.9,12.6,16.3,22.3,20.8c31.6,14.8,52-26.9,76.5-36.2   c3.3-1.2,5.8-1.7,8.6-1.7c0.9,0,1.7,0.1,2.5,0.1C647.1,705.5,651.6,707.9,651.5,707.9z M777.9,701.3   C777.9,701.3,777.9,701.3,777.9,701.3C777.5,701.2,777.6,701.2,777.9,701.3z M779,701.7C779,701.7,779,701.7,779,701.7   C779,701.7,779,701.7,779,701.7C779,701.7,779,701.7,779,701.7z M644.9,690.6c-16.3,0.7-29.3,12.4-40.9,22.7   c-5.6,4.9-10.7,9.7-16.7,13.6c-2.8,1.8-5,2.9-7.5,3.7c-0.7,0.2-1.4,0.4-2.2,0.6c-0.1,0-1.2,0.2-1.4,0.2c-0.6,0-1.2,0.1-1.7,0.1   c-0.2,0-2.1-0.2-2.1-0.2c-7.3-1.4-13.3-7.7-18.2-13.8c-7.7-9.6-15.5-18.9-27.3-23.5c-21.8-8.6-41.2,15.7-53.3,29.8   c-6.4,7.4-12.5,15.3-21.6,19.5c-3.9,1.8-8,1.2-11.6-0.8c-4.5-2.4-8.3-6.7-12.3-11.6c-3.6-4.4-7.7-10.3-11.8-15.5   c-3.7-4.8-7.7-9.2-12.8-12.6c-6.1-4.1-12.6-4.1-19.6-2.5c-23.5,5.3-37.9,27.2-59.6,36c-1.1,0.5-2.3,0.9-3.5,1.2   c0,0-1.6,0.3-1.7,0.3c-0.5,0-1,0-1.5,0c0.8,0-0.5-0.2-0.9-0.3c0.3,0-1.6-1-1.6-1c-1.4-1.2-2.6-2.6-3.7-4c-4.3-5.3-8.8-13.3-14-19   c-14.3-16.1-36.6-17.6-56.3-12.2c-15.1,4.2-27.7,13.5-40.8,21.8c-11.9,7.6-22.7,12.3-36.3,8c-10.4-3.3-19.7-10.7-28.7-16.6   c-10.3-6.8-21.6-13.7-30.8-21.9c-5-4.5-6.8-10.4-4-15.7c4-7.5,13.8-9.1,21.4-8.9c10.7,0.4,21.4,0.1,32.1,0.1   c24.3-0.1,48.6-0.2,73-0.4c75.8-0.4,151.6-0.9,227.3-1.4c89.1-0.5,178.2-1.1,267.2-1.4c55.8-0.2,111.6-0.4,167.3-0.4   c-3,15-9.9,29.6-23.3,37.9c-12.9,8-28.9,8.1-43.5,4.6c-8.1-2-15.8-5.2-23.1-9.4c-6.2-3.5-11.9-9.9-19.1-10.9   c-4.5-0.6-9.3,1.8-13.2,3.8c-5.2,2.7-10.1,5.8-15.2,8.6c-13.7,7.6-28.2,12.9-44.2,12.7c-10.3-0.1-20.6-2.7-30-6.8   c-5.9-2.6-11.5-5.8-16.9-9.2c-2.6-1.7-5.4-4.4-8.6-4.9C649.6,690.7,647.3,690.5,644.9,690.6z"/><path d="M891,729.7c-3.4,0.7-6.7,2.7-9.5,4.7c-4.8,3.5-9.6,6.5-15.2,8.5c-11.2,4-23.4,4.2-35.1,3.3c-11.9-0.9-23.6-3.6-35.2-6.4   c-11.2-2.7-21.6-5.6-33.3-4c-17.8,2.5-30.7,17.7-49.4,16.4c-9.8-0.7-18.8-6.4-27.3-10.7c-9.4-4.9-19.5-10.4-30.2-11.9   c-9.4-1.3-17.3,2.3-25.2,7.1c-8.9,5.4-17,12.1-25.4,18.3c-6.5,4.8-13.9,10.7-21.6,12.2c-9.6,1.9-19.4,0-28.5-3.3   c-12.4-4.6-23.4-11.6-36.9-12.8c-19.6-1.8-35,12.4-52.2,19.2c-12.5,4.9-26.8,7.4-39,1.3c-10.9-5.4-18.8-15.5-26.2-25   c-12.3-15-29-4.5-40.8,4.8c-10.7,8.4-26.3,24.3-40.2,20.3c-7.1-2-14.9-8.8-21.2-13.6c-7.7-5.9-15.4-12.2-24-16.9   c-7.4-4.1-15.4-6.2-23.6-3.6c-8.7,2.7-17,6.9-25.1,10.8c-17.5,8.3-35.9,19.2-55.3,22.3c-1.7,0.3-5,0-7.1-0.4   c-4-0.8-7.8-2.2-11.6-3.7c-7.9-3.2-15.4-7.3-23-11.1c-11.1-5.5-30-16.4-42.1-7.5c-6.9,5.1-8.5,13.6-8.6,21.8   c-0.1,11.2,1.1,22.4,3.2,33.3c4.1,20.8,14.3,41.2,33.1,52.2c11.1,6.4,24.4,8.1,36.8,10.2c14.7,2.5,29.5,4.3,44.3,5.6   c60.3,5.3,120.9,2.3,181.3,2.2c65.3-0.1,130.5,1,195.8,0.7c50.1-0.3,100.2-0.7,150.3-1.1c37.8-0.3,76.6-2.1,113-13.1   c32.6-9.8,64.5-30.1,73.4-65.1C913.6,778.6,921.1,723.7,891,729.7z M895.1,744.2c0,0,0.1,0,0.1,0   C895.2,744.2,895.2,744.2,895.1,744.2C895.1,744.2,895.1,744.2,895.1,744.2z M894.7,744.1C894.7,744.1,894.7,744.1,894.7,744.1   C894.1,743.9,894.3,743.9,894.7,744.1z M897,779.5c0,0-0.2,1.2-0.2,1.5c-0.1,0.5-0.2,1.1-0.2,1.6c-0.2,1.3-0.4,2.5-0.6,3.8   c-0.4,2.3-0.9,4.6-1.6,6.8c-4.4,14.9-14.5,27.1-27.2,35.8c-29.7,20.5-68.9,25.1-103.9,27.3c-39.5,2.6-79.3,1.4-118.8,1.9   c-66.2,0.7-132.5,1-198.7,0.6c-31.2-0.2-62.3-0.8-93.5-0.5c-30.4,0.3-60.7,1-91.1,0.6c-30.1-0.4-60.3-1.8-90.2-5.7   c-13.7-1.8-28-3.6-41.2-7.7c-9.1-2.8-16.8-9.2-22.2-16.9c-11.8-17.1-14.4-39.8-14.3-60.1c0-1.9,0.1-3.1,0.4-4.7   c0.4-2.1,0.3-1.6,1.1-3c0.3-0.6,0.8-1,1.8-1.1c3.2-0.3,3.8,0.1,7.3,1.1c3.5,1,6.9,2.4,10.2,3.9c15.4,7,30.4,17.1,47.2,20.3   c18.2,3.4,37.4-7.3,53.3-14.7c9.6-4.5,19.1-9.2,28.8-13.6c3.4-1.5,6.7-2.9,10.2-4.2c1.3-0.5,2.7-0.9,4-1.2   c-0.4,0.1,1.3-0.1,1.4-0.1c0.9,0,0.5,0,2.1,0.4c8.2,2,15.7,8.4,22.3,13.4c7.7,5.8,15.1,12.1,23.4,17c18.3,10.8,36.3,1.7,51.5-10.1   c6.6-5.2,12.9-10.9,20.1-15.4c0.7-0.4,1.5-0.8,2.2-1.2c0,0,1.4-0.6,1.4-0.7c0.6-0.2,1.1-0.4,1.7-0.6c0.3-0.1,0.7-0.2,1.1-0.2   c0.1,0,0.2,0,0.3,0c1.6-0.1,1.1-0.1,2,0.3c1.3,0.7,1.8,1.4,3.2,3c10.3,13.1,21.6,25.7,38,30.9c22.4,7.1,46.6-3.9,65.6-15.1   c8-4.7,17.1-8.3,26.5-6.7c7.9,1.3,15.1,5.2,22.4,8.4c17.9,8.1,38.7,12.1,56.7,2.2c8.8-4.9,16.7-11.4,24.8-17.4   c7.1-5.3,14.8-11.6,23.1-14.5c6.8-2.4,16.3,2.2,23.7,5.8c9.8,4.7,19.1,10.3,29.3,14c9.8,3.5,21.1,3.5,30.9,0.5   c8.6-2.6,16.1-7.6,24.1-11.4c8.5-4.1,17.2-4.4,26.3-2.1c11.3,2.9,22.7,5.7,34.3,7.6c24,3.9,50.5,4.2,71.2-10.5c3-2.1,5.3-4,7.8-4.6   c0,0,0.1,0.1,0.1,0.1c-0.2,0.1,1.2,2.3,0.9,1.4c0.4,1.1,0.8,2.3,1,3.5c0.8,3.4,0.9,5,1,8.9C898.3,765.3,897.8,772.5,897,779.5z"/><path d="M301.4,275.2c3.3,1.9,8.5,1,10.3-2.7c2.3-4.8,5-9.5,8.3-13.7c2.5-3.2,3.2-7.4,0-10.6c-2.6-2.6-8.1-3.2-10.6,0   c-4.1,5.3-7.7,10.7-10.6,16.7C296.9,268.7,297.7,273.1,301.4,275.2z"/><path d="M422.2,250.9c4.3-1.2,5.8-5.2,5.2-9.2c0.2,1.3,0-1.3,0-1.3c0-0.8,0-1.6,0.1-2.4c-0.1,1.3,0.3-1.3,0.3-1.2   c0.2-0.8,0.5-1.6,0.7-2.3c1.4-3.9-1.5-8.2-5.2-9.2c-4.1-1.1-7.9,1.4-9.2,5.2c-1.8,5-1.8,10.1-1.1,15.2   C413.6,249.7,418.7,251.9,422.2,250.9z"/><path d="M591.5,265.4c2.4,3.3,6.4,4.9,10.3,2.7c3.2-1.9,5.1-7,2.7-10.3c-3.7-5-6.9-10.3-9.4-16.1c-1.7-3.7-7-4.6-10.3-2.7   c-3.8,2.2-4.3,6.5-2.7,10.3C584.6,255,587.7,260.4,591.5,265.4z"/><path d="M684.4,288.3c3.8,1.6,8.2-1.7,9.2-5.2c0.5-1.9,0.3-4-0.8-5.8c-0.9-1.5-2-2.3-3.5-3c0,0,0,0,0,0c0.1,0,0.1,0,0-0.1   c0-0.3,0-0.4,0,0l0,0v0c0,0,0-0.1,0-0.1c0.1-1.6,0-3.1-0.9-4.6c-1-1.7-2.6-2.9-4.5-3.4c-3.6-1-8.7,1.2-9.2,5.2   c-0.5,3.8-0.2,6.9,1.5,10.3C677.9,284.9,681.1,287,684.4,288.3z M689.2,274.2C689.2,274.2,689.2,274.2,689.2,274.2   C689.2,274.2,689.2,274.2,689.2,274.2C689.2,274.2,689.2,274.2,689.2,274.2z M689.3,274.4C689.3,274.4,689.3,274.4,689.3,274.4   c0,0.3-0.1,0.5-0.1,0.9C689.2,275,689.2,274.7,689.3,274.4z"/><path d="M555.3,206c1.2,3.5,5.6,5.4,9,4.5c1.9-0.5,3.5-1.8,4.5-3.4c1.1-1.8,1.1-3.7,0.8-5.8c-0.4-2.3-1.9-4.6-3.6-6.3   c-0.9-0.9-1.9-1.7-3.1-2.2c-2-0.9-3.1-1.2-5.3-1.4c-1.9-0.2-4,0.9-5.3,2.2c-1.4,1.4-2.2,3.3-2.2,5.3s0.8,3.9,2.2,5.3   C553.3,205.1,554.3,205.6,555.3,206z"/><path d="M474.9,183.4c0.7,0.4,1.4,0.7,2.1,0.8c1.8,1.1,4,1.6,6.1,1c4-1.1,6.2-5.3,5.2-9.2c-0.5-2.1-1.8-3.8-3.3-4.9   c-1.1-2.2-2.9-4.1-4.9-5.1c-3.6-1.9-8.1-1-10.3,2.7c-1.7,2.9-1.2,7,1.3,9.3C471.4,180.2,473.1,182.4,474.9,183.4z"/><path d="M392.4,189.2c3.8,1,8.4-1.2,9.2-5.2c0.4-1.9,0.8-3.8,1.2-5.6c0.8-4-1.1-8.1-5.2-9.2c-3.8-1-8.4,1.2-9.2,5.2   c-0.4,1.9-0.8,3.8-1.2,5.6C386.4,183.9,388.3,188,392.4,189.2z"/><path d="M319.9,209.9c1.8-1.6,3.6-3.2,5.4-4.7c3.1-2.7,2.7-7.9,0-10.6c-3-3-7.5-2.7-10.6,0c-1.8,1.6-3.6,3.2-5.4,4.7   c-3.1,2.7-2.7,7.9,0,10.6C312.4,212.9,316.8,212.5,319.9,209.9z"/><path d="M245.9,239.8c0.4-0.4,0.8-0.8,1.2-1.1c1-0.7,2.1-1.4,3.2-1.9c3.7-1.8,4.6-6.9,2.7-10.3c-2.2-3.7-6.6-4.5-10.3-2.7   c-2.7,1.3-5.3,3.2-7.4,5.4c-2.9,2.9-2.9,7.7,0,10.6C238.2,242.7,243,242.7,245.9,239.8z"/><path d="M501.4,272.9c4.1,0,7.5-3.4,7.5-7.5c0-1.9,0-3.8,0-5.6c0-4.1-3.4-7.5-7.5-7.5s-7.5,3.4-7.5,7.5c0,1.9,0,3.8,0,5.6   C493.9,269.4,497.3,272.9,501.4,272.9z"/><path d="M642.4,210.8c4.1,0,7.5-3.4,7.5-7.5c0-0.8,0-1.5,0-2.3c0-4.1-3.4-7.5-7.5-7.5c-4.1,0-7.5,3.4-7.5,7.5c0,0.8,0,1.5,0,2.3   C634.9,207.4,638.3,210.8,642.4,210.8z"/><path d="M750.6,260.8c1.3,1.6,2.4,2.9,4.5,3.4c1.9,0.5,4,0.3,5.8-0.8c1.7-1,2.9-2.6,3.4-4.5c0.5-1.7,0.4-4.3-0.8-5.8   c-1.8-2.3-3.6-4.6-5.4-7c-1.3-1.6-2.4-2.9-4.5-3.4c-1.9-0.5-4-0.3-5.8,0.8c-1.7,1-2.9,2.6-3.4,4.5c-0.5,1.7-0.4,4.3,0.8,5.8   C747,256.2,748.8,258.5,750.6,260.8z"/><path d="M696.5,225.5c0.4,0,0.8,0,1.1,0c4.1,0,7.5-3.4,7.5-7.5s-3.4-7.5-7.5-7.5c-0.4,0-0.8,0-1.1,0c-4.1,0-7.5,3.4-7.5,7.5   S692.4,225.5,696.5,225.5z"/><path d="M802.8,283.3c2.4,3.3,6.5,4.9,10.3,2.7c3.3-1.9,5.1-6.9,2.7-10.3c-3-4.1-6-8.3-9-12.4c-2.4-3.3-6.5-4.9-10.3-2.7   c-3.3,1.9-5.1,6.9-2.7,10.3C796.8,275,799.8,279.1,802.8,283.3z"/></g><text x="0" y="1015" fill="#000000" font-size="5px" font-weight="bold" font-family="'Helvetica Neue', Helvetica, Arial-Unicode, Arial, Sans-serif">Created by Alvaro Cabrera</text><text x="0" y="1020" fill="#000000" font-size="5px" font-weight="bold" font-family="'Helvetica Neue', Helvetica, Arial-Unicode, Arial, Sans-serif">from the Noun Project</text></svg>