<svg xmlns="http://www.w3.org/2000/svg" xmlns:xlink="http://www.w3.org/1999/xlink" version="1.1" x="0px" y="0px" viewBox="0 0 100 125" enable-background="new 0 0 100 100" xml:space="preserve"><g><path d="M65.993,46.515c-0.695-2.043,1.008-4.785-0.309-6.625c-0.002-0.002-0.005-0.002-0.007-0.004   c-0.349-0.637-4.948,0.586-7.294,0.783c-1.766,0.15-3.609,0.036-5.344,0.448c0.434-3.817,0.404-7.788-3.697-9.542   c-3.414-1.457-7.648-0.383-10.66,1.482c-6.766,4.189-8.307,13.084-7.227,20.377c1.189,8.031,7.732,15.369,16.099,15.66   c3.392,0.117,6.983-0.99,9.371-3.461c2.763-2.857,2.233-6.717,0.709-10.014c-0.051-0.109-0.212-0.014-0.162,0.096   c1.032,2.23,1.668,4.154,0.907,6.594c-0.523,1.674-1.709,3.057-3.088,4.092c-2.646,1.99-6.307,2.424-9.5,1.994   c-7.534-1.014-12.461-8.121-13.83-15.1c-1.275-6.494,0.354-14.119,5.391-18.629c2.8-2.508,6.613-3.615,10.316-3.047   c4.97,0.763,5.27,4.785,5.09,9.562c-0.648-0.199-6.873,3.787-9.468,2.207c0.644-1.766,0.991-3.613,1.863-5.297   c0.499-0.963,1.263-1.691,2.316-1.998c0.702,2.107-2.288,4.463-1.988,7.162c0.024,0.217,0.358,0.227,0.345,0   c-0.16-2.623,2.955-4.512,1.926-7.178c-0.008-0.019,3.311,0.139,1.816,2.1c-0.098,0.064-0.037,0.215,0.079,0.188   c0.78-0.184,0.964-0.785,0.642-1.477c-0.406-0.869-1.698-1.363-2.598-1.221c-3.336,0.521-3.957,5.053-4.777,7.666   c0.227,2.195,6.062-0.227,8.075-1.029c2.02-0.807,3.875-0.979,6.052-1.053c2.871-0.098,5.592-0.957,8.444-1.105   c0.64,1.398-0.149,5.367-0.091,6.148s0.871,2.324,1.385,3.324c0.776,1.505,1.329,2.917,1.442,4.598   c-2.161-0.354-4.31-0.48-6.493-0.211c-2.373,0.291-4.674,1.047-7.008,1.541c-1.896,0.4-7.818-0.113-5.709,3.662   c1.26,2.252,4.336,1.865,6.376,1.359c1.841-0.457,2.819-1.645,0.997-2.918c-0.236-0.164-0.449,0.217-0.223,0.383   c0.973,0.713,0.588,1.746-0.011,1.467c-0.581-0.658-1.862-0.725-2.668-0.875c-1.318-0.247-2.716-0.535-2.884-2.064   c0.112-0.037,1.172-0.117,1.58-0.115c2.328,0.01,4.742-0.883,6.982-1.418c3.089-0.736,9.71-0.125,9.695-0.512   C68.749,51.458,66.944,49.313,65.993,46.515z M51.886,58.673c0.678,0.281,1.43,0.385,2.145,0.527   c0.651,0.13,1.222,0.396,1.841,0.586c-0.983,0.4-2.454,0.583-2.942,0.621c-0.921,0.07-1.617-0.115-2.452-0.574   c-1.272-0.697-1.257-2.669-0.034-3.226C50.355,57.638,50.918,58.271,51.886,58.673z"/><path d="M61.647,43.601c-4.434,0.391-8.758,1.904-13.178,2.49c-0.137,0.018-0.141,0.234,0,0.217   c4.407-0.521,8.908-1.346,13.223-2.375C61.876,43.888,61.839,43.583,61.647,43.601z"/><path d="M61.177,45.581c0.17-0.045,0.132-0.301-0.041-0.303c-2.453-0.016-4.94,1.07-7.331,1.551   c-0.186,0.037-0.103,0.303,0.077,0.277C56.304,46.759,58.808,46.188,61.177,45.581z"/><path d="M48.726,51.146c2.43,0.191,5.09-0.596,7.428-1.143c1.113-0.26,4.734-0.637,5.277-1.914   c0.081-0.189-0.137-0.402-0.303-0.234c-1.125,1.143-4.055,1.418-5.527,1.77c-2.261,0.537-4.566,1.068-6.875,1.354   C48.618,50.991,48.614,51.138,48.726,51.146z"/><path d="M36.257,42.276c-1.9,3.248-3.474,6.719-2.029,10.457c0.625,1.617,1.757,3.021,2.553,4.555   c0.978,1.883,0.885,4.068,1.875,5.955c0.143,0.271,0.555,0.031,0.412-0.24c-0.895-1.705-0.922-3.6-1.609-5.371   c-0.492-1.268-1.318-2.408-2.016-3.568c-2.4-3.996-0.947-7.832,1.226-11.547C36.823,42.251,36.411,42.011,36.257,42.276z"/><path d="M40.914,61.812c-0.476-2.16-1.294-4.143-2.306-6.102c-1.053-2.037-2.824-3.645-2.58-6.117c0.03-0.305-0.445-0.303-0.477,0   c-0.191,1.936,0.727,3.34,1.772,4.889c1.509,2.234,2.554,4.834,3.131,7.457C40.521,62.239,40.979,62.112,40.914,61.812z"/></g><text x="0" y="115" fill="#000000" font-size="5px" font-weight="bold" font-family="'Helvetica Neue', Helvetica, Arial-Unicode, Arial, Sans-serif">Created by Julia Amadeo</text><text x="0" y="120" fill="#000000" font-size="5px" font-weight="bold" font-family="'Helvetica Neue', Helvetica, Arial-Unicode, Arial, Sans-serif">from the Noun Project</text></svg>