<svg xmlns="http://www.w3.org/2000/svg" xmlns:xlink="http://www.w3.org/1999/xlink" version="1.1" x="0px" y="0px" viewBox="0 0 1000 1250" enable-background="new 0 0 1000 1000" xml:space="preserve"><g><path d="M306.4,336.3c102.3,3.7,204.7,3.8,307.1,3.2c4.1,0,8-5.2,5.2-9c-6.9-9.3-15.2-17.6-22.2-26.8c-3.3-4.3-6.2-8.6-11.2-11.1   c-5.1-2.6-11-2.6-16.5-2.3c-26.5,1.1-52.9,1.8-79.4,1.8c-25.9,0.1-51.9-0.4-77.8-1.4c-13.2-0.5-26.5-1.1-39.7-1.9   c-6.3-0.4-12.7-0.8-19-1.2c-6.3-0.4-13.1-1.6-19.2,0.5c-0.3,0.1-0.6,0.2-0.8,0.3c-0.2,0.1-0.4,0.2-0.6,0.3   c-7,3.4-11.2,10.9-15.5,17.1c-5.1,7.2-10.3,14.4-15.4,21.5C298.4,331.2,302.2,336.1,306.4,336.3z M325.1,314.3   c3.5-4.9,6.9-11.9,12.3-14.9c4.8-1.4,10.4-0.2,15.3,0.2c6.3,0.4,12.7,0.8,19,1.2c12.7,0.7,25.4,1.3,38.1,1.8   c24.9,1,49.7,1.4,74.6,1.4c24.9,0,49.8-0.5,74.6-1.4c5.3-0.2,10.6-0.6,15.8-0.4c5.4,0.2,8.1,3.5,11.1,7.6c4.6,6.3,9.9,12,15,17.9   c-94.5,0.5-189,0.2-283.4-2.9C320.2,321.2,322.6,317.8,325.1,314.3z"/><path d="M644.1,360c-0.5-2.6-3.2-4.4-5.8-4.4c-53.1-0.7-106.3-1.2-159.4-1.5c-26.4-0.2-52.8-0.3-79.2-0.3c-13.1,0-26.2,0-39.4,0   c-11.5,0-23.1,0.5-34.6-0.3c-9.9-0.7-19.9-1.9-29.9-1.2c-8.7,0.6-15.6,2.6-20.9,9.7c-4.4,5.8-7.3,12.7-9.9,19.5   c-1.3,3.5-3.3,7.8-2.9,11.7c-0.1,1.5,0.4,3.1,1.7,4.3c0.6,0.7,1.3,1.1,2.1,1.4c15.1,8.4,35.2,4.7,51.7,4.6   c26.3-0.1,52.5,0.5,78.8,0.6c53,0.3,106,0.5,159.1,0.5c32.3,0,64.7-0.1,97-0.2c4.5,0,7.5-5.1,5.2-9   C651.1,384.3,646.6,372.6,644.1,360z M334.3,391.7c-11.5-0.1-22.9,0.1-34.4,0.4c-7.9,0.2-17.4,0.7-25.2-2.2c0-0.1,0.1-0.2,0.1-0.3   c0.9-3,2-5.9,3.3-8.8c2.1-4.9,5.4-12.1,9.3-14.7c-0.1,0.1,1.6-0.6,1.7-0.7c1-0.3,1.9-0.5,2.9-0.7c2-0.4,4-0.5,6-0.6   c5.2-0.3,10.5,0.1,15.7,0.4c10.3,0.7,20.4,1.3,30.8,1.3c52.8-0.2,105.5,0,158.3,0.4c43.6,0.3,87.1,0.8,130.7,1.3   c2.1,8.6,5.1,16.9,8.9,24.8C539.8,392.8,437,392.6,334.3,391.7z"/><path d="M635.5,418.6c-88-0.5-176.1-0.2-264.1-0.3c-21.1,0-42.2-0.1-63.3-0.1c-4.7,0-9.5,0-14.2-0.1c-3.6,0-6.7-0.2-8.9,3.1   c-1.2,1.8-1.2,4.3-1.2,6.4c-0.1,6.9,0.5,13.8,1.1,20.7c0.9,11.6,2.1,23.2,3.3,34.8c6.3,60.3,13.7,120.8,24.1,180.5   c3.4,19.4,7.3,38.7,10.5,58.1c4.5,27.9,8.8,55.8,13.1,83.7c4.1,26.6,8.1,53.2,12.5,79.8c1.4,8.4,2.8,16.8,4.4,25.1   c0.9,4.6,1.3,10.6,6.4,12.5c1.8,0.7,4.2,0.6,6.1,0.7c3.5,0.3,7,0.4,10.5,0.6c11.7,0.5,23.4,0.9,35.1,1.3c33.1,1,66.3,1.8,99.4,2.5   c23.8,0.5,47.7,1,71.5,1.5c1.8,0,3.2-0.6,4.1-1.6c0.9-0.7,1.5-1.7,1.6-2.8c7-52,10.4-104.3,13.1-156.7c1.1-21.8,2.3-43.5,4.4-65.2   c5.1-52.4,11.1-104.7,17.5-156.9c3.1-25,6.2-49.4,9.8-74.1c2.1-14.2,3.6-28.9,7.5-42.7c0.1-0.4,0.3-0.9,0.4-1.3c0,0,0,0,0-0.1   c0,0,0,0,0,0c0.1-0.2,0.2-0.5,0.3-0.7c-0.1,0.3-0.2,0.6-0.3,0.8c-0.5,0.8-1.6,1.6-3.1,2.2C643.1,427.9,642.7,418.6,635.5,418.6z    M623.8,449.2c-3.6,22.2-6.6,44.6-9.4,67c-7,54.3-13.3,108.7-18.9,163.2c-1.8,17.6-3.7,35.2-4.9,52.8c-3.2,45-4.5,90.1-8.5,135.1   c-1.5,16.7-3.3,33.4-5.5,50.1c-61.3-1.3-122.6-2.4-183.8-4.5c-8.9-0.3-17.9-0.6-26.8-1.2c-0.2,0-0.5,0-0.7-0.1   c-4.1-17.3-6.3-35.2-9-52.8c-8.5-53.8-16.1-107.8-25.4-161.5c-3.7-21.1-7.9-42-11.2-63.1c-4.8-30.9-8.9-62-12.8-93.1   c-3.4-27.8-6.6-55.7-9.1-83.6c-0.8-8.5-1.5-16.9-1.8-25.4c0-0.6,0-1.3-0.1-2c0.2,0,0.3,0,0.5,0c2.8,0,5.5,0,8.3,0   c88.6,0.4,177.1,0.1,265.7,0.2c19,0,38,0.1,57,0.2C625.9,436.7,624.8,442.9,623.8,449.2z M640.1,428.4   C639.9,428.9,639.9,428.7,640.1,428.4L640.1,428.4z"/><path d="M733.5,109.1C685,91.6,635,78.8,584.1,70.7c-3.5-0.6-6,0.9-7.4,4.2c-22.2,55.2-41.8,111.5-65.7,166   c-2.8,6.3-5.6,12.6-8.8,18.8c-1.1,2.2-2.3,4.4-3.6,6.5c-0.4,0.7-0.9,1.4-1.4,2.1c-0.6,0.5-1.1,1.1-1.5,1.8c-1.2,2-1,4.2,0.1,6   c0.7,1.4,2,2.5,3.8,2.9c0.7,0.2,1.4,0.3,2.1,0.2c16.4,0.5,32.7-3,49.1-2.4c2.7,0.1,5-1.9,5.8-4.4c16.4-50.4,32.9-100.9,49.3-151.3   c37.9,14.9,76.6,28.1,113.8,44.6c4.3,1.9,8.6-0.4,9-5.2c1.4-15.1,4.8-29.7,9-44.2C738.7,113.1,736.6,110.2,733.5,109.1z M717.7,152   c-37.5-16.1-76.1-29.3-114-44.4c-3.1-1.2-6.4,1.3-7.4,4.2c-16.6,51-33.3,102.1-49.9,153.1c-11.5,0-22.9,1.7-34.4,2.3   c1.4-2.8,2.7-5.7,4-8.4c5.6-11.8,10.6-23.8,15.5-35.8c12.4-30.2,24.1-60.7,35.9-91.2c6.2-16.2,12.4-32.4,18.9-48.6   c47.1,7.7,93.4,19.6,138.4,35.5C721.6,129.6,719.2,140.7,717.7,152z"/></g><text x="0" y="1015" fill="#000000" font-size="5px" font-weight="bold" font-family="'Helvetica Neue', Helvetica, Arial-Unicode, Arial, Sans-serif">Created by Alvaro Cabrera</text><text x="0" y="1020" fill="#000000" font-size="5px" font-weight="bold" font-family="'Helvetica Neue', Helvetica, Arial-Unicode, Arial, Sans-serif">from the Noun Project</text></svg>