<svg xmlns="http://www.w3.org/2000/svg" xmlns:xlink="http://www.w3.org/1999/xlink" version="1.1" x="0px" y="0px" viewBox="0 0 1000 1250" enable-background="new 0 0 1000 1000" xml:space="preserve"><g><path d="M486.5,182.7c17.3-2.8,35.6-2,52.4,3c1.6,0.5,3.1,0.4,4.3-0.1c1.9-0.6,3.5-2,4-4.6c1.7-7.7-0.8-16.6-2.1-24.1   c-2.4-13.9-5.4-27.7-8.4-41.4c-6.1-28.6-13.2-57.2-17.4-86.2c-0.4-2.7-3.8-5.3-6.5-5c-5.7,0.7-11.1,0.5-16.7-1   c-4.6-1.2-8.1,2.2-8.6,6.5c-1.2,10.1-3.9,20-6,30c-2.1,10.3-2.9,20.8-4.1,31.2c-2.3,21.2-4.7,42.4-7,63.6   c-0.6,5.3-1.2,10.6-1.8,15.9c-0.4,3.4-1.3,7.2,0.6,10.4C472.9,187.1,481,183.6,486.5,182.7z M483,163.4c0.7-6.5,1.4-13,2.2-19.4   c1.4-13,2.9-25.9,4.3-38.9c1.4-12.8,2.3-25.7,4.5-38.4c1.7-9.7,4.2-19.3,5.9-29c2.4,0.3,4.8,0.4,7.2,0.4   c4.1,26,10.4,51.8,15.9,77.6c3,13.8,6,27.6,8.5,41.5c0.5,2.6,0.9,5.1,1.3,7.7c0.2,1.1,0.4,2.3,0.5,3.4c0.1,0.4,0.1,0.8,0.2,1.3   c0,0,0.1,0.5,0.1,0.8c-10.4-2.2-21-3-31.6-2.7c-5.7,0.2-11.4,0.8-17,1.6c-0.9,0.1-1.8,0.3-2.7,0.4   C482.6,167.6,482.8,165.5,483,163.4z"/><path d="M404.4,273.1c31.8-2.6,63.4-5.6,95.3-6.1c18.5-0.3,37.1,0.1,55.6,1.6c16.9,1.3,34.1,3.5,50.1,9.3c0.3,0.1,0.5,0.2,0.8,0.3   c2.6,1,4.8,0.3,6.2-1.2c1.5-1.1,2.5-2.8,2.4-5.3c-0.5-7.5-3-15.2-4.5-22.6c-2-9.4-4.6-21-5.7-29.4c-0.4-2.8-1.8-5.9-5-6.5   c-20.4-3.7-40.7-7.8-61.1-11c-20.8-3.3-41.1-3.1-62-0.9c-20.9,2.2-41.7,5.8-62.2,10.7c-2.2,0.5-4.8,0.8-6.7,1.9   c-2.7,1.6-3.3,4.5-4.2,7.2c-1.6,4.8-2.8,9.8-3.7,14.7c-1.9,10-2.5,20.2-2,30.4C397.9,269.8,400.6,273.4,404.4,273.1z M416.2,225.5   c28.7-7,58.4-12,88-12.5c14.9-0.3,29.6,2,44.2,4.6c14.5,2.6,29,5.3,43.5,7.9c1.3,8.4,3.1,16.7,4.9,25.1c0.8,3.7,1.6,7.5,2.4,11.2   c-13.2-3.5-26.9-5.2-40.4-6.4c-18.6-1.7-37.3-2.1-56-1.9c-30.7,0.3-61.2,3-91.8,5.6C411.1,247.6,412.8,236.4,416.2,225.5z"/><path d="M654.4,328.7c-3.7-12-16-16.9-26.7-20.8c-88.2-32.1-188.7-29.5-275.4,6.3c-3,1.2-4.8,3.2-5,6.5   c-2.7,50.6-3.4,101.2-2.9,151.9c0.5,48,1.7,95.9,1.7,143.9c-0.1,91.6-5.8,183.3,1,274.8c0.8,10.9,1.8,21.7,3.2,32.6   c1.3,11.1,2,22.5,8.1,32.2c14.9,23.6,43.6,21,67.9,20.8c57-0.4,114-3.4,170.7-9.3c7.2-0.7,14.4-1.5,21.6-2.4   c11.7-1.4,23.1-3.8,29.9-14.4c3.2-4.9,3.9-11.2,4.3-16.9c0.5-7.3,0.2-14.7,0.2-21.9c0.2-30.1,0.3-60.1,0.5-90.2   c0.3-60.1,0.6-120.3,0.9-180.4s0.6-120.2,0.9-180.4c0.2-30.1,0.3-60.1,0.5-90.2c0-7.2,0.1-14.4,0.1-21.6   C656.1,342.3,656.5,335.3,654.4,328.7z M642.6,345.5c-0.6,120.2-1.2,240.5-1.9,360.7c-0.2,45.7-0.5,91.4-0.7,137.1   c-0.1,22.8-0.2,45.7-0.4,68.5c-0.1,9.7,1.3,20.5-1.6,29.9c-2.4,7.8-12.4,9-19.2,9.8c-56.6,6.6-113.4,10.3-170.4,11.4   c-13.9,0.3-27.9,0.4-41.8,0.3c-11.3-0.1-23.3-0.6-32-8.8c-8.4-8-9.2-18.6-10.6-29.4c-1.4-10.8-2.4-21.6-3.2-32.4   c-7.1-91.4-1.3-183.1-1.1-274.6c0.1-48-1.1-96.1-1.7-144.1c-0.6-49.6,0.2-99.1,2.6-148.6c47.4-18.8,98.3-27.5,149.3-26   c26.3,0.7,52.4,4.4,77.9,10.7c12.8,3.1,25.4,7.1,37.7,11.6c4.7,1.7,9.5,3.5,13.2,7C643.4,332.7,642.6,340,642.6,345.5z"/><path d="M412.1,563.4c0.6-73.6,2.7-147.3,5.6-220.8c0.3-8.7-13.2-8.7-13.5,0c-4.7,119.6-7.1,239.4-5,359.1   c1.3,73.6,4.4,147.2,9.7,220.6c0.6,8.7,14.2,8.7,13.5,0C413.7,802.8,411,683.1,412.1,563.4z"/></g><text x="0" y="1015" fill="#000000" font-size="5px" font-weight="bold" font-family="'Helvetica Neue', Helvetica, Arial-Unicode, Arial, Sans-serif">Created by Alvaro Cabrera</text><text x="0" y="1020" fill="#000000" font-size="5px" font-weight="bold" font-family="'Helvetica Neue', Helvetica, Arial-Unicode, Arial, Sans-serif">from the Noun Project</text></svg>