<svg xmlns="http://www.w3.org/2000/svg" xmlns:xlink="http://www.w3.org/1999/xlink" version="1.1" x="0px" y="0px" viewBox="0 0 1000 1250" enable-background="new 0 0 1000 1000" xml:space="preserve"><g><g><path d="M233.1,457c20.9,20.7,51.5,51.6,84.2,35.1c37.9-19.2,58.4-49.1,106.8-33.6c31.8,10.2,49.2,41,79.3,53.8    c49.3,21,55.2-34.3,95.9-42.1c37-7.1,51,18,69,43.6c18.7,26.6,59,33.1,86.4,16.6c24.3-14.6,29.6-47.6,55.1-60.5    c27.4-13.9,90.4,12.4,99.2-31.1c8-39.6-70.1-28.5-88.6-28.5c-202.3,0.3-404.8,3.3-607.2,0.8c-39.2-0.5-88.3-13.5-126.2-0.6    c-51.6,17.6,33.2,34,47.4,34.7C166.6,446.8,208.1,432.2,233.1,457z"/></g><g><path d="M832.3,508.8c-38,4.8-42.7,58.7-81.3,63.8c-37.1,4.9-85.3-6.1-117.2-30.3c-63.9-48.3-114.7,38.2-184.6,0.4    c-26.5-14.4-38.8-52.4-74-34.8c-40.1,20-79.6,29.5-123.6,10.4c-28.6-12.4-26.4-41.6-80.2-36.4C105.3,476,86.1,482,77,532.1    c-18.1,100.6,128.8,89.6,193.2,90.7c98.7,1.7,197.5,0.4,296.2,0.5c105.6,0.1,214.7,6.9,314-17.3    C980.8,581.5,907.7,499.2,832.3,508.8z"/></g><g><path d="M102.2,700.5c16.6,12.1,29.6,21.2,47.2,32c49.5,30.2,63.8-34.3,123.2-25.4c29.9,7.2,29.5,44.8,51.1,37.6    c24.2-8,40.8-34.1,66.3-37.7c26.3-3.7,39.3,81.4,85.2,26.8c29.6-35.3,45-48.3,72.8-11.8c39.4,51.6,63.5-29.4,102.8-23.3    c75.2,53.5,118.9-13.2,131.5-3.2c40.6,32.3,107.2,34.5,115.3-38.3c-256.2,0-755.1,4.4-775.7,3.6C93,659.6,81.5,685.4,102.2,700.5z    "/></g><g><path d="M884.5,741.7c-28.4,21.9-71.9,10.4-102.1,2.7c-34.5-8.8-42.6,23.1-77.4,14.1c-13.8-3.5-40.1-22.7-55-21.6    c-16.9,1.2-47.5,34.8-64.2,37.6c-43,7.4-54.6-32.4-95.7-7.9C435.8,799,415.2,777,395.6,752c-17.9-22.7-44.2,31.4-74.7,27.7    c-17.4-2.1-47.9-40.1-65.6-35.4c-18.8,5-66.1,33.8-86.5,34.1c-28.6,0.5-83.2-52.5-83-8.6c0.2,35.8,9.9,76.3,47.2,84.5    c83.4,18.5,179.9,10.5,265.1,11.6c94,1.3,188.1,0.7,282.1-0.5c62.3-0.8,200,7.8,221.9-72.1C905,782.8,913.7,719.1,884.5,741.7z"/></g><g><path d="M693.9,274.5c0,0.3-0.1,0.6-0.1,0.9C693.8,275,693.9,274.8,693.9,274.5C693.9,274.5,693.9,274.5,693.9,274.5z"/></g><g><path d="M693.8,274.4C693.8,274.4,693.8,274.4,693.8,274.4C693.8,274.4,693.8,274.4,693.8,274.4    C693.8,274.4,693.8,274.4,693.8,274.4z"/></g><g><g><path d="M204,372.1c37.1,1.9,74.2,2.5,111.3,3.4c84.4,2,168.8-2.1,253.2-0.9c83.8,1.1,169.5,6.5,253.1-0.7     c22.3-1.9,83.4,4.4,86.4-26.5c2.7-28.3-14.9-52.3-31.2-74.7c-82.9-114.1-337.5-139.2-421.1-139.4     c-255.8-0.4-339.1,153.8-358.1,208.9C86.3,374.9,180.6,370.9,204,372.1z M801.1,260.7c3.8-2.2,7.9-0.6,10.3,2.7l9,12.4     c2.4,3.3,0.6,8.3-2.7,10.3c-3.8,2.2-7.9,0.6-10.3-2.7l-9-12.4C796,267.7,797.9,262.6,801.1,260.7z M749,248.2     c0.5-1.9,1.8-3.5,3.4-4.5c1.7-1,3.8-1.3,5.8-0.8c2.1,0.6,3.2,1.8,4.5,3.4c1.8,2.3,3.6,4.6,5.4,7c1.2,1.5,1.2,4,0.8,5.8     c-0.5,1.9-1.8,3.5-3.4,4.5c-1.7,1-3.8,1.3-5.8,0.8c-2.1-0.6-3.2-1.8-4.5-3.4c-1.8-2.3-3.6-4.6-5.4-7     C748.6,252.5,748.6,249.9,749,248.2z M701.2,210.6h1.1c4.1,0,7.5,3.4,7.5,7.5s-3.4,7.5-7.5,7.5h-1.1c-4.1,0-7.5-3.4-7.5-7.5     S697.1,210.6,701.2,210.6z M679.3,271.4c0.6-4.1,5.7-6.2,9.2-5.2c1.9,0.5,3.5,1.8,4.5,3.4c0.9,1.6,1,3,0.9,4.6c0,0,0,0.1,0,0.1v0     c0,0,0,0,0,0c0.1-0.4,0-0.2,0,0c0.1,0.1,0.1,0.1,0,0.1c0,0,0,0,0,0c1.4,0.7,2.6,1.5,3.5,3c1,1.7,1.3,3.8,0.8,5.8     c-1,3.6-5.4,6.8-9.2,5.2c-3.4-1.4-6.5-3.4-8.2-6.8C679.1,278.3,678.8,275.2,679.3,271.4z M639.5,201.2c0-4.1,3.4-7.5,7.5-7.5     s7.5,3.4,7.5,7.5v2.3c0,4.1-3.4,7.5-7.5,7.5s-7.5-3.4-7.5-7.5V201.2z M589.4,239.2c3.2-1.9,8.6-1.1,10.3,2.7     c2.5,5.7,5.6,11.1,9.4,16.1c2.5,3.3,0.5,8.4-2.7,10.3c-3.8,2.2-7.8,0.6-10.3-2.7c-3.7-5-6.9-10.3-9.4-16.1     C585.1,245.7,585.6,241.4,589.4,239.2z M557,193.7c1.3-1.3,3.4-2.4,5.3-2.2c2.2,0.2,3.3,0.5,5.3,1.4c1.1,0.5,2.2,1.3,3.1,2.2     c1.7,1.6,3.1,3.9,3.6,6.3c0.4,2,0.3,3.9-0.8,5.8c-1,1.7-2.6,2.9-4.5,3.4c-3.5,1-7.9-0.9-9-4.5c-1.1-0.3-2.1-0.9-3-1.8     c-1.4-1.4-2.2-3.3-2.2-5.3S555.6,195.1,557,193.7z M498.5,259.8c0-4.1,3.4-7.5,7.5-7.5c4.1,0,7.5,3.4,7.5,7.5v5.6     c0,4.1-3.4,7.5-7.5,7.5c-4.1,0-7.5-3.4-7.5-7.5V259.8z M474.4,168.8c2.1-3.7,6.6-4.6,10.3-2.7c2,1.1,3.8,2.9,4.9,5.1     c1.6,1.1,2.8,2.8,3.3,4.9c1,4-1.2,8.1-5.2,9.2c-2.1,0.6-4.3,0.1-6.1-1c-0.7-0.2-1.4-0.4-2.1-0.8c-1.8-1-3.5-3.2-3.7-5.4     C473.3,175.9,472.7,171.8,474.4,168.8z M418.7,230.6c1.4-3.9,5.1-6.4,9.2-5.2c3.7,1,6.6,5.4,5.2,9.2c-0.3,0.8-0.5,1.5-0.7,2.3     c0,0-0.4,2.5-0.3,1.2c-0.1,0.8-0.1,1.6-0.1,2.4c0-0.1,0.2,2.6,0,1.3c0.6,4-0.9,8-5.2,9.2c-3.6,1-8.6-1.2-9.2-5.2     C416.9,240.6,417,235.6,418.7,230.6z M391.8,180.1c0.4-1.9,0.8-3.8,1.2-5.6c0.8-4,5.5-6.3,9.2-5.2c4.1,1.1,6.1,5.2,5.2,9.2     l-1.2,5.6c-0.8,4-5.5,6.3-9.2,5.2C392.9,188.2,391,184.1,391.8,180.1z M313.9,199.4c1.8-1.6,3.6-3.2,5.4-4.7     c3.1-2.7,7.6-3,10.6,0c2.7,2.7,3.1,7.9,0,10.6c-1.8,1.6-3.6,3.2-5.4,4.7c-3.1,2.7-7.6,3-10.6,0     C311.2,207.3,310.8,202.1,313.9,199.4z M303.3,265.1c2.9-6,6.5-11.5,10.6-16.7c2.5-3.2,8-2.6,10.6,0c3.2,3.2,2.5,7.4,0,10.6     c-3.3,4.2-5.9,8.9-8.3,13.7c-1.8,3.7-6.9,4.6-10.3,2.7C302.3,273.2,301.5,268.8,303.3,265.1z M239.9,229.4c2.2-2.2,4.7-4,7.4-5.4     c3.7-1.8,8.1-1,10.3,2.7c1.9,3.3,1,8.5-2.7,10.3c-1.1,0.5-2.2,1.2-3.2,1.9c-0.4,0.4-0.8,0.7-1.2,1.1c-2.9,2.9-7.7,2.9-10.6,0     C237,237.1,237,232.3,239.9,229.4z"/></g></g></g><text x="0" y="1015" fill="#000000" font-size="5px" font-weight="bold" font-family="'Helvetica Neue', Helvetica, Arial-Unicode, Arial, Sans-serif">Created by Alvaro Cabrera</text><text x="0" y="1020" fill="#000000" font-size="5px" font-weight="bold" font-family="'Helvetica Neue', Helvetica, Arial-Unicode, Arial, Sans-serif">from the Noun Project</text></svg>