<svg xmlns="http://www.w3.org/2000/svg" xmlns:xlink="http://www.w3.org/1999/xlink" version="1.1" x="0px" y="0px" viewBox="0 0 100 125" style="enable-background:new 0 0 100 100;" xml:space="preserve"><title>pizza</title><g><path d="M48.3,92.5c-1.8-0.1-3.7-0.3-5.5-0.6c-2.4-0.3-4.9-0.8-7.2-1.6c-3.5-1.2-6.8-2.8-10-4.6c-1-0.6-2.2-1.2-3.3-1.7   c-1.1-0.5-2-1.3-2.7-2.3c-0.4-0.4-0.8-0.9-1.3-1.2c-1.2-1.2-2.3-2.3-3.5-3.5c-1.3-1.3-2.5-2.8-3.6-4.3c-0.9-1.3-1.6-2.7-2.5-4   C6.8,65.5,6,62,5.1,58.5c-0.4-1.9-0.7-3.9-0.9-5.9c0-1.1,0.1-2.3,0.2-3.4c0.1-1.1,0.1-2.3,0.2-3.4c0-1.7,0.3-3.3,0.7-4.9   c0.5-1.5,0.9-3.2,1.4-4.7c0.4-1.4,1.1-2.8,1.8-4c0.9-1.4,1.6-2.9,2.5-4.4c0.9-1.6,2-3,3.3-4.3c1.1-1,2.1-2,3.2-3.1   c0.4-0.4,0.9-0.8,1.5-1.2c0.8-0.5,1.6-1.2,2.2-1.9c2-1.9,4.4-3.4,7-4.4c1.1-0.4,2.1-1,3.1-1.5c1.9-0.9,3.9-1.6,6-2.1   c2.4-0.6,4.9-1,7.4-1.1c1.7-0.1,3.5-0.3,5.2-0.6c2.7-0.4,5.3,0.2,8,0.4c1.5,0.5,3.1,0.8,4.7,0.9c1.7,0.2,3.1,1,4.6,1.4   c3.1,0.9,6.1,2.3,8.8,4.1c1.2,0.7,2.5,1.4,3.7,2.2c0.8,0.5,1.6,1.2,2.4,1.8c2.2,1.8,4.1,3.9,5.7,6.2c1.8,2.3,3.2,4.9,4.4,7.6   c1.1,2.6,1.9,5.3,2.4,8c0.4,1.9,0.7,3.9,0.8,5.9c0,1.7,0.2,3.3,0.2,5c0.1,2.1-0.3,4.2-1,6.2c-0.8,2.3-1.4,4.8-2.3,7.1   c-0.6,1.6-1.3,3.2-2.1,4.7c-1.1,2-2.4,3.9-3.9,5.7c-2,2.5-4.4,4.7-7,6.4c-1.5,1-3.1,2-4.7,2.9c-0.6,0.3-1.2,0.7-1.8,1   c-1.8,0.9-3.7,1.9-5.5,2.8c-0.2,0.1-0.3,0.2-0.5,0.2c-1.1,0.3-2.1,0.7-3.1,1.2c-1.1,0.5-2.3,0.9-3.6,1.2c-2.1,0.5-4.2,0.8-6.3,1.1   C52,92.1,50.1,92.3,48.3,92.5z M15.4,74.9l0.9,0.9l0.1,0.1c0.3,0.4,0.6,0.7,0.9,1.1c1.7,1.8,3.3,3.6,5,5.3c1.3,1.4,2.8,2.4,4.6,3   c1.5,0.4,2.9,0.8,4.4,1.2c0.5,0.2,1,0.4,1.4,0.6l-0.1,0.2c-1.5-0.2-2.8-1-4.3-1c1.6,0.8,3.2,1.6,4.8,2.3c1.5,0.7,3.1,1.1,4.7,1.4   c2.1,0.5,4.2,0.9,6.3,1.2c3.1,0.3,6.3,0.2,9.3-0.3c1-0.2,2.1-0.4,3.1-0.5c2.8-0.4,5.4-1.3,7.9-2.6c0.6-0.3,1.2-0.5,1.8-0.7   c1.1-0.4,2.1-0.9,3.3-1.3l-0.8-0.9c0,0.1-0.1,0.2-0.2,0.3c-0.3,0-0.5,0-0.8,0.1c0,0.3-0.2,0.6-0.5,0.7c-0.1,0-0.1,0.1-0.2,0.1   c-0.6,0.5-1.4,0.6-2.1,0.5c-0.2-0.3-0.5-0.6-0.7-1c0.9-0.2,1.7-0.5,2.5-0.9c0.7-0.4,1.7-0.3,2.1-1.4c1,0.4,1.6-0.3,2.4-0.6   c0.1-0.4-0.4-0.8,0-1.2l1,0.9c1.4-0.4,2.8-1,4.1-1.8c0-0.3,0-0.6,0-0.9c-0.1-0.3,0-0.7,0.3-1l0.5,0.4c0.3-0.3,0.6-0.7,0.8-0.9   c0.1-0.6-0.6-1.1,0-1.7l0.5,0.7c1-0.8,1.8-1.7,2.3-2.9c0.3-0.8,0.7-1.6,1.2-2.2c0.2-0.3,0.4-0.5,0.5-0.8c1.4-2.6,2.8-5.3,4.3-7.9   c0.3-0.6,0.6-1.3,0.9-1.9l-0.2-0.1c-0.2,0.3-0.4,0.5-0.5,0.8c-0.5,0.8-0.8,1.7-1.3,2.5c-1.1,2.1-2.4,4.1-3.9,6.1   c-1.1,1.6-2.4,3-3.8,4.3c-1.5,1.2-3,2.5-4.5,3.7c-2,1.5-4.3,2.8-6.6,3.8c-0.4,0.2-0.9,0.4-1.4,0.6c-2,0.5-4,0.9-6,1.4   c-0.3,0.1-0.7,0.1-1,0.3c-1.9,0.9-4,0.9-6.1,1c-1.2,0-2.5-0.1-3.7-0.2c-0.2,0-0.4,0-0.6-0.1c-2-0.3-4-0.7-6-1.1   c-2.7-0.6-5.4-1.3-8-2.3c-0.9-0.4-1.8-0.9-2.7-1.4c-1-0.6-2-1.2-2.9-1.7c-2.2-1.1-4.3-2.5-6.3-4.1c-1-0.9-2-1.7-3-2.6   c-0.7-0.6-1.3-1.3-1.9-2c-0.3-0.4-0.7-0.7-1-1.1c-0.4-0.4-0.8-0.9-1.1-1.4c-1.1-2.3-2.3-4.6-3.3-6.9c-0.5-1.2-0.9-2.4-1.1-3.6   c-0.3-1.9-0.4-3.8-0.7-5.6c-0.1-0.4-0.2-0.9-0.4-1.3c0.2-0.4,0.3-0.9,0.2-1.3c-0.1-0.4-0.1-0.8-0.1-1.2c0.3-2.2,0.6-4.4,0.9-6.6   c0.1-0.6,0.4-1.1,0.5-1.6c0.3-2.1,1-4,2.1-5.9c1.5-2.6,3.3-5.1,5.3-7.4c0.7-0.9,1.4-1.7,2.1-2.6c0.2-0.4,0.5-0.8,0.8-1.1   c0.6-0.5,1.2-1,1.8-1.5c1.1-0.8,2.3-1.6,3.5-2.3c0.8-0.5,1.7-1,2.5-1.5c0.6-0.3,1.3-0.5,2-0.8c2.6-1.2,5.4-2,8.3-2.5   c1.8-0.4,3.7-0.7,5.6-0.8c0.1,0,0.2,0,0.4-0.1c1.2-0.1,2.4-0.4,3.6-0.4c1.6,0,3.3,0.1,4.9,0.1c1.1,0.1,2.3,0.1,3.4,0.3   c0.9,0.1,1.8,0.2,2.6,0.4c2.2,0.5,4.4,1.2,6.6,2c1.5,0.6,3,1.4,4.3,2.3c1.8,1.2,3.6,2.5,5.2,3.7l4-1.2c-0.4-0.4-0.6-0.7-0.9-1.1   c-0.3-0.3-0.6-0.4-1-0.3c-1,0.1-1.9,0.4-2.8,0.7c-0.2,0-0.4,0-0.5,0c1-1.1,2.3-1,3.6-1.2c-0.6-0.6-1-1-1.5-1.4   c-0.5-0.4-1.1-0.5-1.7-0.2c-0.3,0.1-0.6,0.3-0.9,0.5c-0.4,0.2-0.8,0.3-1.2,0.5c0.1-0.5,0.1-0.8,0.2-1.2c0.3,0.1,0.6,0.1,0.9,0.1   c0.5-0.2,1-0.4,1.4-0.7c-1.3-1.2-2.9-1.6-4.5-2.4c2.7-0.5,8.8,4.6,9.4,6.9c-1.2,0.7-2.7,0.5-3.8,1.4c0.8,0.6,1.5,1.1,2.2,1.5   c0.9-0.6,2-0.9,3.1-1c0.5,0,1.1-0.1,1.7-0.2c0.3,0.3,0.5,0.7,0.8,1c0.5,0.9,1,1.9,1.6,2.8c0.4,0.7,0.8,1.4,1.2,2.2v1l0.9,0.3   c-0.3,0.3-0.7,0.5-1.2,0.6c-0.5,0-0.9,0.2-1.3,0.4c1.1,2.4,2.1,4.6,3.1,7c0.5-0.1,0.9-0.2,1.3-0.3c-0.3-1.5-1.1-2.7-1.2-4.1   c0.3,0.3,0.5,0.6,0.6,1c0.1,0.5,0.7,0.3,0.9,0.6c-0.5,1.1,0.1,1.8,0.6,2.7c-0.5,0.6,0,1.3,0,1.9l0.9,0.2l-0.9,0.6   c0.1,0.8,0.1,1.5,0.1,2.2c0.5,0.4,1.2,0,1.5,0.6c-0.3,0-0.6,0.1-0.9,0.2c-0.2,0.1-0.3,0.2-0.4,0.4c0,0.8,0,1.6,0.1,2.2   c0.4,0.4,1-0.1,1.3,0.4c-0.5,0.2-0.9,0.3-1.3,0.5c-0.1,0.9-0.1,1.7-0.2,2.5c0.8-0.1,1.6-0.2,2.3-0.2c-0.1,0.6-0.1,1-0.2,1.5   c0,0.4-0.1,0.9-0.2,1.3c-0.8,3.2-1.8,6.4-3,9.5c-0.3,0.7-0.6,1.4-1,2.2l0.8,0.5c0.4-0.9,0.8-1.7,1.2-2.6c0.3-0.9,0.6-1.8,0.8-2.7   c0.2-0.9,0.3-1.8,0.5-2.8c0.9,0.9,0.1,1.8,0.4,2.7c0.1-0.5,0.3-0.8,0.4-1.2c0.1-0.4,0.2-0.8,0.3-1.2c0.5-1.4,0.8-2.8,0.8-4.3   c0-1.9-0.1-3.7-0.2-5.6c0-0.8,0-1.6-0.1-2.5c-0.2-1.6-0.5-3.2-0.8-4.8c-0.3-1.5-0.7-2.9-1.2-4.4c-0.4-1.2-0.9-2.4-1.4-3.6   c-0.3-0.6-0.6-1.3-0.9-1.9c-0.6-1-1.2-2.1-1.8-3.1c-0.5-0.8-1.1-1.6-1.6-2.3c-0.4-0.6-1-1.1-1.4-1.6c-1.9-2.4-4.3-4.4-7-5.9   c-1.5-0.9-3-1.6-4.5-2.5c-2.2-1.4-4.6-2.4-7-3.2c-1-0.3-2-0.5-3-0.8c-0.6-0.2-1.2-0.2-1.7,0.2c-0.9,0.6-1.9,1.3-2.8,2   c-0.1,0.1-0.3,0.2-0.4,0.2c0.7-1.2,1.9-1.8,3-2.8c-0.2-0.1-0.5-0.2-0.7-0.2c-1-0.2-2-0.5-3.1-0.6c-2.1-0.2-4.1-0.5-6.2-0.6   c-0.9,0-1.8,0-2.7,0.2c-2.1,0.2-4.3,0.4-6.4,0.6c-0.3,0-0.6,0.1-0.8,0.1c-1,0.2-2,0.4-3.1,0.6C36.3,10.2,34,11,31.8,12   c-1.7,0.9-3.5,1.8-5.3,2.6c-0.8,0.3-1.6,0.6-2.3,1.1c-0.5,0.4-0.9,0.8-1.4,1.2c-1,0.7-2,1.6-2.8,2.6c-0.1,0.1-0.3,0.3-0.4,0.3   c-0.8,0.5-1.6,1.1-2.3,1.8c-1.7,1.7-3.6,3.3-4.9,5.5c-0.5,0.9-1.1,1.8-1.7,2.7c-1.1,1.8-2.1,3.7-3,5.6c-1.1,2.3-1.2,4.8-2.1,7.2   c0,0.1,0,0.3,0,0.4c-0.2,2.6-0.3,5.2-0.3,7.8c0,1.6,0.2,3.3,0.4,4.9c0.5,3,1.2,6,2.2,8.9c0.3,1.1,0.8,2.1,1.5,3   c0.1,0.2,0.2,0.4,0.2,0.6c0,0.3,0.1,0.7,0.2,1c0.7,1.8,2.1,3.1,3.2,4.7c0.2,0.3,0.4,0.5,0.6,0.7c1,1.1,2,2.1,3,3.2   c1.2,1.4,2.7,2.7,4.2,3.7c0-0.1-0.1-0.3-0.2-0.4c-1.3-1.5-2.6-3-4-4.4c-0.5-0.5-0.9-1.1-1.3-1.6L15.4,74.9z M14.8,65.3L14.8,65.3   c0.5,1.1,1.1,2.1,1.9,3l0,0l0.8,1.3l1.5-0.4l0.1,0.2l-1,0.6c0.6,1.3,6.2,6.1,7.8,6.6c-0.2-0.5-0.3-0.9-0.5-1.3   c-0.1-0.2-0.2-0.5-0.4-0.6c-0.9-0.8-1.6-1.8-2.2-2.8c-0.1-0.2-0.1-0.4-0.1-0.6l0.2-0.1c0.3,0.5,0.6,0.9,1,1.4   c0.3,0.5,0.6,0.9,1,1.5c0.1-0.6,0.2-1.1,0.3-1.5c0.2-0.9,0.4-1.8,0.7-2.6c0.3-0.7,0.8-1.3,1.4-1.6c0.9-0.5,1.2-0.5,1.9,0.3   c0.1,0.1,0.1,0.2,0.2,0.3c-0.1,0.6-0.8,1.1-0.2,1.7c0.6-0.1,1-0.7,1-1.3c0.2-0.9,0.8-1.7,1.6-2.1c0.5-0.3,1.1-0.2,1.6,0.1   c1,0.7,1.5,1.9,1.3,3c-0.1,1.2-1,2.1-2.2,2.1c-0.5,0-1,0.4-1.1,0.9c0.3,0.1,0.5,0.3,0.8,0.4c0.7,0.5,1,1.4,0.6,2.2   c-0.6,1.1-1.9,1.5-3,1.1c-0.5-0.2-1-0.4-1.5-0.6c-0.8-0.4-1.6-0.7-2.5-1.2c0.4,1.2,0.8,2.2,2,2.8c1.2,0.6,2.3,1.4,3.5,2   c1.3,0.7,2.6,1.4,4,1.9c2.5,0.9,5.1,1.6,7.7,2.1c1,0.2,2,0.4,3.1,0.6c2.3,0.3,4.6,0.5,7,0.4c1.6,0.1,3.3-0.1,4.8-0.6   c1.3-0.4,2.6-0.7,3.9-1c3.4-0.7,6.6-2.1,9.5-4c1.1-0.7,2.1-1.6,3.2-2.3c2.6-1.8,4.9-4.1,6.8-6.7c1.1-1.5,2.1-3,3-4.6   c1.3-2.3,2.8-4.5,3.6-7.2c0-0.1,0.1-0.2,0.1-0.3c0.6-1.3,1-2.7,1.1-4.1c0.5-2.3,0.6-4.7,0.9-7c0.2-1.2,0.1-2.3-0.1-3.5   c-0.2-1.1-0.5-2.1-0.8-3.1c-0.3-1.1-1.1-1.9-1.2-3c0-0.1-0.1-0.2-0.1-0.3c-0.2-0.5-0.5-1-0.7-1.4c-0.3-0.6-0.6-1.2-0.9-1.8   c-0.7-1-1.4-2-2.1-2.9c-0.3-0.5-0.9-0.7-1.5-0.5c-0.3,0.1-0.6,0.1-0.9-0.2c0.5-0.1,0.9-0.2,1.5-0.3c-0.2-0.4-0.4-0.7-0.5-0.9   c-1-1.4-2.1-2.7-3.4-3.8c-1.1-0.9-2.1-1.8-3.2-2.6c-1.8-1.3-3.5-2.6-5.3-3.9c-0.3-0.2-0.6-0.4-0.9-0.5c-0.7-0.3-1.3-0.8-2.1-0.4   c-0.2,0-0.4-0.1-0.6-0.2l0.7-0.5c-0.4-0.2-0.7-0.4-1.1-0.6c-0.9-0.3-1.9-0.6-2.9-0.9c-2-0.7-4.1-1.2-6.2-1.5   c-0.8-0.1-1.5-0.1-2.3-0.2c-2.4-0.3-4.8-0.4-7.2-0.2c-2.3,0.2-4.7,0.4-7,0.8c-1.7,0.3-3.4,0.7-5.1,1.1c-1.5,0.4-3.1,1-4.5,1.7   c-2,0.8-3.9,1.8-5.8,3c0,0-0.1,0.1-0.1,0.1h0.7c-0.3,0.3-0.6,0.5-1,0.7c-0.4,0.2-0.8,0.3-1.2,0.4c-0.6,0.2-0.3,0.8-0.7,1.2   c0,0-0.1,0.1-0.1,0.2c-0.3,0.6-0.5,1.1-0.9,1.8c0.2,0,0.3-0.1,0.5-0.1c0.1,0,0.2,0,0.3,0.1c-0.3,0.2-0.6,0.4-1,0.5   c-0.3,0.3-0.5,0.6-0.7,1l-0.2-0.5c-0.8,1.8-1.5,3.5-2.2,5.2c-0.1-0.2-0.1-0.4,0-0.6c0.5-1.2,0.9-2.5,1.4-3.7   c0.2-0.4,0.2-0.8-0.1-1.1c1.3-0.2,1.8-1.1,2.1-2.3c-1.4,1.2-2.6,2.5-3.6,4l0.8,0.2c0,0.1,0,0.1-0.1,0.2c-0.1,0.1-0.2,0.1-0.3,0.1   c-0.7,0.3-1.4,0.7-1.9,1.2c-0.8,1.1-1.5,2.2-2.3,3.3c-1.4,2.1-2.5,4.4-3,6.9c-0.2,0.7-0.3,1.4-0.5,2.3c0.4-0.4,0.8-0.7,1-1   c0.1-0.1,0.1-0.2,0.1-0.3c-0.1-0.7,0-1.4,0.2-2.1c0.5-2.8-0.1-2,2.4-3.5c0.6-0.2,0.9-0.8,0.8-1.4l-0.6,0c0.6-0.4,1-1,1.1-1.7   c0.1-0.2,0.2-0.4,0.3-0.5l0.2,0.1c-0.1,0.9-0.3,1.8-0.4,2.7h0.7c-0.7,0.5-1.4,0.9-1.1,1.8c0.5-0.2,0.4,0.2,0.5,0.5L18,36   c-0.1,0.2-0.2,0.3-0.3,0.4c-0.8,0.2-1.4,0.9-1.5,1.8c0,0.3-0.3,0.6-0.6,0.7c0-0.3,0-0.6-0.1-1c-0.5,0.4-1,0.7-1.5,1   c-0.6,0.4-0.9,1.1-0.7,1.8c0.2-0.1,0.4-0.2,0.6-0.3c0.2-0.1,0.4-0.1,0.6-0.1c-0.1,0.2-0.3,0.4-0.6,0.5c-0.8,0.5-0.9,0.6-0.6,1.7   l0.8,0l0,0c-0.1,0.1-0.2,0.2-0.3,0.3c-0.7,0.5-0.8,0.8-0.6,1.8l0.8-0.1c-1.1,0.6-1,1.5-0.7,2.7c0.5-0.4,1-0.7,1.5-1   c0.5-0.4,1-0.6,1.6-0.5c-0.7,0.4-1.3,0.8-1.9,1.2c-0.6,0.5-1,1.3-0.9,2.1h0.9l0,0c-0.1,0.1-0.3,0.3-0.4,0.4   c-0.3,0.3-0.5,0.7-0.7,1.1c0,0.6,0,1.1,0.1,1.7c0.5-0.1,0.8-0.3,1.2-0.4l0,0.1l-1.5,1c0.4,0.4,0.4,0.9,0.1,1.3c0,0.1,0,0.2,0.1,0.3   l0.8-0.1c-0.7,0.3-1,1.2-0.6,1.9c0,0,0,0,0,0.1l0.8,0.1c-0.6,0.2-0.9,0.8-0.7,1.3c0,0.1,0,0.1,0.1,0.2c0,0.1,0.1,0.2,0.2,0.3   c0.1,0.2,0.1,0.4,0.1,0.6c-0.2,0.6,0,1.2,0.4,1.7c0.4,0.1,0.7-0.3,1,0L14.6,61l0.2,1.4l-0.1,0c-0.2-0.3-0.3-0.7-0.5-1h-0.7   l-0.1-0.2c0.2-0.1,0.5-0.3,0.7-0.4c-0.4-0.7-0.2-1.5-1-1.7c0.3-0.6,0.2-1.2-0.2-1.7l-1.1,0.4C12.4,60.4,13.5,62.9,14.8,65.3   L14.8,65.3z M28.3,68.9c-0.6,0-1.1,0.3-1.4,0.8c-0.7,1-1.1,2.3-0.9,3.6c0,0.6,0.4,1.2,0.9,1.5c1.2,0.5,2.3,1,3.5,1.4   c0.3,0.1,0.7,0.1,1-0.1c0.3-0.1,0.6-0.5,0.5-0.8c0-0.2-0.2-0.3-0.3-0.4c-0.2-0.2-0.5-0.3-0.7-0.4c-0.6-0.3-0.8-1-0.5-1.6   c0.1-0.1,0.1-0.2,0.2-0.3c0.5-0.7,1.2-1.1,2-1.1c0.5,0,1-0.4,1.1-0.9c0.2-0.5,0.2-1.1-0.1-1.7c-0.2-0.6-0.8-1-1.4-1.1   c-0.7,0.2-1.2,0.7-1.3,1.4c-0.1,0.8-0.6,1.5-1.3,1.8c-0.4,0.3-0.9,0.3-1.2,0c-0.4-0.3-0.6-0.9-0.4-1.4   C28.1,69.5,28.2,69.2,28.3,68.9L28.3,68.9z M86.9,70.3L86.9,70.3l0.8-0.3c-0.2,0.6-0.5,1.2-0.8,1.7c-0.5,0.6-1.1,1-1.6,1.6   c-0.7,0.8-1.4,1.6-2.2,2.4c-1.1,1.1-2.4,2-3.6,3c-0.1,0.3,0.4,0.8-0.2,1.1c-0.3-0.3-0.6-0.7-0.9-1c-0.6,0.3-1,1-0.9,1.8   c0,0.3-0.2,0.6-0.5,0.7c-1.3,0.5-2.6,1-3.9,1.5c-0.1,0-0.2,0.1-0.3,0.2l0.6,0.8c0.8-0.6,1.6-1.1,2.4-1.7c0.3-0.4,0.9-0.6,1.4-0.4   c0.4,0,0.9-0.2,1.2-0.4c0.3-0.2,0.5-0.3,0.8-0.5c2.1-1.4,4-3.1,5.7-5c1-1.1,1.9-2.3,2.8-3.6c0.7-1,1.3-2.1,1.9-3.3   c0.4-0.5,0.3-1.3-0.2-1.7c0,0-0.1,0-0.1-0.1C88.6,68.1,87.8,69.2,86.9,70.3z M91.2,46.3c-0.2,1.3-0.4,2.7-0.5,4.1   c-0.1,1.3-0.3,2.7-0.6,4c-0.3,1.6-0.8,3.3-1.4,4.8c-0.2,0.3-0.2,0.7-0.1,1c0.5-0.4,0.5-1.3,1.4-1.6c-0.2,0.4-0.3,0.7-0.4,1   c-0.3,0.6-0.6,1.2-0.9,1.9c-0.4,0.9-0.3,1.3,0.5,2.1c1.3-1.5,4.3-11.6,4.1-13.6c-0.3,0-0.7,0.1-1,0.1c-0.4,0-0.7,0.3-0.7,0.6   c0,0,0,0.1,0,0.1c0,0.5-0.1,0.9-0.2,1.4c-0.1,0.8-0.3,1.6-0.7,2.2C90.7,51.7,91.5,49,91.2,46.3L91.2,46.3z M86.7,28.4   c-1-1.7-2-3.4-3-5.1c-1.4,0.4-2.9,0-4,1c0.5,0.6,0.9,1.2,1.4,1.7c0.3,0.4,0.5,0.3,0.8-0.2c0.1-0.1,0.1-0.2,0.1-0.3l0.9,0.5   c-0.2,0.8,0.4,1.2,0.8,1.7c0.3,0.3,0.8,0.3,1.2,0.1c0.3-0.1,0.7-0.1,1-0.2c-0.3,0.7-1.1,0.5-1.5,1c0.3,0.5,0.6,0.9,0.9,1.4   c0.2,0.3,0.5,0.5,0.9,0.4c0.3-0.1,0.5-0.2,0.9-0.3c-0.1-0.4-0.2-0.8-0.3-1.1c-0.6-0.1-1.1,0.5-1.6,0L86.7,28.4z M86.4,70.1   c1.1-1,1.9-2.1,2.6-3.4l-1.1-0.8c0.6-0.5,1.1-0.1,1.6-0.1l0.6-1c-1.1-0.1-1.5-0.9-2.3-1.5c-1,1.8-1.9,3.6-2.9,5.3   C85.4,69.2,85.9,69.6,86.4,70.1z M83,75.1c1.2-1.4,2.3-2.6,3.4-3.8l-0.1-0.2c-0.4,0.3-0.9,0.7-1.3,1L84.8,72   c0.4-0.4,0.7-0.8,1.1-1.3c-0.5-0.4-0.9-0.8-1.4-1.2c-0.8,1.2-1.4,2.3-2.1,3.3c-0.3,0.4-0.3,0.8-0.1,1.2   C82.5,74.3,82.7,74.6,83,75.1z M11,50.2c1.4-0.4,2-0.6,1.5-1.9l-0.9,0.2c0.2-0.2,0.4-0.5,0.6-0.6c0.2-0.1,0.3-0.4,0.4-0.6   c0-0.5,0-1-0.1-1.6l-1.4,0.4C10.8,47.5,10.8,48.9,11,50.2z M13.6,38.8c0.5-0.4,1-0.8,1.5-1.2c0.7-0.6,1-1.6,0.7-2.5   C13.9,36.2,13.5,36.5,13.6,38.8L13.6,38.8z M11.2,53.6c0.7-0.5,1.5-0.5,1.6-1.3c0.1-0.7,0.1-1.4-0.2-2.1c-0.4,0.2-0.8,0.3-1.2,0.6   c-0.2,0.1-0.3,0.2-0.3,0.4C11,51.8,11.1,52.6,11.2,53.6z M81.8,74.6c-0.9,1.1-1.8,2.2-2.6,3.2c0,0.1-0.1,0.3-0.1,0.4   c1.2-0.8,2.4-1.7,3.4-2.8L81.8,74.6z M90,66.3l0.6,0.6c0.7-1.5,1.2-3,1.5-4.7C91.5,63.5,90.8,64.8,90,66.3z M12,54.1l0.5,1   c0.7-0.6,0.3-1.3,0.3-1.9c-1.6,0.7-2,0.8-1.3,2.5C12.5,55.5,11.8,54.7,12,54.1z M11.1,45.6c1.4-0.2,1.6-0.5,1.2-1.7   C11.2,44.1,11.1,44.2,11.1,45.6L11.1,45.6z M90.4,38.4l-1.1,0.3c0.2,0.5,0.4,1,0.6,1.5c0.2-0.1,0.4-0.2,0.6-0.4   C90.8,39.4,90.8,38.8,90.4,38.4z M70.1,85c0,0.3,0.2,0.5,0.4,0.5c0.1,0,0.2,0,0.2,0c0.7-0.3,1.3-0.7,1.8-1.3   C71.7,84.3,70.9,84.6,70.1,85z M11.5,42.2c-0.1,0.5-0.1,1,0.1,1.4c1-0.4,1-0.5,0.7-1.5L11.5,42.2z M12.3,55.8l-0.7,0.5l0.2,0.9   l1-0.4L12.3,55.8z M90.4,40.7c-0.2,1.1,0.1,2.2,0.7,3.1C90.9,42.8,90.7,41.7,90.4,40.7z M70.5,84.2c1.5-0.4,1.5-0.4,1.8-0.8   C71.7,83.5,71,83.8,70.5,84.2z M83.7,28.7l-0.2,0.2l1.2,1.6l0.1-0.1C84.4,29.8,84.1,29.3,83.7,28.7z M83,28c0-0.5-0.3-0.9-0.8-0.9   L83,28z M13,55.4c-0.3,0.5-0.3,0.5,0.3,1C13.2,56,13.1,55.7,13,55.4z"/><path d="M16.3,75.8c0.1-0.1,0.2-0.1,0.3-0.1c1.2,0.7,2.4,1.5,3.4,2.3l-0.2,0.2c-0.7-0.4-1.3-0.9-2-1.3c-0.5-0.3-1-0.7-1.5-1   L16.3,75.8z"/><path d="M76.9,56.6c0.9,0,1.8,0.1,2.6,0.1c1.2,0.1,2.3,0.5,3.3,1.2c0.7,0.5,1.1,1.2,1.3,2c0,0.6-0.3,1.2-0.8,1.5   c-1.6,1.7-3.3,3.3-5,4.9c-1.1,1.1-2.1,2.2-3.1,3.3c-0.7,0.7-1.6,1.3-2.3,2.1c-0.7,0.8-1.4,1.6-2.3,2.3c-0.3,0.3-0.6,0.6-0.7,1   c-0.1,0.3-0.4,0.4-0.7,0.4c-0.1,0-0.1-0.1-0.2-0.1c-1.2-0.6-2.2-1.6-2.9-2.8c-1.1-2.3-1.3-4.9-0.6-7.4c0.2-0.9,0.6-1.7,1-2.5   c0.7-1.1,1.6-2,2.6-2.7c0.8-0.7,1.7-1.3,2.7-1.8c1.4-0.5,2.9-1,4.3-1.4C76.5,56.6,76.7,56.6,76.9,56.6L76.9,56.6z M69.2,74.1   c0.1,0,0.2-0.1,0.3-0.1c0.2-0.1,0.4-0.3,0.6-0.5c1.4-1.4,2.9-2.7,4.3-4.1c1.8-1.8,3.5-3.6,5.2-5.4c1-1,2-2,3-3   c0.5-0.3,0.7-1,0.4-1.6c0-0.1-0.1-0.1-0.1-0.2c-0.5-0.8-1.3-1.4-2.3-1.5c-1.3-0.2-2.7-0.3-4-0.4c-0.4,0-0.8,0.1-1.1,0.2   c-0.8,0.2-1.5,0.5-2.2,0.8c-1.1,0.4-2.2,1-3.1,1.8c-0.8,0.7-1.6,1.4-2.2,2.3c-0.4,0.5-0.8,1-1,1.6c-0.9,2.4-1,5,0,7.4   C67.2,72.6,68,73.6,69.2,74.1z"/><path d="M60.1,39.5c0.1-2.3,1-4.5,2.6-6.3c0.8-0.9,1.6-1.8,2.4-2.7c0.1-0.1,0.2-0.2,0.4-0.3c1.8-1.3,3.9-2,6.2-2.1   c1.1,0,2.2,0,3.3,0.1c1.4,0.2,2.7,0.8,3.6,1.8c0.2,0.1,0.3,0.3,0.5,0.5c0.6,0.6,0.7,0.7,0.2,1.4c-0.4,0.6-0.9,1.2-1.4,1.7   c-1.3,1.3-2.7,2.5-4.1,3.8c-1.6,1.5-3.3,2.9-4.9,4.5c-1.1,1.1-2.2,2.2-3.3,3.4c-0.4,0.4-0.8,0.9-1.1,1.4c-0.4,0.4-1,0.4-1.4,0   c0,0,0,0-0.1-0.1c-1-0.9-1.7-2-2.1-3.2C60.3,42.2,60.1,40.8,60.1,39.5z M63.8,46c0.6-0.5,1.1-1,1.5-1.4c1.6-1.7,3.3-3.4,5.1-5   c1.4-1.2,2.6-2.5,3.9-3.7c0.5-0.5,1-1,1.6-1.5c0.8-0.7,1.6-1.5,2.3-2.3c0.5-0.5,0.4-0.6,0-1.1c-1.1-1.4-2.7-2.1-4.5-2.1   c-1.5-0.1-3,0.1-4.4,0.4c-1.4,0.4-2.8,1.1-3.9,2.1c-0.9,0.8-1.7,1.8-2.4,2.8c-0.7,0.9-1.2,1.9-1.6,2.9c-0.9,2.6-0.5,5.5,1.2,7.7   C63,45.2,63.4,45.6,63.8,46L63.8,46z"/><path d="M36.2,27.9c0.6,0.1,1.2,0.5,1.5,1.1c1.5,2.2,1.9,4.9,1.3,7.4c-0.1,0.4-0.2,0.7-0.2,1.1c-0.1,1.3-0.5,2.5-1.1,3.6   c-0.5,0.9-1.2,1.6-2.1,2.2c-1,0.7-2.1,1.4-3.2,2c-0.6,0.3-1.2,0.5-1.9,0.5c-1,0.1-2,0.1-3,0.1c-1.3-0.2-2.6-0.7-3.8-1.4   c-1-0.7-2-1.5-2.8-2.4c-0.6-0.6-0.6-0.7,0-1.4c2.5-2.5,5.2-4.9,8.1-7c2-1.6,4-3.1,6-4.7C35.4,28.6,35.8,28.3,36.2,27.9z M38.4,34.6   c-0.1-1.7-0.6-3.4-1.5-4.9c-0.1-0.4-0.5-0.7-0.9-0.6c-0.2,0-0.3,0.1-0.4,0.3c-0.9,0.6-1.9,1.3-2.8,2c-1.6,1.3-3.1,2.6-4.8,3.8   c-2.2,1.7-4.2,3.6-6.3,5.5c-0.4,0.4-0.4,0.6,0,1c0.7,0.8,1.6,1.5,2.4,2.1c1.2,0.8,2.5,1.3,4,1.4c1.9,0.2,3.8-0.2,5.4-1.2   c0.5-0.4,1-0.7,1.5-1c1.4-1,2.3-2.4,2.7-4C38,37.4,38.2,36,38.4,34.6L38.4,34.6z"/><path d="M51,65.6c-0.1,2.7-0.8,4.7-2.5,6.2c-0.9,0.8-1.8,1.5-2.7,2.3c-0.2,0.1-0.4,0.3-0.6,0.3c-1.8,0.7-3.6,1.1-5.5,1.2   c-0.8,0-1-0.2-0.9-1c0.1-1.1,0.3-2.1,0.5-3.2c0.1-0.9,0.2-1.9,0.3-2.8c0.4-3.4,0.9-6.7,1.4-10.1c0.1-0.4,0.1-0.7,0.2-1.1   c0-0.6,0.6-1,1.2-1c0.1,0,0.1,0,0.2,0c1.4,0.1,2.6,0.6,3.7,1.5c1.9,1.3,3.4,3.1,4.2,5.2C50.7,63.9,50.9,64.8,51,65.6z M39.6,74.5   c0.2,0,0.5,0.1,0.7,0.1c0.8,0,1.6-0.1,2.4-0.4c1.2-0.3,2.4-0.8,3.5-1.4c0.7-0.6,1.4-1.2,2-1.8c2.1-2.1,2.6-5.4,1.3-8   c-1.1-2.1-2.8-3.9-4.9-5c-0.6-0.3-1.1-0.5-1.8-0.6c-0.8-0.2-1,0-1.1,0.7c-0.3,1.4-0.5,2.8-0.7,4.2c-0.4,2.4-0.7,4.9-0.8,7.4   c0,0.7-0.2,1.3-0.2,2C39.9,72.5,39.7,73.5,39.6,74.5z"/><path d="M29.7,61.8c0,1.4-0.4,2.8-1.2,3.9c-0.1,0.1-0.2,0.3-0.3,0.4c-0.8,1.7-2.3,3-4.1,3.6c-0.8,0.3-1.1,0.2-1.5-0.6   c-0.3-0.6-0.6-1.1-0.9-1.7c-0.6-1.4-1.2-2.8-1.8-4.2c-0.2-0.5-0.3-1-0.6-1.5c-1.1-2.5-2.3-5-3.4-7.5c-0.3-0.6-0.1-1.3,0.5-1.7   c0.1,0,0.2-0.1,0.3-0.1c0.5-0.2,1-0.3,1.5-0.4c1.5-0.2,2.9-0.4,4.4-0.5c0.9,0,1.8,0.2,2.5,0.8c0.2,0.3,0.6,0.4,1,0.4   c0.2,0.1,0.3,0.2,0.4,0.3c1,1.2,1.8,2.5,2.3,3.9C29.5,58.6,29.8,60.2,29.7,61.8z M22.1,52.4c-1.2,0.2-2.4,0.4-3.6,0.5   c-0.4,0.1-0.7,0.1-1.1,0.2c-0.4,0.1-0.6,0.4-0.5,0.7c0,0,0,0.1,0,0.1c0,0.2,0.1,0.4,0.2,0.6c0.7,1.6,1.5,3.2,2.2,4.8   c0.7,1.6,1.3,3.3,2.1,4.9c0.6,1.4,1.4,2.8,2.1,4.1c0.1,0.3,0.4,0.4,0.7,0.3c0,0,0.1,0,0.1-0.1c1-0.4,1.9-1,2.6-1.9   c0.6-0.9,1.2-1.8,1.7-2.7c0.4-0.7,0.6-1.5,0.6-2.4c0-0.7,0-1.3-0.1-2c-0.1-2.3-1.2-4.4-2.9-5.9C25,52.9,23.6,52.3,22.1,52.4z"/><path d="M76.1,47.5c0-0.1-0.1-0.2-0.1-0.3c-1-1.4-0.6-2.4,1-3c1.4-0.4,2.9,0.1,3.6,1.4c0.2,0.5,0.8,0.8,1.3,0.7   c-0.4,0.2-0.5,0.6-0.3,1c0.3,1,0.3,2.1,0.1,3.2c-0.1,1-0.8,1.9-1.7,2.4c-0.4,0.3-1,0.4-1.4,0.1c-0.5-0.3-0.7-0.9-0.6-1.5   c0.1-0.4,0.2-0.7,0.2-1.1c-0.4-0.4-1.1-0.4-1.5,0c-0.1,0.1-0.1,0.1-0.2,0.2c-0.5,0.5-1.2,0.8-1.9,1c-0.4,0.1-0.8,0.1-1.2-0.1   c-0.6-0.1-1-0.6-0.9-1.2c0-0.1,0.1-0.2,0.1-0.3c0.2-0.9,1-1.7,1.9-1.9C75.1,47.9,75.6,47.7,76.1,47.5z M77.8,46.5l0-0.2   c0.3,0,0.6,0,0.9,0c0.3,0,0.6-0.1,0.9-0.1c-0.4-0.9-1.4-1.5-2.4-1.3c-1,0.3-1.2,0.9-0.4,1.7c0.1,0.1,0.1,0.1,0.2,0.2   c0.6,0.6,0.6,0.9,0,1.7l-0.7-0.3c-0.4,0.4-1,0.6-1.5,0.6c-0.6,0.1-1.2,0.6-1.4,1.2c-0.1,0.2-0.1,0.5,0.2,0.7   c0.1,0.1,0.2,0.1,0.3,0.1c0.9-0.1,1.7-0.5,2.3-1.1c0.1-0.1,0.3-0.3,0.4-0.4c0.5-0.4,1.2-0.4,1.7,0c0.5,0.3,0.7,0.9,0.5,1.4   c0,0,0,0,0,0c-0.1,0.2-0.1,0.5-0.2,0.7c0,0.2,0.1,0.5,0.3,0.6c0.2,0.1,0.5,0,0.7-0.1c0.3-0.2,0.5-0.5,0.7-0.8   c0.7-1.4,0.7-3.1-0.1-4.4C79.5,46.6,78.6,47.1,77.8,46.5z"/><path d="M56.4,77.2c-0.5-0.1-0.9-0.2-1.2-0.3c-0.8,0-1.4-0.7-1.3-1.4c0-0.1,0-0.3,0.1-0.4c0.4-2.1,2.3-3.5,4.4-3.1   c0.3,0.1,0.7,0.2,1,0.3c0.7,0.3,1.4,0.8,1.9,1.4c0.3,0.3,0.6,0.6,0.9,0.8c0.7,0.4,0.9,1.3,0.6,2c-0.3,0.9-1.1,1.5-2,1.5   c-0.3-0.1-0.6-0.2-0.8-0.4c-0.2-0.1-0.4-0.2-0.6-0.2C59.1,77.5,59,77.8,59,78c0,0.3,0,0.6,0,0.8c0,1.6-0.6,2.1-1.9,2.7   c-0.5,0.2-1,0-1.2-0.4c0-0.1,0-0.1-0.1-0.2c-0.4-0.8-0.3-1.8,0.1-2.5C56.1,78.1,56.2,77.7,56.4,77.2z M56,76.1   c0.5-0.1,1,0.3,1.1,0.8c0,0,0,0.1,0,0.1c0.1,0.5,0,1.1-0.4,1.5c-0.4,0.5-0.5,1.2-0.3,1.8c0.1,0.6,0.4,0.7,0.9,0.4   c0.7-0.3,1.1-1.1,0.9-1.9c-0.1-0.4-0.1-0.9,0-1.3c0.1-0.7,0.7-1.1,1.4-1c0.3,0,0.5,0.2,0.7,0.3c0.2,0.4,0.7,0.5,1.1,0.3   c0.1-0.1,0.2-0.1,0.3-0.3c0.4-0.3,0.5-0.9,0.2-1.3c-0.1-0.1-0.2-0.2-0.3-0.2c-0.4-0.4-0.8-0.8-1.2-1.2c-0.9-1.2-2.5-1.6-3.9-1.2   c-0.9,0.3-1.5,1.2-1.7,2.1C54.9,75.8,55.1,76.1,56,76.1z"/><path d="M29.4,26.2c0.5-0.1,0.8-0.1,1.1-0.2c0.7-0.1,1.4,0.2,1.7,0.8c0.2,0.7,0.1,1.4-0.3,2c-0.4,0.3-0.8,0.6-1.3,0.8   c-0.5,0.2-1.2,0.1-1.5-0.4c-0.2-0.4-0.6-0.5-0.9-0.4c-0.4,0.2-0.7,0.6-0.7,1c0,0.7-0.2,1.3-0.7,1.8c-0.3,0.2-0.6,0.4-1,0.5   c-0.3,0.1-0.7,0-0.9-0.3c-0.6-0.7-0.9-1.6-0.9-2.5c0-2.6,1.2-5,3.3-6.5c0.4-0.3,0.8-0.4,1.3-0.5c0.8-0.1,1.6,0.4,1.7,1.2   c0,0.3,0,0.5-0.1,0.8c-0.2,0.4-0.3,0.8-0.6,1.2C29.6,25.7,29.5,25.8,29.4,26.2z M25.7,31.5c0.6-0.1,1-0.6,1-1.2   c0.1-0.5,0.2-0.9,0.4-1.4c0.3-0.7,1.1-1.1,1.8-0.9c0.2,0.1,0.4,0.2,0.6,0.4c0.1,0.1,0.3,0.3,0.4,0.4c0.4,0.3,0.9,0.2,1.2-0.1   c0.4-0.3,0.5-0.9,0.3-1.4c-0.2-0.4-0.7-0.5-1.1-0.4C30,27,29.7,27,29.4,27.1c-0.4,0.1-0.8-0.2-0.8-0.6c0-0.1,0-0.2,0-0.3   c0.1-0.3,0.2-0.7,0.4-1c0.1-0.3,0.4-0.6,0.5-0.9c0.2-0.3,0.1-0.7-0.2-0.9c-0.1-0.1-0.2-0.1-0.4-0.1c-0.5-0.1-1.1,0.1-1.5,0.4   c-1.4,1.1-2.4,2.8-2.6,4.6C24.4,29.4,24.8,30.7,25.7,31.5z"/><path d="M51.9,47c-0.1,0.3-0.1,0.5-0.1,0.8c0,0.2,0.1,0.4,0.3,0.5c0.2,0,0.4-0.1,0.6-0.2c0.1-0.2,0.2-0.4,0.3-0.6   c0.2-0.5,0.8-0.8,1.4-0.6c0.1,0,0.2,0.1,0.3,0.2c0.9,0.5,1.2,1.6,0.8,2.5c-0.7,2.1-2.5,3.7-4.6,4.3c-1.1,0.2-2.1-0.3-2.6-1.2   c-0.3-0.5-0.2-1.1,0.3-1.5c0.2-0.2,0.4-0.4,0.6-0.6c0.4-0.3,0.6-0.8,0.3-1.3c-0.1-0.1-0.2-0.2-0.3-0.3c-0.2-0.2-0.4-0.4-0.6-0.6   c-0.3-0.4-0.5-0.8-0.6-1.2c-0.2-0.3,0-0.7,0.3-0.9c0.5-0.3,1.1-0.6,1.6-0.9c0.7-0.3,1.6,0,2,0.6C51.8,46.3,51.9,46.7,51.9,47z    M48.5,46.9c0.2,0.6,0.6,1.1,1.1,1.4c0.5,0.3,0.7,0.8,0.6,1.4c0,0.7-0.4,1.3-0.9,1.7c-0.7,0.5-0.6,1.1,0.2,1.5   c0.7,0.4,1.6,0.3,2.3-0.2c0.7-0.5,1.3-1,1.9-1.6c0.5-0.5,0.9-1.3,1-2c0.1-0.5-0.2-1-0.7-1.2c-0.1,0-0.1,0-0.2,0   c-0.3,0.3-0.5,0.6-0.8,0.8c-0.3,0.4-0.9,0.6-1.4,0.4c-0.5-0.2-0.8-0.7-0.8-1.3c0-0.3,0-0.6,0-0.9c0-0.3-0.2-0.7-0.5-0.7   c-0.1,0-0.1,0-0.2,0C49.5,46.2,48.9,46.4,48.5,46.9z"/><path d="M48.6,29.8c-0.2-0.1-0.2-0.2-0.3-0.3c-1-0.6-1.1-1.2-0.4-2.1c0.3-0.3,0.6-0.6,0.9-0.8c0.6-0.5,1.3-0.5,1.9-0.1   c1.2,0.6,2.3,1.5,3.1,2.6c0.4,0.5,0.5,1.1,0.2,1.7c-0.2,0.7-1,1.1-1.7,0.9c-0.2-0.1-0.3-0.1-0.5-0.3c-0.7-0.4-0.8-0.4-1,0.3   c-0.1,0.3-0.2,0.7-0.3,1.1c-0.2,0.6-0.5,1.1-0.8,1.6c-0.3,0.5-1,0.6-1.5,0.2c0,0-0.1-0.1-0.1-0.1c-1.1-0.7-1.3-2.2-0.6-3.3   c0,0,0.1-0.1,0.1-0.1C47.9,30.7,48.2,30.3,48.6,29.8z M48.4,28.4c0.3,0.2,0.5,0.3,0.8,0.4c0.7,0.4,0.7,0.8,0.2,1.4   c-0.3,0.3-0.6,0.7-0.9,1.1c-0.4,0.5-0.5,1.1-0.4,1.7c0.1,0.4,0.4,0.7,0.8,0.8c0.4-0.1,0.7-0.4,0.7-0.8c0.1-0.1,0-0.3,0.1-0.5   c0.1-0.5,0.3-1,0.5-1.5c0.3-0.7,1.1-1.1,1.8-0.8c0.1,0.1,0.3,0.1,0.4,0.2c0.1,0.1,0.2,0.2,0.3,0.2c0.4,0.2,0.7,0,0.6-0.4   c-0.1-0.4-0.2-0.7-0.5-1c-0.6-0.6-1.3-1.2-2.1-1.8C49.6,26.7,48.9,27,48.4,28.4z"/><path d="M65.9,21.6c1.3,0,1.9,0.3,2.1,1.1c0.2,1-0.3,1.9-1.2,2.3c-1,0.4-1.5,0.2-2.5-1.3c-0.3,0.3-0.6,0.6-0.8,0.9   c-0.5,0.6-1.4,0.7-2.1,0.3c-0.1-0.1-0.2-0.2-0.3-0.4c-0.3-0.7-0.3-1.4,0-2.1c0.6-1,1.2-2,1.9-2.9c0.2-0.3,0.5-0.5,0.8-0.6   c0.2-0.1,0.5-0.1,0.2-0.4c0.1-0.1,0.2-0.2,0.4-0.2c0.6,0.1,1.1,0.3,1.7,0.5c0.7,0.3,1.1,1.1,0.9,1.9C66.6,20.9,66.3,21.2,65.9,21.6   z M62.7,24.2c0.1-0.5,0.5-1,1-1.2c0.2-0.1,0.4-0.6,0.7-0.4c0.3,0.2,0.5,0.4,0.7,0.7c0.2,0.2,0.3,0.5,0.4,0.7   c0.2,0.3,0.5,0.4,0.8,0.3c0.4-0.1,0.6-0.5,0.6-0.9c0-0.3-0.2-0.6-0.5-0.7c0,0,0,0,0,0c-0.3-0.1-0.6-0.1-0.9-0.1   c-0.4,0.1-0.7-0.1-0.8-0.5c-0.1-0.3,0-0.7,0.3-0.9c0.4-0.4,0.7-0.7,1-1.1c0-0.4-0.3-0.8-0.7-0.9c-0.8-0.2-1.6,0.1-2,0.8   c-0.5,0.7-0.9,1.4-1.4,2.1c-0.3,0.5-0.4,1.1-0.2,1.6c0,0.3,0.4,0.6,0.7,0.5C62.6,24.3,62.6,24.3,62.7,24.2z"/><path d="M53.1,18.5c-1.2,0.2-2.5,0.5-3.7,0.7c-0.4,0.1-0.9,0.2-1.4,0.3c0-0.3,0.2-0.5,0.5-0.6c0,0,0.1,0,0.1,0   c1.3-0.3,2.5-0.5,3.8-0.8c1.2-0.3,2.4-0.5,3.6-0.8c1.4-0.3,2.8-0.6,4.2-0.9c0.2,0,0.4,0,0.6,0.1c-1,0.5-2.1,0.3-3,0.8   c2.1-0.3,4.1-0.5,6.2-0.5c-0.1,0.1-0.1,0.1-0.2,0.2c-1.4,0.2-2.7,0.5-4.1,0.7c-0.4,0.1-0.8-0.2-1.2-0.1c-1,0.1-2.1,0.3-3.1,0.4   C54.7,18.1,53.9,18.3,53.1,18.5L53.1,18.5z"/><path d="M81.5,35.5c-0.1-0.3-0.3-0.5-0.4-0.8l0,0c-0.2-0.7-0.3-0.8-1-0.7c-0.4,0.1-0.7,0.1-1.1,0.2l0-0.2c0.8-0.2,1.6-0.4,2.4-0.5   l-0.4-0.6c0.7,0,1.3,0.4,1.6,1c0.4,0.9,0.8,1.7,1.2,2.6l1.1,0.2l-1.3,0.6c0,0-0.1-0.1-0.2-0.1c-0.1-0.1-0.3-0.1-0.5-0.1   c-0.1,0.1-0.2,0.3-0.2,0.5c0.1,0.3,0.2,0.7,0.3,1c0,0.1-0.1,0.3-0.2,0.4c-0.1,0-0.2-0.1-0.2-0.1c-0.1-0.9-0.9-1.5-1.2-2.4   c-0.1-0.2-0.2-0.4-0.2-0.6C81.3,35.7,81.4,35.6,81.5,35.5c0,0.7,0.9,0.5,1.1,1c0.2,0,0.4,0,0.6,0c-0.1-0.9-0.4-1.8-1-2.4   C82,34,81.8,34,81.6,34c-0.1,0.2-0.1,0.4-0.1,0.6c0.1,0.4,0.3,0.7,0.5,1L81.5,35.5z"/><path d="M35.1,52.5c-1,0.5-2.2,0.1-2.8-0.9c-0.1-0.2-0.1-0.4,0-0.6c0.3-0.3,0.2-0.8-0.1-1.1c-0.2-0.2-0.4-0.3-0.6-0.3l-0.3,0.5   c-0.6-0.1-0.8-0.3-0.4-0.8c0.3-0.5,1-0.6,1.4-0.3c0.2,0.1,0.3,0.3,0.4,0.4c0.2,0.3,0.3,0.7,0.3,1.1c0,0.8,0.6,1.5,1.4,1.6   C34.7,52.3,34.9,52.4,35.1,52.5z"/><path d="M34.5,79.8l-0.2-0.8c0.7,0,1.5,0,2.2,0c0.3,0.1,0.6,0.3,0.8,0.6c0.4,0.6,1.1,0.9,1.8,0.9c0.8,0,1.6,0,2.5,0   c-0.1,0.4-0.5,0.6-0.9,0.6c-0.9,0-1.8,0-2.6-0.2c-0.4-0.1-0.8-0.4-1-0.7c-0.2-0.6-0.8-0.8-1.4-0.6c0,0-0.1,0-0.1,0   C35.3,79.6,35,79.7,34.5,79.8z"/><path d="M19.8,69.1l0.7,0.6c-0.3-0.9-0.6-1.6-1-2.4l0.2-0.1c0.4,0.6,0.8,1.2,1,1.9c0.3,0.6,0.6,1.3,0.9,2c0.4,0.6,0.8,1.3,1.3,2   c-1.1-0.3-1.2-1.4-1.9-1.9l-1,0.3L20,71.2l0.5-0.7C20.2,70.1,19.9,69.6,19.8,69.1L19.8,69.1z"/><path d="M45.6,22.7c-0.4,0.2-0.8,0.1-1.1-0.2c0,0,0,0,0,0c-0.4-0.4-0.7-0.8-1.1-1.2c-0.7-0.9-1.9-1.2-3-0.7   c-0.4,0.3-0.8,0.4-1.3,0.3c0.1-0.2,0.2-0.3,0.4-0.4c0.5-0.3,1-0.5,1.6-0.6c0.9-0.3,1.9,0,2.5,0.8c0.3,0.4,0.6,0.8,0.9,1.1   C44.8,22,45.1,22.3,45.6,22.7z"/><path d="M78.6,43.5c1.9-0.3,3.7-0.5,5.5-0.8l0.1-0.7l0.9,1c-0.4,0.2-0.8,0.3-1.3,0.3c-0.7,0-1.3,0.1-2,0.2   c-0.9,0.2-1.7,0.4-2.6,0.5c-0.2,0-0.4,0-0.5-0.1C78.6,43.7,78.6,43.6,78.6,43.5z"/><path d="M16.7,68.3c-0.1-0.3,0.1-0.6,0.3-0.7c0.4-0.3,0.8-0.6,1.2-0.9c-0.3-1.5-1.1-2.8-1.4-4.5c0.5,0.7,0.9,1.5,1,2.3   c0.3,0.7,0.6,1.5,0.9,2.2c0.3,0.8,0.7,1.5,1,2.2l-0.1,0.1c-0.4-0.6-0.8-1.2-1.2-1.9c-0.3,0.2-0.7,0.4-1,0.6   C17.2,68,17,68.2,16.7,68.3L16.7,68.3z"/><path d="M57.7,58.5c-0.1,0.2-0.2,0.3-0.2,0.4c-0.7,0.8-0.7,2,0.1,2.7c0.3,0.4,0.7,0.6,1,1c0.2,0.2,0.3,0.4,0.5,0.6L59,63.3   c-0.2,0-0.3-0.1-0.5-0.1c-1-0.6-1.8-1.5-2.1-2.6c-0.1-0.7,0.1-1.5,0.7-1.9C57.3,58.5,57.5,58.5,57.7,58.5z"/><path d="M53.1,18.5c0.4,0,0.9-0.1,1.3-0.1c1-0.1,2,0.6,2.3,1.6c0.3,0.8,0.5,0.9,1.3,0.6c0.3-0.1,0.6-0.2,0.9-0.2   c-0.4,0.5-1,0.8-1.7,0.8c-0.5,0-0.9-0.3-0.9-0.8c-0.3-1.2-1.2-1.4-2.2-1.4c-0.4,0-0.8,0-1.3,0C53,18.6,53,18.6,53.1,18.5L53.1,18.5   z"/><path d="M62.5,56.7c0.9-0.3,1.7,0,1.8,0.6c0.3,1.1,0.1,2.2-0.5,3.2c0,0-0.1,0.1-0.2,0.1c-0.1,0-0.1,0-0.2,0c-0.3-0.2-0.1-0.5,0-0.8   c0.2-0.4,0.3-0.8,0.4-1.3c0.2-0.6-0.1-1.2-0.7-1.5C62.9,57,62.7,56.9,62.5,56.7z"/><path d="M14.2,42.6c0.7-0.6,1.2-1.6,1.1-2.6c0-0.3,0.1-0.5,0.3-0.7c0.2,1.5-0.4,2.9-0.5,4.4c0.5-0.1,0.9-0.2,1.3-0.3   c-0.5,0.5-1.2,0.9-1.9,1.1c0.2-0.6,0.3-1.2,0.5-1.9L14.2,42.6L14.2,42.6z"/><path d="M51.9,39.9c-0.8-1.1-0.8-1.1-2.4-1.2c-0.5,0.1-1.1-0.1-1.5-0.4c0.2-0.1,0.4-0.1,0.7-0.1c0.7,0,1.5,0,2.2,0.1   c0.6,0,1.1,0.6,1.1,1.2C52,39.6,52,39.8,51.9,39.9z"/><path d="M83.5,50.1c-0.1-0.7-0.3-1.3-0.4-2c-0.1-0.6-0.3-1.2-0.4-1.9l0.8-0.6c0.1,0.2,0.2,0.4,0.2,0.6c-0.3,0.4-0.4,1,0,1.5   c0.3,0.7,0.4,1.4,0.2,2.1c0,0.1-0.1,0.2-0.1,0.2C83.6,50,83.5,50,83.5,50.1z"/><path d="M45.7,81c-0.2-0.3-0.4-0.7-0.5-1c-0.1-0.4-0.4-0.7-0.9-0.6c-0.1,0-0.2,0-0.2,0.1c-0.4,0.1-0.9,0.2-1.4,0.4   c0.5-0.7,1.4-1.1,2.3-1c0.1,0,0.2,0.1,0.3,0.2c0.4,0.6,0.6,1.2,0.7,1.9L45.7,81z"/><path d="M83.7,39.8h-1c0.5-0.4,1.2-0.3,1.3-1.2c0.4,0.7,0.6,1.4,0.6,2.2c-0.1,0.2-0.2,0.4-0.3,0.6C83.7,40.9,84.1,40.3,83.7,39.8z"/><path d="M41.2,47.4c-0.6,0-0.6,0-1-1.4l-0.9,0.1c0.1-0.5,0.5-0.8,1-0.9c0.3,0,0.6,0.3,0.6,0.6c0,0,0,0,0,0.1   C41,46.4,41.1,46.9,41.2,47.4z"/><path d="M65,79.4c-0.3,0.4-0.8,0.7-1.3,0.8c-0.4,0.2-0.9,0.3-1.3,0.5C62,81,61.5,81.2,61,81.2C61.7,80.3,62.7,79.8,65,79.4z"/><path d="M62.9,18.7C61,19.1,59,19.3,57,19.4l0-0.2l5.9-0.8L62.9,18.7z"/><path d="M38.5,55c-0.7-0.4-1.2-1.1-1.4-2c0-0.6,0.3-1.1,0.8-1.3c0,0.2,0,0.4,0,0.5c-0.2,0.5-0.2,1.1,0.2,1.5   C38.4,54.1,38.6,54.6,38.5,55z"/><path d="M14.8,65.3l0.5-0.9l-0.4-1.4l0.2-0.1c0.2,0.5,0.4,0.9,0.6,1.4l1.4-0.4C16.5,64.6,15.7,65.1,14.8,65.3L14.8,65.3z"/><path d="M45.3,82.8c-0.1,0.4-0.5,0.7-0.9,0.6c-0.1,0-0.1,0-0.1,0c-0.7-0.1-1.4-0.7-1.5-1.4C43.7,82.2,44.2,83,45.3,82.8z"/><path d="M77,37.4l3.6-0.3c-0.2,0.1-0.4,0.2-0.6,0.3c-0.7,0.1-1.5,0.3-2.2,0.4C77.3,37.9,77,37.8,77,37.4z"/><path d="M67.9,50.8c0.1-0.6,0.5-1.1,1.1-1.2c0.3,0,0.4,0.1,0.6,0.8C68.9,50,68.5,50.6,67.9,50.8z"/><path d="M79.9,40.3c-1,0.1-2,0.3-3,0.4c-0.2-0.1-0.3-0.2-0.4-0.4c0.7,0,1.3-0.1,1.8-0.1c0.5-0.1,1-0.1,1.5-0.2L79.9,40.3z"/><path d="M50.8,74.4c-1.2,0.2-1.6-0.7-2.2-1.1C49.2,73,49.2,73,50.8,74.4z"/><path d="M58.8,35.2c-0.7-0.1-1.2-0.2-1.7-0.3c0.1-0.4,0.6-0.7,1-0.6C58.5,34.5,58.8,34.8,58.8,35.2z"/><path d="M75.2,42.3c-0.4,0.5-1,0.9-1.7,0.9C73.8,42.6,74.5,42.2,75.2,42.3z"/><path d="M81.6,53.5c0.3,0.7,0.2,1.5-0.2,2.1C81.3,54.9,81.3,54.2,81.6,53.5z"/><path d="M19,32.2l-0.8,2.6c0-0.9,0.2-1.9,0.6-2.7L19,32.2z"/><path d="M83.8,33.7c0.5,0.2,0.9,0.7,0.9,1.2C84.2,34.8,83.9,34.3,83.8,33.7z"/><path d="M24.5,22.5l1.9-0.9C26,22.2,25.2,22.5,24.5,22.5z"/><path d="M21.1,46.3c0.5,0.4,0.8,0.9,1,1.4C21.4,47.6,21,47,21.1,46.3z"/><path d="M14.4,49c0.6-0.5,1.3-0.7,2.1-0.7C15.9,48.7,15.2,49,14.4,49L14.4,49z"/><path d="M18.8,29.9l-1.3,0.7C17.7,29.8,17.7,29.8,18.8,29.9z"/><path d="M23.4,49.5l1,1l-0.2,0.2c-0.4-0.3-0.8-0.6-1-1.1C23.3,49.6,23.4,49.5,23.4,49.5z"/><path d="M23.3,49.6c-0.5-0.4-0.8-0.9-1-1.5c0.5,0.3,0.9,0.8,1.1,1.4C23.4,49.5,23.3,49.6,23.3,49.6z"/><path d="M72.2,24.6h1.3C72.5,24.9,72.5,24.9,72.2,24.6z"/><path d="M34.7,54.7l0.5,0.9l-0.1,0.1l-0.6-0.9L34.7,54.7z"/><path d="M81.4,40c-0.2,0-0.5,0.1-0.9,0.2C80.9,39.8,80.9,39.8,81.4,40z"/><path d="M84.2,37.7v0.5l-0.2,0v-0.5L84.2,37.7z"/><path d="M66.4,17.9l0.6-0.1l0.1,0.1c-0.1,0.1-0.2,0.1-0.3,0.2c-0.1,0-0.2,0-0.3,0L66.4,17.9z"/><path d="M81.2,34.8l0,0.5l-0.5-0.5l0.1-0.1L81.2,34.8L81.2,34.8z"/><path d="M20.9,28.3l0.2-0.4l0.1,0L21,28.3L20.9,28.3z"/><path d="M23.9,48c0.1,0.1,0.2,0.1,0.3,0.2c0.1,0.1,0.1,0.3,0.2,0.4l-0.5-0.4L23.9,48z"/><path d="M66.5,15l1.1-0.9c-0.8-0.2-1.5-0.5-2.2-0.7c-0.3,0-0.5,0.1-0.8,0.2c-0.2,0.1-0.5,0.3-0.7,0.5c-0.2-0.4,0.1-0.5,0.2-0.8   c0.1-0.2,0.1-0.4,0.1-0.7c1.4,0.4,2.5-0.7,4-0.6c-0.7,0.4-1.4,0.7-2.2,0.9c0.7,0.3,1.4,0.6,2,0.7c0.3,0,0.6,0,0.9-0.1   c0.8-0.3,1.7-0.4,2.6-0.3c-0.7,0.7-1.7,0.1-2.3,0.8c0.8,0.6,1.6,1.1,2.6,1.3c0.2,0.1,0.4,0.2,0.6,0.4c0.1,0.2,0.2,0.4,0.3,0.7   c-0.4-0.1-0.8-0.1-1.2-0.1c-0.4,0.2-0.8,0.4-1.2,0.7c-0.1-0.7,0.7-0.8,0.7-1.3c-0.7-0.5-1.5-0.9-2.4-1.2c-0.4,0-0.8,0-1.2,0.2   c-0.3,0.1-0.6,0.3-0.8,0.5L66.5,15z"/><path d="M23.4,78.2c0.1,0,0.3,0,0.4,0c2.2,2.3,4.5,4.4,7,6.3c0,0.1,0,0.2,0,0.3c-0.2-0.1-0.3-0.1-0.5-0.2c-0.4-0.3-0.8-0.6-1.1-0.9   c-0.7-0.6-1.4-1-2.2-1.3c-1.1-0.4-2.1-1-3.1-1.6c-0.1-0.1-0.2-0.3-0.2-0.4l2.7,1.3C25.5,80.3,24.2,79.6,23.4,78.2z"/><path d="M61.5,13c0-0.1,0.1-0.2,0.1-0.2c0.9-0.5,1.8-1.1,2.8-1.6c0.3-0.2,0.8-0.1,1,0.2c-0.7,0.3-1.4,0.5-2.1,0.9   C62.7,12.6,62.1,12.8,61.5,13z"/><path d="M15.3,75c-1.4-1.4-2.7-3-3.7-4.7c0.6,0.3,1,0.8,1.4,1.4c0.5,0.5,0.9,1,1.4,1.6c0.4,0.5,0.8,1.1,1.2,1.6L15.3,75z"/><path d="M61.8,85.7c0.9-0.5,1.9-0.7,2.9-0.8c-0.5,0.4-1,0.8-1.5,1.1C62.7,86.3,62.2,86.2,61.8,85.7z"/><path d="M89.9,32.5c-0.4,0.1-0.8,0.5-0.7,0.9c0,0.1,0,0.1,0,0.2l-0.7-0.7L87.8,33c0-0.1-0.1-0.2-0.1-0.3   C88.3,32,88.9,31.9,89.9,32.5z"/><path d="M14.6,70.9c0.8,1.2,1.7,2.4,2.6,3.6c-0.6-0.2-0.8-0.4-1.6-1.6c-0.4-0.6-0.8-1.2-1.2-1.9L14.6,70.9z"/><path d="M11.5,65.9c0.5,0.7,0.9,1.4,1.5,2.3C12.2,67.7,11.7,66.8,11.5,65.9z"/><path d="M20.7,78.4l1.3,0.8l-0.1,0.2c-0.4-0.2-0.9-0.5-1.3-0.8L20.7,78.4z"/><path d="M34.4,87.4l1.2,0.5l-0.1,0.2l-1.3-0.4L34.4,87.4z"/><path d="M10.7,65.1l-0.6-1l0.2-0.1l0.6,1L10.7,65.1z"/><path d="M12.4,64.2l-0.6-1L12,63c0.2,0.3,0.4,0.7,0.6,1L12.4,64.2z"/><path d="M13.7,69.4l0.5,0.8L14,70.3c-0.2-0.3-0.3-0.5-0.5-0.8L13.7,69.4z"/><path d="M9.6,62.8l0.3,0.6l-0.2,0.1l-0.3-0.6L9.6,62.8z"/><path d="M11.2,61.4l0.2,0.5l-0.1,0.1L11,61.5L11.2,61.4z"/><path d="M17.1,70.8l0.5,0.4l-0.1,0.2L17,71L17.1,70.8z"/><path d="M73.6,58.9c0.6-0.6,1.5-0.7,2.3-0.3c0.2,0.1,0.4,0.1,0.7,0.1c0.9,0.1,1.8,0.4,2.7,0.9c0.8,0.6,1.1,1.7,0.6,2.6   c-0.4,0.9-1.1,1.5-2,1.9c-0.6,0.3-1.4,0.5-2,0.8c-0.6,0.2-1.3,0.5-1.9,0.9c-0.7,0.4-1.3,1.2-1.4,2c-0.2,0.5-0.4,1.1-0.6,1.6   c-0.1,0.2-0.2,0.4-0.3,0.7c0.1,0.3-0.1,0.7-0.5,0.7c-0.1,0-0.2,0-0.3,0c-0.5,0-1,0-1.5-0.1c-0.3-0.1-0.6-0.3-0.8-0.6   c-0.3-0.5-0.6-1.1-0.7-1.7c-0.2-1.1,0-2.3,0.4-3.3c0.6-1.3,1.4-2.6,2.4-3.7c0.5-0.6,1-1.2,1.6-1.7c0.2-0.2,0.5-0.3,0.8-0.4   c0,0.2,0,0.3-0.1,0.5c0.8-0.2,1.6-0.5,2.3-1C74.6,58.8,74.1,58.8,73.6,58.9z M77.3,60.4c-0.1-0.6-0.8-1-1.4-0.9   c-0.1,0-0.2,0-0.2,0.1c-1.6,0.6-3.3,1-4.5,2.4c-0.4,0.5-0.8,0.9-1.1,1.4c-0.9,1.2-1.4,2.7-1.4,4.2c0,0.6,0.2,1.3,0.6,1.8   c0.3,0.5,0.8,0.6,1.3,0.3c0.1,0,0.1-0.1,0.2-0.1c0.6-0.7,1-1.5,1.1-2.4c0-0.3,0.1-0.6,0.3-0.8c0.7-1,1.7-1.7,2.8-2.2   c0.8-0.3,1.6-0.6,2.4-0.9c0.7-0.3,1.4-0.8,1.8-1.5c0.4-0.5,0.2-1.2-0.3-1.6c0,0,0,0,0,0c-0.3-0.2-0.6-0.3-0.9-0.4v1.6   c-0.7,0.1-0.7,0.6-0.9,1.2c0,0.1,0,0.3,0,0.4c-0.1,0.3-0.4,0.5-0.7,0.5c-0.3,0-0.5-0.3-0.5-0.6c0,0,0-0.1,0-0.1   c0.1-0.6,0.1-1.1,0.2-1.8C76.8,61.4,76.8,60.6,77.3,60.4L77.3,60.4z"/><path d="M70.8,30.4c0.9-0.2,1.9,0,2.7,0.5c0.9,0.5,1.3,1.5,1,2.5c-0.3,1.1-1,2.1-2,2.8c-0.8,0.6-1.8,1-2.7,1.2   c-0.6,0.3-1.1,0.6-1.6,1c-0.2,0.2-0.2,0.4-0.2,0.7c-0.1,0.6-0.1,1.1-0.2,1.7c-0.1,0.8-0.6,1.5-1.3,2c-1.1,0.7-2.6,0.3-3.3-0.8   c0-0.1-0.1-0.2-0.1-0.2c-0.7-1.4-0.7-3.1,0-4.5c0.7-2.2,2.1-4,3.9-5.3c0.4-0.2,0.8-0.5,1.2-0.7c0.2,0,0.3-0.1,0.4-0.2   C69.1,30.1,70,30.5,70.8,30.4z M63.3,39.4c-0.1,0.7,0.1,1.4,0.5,2c0.3,0.6,0.9,0.9,1.6,0.9c0.6,0,1.1-0.5,1.3-1.1   c0.2-0.6,0.3-1.2,0.4-1.8c0.2-1.5,1.3-2.7,2.8-2.9c1.2-0.1,2.2-0.7,3-1.6c0.4-0.4,0.8-0.9,0.9-1.5c0.1-0.4,0-0.9-0.3-1.2   c-0.6-0.6-1.4-0.9-2.2-0.8c-2.7,0.5-5.1,1.5-6.5,4C63.9,36.5,63.4,37.9,63.3,39.4z"/><path d="M69.2,38.5l-0.2,0.2l-0.2-0.2c0-0.1,0.1-0.1,0.2-0.2C69.1,38.3,69.2,38.4,69.2,38.5z"/><path d="M29.3,43.9c-1.8,0.1-3.6-0.7-4.8-2c-0.6-0.9-0.5-2.2,0.3-3c0.5-0.5,1.2-0.8,1.8-0.8c0.9-0.1,1.7-0.5,2.3-1.2   c0.2-0.2,0.5-0.3,0.8-0.5c0.2-0.1,0.5-0.3,0.7-0.5c0.5-0.5,0.9-1,1.3-1.6c0.5-0.9,1.4-1.6,2.5-1.8c0.5-0.2,1-0.1,1.4,0.2   c0.4,0.3,0.9,0.6,1.3,1c0.5,0.4,0.7,1,0.5,1.6c-0.1,0.6-0.2,1.2-0.4,1.8c-0.3,1.4-0.8,2.8-1.7,4c-0.4,0.5-0.8,0.9-1.3,1.3   C32.7,43.5,31,44,29.3,43.9z M30,43.2c0.7-0.1,1.4-0.3,2.1-0.5c1.5-0.5,2.7-1.5,3.3-2.9c0.5-1.1,0.8-2.3,1.1-3.5   c0.3-0.9,0-1.9-0.7-2.5c-0.5-0.5-1.2-0.6-1.8-0.2c-0.5,0.3-0.9,0.7-1.3,1.1c-0.9,1.2-1.9,2.2-3.1,3c-0.8,0.6-1.8,1.1-2.8,1.2   c-0.7,0-1.3,0.5-1.6,1.2c-0.3,0.7,0,1.6,0.7,2C27.1,42.7,28.5,43.1,30,43.2z"/><path d="M48.2,65.7c0.1,2.1-0.5,4.1-1.8,5.8c-0.7,1-1.9,1.5-3.1,1.5c-1,0-1.8-0.6-2.1-1.6c-0.3-1-0.1-2,0.4-2.9   c0.3-0.6,0.7-1.1,1-1.7c0.3-0.5,0.3-1.2,0-1.7c-0.4-0.9-0.4-1.9-0.1-2.9c0.4-1,1-1.8,1.8-2.4c0.2-0.1,0.5-0.2,0.8-0.1   c0.7,0.3,1.3,0.7,1.9,1.2c0.3,0.2,0.5,0.6,0.6,1C47.8,63.4,48,64.8,48.2,65.7z M43.6,66.3c-0.6,1-1.1,1.9-1.6,2.8   c-0.3,0.6-0.3,1.3-0.1,1.9c0.1,0.5,0.5,0.9,1,0.9c1.2,0.1,2.4-0.5,3.1-1.4c1.2-1.8,1.6-4,1.2-6.1c-0.1-1-0.4-1.9-0.9-2.8   c-1-1.5-1.9-1.4-2.8,0c-0.2,0.4-0.3,0.8-0.4,1.2c0.3-0.2,0.6-0.4,0.8-0.6c0.4-0.4,1.1-0.3,1.4,0.1c0,0,0,0,0,0c0.2,0.4,0,1-0.4,1.2   c-0.5,0.4-1.2,0.5-1.8,0.3l0.5,1.3c0.4-0.2,0.9-0.4,1.4-0.5c0.5-0.1,0.7,0.2,1,0.7c0.2,0.3,0,0.7-0.3,0.9c0,0,0,0-0.1,0   C45,66.8,44.2,66.8,43.6,66.3L43.6,66.3z M45.1,65.9l0-0.2l-0.5,0.1l0,0.1L45.1,65.9L45.1,65.9z"/><path d="M21.4,53.7c0.9,0,1.7,0.2,2.4,0.7c1.1,0.6,2,1.5,2.4,2.6c0.7,1.4,1.1,2.9,1.3,4.5c0.2,1.2-0.1,2.4-0.6,3.5   c-0.2,0.4-0.6,0.7-0.9,1c-0.9,0.8-2.3,0.7-3.1-0.2c-0.2-0.3-0.4-0.5-0.5-0.9c-0.2-0.5-0.3-1-0.3-1.6c0-0.5,0-1,0-1.5   c0.1-0.9-0.4-1.8-1.2-2.2c-0.3-0.2-0.6-0.4-0.9-0.6c-0.8-0.5-1.4-1.3-1.6-2.3c-0.2-0.9,0.1-1.9,0.8-2.6c0.2-0.2,0.4-0.3,0.7-0.3   C20.6,53.8,21.1,53.8,21.4,53.7z M22.8,60.1c0,1,0,1.9,0,2.9c-0.1,0.9,0.3,1.8,1.1,2.3c0.8,0.5,1.1,0.6,1.8-0.1   c1.1-1.2,1.5-2.8,1.1-4.4c-0.1-0.4-0.1-0.7-0.3-1.1c-0.3-1.2-0.8-2.3-1.4-3.4c-1-1.4-2.6-2.1-4.2-1.8c-0.8,0.1-1.4,0.6-1.6,1.4   c-0.1,0.8,0.3,1.6,0.9,1.9c0.5-0.8,0.5-1.9,1.6-2.2c0.8,1.3-0.1,2-0.9,2.8c0.5,0.4,0.9,0.7,1.5,1.1c0.1-1,0.8-1.9,1.8-2.2   C25,58.3,24.4,59.5,22.8,60.1L22.8,60.1z"/><path d="M64,20.9l-0.4-0.1l0-0.1l0.4,0.1L64,20.9z"/><path d="M69.3,67l1-0.4l0-0.1c-0.2,0-0.4,0-0.6,0c-0.2,0-0.4-0.1-0.5-0.3c0-0.2,0.1-0.3,0.2-0.4c0.8-0.3,1.6,0,2,0.8   c0.1,0.4-0.1,0.9-0.5,1c-0.1,0-0.2,0-0.3,0C70.1,67.7,69.6,67.4,69.3,67z"/><path d="M72.1,65.7c-0.3-0.6-0.6-1.1-0.9-1.7c-0.2-0.2-0.1-0.6,0.2-0.7c0,0,0,0,0,0c0.2-0.1,0.4-0.3,0.7-0.4   c0.8,0.4,0.5,1.1,0.6,1.7c0.2,0.4,0,0.9-0.5,1.1C72.2,65.7,72.1,65.7,72.1,65.7z"/><path d="M74,64.1c-0.3-0.5-0.5-1.1-0.4-1.7c0-0.4,0.3-0.7,0.6-0.7c0,0,0,0,0,0c0.3,0,0.6,0.3,0.6,0.6c0,0,0,0.1,0,0.1   c0,0.4,0,0.8-0.1,1.1C74.7,63.9,74.4,64.2,74,64.1C74,64.1,74,64.1,74,64.1z"/><path d="M71.3,33.7c-0.1,0.4-0.3,0.9-0.5,1.3c-0.2,0.3-0.5,0.4-0.8,0.2c-0.1-0.1-0.2-0.2-0.3-0.4c-0.1-0.2-0.1-0.4-0.1-0.6   c0.1-0.3,0.2-0.6,0.3-0.9c0.2-0.3,0.3-0.7,0.7-0.6C71.1,32.8,71.4,33.2,71.3,33.7z"/><path d="M64.1,40c0.2-0.3,0.4-0.5,0.5-0.7c0.3-0.5,0.9-0.7,1.4-0.4c0.2,0.1,0.3,0.2,0.4,0.4c0.1,0.2,0.1,0.4,0,0.5   c-0.6,0.5-1.4,0.7-2.1,0.5C64.2,40.2,64.1,40.1,64.1,40z"/><path d="M68.1,33.8c0.7,0.5,1,1.4,0.8,2.2c-0.1,0.2-0.3,0.3-0.5,0.4c-0.2,0-0.5-0.1-0.6-0.3c-0.1-0.2-0.2-0.5-0.2-0.7   C67.6,34.8,67.8,34.2,68.1,33.8z"/><path d="M66,36.3c0.3,0.3,0.5,0.6,0.7,0.9c0.2,0.3,0.3,0.7,0.1,1.1c-0.1,0.2-0.5,0.3-0.7,0.2c0,0-0.1-0.1-0.1-0.1   c-0.3-0.2-0.5-0.5-0.7-0.8c-0.1-0.2-0.1-0.4-0.1-0.7C65.5,36.7,65.8,36.5,66,36.3z"/><path d="M31.7,37.1c0.9,0.1,1.7,0.6,2,1.5c0.2,0.4,0,0.8-0.3,1.1c-0.3,0.2-0.8,0.1-1-0.2c0,0,0,0,0,0c-0.4-0.4-0.8-0.9-1.1-1.4   c-0.1-0.2-0.1-0.5-0.1-0.7C31.4,37.3,31.5,37.2,31.7,37.1z M32.9,39l0.2-0.2l-0.5-0.5l-0.1,0.1L32.9,39z"/><path d="M27.6,39.1c0.6,0.9,0.6,2,0,2.9c-0.2,0.3-0.5,0.4-0.8,0.2c-0.1-0.1-0.2-0.2-0.3-0.4c-0.1-1,0.3-1.9,0.9-2.6   C27.5,39.1,27.5,39.1,27.6,39.1z"/><path d="M30.9,40.4c0,0.2-0.1,0.4-0.1,0.5c-0.1,0.2-0.4,0.4-0.6,0.5c-0.2,0-0.4-0.2-0.6-0.4c-0.2-0.5-0.5-1-0.6-1.5   c-0.1-0.2-0.1-0.5,0.1-0.7c0.1-0.1,0.2-0.1,0.3-0.1c0.8-0.1,1.5,0.5,1.5,1.3C30.9,40.1,30.9,40.3,30.9,40.4z M30,40.5   c0.3-0.4,0.2-0.6-0.3-0.9L30,40.5z"/><path d="M32.5,36.7c0.1-1,1-1.7,2-1.5c0.1,0,0.3,0.1,0.4,0.1c0.3,0.1,0.7,0.3,0.5,0.6c-0.1,0.3-0.3,0.5-0.6,0.6   c-0.5,0.1-0.9,0.2-1.4,0.2C33.2,36.8,32.8,36.7,32.5,36.7z M34.4,36c-0.3-0.3-0.7-0.2-1,0.1c0,0-0.1,0.1-0.1,0.1L34.4,36z"/><path d="M46,68.4c0,0.5-0.3,0.9-0.7,1.1c-0.5,0.1-1-0.2-1.2-0.7c-0.1-0.4-0.3-0.8-0.3-1.3c-0.1-0.3,0.1-0.6,0.3-0.7   c0,0,0.1,0,0.1,0C45.1,66.9,45.9,67.5,46,68.4z"/><path d="M42.9,68.2c0.8,0.8,1.3,1.6,1,2.7c-0.1,0.3-0.3,0.5-0.6,0.6c-0.3,0-0.6-0.2-0.6-0.6c0,0,0-0.1,0-0.1   c-0.1-0.7-0.1-1.5-0.1-2.2C42.6,68.5,42.8,68.4,42.9,68.2z"/><path d="M24.5,61.6c-0.2,0-0.3,0-0.5,0c-0.2,0-0.4-0.1-0.6-0.2c-0.1-0.3,0-0.5,0.1-0.8c0.6-0.6,1.6-0.6,2.2,0.1c0,0,0,0,0.1,0.1   c0.2,0.2,0.1,0.6-0.1,0.8c-0.1,0-0.2,0.1-0.2,0.1c-0.2,0-0.3,0-0.5,0C24.8,61.6,24.6,61.6,24.5,61.6L24.5,61.6z"/><path d="M26,64.2c0,0.2-0.2,0.4-0.4,0.3c-0.1,0-0.1,0-0.1,0c-0.5-0.3-1-0.7-1.5-1.1c-0.2-0.3-0.2-0.6,0.1-0.8   c0.1-0.1,0.2-0.1,0.4-0.1C25.2,62.7,25.8,63.4,26,64.2z"/></g><text x="0" y="115" fill="#000000" font-size="5px" font-weight="bold" font-family="'Helvetica Neue', Helvetica, Arial-Unicode, Arial, Sans-serif">Created by Alex Muravev</text><text x="0" y="120" fill="#000000" font-size="5px" font-weight="bold" font-family="'Helvetica Neue', Helvetica, Arial-Unicode, Arial, Sans-serif">from the Noun Project</text></svg>