<svg xmlns="http://www.w3.org/2000/svg" xmlns:xlink="http://www.w3.org/1999/xlink" version="1.1" x="0px" y="0px" viewBox="0 0 512 640" enable-background="new 0 0 512 512" xml:space="preserve"><g><polygon points="381.435,436.266 397.289,433.347 385.19,417.909  "/><polygon points="439.537,246.512 441.294,258.104 452.795,249.663  "/><polygon points="241.896,123.874 228.637,120.723 230.395,132.316  "/><polygon points="297.875,152.376 286.3,150.516 290.831,164.041  "/><polygon points="135.035,258.104 139.566,271.63 146.61,259.965  "/><polygon points="393.892,399.998 400.936,388.332 389.361,386.472  "/><polygon points="306.855,164.041 303.558,170.661 310.418,168.967  "/><polygon points="146.478,282.193 143.181,288.813 150.041,287.119  "/><polygon points="359.184,417.909 366.045,416.215 362.482,411.289  "/><path d="M371.702,182.93L371.702,182.93c-20.047-3.986-35.236,2.254-42.765,17.569c-4.28,8.692-8.733,22.469-13.234,40.949   c-0.03,0.122-0.053,0.244-0.07,0.366c-1.593,4.869-14.817,42.629-42.283,59.135c-1.836,1.107-3.807,2.156-5.86,3.117   c-15.037,7.058-35.222,9.804-58.367,7.939c-24.898-2.005-43.965-8.35-49.215-10.247c-16.431-5.939-29.945-6.517-40.169-1.721   c-8.162,3.832-13.916,10.878-16.64,20.378c-5.656,19.721,3.095,48.638,14.201,65.834c24.171,37.436,59.504,58.053,95.4,58.052   c13.706-0.001,27.492-3.005,40.771-9.229c0.015-0.007,0.03-0.014,0.045-0.021c16.393-7.692,30.677-19.719,42.455-35.745   c5.421-7.38,10.496-16.337,15.106-26.654c17.025,1.087,40.466,0.197,60.4-9.154c1.764-0.832,3.467-1.708,5.065-2.605   c43.156-24.291,58.819-62.346,46.553-113.106C411.035,197.851,385.719,185.718,371.702,182.93z M155.859,397.278   c-7.095-6.55-13.661-14.358-19.471-23.356c-8.356-12.948-14.949-35.018-11.445-47.234c1.186-4.128,3.109-5.444,4.452-6.074   c1.147-0.538,3.054-1.091,6.049-1.091c3.707,0,9.081,0.846,16.74,3.612c26.901,9.718,83.491,20.972,124.961,1.509   c2.735-1.282,5.399-2.699,7.919-4.213c3.542-2.129,6.989-4.605,10.347-7.385C267.816,387.887,186.536,396.697,155.859,397.278z    M349.328,210.534c1.206-2.453,2.673-4.021,4.619-4.934c2.963-1.391,7.57-1.522,13.323-0.378c7,1.392,24.3,8.846,33.737,47.897   v-0.001c9.85,40.792-1.466,68.744-35.612,87.966c-1.14,0.641-2.344,1.261-3.578,1.84c-13.327,6.251-29.499,7.538-42.124,7.301   c16.439-49.673,20.296-106.757,20.604-111.687C340.932,235.946,347.61,214.023,349.328,210.534z"/><path d="M140.469,225.963c4.185,11.743,11.37,26.695,23.019,37.285c1.084,0.983,2.187,1.914,3.279,2.769   c14.306,11.192,29.313,16.787,44.606,16.787c15.425,0,31.139-5.693,46.707-17.077c31.054-22.7,32.097-44.007,29.956-54.688v0   c-3.134-15.622-12.275-24.689-25.736-25.532c-7.173-0.454-17.788,0.407-31.553,2.563c-0.089,0.014-0.177,0.03-0.265,0.049   c-3.837,0.275-31.817,1.701-49.577-11.397c-1.189-0.875-2.376-1.85-3.529-2.899c-8.606-7.822-15.834-20.21-20.901-35.823   c-5.495-16.929-6.538-31.185-6.727-35.15c-0.63-13.263-4.252-22.99-10.766-28.912c-5.331-4.849-12.266-6.935-20.05-6.036   c-15.593,1.8-32.772,15.838-41.682,28.774c-25.952,37.672-23.731,80.875,5.522,107.543c0.027,0.026,0.054,0.051,0.082,0.076   c9.989,9.079,22.336,15.46,36.696,18.965C125.726,224.769,132.75,225.676,140.469,225.963z M88.037,119.687   c1.843-3.729,4.015-7.435,6.528-11.083c5.921-8.591,18.372-18.84,26.769-19.81c2.414-0.277,3.176,0.413,3.498,0.706   c0.79,0.718,3.406,3.876,3.906,14.35c0.295,6.194,1.673,22.672,8.086,41.845c6.28,18.776,15.164,33.476,26.403,43.692   c1.159,1.053,2.358,2.043,3.569,2.999C117.561,186.532,95.779,141.499,88.037,119.687z M260.969,206.494   c1.86,0.118,2.68,0.662,3.191,1.128c0.793,0.72,2.27,2.659,3.252,7.555c2.868,14.307-15.917,29.315-21.742,33.574   c-23.898,17.467-44.235,17.685-65.943,0.702c-0.7-0.547-1.406-1.144-2.096-1.77c-6.717-6.107-11.549-14.762-14.829-22.41   c36.567-3.263,73.292-15.591,77.628-17.08C243.339,207.774,258.626,206.35,260.969,206.494z"/></g><text x="0" y="527" fill="#000000" font-size="5px" font-weight="bold" font-family="'Helvetica Neue', Helvetica, Arial-Unicode, Arial, Sans-serif">Created by iconfield</text><text x="0" y="532" fill="#000000" font-size="5px" font-weight="bold" font-family="'Helvetica Neue', Helvetica, Arial-Unicode, Arial, Sans-serif">from the Noun Project</text></svg>