<svg xmlns="http://www.w3.org/2000/svg" xmlns:xlink="http://www.w3.org/1999/xlink" version="1.1" x="0px" y="0px" viewBox="0 0 1000 1250" enable-background="new 0 0 1000 1000" xml:space="preserve"><g><g><g><path d="M712.3,420.8c-21.6,25.8-31.6,55.8-57.2,79.5c-53.8,49.7-105.5,79.8-180.1,76.1c-69.8-3.5-134.6-41.3-173.4-99.2     c-12.2-18.3-20.4-64.4-40.7-72.5c-35.4-14.1-70.8-28.2-106.2-42.3c29.9,96,64.8,192,77.3,292.2c5.9,46.8,8.2,94,12.5,141     c3.4,37.6,2.6,71.8,39.2,91.6c35.5,19.2,67.4-10.6,104.1-18.3c40.6-8.5,81.1-4.6,121.6,2.7c47.7,8.7,95.2,18,142.8,27     c13.9,2.6,27.9,5.3,41.8,7.9c0.6-7.6,3.5-14.4,8.5-20.1c8.9-10.1,22.8-9.8,32.2-18.7c23.3-21.9,18.2-95.9,21.4-125.8     c4.2-39.6,7.8-79.3,11.4-118.9c7.5-84.2,15.9-169.5,44.7-249.6C780.2,383,734.7,394,712.3,420.8z M303.1,843.1     c-5.1-16.5-10-33.1-14.5-49.8c-32.9-122.3-48.2-248.1-63.6-373.5c-0.5-4.1,3.8-7.5,7.5-7.5c4.5,0,7,3.4,7.5,7.5     c2,15.9,3.9,31.7,5.9,47.6c15.7,125.3,34,250.8,71.7,371.7C320.4,848.4,306,852.3,303.1,843.1z M753.8,440.5     c0.2,14.1,0,28.2-0.5,42.2c-5.2,128.9-38.8,254-66,379.5c-2,9.5-16.5,5.4-14.5-4c2.7-12.5,5.5-24.9,8.3-37.4     c28.1-125.1,59.5-251.2,57.8-380.3C738.7,430.8,753.7,430.8,753.8,440.5z"/></g></g><g><path d="M242,370.5c-13-43.9-44-80.6-52.4-126.1c-22.2,1-38-8-45.4,19.4c-4.7,17.3,18.5,40.3,27,54.1    C190.7,350.1,203.8,358.2,242,370.5z"/></g><g><path d="M241.5,290.3c-5.6,12.6,93.5,227.3,143.1,226.5c-30.7-55.2-45.2-91.9-63.3-145.6C311,340.6,275.9,213.2,241.5,290.3z"/></g><g><path d="M232.5,257.1c16.6-38.5,49.2-8.8,60.1,0c-3.1-19.9-5.4-39.9-6.9-59.9c-2.1-29-13.1-24.8-38.5-34.7    c-8.1-3.2-24.5,27.5-23.2,36.1C225,205.7,221.5,258.3,232.5,257.1z"/></g><g><path d="M448.4,323.2c-29.6-10.4-23.6-14.8-46.3,11.6c-22.4,25.9,0.6,109.2,3.9,141.4c2.2,21.5-3.2,58.4,19.4,67.9    c14.1,6,29.8,6.7,44.9,7.4c-4.3-54.4-6.9-108.9-7.8-163.4C462,364.1,472,331.5,448.4,323.2z"/></g><g><path d="M370.7,432.3c-5.1-48.9,2.4-87.8,5.1-136.8c0.7-11.8-5.4-49.4-10.7-60.5c-5.8-12.1-16.9-20.9-22.2-31.6    c-33.7,31-28.6,55.1-17.9,99.2C335.8,347.3,353.3,389.9,370.7,432.3z"/></g><g><path d="M512.6,391.1c2.5,17.5-3.3,32.4-7.2,49.2c-8,35-14.2,59.7-9.5,95.7c2.9,22.3,39.4,12.1,53.8,6.6    c6.6-26.2,12.6-44.8,20.5-70.7c4.2-13.8,24.4-57.5,18.7-71.2c-6.3-15.1-26.7-29.2-38.6-40.4C540.9,372.8,527.7,386.3,512.6,391.1z    "/></g><g><path d="M848.5,210.5c-35,18.2-38.3,22.9-56.4,58.3c-17.4,34-33.5,68.5-48.5,103.6c21.9-6,29.9-13.8,51.7-19.8    c14.7-4,22.4-33.8,28.8-45.5c7.7-14.2,31.9-46.5,32.2-62.3C856.7,231.7,852.3,223.9,848.5,210.5z"/></g><g><path d="M764.4,271.5c27-52.9,1.3-87.9-19.2-102.7c0,0-27.7,12.4-37.8,23.2c-10.7,11.4,4.4,150.2,8.1,183.1    C733.1,341.7,747.3,305,764.4,271.5z"/></g><g><path d="M645.7,278.3c17.2,35.3,33.6,70.9,49.3,106.9c-8.5-45.2-14.2-90.8-17-136.7c-0.8-13.2,1.3-44.8-10.8-54.2    c-10.4-8.1-26.2-7.2-37.5-16.2C614.8,225.1,623.9,233.5,645.7,278.3z"/></g><g><path d="M618.6,495.4c14.7-18.9,30.4-36.9,47.2-53.9c28-28.4,24.3-23,3.6-56.2c-14.4-23-25.4-7.7-33.2-3.2    c-12.6,48.3-33.8,94.3-52.7,140.4C592.4,511,608.8,508,618.6,495.4z"/></g><g><path d="M606.5,249.7c-5.1,7.9-42.5,48.8-38.2,69.6c6.9,32.9,12,40,42.1,58.3c6.2-14.7,24.4-42.8,23.6-58.7    C633.4,306.1,613.1,262.9,606.5,249.7z"/></g><g><path d="M482.9,384c16-20.7,36.6-27.2,39.1-51.5c2.7-26.6,6-53.1,9.6-79.6c4.6-33.1,10-66.1,16.1-98.9    c5.7-30.4-14.9-26.7-33.3-48.3c-7,15.6-25.3,21.6-32.3,37.1c-13.2,29.4,0.5,81.4,1.4,112.9C484.7,298.4,484.5,341.2,482.9,384z"/></g><g><path d="M616,155.9c8-5.1,22.5,1.5,31,6c3-7.4,2.9-21.2,5.9-28.6c5.4-13.3-19-30.7-26-39.9c-15.6,12.1-39.4,29-47.9,47.6    c-16.5,36.5-19.2,86.3-27.7,125.6C598.1,251.4,588.6,186.1,616,155.9z"/></g><g><path d="M398,298.1c8.9,0.1,16.1-13.7,23.8-16.2c10.1-3.3,26.9,11.9,37.9,13.1c-6.5-39.3-13-78.7-19.6-118    c-5.2-31.3-12.8-36-38-54.2c-2.5,32.6-30.3,48.2-21.2,84.1C388.6,236.7,401.8,266.7,398,298.1z"/></g></g><text x="0" y="1015" fill="#000000" font-size="5px" font-weight="bold" font-family="'Helvetica Neue', Helvetica, Arial-Unicode, Arial, Sans-serif">Created by Alvaro Cabrera</text><text x="0" y="1020" fill="#000000" font-size="5px" font-weight="bold" font-family="'Helvetica Neue', Helvetica, Arial-Unicode, Arial, Sans-serif">from the Noun Project</text></svg>