<svg xmlns="http://www.w3.org/2000/svg" xmlns:xlink="http://www.w3.org/1999/xlink" version="1.1" x="0px" y="0px" viewBox="0 0 1000 1250" enable-background="new 0 0 1000 1000" xml:space="preserve"><g><path d="M810.2,366.2c-22.8,6.8-45.9,13.1-67.5,23.4c-10.7,5.1-20.7,11.4-29.5,19.4c-9.6,8.7-16.9,20.1-23.8,30.9   c-7.2,11.4-13.8,23.1-21.5,34.1c-7.9,11.3-17.6,20.7-27.9,29.9c-18.5,16.4-38.4,31.3-60.3,43c-43.8,23.2-95.4,28.2-143.4,16.6   c-48.5-11.7-92.4-41.1-122.3-81.1c-8.7-11.7-13.8-24-19-37.6c-5.2-13.5-10.5-27.8-20.3-38.8c-5.3-6-12.2-8.4-19.4-11.3   c-11-4.4-22-8.7-33-13.1c-22-8.7-43.9-17.5-65.9-26.2c-5.4-2.1-10.8,4.2-9.2,9.2c18.8,60.2,39.3,119.9,55.3,181   c8,30.5,14.7,61.3,19.5,92.4c4.9,32.1,7.4,64.6,9.9,97c2.3,29,4.2,58.2,7.2,87.1c2.3,22,7.5,43.7,23.9,59.7   c9.1,8.8,21,15.6,33.3,18.2c12.4,2.6,25.2,0.5,37.2-3.3c12.4-3.9,24.2-9.8,36.3-14.5c13.8-5.3,28.2-8.1,42.8-9.5   c47-4.6,93.6,5.9,139.5,14.6c46.5,8.8,93,17.7,139.6,26.5c5.1,1,9-2.1,9.5-7.2c1-9.1,6.1-16.4,14.2-20.6   c8.1-4.2,16.5-6.3,23.6-12.2c0.3-0.2,0.6-0.4,0.8-0.7c0.3-0.2,0.5-0.5,0.7-0.7c12.6-12.8,16-32.9,18.2-49.9   c2.7-20.5,2.9-41.1,3.6-61.7c0.9-26.1,4.6-52.2,7-78.2c3-32.2,5.7-64.5,8.8-96.7c6.9-71.2,16.8-142.7,41-210.4   C821.4,370,815.4,364.6,810.2,366.2z M766.7,554.1c-3.5,31.5-6.2,63.1-9,94.6c-2.9,31.9-6.4,63.7-9.3,95.5   c-1.9,20.9-1.2,42-2.9,62.9c-0.9,11.1-2.3,22.2-5.1,33c-2.1,8.1-5.2,16.6-11,22.2c-7.4,6.6-18.1,7.9-26.3,13.5   c-7.7,5.3-12.6,13.2-15,21.9C626,886,564,873.2,501.7,862.7c-31.9-5.4-64.3-8.2-96.5-4.2c-14.6,1.8-28.4,5-42.1,10.4   c-12.1,4.7-23.8,10.4-36.2,14.2c-11.8,3.6-23.5,4.2-35.2-0.2c-10.3-3.9-19.7-12-25.7-21.1c-11.8-17.9-11.9-41.2-13.7-61.8   c-5.4-64.1-8.4-128.7-20.2-192.1c-14.8-79.3-41.3-155.8-65.6-232.6c25.9,10.3,51.8,20.6,77.7,30.9c5.5,2.2,11.7,3.9,16.7,7.1   c2.8,1.8,5.3,5.3,7.2,8.3c5.4,8.3,9,17.8,12.5,27c3.6,9.3,6.9,18.7,11.5,27.6c5.3,10.2,13.2,19.4,20.6,28.1   c16.4,19.2,36.4,35.4,58.1,48.3c44.6,26.4,97.1,36.3,148.3,29.4c49.5-6.7,92.2-33.4,129.3-65.6c7.5-6.5,14.9-13.1,21.4-20.5   c6.9-7.8,12.8-16.5,18.4-25.2c10.4-16.4,19.3-34.3,32.9-48.4c11.8-12.3,28-19.9,43.7-25.9c11.7-4.5,23.7-8.1,35.7-11.6   C782.4,439.6,773.2,496.8,766.7,554.1z"/><path d="M245.8,467.5c-2-15.9-3.9-31.7-5.9-47.6c-0.5-4.1-3-7.5-7.5-7.5c-3.7,0-8,3.4-7.5,7.5c15.4,125.4,30.7,251.2,63.6,373.5   c4.5,16.7,9.3,33.3,14.5,49.8c2.9,9.2,17.4,5.3,14.5-4C279.8,718.3,261.5,592.8,245.8,467.5z"/><path d="M738.7,440.5c1.7,129.1-29.7,255.2-57.8,380.3c-2.8,12.5-5.6,24.9-8.3,37.4c-2,9.4,12.4,13.4,14.5,4   c27.2-125.4,60.8-250.6,66-379.5c0.6-14.1,0.7-28.2,0.5-42.2C753.6,430.9,738.6,430.9,738.7,440.5z"/><path d="M194.9,357.6c13.1,9.9,29.6,15.2,45.1,20.2c5.4,1.7,10.8-3.9,9.2-9.2c-13.2-43.8-43.7-80.7-52.4-126.1   c-0.6-3.2-4.1-5.6-7.2-5.5c-10,0.4-19.9-1.4-29.8,0c-11.2,1.5-17.8,10.7-21.5,20.6c-9.3,24.8,14.6,45.2,26.4,64.2   C172.9,335.3,182.1,347.9,194.9,357.6z M151.8,264.3c1-3.7,2.5-7.3,5.2-10.1c1.6-1.7,4.4-2.5,6.5-2.7c6.6-0.7,13.3,0.1,20,0.4   c8.9,38.1,32.4,70.5,46.4,106.7c-9-3.3-17.8-7.2-25.8-12.7c-11.5-7.9-19.5-20-26.6-31.7c-5.2-8.4-11.7-15.9-17.2-24   C155.3,282.8,149.1,273.5,151.8,264.3z"/><path d="M294.5,282.5c-6.5-10.8-15.4-22.6-28.8-24c-15.4-1.6-25.4,16.5-30.6,28.1c-0.1,0.3-0.3,0.6-0.4,0.9   c-0.1,0.3-0.3,0.6-0.4,0.8c-2.2,5.5,1.4,13.9,3.1,19.1c3.8,11.5,8.6,22.6,13.4,33.7c13.3,30.6,28.6,60.4,45.3,89.2   c13.3,22.8,27.7,45.4,45,65.4c10.6,12.3,25.8,28.5,43.5,28.4c5.8,0,9.2-6.3,6.5-11.3c-26-46.9-46.8-95.8-63.5-146.8   C318.2,337.9,309.9,308.3,294.5,282.5z M364.8,498.9c-10.1-8.9-18.6-19.6-26.3-30.1c-20.3-27.7-37.2-58-52.8-88.6   c-10-19.7-19.9-40.6-27.8-60.1c-2.8-6.9-5.4-13.8-7.5-20.9c-0.7-2.2-1.3-4.4-1.7-6.6c0,0,0,0,0-0.1c0-0.1,0-0.1,0-0.2   c3-6.4,6.2-12.5,11.3-16.9c-0.1,0.2,1.8-1.2,2.3-1.5c0.1,0,0.1-0.1,0.2-0.1c0,0,0.1,0,0.1,0c0.5-0.2,1-0.3,1.4-0.4c0,0,0.1,0,0.1,0   c0.4,0,0.8,0,1.2,0c-1.2,0,0.6,0.3,1.7,0.5c0.2,0.2,1.9,1,2.3,1.2c0.1,0.1,0.7,0.5,0.9,0.6c0.3,0.3,0.7,0.5,1,0.8   c2,1.7,4.6,4.8,5.4,5.9c4.3,5.8,7.8,12.2,11,18.6c13.9,28.1,21.9,59,32.1,88.5c13.4,38.5,29.3,75.7,48.1,111.7   C367,500.8,366.1,500,364.8,498.9z"/><path d="M217,233.6c0.5,9.4,1.2,31.8,15.4,31.1c2.4-0.1,5.4-1.3,6.5-3.7c2.3-5.2,5.7-12.1,11.3-14.4c4.5-1.9,8.6-1.2,13.4,0.4   c9.2,3.1,16.5,9.7,23.7,15.5c6,4.9,13.7,0.3,12.5-7.3c-1.9-12.2-3.5-24.4-4.7-36.6c-1.1-10.8-1.3-21.8-3.3-32.4   c-2.5-13.5-11.4-20.4-23.8-24.5c-3-1-6-1.9-9.1-2.9c-3.4-1.1-7.1-3.1-10.7-3.7c-6.6-1-11.8,2.9-15.9,7.7   c-4.6,5.3-8.2,11.5-11.1,17.9c-2.4,5.3-5.4,12-4.8,18C217.9,210,216.4,222.1,217,233.6z M242.3,174.1c0.8-1,1.6-1.9,2.4-2.8   c0.1-0.1,1-0.8,1.4-1.2c0.5,0.2,1,0.4,1.6,0.6c5.9,2.2,12,3.9,17.9,5.9c3.5,1.2,6.2,2.5,8.5,5.1c-0.3-0.3,1,1.6,1.1,1.9   c0.4,0.8,0.6,1.2,0.9,2.4c1,3.2,1.5,6.5,1.8,9.8c1.4,14.9,2.8,29.7,4.7,44.5c-5.2-3.5-10.8-6.5-17-8.4   c-13.4-4.1-24.9,0.9-32.9,10.4c-0.6-4.4-0.8-9.2-1-13.9c-0.4-9.8,0.8-20.1-0.4-29.8C230.7,192.2,237.4,180.4,242.3,174.1z"/><path d="M399.2,495.5c0.5,19.1,1.5,43.5,20.3,54.2c14.8,8.4,34.2,8.7,50.7,9.3c3.9,0.2,7.8-3.5,7.5-7.5   c-2.6-32.8-4.5-65.6-5.9-98.4c-1.2-28.7-3-57.7-0.8-86.4c0.8-10.2,1.4-20.7-1.5-30.7c-3-10.5-10.6-17-20.6-20.6   c-7.8-2.8-15.4-6.9-23.6-7.9c-6.9-0.8-12.7,4.2-17.2,8.8c-4,4.2-7.6,8.7-11.4,13.1c-11.6,13.8-12.3,33.6-11.8,50.8   c0.7,21.5,4.5,43,8.3,64.1C396.4,462.2,398.8,477.5,399.2,495.5z M403.5,347c0.7-2,2.7-5.6,3.8-6.9c3.6-4.1,7.1-8.3,10.7-12.3   c1.2-1.3,2.4-2.6,3.7-3.8c1.4-1.3,0.3-0.5,2.1-1.4h0c-1.4,0.7-0.4,0.2,0.2,0c0,0,0.1,0,0.1,0c0.2,0,0.5,0,0.8,0.1   c0.4,0.1,0.9,0.2,1.3,0.3c3.4,0.9,6.7,2.4,10,3.7c7.9,3.1,15.9,4.5,18.8,13.4c3,9.2,1.5,19.8,0.8,29.3c-2.2,28.4-0.1,57.3,1.1,85.8   c1.2,29.5,3,59.1,5.2,88.6c-11.6-0.6-23.5-1.7-34.1-6.5c-8-3.6-10.7-12.4-12.2-20.4c-1.9-9.7-1.6-19.9-1.8-29.8   c-0.2-8.4-1.2-16.6-2.5-24.9c-3.2-19.7-7.2-39.2-9.6-59C399.6,385,397.3,364.6,403.5,347z"/><path d="M363.4,434.3c1.3,3.1,3.6,5.5,7.2,5.5c3.8,0,7.9-3.4,7.5-7.5c-4.1-40.7,1-80.9,4.1-121.4c0.6-7.5,1.3-15,0.8-22.5   c-0.4-6.8-1.4-13.6-2.4-20.3c-1.8-12-3.8-24.8-8.8-36c-0.1-0.3-0.2-0.5-0.4-0.8c-0.1-0.3-0.3-0.6-0.4-0.8   c-5.9-11.2-15.9-19.5-21.7-30.7c-2.3-4.4-8.4-4.7-11.8-1.5c-12.8,11.9-23.7,26.1-27,43.6c-3.2,16.9,0.4,34.3,4.2,50.8   C326,341.5,344.4,388,363.4,434.3z M324.8,247.1c1.4-12.3,8.4-22.8,16.7-31.7c5.7,7.8,12.6,14.7,17,23.5c0.1,0.1,0.1,0.2,0.1,0.3   c0.2,0.4,0.3,0.9,0.5,1.3c0.4,1.1,0.8,2.3,1.1,3.5c0.8,2.8,1.5,5.6,2.2,8.4c1.5,6.5,2.7,13.1,3.8,19.8c2.2,13.9,2,26.8,0.9,40.7   c-2,25.9-4.7,51.7-5.3,77.5c-12.2-31.3-23.3-63-31.1-95.8C326.9,279,323,263.1,324.8,247.1z"/><path d="M492.4,464.6c-4.9,23.7-6.9,47.3-3.9,71.4c0,0.3,0.1,0.6,0.2,0.9c0,0.4,0.1,0.7,0.1,1.1c3.3,21.1,27.9,20.6,44,17.4   c4-0.8,8-1.9,11.9-3.1c4.4-1.3,11.1-2.6,12.3-7.7c3.6-14,7.5-28,11.7-41.9c3.5-11.5,6.6-23.1,10.7-34.4c3.2-8.7,6.7-17.3,9.7-26   c3.2-9.1,6.3-18.4,7.6-28c1.4-9.8-0.2-17.3-6-25.5c-9.5-13.4-23.3-22.8-35.1-33.9c-3.9-3.6-8.8-2.4-11.8,1.5   c-8.6,11.3-19.5,22.7-33.2,27.3c-2.9,1-5.9,3.8-5.5,7.2c1.6,12.6-1.1,24.4-4.3,36.6C497.7,439.9,494.9,452.3,492.4,464.6z    M507.5,465.3c2.6-12.4,5.5-24.8,8.7-37c2.7-10.6,4.8-21.4,4.3-32.3c12.2-5.5,22.1-14.7,30.7-24.9c11.4,9.6,24.2,18.9,30.7,32.3   c0.2,0.4,0.4,1.3,0.5,1.9c-0.3-1.2,0,2.1,0,2.7c0,3-0.6,5.7-1.2,8.7c-1.6,7.4-4,14.7-6.5,21.8c-4.6,13-9.8,25.6-13.9,38.7   c-6.1,19.8-12.1,39.7-17.4,59.8c-7.2,2.5-14.7,4.5-22.3,5.2c-4.7,0.4-9.1,0.4-13.5-1.1c-0.9-0.3-1.9-1.1-2.8-2   c0.4,0.3-1.1-1.8-0.8-1.2c-0.4-0.9-0.6-1.9-0.8-2.9C500.5,511.3,502.6,488.5,507.5,465.3z"/><path d="M863.9,243.9c-0.2-12.4-4.8-23.5-8.2-35.3c-1.4-4.8-6.7-6.7-11-4.5c-11.6,6.1-23.5,12.2-33.2,21.1   c-8.6,7.8-14.5,18.2-19.9,28.4c-20,37.4-37.8,76.1-54.4,115.1c-2.4,5.7,1.5,13,8.5,11c9.3-2.6,18.2-6.3,27-10.4   c8.7-4,17.6-6.6,26.4-10c14.7-5.7,21-23.7,26.5-37c5.3-12.8,12.8-23.8,20.1-35.5c7.5-12,17-26.1,18.1-40.7c0.1-0.4,0.1-0.8,0.1-1.2   C863.9,244.5,863.9,244.2,863.9,243.9z M843.9,259.6c-3.5,7.1-7.7,14-11.9,20.7c-6.9,11.1-14.1,21.6-19.1,33.7   c-2.6,6.2-5.1,12.4-8.2,18.4c-2.3,4.4-5.8,11-10.5,12.8c-4.6,1.8-9.4,2.8-14,4.6c-4.3,1.6-8.4,3.5-12.6,5.4   c-3.5,1.6-6.9,3.1-10.4,4.6c14.3-32.6,29.6-64.8,46.1-96.3c5.1-9.8,10.3-19.5,18.1-27.1c6.4-6.2,14.5-10.8,22.6-15.1   c2.5,7.7,4.9,15.3,4.9,23.6C848.7,249.2,846.1,255,843.9,259.6z"/><path d="M708,375.2c0.8,6.8,10.2,11.1,14,3.8c17.7-33.9,31.6-69.6,48.9-103.6c11.1-22.2,16.6-47.2,8.9-71.4   c-5.3-16.9-16.7-31.2-30.8-41.5c-2.3-1.7-5.3-1-7.6,0c-5.9,2.7-11.6,5.6-17.3,8.8c-8,4.5-18.1,9.8-23.5,17.5   c-2.5,3.5-3,8.4-3.5,12.5c-0.7,5.8-0.9,11.7-1,17.6c-0.4,35.9,3.3,72,6.8,107.8C704.4,342.8,706.1,359,708,375.2z M711.5,207.3   c0.1-1.3,0.2-2.6,0.3-3.8c0-0.4,0.1-0.7,0.1-1.1c0-0.3,0.1-0.7,0.1-0.8c0.2-1.5,0.6-3.1,1-4.5c-0.2,0.9,0.7-0.8,0.2-0.4   c1.1-1.1,2.3-2.2,3.5-3.1c4.3-3.3,9-6.1,13.8-8.8c4.4-2.5,9-4.9,13.6-7.2c9.3,7.7,17.2,18.6,21.1,30.4c6.8,20.1,1.8,41.4-7.4,59.9   c-13.5,26.6-24.9,54.2-37.7,81.2c-2.4-22.5-4.5-45.1-6.2-67.6c-1.4-17.9-2.5-35.8-2.8-53.7C711,220.8,711,214.1,711.5,207.3z"/><path d="M626.4,171.4c-1.5,0.6-2.8,1.8-3.5,3.5c0,0.1-0.1,0.1-0.1,0.2c0,0.1-0.1,0.1-0.1,0.2c-0.1,0.3-0.2,0.6-0.3,0.9   c-4.8,15.2-9,31.4-7,47.5c1.9,14.8,8.7,28.1,15.3,41.3c20.3,40.8,39.5,82.1,57.7,123.8c1.3,3,5.5,4.3,8.5,3.4   c4.2-1.2,6-5.2,5.2-9.2c-4.6-24.5-8.4-49.2-11.3-73.9c-2.6-22.2-5.2-44.8-5.6-67.2c-0.3-15.2,0.1-31.7-6.9-45.7   c-8.5-17.1-31.3-14.5-44.9-24.7C631.4,170.1,628.6,170.3,626.4,171.4z M637,190.6c4.6,1.8,9.3,3.1,14,4.4c6,1.8,12.4,3.9,14.9,10   c5.4,12.9,3.9,28.1,4.4,41.8c1,27.5,3.8,55,7.7,82.4c-10.2-22.1-20.6-44.2-31.5-66c-6.3-12.6-13.5-25.3-16.1-39.3   c-1.9-10.3,0-21.2,2.7-31.5c0.1,0,0.1,0,0.2-0.1C634.9,192,636.1,191.3,637,190.6z"/><path d="M588.7,527.9c4.9-6,11.6-9.6,18.2-13.5c8.3-4.9,14.5-10.6,20.5-18.2c13.6-17.3,28.3-33.7,43.7-49.4   c8.4-8.5,21.1-18.1,22.2-31c0.4-5-2.2-10.1-4.6-14.2c-4-6.8-8.6-13.3-12.9-20c-7.9-12.1-19.5-20.6-33.6-12.8   c-3.7,2-8.4,5.1-11.4,8.1c-3.2,3.2-3.7,9.9-4.9,14.1c-1.5,5.4-3.2,10.8-5,16.1c-12.5,38.7-29.4,75.8-44.7,113.4   C573.3,527.5,584.1,533.6,588.7,527.9z M642.6,386.9c2.8-2,5.5-4.3,8.7-5.9c0.9-0.5,2.5-0.7,3.4-0.3c3.7,1.6,6.1,5.3,8.2,8.5   c3.9,6.2,8,12.2,11.9,18.4c0.7,1,1.3,2.1,1.9,3.2c0.1,0.2,1,2,1,2c0.3,0.7,0.5,1.4,0.7,2.2c0,0.1,0,0.1,0,0.2c0,0.1,0,0.4-0.1,0.8   c0-1.5-0.1-0.4-0.2,0.4c-0.1,0.2-0.7,1.5-0.8,1.7c-1.1,1.9-2.2,3.1-3.8,4.9c-5.8,6.5-12.2,12.5-18.2,18.8   c-14.4,14.9-28,30.7-40.8,47c-3.8,4.9-8.6,8.4-13.7,11.6C616.3,463.1,632,425.9,642.6,386.9z"/><path d="M574.4,358.1c8.2,11.3,20.5,18.8,32.2,26c3.2,1.9,8.7,1,10.3-2.7c5.3-12.3,12.3-23.7,17.6-35.9c4.9-11.2,8.7-22.5,5.6-34.7   c-3-12-8.3-23.5-13.2-34.8c-4.4-10.1-9-20.2-14-30.1c-2.7-5.3-10.1-4.4-13,0c-1.3,2-1.5,2.2-2.3,3.2c-1.9,2.5-3.9,4.9-5.8,7.4   c-5.2,6.7-10.4,13.4-15.1,20.4c-8.4,12.3-18.2,28-15.8,43.5c0,0.3,0.1,0.6,0.1,0.9C563.7,334,566.7,347.4,574.4,358.1z    M575.5,314.6c0-0.9,0.2-1.8,0.5-3.2c0.7-3,1.8-5.9,3.1-8.7c3.2-7.1,7.5-13.7,11.9-20.1c4.4-6.4,9.4-12.3,14.2-18.4   c7.6,15.6,14.8,31.7,19.7,48.2c0.6,1.8,1,3.7,1.4,5.6c0,0.2,0.1,0.4,0.1,0.4c0,0.1,0,0.3,0,0.6c0.1,1.3,0,2.6-0.1,4   c-0.5,5.5-3.1,11.3-5.3,16.3c-4.1,9.4-9.3,18.4-13.8,27.6c-7.6-4.8-15.3-10.1-20.3-17.1c-6.8-9.4-9-21.4-11.3-32.5   C575.7,318.3,575.5,315.2,575.5,314.6z"/><path d="M475.3,244.5c2,22,1.4,44.4,1.4,66.5c0,24.4-0.5,48.7-1.3,73c-0.2,6.1,8.7,10.6,12.8,5.3c14.5-18.4,38-29.9,41.1-55.3   c3.9-32.2,7.3-64.5,12.1-96.6c2.4-16.2,5-32.4,7.7-48.5c1.3-7.8,2.7-15.5,4.1-23.2c1.3-7.1,3-14.3,3-21.6c0-21.7-21.6-28-34.4-41.5   c-0.7-0.7-1.3-1.5-2-2.2c-3-3.5-9.8-2.7-11.8,1.5c-7.3,15.2-24.9,21.7-32.3,37.1c-0.1,0.3-0.3,0.6-0.4,0.9   c-6.6,15.9-6.9,33.2-5.9,50.2C470.6,208.3,473.7,226.4,475.3,244.5z M488.7,146.6c5.8-12.3,18.5-18.9,27-29.1   c5,4.4,10.4,8.2,15.9,12c6.2,4.3,9.5,8.1,9.5,15.8c0,6.7-2,13.6-3.2,20.2c-1.4,7.7-2.7,15.5-4.1,23.2c-2.6,15.5-5.1,31-7.4,46.6   c-4.5,30.4-8.3,60.8-11.5,91.3c-0.6,5.7-1.2,11.1-3.9,16.3c-2.2,4.3-5.6,7.9-9,11.3c-3.7,3.6-7.5,7-11.2,10.5   c0.5-17.3,0.7-34.5,0.7-51.8c0-21.9,0.5-44-1.1-65.9c-1.3-17.5-4.3-34.9-5.8-52.4C483.5,179.2,482.3,161.3,488.7,146.6z"/><path d="M553.3,273.9c28.1-9.6,39.2-35.7,46.9-62.2c3.6-12.3,6.6-24.9,12.1-36.5c1.3-2.8,2.9-5.6,4.5-8.2c1-1.5,2.6-4.7,4.3-5.2   c6.7-2.1,16.3,3.7,22,6.6c4.6,2.4,9.3,0.2,11-4.5c2.8-7.6,2.9-16.1,4.6-24c0.7-3.5,2.1-6.5,2.4-10.1c0.3-3.5-1-7.2-2.4-10.3   c-5.8-12.8-18.1-20.6-26.6-31.3c-2.7-3.5-7.7-2.3-10.6,0c-17.9,13.9-39.1,28-49,49.1c-17.9,40.2-19.4,84.9-28.5,127.4   C543,269.9,547.6,275.9,553.3,273.9z M585.5,144.9c8.2-17.4,25-29.7,40.3-41.2c6.6,7,14.4,13,19.1,21.5c2.6,4.7-0.1,8-1.1,13.4   c-0.8,4.2-1.2,8.5-1.9,12.7c-5.2-2.2-10.6-3.8-16.3-4.6c-9.6-1.3-15.5,3.7-20.6,11c-7.9,11.2-12,24.9-15.8,37.9   c-5.8,19.8-11,44.2-27.7,57.2C567.8,216.5,570.5,178.7,585.5,144.9z"/><path d="M390.5,298.2c-0.4,3.9,3.7,7.7,7.5,7.5c6.1-0.3,10.8-3.2,15.3-7.1c3.2-2.8,6.4-7.8,10.5-9.3c4.5-1.2,11.2,3.2,15.2,5.4   c5.9,3.1,12,6.8,18.7,7.7c5.9,0.8,10.2-3.2,9.2-9.2c-6.7-40.3-12.9-80.7-20.1-121c-2.1-11.9-5.7-23-13.2-32.7   c-7.3-9.4-18.2-16.1-27.7-23c-5-3.6-10.8,1.4-11.3,6.5c-1.1,12.5-7,23.4-12.6,34.3c-5.9,11.6-10.5,23.5-10.4,36.7   c0.1,16.8,7.5,33.7,12,49.6C388.8,261.3,392.5,279.5,390.5,298.2z M396.7,161.5c4.3-8.4,8.2-16.8,10.6-25.7   c5.7,4.2,11.3,8.7,15.7,14.2c6.6,8.2,8.4,20.7,10.2,31c5.7,34.3,11.4,68.5,17,102.8c-9-4.6-17.6-11-27.8-9.6   c-0.8,0-1.7,0.2-2.6,0.5c-0.9,0.3-1.7,0.6-2.4,1.1c-3.8,1.9-6.9,4.6-10,7.7c-0.4,0.4-0.8,0.9-1.3,1.4c-0.3-13.6-3-27-6.4-40.2   c-2.3-8.7-5-17.3-7.6-26c-2.3-7.7-4.9-15.5-5.3-23.5C386,183,391.2,172.1,396.7,161.5z"/></g><text x="0" y="1015" fill="#000000" font-size="5px" font-weight="bold" font-family="'Helvetica Neue', Helvetica, Arial-Unicode, Arial, Sans-serif">Created by Alvaro Cabrera</text><text x="0" y="1020" fill="#000000" font-size="5px" font-weight="bold" font-family="'Helvetica Neue', Helvetica, Arial-Unicode, Arial, Sans-serif">from the Noun Project</text></svg>