<svg xmlns="http://www.w3.org/2000/svg" viewBox="0 0 116.73 145.9125" x="0px" y="0px"><title>Icon line seÌrie 2</title><g><path d="M82.06,25.87A14.85,14.85,0,0,0,67.46,38.2H49.63L48.34,27.61a2.5,2.5,0,0,0-1.77-2.1l-23.52-7a2.5,2.5,0,1,0-1.42,4.79l22,6.54,1,8.36H35.88a2.48,2.48,0,0,0-1.83.8,2.45,2.45,0,0,0-.66,1.89l4.7,60.29a2.5,2.5,0,0,0,2.49,2.31H77.37a2.51,2.51,0,0,0,2.49-2.31l3.56-45.72a14.83,14.83,0,0,0-1.36-29.59ZM79.36,43.2l-.67,8.66H51.29L50.23,43.2Zm-34.16,0,1,8.66h-7l-.68-8.66ZM75.05,98.49H42.89L39.65,56.86h7.21l3.37,27.78a2.5,2.5,0,0,0,2.48,2.2l.3,0A2.5,2.5,0,0,0,55.19,84l-3.3-27.17H78.3Zm8.77-48.13.74-9.47A2.53,2.53,0,0,0,83.9,39a2.5,2.5,0,0,0-1.84-.8H72.57A9.82,9.82,0,1,1,83.82,50.36Z"/></g><text x="0" y="131.73000000000002" fill="#000000" font-size="5px" font-weight="bold" font-family="'Helvetica Neue', Helvetica, Arial-Unicode, Arial, Sans-serif">Created by Bruno Bosse</text><text x="0" y="136.73000000000002" fill="#000000" font-size="5px" font-weight="bold" font-family="'Helvetica Neue', Helvetica, Arial-Unicode, Arial, Sans-serif">from the Noun Project</text></svg>